<svg xmlns="http://www.w3.org/2000/svg" xmlns:xlink="http://www.w3.org/1999/xlink" width="600" height="400" viewBox="0 0 2400 1600">
<defs>
  <clipPath id="clip430">
    <rect x="0" y="0" width="2400" height="1600"></rect>
  </clipPath>
</defs>
<path clip-path="url(#clip430)" d="M0 1600 L2400 1600 L2400 0 L0 0  Z" fill="#ffffff" fill-rule="evenodd" fill-opacity="1"></path>
<defs>
  <clipPath id="clip431">
    <rect x="480" y="0" width="1681" height="1600"></rect>
  </clipPath>
</defs>
<path clip-path="url(#clip430)" d="M184.191 1423.18 L2352.76 1423.18 L2352.76 47.2441 L184.191 47.2441  Z" fill="#ffffff" fill-rule="evenodd" fill-opacity="1"></path>
<defs>
  <clipPath id="clip432">
    <rect x="184" y="47" width="2170" height="1377"></rect>
  </clipPath>
</defs>
<polyline clip-path="url(#clip432)" style="stroke:#000000; stroke-linecap:round; stroke-linejoin:round; stroke-width:2; stroke-opacity:0.1; fill:none" points="184.191,1423.18 184.191,47.2441 "></polyline>
<polyline clip-path="url(#clip432)" style="stroke:#000000; stroke-linecap:round; stroke-linejoin:round; stroke-width:2; stroke-opacity:0.1; fill:none" points="617.904,1423.18 617.904,47.2441 "></polyline>
<polyline clip-path="url(#clip432)" style="stroke:#000000; stroke-linecap:round; stroke-linejoin:round; stroke-width:2; stroke-opacity:0.1; fill:none" points="1051.62,1423.18 1051.62,47.2441 "></polyline>
<polyline clip-path="url(#clip432)" style="stroke:#000000; stroke-linecap:round; stroke-linejoin:round; stroke-width:2; stroke-opacity:0.1; fill:none" points="1485.33,1423.18 1485.33,47.2441 "></polyline>
<polyline clip-path="url(#clip432)" style="stroke:#000000; stroke-linecap:round; stroke-linejoin:round; stroke-width:2; stroke-opacity:0.1; fill:none" points="1919.04,1423.18 1919.04,47.2441 "></polyline>
<polyline clip-path="url(#clip432)" style="stroke:#000000; stroke-linecap:round; stroke-linejoin:round; stroke-width:2; stroke-opacity:0.1; fill:none" points="2352.76,1423.18 2352.76,47.2441 "></polyline>
<polyline clip-path="url(#clip430)" style="stroke:#000000; stroke-linecap:round; stroke-linejoin:round; stroke-width:4; stroke-opacity:1; fill:none" points="184.191,1423.18 2352.76,1423.18 "></polyline>
<polyline clip-path="url(#clip430)" style="stroke:#000000; stroke-linecap:round; stroke-linejoin:round; stroke-width:4; stroke-opacity:1; fill:none" points="184.191,1423.18 184.191,1404.28 "></polyline>
<polyline clip-path="url(#clip430)" style="stroke:#000000; stroke-linecap:round; stroke-linejoin:round; stroke-width:4; stroke-opacity:1; fill:none" points="617.904,1423.18 617.904,1404.28 "></polyline>
<polyline clip-path="url(#clip430)" style="stroke:#000000; stroke-linecap:round; stroke-linejoin:round; stroke-width:4; stroke-opacity:1; fill:none" points="1051.62,1423.18 1051.62,1404.28 "></polyline>
<polyline clip-path="url(#clip430)" style="stroke:#000000; stroke-linecap:round; stroke-linejoin:round; stroke-width:4; stroke-opacity:1; fill:none" points="1485.33,1423.18 1485.33,1404.28 "></polyline>
<polyline clip-path="url(#clip430)" style="stroke:#000000; stroke-linecap:round; stroke-linejoin:round; stroke-width:4; stroke-opacity:1; fill:none" points="1919.04,1423.18 1919.04,1404.28 "></polyline>
<polyline clip-path="url(#clip430)" style="stroke:#000000; stroke-linecap:round; stroke-linejoin:round; stroke-width:4; stroke-opacity:1; fill:none" points="2352.76,1423.18 2352.76,1404.28 "></polyline>
<path clip-path="url(#clip430)" d="M184.191 1454.1 Q180.58 1454.1 178.751 1457.66 Q176.945 1461.2 176.945 1468.33 Q176.945 1475.44 178.751 1479.01 Q180.58 1482.55 184.191 1482.55 Q187.825 1482.55 189.63 1479.01 Q191.459 1475.44 191.459 1468.33 Q191.459 1461.2 189.63 1457.66 Q187.825 1454.1 184.191 1454.1 M184.191 1450.39 Q190.001 1450.39 193.056 1455 Q196.135 1459.58 196.135 1468.33 Q196.135 1477.06 193.056 1481.67 Q190.001 1486.25 184.191 1486.25 Q178.381 1486.25 175.302 1481.67 Q172.246 1477.06 172.246 1468.33 Q172.246 1459.58 175.302 1455 Q178.381 1450.39 184.191 1450.39 Z" fill="#000000" fill-rule="nonzero" fill-opacity="1"></path><path clip-path="url(#clip430)" d="M612.557 1481.64 L628.876 1481.64 L628.876 1485.58 L606.932 1485.58 L606.932 1481.64 Q609.594 1478.89 614.177 1474.26 Q618.783 1469.61 619.964 1468.27 Q622.209 1465.74 623.089 1464.01 Q623.992 1462.25 623.992 1460.56 Q623.992 1457.8 622.047 1456.07 Q620.126 1454.33 617.024 1454.33 Q614.825 1454.33 612.371 1455.09 Q609.941 1455.86 607.163 1457.41 L607.163 1452.69 Q609.987 1451.55 612.441 1450.97 Q614.894 1450.39 616.932 1450.39 Q622.302 1450.39 625.496 1453.08 Q628.691 1455.77 628.691 1460.26 Q628.691 1462.39 627.881 1464.31 Q627.093 1466.2 624.987 1468.8 Q624.408 1469.47 621.306 1472.69 Q618.205 1475.88 612.557 1481.64 Z" fill="#000000" fill-rule="nonzero" fill-opacity="1"></path><path clip-path="url(#clip430)" d="M1054.63 1455.09 L1042.82 1473.54 L1054.63 1473.54 L1054.63 1455.09 M1053.4 1451.02 L1059.28 1451.02 L1059.28 1473.54 L1064.21 1473.54 L1064.21 1477.43 L1059.28 1477.43 L1059.28 1485.58 L1054.63 1485.58 L1054.63 1477.43 L1039.02 1477.43 L1039.02 1472.92 L1053.4 1451.02 Z" fill="#000000" fill-rule="nonzero" fill-opacity="1"></path><path clip-path="url(#clip430)" d="M1485.73 1466.44 Q1482.59 1466.44 1480.73 1468.59 Q1478.91 1470.74 1478.91 1474.49 Q1478.91 1478.22 1480.73 1480.39 Q1482.59 1482.55 1485.73 1482.55 Q1488.88 1482.55 1490.71 1480.39 Q1492.56 1478.22 1492.56 1474.49 Q1492.56 1470.74 1490.71 1468.59 Q1488.88 1466.44 1485.73 1466.44 M1495.02 1451.78 L1495.02 1456.04 Q1493.26 1455.21 1491.45 1454.77 Q1489.67 1454.33 1487.91 1454.33 Q1483.28 1454.33 1480.83 1457.45 Q1478.4 1460.58 1478.05 1466.9 Q1479.42 1464.89 1481.48 1463.82 Q1483.54 1462.73 1486.01 1462.73 Q1491.22 1462.73 1494.23 1465.9 Q1497.26 1469.05 1497.26 1474.49 Q1497.26 1479.82 1494.11 1483.03 Q1490.97 1486.25 1485.73 1486.25 Q1479.74 1486.25 1476.57 1481.67 Q1473.4 1477.06 1473.4 1468.33 Q1473.4 1460.14 1477.29 1455.28 Q1481.17 1450.39 1487.73 1450.39 Q1489.48 1450.39 1491.27 1450.74 Q1493.07 1451.09 1495.02 1451.78 Z" fill="#000000" fill-rule="nonzero" fill-opacity="1"></path><path clip-path="url(#clip430)" d="M1919.04 1469.17 Q1915.71 1469.17 1913.79 1470.95 Q1911.89 1472.73 1911.89 1475.86 Q1911.89 1478.98 1913.79 1480.77 Q1915.71 1482.55 1919.04 1482.55 Q1922.38 1482.55 1924.3 1480.77 Q1926.22 1478.96 1926.22 1475.86 Q1926.22 1472.73 1924.3 1470.95 Q1922.4 1469.17 1919.04 1469.17 M1914.37 1467.18 Q1911.36 1466.44 1909.67 1464.38 Q1908 1462.32 1908 1459.35 Q1908 1455.21 1910.94 1452.8 Q1913.9 1450.39 1919.04 1450.39 Q1924.2 1450.39 1927.14 1452.8 Q1930.08 1455.21 1930.08 1459.35 Q1930.08 1462.32 1928.39 1464.38 Q1926.73 1466.44 1923.74 1467.18 Q1927.12 1467.96 1929 1470.26 Q1930.89 1472.55 1930.89 1475.86 Q1930.89 1480.88 1927.82 1483.57 Q1924.76 1486.25 1919.04 1486.25 Q1913.33 1486.25 1910.25 1483.57 Q1907.19 1480.88 1907.19 1475.86 Q1907.19 1472.55 1909.09 1470.26 Q1910.99 1467.96 1914.37 1467.18 M1912.65 1459.79 Q1912.65 1462.48 1914.32 1463.98 Q1916.01 1465.49 1919.04 1465.49 Q1922.05 1465.49 1923.74 1463.98 Q1925.45 1462.48 1925.45 1459.79 Q1925.45 1457.11 1923.74 1455.6 Q1922.05 1454.1 1919.04 1454.1 Q1916.01 1454.1 1914.32 1455.6 Q1912.65 1457.11 1912.65 1459.79 Z" fill="#000000" fill-rule="nonzero" fill-opacity="1"></path><path clip-path="url(#clip430)" d="M2327.44 1481.64 L2335.08 1481.64 L2335.08 1455.28 L2326.77 1456.95 L2326.77 1452.69 L2335.04 1451.02 L2339.71 1451.02 L2339.71 1481.64 L2347.35 1481.64 L2347.35 1485.58 L2327.44 1485.58 L2327.44 1481.64 Z" fill="#000000" fill-rule="nonzero" fill-opacity="1"></path><path clip-path="url(#clip430)" d="M2366.8 1454.1 Q2363.18 1454.1 2361.36 1457.66 Q2359.55 1461.2 2359.55 1468.33 Q2359.55 1475.44 2361.36 1479.01 Q2363.18 1482.55 2366.8 1482.55 Q2370.43 1482.55 2372.23 1479.01 Q2374.06 1475.44 2374.06 1468.33 Q2374.06 1461.2 2372.23 1457.66 Q2370.43 1454.1 2366.8 1454.1 M2366.8 1450.39 Q2372.61 1450.39 2375.66 1455 Q2378.74 1459.58 2378.74 1468.33 Q2378.74 1477.06 2375.66 1481.67 Q2372.61 1486.25 2366.8 1486.25 Q2360.99 1486.25 2357.91 1481.67 Q2354.85 1477.06 2354.85 1468.33 Q2354.85 1459.58 2357.91 1455 Q2360.99 1450.39 2366.8 1450.39 Z" fill="#000000" fill-rule="nonzero" fill-opacity="1"></path><path clip-path="url(#clip430)" d="M1267.53 1522.27 L1267.53 1532.4 L1279.6 1532.4 L1279.6 1536.95 L1267.53 1536.95 L1267.53 1556.3 Q1267.53 1560.66 1268.71 1561.9 Q1269.92 1563.14 1273.58 1563.14 L1279.6 1563.14 L1279.6 1568.04 L1273.58 1568.04 Q1266.8 1568.04 1264.22 1565.53 Q1261.65 1562.98 1261.65 1556.3 L1261.65 1536.95 L1257.35 1536.95 L1257.35 1532.4 L1261.65 1532.4 L1261.65 1522.27 L1267.53 1522.27 Z" fill="#000000" fill-rule="nonzero" fill-opacity="1"></path><polyline clip-path="url(#clip432)" style="stroke:#000000; stroke-linecap:round; stroke-linejoin:round; stroke-width:2; stroke-opacity:0.1; fill:none" points="184.191,1390.13 2352.76,1390.13 "></polyline>
<polyline clip-path="url(#clip432)" style="stroke:#000000; stroke-linecap:round; stroke-linejoin:round; stroke-width:2; stroke-opacity:0.1; fill:none" points="184.191,1064.14 2352.76,1064.14 "></polyline>
<polyline clip-path="url(#clip432)" style="stroke:#000000; stroke-linecap:round; stroke-linejoin:round; stroke-width:2; stroke-opacity:0.1; fill:none" points="184.191,738.157 2352.76,738.157 "></polyline>
<polyline clip-path="url(#clip432)" style="stroke:#000000; stroke-linecap:round; stroke-linejoin:round; stroke-width:2; stroke-opacity:0.1; fill:none" points="184.191,412.171 2352.76,412.171 "></polyline>
<polyline clip-path="url(#clip432)" style="stroke:#000000; stroke-linecap:round; stroke-linejoin:round; stroke-width:2; stroke-opacity:0.1; fill:none" points="184.191,86.1857 2352.76,86.1857 "></polyline>
<polyline clip-path="url(#clip430)" style="stroke:#000000; stroke-linecap:round; stroke-linejoin:round; stroke-width:4; stroke-opacity:1; fill:none" points="184.191,1423.18 184.191,47.2441 "></polyline>
<polyline clip-path="url(#clip430)" style="stroke:#000000; stroke-linecap:round; stroke-linejoin:round; stroke-width:4; stroke-opacity:1; fill:none" points="184.191,1390.13 203.088,1390.13 "></polyline>
<polyline clip-path="url(#clip430)" style="stroke:#000000; stroke-linecap:round; stroke-linejoin:round; stroke-width:4; stroke-opacity:1; fill:none" points="184.191,1064.14 203.088,1064.14 "></polyline>
<polyline clip-path="url(#clip430)" style="stroke:#000000; stroke-linecap:round; stroke-linejoin:round; stroke-width:4; stroke-opacity:1; fill:none" points="184.191,738.157 203.088,738.157 "></polyline>
<polyline clip-path="url(#clip430)" style="stroke:#000000; stroke-linecap:round; stroke-linejoin:round; stroke-width:4; stroke-opacity:1; fill:none" points="184.191,412.171 203.088,412.171 "></polyline>
<polyline clip-path="url(#clip430)" style="stroke:#000000; stroke-linecap:round; stroke-linejoin:round; stroke-width:4; stroke-opacity:1; fill:none" points="184.191,86.1857 203.088,86.1857 "></polyline>
<path clip-path="url(#clip430)" d="M91.0151 1375.93 Q87.404 1375.93 85.5753 1379.49 Q83.7697 1383.03 83.7697 1390.16 Q83.7697 1397.27 85.5753 1400.83 Q87.404 1404.38 91.0151 1404.38 Q94.6493 1404.38 96.4548 1400.83 Q98.2835 1397.27 98.2835 1390.16 Q98.2835 1383.03 96.4548 1379.49 Q94.6493 1375.93 91.0151 1375.93 M91.0151 1372.22 Q96.8252 1372.22 99.8808 1376.83 Q102.959 1381.41 102.959 1390.16 Q102.959 1398.89 99.8808 1403.5 Q96.8252 1408.08 91.0151 1408.08 Q85.2049 1408.08 82.1262 1403.5 Q79.0707 1398.89 79.0707 1390.16 Q79.0707 1381.41 82.1262 1376.83 Q85.2049 1372.22 91.0151 1372.22 Z" fill="#000000" fill-rule="nonzero" fill-opacity="1"></path><path clip-path="url(#clip430)" d="M111.177 1401.53 L116.061 1401.53 L116.061 1407.41 L111.177 1407.41 L111.177 1401.53 Z" fill="#000000" fill-rule="nonzero" fill-opacity="1"></path><path clip-path="url(#clip430)" d="M136.246 1375.93 Q132.635 1375.93 130.807 1379.49 Q129.001 1383.03 129.001 1390.16 Q129.001 1397.27 130.807 1400.83 Q132.635 1404.38 136.246 1404.38 Q139.881 1404.38 141.686 1400.83 Q143.515 1397.27 143.515 1390.16 Q143.515 1383.03 141.686 1379.49 Q139.881 1375.93 136.246 1375.93 M136.246 1372.22 Q142.056 1372.22 145.112 1376.83 Q148.191 1381.41 148.191 1390.16 Q148.191 1398.89 145.112 1403.5 Q142.056 1408.08 136.246 1408.08 Q130.436 1408.08 127.357 1403.5 Q124.302 1398.89 124.302 1390.16 Q124.302 1381.41 127.357 1376.83 Q130.436 1372.22 136.246 1372.22 Z" fill="#000000" fill-rule="nonzero" fill-opacity="1"></path><path clip-path="url(#clip430)" d="M86.0382 1077.49 L102.358 1077.49 L102.358 1081.42 L80.4133 1081.42 L80.4133 1077.49 Q83.0753 1074.73 87.6586 1070.1 Q92.2651 1065.45 93.4456 1064.11 Q95.691 1061.58 96.5706 1059.85 Q97.4734 1058.09 97.4734 1056.4 Q97.4734 1053.65 95.5289 1051.91 Q93.6076 1050.17 90.5058 1050.17 Q88.3067 1050.17 85.8531 1050.94 Q83.4225 1051.7 80.6447 1053.25 L80.6447 1048.53 Q83.4688 1047.4 85.9225 1046.82 Q88.3762 1046.24 90.4132 1046.24 Q95.7836 1046.24 98.978 1048.92 Q102.172 1051.61 102.172 1056.1 Q102.172 1058.23 101.362 1060.15 Q100.575 1062.05 98.4687 1064.64 Q97.89 1065.31 94.7882 1068.53 Q91.6864 1071.72 86.0382 1077.49 Z" fill="#000000" fill-rule="nonzero" fill-opacity="1"></path><path clip-path="url(#clip430)" d="M112.172 1075.54 L117.057 1075.54 L117.057 1081.42 L112.172 1081.42 L112.172 1075.54 Z" fill="#000000" fill-rule="nonzero" fill-opacity="1"></path><path clip-path="url(#clip430)" d="M127.288 1046.86 L145.644 1046.86 L145.644 1050.8 L131.57 1050.8 L131.57 1059.27 Q132.589 1058.92 133.607 1058.76 Q134.626 1058.58 135.644 1058.58 Q141.431 1058.58 144.811 1061.75 Q148.191 1064.92 148.191 1070.33 Q148.191 1075.91 144.718 1079.02 Q141.246 1082.09 134.927 1082.09 Q132.751 1082.09 130.482 1081.72 Q128.237 1081.35 125.83 1080.61 L125.83 1075.91 Q127.913 1077.05 130.135 1077.6 Q132.357 1078.16 134.834 1078.16 Q138.839 1078.16 141.177 1076.05 Q143.515 1073.95 143.515 1070.33 Q143.515 1066.72 141.177 1064.62 Q138.839 1062.51 134.834 1062.51 Q132.959 1062.51 131.084 1062.93 Q129.232 1063.34 127.288 1064.22 L127.288 1046.86 Z" fill="#000000" fill-rule="nonzero" fill-opacity="1"></path><path clip-path="url(#clip430)" d="M81.0614 720.877 L99.4178 720.877 L99.4178 724.812 L85.3438 724.812 L85.3438 733.284 Q86.3623 732.937 87.3808 732.775 Q88.3993 732.59 89.4178 732.59 Q95.2049 732.59 98.5845 735.761 Q101.964 738.933 101.964 744.349 Q101.964 749.928 98.4919 753.03 Q95.0197 756.108 88.7003 756.108 Q86.5243 756.108 84.2558 755.738 Q82.0105 755.368 79.6031 754.627 L79.6031 749.928 Q81.6864 751.062 83.9086 751.618 Q86.1308 752.173 88.6077 752.173 Q92.6123 752.173 94.9502 750.067 Q97.2882 747.96 97.2882 744.349 Q97.2882 740.738 94.9502 738.632 Q92.6123 736.525 88.6077 736.525 Q86.7327 736.525 84.8577 736.942 Q83.0058 737.358 81.0614 738.238 L81.0614 720.877 Z" fill="#000000" fill-rule="nonzero" fill-opacity="1"></path><path clip-path="url(#clip430)" d="M111.177 749.557 L116.061 749.557 L116.061 755.437 L111.177 755.437 L111.177 749.557 Z" fill="#000000" fill-rule="nonzero" fill-opacity="1"></path><path clip-path="url(#clip430)" d="M136.246 723.956 Q132.635 723.956 130.807 727.521 Q129.001 731.062 129.001 738.192 Q129.001 745.298 130.807 748.863 Q132.635 752.405 136.246 752.405 Q139.881 752.405 141.686 748.863 Q143.515 745.298 143.515 738.192 Q143.515 731.062 141.686 727.521 Q139.881 723.956 136.246 723.956 M136.246 720.252 Q142.056 720.252 145.112 724.859 Q148.191 729.442 148.191 738.192 Q148.191 746.919 145.112 751.525 Q142.056 756.108 136.246 756.108 Q130.436 756.108 127.357 751.525 Q124.302 746.919 124.302 738.192 Q124.302 729.442 127.357 724.859 Q130.436 720.252 136.246 720.252 Z" fill="#000000" fill-rule="nonzero" fill-opacity="1"></path><path clip-path="url(#clip430)" d="M80.8299 394.891 L103.052 394.891 L103.052 396.882 L90.5058 429.451 L85.6216 429.451 L97.4271 398.827 L80.8299 398.827 L80.8299 394.891 Z" fill="#000000" fill-rule="nonzero" fill-opacity="1"></path><path clip-path="url(#clip430)" d="M112.172 423.572 L117.057 423.572 L117.057 429.451 L112.172 429.451 L112.172 423.572 Z" fill="#000000" fill-rule="nonzero" fill-opacity="1"></path><path clip-path="url(#clip430)" d="M127.288 394.891 L145.644 394.891 L145.644 398.827 L131.57 398.827 L131.57 407.299 Q132.589 406.952 133.607 406.789 Q134.626 406.604 135.644 406.604 Q141.431 406.604 144.811 409.776 Q148.191 412.947 148.191 418.363 Q148.191 423.942 144.718 427.044 Q141.246 430.123 134.927 430.123 Q132.751 430.123 130.482 429.752 Q128.237 429.382 125.83 428.641 L125.83 423.942 Q127.913 425.076 130.135 425.632 Q132.357 426.188 134.834 426.188 Q138.839 426.188 141.177 424.081 Q143.515 421.975 143.515 418.363 Q143.515 414.752 141.177 412.646 Q138.839 410.539 134.834 410.539 Q132.959 410.539 131.084 410.956 Q129.232 411.373 127.288 412.252 L127.288 394.891 Z" fill="#000000" fill-rule="nonzero" fill-opacity="1"></path><path clip-path="url(#clip430)" d="M51.6634 99.5305 L59.3023 99.5305 L59.3023 73.1649 L50.9921 74.8316 L50.9921 70.5723 L59.256 68.9057 L63.9319 68.9057 L63.9319 99.5305 L71.5707 99.5305 L71.5707 103.466 L51.6634 103.466 L51.6634 99.5305 Z" fill="#000000" fill-rule="nonzero" fill-opacity="1"></path><path clip-path="url(#clip430)" d="M91.0151 71.9844 Q87.404 71.9844 85.5753 75.5492 Q83.7697 79.0908 83.7697 86.2204 Q83.7697 93.3268 85.5753 96.8916 Q87.404 100.433 91.0151 100.433 Q94.6493 100.433 96.4548 96.8916 Q98.2835 93.3268 98.2835 86.2204 Q98.2835 79.0908 96.4548 75.5492 Q94.6493 71.9844 91.0151 71.9844 M91.0151 68.2807 Q96.8252 68.2807 99.8808 72.8871 Q102.959 77.4704 102.959 86.2204 Q102.959 94.9472 99.8808 99.5537 Q96.8252 104.137 91.0151 104.137 Q85.2049 104.137 82.1262 99.5537 Q79.0707 94.9472 79.0707 86.2204 Q79.0707 77.4704 82.1262 72.8871 Q85.2049 68.2807 91.0151 68.2807 Z" fill="#000000" fill-rule="nonzero" fill-opacity="1"></path><path clip-path="url(#clip430)" d="M111.177 97.5861 L116.061 97.5861 L116.061 103.466 L111.177 103.466 L111.177 97.5861 Z" fill="#000000" fill-rule="nonzero" fill-opacity="1"></path><path clip-path="url(#clip430)" d="M136.246 71.9844 Q132.635 71.9844 130.807 75.5492 Q129.001 79.0908 129.001 86.2204 Q129.001 93.3268 130.807 96.8916 Q132.635 100.433 136.246 100.433 Q139.881 100.433 141.686 96.8916 Q143.515 93.3268 143.515 86.2204 Q143.515 79.0908 141.686 75.5492 Q139.881 71.9844 136.246 71.9844 M136.246 68.2807 Q142.056 68.2807 145.112 72.8871 Q148.191 77.4704 148.191 86.2204 Q148.191 94.9472 145.112 99.5537 Q142.056 104.137 136.246 104.137 Q130.436 104.137 127.357 99.5537 Q124.302 94.9472 124.302 86.2204 Q124.302 77.4704 127.357 72.8871 Q130.436 68.2807 136.246 68.2807 Z" fill="#000000" fill-rule="nonzero" fill-opacity="1"></path><polyline clip-path="url(#clip432)" style="stroke:#009af9; stroke-linecap:round; stroke-linejoin:round; stroke-width:4; stroke-opacity:1; fill:none" points="184.191,86.1857 186.361,86.2498 188.532,86.442 190.703,86.7625 192.874,87.2111 195.044,87.7878 197.215,88.4928 199.386,89.3259 201.557,90.2872 203.727,91.3767 205.898,92.5943 208.069,93.9401 210.24,95.4141 212.41,97.0163 214.581,98.7466 216.752,100.605 218.922,102.592 221.093,104.707 223.264,106.95 225.435,109.321 227.605,111.82 229.776,114.448 231.947,117.204 234.118,120.087 236.288,123.099 238.459,126.24 240.63,129.508 242.801,132.905 244.971,136.429 247.142,140.082 249.313,143.864 251.483,147.773 253.654,151.81 255.825,155.976 257.996,160.27 260.166,164.692 262.337,169.242 264.508,173.92 266.679,178.727 268.849,183.661 271.02,188.724 273.191,193.915 275.362,199.234 277.532,204.682 279.703,210.257 281.874,215.961 284.045,221.793 286.215,227.753 288.386,233.841 290.557,240.057 292.727,246.402 294.898,252.875 297.069,259.476 299.24,266.205 301.41,273.062 303.581,280.047 305.752,287.161 307.923,294.403 310.093,301.773 312.264,309.271 314.435,316.897 316.606,324.652 318.776,332.534 320.947,340.545 323.118,348.684 325.289,356.951 327.459,365.346 329.63,373.87 331.801,382.522 333.971,391.302 336.142,400.21 338.313,409.246 340.484,418.41 342.654,427.703 344.825,437.123 346.996,446.672 349.167,456.349 351.337,466.155 353.508,476.088 355.679,486.15 357.85,496.339 360.02,506.657 362.191,517.103 364.362,527.678 366.533,538.38 368.703,549.211 370.874,560.169 373.045,571.256 375.215,582.472 377.386,593.815 379.557,605.286 381.728,616.886 383.898,628.614 386.069,640.47 388.24,652.454 390.411,664.566 392.581,676.807 394.752,689.176 396.923,701.672 399.094,714.298 401.264,727.051 403.435,739.932 405.606,752.942 407.776,766.079 409.947,779.345 412.118,792.739 414.289,806.262 416.459,819.912 418.63,833.691 420.801,847.597 422.972,861.632 425.142,875.796 427.313,890.087 429.484,904.506 431.655,919.054 433.825,933.73 435.996,948.534 438.167,963.466 440.338,978.526 442.508,993.715 444.679,1009.03 446.85,1024.48 449.02,1040.05 451.191,1055.75 453.362,1071.58 455.533,1087.54 457.703,1103.62 459.874,1119.84 462.045,1136.18 464.216,1152.65 466.386,1169.25 468.557,1185.97 470.728,1202.83 472.899,1219.81 475.069,1236.92 477.24,1254.16 479.411,1271.53 481.582,1289.03 483.752,1306.65 485.923,1324.4 488.094,1342.28 490.264,1360.29 492.435,1378.43 494.606,1384.24 496.777,1367.89 498.947,1351.68 501.118,1335.59 503.289,1319.63 505.46,1303.8 507.63,1288.09 509.801,1272.52 511.972,1257.07 514.143,1241.75 516.313,1226.56 518.484,1211.5 520.655,1196.56 522.825,1181.76 524.996,1167.08 527.167,1152.53 529.338,1138.11 531.508,1123.81 533.679,1109.65 535.85,1095.61 538.021,1081.7 540.191,1067.92 542.362,1054.27 544.533,1040.74 546.704,1027.35 548.874,1014.08 551.045,1000.94 553.216,987.926 555.387,975.042 557.557,962.287 559.728,949.659 561.899,937.16 564.069,924.789 566.24,912.546 568.411,900.431 570.582,888.444 572.752,876.586 574.923,864.856 577.094,853.254 579.265,841.78 581.435,830.434 583.606,819.216 585.777,808.127 587.948,797.166 590.118,786.333 592.289,775.628 594.46,765.051 596.631,754.603 598.801,744.282 600.972,734.09 603.143,724.026 605.313,714.09 607.484,704.283 609.655,694.603 611.826,685.052 613.996,675.629 616.167,666.334 618.338,657.167 620.509,648.128 622.679,639.218 624.85,630.436 627.021,621.781 629.192,613.256 631.362,604.858 633.533,596.588 635.704,588.447 637.874,580.434 640.045,572.549 642.216,564.792 644.387,557.163 646.557,549.662 648.728,542.29 650.899,535.046 653.07,527.93 655.24,520.942 657.411,514.082 659.582,507.351 661.753,500.747 663.923,494.272 666.094,487.925 668.265,481.706 670.436,475.616 672.606,469.653 674.777,463.819 676.948,458.113 679.118,452.535 681.289,447.085 683.46,441.764 685.631,436.57 687.801,431.505 689.972,426.568 692.143,421.759 694.314,417.078 696.484,412.526 698.655,408.101 700.826,403.805 702.997,399.637 705.167,395.597 707.338,391.685 709.509,387.902 711.68,384.246 713.85,380.719 716.021,377.32 718.192,374.049 720.362,370.907 722.533,367.892 724.704,365.006 726.875,362.248 729.045,359.618 731.216,357.116 733.387,354.742 735.558,352.497 737.728,350.38 739.899,348.391 742.07,346.53 744.241,344.797 746.411,343.192 748.582,341.716 750.753,340.368 752.924,339.148 755.094,338.056 757.265,337.092 759.436,336.256 761.606,335.549 763.777,334.97 765.948,334.519 768.119,334.196 770.289,334.001 772.46,333.935 774.631,333.996 776.802,334.186 778.972,334.504 781.143,334.951 783.314,335.525 785.485,336.227 787.655,337.058 789.826,338.017 791.997,339.104 794.167,340.319 796.338,341.663 798.509,343.134 800.68,344.734 802.85,346.462 805.021,348.318 807.192,350.302 809.363,352.415 811.533,354.655 813.704,357.024 815.875,359.521 818.046,362.146 820.216,364.899 822.387,367.781 824.558,370.791 826.729,373.928 828.899,377.194 831.07,380.588 833.241,384.111 835.411,387.761 837.582,391.54 839.753,395.447 841.924,399.482 844.094,403.645 846.265,407.936 848.436,412.356 850.607,416.904 852.777,421.58 854.948,426.384 857.119,431.316 859.29,436.376 861.46,441.565 863.631,446.882 865.802,452.327 867.973,457.9 870.143,463.601 872.314,469.43 874.485,475.388 876.655,481.474 878.826,487.688 880.997,494.03 883.168,500.5 885.338,507.099 887.509,513.825 889.68,520.68 891.851,527.663 894.021,534.774 896.192,542.014 898.363,549.381 900.534,556.877 902.704,564.501 904.875,572.253 907.046,580.133 909.216,588.142 911.387,596.278 913.558,604.543 915.729,612.936 917.899,621.457 920.07,630.106 922.241,638.884 924.412,647.789 926.582,656.823 928.753,665.985 930.924,675.275 933.095,684.693 935.265,694.24 937.436,703.914 939.607,713.717 941.778,723.648 943.948,733.707 946.119,743.895 948.29,754.21 950.46,764.654 952.631,775.226 954.802,785.926 956.973,796.754 959.143,807.71 961.314,818.795 963.485,830.008 965.656,841.348 967.826,852.817 969.997,864.415 972.168,876.14 974.339,887.994 976.509,899.975 978.68,912.085 980.851,924.323 983.022,936.69 985.192,949.184 987.363,961.807 989.534,974.558 991.704,987.437 993.875,1000.44 996.046,1013.58 998.217,1026.84 1000.39,1040.23 1002.56,1053.75 1004.73,1067.4 1006.9,1081.18 1009.07,1095.08 1011.24,1109.12 1013.41,1123.28 1015.58,1137.56 1017.75,1151.98 1019.92,1166.53 1022.09,1181.2 1024.27,1196 1026.44,1210.93 1028.61,1225.99 1030.78,1241.18 1032.95,1256.49 1035.12,1271.93 1037.29,1287.5 1039.46,1303.2 1041.63,1319.03 1043.8,1334.98 1045.97,1351.07 1048.14,1367.28 1050.31,1383.62 1052.49,1381.21 1054.66,1366.54 1056.83,1352 1059,1337.59 1061.17,1323.31 1063.34,1309.16 1065.51,1295.13 1067.68,1281.23 1069.85,1267.46 1072.02,1253.82 1074.19,1240.3 1076.36,1226.92 1078.53,1213.66 1080.7,1200.53 1082.88,1187.53 1085.05,1174.66 1087.22,1161.91 1089.39,1149.29 1091.56,1136.81 1093.73,1124.44 1095.9,1112.21 1098.07,1100.11 1100.24,1088.13 1102.41,1076.28 1104.58,1064.56 1106.75,1052.97 1108.92,1041.51 1111.09,1030.17 1113.27,1018.97 1115.44,1007.89 1117.61,996.939 1119.78,986.116 1121.95,975.422 1124.12,964.856 1126.29,954.418 1128.46,944.108 1130.63,933.927 1132.8,923.873 1134.97,913.948 1137.14,904.151 1139.31,894.482 1141.49,884.942 1143.66,875.529 1145.83,866.245 1148,857.089 1150.17,848.061 1152.34,839.161 1154.51,830.389 1156.68,821.746 1158.85,813.231 1161.02,804.843 1163.19,796.585 1165.36,788.454 1167.53,780.451 1169.7,772.577 1171.88,764.83 1174.05,757.212 1176.22,749.722 1178.39,742.361 1180.56,735.127 1182.73,728.022 1184.9,721.045 1187.07,714.196 1189.24,707.475 1191.41,700.882 1193.58,694.417 1195.75,688.081 1197.92,681.873 1200.1,675.793 1202.27,669.841 1204.44,664.017 1206.61,658.322 1208.78,652.755 1210.95,647.315 1213.12,642.005 1215.29,636.822 1217.46,631.767 1219.63,626.841 1221.8,622.042 1223.97,617.372 1226.14,612.83 1228.31,608.417 1230.49,604.131 1232.66,599.974 1234.83,595.944 1237,592.043 1239.17,588.27 1241.34,584.626 1243.51,581.109 1245.68,577.721 1247.85,574.461 1250.02,571.329 1252.19,568.325 1254.36,565.449 1256.53,562.702 1258.7,560.082 1260.88,557.591 1263.05,555.228 1265.22,552.993 1267.39,550.887 1269.56,548.908 1271.73,547.058 1273.9,545.336 1276.07,543.742 1278.24,542.276 1280.41,540.938 1282.58,539.729 1284.75,538.648 1286.92,537.695 1289.1,536.87 1291.27,536.173 1293.44,535.604 1295.61,535.164 1297.78,534.852 1299.95,534.668 1302.12,534.612 1304.29,534.684 1306.46,534.885 1308.63,535.213 1310.8,535.67 1312.97,536.255 1315.14,536.968 1317.31,537.81 1319.49,538.779 1321.66,539.877 1323.83,541.103 1326,542.457 1328.17,543.939 1330.34,545.549 1332.51,547.288 1334.68,549.155 1336.85,551.149 1339.02,553.273 1341.19,555.524 1343.36,557.903 1345.53,560.411 1347.71,563.047 1349.88,565.81 1352.05,568.703 1354.22,571.723 1356.39,574.871 1358.56,578.148 1360.73,581.553 1362.9,585.086 1365.07,588.747 1367.24,592.536 1369.41,596.454 1371.58,600.499 1373.75,604.673 1375.92,608.975 1378.1,613.405 1380.27,617.964 1382.44,622.65 1384.61,627.465 1386.78,632.408 1388.95,637.479 1391.12,642.678 1393.29,648.005 1395.46,653.461 1397.63,659.045 1399.8,664.757 1401.97,670.597 1404.14,676.565 1406.32,682.661 1408.49,688.886 1410.66,695.239 1412.83,701.72 1415,708.329 1417.17,715.066 1419.34,721.932 1421.51,728.925 1423.68,736.047 1425.85,743.297 1428.02,750.675 1430.19,758.182 1432.36,765.816 1434.53,773.579 1436.71,781.47 1438.88,789.489 1441.05,797.636 1443.22,805.911 1445.39,814.315 1447.56,822.847 1449.73,831.506 1451.9,840.294 1454.07,849.211 1456.24,858.255 1458.41,867.428 1460.58,876.728 1462.75,886.157 1464.92,895.715 1467.1,905.4 1469.27,915.213 1471.44,925.155 1473.61,935.225 1475.78,945.423 1477.95,955.749 1480.12,966.203 1482.29,976.786 1484.46,987.496 1486.63,998.335 1488.8,1009.3 1490.97,1020.4 1493.14,1031.62 1495.32,1042.97 1497.49,1054.45 1499.66,1066.06 1501.83,1077.8 1504,1089.66 1506.17,1101.65 1508.34,1113.77 1510.51,1126.02 1512.68,1138.4 1514.85,1150.9 1517.02,1163.54 1519.19,1176.3 1521.36,1189.19 1523.53,1202.21 1525.71,1215.35 1527.88,1228.63 1530.05,1242.03 1532.22,1255.56 1534.39,1269.22 1536.56,1283 1538.73,1296.92 1540.9,1310.96 1543.07,1325.13 1545.24,1339.43 1547.41,1353.86 1549.58,1368.42 1551.75,1383.1 1553.93,1383.16 1556.1,1369.96 1558.27,1356.89 1560.44,1343.95 1562.61,1331.14 1564.78,1318.45 1566.95,1305.9 1569.12,1293.47 1571.29,1281.17 1573.46,1269 1575.63,1256.96 1577.8,1245.04 1579.97,1233.25 1582.14,1221.59 1584.32,1210.06 1586.49,1198.66 1588.66,1187.39 1590.83,1176.24 1593,1165.22 1595.17,1154.33 1597.34,1143.57 1599.51,1132.94 1601.68,1122.43 1603.85,1112.06 1606.02,1101.81 1608.19,1091.69 1610.36,1081.69 1612.53,1071.83 1614.71,1062.09 1616.88,1052.49 1619.05,1043.01 1621.22,1033.65 1623.39,1024.43 1625.56,1015.34 1627.73,1006.37 1629.9,997.529 1632.07,988.819 1634.24,980.236 1636.41,971.782 1638.58,963.455 1640.75,955.257 1642.93,947.187 1645.1,939.245 1647.27,931.432 1649.44,923.746 1651.61,916.189 1653.78,908.76 1655.95,901.459 1658.12,894.287 1660.29,887.242 1662.46,880.326 1664.63,873.537 1666.8,866.877 1668.97,860.346 1671.14,853.942 1673.32,847.666 1675.49,841.519 1677.66,835.5 1679.83,829.609 1682,823.846 1684.17,818.211 1686.34,812.705 1688.51,807.327 1690.68,802.077 1692.85,796.955 1695.02,791.961 1697.19,787.095 1699.36,782.358 1701.54,777.749 1703.71,773.267 1705.88,768.915 1708.05,764.69 1710.22,760.593 1712.39,756.625 1714.56,752.785 1716.73,749.073 1718.9,745.489 1721.07,742.033 1723.24,738.705 1725.41,735.506 1727.58,732.435 1729.75,729.492 1731.93,726.677 1734.1,723.99 1736.27,721.432 1738.44,719.002 1740.61,716.699 1742.78,714.525 1744.95,712.48 1747.12,710.562 1749.29,708.773 1751.46,707.111 1753.63,705.578 1755.8,704.173 1757.97,702.897 1760.14,701.748 1762.32,700.728 1764.49,699.835 1766.66,699.071 1768.83,698.435 1771,697.928 1773.17,697.548 1775.34,697.297 1777.51,697.173 1779.68,697.178 1781.85,697.312 1784.02,697.573 1786.19,697.962 1788.36,698.48 1790.54,699.126 1792.71,699.9 1794.88,700.802 1797.05,701.832 1799.22,702.991 1801.39,704.278 1803.56,705.693 1805.73,707.236 1807.9,708.907 1810.07,710.706 1812.24,712.634 1814.41,714.689 1816.58,716.873 1818.75,719.185 1820.93,721.626 1823.1,724.194 1825.27,726.891 1827.44,729.716 1829.61,732.668 1831.78,735.75 1833.95,738.959 1836.12,742.296 1838.29,745.762 1840.46,749.356 1842.63,753.078 1844.8,756.928 1846.97,760.906 1849.15,765.013 1851.32,769.247 1853.49,773.61 1855.66,778.101 1857.83,782.721 1860,787.468 1862.17,792.343 1864.34,797.347 1866.51,802.479 1868.68,807.739 1870.85,813.127 1873.02,818.644 1875.19,824.288 1877.36,830.061 1879.54,835.962 1881.71,841.991 1883.88,848.148 1886.05,854.434 1888.22,860.847 1890.39,867.389 1892.56,874.059 1894.73,880.857 1896.9,887.784 1899.07,894.838 1901.24,902.021 1903.41,909.332 1905.58,916.771 1907.76,924.338 1909.93,932.033 1912.1,939.857 1914.27,947.808 1916.44,955.888 1918.61,964.096 1920.78,972.433 1922.95,980.897 1925.12,989.49 1927.29,998.21 1929.46,1007.06 1931.63,1016.04 1933.8,1025.14 1935.97,1034.37 1938.15,1043.74 1940.32,1053.23 1942.49,1062.84 1944.66,1072.59 1946.83,1082.46 1949,1092.47 1951.17,1102.6 1953.34,1112.86 1955.51,1123.24 1957.68,1133.76 1959.85,1144.4 1962.02,1155.17 1964.19,1166.07 1966.36,1177.1 1968.54,1188.26 1970.71,1199.54 1972.88,1210.95 1975.05,1222.49 1977.22,1234.16 1979.39,1245.96 1981.56,1257.88 1983.73,1269.94 1985.9,1282.12 1988.07,1294.43 1990.24,1306.87 1992.41,1319.43 1994.58,1332.13 1996.76,1344.95 1998.93,1357.9 2001.1,1370.98 2003.27,1384.18 2005.44,1383.51 2007.61,1371.65 2009.78,1359.92 2011.95,1348.32 2014.12,1336.84 2016.29,1325.49 2018.46,1314.27 2020.63,1303.18 2022.8,1292.22 2024.97,1281.38 2027.15,1270.68 2029.32,1260.1 2031.49,1249.65 2033.66,1239.33 2035.83,1229.13 2038,1219.07 2040.17,1209.13 2042.34,1199.32 2044.51,1189.64 2046.68,1180.08 2048.85,1170.66 2051.02,1161.36 2053.19,1152.19 2055.37,1143.15 2057.54,1134.24 2059.71,1125.46 2061.88,1116.8 2064.05,1108.27 2066.22,1099.87 2068.39,1091.6 2070.56,1083.46 2072.73,1075.44 2074.9,1067.56 2077.07,1059.8 2079.24,1052.17 2081.41,1044.66 2083.58,1037.29 2085.76,1030.04 2087.93,1022.93 2090.1,1015.94 2092.27,1009.07 2094.44,1002.34 2096.61,995.735 2098.78,989.258 2100.95,982.909 2103.12,976.688 2105.29,970.596 2107.46,964.632 2109.63,958.795 2111.8,953.087 2113.97,947.507 2116.15,942.056 2118.32,936.732 2120.49,931.537 2122.66,926.47 2124.83,921.531 2127,916.72 2129.17,912.037 2131.34,907.482 2133.51,903.056 2135.68,898.758 2137.85,894.588 2140.02,890.546 2142.19,886.633 2144.37,882.847 2146.54,879.19 2148.71,875.661 2150.88,872.26 2153.05,868.987 2155.22,865.842 2157.39,862.826 2159.56,859.938 2161.73,857.178 2163.9,854.546 2166.07,852.042 2168.24,849.666 2170.41,847.419 2172.58,845.3 2174.76,843.309 2176.93,841.446 2179.1,839.711 2181.27,838.105 2183.44,836.626 2185.61,835.276 2187.78,834.054 2189.95,832.96 2192.12,831.995 2194.29,831.157 2196.46,830.448 2198.63,829.867 2200.8,829.414 2202.98,829.089 2205.15,828.892 2207.32,828.824 2209.49,828.884 2211.66,829.072 2213.83,829.388 2216,829.832 2218.17,830.404 2220.34,831.105 2222.51,831.934 2224.68,832.891 2226.85,833.976 2229.02,835.189 2231.19,836.53 2233.37,838 2235.54,839.598 2237.71,841.324 2239.88,843.178 2242.05,845.16 2244.22,847.271 2246.39,849.51 2248.56,851.876 2250.73,854.371 2252.9,856.995 2255.07,859.746 2257.24,862.625 2259.41,865.633 2261.58,868.769 2263.76,872.033 2265.93,875.425 2268.1,878.946 2270.27,882.594 2272.44,886.371 2274.61,890.276 2276.78,894.309 2278.95,898.47 2281.12,902.76 2283.29,907.177 2285.46,911.723 2287.63,916.397 2289.8,921.199 2291.98,926.13 2294.15,931.188 2296.32,936.375 2298.49,941.689 2300.66,947.132 2302.83,952.704 2305,958.403 2307.17,964.23 2309.34,970.186 2311.51,976.27 2313.68,982.482 2315.85,988.822 2318.02,995.291 2320.19,1001.89 2322.37,1008.61 2324.54,1015.46 2326.71,1022.45 2328.88,1029.56 2331.05,1036.79 2333.22,1044.16 2335.39,1051.65 2337.56,1059.27 2339.73,1067.02 2341.9,1074.9 2344.07,1082.91 2346.24,1091.04 2348.41,1099.31 2350.59,1107.7 2352.76,1116.22 "></polyline>
<path clip-path="url(#clip430)" d="M1986.37 196.789 L2280.47 196.789 L2280.47 93.1086 L1986.37 93.1086  Z" fill="#ffffff" fill-rule="evenodd" fill-opacity="1"></path>
<polyline clip-path="url(#clip430)" style="stroke:#000000; stroke-linecap:round; stroke-linejoin:round; stroke-width:4; stroke-opacity:1; fill:none" points="1986.37,196.789 2280.47,196.789 2280.47,93.1086 1986.37,93.1086 1986.37,196.789 "></polyline>
<polyline clip-path="url(#clip430)" style="stroke:#009af9; stroke-linecap:round; stroke-linejoin:round; stroke-width:4; stroke-opacity:1; fill:none" points="2010.46,144.949 2155.04,144.949 "></polyline>
<path clip-path="url(#clip430)" d="M2200.84 146.581 L2200.84 162.229 L2196.58 162.229 L2196.58 146.719 Q2196.58 143.039 2195.15 141.21 Q2193.71 139.382 2190.84 139.382 Q2187.39 139.382 2185.4 141.581 Q2183.41 143.78 2183.41 147.576 L2183.41 162.229 L2179.13 162.229 L2179.13 126.21 L2183.41 126.21 L2183.41 140.331 Q2184.94 137.993 2187 136.835 Q2189.08 135.678 2191.79 135.678 Q2196.26 135.678 2198.55 138.456 Q2200.84 141.21 2200.84 146.581 Z" fill="#000000" fill-rule="nonzero" fill-opacity="1"></path><path clip-path="url(#clip430)" d="M2219.57 126.257 Q2216.47 131.581 2214.96 136.789 Q2213.46 141.997 2213.46 147.344 Q2213.46 152.692 2214.96 157.946 Q2216.49 163.178 2219.57 168.479 L2215.87 168.479 Q2212.39 163.039 2210.66 157.784 Q2208.94 152.53 2208.94 147.344 Q2208.94 142.182 2210.66 136.951 Q2212.37 131.72 2215.87 126.257 L2219.57 126.257 Z" fill="#000000" fill-rule="nonzero" fill-opacity="1"></path><path clip-path="url(#clip430)" d="M2232.05 128.942 L2232.05 136.303 L2240.82 136.303 L2240.82 139.613 L2232.05 139.613 L2232.05 153.687 Q2232.05 156.858 2232.9 157.761 Q2233.78 158.664 2236.44 158.664 L2240.82 158.664 L2240.82 162.229 L2236.44 162.229 Q2231.51 162.229 2229.64 160.4 Q2227.76 158.548 2227.76 153.687 L2227.76 139.613 L2224.64 139.613 L2224.64 136.303 L2227.76 136.303 L2227.76 128.942 L2232.05 128.942 Z" fill="#000000" fill-rule="nonzero" fill-opacity="1"></path><path clip-path="url(#clip430)" d="M2245.75 126.257 L2249.45 126.257 Q2252.93 131.72 2254.64 136.951 Q2256.38 142.182 2256.38 147.344 Q2256.38 152.53 2254.64 157.784 Q2252.93 163.039 2249.45 168.479 L2245.75 168.479 Q2248.83 163.178 2250.33 157.946 Q2251.86 152.692 2251.86 147.344 Q2251.86 141.997 2250.33 136.789 Q2248.83 131.581 2245.75 126.257 Z" fill="#000000" fill-rule="nonzero" fill-opacity="1"></path></svg>