<svg xmlns="http://www.w3.org/2000/svg" xmlns:xlink="http://www.w3.org/1999/xlink" width="600" height="400" viewBox="0 0 2400 1600">
<defs>
  <clipPath id="clip490">
    <rect x="0" y="0" width="2400" height="1600"></rect>
  </clipPath>
</defs>
<path clip-path="url(#clip490)" d="M0 1600 L2400 1600 L2400 0 L0 0  Z" fill="#ffffff" fill-rule="evenodd" fill-opacity="1"></path>
<defs>
  <clipPath id="clip491">
    <rect x="480" y="0" width="1681" height="1600"></rect>
  </clipPath>
</defs>
<path clip-path="url(#clip490)" d="M138.959 1423.18 L2352.76 1423.18 L2352.76 47.2441 L138.959 47.2441  Z" fill="#ffffff" fill-rule="evenodd" fill-opacity="1"></path>
<defs>
  <clipPath id="clip492">
    <rect x="138" y="47" width="2215" height="1377"></rect>
  </clipPath>
</defs>
<polyline clip-path="url(#clip492)" style="stroke:#000000; stroke-linecap:round; stroke-linejoin:round; stroke-width:2; stroke-opacity:0.1; fill:none" points="138.959,1423.18 138.959,47.2441 "></polyline>
<polyline clip-path="url(#clip492)" style="stroke:#000000; stroke-linecap:round; stroke-linejoin:round; stroke-width:2; stroke-opacity:0.1; fill:none" points="581.719,1423.18 581.719,47.2441 "></polyline>
<polyline clip-path="url(#clip492)" style="stroke:#000000; stroke-linecap:round; stroke-linejoin:round; stroke-width:2; stroke-opacity:0.1; fill:none" points="1024.48,1423.18 1024.48,47.2441 "></polyline>
<polyline clip-path="url(#clip492)" style="stroke:#000000; stroke-linecap:round; stroke-linejoin:round; stroke-width:2; stroke-opacity:0.1; fill:none" points="1467.24,1423.18 1467.24,47.2441 "></polyline>
<polyline clip-path="url(#clip492)" style="stroke:#000000; stroke-linecap:round; stroke-linejoin:round; stroke-width:2; stroke-opacity:0.1; fill:none" points="1910,1423.18 1910,47.2441 "></polyline>
<polyline clip-path="url(#clip492)" style="stroke:#000000; stroke-linecap:round; stroke-linejoin:round; stroke-width:2; stroke-opacity:0.1; fill:none" points="2352.76,1423.18 2352.76,47.2441 "></polyline>
<polyline clip-path="url(#clip490)" style="stroke:#000000; stroke-linecap:round; stroke-linejoin:round; stroke-width:4; stroke-opacity:1; fill:none" points="138.959,1423.18 2352.76,1423.18 "></polyline>
<polyline clip-path="url(#clip490)" style="stroke:#000000; stroke-linecap:round; stroke-linejoin:round; stroke-width:4; stroke-opacity:1; fill:none" points="138.959,1423.18 138.959,1404.28 "></polyline>
<polyline clip-path="url(#clip490)" style="stroke:#000000; stroke-linecap:round; stroke-linejoin:round; stroke-width:4; stroke-opacity:1; fill:none" points="581.719,1423.18 581.719,1404.28 "></polyline>
<polyline clip-path="url(#clip490)" style="stroke:#000000; stroke-linecap:round; stroke-linejoin:round; stroke-width:4; stroke-opacity:1; fill:none" points="1024.48,1423.18 1024.48,1404.28 "></polyline>
<polyline clip-path="url(#clip490)" style="stroke:#000000; stroke-linecap:round; stroke-linejoin:round; stroke-width:4; stroke-opacity:1; fill:none" points="1467.24,1423.18 1467.24,1404.28 "></polyline>
<polyline clip-path="url(#clip490)" style="stroke:#000000; stroke-linecap:round; stroke-linejoin:round; stroke-width:4; stroke-opacity:1; fill:none" points="1910,1423.18 1910,1404.28 "></polyline>
<polyline clip-path="url(#clip490)" style="stroke:#000000; stroke-linecap:round; stroke-linejoin:round; stroke-width:4; stroke-opacity:1; fill:none" points="2352.76,1423.18 2352.76,1404.28 "></polyline>
<path clip-path="url(#clip490)" d="M138.959 1454.1 Q135.348 1454.1 133.52 1457.66 Q131.714 1461.2 131.714 1468.33 Q131.714 1475.44 133.52 1479.01 Q135.348 1482.55 138.959 1482.55 Q142.594 1482.55 144.399 1479.01 Q146.228 1475.44 146.228 1468.33 Q146.228 1461.2 144.399 1457.66 Q142.594 1454.1 138.959 1454.1 M138.959 1450.39 Q144.77 1450.39 147.825 1455 Q150.904 1459.58 150.904 1468.33 Q150.904 1477.06 147.825 1481.67 Q144.77 1486.25 138.959 1486.25 Q133.149 1486.25 130.071 1481.67 Q127.015 1477.06 127.015 1468.33 Q127.015 1459.58 130.071 1455 Q133.149 1450.39 138.959 1450.39 Z" fill="#000000" fill-rule="nonzero" fill-opacity="1"></path><path clip-path="url(#clip490)" d="M576.372 1481.64 L592.691 1481.64 L592.691 1485.58 L570.747 1485.58 L570.747 1481.64 Q573.409 1478.89 577.992 1474.26 Q582.598 1469.61 583.779 1468.27 Q586.024 1465.74 586.904 1464.01 Q587.807 1462.25 587.807 1460.56 Q587.807 1457.8 585.862 1456.07 Q583.941 1454.33 580.839 1454.33 Q578.64 1454.33 576.186 1455.09 Q573.756 1455.86 570.978 1457.41 L570.978 1452.69 Q573.802 1451.55 576.256 1450.97 Q578.709 1450.39 580.747 1450.39 Q586.117 1450.39 589.311 1453.08 Q592.506 1455.77 592.506 1460.26 Q592.506 1462.39 591.696 1464.31 Q590.908 1466.2 588.802 1468.8 Q588.223 1469.47 585.121 1472.69 Q582.02 1475.88 576.372 1481.64 Z" fill="#000000" fill-rule="nonzero" fill-opacity="1"></path><path clip-path="url(#clip490)" d="M1027.49 1455.09 L1015.68 1473.54 L1027.49 1473.54 L1027.49 1455.09 M1026.26 1451.02 L1032.14 1451.02 L1032.14 1473.54 L1037.07 1473.54 L1037.07 1477.43 L1032.14 1477.43 L1032.14 1485.58 L1027.49 1485.58 L1027.49 1477.43 L1011.89 1477.43 L1011.89 1472.92 L1026.26 1451.02 Z" fill="#000000" fill-rule="nonzero" fill-opacity="1"></path><path clip-path="url(#clip490)" d="M1467.64 1466.44 Q1464.49 1466.44 1462.64 1468.59 Q1460.81 1470.74 1460.81 1474.49 Q1460.81 1478.22 1462.64 1480.39 Q1464.49 1482.55 1467.64 1482.55 Q1470.79 1482.55 1472.62 1480.39 Q1474.47 1478.22 1474.47 1474.49 Q1474.47 1470.74 1472.62 1468.59 Q1470.79 1466.44 1467.64 1466.44 M1476.92 1451.78 L1476.92 1456.04 Q1475.17 1455.21 1473.36 1454.77 Q1471.58 1454.33 1469.82 1454.33 Q1465.19 1454.33 1462.74 1457.45 Q1460.3 1460.58 1459.96 1466.9 Q1461.32 1464.89 1463.38 1463.82 Q1465.44 1462.73 1467.92 1462.73 Q1473.13 1462.73 1476.14 1465.9 Q1479.17 1469.05 1479.17 1474.49 Q1479.17 1479.82 1476.02 1483.03 Q1472.87 1486.25 1467.64 1486.25 Q1461.65 1486.25 1458.48 1481.67 Q1455.3 1477.06 1455.3 1468.33 Q1455.3 1460.14 1459.19 1455.28 Q1463.08 1450.39 1469.63 1450.39 Q1471.39 1450.39 1473.17 1450.74 Q1474.98 1451.09 1476.92 1451.78 Z" fill="#000000" fill-rule="nonzero" fill-opacity="1"></path><path clip-path="url(#clip490)" d="M1910 1469.17 Q1906.66 1469.17 1904.74 1470.95 Q1902.84 1472.73 1902.84 1475.86 Q1902.84 1478.98 1904.74 1480.77 Q1906.66 1482.55 1910 1482.55 Q1913.33 1482.55 1915.25 1480.77 Q1917.17 1478.96 1917.17 1475.86 Q1917.17 1472.73 1915.25 1470.95 Q1913.35 1469.17 1910 1469.17 M1905.32 1467.18 Q1902.31 1466.44 1900.62 1464.38 Q1898.96 1462.32 1898.96 1459.35 Q1898.96 1455.21 1901.89 1452.8 Q1904.86 1450.39 1910 1450.39 Q1915.16 1450.39 1918.1 1452.8 Q1921.04 1455.21 1921.04 1459.35 Q1921.04 1462.32 1919.35 1464.38 Q1917.68 1466.44 1914.7 1467.18 Q1918.08 1467.96 1919.95 1470.26 Q1921.85 1472.55 1921.85 1475.86 Q1921.85 1480.88 1918.77 1483.57 Q1915.71 1486.25 1910 1486.25 Q1904.28 1486.25 1901.2 1483.57 Q1898.14 1480.88 1898.14 1475.86 Q1898.14 1472.55 1900.04 1470.26 Q1901.94 1467.96 1905.32 1467.18 M1903.61 1459.79 Q1903.61 1462.48 1905.27 1463.98 Q1906.96 1465.49 1910 1465.49 Q1913.01 1465.49 1914.7 1463.98 Q1916.41 1462.48 1916.41 1459.79 Q1916.41 1457.11 1914.7 1455.6 Q1913.01 1454.1 1910 1454.1 Q1906.96 1454.1 1905.27 1455.6 Q1903.61 1457.11 1903.61 1459.79 Z" fill="#000000" fill-rule="nonzero" fill-opacity="1"></path><path clip-path="url(#clip490)" d="M2327.44 1481.64 L2335.08 1481.64 L2335.08 1455.28 L2326.77 1456.95 L2326.77 1452.69 L2335.04 1451.02 L2339.71 1451.02 L2339.71 1481.64 L2347.35 1481.64 L2347.35 1485.58 L2327.44 1485.58 L2327.44 1481.64 Z" fill="#000000" fill-rule="nonzero" fill-opacity="1"></path><path clip-path="url(#clip490)" d="M2366.8 1454.1 Q2363.18 1454.1 2361.36 1457.66 Q2359.55 1461.2 2359.55 1468.33 Q2359.55 1475.44 2361.36 1479.01 Q2363.18 1482.55 2366.8 1482.55 Q2370.43 1482.55 2372.23 1479.01 Q2374.06 1475.44 2374.06 1468.33 Q2374.06 1461.2 2372.23 1457.66 Q2370.43 1454.1 2366.8 1454.1 M2366.8 1450.39 Q2372.61 1450.39 2375.66 1455 Q2378.74 1459.58 2378.74 1468.33 Q2378.74 1477.06 2375.66 1481.67 Q2372.61 1486.25 2366.8 1486.25 Q2360.99 1486.25 2357.91 1481.67 Q2354.85 1477.06 2354.85 1468.33 Q2354.85 1459.58 2357.91 1455 Q2360.99 1450.39 2366.8 1450.39 Z" fill="#000000" fill-rule="nonzero" fill-opacity="1"></path><path clip-path="url(#clip490)" d="M1244.92 1522.27 L1244.92 1532.4 L1256.98 1532.4 L1256.98 1536.95 L1244.92 1536.95 L1244.92 1556.3 Q1244.92 1560.66 1246.1 1561.9 Q1247.31 1563.14 1250.97 1563.14 L1256.98 1563.14 L1256.98 1568.04 L1250.97 1568.04 Q1244.19 1568.04 1241.61 1565.53 Q1239.03 1562.98 1239.03 1556.3 L1239.03 1536.95 L1234.73 1536.95 L1234.73 1532.4 L1239.03 1532.4 L1239.03 1522.27 L1244.92 1522.27 Z" fill="#000000" fill-rule="nonzero" fill-opacity="1"></path><polyline clip-path="url(#clip492)" style="stroke:#000000; stroke-linecap:round; stroke-linejoin:round; stroke-width:2; stroke-opacity:0.1; fill:none" points="138.959,1287.16 2352.76,1287.16 "></polyline>
<polyline clip-path="url(#clip492)" style="stroke:#000000; stroke-linecap:round; stroke-linejoin:round; stroke-width:2; stroke-opacity:0.1; fill:none" points="138.959,986.919 2352.76,986.919 "></polyline>
<polyline clip-path="url(#clip492)" style="stroke:#000000; stroke-linecap:round; stroke-linejoin:round; stroke-width:2; stroke-opacity:0.1; fill:none" points="138.959,686.674 2352.76,686.674 "></polyline>
<polyline clip-path="url(#clip492)" style="stroke:#000000; stroke-linecap:round; stroke-linejoin:round; stroke-width:2; stroke-opacity:0.1; fill:none" points="138.959,386.43 2352.76,386.43 "></polyline>
<polyline clip-path="url(#clip492)" style="stroke:#000000; stroke-linecap:round; stroke-linejoin:round; stroke-width:2; stroke-opacity:0.1; fill:none" points="138.959,86.1857 2352.76,86.1857 "></polyline>
<polyline clip-path="url(#clip490)" style="stroke:#000000; stroke-linecap:round; stroke-linejoin:round; stroke-width:4; stroke-opacity:1; fill:none" points="138.959,1423.18 138.959,47.2441 "></polyline>
<polyline clip-path="url(#clip490)" style="stroke:#000000; stroke-linecap:round; stroke-linejoin:round; stroke-width:4; stroke-opacity:1; fill:none" points="138.959,1287.16 157.857,1287.16 "></polyline>
<polyline clip-path="url(#clip490)" style="stroke:#000000; stroke-linecap:round; stroke-linejoin:round; stroke-width:4; stroke-opacity:1; fill:none" points="138.959,986.919 157.857,986.919 "></polyline>
<polyline clip-path="url(#clip490)" style="stroke:#000000; stroke-linecap:round; stroke-linejoin:round; stroke-width:4; stroke-opacity:1; fill:none" points="138.959,686.674 157.857,686.674 "></polyline>
<polyline clip-path="url(#clip490)" style="stroke:#000000; stroke-linecap:round; stroke-linejoin:round; stroke-width:4; stroke-opacity:1; fill:none" points="138.959,386.43 157.857,386.43 "></polyline>
<polyline clip-path="url(#clip490)" style="stroke:#000000; stroke-linecap:round; stroke-linejoin:round; stroke-width:4; stroke-opacity:1; fill:none" points="138.959,86.1857 157.857,86.1857 "></polyline>
<path clip-path="url(#clip490)" d="M86.6401 1300.51 L102.959 1300.51 L102.959 1304.44 L81.0151 1304.44 L81.0151 1300.51 Q83.6771 1297.75 88.2604 1293.12 Q92.8669 1288.47 94.0475 1287.13 Q96.2928 1284.6 97.1724 1282.87 Q98.0752 1281.11 98.0752 1279.42 Q98.0752 1276.67 96.1308 1274.93 Q94.2095 1273.19 91.1077 1273.19 Q88.9086 1273.19 86.4549 1273.96 Q84.0244 1274.72 81.2466 1276.27 L81.2466 1271.55 Q84.0707 1270.42 86.5243 1269.84 Q88.978 1269.26 91.0151 1269.26 Q96.3854 1269.26 99.5798 1271.94 Q102.774 1274.63 102.774 1279.12 Q102.774 1281.25 101.964 1283.17 Q101.177 1285.07 99.0706 1287.66 Q98.4919 1288.33 95.39 1291.55 Q92.2882 1294.74 86.6401 1300.51 Z" fill="#000000" fill-rule="nonzero" fill-opacity="1"></path><path clip-path="url(#clip490)" d="M93.3762 973.713 L81.5707 992.162 L93.3762 992.162 L93.3762 973.713 M92.1493 969.639 L98.0289 969.639 L98.0289 992.162 L102.959 992.162 L102.959 996.05 L98.0289 996.05 L98.0289 1004.2 L93.3762 1004.2 L93.3762 996.05 L77.7744 996.05 L77.7744 991.537 L92.1493 969.639 Z" fill="#000000" fill-rule="nonzero" fill-opacity="1"></path><path clip-path="url(#clip490)" d="M91.4317 684.811 Q88.2836 684.811 86.4318 686.964 Q84.6031 689.116 84.6031 692.866 Q84.6031 696.593 86.4318 698.769 Q88.2836 700.922 91.4317 700.922 Q94.5799 700.922 96.4085 698.769 Q98.2604 696.593 98.2604 692.866 Q98.2604 689.116 96.4085 686.964 Q94.5799 684.811 91.4317 684.811 M100.714 670.158 L100.714 674.417 Q98.9548 673.584 97.1493 673.144 Q95.3669 672.704 93.6076 672.704 Q88.978 672.704 86.5243 675.829 Q84.0938 678.954 83.7466 685.274 Q85.1123 683.26 87.1725 682.195 Q89.2327 681.107 91.7095 681.107 Q96.9178 681.107 99.927 684.278 Q102.959 687.427 102.959 692.866 Q102.959 698.19 99.8113 701.408 Q96.6632 704.626 91.4317 704.626 Q85.4364 704.626 82.2651 700.042 Q79.0938 695.436 79.0938 686.709 Q79.0938 678.515 82.9827 673.653 Q86.8716 668.769 93.4225 668.769 Q95.1817 668.769 96.9641 669.116 Q98.7696 669.464 100.714 670.158 Z" fill="#000000" fill-rule="nonzero" fill-opacity="1"></path><path clip-path="url(#clip490)" d="M91.1077 387.298 Q87.7743 387.298 85.8531 389.08 Q83.9549 390.863 83.9549 393.988 Q83.9549 397.113 85.8531 398.895 Q87.7743 400.678 91.1077 400.678 Q94.441 400.678 96.3623 398.895 Q98.2835 397.09 98.2835 393.988 Q98.2835 390.863 96.3623 389.08 Q94.4641 387.298 91.1077 387.298 M86.4318 385.307 Q83.4225 384.567 81.7327 382.506 Q80.066 380.446 80.066 377.483 Q80.066 373.34 83.0058 370.932 Q85.9688 368.525 91.1077 368.525 Q96.2697 368.525 99.2095 370.932 Q102.149 373.34 102.149 377.483 Q102.149 380.446 100.459 382.506 Q98.7928 384.567 95.8067 385.307 Q99.1863 386.094 101.061 388.386 Q102.959 390.678 102.959 393.988 Q102.959 399.011 99.8808 401.696 Q96.8252 404.381 91.1077 404.381 Q85.3901 404.381 82.3114 401.696 Q79.2559 399.011 79.2559 393.988 Q79.2559 390.678 81.154 388.386 Q83.0521 386.094 86.4318 385.307 M84.7188 377.923 Q84.7188 380.608 86.3855 382.113 Q88.0753 383.617 91.1077 383.617 Q94.1169 383.617 95.8067 382.113 Q97.5197 380.608 97.5197 377.923 Q97.5197 375.238 95.8067 373.733 Q94.1169 372.229 91.1077 372.229 Q88.0753 372.229 86.3855 373.733 Q84.7188 375.238 84.7188 377.923 Z" fill="#000000" fill-rule="nonzero" fill-opacity="1"></path><path clip-path="url(#clip490)" d="M51.6634 99.5305 L59.3023 99.5305 L59.3023 73.1649 L50.9921 74.8316 L50.9921 70.5723 L59.256 68.9057 L63.9319 68.9057 L63.9319 99.5305 L71.5707 99.5305 L71.5707 103.466 L51.6634 103.466 L51.6634 99.5305 Z" fill="#000000" fill-rule="nonzero" fill-opacity="1"></path><path clip-path="url(#clip490)" d="M91.0151 71.9844 Q87.404 71.9844 85.5753 75.5492 Q83.7697 79.0908 83.7697 86.2204 Q83.7697 93.3268 85.5753 96.8916 Q87.404 100.433 91.0151 100.433 Q94.6493 100.433 96.4548 96.8916 Q98.2835 93.3268 98.2835 86.2204 Q98.2835 79.0908 96.4548 75.5492 Q94.6493 71.9844 91.0151 71.9844 M91.0151 68.2807 Q96.8252 68.2807 99.8808 72.8871 Q102.959 77.4704 102.959 86.2204 Q102.959 94.9472 99.8808 99.5537 Q96.8252 104.137 91.0151 104.137 Q85.2049 104.137 82.1262 99.5537 Q79.0707 94.9472 79.0707 86.2204 Q79.0707 77.4704 82.1262 72.8871 Q85.2049 68.2807 91.0151 68.2807 Z" fill="#000000" fill-rule="nonzero" fill-opacity="1"></path><polyline clip-path="url(#clip492)" style="stroke:#009af9; stroke-linecap:round; stroke-linejoin:round; stroke-width:4; stroke-opacity:1; fill:none" points="138.959,86.1857 141.175,89.1881 143.391,92.1846 145.607,95.175 147.823,98.1595 150.04,101.138 152.256,104.11 154.472,107.077 156.688,110.038 158.904,112.992 161.12,115.941 163.336,118.884 165.552,121.821 167.768,124.752 169.984,127.678 172.2,130.597 174.416,133.511 176.632,136.419 178.848,139.321 181.064,142.217 183.28,145.107 185.496,147.992 187.712,150.871 189.928,153.744 192.144,156.611 194.36,159.473 196.576,162.328 198.792,165.179 201.008,168.023 203.224,170.862 205.44,173.695 207.656,176.522 209.872,179.344 212.088,182.16 214.304,184.971 216.52,187.776 218.736,190.575 220.952,193.369 223.168,196.157 225.384,198.939 227.6,201.716 229.816,204.487 232.032,207.253 234.248,210.014 236.464,212.768 238.68,215.518 240.896,218.261 243.112,221 245.328,223.733 247.544,226.46 249.76,229.182 251.976,231.898 254.192,234.609 256.408,237.315 258.624,240.015 260.84,242.71 263.056,245.399 265.272,248.083 267.488,250.762 269.704,253.435 271.92,256.103 274.136,258.766 276.352,261.423 278.568,264.075 280.784,266.722 283,269.363 285.216,271.999 287.432,274.63 289.648,277.255 291.864,279.876 294.08,282.491 296.296,285.101 298.512,287.705 300.728,290.305 302.944,292.899 305.16,295.488 307.376,298.072 309.592,300.65 311.808,303.224 314.024,305.792 316.24,308.355 318.456,310.914 320.672,313.467 322.888,316.014 325.104,318.557 327.321,321.095 329.537,323.628 331.753,326.155 333.969,328.678 336.185,331.195 338.401,333.707 340.617,336.215 342.833,338.717 345.049,341.215 347.265,343.707 349.481,346.194 351.697,348.677 353.913,351.154 356.129,353.627 358.345,356.094 360.561,358.557 362.777,361.015 364.993,363.467 367.209,365.915 369.425,368.358 371.641,370.796 373.857,373.23 376.073,375.658 378.289,378.082 380.505,380.5 382.721,382.914 384.937,385.323 387.153,387.727 389.369,390.127 391.585,392.521 393.801,394.911 396.017,397.296 398.233,399.676 400.449,402.052 402.665,404.422 404.881,406.788 407.097,409.15 409.313,411.506 411.529,413.858 413.745,416.205 415.961,418.548 418.177,420.885 420.393,423.218 422.609,425.547 424.825,427.87 427.041,430.19 429.257,432.504 431.473,434.814 433.689,437.119 435.905,439.42 438.121,441.716 440.337,444.007 442.553,446.294 444.769,448.576 446.985,450.854 449.201,453.127 451.417,455.395 453.633,457.659 455.849,459.919 458.065,462.174 460.281,464.424 462.497,466.67 464.713,468.912 466.929,471.149 469.145,473.381 471.361,475.609 473.577,477.833 475.793,480.052 478.009,482.267 480.225,484.477 482.441,486.683 484.657,488.884 486.873,491.081 489.089,493.274 491.305,495.462 493.521,497.646 495.737,499.826 497.953,502.001 500.169,504.172 502.385,506.338 504.601,508.5 506.818,510.658 509.034,512.812 511.25,514.961 513.466,517.106 515.682,519.246 517.898,521.383 520.114,523.515 522.33,525.642 524.546,527.766 526.762,529.885 528.978,532 531.194,534.111 533.41,536.218 535.626,538.32 537.842,540.418 540.058,542.512 542.274,544.602 544.49,546.687 546.706,548.769 548.922,550.846 551.138,552.919 553.354,554.988 555.57,557.053 557.786,559.114 560.002,561.17 562.218,563.223 564.434,565.271 566.65,567.315 568.866,569.356 571.082,571.392 573.298,573.424 575.514,575.452 577.73,577.476 579.946,579.495 582.162,581.511 584.378,583.523 586.594,585.531 588.81,587.534 591.026,589.534 593.242,591.53 595.458,593.522 597.674,595.509 599.89,597.493 602.106,599.473 604.322,601.449 606.538,603.421 608.754,605.389 610.97,607.353 613.186,609.313 615.402,611.269 617.618,613.221 619.834,615.17 622.05,617.114 624.266,619.055 626.482,620.992 628.698,622.924 630.914,624.853 633.13,626.778 635.346,628.7 637.562,630.617 639.778,632.531 641.994,634.44 644.21,636.346 646.426,638.248 648.642,640.147 650.858,642.041 653.074,643.932 655.29,645.819 657.506,647.702 659.722,649.582 661.938,651.457 664.154,653.329 666.37,655.197 668.586,657.062 670.802,658.922 673.018,660.779 675.234,662.633 677.45,664.482 679.666,666.328 681.882,668.17 684.099,670.009 686.315,671.844 688.531,673.675 690.747,675.502 692.963,677.326 695.179,679.146 697.395,680.963 699.611,682.776 701.827,684.585 704.043,686.391 706.259,688.193 708.475,689.991 710.691,691.786 712.907,693.577 715.123,695.365 717.339,697.149 719.555,698.929 721.771,700.706 723.987,702.48 726.203,704.25 728.419,706.016 730.635,707.779 732.851,709.538 735.067,711.294 737.283,713.046 739.499,714.795 741.715,716.54 743.931,718.282 746.147,720.02 748.363,721.755 750.579,723.486 752.795,725.214 755.011,726.939 757.227,728.66 759.443,730.377 761.659,732.091 763.875,733.802 766.091,735.509 768.307,737.213 770.523,738.913 772.739,740.61 774.955,742.304 777.171,743.994 779.387,745.681 781.603,747.364 783.819,749.044 786.035,750.721 788.251,752.394 790.467,754.065 792.683,755.731 794.899,757.395 797.115,759.055 799.331,760.711 801.547,762.365 803.763,764.015 805.979,765.662 808.195,767.305 810.411,768.945 812.627,770.582 814.843,772.216 817.059,773.846 819.275,775.473 821.491,777.097 823.707,778.718 825.923,780.335 828.139,781.949 830.355,783.56 832.571,785.168 834.787,786.772 837.003,788.374 839.219,789.972 841.435,791.567 843.651,793.158 845.867,794.747 848.083,796.332 850.299,797.914 852.515,799.493 854.731,801.069 856.947,802.642 859.163,804.211 861.38,805.778 863.596,807.341 865.812,808.901 868.028,810.458 870.244,812.012 872.46,813.563 874.676,815.11 876.892,816.655 879.108,818.196 881.324,819.735 883.54,821.27 885.756,822.802 887.972,824.331 890.188,825.858 892.404,827.381 894.62,828.901 896.836,830.418 899.052,831.932 901.268,833.443 903.484,834.951 905.7,836.455 907.916,837.957 910.132,839.456 912.348,840.952 914.564,842.445 916.78,843.935 918.996,845.422 921.212,846.906 923.428,848.387 925.644,849.865 927.86,851.34 930.076,852.812 932.292,854.281 934.508,855.747 936.724,857.211 938.94,858.671 941.156,860.129 943.372,861.583 945.588,863.035 947.804,864.483 950.02,865.929 952.236,867.372 954.452,868.812 956.668,870.249 958.884,871.684 961.1,873.115 963.316,874.544 965.532,875.97 967.748,877.392 969.964,878.812 972.18,880.23 974.396,881.644 976.612,883.055 978.828,884.464 981.044,885.87 983.26,887.273 985.476,888.673 987.692,890.071 989.908,891.465 992.124,892.857 994.34,894.246 996.556,895.633 998.772,897.016 1000.99,898.397 1003.2,899.775 1005.42,901.15 1007.64,902.523 1009.85,903.893 1012.07,905.26 1014.28,906.624 1016.5,907.986 1018.72,909.344 1020.93,910.701 1023.15,912.054 1025.36,913.405 1027.58,914.753 1029.8,916.098 1032.01,917.441 1034.23,918.781 1036.44,920.118 1038.66,921.452 1040.88,922.784 1043.09,924.114 1045.31,925.44 1047.52,926.764 1049.74,928.085 1051.96,929.404 1054.17,930.72 1056.39,932.034 1058.6,933.344 1060.82,934.652 1063.04,935.958 1065.25,937.261 1067.47,938.561 1069.68,939.859 1071.9,941.154 1074.12,942.447 1076.33,943.737 1078.55,945.024 1080.76,946.309 1082.98,947.591 1085.2,948.871 1087.41,950.148 1089.63,951.422 1091.84,952.694 1094.06,953.964 1096.28,955.231 1098.49,956.495 1100.71,957.757 1102.92,959.016 1105.14,960.273 1107.36,961.528 1109.57,962.779 1111.79,964.029 1114,965.275 1116.22,966.52 1118.44,967.762 1120.65,969.001 1122.87,970.238 1125.08,971.472 1127.3,972.704 1129.52,973.933 1131.73,975.16 1133.95,976.385 1136.17,977.607 1138.38,978.827 1140.6,980.044 1142.81,981.259 1145.03,982.471 1147.25,983.681 1149.46,984.888 1151.68,986.093 1153.89,987.296 1156.11,988.496 1158.33,989.694 1160.54,990.89 1162.76,992.083 1164.97,993.273 1167.19,994.462 1169.41,995.647 1171.62,996.831 1173.84,998.012 1176.05,999.191 1178.27,1000.37 1180.49,1001.54 1182.7,1002.71 1184.92,1003.88 1187.13,1005.05 1189.35,1006.21 1191.57,1007.38 1193.78,1008.54 1196,1009.69 1198.21,1010.85 1200.43,1012 1202.65,1013.15 1204.86,1014.3 1207.08,1015.45 1209.29,1016.59 1211.51,1017.73 1213.73,1018.87 1215.94,1020.01 1218.16,1021.15 1220.37,1022.28 1222.59,1023.41 1224.81,1024.54 1227.02,1025.66 1229.24,1026.79 1231.45,1027.91 1233.67,1029.03 1235.89,1030.14 1238.1,1031.26 1240.32,1032.37 1242.53,1033.48 1244.75,1034.59 1246.97,1035.69 1249.18,1036.8 1251.4,1037.9 1253.61,1039 1255.83,1040.09 1258.05,1041.19 1260.26,1042.28 1262.48,1043.37 1264.69,1044.46 1266.91,1045.54 1269.13,1046.63 1271.34,1047.71 1273.56,1048.79 1275.77,1049.87 1277.99,1050.94 1280.21,1052.01 1282.42,1053.08 1284.64,1054.15 1286.85,1055.22 1289.07,1056.28 1291.29,1057.35 1293.5,1058.41 1295.72,1059.46 1297.93,1060.52 1300.15,1061.57 1302.37,1062.63 1304.58,1063.68 1306.8,1064.72 1309.01,1065.77 1311.23,1066.81 1313.45,1067.85 1315.66,1068.89 1317.88,1069.93 1320.09,1070.96 1322.31,1072 1324.53,1073.03 1326.74,1074.06 1328.96,1075.08 1331.17,1076.11 1333.39,1077.13 1335.61,1078.15 1337.82,1079.17 1340.04,1080.19 1342.25,1081.2 1344.47,1082.21 1346.69,1083.22 1348.9,1084.23 1351.12,1085.24 1353.33,1086.24 1355.55,1087.24 1357.77,1088.24 1359.98,1089.24 1362.2,1090.24 1364.41,1091.23 1366.63,1092.23 1368.85,1093.22 1371.06,1094.2 1373.28,1095.19 1375.49,1096.17 1377.71,1097.16 1379.93,1098.14 1382.14,1099.12 1384.36,1100.09 1386.57,1101.07 1388.79,1102.04 1391.01,1103.01 1393.22,1103.98 1395.44,1104.95 1397.65,1105.91 1399.87,1106.87 1402.09,1107.84 1404.3,1108.79 1406.52,1109.75 1408.73,1110.71 1410.95,1111.66 1413.17,1112.61 1415.38,1113.56 1417.6,1114.51 1419.81,1115.45 1422.03,1116.4 1424.25,1117.34 1426.46,1118.28 1428.68,1119.22 1430.89,1120.16 1433.11,1121.09 1435.33,1122.02 1437.54,1122.95 1439.76,1123.88 1441.97,1124.81 1444.19,1125.73 1446.41,1126.66 1448.62,1127.58 1450.84,1128.5 1453.05,1129.42 1455.27,1130.33 1457.49,1131.25 1459.7,1132.16 1461.92,1133.07 1464.13,1133.98 1466.35,1134.89 1468.57,1135.79 1470.78,1136.69 1473,1137.59 1475.21,1138.49 1477.43,1139.39 1479.65,1140.29 1481.86,1141.18 1484.08,1142.08 1486.3,1142.97 1488.51,1143.85 1490.73,1144.74 1492.94,1145.63 1495.16,1146.51 1497.38,1147.39 1499.59,1148.27 1501.81,1149.15 1504.02,1150.03 1506.24,1150.9 1508.46,1151.78 1510.67,1152.65 1512.89,1153.52 1515.1,1154.38 1517.32,1155.25 1519.54,1156.11 1521.75,1156.98 1523.97,1157.84 1526.18,1158.7 1528.4,1159.55 1530.62,1160.41 1532.83,1161.26 1535.05,1162.12 1537.26,1162.97 1539.48,1163.82 1541.7,1164.66 1543.91,1165.51 1546.13,1166.35 1548.34,1167.19 1550.56,1168.04 1552.78,1168.87 1554.99,1169.71 1557.21,1170.55 1559.42,1171.38 1561.64,1172.21 1563.86,1173.04 1566.07,1173.87 1568.29,1174.7 1570.5,1175.52 1572.72,1176.35 1574.94,1177.17 1577.15,1177.99 1579.37,1178.81 1581.58,1179.63 1583.8,1180.44 1586.02,1181.26 1588.23,1182.07 1590.45,1182.88 1592.66,1183.69 1594.88,1184.5 1597.1,1185.3 1599.31,1186.11 1601.53,1186.91 1603.74,1187.71 1605.96,1188.51 1608.18,1189.31 1610.39,1190.1 1612.61,1190.9 1614.82,1191.69 1617.04,1192.48 1619.26,1193.27 1621.47,1194.06 1623.69,1194.85 1625.9,1195.63 1628.12,1196.42 1630.34,1197.2 1632.55,1197.98 1634.77,1198.76 1636.98,1199.53 1639.2,1200.31 1641.42,1201.08 1643.63,1201.86 1645.85,1202.63 1648.06,1203.4 1650.28,1204.17 1652.5,1204.93 1654.71,1205.7 1656.93,1206.46 1659.14,1207.22 1661.36,1207.98 1663.58,1208.74 1665.79,1209.5 1668.01,1210.26 1670.22,1211.01 1672.44,1211.76 1674.66,1212.51 1676.87,1213.26 1679.09,1214.01 1681.3,1214.76 1683.52,1215.5 1685.74,1216.25 1687.95,1216.99 1690.17,1217.73 1692.38,1218.47 1694.6,1219.21 1696.82,1219.94 1699.03,1220.68 1701.25,1221.41 1703.46,1222.15 1705.68,1222.88 1707.9,1223.6 1710.11,1224.33 1712.33,1225.06 1714.54,1225.78 1716.76,1226.51 1718.98,1227.23 1721.19,1227.95 1723.41,1228.67 1725.62,1229.38 1727.84,1230.1 1730.06,1230.82 1732.27,1231.53 1734.49,1232.24 1736.7,1232.95 1738.92,1233.66 1741.14,1234.37 1743.35,1235.07 1745.57,1235.78 1747.78,1236.48 1750,1237.18 1752.22,1237.88 1754.43,1238.58 1756.65,1239.28 1758.86,1239.98 1761.08,1240.67 1763.3,1241.36 1765.51,1242.06 1767.73,1242.75 1769.94,1243.44 1772.16,1244.12 1774.38,1244.81 1776.59,1245.5 1778.81,1246.18 1781.02,1246.86 1783.24,1247.54 1785.46,1248.22 1787.67,1248.9 1789.89,1249.58 1792.1,1250.25 1794.32,1250.93 1796.54,1251.6 1798.75,1252.27 1800.97,1252.94 1803.18,1253.61 1805.4,1254.28 1807.62,1254.95 1809.83,1255.61 1812.05,1256.27 1814.26,1256.94 1816.48,1257.6 1818.7,1258.26 1820.91,1258.92 1823.13,1259.57 1825.34,1260.23 1827.56,1260.88 1829.78,1261.53 1831.99,1262.19 1834.21,1262.84 1836.42,1263.49 1838.64,1264.13 1840.86,1264.78 1843.07,1265.43 1845.29,1266.07 1847.51,1266.71 1849.72,1267.35 1851.94,1267.99 1854.15,1268.63 1856.37,1269.27 1858.59,1269.91 1860.8,1270.54 1863.02,1271.17 1865.23,1271.81 1867.45,1272.44 1869.67,1273.07 1871.88,1273.7 1874.1,1274.32 1876.31,1274.95 1878.53,1275.58 1880.75,1276.2 1882.96,1276.82 1885.18,1277.44 1887.39,1278.06 1889.61,1278.68 1891.83,1279.3 1894.04,1279.91 1896.26,1280.53 1898.47,1281.14 1900.69,1281.76 1902.91,1282.37 1905.12,1282.98 1907.34,1283.59 1909.55,1284.19 1911.77,1284.8 1913.99,1285.41 1916.2,1286.01 1918.42,1286.61 1920.63,1287.21 1922.85,1287.81 1925.07,1288.41 1927.28,1289.01 1929.5,1289.61 1931.71,1290.2 1933.93,1290.8 1936.15,1291.39 1938.36,1291.98 1940.58,1292.57 1942.79,1293.16 1945.01,1293.75 1947.23,1294.34 1949.44,1294.93 1951.66,1295.51 1953.87,1296.09 1956.09,1296.68 1958.31,1297.26 1960.52,1297.84 1962.74,1298.42 1964.95,1299 1967.17,1299.57 1969.39,1300.15 1971.6,1300.72 1973.82,1301.3 1976.03,1301.87 1978.25,1302.44 1980.47,1303.01 1982.68,1303.58 1984.9,1304.15 1987.11,1304.71 1989.33,1305.28 1991.55,1305.84 1993.76,1306.41 1995.98,1306.97 1998.19,1307.53 2000.41,1308.09 2002.63,1308.65 2004.84,1309.2 2007.06,1309.76 2009.27,1310.32 2011.49,1310.87 2013.71,1311.42 2015.92,1311.97 2018.14,1312.53 2020.35,1313.08 2022.57,1313.62 2024.79,1314.17 2027,1314.72 2029.22,1315.26 2031.43,1315.81 2033.65,1316.35 2035.87,1316.89 2038.08,1317.43 2040.3,1317.97 2042.51,1318.51 2044.73,1319.05 2046.95,1319.59 2049.16,1320.12 2051.38,1320.66 2053.59,1321.19 2055.81,1321.72 2058.03,1322.26 2060.24,1322.79 2062.46,1323.31 2064.67,1323.84 2066.89,1324.37 2069.11,1324.9 2071.32,1325.42 2073.54,1325.95 2075.75,1326.47 2077.97,1326.99 2080.19,1327.51 2082.4,1328.03 2084.62,1328.55 2086.83,1329.07 2089.05,1329.58 2091.27,1330.1 2093.48,1330.61 2095.7,1331.13 2097.91,1331.64 2100.13,1332.15 2102.35,1332.66 2104.56,1333.17 2106.78,1333.68 2108.99,1334.19 2111.21,1334.69 2113.43,1335.2 2115.64,1335.7 2117.86,1336.21 2120.07,1336.71 2122.29,1337.21 2124.51,1337.71 2126.72,1338.21 2128.94,1338.71 2131.15,1339.21 2133.37,1339.7 2135.59,1340.2 2137.8,1340.69 2140.02,1341.19 2142.23,1341.68 2144.45,1342.17 2146.67,1342.66 2148.88,1343.15 2151.1,1343.64 2153.31,1344.13 2155.53,1344.61 2157.75,1345.1 2159.96,1345.58 2162.18,1346.07 2164.39,1346.55 2166.61,1347.03 2168.83,1347.51 2171.04,1347.99 2173.26,1348.47 2175.47,1348.95 2177.69,1349.43 2179.91,1349.9 2182.12,1350.38 2184.34,1350.85 2186.55,1351.32 2188.77,1351.8 2190.99,1352.27 2193.2,1352.74 2195.42,1353.21 2197.64,1353.67 2199.85,1354.14 2202.07,1354.61 2204.28,1355.07 2206.5,1355.54 2208.72,1356 2210.93,1356.47 2213.15,1356.93 2215.36,1357.39 2217.58,1357.85 2219.8,1358.31 2222.01,1358.77 2224.23,1359.22 2226.44,1359.68 2228.66,1360.13 2230.88,1360.59 2233.09,1361.04 2235.31,1361.5 2237.52,1361.95 2239.74,1362.4 2241.96,1362.85 2244.17,1363.3 2246.39,1363.75 2248.6,1364.19 2250.82,1364.64 2253.04,1365.09 2255.25,1365.53 2257.47,1365.97 2259.68,1366.42 2261.9,1366.86 2264.12,1367.3 2266.33,1367.74 2268.55,1368.18 2270.76,1368.62 2272.98,1369.05 2275.2,1369.49 2277.41,1369.93 2279.63,1370.36 2281.84,1370.8 2284.06,1371.23 2286.28,1371.66 2288.49,1372.09 2290.71,1372.52 2292.92,1372.95 2295.14,1373.38 2297.36,1373.81 2299.57,1374.24 2301.79,1374.66 2304,1375.09 2306.22,1375.51 2308.44,1375.94 2310.65,1376.36 2312.87,1376.78 2315.08,1377.2 2317.3,1377.63 2319.52,1378.04 2321.73,1378.46 2323.95,1378.88 2326.16,1379.3 2328.38,1379.71 2330.6,1380.13 2332.81,1380.54 2335.03,1380.96 2337.24,1381.37 2339.46,1381.78 2341.68,1382.19 2343.89,1382.6 2346.11,1383.01 2348.32,1383.42 2350.54,1383.83 2352.76,1384.24 "></polyline>
<path clip-path="url(#clip490)" d="M1979.39 196.789 L2278.96 196.789 L2278.96 93.1086 L1979.39 93.1086  Z" fill="#ffffff" fill-rule="evenodd" fill-opacity="1"></path>
<polyline clip-path="url(#clip490)" style="stroke:#000000; stroke-linecap:round; stroke-linejoin:round; stroke-width:4; stroke-opacity:1; fill:none" points="1979.39,196.789 2278.96,196.789 2278.96,93.1086 1979.39,93.1086 1979.39,196.789 "></polyline>
<polyline clip-path="url(#clip490)" style="stroke:#009af9; stroke-linecap:round; stroke-linejoin:round; stroke-width:4; stroke-opacity:1; fill:none" points="2003.99,144.949 2151.57,144.949 "></polyline>
<path clip-path="url(#clip490)" d="M2200.82 136.303 L2191.45 148.919 L2201.31 162.229 L2196.29 162.229 L2188.74 152.043 L2181.19 162.229 L2176.17 162.229 L2186.24 148.664 L2177.03 136.303 L2182.05 136.303 L2188.93 145.539 L2195.8 136.303 L2200.82 136.303 Z" fill="#000000" fill-rule="nonzero" fill-opacity="1"></path><path clip-path="url(#clip490)" d="M2217.56 126.257 Q2214.46 131.581 2212.95 136.789 Q2211.45 141.997 2211.45 147.344 Q2211.45 152.692 2212.95 157.946 Q2214.48 163.178 2217.56 168.479 L2213.86 168.479 Q2210.38 163.039 2208.65 157.784 Q2206.93 152.53 2206.93 147.344 Q2206.93 142.182 2208.65 136.951 Q2210.36 131.72 2213.86 126.257 L2217.56 126.257 Z" fill="#000000" fill-rule="nonzero" fill-opacity="1"></path><path clip-path="url(#clip490)" d="M2230.04 128.942 L2230.04 136.303 L2238.81 136.303 L2238.81 139.613 L2230.04 139.613 L2230.04 153.687 Q2230.04 156.858 2230.89 157.761 Q2231.77 158.664 2234.43 158.664 L2238.81 158.664 L2238.81 162.229 L2234.43 162.229 Q2229.5 162.229 2227.63 160.4 Q2225.75 158.548 2225.75 153.687 L2225.75 139.613 L2222.63 139.613 L2222.63 136.303 L2225.75 136.303 L2225.75 128.942 L2230.04 128.942 Z" fill="#000000" fill-rule="nonzero" fill-opacity="1"></path><path clip-path="url(#clip490)" d="M2243.74 126.257 L2247.44 126.257 Q2250.92 131.72 2252.63 136.951 Q2254.36 142.182 2254.36 147.344 Q2254.36 152.53 2252.63 157.784 Q2250.92 163.039 2247.44 168.479 L2243.74 168.479 Q2246.82 163.178 2248.32 157.946 Q2249.85 152.692 2249.85 147.344 Q2249.85 141.997 2248.32 136.789 Q2246.82 131.581 2243.74 126.257 Z" fill="#000000" fill-rule="nonzero" fill-opacity="1"></path></svg>