<svg xmlns="http://www.w3.org/2000/svg" xmlns:xlink="http://www.w3.org/1999/xlink" width="600" height="400" viewBox="0 0 2400 1600">
<defs>
  <clipPath id="clip950">
    <rect x="0" y="0" width="2400" height="1600"></rect>
  </clipPath>
</defs>
<path clip-path="url(#clip950)" d="M0 1600 L2400 1600 L2400 0 L0 0  Z" fill="#ffffff" fill-rule="evenodd" fill-opacity="1"></path>
<defs>
  <clipPath id="clip951">
    <rect x="480" y="0" width="1681" height="1600"></rect>
  </clipPath>
</defs>
<path clip-path="url(#clip950)" d="M209.029 1423.18 L2352.76 1423.18 L2352.76 47.2441 L209.029 47.2441  Z" fill="#ffffff" fill-rule="evenodd" fill-opacity="1"></path>
<defs>
  <clipPath id="clip952">
    <rect x="209" y="47" width="2145" height="1377"></rect>
  </clipPath>
</defs>
<polyline clip-path="url(#clip952)" style="stroke:#000000; stroke-linecap:round; stroke-linejoin:round; stroke-width:2; stroke-opacity:0.1; fill:none" points="209.029,1423.18 209.029,47.2441 "></polyline>
<polyline clip-path="url(#clip952)" style="stroke:#000000; stroke-linecap:round; stroke-linejoin:round; stroke-width:2; stroke-opacity:0.1; fill:none" points="637.774,1423.18 637.774,47.2441 "></polyline>
<polyline clip-path="url(#clip952)" style="stroke:#000000; stroke-linecap:round; stroke-linejoin:round; stroke-width:2; stroke-opacity:0.1; fill:none" points="1066.52,1423.18 1066.52,47.2441 "></polyline>
<polyline clip-path="url(#clip952)" style="stroke:#000000; stroke-linecap:round; stroke-linejoin:round; stroke-width:2; stroke-opacity:0.1; fill:none" points="1495.26,1423.18 1495.26,47.2441 "></polyline>
<polyline clip-path="url(#clip952)" style="stroke:#000000; stroke-linecap:round; stroke-linejoin:round; stroke-width:2; stroke-opacity:0.1; fill:none" points="1924.01,1423.18 1924.01,47.2441 "></polyline>
<polyline clip-path="url(#clip952)" style="stroke:#000000; stroke-linecap:round; stroke-linejoin:round; stroke-width:2; stroke-opacity:0.1; fill:none" points="2352.76,1423.18 2352.76,47.2441 "></polyline>
<polyline clip-path="url(#clip950)" style="stroke:#000000; stroke-linecap:round; stroke-linejoin:round; stroke-width:4; stroke-opacity:1; fill:none" points="209.029,1423.18 2352.76,1423.18 "></polyline>
<polyline clip-path="url(#clip950)" style="stroke:#000000; stroke-linecap:round; stroke-linejoin:round; stroke-width:4; stroke-opacity:1; fill:none" points="209.029,1423.18 209.029,1404.28 "></polyline>
<polyline clip-path="url(#clip950)" style="stroke:#000000; stroke-linecap:round; stroke-linejoin:round; stroke-width:4; stroke-opacity:1; fill:none" points="637.774,1423.18 637.774,1404.28 "></polyline>
<polyline clip-path="url(#clip950)" style="stroke:#000000; stroke-linecap:round; stroke-linejoin:round; stroke-width:4; stroke-opacity:1; fill:none" points="1066.52,1423.18 1066.52,1404.28 "></polyline>
<polyline clip-path="url(#clip950)" style="stroke:#000000; stroke-linecap:round; stroke-linejoin:round; stroke-width:4; stroke-opacity:1; fill:none" points="1495.26,1423.18 1495.26,1404.28 "></polyline>
<polyline clip-path="url(#clip950)" style="stroke:#000000; stroke-linecap:round; stroke-linejoin:round; stroke-width:4; stroke-opacity:1; fill:none" points="1924.01,1423.18 1924.01,1404.28 "></polyline>
<polyline clip-path="url(#clip950)" style="stroke:#000000; stroke-linecap:round; stroke-linejoin:round; stroke-width:4; stroke-opacity:1; fill:none" points="2352.76,1423.18 2352.76,1404.28 "></polyline>
<path clip-path="url(#clip950)" d="M209.029 1454.1 Q205.417 1454.1 203.589 1457.66 Q201.783 1461.2 201.783 1468.33 Q201.783 1475.44 203.589 1479.01 Q205.417 1482.55 209.029 1482.55 Q212.663 1482.55 214.468 1479.01 Q216.297 1475.44 216.297 1468.33 Q216.297 1461.2 214.468 1457.66 Q212.663 1454.1 209.029 1454.1 M209.029 1450.39 Q214.839 1450.39 217.894 1455 Q220.973 1459.58 220.973 1468.33 Q220.973 1477.06 217.894 1481.67 Q214.839 1486.25 209.029 1486.25 Q203.218 1486.25 200.14 1481.67 Q197.084 1477.06 197.084 1468.33 Q197.084 1459.58 200.14 1455 Q203.218 1450.39 209.029 1450.39 Z" fill="#000000" fill-rule="nonzero" fill-opacity="1"></path><path clip-path="url(#clip950)" d="M632.427 1481.64 L648.746 1481.64 L648.746 1485.58 L626.802 1485.58 L626.802 1481.64 Q629.464 1478.89 634.047 1474.26 Q638.654 1469.61 639.834 1468.27 Q642.08 1465.74 642.959 1464.01 Q643.862 1462.25 643.862 1460.56 Q643.862 1457.8 641.917 1456.07 Q639.996 1454.33 636.894 1454.33 Q634.695 1454.33 632.242 1455.09 Q629.811 1455.86 627.033 1457.41 L627.033 1452.69 Q629.857 1451.55 632.311 1450.97 Q634.765 1450.39 636.802 1450.39 Q642.172 1450.39 645.367 1453.08 Q648.561 1455.77 648.561 1460.26 Q648.561 1462.39 647.751 1464.31 Q646.964 1466.2 644.857 1468.8 Q644.279 1469.47 641.177 1472.69 Q638.075 1475.88 632.427 1481.64 Z" fill="#000000" fill-rule="nonzero" fill-opacity="1"></path><path clip-path="url(#clip950)" d="M1069.53 1455.09 L1057.72 1473.54 L1069.53 1473.54 L1069.53 1455.09 M1068.3 1451.02 L1074.18 1451.02 L1074.18 1473.54 L1079.11 1473.54 L1079.11 1477.43 L1074.18 1477.43 L1074.18 1485.58 L1069.53 1485.58 L1069.53 1477.43 L1053.93 1477.43 L1053.93 1472.92 L1068.3 1451.02 Z" fill="#000000" fill-rule="nonzero" fill-opacity="1"></path><path clip-path="url(#clip950)" d="M1495.67 1466.44 Q1492.52 1466.44 1490.67 1468.59 Q1488.84 1470.74 1488.84 1474.49 Q1488.84 1478.22 1490.67 1480.39 Q1492.52 1482.55 1495.67 1482.55 Q1498.82 1482.55 1500.65 1480.39 Q1502.5 1478.22 1502.5 1474.49 Q1502.5 1470.74 1500.65 1468.59 Q1498.82 1466.44 1495.67 1466.44 M1504.95 1451.78 L1504.95 1456.04 Q1503.19 1455.21 1501.39 1454.77 Q1499.61 1454.33 1497.85 1454.33 Q1493.22 1454.33 1490.76 1457.45 Q1488.33 1460.58 1487.98 1466.9 Q1489.35 1464.89 1491.41 1463.82 Q1493.47 1462.73 1495.95 1462.73 Q1501.16 1462.73 1504.17 1465.9 Q1507.2 1469.05 1507.2 1474.49 Q1507.2 1479.82 1504.05 1483.03 Q1500.9 1486.25 1495.67 1486.25 Q1489.67 1486.25 1486.5 1481.67 Q1483.33 1477.06 1483.33 1468.33 Q1483.33 1460.14 1487.22 1455.28 Q1491.11 1450.39 1497.66 1450.39 Q1499.42 1450.39 1501.2 1450.74 Q1503.01 1451.09 1504.95 1451.78 Z" fill="#000000" fill-rule="nonzero" fill-opacity="1"></path><path clip-path="url(#clip950)" d="M1924.01 1469.17 Q1920.68 1469.17 1918.76 1470.95 Q1916.86 1472.73 1916.86 1475.86 Q1916.86 1478.98 1918.76 1480.77 Q1920.68 1482.55 1924.01 1482.55 Q1927.34 1482.55 1929.27 1480.77 Q1931.19 1478.96 1931.19 1475.86 Q1931.19 1472.73 1929.27 1470.95 Q1927.37 1469.17 1924.01 1469.17 M1919.33 1467.18 Q1916.33 1466.44 1914.64 1464.38 Q1912.97 1462.32 1912.97 1459.35 Q1912.97 1455.21 1915.91 1452.8 Q1918.87 1450.39 1924.01 1450.39 Q1929.17 1450.39 1932.11 1452.8 Q1935.05 1455.21 1935.05 1459.35 Q1935.05 1462.32 1933.36 1464.38 Q1931.7 1466.44 1928.71 1467.18 Q1932.09 1467.96 1933.96 1470.26 Q1935.86 1472.55 1935.86 1475.86 Q1935.86 1480.88 1932.78 1483.57 Q1929.73 1486.25 1924.01 1486.25 Q1918.29 1486.25 1915.21 1483.57 Q1912.16 1480.88 1912.16 1475.86 Q1912.16 1472.55 1914.06 1470.26 Q1915.95 1467.96 1919.33 1467.18 M1917.62 1459.79 Q1917.62 1462.48 1919.29 1463.98 Q1920.98 1465.49 1924.01 1465.49 Q1927.02 1465.49 1928.71 1463.98 Q1930.42 1462.48 1930.42 1459.79 Q1930.42 1457.11 1928.71 1455.6 Q1927.02 1454.1 1924.01 1454.1 Q1920.98 1454.1 1919.29 1455.6 Q1917.62 1457.11 1917.62 1459.79 Z" fill="#000000" fill-rule="nonzero" fill-opacity="1"></path><path clip-path="url(#clip950)" d="M2327.44 1481.64 L2335.08 1481.64 L2335.08 1455.28 L2326.77 1456.95 L2326.77 1452.69 L2335.04 1451.02 L2339.71 1451.02 L2339.71 1481.64 L2347.35 1481.64 L2347.35 1485.58 L2327.44 1485.58 L2327.44 1481.64 Z" fill="#000000" fill-rule="nonzero" fill-opacity="1"></path><path clip-path="url(#clip950)" d="M2366.8 1454.1 Q2363.18 1454.1 2361.36 1457.66 Q2359.55 1461.2 2359.55 1468.33 Q2359.55 1475.44 2361.36 1479.01 Q2363.18 1482.55 2366.8 1482.55 Q2370.43 1482.55 2372.23 1479.01 Q2374.06 1475.44 2374.06 1468.33 Q2374.06 1461.2 2372.23 1457.66 Q2370.43 1454.1 2366.8 1454.1 M2366.8 1450.39 Q2372.61 1450.39 2375.66 1455 Q2378.74 1459.58 2378.74 1468.33 Q2378.74 1477.06 2375.66 1481.67 Q2372.61 1486.25 2366.8 1486.25 Q2360.99 1486.25 2357.91 1481.67 Q2354.85 1477.06 2354.85 1468.33 Q2354.85 1459.58 2357.91 1455 Q2360.99 1450.39 2366.8 1450.39 Z" fill="#000000" fill-rule="nonzero" fill-opacity="1"></path><path clip-path="url(#clip950)" d="M1279.95 1522.27 L1279.95 1532.4 L1292.02 1532.4 L1292.02 1536.95 L1279.95 1536.95 L1279.95 1556.3 Q1279.95 1560.66 1281.13 1561.9 Q1282.34 1563.14 1286 1563.14 L1292.02 1563.14 L1292.02 1568.04 L1286 1568.04 Q1279.22 1568.04 1276.64 1565.53 Q1274.06 1562.98 1274.06 1556.3 L1274.06 1536.95 L1269.77 1536.95 L1269.77 1532.4 L1274.06 1532.4 L1274.06 1522.27 L1279.95 1522.27 Z" fill="#000000" fill-rule="nonzero" fill-opacity="1"></path><polyline clip-path="url(#clip952)" style="stroke:#000000; stroke-linecap:round; stroke-linejoin:round; stroke-width:2; stroke-opacity:0.1; fill:none" points="209.029,1171.2 2352.76,1171.2 "></polyline>
<polyline clip-path="url(#clip952)" style="stroke:#000000; stroke-linecap:round; stroke-linejoin:round; stroke-width:2; stroke-opacity:0.1; fill:none" points="209.029,906.565 2352.76,906.565 "></polyline>
<polyline clip-path="url(#clip952)" style="stroke:#000000; stroke-linecap:round; stroke-linejoin:round; stroke-width:2; stroke-opacity:0.1; fill:none" points="209.029,641.927 2352.76,641.927 "></polyline>
<polyline clip-path="url(#clip952)" style="stroke:#000000; stroke-linecap:round; stroke-linejoin:round; stroke-width:2; stroke-opacity:0.1; fill:none" points="209.029,377.288 2352.76,377.288 "></polyline>
<polyline clip-path="url(#clip952)" style="stroke:#000000; stroke-linecap:round; stroke-linejoin:round; stroke-width:2; stroke-opacity:0.1; fill:none" points="209.029,112.65 2352.76,112.65 "></polyline>
<polyline clip-path="url(#clip950)" style="stroke:#000000; stroke-linecap:round; stroke-linejoin:round; stroke-width:4; stroke-opacity:1; fill:none" points="209.029,1423.18 209.029,47.2441 "></polyline>
<polyline clip-path="url(#clip950)" style="stroke:#000000; stroke-linecap:round; stroke-linejoin:round; stroke-width:4; stroke-opacity:1; fill:none" points="209.029,1171.2 227.926,1171.2 "></polyline>
<polyline clip-path="url(#clip950)" style="stroke:#000000; stroke-linecap:round; stroke-linejoin:round; stroke-width:4; stroke-opacity:1; fill:none" points="209.029,906.565 227.926,906.565 "></polyline>
<polyline clip-path="url(#clip950)" style="stroke:#000000; stroke-linecap:round; stroke-linejoin:round; stroke-width:4; stroke-opacity:1; fill:none" points="209.029,641.927 227.926,641.927 "></polyline>
<polyline clip-path="url(#clip950)" style="stroke:#000000; stroke-linecap:round; stroke-linejoin:round; stroke-width:4; stroke-opacity:1; fill:none" points="209.029,377.288 227.926,377.288 "></polyline>
<polyline clip-path="url(#clip950)" style="stroke:#000000; stroke-linecap:round; stroke-linejoin:round; stroke-width:4; stroke-opacity:1; fill:none" points="209.029,112.65 227.926,112.65 "></polyline>
<path clip-path="url(#clip950)" d="M50.9921 1171.66 L80.6679 1171.66 L80.6679 1175.59 L50.9921 1175.59 L50.9921 1171.66 Z" fill="#000000" fill-rule="nonzero" fill-opacity="1"></path><path clip-path="url(#clip950)" d="M103.608 1158 L91.8021 1176.45 L103.608 1176.45 L103.608 1158 M102.381 1153.92 L108.26 1153.92 L108.26 1176.45 L113.191 1176.45 L113.191 1180.34 L108.26 1180.34 L108.26 1188.48 L103.608 1188.48 L103.608 1180.34 L88.0058 1180.34 L88.0058 1175.82 L102.381 1153.92 Z" fill="#000000" fill-rule="nonzero" fill-opacity="1"></path><path clip-path="url(#clip950)" d="M130.922 1157 Q127.311 1157 125.482 1160.57 Q123.677 1164.11 123.677 1171.24 Q123.677 1178.35 125.482 1181.91 Q127.311 1185.45 130.922 1185.45 Q134.556 1185.45 136.362 1181.91 Q138.191 1178.35 138.191 1171.24 Q138.191 1164.11 136.362 1160.57 Q134.556 1157 130.922 1157 M130.922 1153.3 Q136.732 1153.3 139.788 1157.91 Q142.867 1162.49 142.867 1171.24 Q142.867 1179.97 139.788 1184.57 Q136.732 1189.16 130.922 1189.16 Q125.112 1189.16 122.033 1184.57 Q118.978 1179.97 118.978 1171.24 Q118.978 1162.49 122.033 1157.91 Q125.112 1153.3 130.922 1153.3 Z" fill="#000000" fill-rule="nonzero" fill-opacity="1"></path><path clip-path="url(#clip950)" d="M161.084 1157 Q157.473 1157 155.644 1160.57 Q153.839 1164.11 153.839 1171.24 Q153.839 1178.35 155.644 1181.91 Q157.473 1185.45 161.084 1185.45 Q164.718 1185.45 166.524 1181.91 Q168.353 1178.35 168.353 1171.24 Q168.353 1164.11 166.524 1160.57 Q164.718 1157 161.084 1157 M161.084 1153.3 Q166.894 1153.3 169.95 1157.91 Q173.029 1162.49 173.029 1171.24 Q173.029 1179.97 169.95 1184.57 Q166.894 1189.16 161.084 1189.16 Q155.274 1189.16 152.195 1184.57 Q149.14 1179.97 149.14 1171.24 Q149.14 1162.49 152.195 1157.91 Q155.274 1153.3 161.084 1153.3 Z" fill="#000000" fill-rule="nonzero" fill-opacity="1"></path><path clip-path="url(#clip950)" d="M50.9921 907.017 L80.6679 907.017 L80.6679 910.952 L50.9921 910.952 L50.9921 907.017 Z" fill="#000000" fill-rule="nonzero" fill-opacity="1"></path><path clip-path="url(#clip950)" d="M104.927 905.211 Q108.283 905.929 110.158 908.197 Q112.057 910.466 112.057 913.799 Q112.057 918.915 108.538 921.716 Q105.02 924.517 98.5382 924.517 Q96.3623 924.517 94.0475 924.077 Q91.7558 923.66 89.3021 922.804 L89.3021 918.29 Q91.2465 919.424 93.5613 920.003 Q95.8761 920.582 98.3993 920.582 Q102.797 920.582 105.089 918.846 Q107.404 917.109 107.404 913.799 Q107.404 910.744 105.251 909.031 Q103.121 907.295 99.3021 907.295 L95.2743 907.295 L95.2743 903.452 L99.4872 903.452 Q102.936 903.452 104.765 902.086 Q106.594 900.697 106.594 898.105 Q106.594 895.443 104.696 894.031 Q102.821 892.596 99.3021 892.596 Q97.3808 892.596 95.1817 893.012 Q92.9826 893.429 90.3438 894.309 L90.3438 890.142 Q93.0058 889.401 95.3206 889.031 Q97.6585 888.66 99.7187 888.66 Q105.043 888.66 108.145 891.091 Q111.246 893.498 111.246 897.619 Q111.246 900.489 109.603 902.48 Q107.959 904.447 104.927 905.211 Z" fill="#000000" fill-rule="nonzero" fill-opacity="1"></path><path clip-path="url(#clip950)" d="M130.922 892.364 Q127.311 892.364 125.482 895.929 Q123.677 899.471 123.677 906.6 Q123.677 913.707 125.482 917.271 Q127.311 920.813 130.922 920.813 Q134.556 920.813 136.362 917.271 Q138.191 913.707 138.191 906.6 Q138.191 899.471 136.362 895.929 Q134.556 892.364 130.922 892.364 M130.922 888.66 Q136.732 888.66 139.788 893.267 Q142.867 897.85 142.867 906.6 Q142.867 915.327 139.788 919.933 Q136.732 924.517 130.922 924.517 Q125.112 924.517 122.033 919.933 Q118.978 915.327 118.978 906.6 Q118.978 897.85 122.033 893.267 Q125.112 888.66 130.922 888.66 Z" fill="#000000" fill-rule="nonzero" fill-opacity="1"></path><path clip-path="url(#clip950)" d="M161.084 892.364 Q157.473 892.364 155.644 895.929 Q153.839 899.471 153.839 906.6 Q153.839 913.707 155.644 917.271 Q157.473 920.813 161.084 920.813 Q164.718 920.813 166.524 917.271 Q168.353 913.707 168.353 906.6 Q168.353 899.471 166.524 895.929 Q164.718 892.364 161.084 892.364 M161.084 888.66 Q166.894 888.66 169.95 893.267 Q173.029 897.85 173.029 906.6 Q173.029 915.327 169.95 919.933 Q166.894 924.517 161.084 924.517 Q155.274 924.517 152.195 919.933 Q149.14 915.327 149.14 906.6 Q149.14 897.85 152.195 893.267 Q155.274 888.66 161.084 888.66 Z" fill="#000000" fill-rule="nonzero" fill-opacity="1"></path><path clip-path="url(#clip950)" d="M50.9921 642.378 L80.6679 642.378 L80.6679 646.313 L50.9921 646.313 L50.9921 642.378 Z" fill="#000000" fill-rule="nonzero" fill-opacity="1"></path><path clip-path="url(#clip950)" d="M94.7882 655.272 L111.108 655.272 L111.108 659.207 L89.1632 659.207 L89.1632 655.272 Q91.8252 652.517 96.4085 647.887 Q101.015 643.235 102.196 641.892 Q104.441 639.369 105.321 637.633 Q106.223 635.874 106.223 634.184 Q106.223 631.429 104.279 629.693 Q102.358 627.957 99.2558 627.957 Q97.0567 627.957 94.603 628.721 Q92.1725 629.485 89.3947 631.036 L89.3947 626.314 Q92.2188 625.179 94.6724 624.601 Q97.1261 624.022 99.1632 624.022 Q104.534 624.022 107.728 626.707 Q110.922 629.392 110.922 633.883 Q110.922 636.013 110.112 637.934 Q109.325 639.832 107.219 642.425 Q106.64 643.096 103.538 646.313 Q100.436 649.508 94.7882 655.272 Z" fill="#000000" fill-rule="nonzero" fill-opacity="1"></path><path clip-path="url(#clip950)" d="M130.922 627.726 Q127.311 627.726 125.482 631.29 Q123.677 634.832 123.677 641.962 Q123.677 649.068 125.482 652.633 Q127.311 656.174 130.922 656.174 Q134.556 656.174 136.362 652.633 Q138.191 649.068 138.191 641.962 Q138.191 634.832 136.362 631.29 Q134.556 627.726 130.922 627.726 M130.922 624.022 Q136.732 624.022 139.788 628.628 Q142.867 633.212 142.867 641.962 Q142.867 650.688 139.788 655.295 Q136.732 659.878 130.922 659.878 Q125.112 659.878 122.033 655.295 Q118.978 650.688 118.978 641.962 Q118.978 633.212 122.033 628.628 Q125.112 624.022 130.922 624.022 Z" fill="#000000" fill-rule="nonzero" fill-opacity="1"></path><path clip-path="url(#clip950)" d="M161.084 627.726 Q157.473 627.726 155.644 631.29 Q153.839 634.832 153.839 641.962 Q153.839 649.068 155.644 652.633 Q157.473 656.174 161.084 656.174 Q164.718 656.174 166.524 652.633 Q168.353 649.068 168.353 641.962 Q168.353 634.832 166.524 631.29 Q164.718 627.726 161.084 627.726 M161.084 624.022 Q166.894 624.022 169.95 628.628 Q173.029 633.212 173.029 641.962 Q173.029 650.688 169.95 655.295 Q166.894 659.878 161.084 659.878 Q155.274 659.878 152.195 655.295 Q149.14 650.688 149.14 641.962 Q149.14 633.212 152.195 628.628 Q155.274 624.022 161.084 624.022 Z" fill="#000000" fill-rule="nonzero" fill-opacity="1"></path><path clip-path="url(#clip950)" d="M50.9921 377.74 L80.6679 377.74 L80.6679 381.675 L50.9921 381.675 L50.9921 377.74 Z" fill="#000000" fill-rule="nonzero" fill-opacity="1"></path><path clip-path="url(#clip950)" d="M91.5706 390.633 L99.2095 390.633 L99.2095 364.267 L90.8993 365.934 L90.8993 361.675 L99.1632 360.008 L103.839 360.008 L103.839 390.633 L111.478 390.633 L111.478 394.568 L91.5706 394.568 L91.5706 390.633 Z" fill="#000000" fill-rule="nonzero" fill-opacity="1"></path><path clip-path="url(#clip950)" d="M130.922 363.087 Q127.311 363.087 125.482 366.652 Q123.677 370.193 123.677 377.323 Q123.677 384.429 125.482 387.994 Q127.311 391.536 130.922 391.536 Q134.556 391.536 136.362 387.994 Q138.191 384.429 138.191 377.323 Q138.191 370.193 136.362 366.652 Q134.556 363.087 130.922 363.087 M130.922 359.383 Q136.732 359.383 139.788 363.99 Q142.867 368.573 142.867 377.323 Q142.867 386.05 139.788 390.656 Q136.732 395.239 130.922 395.239 Q125.112 395.239 122.033 390.656 Q118.978 386.05 118.978 377.323 Q118.978 368.573 122.033 363.99 Q125.112 359.383 130.922 359.383 Z" fill="#000000" fill-rule="nonzero" fill-opacity="1"></path><path clip-path="url(#clip950)" d="M161.084 363.087 Q157.473 363.087 155.644 366.652 Q153.839 370.193 153.839 377.323 Q153.839 384.429 155.644 387.994 Q157.473 391.536 161.084 391.536 Q164.718 391.536 166.524 387.994 Q168.353 384.429 168.353 377.323 Q168.353 370.193 166.524 366.652 Q164.718 363.087 161.084 363.087 M161.084 359.383 Q166.894 359.383 169.95 363.99 Q173.029 368.573 173.029 377.323 Q173.029 386.05 169.95 390.656 Q166.894 395.239 161.084 395.239 Q155.274 395.239 152.195 390.656 Q149.14 386.05 149.14 377.323 Q149.14 368.573 152.195 363.99 Q155.274 359.383 161.084 359.383 Z" fill="#000000" fill-rule="nonzero" fill-opacity="1"></path><path clip-path="url(#clip950)" d="M161.084 98.4482 Q157.473 98.4482 155.644 102.013 Q153.839 105.555 153.839 112.684 Q153.839 119.791 155.644 123.355 Q157.473 126.897 161.084 126.897 Q164.718 126.897 166.524 123.355 Q168.353 119.791 168.353 112.684 Q168.353 105.555 166.524 102.013 Q164.718 98.4482 161.084 98.4482 M161.084 94.7445 Q166.894 94.7445 169.95 99.351 Q173.029 103.934 173.029 112.684 Q173.029 121.411 169.95 126.018 Q166.894 130.601 161.084 130.601 Q155.274 130.601 152.195 126.018 Q149.14 121.411 149.14 112.684 Q149.14 103.934 152.195 99.351 Q155.274 94.7445 161.084 94.7445 Z" fill="#000000" fill-rule="nonzero" fill-opacity="1"></path><polyline clip-path="url(#clip952)" style="stroke:#009af9; stroke-linecap:round; stroke-linejoin:round; stroke-width:4; stroke-opacity:1; fill:none" points="209.029,86.1857 211.174,86.187 213.32,86.1909 215.466,86.1974 217.612,86.2065 219.758,86.2182 221.904,86.2325 224.05,86.2494 226.195,86.2689 228.341,86.291 230.487,86.3157 232.633,86.3431 234.779,86.373 236.925,86.4055 239.071,86.4406 241.217,86.4783 243.362,86.5186 245.508,86.5616 247.654,86.6071 249.8,86.6552 251.946,86.7059 254.092,86.7593 256.238,86.8152 258.384,86.8737 260.529,86.9348 262.675,86.9986 264.821,87.0649 266.967,87.1338 269.113,87.2054 271.259,87.2795 273.405,87.3563 275.551,87.4356 277.696,87.5175 279.842,87.6021 281.988,87.6892 284.134,87.779 286.28,87.8713 288.426,87.9663 290.572,88.0638 292.718,88.164 294.863,88.2667 297.009,88.3721 299.155,88.48 301.301,88.5906 303.447,88.7037 305.593,88.8195 307.739,88.9379 309.885,89.0588 312.03,89.1824 314.176,89.3085 316.322,89.4373 318.468,89.5687 320.614,89.7026 322.76,89.8392 324.906,89.9784 327.052,90.1201 329.197,90.2645 331.343,90.4115 333.489,90.5611 335.635,90.7132 337.781,90.868 339.927,91.0254 342.073,91.1854 344.219,91.348 346.364,91.5131 348.51,91.6809 350.656,91.8513 352.802,92.0243 354.948,92.1999 357.094,92.3781 359.24,92.5589 361.386,92.7423 363.531,92.9283 365.677,93.1168 367.823,93.308 369.969,93.5018 372.115,93.6982 374.261,93.8972 376.407,94.0988 378.552,94.303 380.698,94.5098 382.844,94.7193 384.99,94.9313 387.136,95.1459 389.282,95.3631 391.428,95.5829 393.574,95.8053 395.719,96.0303 397.865,96.2579 400.011,96.4881 402.157,96.721 404.303,96.9564 406.449,97.1944 408.595,97.435 410.741,97.6782 412.886,97.9241 415.032,98.1725 417.178,98.4235 419.324,98.6771 421.47,98.9334 423.616,99.1922 425.762,99.4536 427.908,99.7177 430.053,99.9843 432.199,100.254 434.345,100.525 436.491,100.8 438.637,101.077 440.783,101.356 442.929,101.639 445.075,101.924 447.22,102.211 449.366,102.501 451.512,102.794 453.658,103.089 455.804,103.387 457.95,103.687 460.096,103.99 462.242,104.296 464.387,104.604 466.533,104.915 468.679,105.229 470.825,105.545 472.971,105.863 475.117,106.185 477.263,106.508 479.409,106.835 481.554,107.164 483.7,107.496 485.846,107.83 487.992,108.167 490.138,108.506 492.284,108.848 494.43,109.193 496.576,109.54 498.721,109.89 500.867,110.243 503.013,110.598 505.159,110.955 507.305,111.316 509.451,111.678 511.597,112.044 513.743,112.412 515.888,112.783 518.034,113.156 520.18,113.532 522.326,113.91 524.472,114.291 526.618,114.675 528.764,115.061 530.909,115.45 533.055,115.842 535.201,116.236 537.347,116.633 539.493,117.032 541.639,117.434 543.785,117.838 545.931,118.245 548.076,118.655 550.222,119.067 552.368,119.482 554.514,119.9 556.66,120.32 558.806,120.743 560.952,121.168 563.098,121.596 565.243,122.026 567.389,122.46 569.535,122.895 571.681,123.334 573.827,123.775 575.973,124.218 578.119,124.664 580.265,125.113 582.41,125.564 584.556,126.018 586.702,126.475 588.848,126.934 590.994,127.396 593.14,127.86 595.286,128.327 597.432,128.796 599.577,129.268 601.723,129.743 603.869,130.221 606.015,130.701 608.161,131.183 610.307,131.668 612.453,132.156 614.599,132.646 616.744,133.139 618.89,133.635 621.036,134.133 623.182,134.634 625.328,135.137 627.474,135.643 629.62,136.152 631.766,136.663 633.911,137.176 636.057,137.693 638.203,138.212 640.349,138.733 642.495,139.258 644.641,139.784 646.787,140.314 648.933,140.846 651.078,141.38 653.224,141.917 655.37,142.457 657.516,142.999 659.662,143.544 661.808,144.092 663.954,144.642 666.1,145.195 668.245,145.75 670.391,146.308 672.537,146.869 674.683,147.432 676.829,147.998 678.975,148.566 681.121,149.137 683.267,149.711 685.412,150.287 687.558,150.866 689.704,151.447 691.85,152.031 693.996,152.618 696.142,153.207 698.288,153.799 700.433,154.393 702.579,154.99 704.725,155.59 706.871,156.192 709.017,156.797 711.163,157.404 713.309,158.014 715.455,158.627 717.6,159.242 719.746,159.86 721.892,160.48 724.038,161.103 726.184,161.729 728.33,162.357 730.476,162.988 732.622,163.621 734.767,164.257 736.913,164.896 739.059,165.537 741.205,166.181 743.351,166.827 745.497,167.476 747.643,168.128 749.789,168.782 751.934,169.439 754.08,170.099 756.226,170.761 758.372,171.425 760.518,172.092 762.664,172.762 764.81,173.435 766.956,174.11 769.101,174.787 771.247,175.468 773.393,176.151 775.539,176.836 777.685,177.524 779.831,178.215 781.977,178.908 784.123,179.604 786.268,180.302 788.414,181.003 790.56,181.707 792.706,182.413 794.852,183.122 796.998,183.833 799.144,184.548 801.29,185.264 803.435,185.983 805.581,186.705 807.727,187.43 809.873,188.157 812.019,188.887 814.165,189.619 816.311,190.354 818.457,191.091 820.602,191.831 822.748,192.574 824.894,193.319 827.04,194.067 829.186,194.817 831.332,195.571 833.478,196.326 835.624,197.085 837.769,197.845 839.915,198.609 842.061,199.375 844.207,200.144 846.353,200.915 848.499,201.689 850.645,202.465 852.79,203.244 854.936,204.026 857.082,204.81 859.228,205.597 861.374,206.387 863.52,207.179 865.666,207.974 867.812,208.771 869.957,209.571 872.103,210.373 874.249,211.178 876.395,211.986 878.541,212.796 880.687,213.609 882.833,214.425 884.979,215.243 887.124,216.064 889.27,216.887 891.416,217.713 893.562,218.541 895.708,219.372 897.854,220.206 900,221.043 902.146,221.881 904.291,222.723 906.437,223.567 908.583,224.414 910.729,225.263 912.875,226.115 915.021,226.97 917.167,227.827 919.313,228.686 921.458,229.549 923.604,230.414 925.75,231.281 927.896,232.151 930.042,233.024 932.188,233.899 934.334,234.777 936.48,235.658 938.625,236.541 940.771,237.427 942.917,238.315 945.063,239.206 947.209,240.1 949.355,240.996 951.501,241.895 953.647,242.796 955.792,243.7 957.938,244.606 960.084,245.516 962.23,246.427 964.376,247.342 966.522,248.259 968.668,249.178 970.814,250.1 972.959,251.025 975.105,251.953 977.251,252.883 979.397,253.815 981.543,254.75 983.689,255.688 985.835,256.628 987.981,257.571 990.126,258.517 992.272,259.465 994.418,260.416 996.564,261.369 998.71,262.325 1000.86,263.284 1003,264.245 1005.15,265.209 1007.29,266.175 1009.44,267.144 1011.59,268.116 1013.73,269.09 1015.88,270.067 1018.02,271.046 1020.17,272.028 1022.31,273.013 1024.46,274 1026.61,274.99 1028.75,275.982 1030.9,276.977 1033.04,277.975 1035.19,278.975 1037.34,279.978 1039.48,280.983 1041.63,281.991 1043.77,283.002 1045.92,284.015 1048.06,285.031 1050.21,286.049 1052.36,287.07 1054.5,288.094 1056.65,289.12 1058.79,290.149 1060.94,291.18 1063.09,292.214 1065.23,293.251 1067.38,294.29 1069.52,295.332 1071.67,296.376 1073.82,297.423 1075.96,298.473 1078.11,299.525 1080.25,300.58 1082.4,301.637 1084.54,302.698 1086.69,303.76 1088.84,304.825 1090.98,305.893 1093.13,306.964 1095.27,308.037 1097.42,309.112 1099.57,310.191 1101.71,311.271 1103.86,312.355 1106,313.441 1108.15,314.53 1110.3,315.621 1112.44,316.715 1114.59,317.811 1116.73,318.91 1118.88,320.012 1121.02,321.116 1123.17,322.223 1125.32,323.332 1127.46,324.444 1129.61,325.559 1131.75,326.676 1133.9,327.796 1136.05,328.919 1138.19,330.044 1140.34,331.171 1142.48,332.302 1144.63,333.435 1146.78,334.57 1148.92,335.708 1151.07,336.849 1153.21,337.992 1155.36,339.138 1157.5,340.286 1159.65,341.437 1161.8,342.591 1163.94,343.747 1166.09,344.906 1168.23,346.068 1170.38,347.232 1172.53,348.399 1174.67,349.568 1176.82,350.74 1178.96,351.914 1181.11,353.091 1183.25,354.271 1185.4,355.453 1187.55,356.638 1189.69,357.826 1191.84,359.016 1193.98,360.208 1196.13,361.404 1198.28,362.602 1200.42,363.802 1202.57,365.005 1204.71,366.211 1206.86,367.419 1209.01,368.63 1211.15,369.844 1213.3,371.06 1215.44,372.279 1217.59,373.5 1219.73,374.724 1221.88,375.95 1224.03,377.179 1226.17,378.411 1228.32,379.645 1230.46,380.882 1232.61,382.122 1234.76,383.364 1236.9,384.609 1239.05,385.856 1241.19,387.106 1243.34,388.358 1245.49,389.614 1247.63,390.871 1249.78,392.132 1251.92,393.395 1254.07,394.66 1256.21,395.928 1258.36,397.199 1260.51,398.472 1262.65,399.748 1264.8,401.027 1266.94,402.308 1269.09,403.592 1271.24,404.878 1273.38,406.167 1275.53,407.459 1277.67,408.753 1279.82,410.049 1281.97,411.349 1284.11,412.651 1286.26,413.955 1288.4,415.262 1290.55,416.572 1292.69,417.885 1294.84,419.2 1296.99,420.517 1299.13,421.837 1301.28,423.16 1303.42,424.485 1305.57,425.813 1307.72,427.144 1309.86,428.477 1312.01,429.813 1314.15,431.151 1316.3,432.492 1318.44,433.836 1320.59,435.182 1322.74,436.531 1324.88,437.882 1327.03,439.236 1329.17,440.593 1331.32,441.952 1333.47,443.314 1335.61,444.678 1337.76,446.045 1339.9,447.415 1342.05,448.787 1344.2,450.162 1346.34,451.539 1348.49,452.919 1350.63,454.302 1352.78,455.687 1354.92,457.075 1357.07,458.465 1359.22,459.858 1361.36,461.254 1363.51,462.652 1365.65,464.053 1367.8,465.456 1369.95,466.862 1372.09,468.271 1374.24,469.682 1376.38,471.096 1378.53,472.512 1380.68,473.931 1382.82,475.353 1384.97,476.777 1387.11,478.204 1389.26,479.633 1391.4,481.065 1393.55,482.5 1395.7,483.937 1397.84,485.377 1399.99,486.819 1402.13,488.264 1404.28,489.712 1406.43,491.162 1408.57,492.615 1410.72,494.07 1412.86,495.528 1415.01,496.989 1417.16,498.452 1419.3,499.918 1421.45,501.386 1423.59,502.858 1425.74,504.331 1427.88,505.807 1430.03,507.286 1432.18,508.768 1434.32,510.252 1436.47,511.738 1438.61,513.228 1440.76,514.719 1442.91,516.214 1445.05,517.711 1447.2,519.211 1449.34,520.713 1451.49,522.218 1453.64,523.725 1455.78,525.235 1457.93,526.748 1460.07,528.263 1462.22,529.781 1464.36,531.302 1466.51,532.825 1468.66,534.35 1470.8,535.879 1472.95,537.409 1475.09,538.943 1477.24,540.479 1479.39,542.018 1481.53,543.559 1483.68,545.103 1485.82,546.649 1487.97,548.198 1490.11,549.75 1492.26,551.304 1494.41,552.861 1496.55,554.421 1498.7,555.983 1500.84,557.547 1502.99,559.115 1505.14,560.685 1507.28,562.257 1509.43,563.832 1511.57,565.41 1513.72,566.99 1515.87,568.573 1518.01,570.159 1520.16,571.747 1522.3,573.337 1524.45,574.931 1526.59,576.526 1528.74,578.125 1530.89,579.726 1533.03,581.33 1535.18,582.936 1537.32,584.545 1539.47,586.157 1541.62,587.771 1543.76,589.387 1545.91,591.007 1548.05,592.629 1550.2,594.253 1552.35,595.88 1554.49,597.51 1556.64,599.142 1558.78,600.777 1560.93,602.415 1563.07,604.055 1565.22,605.698 1567.37,607.343 1569.51,608.991 1571.66,610.641 1573.8,612.294 1575.95,613.95 1578.1,615.609 1580.24,617.269 1582.39,618.933 1584.53,620.599 1586.68,622.268 1588.83,623.939 1590.97,625.613 1593.12,627.29 1595.26,628.969 1597.41,630.651 1599.55,632.335 1601.7,634.022 1603.85,635.711 1605.99,637.404 1608.14,639.098 1610.28,640.796 1612.43,642.496 1614.58,644.198 1616.72,645.903 1618.87,647.611 1621.01,649.321 1623.16,651.034 1625.3,652.75 1627.45,654.468 1629.6,656.189 1631.74,657.912 1633.89,659.638 1636.03,661.367 1638.18,663.098 1640.33,664.832 1642.47,666.568 1644.62,668.307 1646.76,670.049 1648.91,671.793 1651.06,673.54 1653.2,675.289 1655.35,677.041 1657.49,678.796 1659.64,680.553 1661.78,682.312 1663.93,684.075 1666.08,685.84 1668.22,687.607 1670.37,689.378 1672.51,691.15 1674.66,692.926 1676.81,694.704 1678.95,696.484 1681.1,698.268 1683.24,700.053 1685.39,701.842 1687.54,703.633 1689.68,705.426 1691.83,707.223 1693.97,709.021 1696.12,710.823 1698.26,712.627 1700.41,714.433 1702.56,716.243 1704.7,718.054 1706.85,719.869 1708.99,721.686 1711.14,723.505 1713.29,725.328 1715.43,727.152 1717.58,728.98 1719.72,730.81 1721.87,732.643 1724.02,734.478 1726.16,736.316 1728.31,738.156 1730.45,739.999 1732.6,741.845 1734.74,743.693 1736.89,745.544 1739.04,747.397 1741.18,749.253 1743.33,751.112 1745.47,752.973 1747.62,754.837 1749.77,756.703 1751.91,758.572 1754.06,760.444 1756.2,762.318 1758.35,764.195 1760.49,766.075 1762.64,767.957 1764.79,769.841 1766.93,771.728 1769.08,773.618 1771.22,775.511 1773.37,777.406 1775.52,779.303 1777.66,781.204 1779.81,783.107 1781.95,785.012 1784.1,786.92 1786.25,788.831 1788.39,790.744 1790.54,792.66 1792.68,794.578 1794.83,796.499 1796.97,798.423 1799.12,800.349 1801.27,802.278 1803.41,804.21 1805.56,806.144 1807.7,808.08 1809.85,810.02 1812,811.962 1814.14,813.906 1816.29,815.853 1818.43,817.803 1820.58,819.755 1822.73,821.71 1824.87,823.667 1827.02,825.627 1829.16,827.59 1831.31,829.555 1833.45,831.523 1835.6,833.494 1837.75,835.467 1839.89,837.443 1842.04,839.421 1844.18,841.402 1846.33,843.385 1848.48,845.371 1850.62,847.36 1852.77,849.351 1854.91,851.345 1857.06,853.342 1859.21,855.341 1861.35,857.343 1863.5,859.347 1865.64,861.354 1867.79,863.363 1869.93,865.375 1872.08,867.39 1874.23,869.407 1876.37,871.427 1878.52,873.45 1880.66,875.475 1882.81,877.503 1884.96,879.533 1887.1,881.566 1889.25,883.601 1891.39,885.64 1893.54,887.68 1895.68,889.724 1897.83,891.77 1899.98,893.818 1902.12,895.869 1904.27,897.923 1906.41,899.979 1908.56,902.038 1910.71,904.1 1912.85,906.164 1915,908.231 1917.14,910.3 1919.29,912.372 1921.44,914.446 1923.58,916.524 1925.73,918.603 1927.87,920.686 1930.02,922.771 1932.16,924.858 1934.31,926.948 1936.46,929.041 1938.6,931.136 1940.75,933.234 1942.89,935.335 1945.04,937.438 1947.19,939.544 1949.33,941.652 1951.48,943.763 1953.62,945.877 1955.77,947.993 1957.92,950.112 1960.06,952.233 1962.21,954.357 1964.35,956.484 1966.5,958.613 1968.64,960.744 1970.79,962.879 1972.94,965.016 1975.08,967.155 1977.23,969.298 1979.37,971.442 1981.52,973.59 1983.67,975.74 1985.81,977.892 1987.96,980.047 1990.1,982.205 1992.25,984.366 1994.4,986.529 1996.54,988.694 1998.69,990.862 2000.83,993.033 2002.98,995.207 2005.12,997.383 2007.27,999.561 2009.42,1001.74 2011.56,1003.93 2013.71,1006.11 2015.85,1008.3 2018,1010.49 2020.15,1012.69 2022.29,1014.88 2024.44,1017.08 2026.58,1019.29 2028.73,1021.49 2030.87,1023.7 2033.02,1025.91 2035.17,1028.12 2037.31,1030.33 2039.46,1032.55 2041.6,1034.77 2043.75,1037 2045.9,1039.22 2048.04,1041.45 2050.19,1043.68 2052.33,1045.91 2054.48,1048.15 2056.63,1050.39 2058.77,1052.63 2060.92,1054.87 2063.06,1057.12 2065.21,1059.37 2067.35,1061.62 2069.5,1063.87 2071.65,1066.13 2073.79,1068.39 2075.94,1070.65 2078.08,1072.91 2080.23,1075.18 2082.38,1077.45 2084.52,1079.72 2086.67,1082 2088.81,1084.28 2090.96,1086.56 2093.11,1088.84 2095.25,1091.12 2097.4,1093.41 2099.54,1095.7 2101.69,1097.99 2103.83,1100.29 2105.98,1102.59 2108.13,1104.89 2110.27,1107.19 2112.42,1109.5 2114.56,1111.81 2116.71,1114.12 2118.86,1116.43 2121,1118.75 2123.15,1121.07 2125.29,1123.39 2127.44,1125.71 2129.59,1128.04 2131.73,1130.37 2133.88,1132.7 2136.02,1135.04 2138.17,1137.37 2140.31,1139.71 2142.46,1142.06 2144.61,1144.4 2146.75,1146.75 2148.9,1149.1 2151.04,1151.45 2153.19,1153.81 2155.34,1156.17 2157.48,1158.53 2159.63,1160.89 2161.77,1163.26 2163.92,1165.62 2166.06,1168 2168.21,1170.37 2170.36,1172.75 2172.5,1175.12 2174.65,1177.51 2176.79,1179.89 2178.94,1182.28 2181.09,1184.67 2183.23,1187.06 2185.38,1189.45 2187.52,1191.85 2189.67,1194.25 2191.82,1196.65 2193.96,1199.06 2196.11,1201.46 2198.25,1203.87 2200.4,1206.29 2202.54,1208.7 2204.69,1211.12 2206.84,1213.54 2208.98,1215.96 2211.13,1218.39 2213.27,1220.82 2215.42,1223.25 2217.57,1225.68 2219.71,1228.12 2221.86,1230.56 2224,1233 2226.15,1235.44 2228.3,1237.89 2230.44,1240.34 2232.59,1242.79 2234.73,1245.24 2236.88,1247.7 2239.02,1250.16 2241.17,1252.62 2243.32,1255.09 2245.46,1257.55 2247.61,1260.02 2249.75,1262.5 2251.9,1264.97 2254.05,1267.45 2256.19,1269.93 2258.34,1272.41 2260.48,1274.9 2262.63,1277.39 2264.78,1279.88 2266.92,1282.37 2269.07,1284.87 2271.21,1287.37 2273.36,1289.87 2275.5,1292.37 2277.65,1294.88 2279.8,1297.39 2281.94,1299.9 2284.09,1302.41 2286.23,1304.93 2288.38,1307.45 2290.53,1309.97 2292.67,1312.49 2294.82,1315.02 2296.96,1317.55 2299.11,1320.08 2301.25,1322.62 2303.4,1325.16 2305.55,1327.7 2307.69,1330.24 2309.84,1332.78 2311.98,1335.33 2314.13,1337.88 2316.28,1340.44 2318.42,1342.99 2320.57,1345.55 2322.71,1348.11 2324.86,1350.67 2327.01,1353.24 2329.15,1355.81 2331.3,1358.38 2333.44,1360.96 2335.59,1363.53 2337.73,1366.11 2339.88,1368.69 2342.03,1371.28 2344.17,1373.86 2346.32,1376.45 2348.46,1379.05 2350.61,1381.64 2352.76,1384.24 "></polyline>
<path clip-path="url(#clip950)" d="M1989.68 196.789 L2281.3 196.789 L2281.3 93.1086 L1989.68 93.1086  Z" fill="#ffffff" fill-rule="evenodd" fill-opacity="1"></path>
<polyline clip-path="url(#clip950)" style="stroke:#000000; stroke-linecap:round; stroke-linejoin:round; stroke-width:4; stroke-opacity:1; fill:none" points="1989.68,196.789 2281.3,196.789 2281.3,93.1086 1989.68,93.1086 1989.68,196.789 "></polyline>
<polyline clip-path="url(#clip950)" style="stroke:#009af9; stroke-linecap:round; stroke-linejoin:round; stroke-width:4; stroke-opacity:1; fill:none" points="2013.5,144.949 2156.41,144.949 "></polyline>
<path clip-path="url(#clip950)" d="M2201.95 146.581 L2201.95 162.229 L2197.69 162.229 L2197.69 146.719 Q2197.69 143.039 2196.25 141.21 Q2194.82 139.382 2191.95 139.382 Q2188.5 139.382 2186.51 141.581 Q2184.52 143.78 2184.52 147.576 L2184.52 162.229 L2180.23 162.229 L2180.23 126.21 L2184.52 126.21 L2184.52 140.331 Q2186.04 137.993 2188.1 136.835 Q2190.19 135.678 2192.9 135.678 Q2197.36 135.678 2199.66 138.456 Q2201.95 141.21 2201.95 146.581 Z" fill="#000000" fill-rule="nonzero" fill-opacity="1"></path><path clip-path="url(#clip950)" d="M2220.67 126.257 Q2217.57 131.581 2216.07 136.789 Q2214.56 141.997 2214.56 147.344 Q2214.56 152.692 2216.07 157.946 Q2217.6 163.178 2220.67 168.479 L2216.97 168.479 Q2213.5 163.039 2211.76 157.784 Q2210.05 152.53 2210.05 147.344 Q2210.05 142.182 2211.76 136.951 Q2213.47 131.72 2216.97 126.257 L2220.67 126.257 Z" fill="#000000" fill-rule="nonzero" fill-opacity="1"></path><path clip-path="url(#clip950)" d="M2233.15 128.942 L2233.15 136.303 L2241.92 136.303 L2241.92 139.613 L2233.15 139.613 L2233.15 153.687 Q2233.15 156.858 2234.01 157.761 Q2234.89 158.664 2237.55 158.664 L2241.92 158.664 L2241.92 162.229 L2237.55 162.229 Q2232.62 162.229 2230.74 160.4 Q2228.87 158.548 2228.87 153.687 L2228.87 139.613 L2225.74 139.613 L2225.74 136.303 L2228.87 136.303 L2228.87 128.942 L2233.15 128.942 Z" fill="#000000" fill-rule="nonzero" fill-opacity="1"></path><path clip-path="url(#clip950)" d="M2246.85 126.257 L2250.56 126.257 Q2254.03 131.72 2255.74 136.951 Q2257.48 142.182 2257.48 147.344 Q2257.48 152.53 2255.74 157.784 Q2254.03 163.039 2250.56 168.479 L2246.85 168.479 Q2249.93 163.178 2251.44 157.946 Q2252.97 152.692 2252.97 147.344 Q2252.97 141.997 2251.44 136.789 Q2249.93 131.581 2246.85 126.257 Z" fill="#000000" fill-rule="nonzero" fill-opacity="1"></path></svg>