<svg xmlns="http://www.w3.org/2000/svg" xmlns:xlink="http://www.w3.org/1999/xlink" width="600" height="400" viewBox="0 0 2400 1600">
<defs>
  <clipPath id="clip690">
    <rect x="0" y="0" width="2400" height="1600"></rect>
  </clipPath>
</defs>
<path clip-path="url(#clip690)" d="M0 1600 L2400 1600 L2400 0 L0 0  Z" fill="#ffffff" fill-rule="evenodd" fill-opacity="1"></path>
<defs>
  <clipPath id="clip691">
    <rect x="480" y="0" width="1681" height="1600"></rect>
  </clipPath>
</defs>
<path clip-path="url(#clip690)" d="M140.696 1423.18 L2352.76 1423.18 L2352.76 47.2441 L140.696 47.2441  Z" fill="#ffffff" fill-rule="evenodd" fill-opacity="1"></path>
<defs>
  <clipPath id="clip692">
    <rect x="140" y="47" width="2213" height="1377"></rect>
  </clipPath>
</defs>
<polyline clip-path="url(#clip692)" style="stroke:#000000; stroke-linecap:round; stroke-linejoin:round; stroke-width:2; stroke-opacity:0.1; fill:none" points="140.696,1423.18 140.696,47.2441 "></polyline>
<polyline clip-path="url(#clip692)" style="stroke:#000000; stroke-linecap:round; stroke-linejoin:round; stroke-width:2; stroke-opacity:0.1; fill:none" points="583.108,1423.18 583.108,47.2441 "></polyline>
<polyline clip-path="url(#clip692)" style="stroke:#000000; stroke-linecap:round; stroke-linejoin:round; stroke-width:2; stroke-opacity:0.1; fill:none" points="1025.52,1423.18 1025.52,47.2441 "></polyline>
<polyline clip-path="url(#clip692)" style="stroke:#000000; stroke-linecap:round; stroke-linejoin:round; stroke-width:2; stroke-opacity:0.1; fill:none" points="1467.93,1423.18 1467.93,47.2441 "></polyline>
<polyline clip-path="url(#clip692)" style="stroke:#000000; stroke-linecap:round; stroke-linejoin:round; stroke-width:2; stroke-opacity:0.1; fill:none" points="1910.34,1423.18 1910.34,47.2441 "></polyline>
<polyline clip-path="url(#clip692)" style="stroke:#000000; stroke-linecap:round; stroke-linejoin:round; stroke-width:2; stroke-opacity:0.1; fill:none" points="2352.76,1423.18 2352.76,47.2441 "></polyline>
<polyline clip-path="url(#clip690)" style="stroke:#000000; stroke-linecap:round; stroke-linejoin:round; stroke-width:4; stroke-opacity:1; fill:none" points="140.696,1423.18 2352.76,1423.18 "></polyline>
<polyline clip-path="url(#clip690)" style="stroke:#000000; stroke-linecap:round; stroke-linejoin:round; stroke-width:4; stroke-opacity:1; fill:none" points="140.696,1423.18 140.696,1404.28 "></polyline>
<polyline clip-path="url(#clip690)" style="stroke:#000000; stroke-linecap:round; stroke-linejoin:round; stroke-width:4; stroke-opacity:1; fill:none" points="583.108,1423.18 583.108,1404.28 "></polyline>
<polyline clip-path="url(#clip690)" style="stroke:#000000; stroke-linecap:round; stroke-linejoin:round; stroke-width:4; stroke-opacity:1; fill:none" points="1025.52,1423.18 1025.52,1404.28 "></polyline>
<polyline clip-path="url(#clip690)" style="stroke:#000000; stroke-linecap:round; stroke-linejoin:round; stroke-width:4; stroke-opacity:1; fill:none" points="1467.93,1423.18 1467.93,1404.28 "></polyline>
<polyline clip-path="url(#clip690)" style="stroke:#000000; stroke-linecap:round; stroke-linejoin:round; stroke-width:4; stroke-opacity:1; fill:none" points="1910.34,1423.18 1910.34,1404.28 "></polyline>
<polyline clip-path="url(#clip690)" style="stroke:#000000; stroke-linecap:round; stroke-linejoin:round; stroke-width:4; stroke-opacity:1; fill:none" points="2352.76,1423.18 2352.76,1404.28 "></polyline>
<path clip-path="url(#clip690)" d="M118.08 1454.1 Q114.469 1454.1 112.64 1457.66 Q110.835 1461.2 110.835 1468.33 Q110.835 1475.44 112.64 1479.01 Q114.469 1482.55 118.08 1482.55 Q121.714 1482.55 123.52 1479.01 Q125.348 1475.44 125.348 1468.33 Q125.348 1461.2 123.52 1457.66 Q121.714 1454.1 118.08 1454.1 M118.08 1450.39 Q123.89 1450.39 126.946 1455 Q130.024 1459.58 130.024 1468.33 Q130.024 1477.06 126.946 1481.67 Q123.89 1486.25 118.08 1486.25 Q112.27 1486.25 109.191 1481.67 Q106.136 1477.06 106.136 1468.33 Q106.136 1459.58 109.191 1455 Q112.27 1450.39 118.08 1450.39 Z" fill="#000000" fill-rule="nonzero" fill-opacity="1"></path><path clip-path="url(#clip690)" d="M138.242 1479.7 L143.126 1479.7 L143.126 1485.58 L138.242 1485.58 L138.242 1479.7 Z" fill="#000000" fill-rule="nonzero" fill-opacity="1"></path><path clip-path="url(#clip690)" d="M163.311 1454.1 Q159.7 1454.1 157.871 1457.66 Q156.066 1461.2 156.066 1468.33 Q156.066 1475.44 157.871 1479.01 Q159.7 1482.55 163.311 1482.55 Q166.945 1482.55 168.751 1479.01 Q170.58 1475.44 170.58 1468.33 Q170.58 1461.2 168.751 1457.66 Q166.945 1454.1 163.311 1454.1 M163.311 1450.39 Q169.121 1450.39 172.177 1455 Q175.256 1459.58 175.256 1468.33 Q175.256 1477.06 172.177 1481.67 Q169.121 1486.25 163.311 1486.25 Q157.501 1486.25 154.422 1481.67 Q151.367 1477.06 151.367 1468.33 Q151.367 1459.58 154.422 1455 Q157.501 1450.39 163.311 1450.39 Z" fill="#000000" fill-rule="nonzero" fill-opacity="1"></path><path clip-path="url(#clip690)" d="M561.291 1454.1 Q557.68 1454.1 555.851 1457.66 Q554.045 1461.2 554.045 1468.33 Q554.045 1475.44 555.851 1479.01 Q557.68 1482.55 561.291 1482.55 Q564.925 1482.55 566.73 1479.01 Q568.559 1475.44 568.559 1468.33 Q568.559 1461.2 566.73 1457.66 Q564.925 1454.1 561.291 1454.1 M561.291 1450.39 Q567.101 1450.39 570.156 1455 Q573.235 1459.58 573.235 1468.33 Q573.235 1477.06 570.156 1481.67 Q567.101 1486.25 561.291 1486.25 Q555.48 1486.25 552.402 1481.67 Q549.346 1477.06 549.346 1468.33 Q549.346 1459.58 552.402 1455 Q555.48 1450.39 561.291 1450.39 Z" fill="#000000" fill-rule="nonzero" fill-opacity="1"></path><path clip-path="url(#clip690)" d="M581.453 1479.7 L586.337 1479.7 L586.337 1485.58 L581.453 1485.58 L581.453 1479.7 Z" fill="#000000" fill-rule="nonzero" fill-opacity="1"></path><path clip-path="url(#clip690)" d="M600.55 1481.64 L616.869 1481.64 L616.869 1485.58 L594.925 1485.58 L594.925 1481.64 Q597.587 1478.89 602.17 1474.26 Q606.776 1469.61 607.957 1468.27 Q610.202 1465.74 611.082 1464.01 Q611.985 1462.25 611.985 1460.56 Q611.985 1457.8 610.04 1456.07 Q608.119 1454.33 605.017 1454.33 Q602.818 1454.33 600.364 1455.09 Q597.934 1455.86 595.156 1457.41 L595.156 1452.69 Q597.98 1451.55 600.434 1450.97 Q602.888 1450.39 604.925 1450.39 Q610.295 1450.39 613.489 1453.08 Q616.684 1455.77 616.684 1460.26 Q616.684 1462.39 615.874 1464.31 Q615.087 1466.2 612.98 1468.8 Q612.401 1469.47 609.3 1472.69 Q606.198 1475.88 600.55 1481.64 Z" fill="#000000" fill-rule="nonzero" fill-opacity="1"></path><path clip-path="url(#clip690)" d="M1002.66 1454.1 Q999.05 1454.1 997.221 1457.66 Q995.416 1461.2 995.416 1468.33 Q995.416 1475.44 997.221 1479.01 Q999.05 1482.55 1002.66 1482.55 Q1006.3 1482.55 1008.1 1479.01 Q1009.93 1475.44 1009.93 1468.33 Q1009.93 1461.2 1008.1 1457.66 Q1006.3 1454.1 1002.66 1454.1 M1002.66 1450.39 Q1008.47 1450.39 1011.53 1455 Q1014.61 1459.58 1014.61 1468.33 Q1014.61 1477.06 1011.53 1481.67 Q1008.47 1486.25 1002.66 1486.25 Q996.851 1486.25 993.772 1481.67 Q990.717 1477.06 990.717 1468.33 Q990.717 1459.58 993.772 1455 Q996.851 1450.39 1002.66 1450.39 Z" fill="#000000" fill-rule="nonzero" fill-opacity="1"></path><path clip-path="url(#clip690)" d="M1022.82 1479.7 L1027.71 1479.7 L1027.71 1485.58 L1022.82 1485.58 L1022.82 1479.7 Z" fill="#000000" fill-rule="nonzero" fill-opacity="1"></path><path clip-path="url(#clip690)" d="M1050.74 1455.09 L1038.93 1473.54 L1050.74 1473.54 L1050.74 1455.09 M1049.51 1451.02 L1055.39 1451.02 L1055.39 1473.54 L1060.32 1473.54 L1060.32 1477.43 L1055.39 1477.43 L1055.39 1485.58 L1050.74 1485.58 L1050.74 1477.43 L1035.14 1477.43 L1035.14 1472.92 L1049.51 1451.02 Z" fill="#000000" fill-rule="nonzero" fill-opacity="1"></path><path clip-path="url(#clip690)" d="M1445.24 1454.1 Q1441.62 1454.1 1439.8 1457.66 Q1437.99 1461.2 1437.99 1468.33 Q1437.99 1475.44 1439.8 1479.01 Q1441.62 1482.55 1445.24 1482.55 Q1448.87 1482.55 1450.67 1479.01 Q1452.5 1475.44 1452.5 1468.33 Q1452.5 1461.2 1450.67 1457.66 Q1448.87 1454.1 1445.24 1454.1 M1445.24 1450.39 Q1451.05 1450.39 1454.1 1455 Q1457.18 1459.58 1457.18 1468.33 Q1457.18 1477.06 1454.1 1481.67 Q1451.05 1486.25 1445.24 1486.25 Q1439.42 1486.25 1436.35 1481.67 Q1433.29 1477.06 1433.29 1468.33 Q1433.29 1459.58 1436.35 1455 Q1439.42 1450.39 1445.24 1450.39 Z" fill="#000000" fill-rule="nonzero" fill-opacity="1"></path><path clip-path="url(#clip690)" d="M1465.4 1479.7 L1470.28 1479.7 L1470.28 1485.58 L1465.4 1485.58 L1465.4 1479.7 Z" fill="#000000" fill-rule="nonzero" fill-opacity="1"></path><path clip-path="url(#clip690)" d="M1491.05 1466.44 Q1487.9 1466.44 1486.05 1468.59 Q1484.22 1470.74 1484.22 1474.49 Q1484.22 1478.22 1486.05 1480.39 Q1487.9 1482.55 1491.05 1482.55 Q1494.19 1482.55 1496.02 1480.39 Q1497.87 1478.22 1497.87 1474.49 Q1497.87 1470.74 1496.02 1468.59 Q1494.19 1466.44 1491.05 1466.44 M1500.33 1451.78 L1500.33 1456.04 Q1498.57 1455.21 1496.76 1454.77 Q1494.98 1454.33 1493.22 1454.33 Q1488.59 1454.33 1486.14 1457.45 Q1483.71 1460.58 1483.36 1466.9 Q1484.73 1464.89 1486.79 1463.82 Q1488.85 1462.73 1491.32 1462.73 Q1496.53 1462.73 1499.54 1465.9 Q1502.57 1469.05 1502.57 1474.49 Q1502.57 1479.82 1499.42 1483.03 Q1496.28 1486.25 1491.05 1486.25 Q1485.05 1486.25 1481.88 1481.67 Q1478.71 1477.06 1478.71 1468.33 Q1478.71 1460.14 1482.6 1455.28 Q1486.48 1450.39 1493.04 1450.39 Q1494.8 1450.39 1496.58 1450.74 Q1498.38 1451.09 1500.33 1451.78 Z" fill="#000000" fill-rule="nonzero" fill-opacity="1"></path><path clip-path="url(#clip690)" d="M1887.77 1454.1 Q1884.16 1454.1 1882.33 1457.66 Q1880.53 1461.2 1880.53 1468.33 Q1880.53 1475.44 1882.33 1479.01 Q1884.16 1482.55 1887.77 1482.55 Q1891.41 1482.55 1893.21 1479.01 Q1895.04 1475.44 1895.04 1468.33 Q1895.04 1461.2 1893.21 1457.66 Q1891.41 1454.1 1887.77 1454.1 M1887.77 1450.39 Q1893.58 1450.39 1896.64 1455 Q1899.72 1459.58 1899.72 1468.33 Q1899.72 1477.06 1896.64 1481.67 Q1893.58 1486.25 1887.77 1486.25 Q1881.96 1486.25 1878.89 1481.67 Q1875.83 1477.06 1875.83 1468.33 Q1875.83 1459.58 1878.89 1455 Q1881.96 1450.39 1887.77 1450.39 Z" fill="#000000" fill-rule="nonzero" fill-opacity="1"></path><path clip-path="url(#clip690)" d="M1907.94 1479.7 L1912.82 1479.7 L1912.82 1485.58 L1907.94 1485.58 L1907.94 1479.7 Z" fill="#000000" fill-rule="nonzero" fill-opacity="1"></path><path clip-path="url(#clip690)" d="M1933.01 1469.17 Q1929.67 1469.17 1927.75 1470.95 Q1925.85 1472.73 1925.85 1475.86 Q1925.85 1478.98 1927.75 1480.77 Q1929.67 1482.55 1933.01 1482.55 Q1936.34 1482.55 1938.26 1480.77 Q1940.18 1478.96 1940.18 1475.86 Q1940.18 1472.73 1938.26 1470.95 Q1936.36 1469.17 1933.01 1469.17 M1928.33 1467.18 Q1925.32 1466.44 1923.63 1464.38 Q1921.96 1462.32 1921.96 1459.35 Q1921.96 1455.21 1924.9 1452.8 Q1927.87 1450.39 1933.01 1450.39 Q1938.17 1450.39 1941.11 1452.8 Q1944.05 1455.21 1944.05 1459.35 Q1944.05 1462.32 1942.36 1464.38 Q1940.69 1466.44 1937.7 1467.18 Q1941.08 1467.96 1942.96 1470.26 Q1944.86 1472.55 1944.86 1475.86 Q1944.86 1480.88 1941.78 1483.57 Q1938.72 1486.25 1933.01 1486.25 Q1927.29 1486.25 1924.21 1483.57 Q1921.15 1480.88 1921.15 1475.86 Q1921.15 1472.55 1923.05 1470.26 Q1924.95 1467.96 1928.33 1467.18 M1926.62 1459.79 Q1926.62 1462.48 1928.28 1463.98 Q1929.97 1465.49 1933.01 1465.49 Q1936.01 1465.49 1937.7 1463.98 Q1939.42 1462.48 1939.42 1459.79 Q1939.42 1457.11 1937.7 1455.6 Q1936.01 1454.1 1933.01 1454.1 Q1929.97 1454.1 1928.28 1455.6 Q1926.62 1457.11 1926.62 1459.79 Z" fill="#000000" fill-rule="nonzero" fill-opacity="1"></path><path clip-path="url(#clip690)" d="M2319.91 1481.64 L2327.55 1481.64 L2327.55 1455.28 L2319.24 1456.95 L2319.24 1452.69 L2327.5 1451.02 L2332.18 1451.02 L2332.18 1481.64 L2339.82 1481.64 L2339.82 1485.58 L2319.91 1485.58 L2319.91 1481.64 Z" fill="#000000" fill-rule="nonzero" fill-opacity="1"></path><path clip-path="url(#clip690)" d="M2349.26 1479.7 L2354.14 1479.7 L2354.14 1485.58 L2349.26 1485.58 L2349.26 1479.7 Z" fill="#000000" fill-rule="nonzero" fill-opacity="1"></path><path clip-path="url(#clip690)" d="M2374.33 1454.1 Q2370.72 1454.1 2368.89 1457.66 Q2367.08 1461.2 2367.08 1468.33 Q2367.08 1475.44 2368.89 1479.01 Q2370.72 1482.55 2374.33 1482.55 Q2377.96 1482.55 2379.77 1479.01 Q2381.6 1475.44 2381.6 1468.33 Q2381.6 1461.2 2379.77 1457.66 Q2377.96 1454.1 2374.33 1454.1 M2374.33 1450.39 Q2380.14 1450.39 2383.2 1455 Q2386.27 1459.58 2386.27 1468.33 Q2386.27 1477.06 2383.2 1481.67 Q2380.14 1486.25 2374.33 1486.25 Q2368.52 1486.25 2365.44 1481.67 Q2362.39 1477.06 2362.39 1468.33 Q2362.39 1459.58 2365.44 1455 Q2368.52 1450.39 2374.33 1450.39 Z" fill="#000000" fill-rule="nonzero" fill-opacity="1"></path><path clip-path="url(#clip690)" d="M1245.79 1522.27 L1245.79 1532.4 L1257.85 1532.4 L1257.85 1536.95 L1245.79 1536.95 L1245.79 1556.3 Q1245.79 1560.66 1246.96 1561.9 Q1248.17 1563.14 1251.83 1563.14 L1257.85 1563.14 L1257.85 1568.04 L1251.83 1568.04 Q1245.05 1568.04 1242.48 1565.53 Q1239.9 1562.98 1239.9 1556.3 L1239.9 1536.95 L1235.6 1536.95 L1235.6 1532.4 L1239.9 1532.4 L1239.9 1522.27 L1245.79 1522.27 Z" fill="#000000" fill-rule="nonzero" fill-opacity="1"></path><polyline clip-path="url(#clip692)" style="stroke:#000000; stroke-linecap:round; stroke-linejoin:round; stroke-width:2; stroke-opacity:0.1; fill:none" points="140.696,1380.61 2352.76,1380.61 "></polyline>
<polyline clip-path="url(#clip692)" style="stroke:#000000; stroke-linecap:round; stroke-linejoin:round; stroke-width:2; stroke-opacity:0.1; fill:none" points="140.696,1044.49 2352.76,1044.49 "></polyline>
<polyline clip-path="url(#clip692)" style="stroke:#000000; stroke-linecap:round; stroke-linejoin:round; stroke-width:2; stroke-opacity:0.1; fill:none" points="140.696,708.372 2352.76,708.372 "></polyline>
<polyline clip-path="url(#clip692)" style="stroke:#000000; stroke-linecap:round; stroke-linejoin:round; stroke-width:2; stroke-opacity:0.1; fill:none" points="140.696,372.252 2352.76,372.252 "></polyline>
<polyline clip-path="url(#clip690)" style="stroke:#000000; stroke-linecap:round; stroke-linejoin:round; stroke-width:4; stroke-opacity:1; fill:none" points="140.696,1423.18 140.696,47.2441 "></polyline>
<polyline clip-path="url(#clip690)" style="stroke:#000000; stroke-linecap:round; stroke-linejoin:round; stroke-width:4; stroke-opacity:1; fill:none" points="140.696,1380.61 159.593,1380.61 "></polyline>
<polyline clip-path="url(#clip690)" style="stroke:#000000; stroke-linecap:round; stroke-linejoin:round; stroke-width:4; stroke-opacity:1; fill:none" points="140.696,1044.49 159.593,1044.49 "></polyline>
<polyline clip-path="url(#clip690)" style="stroke:#000000; stroke-linecap:round; stroke-linejoin:round; stroke-width:4; stroke-opacity:1; fill:none" points="140.696,708.372 159.593,708.372 "></polyline>
<polyline clip-path="url(#clip690)" style="stroke:#000000; stroke-linecap:round; stroke-linejoin:round; stroke-width:4; stroke-opacity:1; fill:none" points="140.696,372.252 159.593,372.252 "></polyline>
<path clip-path="url(#clip690)" d="M92.7512 1366.41 Q89.1401 1366.41 87.3114 1369.98 Q85.5058 1373.52 85.5058 1380.65 Q85.5058 1387.75 87.3114 1391.32 Q89.1401 1394.86 92.7512 1394.86 Q96.3854 1394.86 98.1909 1391.32 Q100.02 1387.75 100.02 1380.65 Q100.02 1373.52 98.1909 1369.98 Q96.3854 1366.41 92.7512 1366.41 M92.7512 1362.71 Q98.5613 1362.71 101.617 1367.31 Q104.696 1371.9 104.696 1380.65 Q104.696 1389.37 101.617 1393.98 Q98.5613 1398.56 92.7512 1398.56 Q86.941 1398.56 83.8623 1393.98 Q80.8068 1389.37 80.8068 1380.65 Q80.8068 1371.9 83.8623 1367.31 Q86.941 1362.71 92.7512 1362.71 Z" fill="#000000" fill-rule="nonzero" fill-opacity="1"></path><path clip-path="url(#clip690)" d="M53.3995 1057.84 L61.0384 1057.84 L61.0384 1031.47 L52.7282 1033.14 L52.7282 1028.88 L60.9921 1027.21 L65.668 1027.21 L65.668 1057.84 L73.3068 1057.84 L73.3068 1061.77 L53.3995 1061.77 L53.3995 1057.84 Z" fill="#000000" fill-rule="nonzero" fill-opacity="1"></path><path clip-path="url(#clip690)" d="M92.7512 1030.29 Q89.1401 1030.29 87.3114 1033.86 Q85.5058 1037.4 85.5058 1044.53 Q85.5058 1051.63 87.3114 1055.2 Q89.1401 1058.74 92.7512 1058.74 Q96.3854 1058.74 98.1909 1055.2 Q100.02 1051.63 100.02 1044.53 Q100.02 1037.4 98.1909 1033.86 Q96.3854 1030.29 92.7512 1030.29 M92.7512 1026.59 Q98.5613 1026.59 101.617 1031.19 Q104.696 1035.78 104.696 1044.53 Q104.696 1053.25 101.617 1057.86 Q98.5613 1062.44 92.7512 1062.44 Q86.941 1062.44 83.8623 1057.86 Q80.8068 1053.25 80.8068 1044.53 Q80.8068 1035.78 83.8623 1031.19 Q86.941 1026.59 92.7512 1026.59 Z" fill="#000000" fill-rule="nonzero" fill-opacity="1"></path><path clip-path="url(#clip690)" d="M56.6171 721.717 L72.9365 721.717 L72.9365 725.652 L50.9921 725.652 L50.9921 721.717 Q53.6541 718.962 58.2375 714.333 Q62.8439 709.68 64.0245 708.337 Q66.2698 705.814 67.1494 704.078 Q68.0522 702.319 68.0522 700.629 Q68.0522 697.874 66.1078 696.138 Q64.1865 694.402 61.0847 694.402 Q58.8856 694.402 56.4319 695.166 Q54.0014 695.93 51.2236 697.481 L51.2236 692.759 Q54.0477 691.624 56.5014 691.046 Q58.955 690.467 60.9921 690.467 Q66.3624 690.467 69.5568 693.152 Q72.7513 695.837 72.7513 700.328 Q72.7513 702.458 71.9411 704.379 Q71.1541 706.277 69.0476 708.87 Q68.4689 709.541 65.367 712.759 Q62.2652 715.953 56.6171 721.717 Z" fill="#000000" fill-rule="nonzero" fill-opacity="1"></path><path clip-path="url(#clip690)" d="M92.7512 694.171 Q89.1401 694.171 87.3114 697.736 Q85.5058 701.277 85.5058 708.407 Q85.5058 715.513 87.3114 719.078 Q89.1401 722.62 92.7512 722.62 Q96.3854 722.62 98.1909 719.078 Q100.02 715.513 100.02 708.407 Q100.02 701.277 98.1909 697.736 Q96.3854 694.171 92.7512 694.171 M92.7512 690.467 Q98.5613 690.467 101.617 695.074 Q104.696 699.657 104.696 708.407 Q104.696 717.134 101.617 721.74 Q98.5613 726.323 92.7512 726.323 Q86.941 726.323 83.8623 721.74 Q80.8068 717.134 80.8068 708.407 Q80.8068 699.657 83.8623 695.074 Q86.941 690.467 92.7512 690.467 Z" fill="#000000" fill-rule="nonzero" fill-opacity="1"></path><path clip-path="url(#clip690)" d="M66.7559 370.898 Q70.1124 371.616 71.9874 373.884 Q73.8855 376.153 73.8855 379.486 Q73.8855 384.602 70.367 387.402 Q66.8485 390.203 60.3671 390.203 Q58.1912 390.203 55.8764 389.764 Q53.5847 389.347 51.131 388.49 L51.131 383.977 Q53.0754 385.111 55.3903 385.69 Q57.7051 386.268 60.2282 386.268 Q64.6263 386.268 66.918 384.532 Q69.2328 382.796 69.2328 379.486 Q69.2328 376.43 67.08 374.717 Q64.9504 372.981 61.131 372.981 L57.1032 372.981 L57.1032 369.139 L61.3161 369.139 Q64.7652 369.139 66.5939 367.773 Q68.4226 366.384 68.4226 363.792 Q68.4226 361.129 66.5245 359.717 Q64.6495 358.282 61.131 358.282 Q59.2097 358.282 57.0106 358.699 Q54.8115 359.116 52.1727 359.995 L52.1727 355.829 Q54.8347 355.088 57.1495 354.717 Q59.4875 354.347 61.5476 354.347 Q66.8717 354.347 69.9735 356.778 Q73.0753 359.185 73.0753 363.305 Q73.0753 366.176 71.4318 368.166 Q69.7883 370.134 66.7559 370.898 Z" fill="#000000" fill-rule="nonzero" fill-opacity="1"></path><path clip-path="url(#clip690)" d="M92.7512 358.051 Q89.1401 358.051 87.3114 361.616 Q85.5058 365.157 85.5058 372.287 Q85.5058 379.393 87.3114 382.958 Q89.1401 386.5 92.7512 386.5 Q96.3854 386.5 98.1909 382.958 Q100.02 379.393 100.02 372.287 Q100.02 365.157 98.1909 361.616 Q96.3854 358.051 92.7512 358.051 M92.7512 354.347 Q98.5613 354.347 101.617 358.954 Q104.696 363.537 104.696 372.287 Q104.696 381.014 101.617 385.62 Q98.5613 390.203 92.7512 390.203 Q86.941 390.203 83.8623 385.62 Q80.8068 381.014 80.8068 372.287 Q80.8068 363.537 83.8623 358.954 Q86.941 354.347 92.7512 354.347 Z" fill="#000000" fill-rule="nonzero" fill-opacity="1"></path><polyline clip-path="url(#clip692)" style="stroke:#009af9; stroke-linecap:round; stroke-linejoin:round; stroke-width:4; stroke-opacity:1; fill:none" points="140.696,1380.61 142.91,1380.21 145.124,1379.01 147.338,1377.01 149.553,1374.24 151.767,1370.7 153.981,1366.39 156.195,1361.34 158.41,1355.56 160.624,1349.05 162.838,1341.84 165.053,1333.93 167.267,1325.34 169.481,1316.09 171.695,1306.19 173.91,1295.66 176.124,1284.52 178.338,1272.77 180.552,1260.45 182.767,1247.57 184.981,1234.14 187.195,1220.19 189.41,1205.73 191.624,1190.79 193.838,1175.38 196.052,1159.53 198.267,1143.25 200.481,1126.56 202.695,1109.49 204.91,1092.06 207.124,1074.28 209.338,1056.18 211.552,1037.78 213.767,1019.1 215.981,1000.17 218.195,980.993 220.409,961.606 222.624,942.024 224.838,922.271 227.052,902.367 229.267,882.334 231.481,862.193 233.695,841.965 235.909,821.671 238.124,801.333 240.338,780.971 242.552,760.606 244.766,740.257 246.981,719.945 249.195,699.69 251.409,679.51 253.624,659.427 255.838,639.458 258.052,619.623 260.266,599.938 262.481,580.424 264.695,561.098 266.909,541.977 269.123,523.079 271.338,504.421 273.552,486.017 275.766,467.885 277.981,450.04 280.195,432.495 282.409,415.267 284.623,398.368 286.838,381.812 289.052,365.613 291.266,349.782 293.48,334.333 295.695,319.274 297.909,304.62 300.123,290.379 302.338,276.563 304.552,263.181 306.766,250.242 308.98,237.756 311.195,225.729 313.409,214.17 315.623,203.085 317.838,192.481 320.052,182.363 322.266,172.736 324.48,163.606 326.695,154.976 328.909,146.849 331.123,139.228 333.337,132.117 335.552,125.515 337.766,119.426 339.98,113.85 342.195,108.788 344.409,104.239 346.623,100.204 348.837,96.6811 351.052,93.6694 353.266,91.1666 355.48,89.1704 357.694,87.6779 359.909,86.6857 362.123,86.1897 364.337,86.1857 366.552,86.6686 368.766,87.6331 370.98,89.0732 373.194,90.9826 375.409,93.3543 377.623,96.1809 379.837,99.4546 382.051,103.167 384.266,107.313 386.48,111.882 388.694,116.866 390.909,122.256 393.123,128.042 395.337,134.214 397.551,140.763 399.766,147.679 401.98,154.951 404.194,162.568 406.408,170.519 408.623,178.794 410.837,187.381 413.051,196.269 415.266,205.445 417.48,214.898 419.694,224.615 421.908,234.583 424.123,244.791 426.337,255.224 428.551,265.87 430.766,276.717 432.98,287.753 435.194,298.964 437.408,310.338 439.623,321.861 441.837,333.521 444.051,345.303 446.265,357.196 448.48,369.186 450.694,381.26 452.908,393.405 455.123,405.61 457.337,417.861 459.551,430.146 461.765,442.452 463.98,454.766 466.194,467.078 468.408,479.373 470.622,491.641 472.837,503.868 475.051,516.043 477.265,528.154 479.48,540.192 481.694,552.144 483.908,563.999 486.122,575.746 488.337,587.374 490.551,598.873 492.765,610.232 494.979,621.441 497.194,632.49 499.408,643.37 501.622,654.072 503.837,664.588 506.051,674.907 508.265,685.023 510.479,694.927 512.694,704.612 514.908,714.071 517.122,723.295 519.337,732.279 521.551,741.015 523.765,749.499 525.979,757.723 528.194,765.684 530.408,773.375 532.622,780.791 534.836,787.928 537.051,794.782 539.265,801.346 541.479,807.619 543.694,813.596 545.908,819.274 548.122,824.65 550.336,829.722 552.551,834.488 554.765,838.946 556.979,843.094 559.193,846.931 561.408,850.458 563.622,853.673 565.836,856.576 568.051,859.168 570.265,861.45 572.479,863.422 574.693,865.086 576.908,866.444 579.122,867.499 581.336,868.251 583.55,868.703 585.765,868.858 587.979,868.716 590.193,868.283 592.408,867.561 594.622,866.553 596.836,865.264 599.05,863.697 601.265,861.857 603.479,859.748 605.693,857.375 607.907,854.742 610.122,851.856 612.336,848.72 614.55,845.341 616.765,841.725 618.979,837.877 621.193,833.805 623.407,829.513 625.622,825.01 627.836,820.302 630.05,815.395 632.265,810.298 634.479,805.015 636.693,799.554 638.907,793.922 641.122,788.128 643.336,782.178 645.55,776.08 647.764,769.841 649.979,763.47 652.193,756.974 654.407,750.36 656.622,743.636 658.836,736.81 661.05,729.889 663.264,722.882 665.479,715.795 667.693,708.638 669.907,701.416 672.121,694.139 674.336,686.814 676.55,679.449 678.764,672.051 680.979,664.63 683.193,657.191 685.407,649.744 687.621,642.297 689.836,634.856 692.05,627.429 694.264,620.021 696.478,612.64 698.693,605.293 700.907,597.988 703.121,590.731 705.336,583.531 707.55,576.393 709.764,569.324 711.978,562.331 714.193,555.419 716.407,548.595 718.621,541.866 720.835,535.235 723.05,528.71 725.264,522.296 727.478,515.997 729.693,509.818 731.907,503.766 734.121,497.843 736.335,492.056 738.55,486.407 740.764,480.902 742.978,475.545 745.193,470.338 747.407,465.286 749.621,460.393 751.835,455.661 754.05,451.092 756.264,446.689 758.478,442.455 760.692,438.394 762.907,434.507 765.121,430.798 767.335,427.268 769.55,423.919 771.764,420.753 773.978,417.773 776.192,414.978 778.407,412.37 780.621,409.95 782.835,407.719 785.049,405.678 787.264,403.825 789.478,402.162 791.692,400.688 793.907,399.403 796.121,398.306 798.335,397.396 800.549,396.672 802.764,396.132 804.978,395.777 807.192,395.602 809.406,395.607 811.621,395.79 813.835,396.147 816.049,396.677 818.264,397.376 820.478,398.241 822.692,399.272 824.906,400.467 827.121,401.822 829.335,403.335 831.549,405.003 833.764,406.822 835.978,408.789 838.192,410.901 840.406,413.154 842.621,415.545 844.835,418.07 847.049,420.726 849.263,423.508 851.478,426.413 853.692,429.436 855.906,432.574 858.121,435.823 860.335,439.177 862.549,442.633 864.763,446.187 866.978,449.833 869.192,453.568 871.406,457.385 873.62,461.281 875.835,465.251 878.049,469.29 880.263,473.392 882.478,477.552 884.692,481.765 886.906,486.027 889.12,490.335 891.335,494.684 893.549,499.069 895.763,503.485 897.977,507.927 900.192,512.391 902.406,516.871 904.62,521.364 906.835,525.863 909.049,530.366 911.263,534.866 913.477,539.361 915.692,543.845 917.906,548.313 920.12,552.763 922.334,557.19 924.549,561.589 926.763,565.956 928.977,570.289 931.192,574.581 933.406,578.831 935.62,583.034 937.834,587.186 940.049,591.283 942.263,595.322 944.477,599.3 946.692,603.213 948.906,607.058 951.12,610.831 953.334,614.53 955.549,618.154 957.763,621.698 959.977,625.16 962.191,628.538 964.406,631.827 966.62,635.027 968.834,638.133 971.049,641.145 973.263,644.059 975.477,646.873 977.691,649.587 979.906,652.197 982.12,654.702 984.334,657.102 986.548,659.393 988.763,661.576 990.977,663.649 993.191,665.611 995.406,667.462 997.62,669.2 999.834,670.825 1002.05,672.337 1004.26,673.735 1006.48,675.02 1008.69,676.191 1010.91,677.248 1013.12,678.192 1015.33,679.023 1017.55,679.742 1019.76,680.35 1021.98,680.846 1024.19,681.232 1026.41,681.508 1028.62,681.674 1030.83,681.732 1033.05,681.682 1035.26,681.525 1037.48,681.263 1039.69,680.897 1041.91,680.428 1044.12,679.857 1046.33,679.187 1048.55,678.417 1050.76,677.551 1052.98,676.59 1055.19,675.536 1057.41,674.39 1059.62,673.154 1061.83,671.832 1064.05,670.424 1066.26,668.933 1068.48,667.362 1070.69,665.712 1072.91,663.986 1075.12,662.188 1077.33,660.319 1079.55,658.382 1081.76,656.38 1083.98,654.316 1086.19,652.194 1088.41,650.015 1090.62,647.784 1092.83,645.503 1095.05,643.173 1097.26,640.796 1099.48,638.377 1101.69,635.917 1103.91,633.42 1106.12,630.889 1108.33,628.326 1110.55,625.735 1112.76,623.118 1114.98,620.478 1117.19,617.819 1119.4,615.142 1121.62,612.451 1123.83,609.749 1126.05,607.037 1128.26,604.32 1130.48,601.599 1132.69,598.878 1134.9,596.159 1137.12,593.444 1139.33,590.737 1141.55,588.04 1143.76,585.355 1145.98,582.685 1148.19,580.033 1150.4,577.401 1152.62,574.792 1154.83,572.208 1157.05,569.651 1159.26,567.125 1161.48,564.631 1163.69,562.172 1165.9,559.748 1168.12,557.361 1170.33,555.014 1172.55,552.707 1174.76,550.445 1176.98,548.228 1179.19,546.058 1181.4,543.937 1183.62,541.868 1185.83,539.851 1188.05,537.889 1190.26,535.982 1192.48,534.133 1194.69,532.343 1196.9,530.612 1199.12,528.942 1201.33,527.334 1203.55,525.79 1205.76,524.309 1207.98,522.893 1210.19,521.543 1212.4,520.26 1214.62,519.043 1216.83,517.893 1219.05,516.811 1221.26,515.798 1223.48,514.852 1225.69,513.976 1227.9,513.168 1230.12,512.428 1232.33,511.757 1234.55,511.154 1236.76,510.62 1238.98,510.153 1241.19,509.753 1243.4,509.421 1245.62,509.155 1247.83,508.955 1250.05,508.821 1252.26,508.753 1254.48,508.75 1256.69,508.811 1258.9,508.937 1261.12,509.125 1263.33,509.376 1265.55,509.689 1267.76,510.063 1269.98,510.497 1272.19,510.99 1274.4,511.541 1276.62,512.15 1278.83,512.814 1281.05,513.534 1283.26,514.307 1285.48,515.133 1287.69,516.01 1289.9,516.937 1292.12,517.912 1294.33,518.935 1296.55,520.003 1298.76,521.116 1300.98,522.27 1303.19,523.466 1305.4,524.7 1307.62,525.972 1309.83,527.279 1312.05,528.62 1314.26,529.992 1316.48,531.395 1318.69,532.824 1320.9,534.28 1323.12,535.759 1325.33,537.259 1327.55,538.779 1329.76,540.32 1331.98,541.88 1334.19,543.456 1336.4,545.046 1338.62,546.65 1340.83,548.265 1343.05,549.89 1345.26,551.522 1347.48,553.159 1349.69,554.802 1351.9,556.446 1354.12,558.092 1356.33,559.737 1358.55,561.379 1360.76,563.018 1362.98,564.651 1365.19,566.277 1367.4,567.895 1369.62,569.502 1371.83,571.098 1374.05,572.681 1376.26,574.249 1378.48,575.802 1380.69,577.337 1382.9,578.854 1385.12,580.351 1387.33,581.827 1389.55,583.28 1391.76,584.71 1393.97,586.114 1396.19,587.492 1398.4,588.843 1400.62,590.165 1402.83,591.458 1405.05,592.72 1407.26,593.953 1409.47,595.155 1411.69,596.324 1413.9,597.46 1416.12,598.561 1418.33,599.628 1420.55,600.658 1422.76,601.652 1424.97,602.608 1427.19,603.526 1429.4,604.405 1431.62,605.245 1433.83,606.045 1436.05,606.805 1438.26,607.523 1440.47,608.201 1442.69,608.837 1444.9,609.431 1447.12,609.983 1449.33,610.493 1451.55,610.961 1453.76,611.387 1455.97,611.77 1458.19,612.111 1460.4,612.41 1462.62,612.667 1464.83,612.883 1467.05,613.057 1469.26,613.189 1471.47,613.281 1473.69,613.333 1475.9,613.345 1478.12,613.317 1480.33,613.251 1482.55,613.146 1484.76,613.004 1486.97,612.826 1489.19,612.611 1491.4,612.362 1493.62,612.077 1495.83,611.757 1498.05,611.403 1500.26,611.015 1502.47,610.595 1504.69,610.142 1506.9,609.658 1509.12,609.144 1511.33,608.599 1513.55,608.026 1515.76,607.424 1517.97,606.795 1520.19,606.139 1522.4,605.458 1524.62,604.752 1526.83,604.022 1529.05,603.268 1531.26,602.493 1533.47,601.696 1535.69,600.88 1537.9,600.044 1540.12,599.19 1542.33,598.318 1544.55,597.43 1546.76,596.528 1548.97,595.611 1551.19,594.681 1553.4,593.739 1555.62,592.787 1557.83,591.825 1560.05,590.854 1562.26,589.877 1564.47,588.893 1566.69,587.904 1568.9,586.911 1571.12,585.916 1573.33,584.92 1575.55,583.924 1577.76,582.929 1579.97,581.935 1582.19,580.942 1584.4,579.951 1586.62,578.964 1588.83,577.982 1591.05,577.005 1593.26,576.035 1595.47,575.072 1597.69,574.118 1599.9,573.173 1602.12,572.238 1604.33,571.315 1606.55,570.403 1608.76,569.504 1610.97,568.619 1613.19,567.748 1615.4,566.892 1617.62,566.051 1619.83,565.228 1622.05,564.421 1624.26,563.632 1626.47,562.861 1628.69,562.109 1630.9,561.376 1633.12,560.663 1635.33,559.971 1637.55,559.3 1639.76,558.65 1641.97,558.022 1644.19,557.415 1646.4,556.832 1648.62,556.271 1650.83,555.734 1653.05,555.22 1655.26,554.729 1657.47,554.263 1659.69,553.821 1661.9,553.403 1664.12,553.01 1666.33,552.641 1668.55,552.295 1670.76,551.973 1672.97,551.676 1675.19,551.402 1677.4,551.153 1679.62,550.929 1681.83,550.729 1684.04,550.554 1686.26,550.403 1688.47,550.278 1690.69,550.177 1692.9,550.1 1695.12,550.049 1697.33,550.021 1699.54,550.019 1701.76,550.04 1703.97,550.086 1706.19,550.155 1708.4,550.248 1710.62,550.364 1712.83,550.504 1715.04,550.666 1717.26,550.85 1719.47,551.057 1721.69,551.285 1723.9,551.535 1726.12,551.805 1728.33,552.096 1730.54,552.406 1732.76,552.736 1734.97,553.084 1737.19,553.45 1739.4,553.834 1741.62,554.235 1743.83,554.652 1746.04,555.085 1748.26,555.532 1750.47,555.993 1752.69,556.468 1754.9,556.955 1757.12,557.454 1759.33,557.963 1761.54,558.482 1763.76,559.011 1765.97,559.547 1768.19,560.09 1770.4,560.64 1772.62,561.199 1774.83,561.765 1777.04,562.337 1779.26,562.915 1781.47,563.499 1783.69,564.087 1785.9,564.679 1788.12,565.274 1790.33,565.872 1792.54,566.472 1794.76,567.073 1796.97,567.675 1799.19,568.278 1801.4,568.88 1803.62,569.481 1805.83,570.08 1808.04,570.677 1810.26,571.272 1812.47,571.863 1814.69,572.45 1816.9,573.033 1819.12,573.612 1821.33,574.184 1823.54,574.751 1825.76,575.312 1827.97,575.866 1830.19,576.412 1832.4,576.95 1834.62,577.481 1836.83,578.002 1839.04,578.514 1841.26,579.017 1843.47,579.51 1845.69,579.992 1847.9,580.463 1850.12,580.923 1852.33,581.371 1854.54,581.807 1856.76,582.23 1858.97,582.641 1861.19,583.039 1863.4,583.426 1865.62,583.799 1867.83,584.16 1870.04,584.508 1872.26,584.842 1874.47,585.162 1876.69,585.469 1878.9,585.761 1881.12,586.039 1883.33,586.302 1885.54,586.55 1887.76,586.783 1889.97,587.001 1892.19,587.203 1894.4,587.39 1896.62,587.562 1898.83,587.718 1901.04,587.858 1903.26,587.983 1905.47,588.092 1907.69,588.186 1909.9,588.263 1912.12,588.326 1914.33,588.372 1916.54,588.404 1918.76,588.42 1920.97,588.42 1923.19,588.406 1925.4,588.377 1927.62,588.333 1929.83,588.275 1932.04,588.203 1934.26,588.116 1936.47,588.016 1938.69,587.902 1940.9,587.776 1943.12,587.636 1945.33,587.484 1947.54,587.32 1949.76,587.144 1951.97,586.957 1954.19,586.759 1956.4,586.551 1958.62,586.332 1960.83,586.105 1963.04,585.868 1965.26,585.623 1967.47,585.369 1969.69,585.106 1971.9,584.835 1974.11,584.556 1976.33,584.269 1978.54,583.975 1980.76,583.673 1982.97,583.365 1985.19,583.051 1987.4,582.731 1989.61,582.406 1991.83,582.075 1994.04,581.739 1996.26,581.399 1998.47,581.055 2000.69,580.707 2002.9,580.356 2005.11,580.002 2007.33,579.645 2009.54,579.285 2011.76,578.924 2013.97,578.562 2016.19,578.198 2018.4,577.833 2020.61,577.468 2022.83,577.102 2025.04,576.737 2027.26,576.372 2029.47,576.009 2031.69,575.646 2033.9,575.286 2036.11,574.927 2038.33,574.571 2040.54,574.217 2042.76,573.866 2044.97,573.519 2047.19,573.176 2049.4,572.836 2051.61,572.501 2053.83,572.171 2056.04,571.846 2058.26,571.527 2060.47,571.214 2062.69,570.906 2064.9,570.606 2067.11,570.312 2069.33,570.026 2071.54,569.746 2073.76,569.472 2075.97,569.205 2078.19,568.945 2080.4,568.692 2082.61,568.447 2084.83,568.209 2087.04,567.979 2089.26,567.757 2091.47,567.544 2093.69,567.338 2095.9,567.142 2098.11,566.954 2100.33,566.774 2102.54,566.604 2104.76,566.443 2106.97,566.291 2109.19,566.149 2111.4,566.015 2113.61,565.892 2115.83,565.777 2118.04,565.672 2120.26,565.577 2122.47,565.492 2124.69,565.415 2126.9,565.349 2129.11,565.292 2131.33,565.244 2133.54,565.206 2135.76,565.178 2137.97,565.158 2140.19,565.148 2142.4,565.147 2144.61,565.155 2146.83,565.172 2149.04,565.198 2151.26,565.233 2153.47,565.275 2155.69,565.327 2157.9,565.386 2160.11,565.453 2162.33,565.528 2164.54,565.611 2166.76,565.701 2168.97,565.798 2171.19,565.901 2173.4,566.012 2175.61,566.128 2177.83,566.25 2180.04,566.379 2182.26,566.514 2184.47,566.654 2186.69,566.8 2188.9,566.951 2191.11,567.108 2193.33,567.269 2195.54,567.436 2197.76,567.607 2199.97,567.783 2202.19,567.963 2204.4,568.147 2206.61,568.335 2208.83,568.526 2211.04,568.722 2213.26,568.92 2215.47,569.122 2217.69,569.326 2219.9,569.534 2222.11,569.743 2224.33,569.955 2226.54,570.17 2228.76,570.386 2230.97,570.603 2233.19,570.822 2235.4,571.043 2237.61,571.264 2239.83,571.486 2242.04,571.709 2244.26,571.932 2246.47,572.156 2248.68,572.379 2250.9,572.602 2253.11,572.824 2255.33,573.045 2257.54,573.266 2259.76,573.485 2261.97,573.703 2264.18,573.919 2266.4,574.134 2268.61,574.346 2270.83,574.555 2273.04,574.762 2275.26,574.966 2277.47,575.167 2279.68,575.365 2281.9,575.559 2284.11,575.749 2286.33,575.934 2288.54,576.116 2290.76,576.293 2292.97,576.465 2295.18,576.631 2297.4,576.793 2299.61,576.95 2301.83,577.102 2304.04,577.25 2306.26,577.393 2308.47,577.531 2310.68,577.664 2312.9,577.792 2315.11,577.915 2317.33,578.033 2319.54,578.145 2321.76,578.252 2323.97,578.354 2326.18,578.45 2328.4,578.541 2330.61,578.626 2332.83,578.706 2335.04,578.78 2337.26,578.849 2339.47,578.912 2341.68,578.969 2343.9,579.021 2346.11,579.067 2348.33,579.107 2350.54,579.142 2352.76,579.172 "></polyline>
<polyline clip-path="url(#clip692)" style="stroke:#e26f46; stroke-linecap:round; stroke-linejoin:round; stroke-width:4; stroke-opacity:1; fill:none" points="140.696,1380.61 142.91,1379.8 145.124,1379 147.338,1378.19 149.553,1377.39 151.767,1376.59 153.981,1375.8 156.195,1375 158.41,1374.22 160.624,1373.44 162.838,1372.67 165.053,1371.9 167.267,1371.15 169.481,1370.4 171.695,1369.66 173.91,1368.93 176.124,1368.22 178.338,1367.51 180.552,1366.82 182.767,1366.14 184.981,1365.47 187.195,1364.81 189.41,1364.18 191.624,1363.55 193.838,1362.94 196.052,1362.35 198.267,1361.77 200.481,1361.21 202.695,1360.66 204.91,1360.13 207.124,1359.62 209.338,1359.13 211.552,1358.66 213.767,1358.2 215.981,1357.77 218.195,1357.35 220.409,1356.95 222.624,1356.58 224.838,1356.22 227.052,1355.88 229.267,1355.56 231.481,1355.26 233.695,1354.98 235.909,1354.72 238.124,1354.49 240.338,1354.27 242.552,1354.07 244.766,1353.89 246.981,1353.74 249.195,1353.6 251.409,1353.49 253.624,1353.39 255.838,1353.32 258.052,1353.26 260.266,1353.22 262.481,1353.21 264.695,1353.21 266.909,1353.23 269.123,1353.27 271.338,1353.33 273.552,1353.41 275.766,1353.51 277.981,1353.63 280.195,1353.76 282.409,1353.91 284.623,1354.08 286.838,1354.26 289.052,1354.46 291.266,1354.68 293.48,1354.91 295.695,1355.16 297.909,1355.42 300.123,1355.7 302.338,1355.99 304.552,1356.29 306.766,1356.61 308.98,1356.94 311.195,1357.28 313.409,1357.64 315.623,1358 317.838,1358.38 320.052,1358.76 322.266,1359.16 324.48,1359.57 326.695,1359.98 328.909,1360.41 331.123,1360.84 333.337,1361.28 335.552,1361.72 337.766,1362.17 339.98,1362.63 342.195,1363.1 344.409,1363.56 346.623,1364.04 348.837,1364.51 351.052,1364.99 353.266,1365.47 355.48,1365.96 357.694,1366.44 359.909,1366.93 362.123,1367.42 364.337,1367.91 366.552,1368.39 368.766,1368.88 370.98,1369.37 373.194,1369.85 375.409,1370.33 377.623,1370.81 379.837,1371.29 382.051,1371.76 384.266,1372.23 386.48,1372.7 388.694,1373.16 390.909,1373.61 393.123,1374.06 395.337,1374.51 397.551,1374.94 399.766,1375.37 401.98,1375.8 404.194,1376.21 406.408,1376.62 408.623,1377.02 410.837,1377.41 413.051,1377.79 415.266,1378.17 417.48,1378.53 419.694,1378.88 421.908,1379.23 424.123,1379.56 426.337,1379.89 428.551,1380.2 430.766,1380.5 432.98,1380.8 435.194,1381.08 437.408,1381.35 439.623,1381.61 441.837,1381.85 444.051,1382.09 446.265,1382.31 448.48,1382.52 450.694,1382.72 452.908,1382.91 455.123,1383.08 457.337,1383.24 459.551,1383.39 461.765,1383.53 463.98,1383.66 466.194,1383.77 468.408,1383.87 470.622,1383.96 472.837,1384.03 475.051,1384.1 477.265,1384.15 479.48,1384.19 481.694,1384.22 483.908,1384.23 486.122,1384.24 488.337,1384.23 490.551,1384.21 492.765,1384.18 494.979,1384.14 497.194,1384.09 499.408,1384.02 501.622,1383.95 503.837,1383.86 506.051,1383.77 508.265,1383.66 510.479,1383.54 512.694,1383.42 514.908,1383.28 517.122,1383.14 519.337,1382.98 521.551,1382.82 523.765,1382.65 525.979,1382.47 528.194,1382.28 530.408,1382.08 532.622,1381.88 534.836,1381.67 537.051,1381.45 539.265,1381.23 541.479,1381 543.694,1380.76 545.908,1380.52 548.122,1380.27 550.336,1380.02 552.551,1379.76 554.765,1379.49 556.979,1379.23 559.193,1378.96 561.408,1378.68 563.622,1378.4 565.836,1378.12 568.051,1377.84 570.265,1377.55 572.479,1377.26 574.693,1376.97 576.908,1376.68 579.122,1376.38 581.336,1376.09 583.55,1375.8 585.765,1375.5 587.979,1375.2 590.193,1374.91 592.408,1374.62 594.622,1374.32 596.836,1374.03 599.05,1373.74 601.265,1373.45 603.479,1373.16 605.693,1372.88 607.907,1372.59 610.122,1372.32 612.336,1372.04 614.55,1371.77 616.765,1371.5 618.979,1371.23 621.193,1370.97 623.407,1370.71 625.622,1370.46 627.836,1370.21 630.05,1369.96 632.265,1369.72 634.479,1369.49 636.693,1369.26 638.907,1369.04 641.122,1368.82 643.336,1368.61 645.55,1368.4 647.764,1368.2 649.979,1368.01 652.193,1367.82 654.407,1367.64 656.622,1367.47 658.836,1367.3 661.05,1367.14 663.264,1366.99 665.479,1366.85 667.693,1366.71 669.907,1366.58 672.121,1366.45 674.336,1366.34 676.55,1366.23 678.764,1366.13 680.979,1366.03 683.193,1365.94 685.407,1365.86 687.621,1365.79 689.836,1365.73 692.05,1365.67 694.264,1365.62 696.478,1365.58 698.693,1365.54 700.907,1365.51 703.121,1365.49 705.336,1365.48 707.55,1365.47 709.764,1365.48 711.978,1365.48 714.193,1365.5 716.407,1365.52 718.621,1365.55 720.835,1365.58 723.05,1365.63 725.264,1365.67 727.478,1365.73 729.693,1365.79 731.907,1365.86 734.121,1365.93 736.335,1366.01 738.55,1366.1 740.764,1366.19 742.978,1366.28 745.193,1366.38 747.407,1366.49 749.621,1366.6 751.835,1366.72 754.05,1366.84 756.264,1366.96 758.478,1367.09 760.692,1367.23 762.907,1367.36 765.121,1367.51 767.335,1367.65 769.55,1367.8 771.764,1367.95 773.978,1368.11 776.192,1368.26 778.407,1368.42 780.621,1368.59 782.835,1368.75 785.049,1368.92 787.264,1369.09 789.478,1369.26 791.692,1369.43 793.907,1369.61 796.121,1369.78 798.335,1369.96 800.549,1370.13 802.764,1370.31 804.978,1370.49 807.192,1370.67 809.406,1370.85 811.621,1371.03 813.835,1371.2 816.049,1371.38 818.264,1371.56 820.478,1371.74 822.692,1371.91 824.906,1372.09 827.121,1372.26 829.335,1372.43 831.549,1372.6 833.764,1372.77 835.978,1372.93 838.192,1373.1 840.406,1373.26 842.621,1373.42 844.835,1373.58 847.049,1373.73 849.263,1373.89 851.478,1374.03 853.692,1374.18 855.906,1374.32 858.121,1374.46 860.335,1374.6 862.549,1374.73 864.763,1374.86 866.978,1374.99 869.192,1375.11 871.406,1375.23 873.62,1375.34 875.835,1375.45 878.049,1375.56 880.263,1375.66 882.478,1375.76 884.692,1375.86 886.906,1375.95 889.12,1376.03 891.335,1376.11 893.549,1376.19 895.763,1376.26 897.977,1376.33 900.192,1376.4 902.406,1376.46 904.62,1376.51 906.835,1376.56 909.049,1376.61 911.263,1376.65 913.477,1376.69 915.692,1376.72 917.906,1376.75 920.12,1376.77 922.334,1376.79 924.549,1376.8 926.763,1376.81 928.977,1376.82 931.192,1376.82 933.406,1376.82 935.62,1376.81 937.834,1376.8 940.049,1376.78 942.263,1376.76 944.477,1376.74 946.692,1376.71 948.906,1376.68 951.12,1376.65 953.334,1376.61 955.549,1376.57 957.763,1376.52 959.977,1376.47 962.191,1376.42 964.406,1376.36 966.62,1376.3 968.834,1376.24 971.049,1376.17 973.263,1376.1 975.477,1376.03 977.691,1375.96 979.906,1375.88 982.12,1375.8 984.334,1375.72 986.548,1375.64 988.763,1375.55 990.977,1375.46 993.191,1375.37 995.406,1375.28 997.62,1375.18 999.834,1375.09 1002.05,1374.99 1004.26,1374.89 1006.48,1374.79 1008.69,1374.69 1010.91,1374.58 1013.12,1374.48 1015.33,1374.37 1017.55,1374.27 1019.76,1374.16 1021.98,1374.05 1024.19,1373.95 1026.41,1373.84 1028.62,1373.73 1030.83,1373.62 1033.05,1373.52 1035.26,1373.41 1037.48,1373.3 1039.69,1373.19 1041.91,1373.09 1044.12,1372.98 1046.33,1372.87 1048.55,1372.77 1050.76,1372.67 1052.98,1372.56 1055.19,1372.46 1057.41,1372.36 1059.62,1372.26 1061.83,1372.16 1064.05,1372.06 1066.26,1371.97 1068.48,1371.87 1070.69,1371.78 1072.91,1371.69 1075.12,1371.6 1077.33,1371.51 1079.55,1371.43 1081.76,1371.34 1083.98,1371.26 1086.19,1371.18 1088.41,1371.11 1090.62,1371.03 1092.83,1370.96 1095.05,1370.89 1097.26,1370.82 1099.48,1370.75 1101.69,1370.69 1103.91,1370.63 1106.12,1370.57 1108.33,1370.51 1110.55,1370.46 1112.76,1370.41 1114.98,1370.36 1117.19,1370.32 1119.4,1370.27 1121.62,1370.23 1123.83,1370.2 1126.05,1370.16 1128.26,1370.13 1130.48,1370.1 1132.69,1370.08 1134.9,1370.05 1137.12,1370.03 1139.33,1370.01 1141.55,1370 1143.76,1369.98 1145.98,1369.97 1148.19,1369.97 1150.4,1369.96 1152.62,1369.96 1154.83,1369.96 1157.05,1369.96 1159.26,1369.97 1161.48,1369.98 1163.69,1369.99 1165.9,1370 1168.12,1370.02 1170.33,1370.03 1172.55,1370.05 1174.76,1370.08 1176.98,1370.1 1179.19,1370.13 1181.4,1370.16 1183.62,1370.19 1185.83,1370.22 1188.05,1370.26 1190.26,1370.29 1192.48,1370.33 1194.69,1370.37 1196.9,1370.41 1199.12,1370.46 1201.33,1370.5 1203.55,1370.55 1205.76,1370.6 1207.98,1370.65 1210.19,1370.7 1212.4,1370.76 1214.62,1370.81 1216.83,1370.87 1219.05,1370.92 1221.26,1370.98 1223.48,1371.04 1225.69,1371.1 1227.9,1371.16 1230.12,1371.22 1232.33,1371.28 1234.55,1371.35 1236.76,1371.41 1238.98,1371.47 1241.19,1371.54 1243.4,1371.6 1245.62,1371.67 1247.83,1371.73 1250.05,1371.8 1252.26,1371.86 1254.48,1371.93 1256.69,1371.99 1258.9,1372.06 1261.12,1372.12 1263.33,1372.19 1265.55,1372.25 1267.76,1372.32 1269.98,1372.38 1272.19,1372.44 1274.4,1372.51 1276.62,1372.57 1278.83,1372.63 1281.05,1372.69 1283.26,1372.75 1285.48,1372.81 1287.69,1372.87 1289.9,1372.93 1292.12,1372.98 1294.33,1373.04 1296.55,1373.09 1298.76,1373.14 1300.98,1373.2 1303.19,1373.25 1305.4,1373.3 1307.62,1373.35 1309.83,1373.39 1312.05,1373.44 1314.26,1373.48 1316.48,1373.53 1318.69,1373.57 1320.9,1373.61 1323.12,1373.65 1325.33,1373.69 1327.55,1373.72 1329.76,1373.76 1331.98,1373.79 1334.19,1373.82 1336.4,1373.85 1338.62,1373.88 1340.83,1373.91 1343.05,1373.93 1345.26,1373.95 1347.48,1373.98 1349.69,1374 1351.9,1374.01 1354.12,1374.03 1356.33,1374.05 1358.55,1374.06 1360.76,1374.07 1362.98,1374.08 1365.19,1374.09 1367.4,1374.1 1369.62,1374.1 1371.83,1374.11 1374.05,1374.11 1376.26,1374.11 1378.48,1374.11 1380.69,1374.1 1382.9,1374.1 1385.12,1374.09 1387.33,1374.09 1389.55,1374.08 1391.76,1374.07 1393.97,1374.06 1396.19,1374.04 1398.4,1374.03 1400.62,1374.01 1402.83,1374 1405.05,1373.98 1407.26,1373.96 1409.47,1373.94 1411.69,1373.92 1413.9,1373.89 1416.12,1373.87 1418.33,1373.84 1420.55,1373.82 1422.76,1373.79 1424.97,1373.76 1427.19,1373.73 1429.4,1373.7 1431.62,1373.67 1433.83,1373.64 1436.05,1373.61 1438.26,1373.58 1440.47,1373.54 1442.69,1373.51 1444.9,1373.47 1447.12,1373.44 1449.33,1373.4 1451.55,1373.36 1453.76,1373.33 1455.97,1373.29 1458.19,1373.25 1460.4,1373.21 1462.62,1373.17 1464.83,1373.13 1467.05,1373.09 1469.26,1373.06 1471.47,1373.02 1473.69,1372.98 1475.9,1372.94 1478.12,1372.9 1480.33,1372.86 1482.55,1372.82 1484.76,1372.78 1486.97,1372.74 1489.19,1372.7 1491.4,1372.66 1493.62,1372.62 1495.83,1372.59 1498.05,1372.55 1500.26,1372.51 1502.47,1372.47 1504.69,1372.44 1506.9,1372.4 1509.12,1372.37 1511.33,1372.33 1513.55,1372.3 1515.76,1372.26 1517.97,1372.23 1520.19,1372.2 1522.4,1372.16 1524.62,1372.13 1526.83,1372.1 1529.05,1372.07 1531.26,1372.04 1533.47,1372.02 1535.69,1371.99 1537.9,1371.96 1540.12,1371.94 1542.33,1371.91 1544.55,1371.89 1546.76,1371.86 1548.97,1371.84 1551.19,1371.82 1553.4,1371.8 1555.62,1371.78 1557.83,1371.76 1560.05,1371.75 1562.26,1371.73 1564.47,1371.71 1566.69,1371.7 1568.9,1371.69 1571.12,1371.67 1573.33,1371.66 1575.55,1371.65 1577.76,1371.64 1579.97,1371.63 1582.19,1371.63 1584.4,1371.62 1586.62,1371.61 1588.83,1371.61 1591.05,1371.61 1593.26,1371.6 1595.47,1371.6 1597.69,1371.6 1599.9,1371.6 1602.12,1371.6 1604.33,1371.6 1606.55,1371.61 1608.76,1371.61 1610.97,1371.61 1613.19,1371.62 1615.4,1371.63 1617.62,1371.63 1619.83,1371.64 1622.05,1371.65 1624.26,1371.66 1626.47,1371.67 1628.69,1371.68 1630.9,1371.7 1633.12,1371.71 1635.33,1371.72 1637.55,1371.74 1639.76,1371.75 1641.97,1371.77 1644.19,1371.78 1646.4,1371.8 1648.62,1371.82 1650.83,1371.84 1653.05,1371.86 1655.26,1371.87 1657.47,1371.89 1659.69,1371.91 1661.9,1371.93 1664.12,1371.96 1666.33,1371.98 1668.55,1372 1670.76,1372.02 1672.97,1372.04 1675.19,1372.06 1677.4,1372.09 1679.62,1372.11 1681.83,1372.13 1684.04,1372.16 1686.26,1372.18 1688.47,1372.2 1690.69,1372.23 1692.9,1372.25 1695.12,1372.27 1697.33,1372.3 1699.54,1372.32 1701.76,1372.35 1703.97,1372.37 1706.19,1372.39 1708.4,1372.42 1710.62,1372.44 1712.83,1372.46 1715.04,1372.49 1717.26,1372.51 1719.47,1372.53 1721.69,1372.56 1723.9,1372.58 1726.12,1372.6 1728.33,1372.62 1730.54,1372.64 1732.76,1372.67 1734.97,1372.69 1737.19,1372.71 1739.4,1372.73 1741.62,1372.75 1743.83,1372.77 1746.04,1372.79 1748.26,1372.81 1750.47,1372.82 1752.69,1372.84 1754.9,1372.86 1757.12,1372.88 1759.33,1372.89 1761.54,1372.91 1763.76,1372.92 1765.97,1372.94 1768.19,1372.95 1770.4,1372.97 1772.62,1372.98 1774.83,1372.99 1777.04,1373 1779.26,1373.01 1781.47,1373.03 1783.69,1373.04 1785.9,1373.05 1788.12,1373.05 1790.33,1373.06 1792.54,1373.07 1794.76,1373.08 1796.97,1373.08 1799.19,1373.09 1801.4,1373.1 1803.62,1373.1 1805.83,1373.11 1808.04,1373.11 1810.26,1373.11 1812.47,1373.11 1814.69,1373.12 1816.9,1373.12 1819.12,1373.12 1821.33,1373.12 1823.54,1373.12 1825.76,1373.12 1827.97,1373.11 1830.19,1373.11 1832.4,1373.11 1834.62,1373.11 1836.83,1373.1 1839.04,1373.1 1841.26,1373.09 1843.47,1373.09 1845.69,1373.08 1847.9,1373.07 1850.12,1373.07 1852.33,1373.06 1854.54,1373.05 1856.76,1373.04 1858.97,1373.04 1861.19,1373.03 1863.4,1373.02 1865.62,1373.01 1867.83,1373 1870.04,1372.99 1872.26,1372.98 1874.47,1372.97 1876.69,1372.95 1878.9,1372.94 1881.12,1372.93 1883.33,1372.92 1885.54,1372.91 1887.76,1372.89 1889.97,1372.88 1892.19,1372.87 1894.4,1372.85 1896.62,1372.84 1898.83,1372.83 1901.04,1372.81 1903.26,1372.8 1905.47,1372.79 1907.69,1372.77 1909.9,1372.76 1912.12,1372.74 1914.33,1372.73 1916.54,1372.71 1918.76,1372.7 1920.97,1372.69 1923.19,1372.67 1925.4,1372.66 1927.62,1372.64 1929.83,1372.63 1932.04,1372.61 1934.26,1372.6 1936.47,1372.58 1938.69,1372.57 1940.9,1372.56 1943.12,1372.54 1945.33,1372.53 1947.54,1372.51 1949.76,1372.5 1951.97,1372.49 1954.19,1372.47 1956.4,1372.46 1958.62,1372.45 1960.83,1372.44 1963.04,1372.42 1965.26,1372.41 1967.47,1372.4 1969.69,1372.39 1971.9,1372.38 1974.11,1372.37 1976.33,1372.36 1978.54,1372.35 1980.76,1372.34 1982.97,1372.33 1985.19,1372.32 1987.4,1372.31 1989.61,1372.3 1991.83,1372.29 1994.04,1372.28 1996.26,1372.28 1998.47,1372.27 2000.69,1372.26 2002.9,1372.25 2005.11,1372.25 2007.33,1372.24 2009.54,1372.24 2011.76,1372.23 2013.97,1372.23 2016.19,1372.22 2018.4,1372.22 2020.61,1372.21 2022.83,1372.21 2025.04,1372.21 2027.26,1372.21 2029.47,1372.2 2031.69,1372.2 2033.9,1372.2 2036.11,1372.2 2038.33,1372.2 2040.54,1372.2 2042.76,1372.2 2044.97,1372.2 2047.19,1372.2 2049.4,1372.2 2051.61,1372.2 2053.83,1372.2 2056.04,1372.21 2058.26,1372.21 2060.47,1372.21 2062.69,1372.21 2064.9,1372.22 2067.11,1372.22 2069.33,1372.22 2071.54,1372.23 2073.76,1372.23 2075.97,1372.24 2078.19,1372.24 2080.4,1372.25 2082.61,1372.25 2084.83,1372.26 2087.04,1372.26 2089.26,1372.27 2091.47,1372.28 2093.69,1372.28 2095.9,1372.29 2098.11,1372.29 2100.33,1372.3 2102.54,1372.31 2104.76,1372.32 2106.97,1372.32 2109.19,1372.33 2111.4,1372.34 2113.61,1372.35 2115.83,1372.36 2118.04,1372.36 2120.26,1372.37 2122.47,1372.38 2124.69,1372.39 2126.9,1372.4 2129.11,1372.41 2131.33,1372.41 2133.54,1372.42 2135.76,1372.43 2137.97,1372.44 2140.19,1372.45 2142.4,1372.46 2144.61,1372.47 2146.83,1372.48 2149.04,1372.48 2151.26,1372.49 2153.47,1372.5 2155.69,1372.51 2157.9,1372.52 2160.11,1372.53 2162.33,1372.54 2164.54,1372.55 2166.76,1372.55 2168.97,1372.56 2171.19,1372.57 2173.4,1372.58 2175.61,1372.59 2177.83,1372.59 2180.04,1372.6 2182.26,1372.61 2184.47,1372.62 2186.69,1372.62 2188.9,1372.63 2191.11,1372.64 2193.33,1372.64 2195.54,1372.65 2197.76,1372.66 2199.97,1372.66 2202.19,1372.67 2204.4,1372.68 2206.61,1372.68 2208.83,1372.69 2211.04,1372.69 2213.26,1372.7 2215.47,1372.7 2217.69,1372.71 2219.9,1372.71 2222.11,1372.72 2224.33,1372.72 2226.54,1372.73 2228.76,1372.73 2230.97,1372.73 2233.19,1372.74 2235.4,1372.74 2237.61,1372.74 2239.83,1372.74 2242.04,1372.75 2244.26,1372.75 2246.47,1372.75 2248.68,1372.75 2250.9,1372.75 2253.11,1372.75 2255.33,1372.76 2257.54,1372.76 2259.76,1372.76 2261.97,1372.76 2264.18,1372.76 2266.4,1372.76 2268.61,1372.76 2270.83,1372.76 2273.04,1372.75 2275.26,1372.75 2277.47,1372.75 2279.68,1372.75 2281.9,1372.75 2284.11,1372.75 2286.33,1372.75 2288.54,1372.74 2290.76,1372.74 2292.97,1372.74 2295.18,1372.74 2297.4,1372.73 2299.61,1372.73 2301.83,1372.73 2304.04,1372.72 2306.26,1372.72 2308.47,1372.72 2310.68,1372.71 2312.9,1372.71 2315.11,1372.71 2317.33,1372.7 2319.54,1372.7 2321.76,1372.69 2323.97,1372.69 2326.18,1372.68 2328.4,1372.68 2330.61,1372.67 2332.83,1372.67 2335.04,1372.66 2337.26,1372.66 2339.47,1372.66 2341.68,1372.65 2343.9,1372.64 2346.11,1372.64 2348.33,1372.63 2350.54,1372.63 2352.76,1372.62 "></polyline>
<path clip-path="url(#clip690)" d="M1947.49 248.629 L2279.02 248.629 L2279.02 93.1086 L1947.49 93.1086  Z" fill="#ffffff" fill-rule="evenodd" fill-opacity="1"></path>
<polyline clip-path="url(#clip690)" style="stroke:#000000; stroke-linecap:round; stroke-linejoin:round; stroke-width:4; stroke-opacity:1; fill:none" points="1947.49,248.629 2279.02,248.629 2279.02,93.1086 1947.49,93.1086 1947.49,248.629 "></polyline>
<polyline clip-path="url(#clip690)" style="stroke:#009af9; stroke-linecap:round; stroke-linejoin:round; stroke-width:4; stroke-opacity:1; fill:none" points="1972.07,144.949 2119.54,144.949 "></polyline>
<path clip-path="url(#clip690)" d="M2157.31 162.229 L2144.12 127.669 L2149 127.669 L2159.95 156.766 L2170.92 127.669 L2175.79 127.669 L2162.61 162.229 L2157.31 162.229 Z" fill="#000000" fill-rule="nonzero" fill-opacity="1"></path><path clip-path="url(#clip690)" d="M2190.88 126.257 Q2187.78 131.581 2186.27 136.789 Q2184.77 141.997 2184.77 147.344 Q2184.77 152.692 2186.27 157.946 Q2187.8 163.178 2190.88 168.479 L2187.17 168.479 Q2183.7 163.039 2181.97 157.784 Q2180.25 152.53 2180.25 147.344 Q2180.25 142.182 2181.97 136.951 Q2183.68 131.72 2187.17 126.257 L2190.88 126.257 Z" fill="#000000" fill-rule="nonzero" fill-opacity="1"></path><path clip-path="url(#clip690)" d="M2203.35 128.942 L2203.35 136.303 L2212.13 136.303 L2212.13 139.613 L2203.35 139.613 L2203.35 153.687 Q2203.35 156.858 2204.21 157.761 Q2205.09 158.664 2207.75 158.664 L2212.13 158.664 L2212.13 162.229 L2207.75 162.229 Q2202.82 162.229 2200.95 160.4 Q2199.07 158.548 2199.07 153.687 L2199.07 139.613 L2195.95 139.613 L2195.95 136.303 L2199.07 136.303 L2199.07 128.942 L2203.35 128.942 Z" fill="#000000" fill-rule="nonzero" fill-opacity="1"></path><path clip-path="url(#clip690)" d="M2217.06 126.257 L2220.76 126.257 Q2224.23 131.72 2225.95 136.951 Q2227.68 142.182 2227.68 147.344 Q2227.68 152.53 2225.95 157.784 Q2224.23 163.039 2220.76 168.479 L2217.06 168.479 Q2220.14 163.178 2221.64 157.946 Q2223.17 152.692 2223.17 147.344 Q2223.17 141.997 2221.64 136.789 Q2220.14 131.581 2217.06 126.257 Z" fill="#000000" fill-rule="nonzero" fill-opacity="1"></path><polyline clip-path="url(#clip690)" style="stroke:#e26f46; stroke-linecap:round; stroke-linejoin:round; stroke-width:4; stroke-opacity:1; fill:none" points="1972.07,196.789 2119.54,196.789 "></polyline>
<path clip-path="url(#clip690)" d="M2144.12 188.143 L2148.38 188.143 L2148.38 214.069 L2144.12 214.069 L2144.12 188.143 M2144.12 178.05 L2148.38 178.05 L2148.38 183.444 L2144.12 183.444 L2144.12 178.05 Z" fill="#000000" fill-rule="nonzero" fill-opacity="1"></path><path clip-path="url(#clip690)" d="M2176.99 221.939 L2176.99 225.249 L2152.36 225.249 L2152.36 221.939 L2176.99 221.939 Z" fill="#000000" fill-rule="nonzero" fill-opacity="1"></path><path clip-path="url(#clip690)" d="M2181.18 179.509 L2185.85 179.509 L2185.85 210.133 L2202.68 210.133 L2202.68 214.069 L2181.18 214.069 L2181.18 179.509 Z" fill="#000000" fill-rule="nonzero" fill-opacity="1"></path><path clip-path="url(#clip690)" d="M2217.64 178.097 Q2214.53 183.421 2213.03 188.629 Q2211.53 193.837 2211.53 199.184 Q2211.53 204.532 2213.03 209.786 Q2214.56 215.018 2217.64 220.319 L2213.93 220.319 Q2210.46 214.879 2208.72 209.624 Q2207.01 204.37 2207.01 199.184 Q2207.01 194.022 2208.72 188.791 Q2210.44 183.56 2213.93 178.097 L2217.64 178.097 Z" fill="#000000" fill-rule="nonzero" fill-opacity="1"></path><path clip-path="url(#clip690)" d="M2230.11 180.782 L2230.11 188.143 L2238.89 188.143 L2238.89 191.453 L2230.11 191.453 L2230.11 205.527 Q2230.11 208.698 2230.97 209.601 Q2231.85 210.504 2234.51 210.504 L2238.89 210.504 L2238.89 214.069 L2234.51 214.069 Q2229.58 214.069 2227.71 212.24 Q2225.83 210.388 2225.83 205.527 L2225.83 191.453 L2222.71 191.453 L2222.71 188.143 L2225.83 188.143 L2225.83 180.782 L2230.11 180.782 Z" fill="#000000" fill-rule="nonzero" fill-opacity="1"></path><path clip-path="url(#clip690)" d="M2243.82 178.097 L2247.52 178.097 Q2250.99 183.56 2252.71 188.791 Q2254.44 194.022 2254.44 199.184 Q2254.44 204.37 2252.71 209.624 Q2250.99 214.879 2247.52 220.319 L2243.82 220.319 Q2246.9 215.018 2248.4 209.786 Q2249.93 204.532 2249.93 199.184 Q2249.93 193.837 2248.4 188.629 Q2246.9 183.421 2243.82 178.097 Z" fill="#000000" fill-rule="nonzero" fill-opacity="1"></path></svg>