<svg xmlns="http://www.w3.org/2000/svg" xmlns:xlink="http://www.w3.org/1999/xlink" width="600" height="400" viewBox="0 0 2400 1600">
<defs>
  <clipPath id="clip940">
    <rect x="0" y="0" width="2400" height="1600"></rect>
  </clipPath>
</defs>
<path clip-path="url(#clip940)" d="M0 1600 L2400 1600 L2400 0 L0 0  Z" fill="#ffffff" fill-rule="evenodd" fill-opacity="1"></path>
<defs>
  <clipPath id="clip941">
    <rect x="480" y="0" width="1681" height="1600"></rect>
  </clipPath>
</defs>
<path clip-path="url(#clip940)" d="M178.867 1423.18 L2352.76 1423.18 L2352.76 47.2441 L178.867 47.2441  Z" fill="#ffffff" fill-rule="evenodd" fill-opacity="1"></path>
<defs>
  <clipPath id="clip942">
    <rect x="178" y="47" width="2175" height="1377"></rect>
  </clipPath>
</defs>
<polyline clip-path="url(#clip942)" style="stroke:#000000; stroke-linecap:round; stroke-linejoin:round; stroke-width:2; stroke-opacity:0.1; fill:none" points="178.867,1423.18 178.867,47.2441 "></polyline>
<polyline clip-path="url(#clip942)" style="stroke:#000000; stroke-linecap:round; stroke-linejoin:round; stroke-width:2; stroke-opacity:0.1; fill:none" points="722.339,1423.18 722.339,47.2441 "></polyline>
<polyline clip-path="url(#clip942)" style="stroke:#000000; stroke-linecap:round; stroke-linejoin:round; stroke-width:2; stroke-opacity:0.1; fill:none" points="1265.81,1423.18 1265.81,47.2441 "></polyline>
<polyline clip-path="url(#clip942)" style="stroke:#000000; stroke-linecap:round; stroke-linejoin:round; stroke-width:2; stroke-opacity:0.1; fill:none" points="1809.28,1423.18 1809.28,47.2441 "></polyline>
<polyline clip-path="url(#clip942)" style="stroke:#000000; stroke-linecap:round; stroke-linejoin:round; stroke-width:2; stroke-opacity:0.1; fill:none" points="2352.76,1423.18 2352.76,47.2441 "></polyline>
<polyline clip-path="url(#clip940)" style="stroke:#000000; stroke-linecap:round; stroke-linejoin:round; stroke-width:4; stroke-opacity:1; fill:none" points="178.867,1423.18 2352.76,1423.18 "></polyline>
<polyline clip-path="url(#clip940)" style="stroke:#000000; stroke-linecap:round; stroke-linejoin:round; stroke-width:4; stroke-opacity:1; fill:none" points="178.867,1423.18 178.867,1404.28 "></polyline>
<polyline clip-path="url(#clip940)" style="stroke:#000000; stroke-linecap:round; stroke-linejoin:round; stroke-width:4; stroke-opacity:1; fill:none" points="722.339,1423.18 722.339,1404.28 "></polyline>
<polyline clip-path="url(#clip940)" style="stroke:#000000; stroke-linecap:round; stroke-linejoin:round; stroke-width:4; stroke-opacity:1; fill:none" points="1265.81,1423.18 1265.81,1404.28 "></polyline>
<polyline clip-path="url(#clip940)" style="stroke:#000000; stroke-linecap:round; stroke-linejoin:round; stroke-width:4; stroke-opacity:1; fill:none" points="1809.28,1423.18 1809.28,1404.28 "></polyline>
<polyline clip-path="url(#clip940)" style="stroke:#000000; stroke-linecap:round; stroke-linejoin:round; stroke-width:4; stroke-opacity:1; fill:none" points="2352.76,1423.18 2352.76,1404.28 "></polyline>
<path clip-path="url(#clip940)" d="M156.251 1454.1 Q152.64 1454.1 150.811 1457.66 Q149.006 1461.2 149.006 1468.33 Q149.006 1475.44 150.811 1479.01 Q152.64 1482.55 156.251 1482.55 Q159.885 1482.55 161.691 1479.01 Q163.519 1475.44 163.519 1468.33 Q163.519 1461.2 161.691 1457.66 Q159.885 1454.1 156.251 1454.1 M156.251 1450.39 Q162.061 1450.39 165.117 1455 Q168.195 1459.58 168.195 1468.33 Q168.195 1477.06 165.117 1481.67 Q162.061 1486.25 156.251 1486.25 Q150.441 1486.25 147.362 1481.67 Q144.307 1477.06 144.307 1468.33 Q144.307 1459.58 147.362 1455 Q150.441 1450.39 156.251 1450.39 Z" fill="#000000" fill-rule="nonzero" fill-opacity="1"></path><path clip-path="url(#clip940)" d="M176.413 1479.7 L181.297 1479.7 L181.297 1485.58 L176.413 1485.58 L176.413 1479.7 Z" fill="#000000" fill-rule="nonzero" fill-opacity="1"></path><path clip-path="url(#clip940)" d="M201.482 1454.1 Q197.871 1454.1 196.042 1457.66 Q194.237 1461.2 194.237 1468.33 Q194.237 1475.44 196.042 1479.01 Q197.871 1482.55 201.482 1482.55 Q205.116 1482.55 206.922 1479.01 Q208.751 1475.44 208.751 1468.33 Q208.751 1461.2 206.922 1457.66 Q205.116 1454.1 201.482 1454.1 M201.482 1450.39 Q207.292 1450.39 210.348 1455 Q213.427 1459.58 213.427 1468.33 Q213.427 1477.06 210.348 1481.67 Q207.292 1486.25 201.482 1486.25 Q195.672 1486.25 192.593 1481.67 Q189.538 1477.06 189.538 1468.33 Q189.538 1459.58 192.593 1455 Q195.672 1450.39 201.482 1450.39 Z" fill="#000000" fill-rule="nonzero" fill-opacity="1"></path><path clip-path="url(#clip940)" d="M700.221 1454.1 Q696.61 1454.1 694.781 1457.66 Q692.976 1461.2 692.976 1468.33 Q692.976 1475.44 694.781 1479.01 Q696.61 1482.55 700.221 1482.55 Q703.855 1482.55 705.661 1479.01 Q707.489 1475.44 707.489 1468.33 Q707.489 1461.2 705.661 1457.66 Q703.855 1454.1 700.221 1454.1 M700.221 1450.39 Q706.031 1450.39 709.087 1455 Q712.165 1459.58 712.165 1468.33 Q712.165 1477.06 709.087 1481.67 Q706.031 1486.25 700.221 1486.25 Q694.411 1486.25 691.332 1481.67 Q688.277 1477.06 688.277 1468.33 Q688.277 1459.58 691.332 1455 Q694.411 1450.39 700.221 1450.39 Z" fill="#000000" fill-rule="nonzero" fill-opacity="1"></path><path clip-path="url(#clip940)" d="M720.383 1479.7 L725.267 1479.7 L725.267 1485.58 L720.383 1485.58 L720.383 1479.7 Z" fill="#000000" fill-rule="nonzero" fill-opacity="1"></path><path clip-path="url(#clip940)" d="M735.499 1451.02 L753.855 1451.02 L753.855 1454.96 L739.781 1454.96 L739.781 1463.43 Q740.8 1463.08 741.818 1462.92 Q742.837 1462.73 743.855 1462.73 Q749.642 1462.73 753.022 1465.9 Q756.401 1469.08 756.401 1474.49 Q756.401 1480.07 752.929 1483.17 Q749.457 1486.25 743.137 1486.25 Q740.962 1486.25 738.693 1485.88 Q736.448 1485.51 734.04 1484.77 L734.04 1480.07 Q736.124 1481.2 738.346 1481.76 Q740.568 1482.32 743.045 1482.32 Q747.049 1482.32 749.387 1480.21 Q751.725 1478.1 751.725 1474.49 Q751.725 1470.88 749.387 1468.77 Q747.049 1466.67 743.045 1466.67 Q741.17 1466.67 739.295 1467.08 Q737.443 1467.5 735.499 1468.38 L735.499 1451.02 Z" fill="#000000" fill-rule="nonzero" fill-opacity="1"></path><path clip-path="url(#clip940)" d="M1232.96 1481.64 L1240.6 1481.64 L1240.6 1455.28 L1232.29 1456.95 L1232.29 1452.69 L1240.56 1451.02 L1245.23 1451.02 L1245.23 1481.64 L1252.87 1481.64 L1252.87 1485.58 L1232.96 1485.58 L1232.96 1481.64 Z" fill="#000000" fill-rule="nonzero" fill-opacity="1"></path><path clip-path="url(#clip940)" d="M1262.32 1479.7 L1267.2 1479.7 L1267.2 1485.58 L1262.32 1485.58 L1262.32 1479.7 Z" fill="#000000" fill-rule="nonzero" fill-opacity="1"></path><path clip-path="url(#clip940)" d="M1287.39 1454.1 Q1283.77 1454.1 1281.95 1457.66 Q1280.14 1461.2 1280.14 1468.33 Q1280.14 1475.44 1281.95 1479.01 Q1283.77 1482.55 1287.39 1482.55 Q1291.02 1482.55 1292.83 1479.01 Q1294.65 1475.44 1294.65 1468.33 Q1294.65 1461.2 1292.83 1457.66 Q1291.02 1454.1 1287.39 1454.1 M1287.39 1450.39 Q1293.2 1450.39 1296.25 1455 Q1299.33 1459.58 1299.33 1468.33 Q1299.33 1477.06 1296.25 1481.67 Q1293.2 1486.25 1287.39 1486.25 Q1281.58 1486.25 1278.5 1481.67 Q1275.44 1477.06 1275.44 1468.33 Q1275.44 1459.58 1278.5 1455 Q1281.58 1450.39 1287.39 1450.39 Z" fill="#000000" fill-rule="nonzero" fill-opacity="1"></path><path clip-path="url(#clip940)" d="M1776.93 1481.64 L1784.57 1481.64 L1784.57 1455.28 L1776.26 1456.95 L1776.26 1452.69 L1784.53 1451.02 L1789.2 1451.02 L1789.2 1481.64 L1796.84 1481.64 L1796.84 1485.58 L1776.93 1485.58 L1776.93 1481.64 Z" fill="#000000" fill-rule="nonzero" fill-opacity="1"></path><path clip-path="url(#clip940)" d="M1806.29 1479.7 L1811.17 1479.7 L1811.17 1485.58 L1806.29 1485.58 L1806.29 1479.7 Z" fill="#000000" fill-rule="nonzero" fill-opacity="1"></path><path clip-path="url(#clip940)" d="M1821.4 1451.02 L1839.76 1451.02 L1839.76 1454.96 L1825.68 1454.96 L1825.68 1463.43 Q1826.7 1463.08 1827.72 1462.92 Q1828.74 1462.73 1829.76 1462.73 Q1835.55 1462.73 1838.92 1465.9 Q1842.3 1469.08 1842.3 1474.49 Q1842.3 1480.07 1838.83 1483.17 Q1835.36 1486.25 1829.04 1486.25 Q1826.86 1486.25 1824.6 1485.88 Q1822.35 1485.51 1819.94 1484.77 L1819.94 1480.07 Q1822.03 1481.2 1824.25 1481.76 Q1826.47 1482.32 1828.95 1482.32 Q1832.95 1482.32 1835.29 1480.21 Q1837.63 1478.1 1837.63 1474.49 Q1837.63 1470.88 1835.29 1468.77 Q1832.95 1466.67 1828.95 1466.67 Q1827.07 1466.67 1825.2 1467.08 Q1823.35 1467.5 1821.4 1468.38 L1821.4 1451.02 Z" fill="#000000" fill-rule="nonzero" fill-opacity="1"></path><path clip-path="url(#clip940)" d="M2323.99 1481.64 L2340.31 1481.64 L2340.31 1485.58 L2318.37 1485.58 L2318.37 1481.64 Q2321.03 1478.89 2325.61 1474.26 Q2330.22 1469.61 2331.4 1468.27 Q2333.65 1465.74 2334.53 1464.01 Q2335.43 1462.25 2335.43 1460.56 Q2335.43 1457.8 2333.49 1456.07 Q2331.56 1454.33 2328.46 1454.33 Q2326.26 1454.33 2323.81 1455.09 Q2321.38 1455.86 2318.6 1457.41 L2318.6 1452.69 Q2321.43 1451.55 2323.88 1450.97 Q2326.33 1450.39 2328.37 1450.39 Q2333.74 1450.39 2336.93 1453.08 Q2340.13 1455.77 2340.13 1460.26 Q2340.13 1462.39 2339.32 1464.31 Q2338.53 1466.2 2336.42 1468.8 Q2335.85 1469.47 2332.74 1472.69 Q2329.64 1475.88 2323.99 1481.64 Z" fill="#000000" fill-rule="nonzero" fill-opacity="1"></path><path clip-path="url(#clip940)" d="M2350.13 1479.7 L2355.01 1479.7 L2355.01 1485.58 L2350.13 1485.58 L2350.13 1479.7 Z" fill="#000000" fill-rule="nonzero" fill-opacity="1"></path><path clip-path="url(#clip940)" d="M2375.2 1454.1 Q2371.59 1454.1 2369.76 1457.66 Q2367.95 1461.2 2367.95 1468.33 Q2367.95 1475.44 2369.76 1479.01 Q2371.59 1482.55 2375.2 1482.55 Q2378.83 1482.55 2380.64 1479.01 Q2382.47 1475.44 2382.47 1468.33 Q2382.47 1461.2 2380.64 1457.66 Q2378.83 1454.1 2375.2 1454.1 M2375.2 1450.39 Q2381.01 1450.39 2384.06 1455 Q2387.14 1459.58 2387.14 1468.33 Q2387.14 1477.06 2384.06 1481.67 Q2381.01 1486.25 2375.2 1486.25 Q2369.39 1486.25 2366.31 1481.67 Q2363.25 1477.06 2363.25 1468.33 Q2363.25 1459.58 2366.31 1455 Q2369.39 1450.39 2375.2 1450.39 Z" fill="#000000" fill-rule="nonzero" fill-opacity="1"></path><path clip-path="url(#clip940)" d="M1264.87 1522.27 L1264.87 1532.4 L1276.94 1532.4 L1276.94 1536.95 L1264.87 1536.95 L1264.87 1556.3 Q1264.87 1560.66 1266.05 1561.9 Q1267.26 1563.14 1270.92 1563.14 L1276.94 1563.14 L1276.94 1568.04 L1270.92 1568.04 Q1264.14 1568.04 1261.56 1565.53 Q1258.98 1562.98 1258.98 1556.3 L1258.98 1536.95 L1254.69 1536.95 L1254.69 1532.4 L1258.98 1532.4 L1258.98 1522.27 L1264.87 1522.27 Z" fill="#000000" fill-rule="nonzero" fill-opacity="1"></path><polyline clip-path="url(#clip942)" style="stroke:#000000; stroke-linecap:round; stroke-linejoin:round; stroke-width:2; stroke-opacity:0.1; fill:none" points="178.867,1246 2352.76,1246 "></polyline>
<polyline clip-path="url(#clip942)" style="stroke:#000000; stroke-linecap:round; stroke-linejoin:round; stroke-width:2; stroke-opacity:0.1; fill:none" points="178.867,990.664 2352.76,990.664 "></polyline>
<polyline clip-path="url(#clip942)" style="stroke:#000000; stroke-linecap:round; stroke-linejoin:round; stroke-width:2; stroke-opacity:0.1; fill:none" points="178.867,735.33 2352.76,735.33 "></polyline>
<polyline clip-path="url(#clip942)" style="stroke:#000000; stroke-linecap:round; stroke-linejoin:round; stroke-width:2; stroke-opacity:0.1; fill:none" points="178.867,479.997 2352.76,479.997 "></polyline>
<polyline clip-path="url(#clip942)" style="stroke:#000000; stroke-linecap:round; stroke-linejoin:round; stroke-width:2; stroke-opacity:0.1; fill:none" points="178.867,224.663 2352.76,224.663 "></polyline>
<polyline clip-path="url(#clip940)" style="stroke:#000000; stroke-linecap:round; stroke-linejoin:round; stroke-width:4; stroke-opacity:1; fill:none" points="178.867,1423.18 178.867,47.2441 "></polyline>
<polyline clip-path="url(#clip940)" style="stroke:#000000; stroke-linecap:round; stroke-linejoin:round; stroke-width:4; stroke-opacity:1; fill:none" points="178.867,1246 197.764,1246 "></polyline>
<polyline clip-path="url(#clip940)" style="stroke:#000000; stroke-linecap:round; stroke-linejoin:round; stroke-width:4; stroke-opacity:1; fill:none" points="178.867,990.664 197.764,990.664 "></polyline>
<polyline clip-path="url(#clip940)" style="stroke:#000000; stroke-linecap:round; stroke-linejoin:round; stroke-width:4; stroke-opacity:1; fill:none" points="178.867,735.33 197.764,735.33 "></polyline>
<polyline clip-path="url(#clip940)" style="stroke:#000000; stroke-linecap:round; stroke-linejoin:round; stroke-width:4; stroke-opacity:1; fill:none" points="178.867,479.997 197.764,479.997 "></polyline>
<polyline clip-path="url(#clip940)" style="stroke:#000000; stroke-linecap:round; stroke-linejoin:round; stroke-width:4; stroke-opacity:1; fill:none" points="178.867,224.663 197.764,224.663 "></polyline>
<path clip-path="url(#clip940)" d="M50.9921 1246.45 L80.6679 1246.45 L80.6679 1250.38 L50.9921 1250.38 L50.9921 1246.45 Z" fill="#000000" fill-rule="nonzero" fill-opacity="1"></path><path clip-path="url(#clip940)" d="M101.339 1244.13 Q98.1909 1244.13 96.3391 1246.29 Q94.5104 1248.44 94.5104 1252.19 Q94.5104 1255.92 96.3391 1258.09 Q98.1909 1260.24 101.339 1260.24 Q104.487 1260.24 106.316 1258.09 Q108.168 1255.92 108.168 1252.19 Q108.168 1248.44 106.316 1246.29 Q104.487 1244.13 101.339 1244.13 M110.621 1229.48 L110.621 1233.74 Q108.862 1232.91 107.057 1232.47 Q105.274 1232.03 103.515 1232.03 Q98.8854 1232.03 96.4317 1235.15 Q94.0012 1238.28 93.6539 1244.6 Q95.0197 1242.58 97.0798 1241.52 Q99.14 1240.43 101.617 1240.43 Q106.825 1240.43 109.834 1243.6 Q112.867 1246.75 112.867 1252.19 Q112.867 1257.51 109.719 1260.73 Q106.571 1263.95 101.339 1263.95 Q95.3437 1263.95 92.1725 1259.37 Q89.0012 1254.76 89.0012 1246.03 Q89.0012 1237.84 92.89 1232.98 Q96.7789 1228.09 103.33 1228.09 Q105.089 1228.09 106.871 1228.44 Q108.677 1228.79 110.621 1229.48 Z" fill="#000000" fill-rule="nonzero" fill-opacity="1"></path><path clip-path="url(#clip940)" d="M130.922 1231.8 Q127.311 1231.8 125.482 1235.36 Q123.677 1238.9 123.677 1246.03 Q123.677 1253.14 125.482 1256.7 Q127.311 1260.24 130.922 1260.24 Q134.556 1260.24 136.362 1256.7 Q138.191 1253.14 138.191 1246.03 Q138.191 1238.9 136.362 1235.36 Q134.556 1231.8 130.922 1231.8 M130.922 1228.09 Q136.732 1228.09 139.788 1232.7 Q142.867 1237.28 142.867 1246.03 Q142.867 1254.76 139.788 1259.37 Q136.732 1263.95 130.922 1263.95 Q125.112 1263.95 122.033 1259.37 Q118.978 1254.76 118.978 1246.03 Q118.978 1237.28 122.033 1232.7 Q125.112 1228.09 130.922 1228.09 Z" fill="#000000" fill-rule="nonzero" fill-opacity="1"></path><path clip-path="url(#clip940)" d="M50.9921 991.115 L80.6679 991.115 L80.6679 995.05 L50.9921 995.05 L50.9921 991.115 Z" fill="#000000" fill-rule="nonzero" fill-opacity="1"></path><path clip-path="url(#clip940)" d="M104.927 989.31 Q108.283 990.027 110.158 992.296 Q112.057 994.564 112.057 997.897 Q112.057 1003.01 108.538 1005.81 Q105.02 1008.61 98.5382 1008.61 Q96.3623 1008.61 94.0475 1008.18 Q91.7558 1007.76 89.3021 1006.9 L89.3021 1002.39 Q91.2465 1003.52 93.5613 1004.1 Q95.8761 1004.68 98.3993 1004.68 Q102.797 1004.68 105.089 1002.94 Q107.404 1001.21 107.404 997.897 Q107.404 994.842 105.251 993.129 Q103.121 991.393 99.3021 991.393 L95.2743 991.393 L95.2743 987.55 L99.4872 987.55 Q102.936 987.55 104.765 986.185 Q106.594 984.796 106.594 982.203 Q106.594 979.541 104.696 978.129 Q102.821 976.694 99.3021 976.694 Q97.3808 976.694 95.1817 977.111 Q92.9826 977.527 90.3438 978.407 L90.3438 974.24 Q93.0058 973.499 95.3206 973.129 Q97.6585 972.759 99.7187 972.759 Q105.043 972.759 108.145 975.189 Q111.246 977.597 111.246 981.717 Q111.246 984.587 109.603 986.578 Q107.959 988.546 104.927 989.31 Z" fill="#000000" fill-rule="nonzero" fill-opacity="1"></path><path clip-path="url(#clip940)" d="M130.922 976.462 Q127.311 976.462 125.482 980.027 Q123.677 983.569 123.677 990.698 Q123.677 997.805 125.482 1001.37 Q127.311 1004.91 130.922 1004.91 Q134.556 1004.91 136.362 1001.37 Q138.191 997.805 138.191 990.698 Q138.191 983.569 136.362 980.027 Q134.556 976.462 130.922 976.462 M130.922 972.759 Q136.732 972.759 139.788 977.365 Q142.867 981.948 142.867 990.698 Q142.867 999.425 139.788 1004.03 Q136.732 1008.61 130.922 1008.61 Q125.112 1008.61 122.033 1004.03 Q118.978 999.425 118.978 990.698 Q118.978 981.948 122.033 977.365 Q125.112 972.759 130.922 972.759 Z" fill="#000000" fill-rule="nonzero" fill-opacity="1"></path><path clip-path="url(#clip940)" d="M130.922 721.129 Q127.311 721.129 125.482 724.694 Q123.677 728.235 123.677 735.365 Q123.677 742.471 125.482 746.036 Q127.311 749.578 130.922 749.578 Q134.556 749.578 136.362 746.036 Q138.191 742.471 138.191 735.365 Q138.191 728.235 136.362 724.694 Q134.556 721.129 130.922 721.129 M130.922 717.425 Q136.732 717.425 139.788 722.032 Q142.867 726.615 142.867 735.365 Q142.867 744.092 139.788 748.698 Q136.732 753.282 130.922 753.282 Q125.112 753.282 122.033 748.698 Q118.978 744.092 118.978 735.365 Q118.978 726.615 122.033 722.032 Q125.112 717.425 130.922 717.425 Z" fill="#000000" fill-rule="nonzero" fill-opacity="1"></path><path clip-path="url(#clip940)" d="M104.927 478.643 Q108.283 479.36 110.158 481.629 Q112.057 483.897 112.057 487.231 Q112.057 492.346 108.538 495.147 Q105.02 497.948 98.5382 497.948 Q96.3623 497.948 94.0475 497.508 Q91.7558 497.092 89.3021 496.235 L89.3021 491.721 Q91.2465 492.855 93.5613 493.434 Q95.8761 494.013 98.3993 494.013 Q102.797 494.013 105.089 492.277 Q107.404 490.541 107.404 487.231 Q107.404 484.175 105.251 482.462 Q103.121 480.726 99.3021 480.726 L95.2743 480.726 L95.2743 476.883 L99.4872 476.883 Q102.936 476.883 104.765 475.518 Q106.594 474.129 106.594 471.536 Q106.594 468.874 104.696 467.462 Q102.821 466.027 99.3021 466.027 Q97.3808 466.027 95.1817 466.444 Q92.9826 466.86 90.3438 467.74 L90.3438 463.573 Q93.0058 462.833 95.3206 462.462 Q97.6585 462.092 99.7187 462.092 Q105.043 462.092 108.145 464.522 Q111.246 466.93 111.246 471.05 Q111.246 473.92 109.603 475.911 Q107.959 477.879 104.927 478.643 Z" fill="#000000" fill-rule="nonzero" fill-opacity="1"></path><path clip-path="url(#clip940)" d="M130.922 465.795 Q127.311 465.795 125.482 469.36 Q123.677 472.902 123.677 480.031 Q123.677 487.138 125.482 490.703 Q127.311 494.244 130.922 494.244 Q134.556 494.244 136.362 490.703 Q138.191 487.138 138.191 480.031 Q138.191 472.902 136.362 469.36 Q134.556 465.795 130.922 465.795 M130.922 462.092 Q136.732 462.092 139.788 466.698 Q142.867 471.282 142.867 480.031 Q142.867 488.758 139.788 493.365 Q136.732 497.948 130.922 497.948 Q125.112 497.948 122.033 493.365 Q118.978 488.758 118.978 480.031 Q118.978 471.282 122.033 466.698 Q125.112 462.092 130.922 462.092 Z" fill="#000000" fill-rule="nonzero" fill-opacity="1"></path><path clip-path="url(#clip940)" d="M101.339 222.8 Q98.1909 222.8 96.3391 224.953 Q94.5104 227.105 94.5104 230.855 Q94.5104 234.582 96.3391 236.758 Q98.1909 238.911 101.339 238.911 Q104.487 238.911 106.316 236.758 Q108.168 234.582 108.168 230.855 Q108.168 227.105 106.316 224.953 Q104.487 222.8 101.339 222.8 M110.621 208.147 L110.621 212.406 Q108.862 211.573 107.057 211.133 Q105.274 210.693 103.515 210.693 Q98.8854 210.693 96.4317 213.818 Q94.0012 216.943 93.6539 223.263 Q95.0197 221.249 97.0798 220.184 Q99.14 219.096 101.617 219.096 Q106.825 219.096 109.834 222.267 Q112.867 225.416 112.867 230.855 Q112.867 236.179 109.719 239.397 Q106.571 242.615 101.339 242.615 Q95.3437 242.615 92.1725 238.031 Q89.0012 233.425 89.0012 224.698 Q89.0012 216.504 92.89 211.643 Q96.7789 206.758 103.33 206.758 Q105.089 206.758 106.871 207.106 Q108.677 207.453 110.621 208.147 Z" fill="#000000" fill-rule="nonzero" fill-opacity="1"></path><path clip-path="url(#clip940)" d="M130.922 210.462 Q127.311 210.462 125.482 214.027 Q123.677 217.568 123.677 224.698 Q123.677 231.804 125.482 235.369 Q127.311 238.911 130.922 238.911 Q134.556 238.911 136.362 235.369 Q138.191 231.804 138.191 224.698 Q138.191 217.568 136.362 214.027 Q134.556 210.462 130.922 210.462 M130.922 206.758 Q136.732 206.758 139.788 211.365 Q142.867 215.948 142.867 224.698 Q142.867 233.425 139.788 238.031 Q136.732 242.615 130.922 242.615 Q125.112 242.615 122.033 238.031 Q118.978 233.425 118.978 224.698 Q118.978 215.948 122.033 211.365 Q125.112 206.758 130.922 206.758 Z" fill="#000000" fill-rule="nonzero" fill-opacity="1"></path><polyline clip-path="url(#clip942)" style="stroke:#009af9; stroke-linecap:round; stroke-linejoin:round; stroke-width:4; stroke-opacity:1; fill:none" points="178.867,735.33 181.043,735.33 183.219,735.33 185.395,735.33 187.571,735.33 189.747,735.33 191.923,735.33 194.099,735.33 196.275,735.33 198.451,735.33 200.627,735.33 202.803,735.33 204.979,735.33 207.155,735.33 209.332,735.33 211.508,735.33 213.684,735.33 215.86,735.33 218.036,735.33 220.212,735.33 222.388,735.33 224.564,735.33 226.74,735.33 228.916,735.33 231.092,735.33 233.268,735.33 235.444,735.33 237.62,735.33 239.796,735.33 241.973,735.33 244.149,735.33 246.325,735.33 248.501,735.33 250.677,735.33 252.853,735.33 255.029,735.33 257.205,735.33 259.381,735.33 261.557,735.33 263.733,735.33 265.909,735.33 268.085,735.33 270.261,735.33 272.437,735.33 274.614,735.33 276.79,735.33 278.966,735.33 281.142,735.33 283.318,735.33 285.494,735.33 287.67,735.33 289.846,735.33 292.022,735.33 294.198,735.33 296.374,735.33 298.55,735.33 300.726,735.33 302.902,735.33 305.078,735.33 307.254,735.33 309.431,735.33 311.607,735.33 313.783,735.33 315.959,735.33 318.135,735.33 320.311,735.33 322.487,735.33 324.663,735.33 326.839,735.33 329.015,735.33 331.191,735.33 333.367,735.33 335.543,735.33 337.719,735.33 339.895,735.33 342.072,735.33 344.248,735.33 346.424,735.33 348.6,735.33 350.776,735.33 352.952,735.33 355.128,735.33 357.304,735.33 359.48,735.33 361.656,735.33 363.832,735.33 366.008,735.33 368.184,735.33 370.36,735.33 372.536,735.33 374.713,735.33 376.889,735.33 379.065,735.33 381.241,735.33 383.417,735.33 385.593,735.33 387.769,735.33 389.945,735.33 392.121,735.33 394.297,735.33 396.473,735.33 398.649,735.33 400.825,735.33 403.001,735.33 405.177,735.33 407.353,735.33 409.53,735.33 411.706,735.33 413.882,735.33 416.058,735.33 418.234,735.33 420.41,735.33 422.586,735.33 424.762,735.33 426.938,735.33 429.114,735.33 431.29,735.33 433.466,735.33 435.642,735.33 437.818,735.33 439.994,735.33 442.171,735.33 444.347,735.33 446.523,735.33 448.699,735.33 450.875,735.33 453.051,735.33 455.227,735.33 457.403,735.33 459.579,735.33 461.755,735.33 463.931,735.33 466.107,735.33 468.283,735.33 470.459,735.33 472.635,735.33 474.812,735.33 476.988,735.33 479.164,735.33 481.34,735.33 483.516,735.33 485.692,735.33 487.868,735.33 490.044,735.33 492.22,735.33 494.396,735.33 496.572,735.33 498.748,735.33 500.924,735.33 503.1,735.33 505.276,735.33 507.452,735.33 509.629,735.33 511.805,735.33 513.981,735.33 516.157,735.33 518.333,735.33 520.509,735.33 522.685,735.33 524.861,735.33 527.037,735.33 529.213,735.33 531.389,735.33 533.565,735.33 535.741,735.33 537.917,735.33 540.093,735.33 542.27,735.33 544.446,735.33 546.622,735.33 548.798,735.33 550.974,735.33 553.15,735.33 555.326,735.33 557.502,735.33 559.678,735.33 561.854,735.33 564.03,735.33 566.206,735.33 568.382,735.33 570.558,735.33 572.734,735.33 574.911,735.33 577.087,735.33 579.263,735.33 581.439,735.33 583.615,735.33 585.791,735.33 587.967,735.33 590.143,735.33 592.319,735.33 594.495,735.33 596.671,735.33 598.847,735.33 601.023,735.33 603.199,735.33 605.375,735.33 607.552,735.33 609.728,735.33 611.904,735.33 614.08,735.33 616.256,735.33 618.432,735.33 620.608,735.33 622.784,735.33 624.96,735.33 627.136,735.33 629.312,735.33 631.488,735.33 633.664,735.33 635.84,735.33 638.016,735.33 640.192,735.33 642.369,735.33 644.545,735.33 646.721,735.33 648.897,735.33 651.073,735.33 653.249,735.33 655.425,735.33 657.601,735.33 659.777,735.33 661.953,735.33 664.129,735.33 666.305,735.33 668.481,735.33 670.657,735.33 672.833,735.33 675.01,735.33 677.186,735.33 679.362,735.33 681.538,735.33 683.714,735.33 685.89,735.33 688.066,735.33 690.242,735.33 692.418,735.33 694.594,735.33 696.77,735.33 698.946,735.33 701.122,735.33 703.298,735.33 705.474,735.33 707.651,735.33 709.827,735.33 712.003,735.33 714.179,735.33 716.355,735.33 718.531,735.33 720.707,735.33 722.883,735.329 725.059,735.304 727.235,735.21 729.411,735.004 731.587,734.642 733.763,734.079 735.939,733.272 738.115,732.176 740.291,730.756 742.468,728.981 744.644,726.821 746.82,724.251 748.996,721.249 751.172,717.798 753.348,713.886 755.524,709.503 757.7,704.646 759.876,699.317 762.052,693.519 764.228,687.264 766.404,680.565 768.58,673.442 770.756,665.917 772.932,658.019 775.109,649.779 777.285,641.231 779.461,632.417 781.637,623.379 783.813,614.163 785.989,604.817 788.165,595.393 790.341,585.944 792.517,576.527 794.693,567.2 796.869,558.021 799.045,549.052 801.221,540.354 803.397,531.988 805.573,524.015 807.75,516.494 809.926,509.484 812.102,503.045 814.278,497.233 816.454,492.101 818.63,487.705 820.806,484.095 822.982,481.319 825.158,479.421 827.334,478.439 829.51,478.41 831.686,479.364 833.862,481.329 836.038,484.328 838.214,488.379 840.39,493.495 842.567,499.685 844.743,506.954 846.919,515.299 849.095,524.711 851.271,535.178 853.447,546.678 855.623,559.188 857.799,572.676 859.975,587.107 862.151,602.441 864.327,618.632 866.503,635.628 868.679,653.376 870.855,671.815 873.031,690.881 875.208,710.506 877.384,730.617 879.56,751.137 881.736,771.984 883.912,793.08 886.088,814.34 888.264,835.674 890.44,856.992 892.616,878.204 894.792,899.219 896.968,919.948 899.144,940.299 901.32,960.183 903.496,979.507 905.672,998.182 907.849,1016.12 910.025,1033.24 912.201,1049.45 914.377,1064.67 916.553,1078.82 918.729,1091.82 920.905,1103.62 923.081,1114.14 925.257,1123.32 927.433,1131.1 929.609,1137.45 931.785,1142.31 933.961,1145.66 936.137,1147.44 938.313,1147.64 940.49,1146.24 942.666,1143.21 944.842,1138.55 947.018,1132.26 949.194,1124.34 951.37,1114.82 953.546,1103.71 955.722,1091.05 957.898,1076.87 960.074,1061.21 962.25,1044.12 964.426,1025.66 966.602,1005.88 968.778,984.853 970.954,962.649 973.13,939.347 975.307,915.03 977.483,889.785 979.659,863.707 981.835,836.895 984.011,809.455 986.187,781.487 988.363,753.098 990.539,724.402 992.715,695.515 994.891,666.553 997.067,637.631 999.243,608.865 1001.42,580.371 1003.6,552.262 1005.77,524.654 1007.95,497.662 1010.12,471.4 1012.3,445.982 1014.48,421.517 1016.65,398.101 1018.83,375.842 1021,354.842 1023.18,335.195 1025.36,316.989 1027.53,300.306 1029.71,285.222 1031.88,271.807 1034.06,260.123 1036.24,250.227 1038.41,242.17 1040.59,235.992 1042.76,231.726 1044.94,229.406 1047.12,229.057 1049.29,230.696 1051.47,234.33 1053.64,239.957 1055.82,247.566 1058,257.138 1060.17,268.644 1062.35,282.046 1064.53,297.298 1066.7,314.344 1068.88,333.121 1071.05,353.569 1073.23,375.618 1075.41,399.188 1077.58,424.193 1079.76,450.54 1081.93,478.134 1084.11,506.871 1086.29,536.643 1088.46,567.337 1090.64,598.832 1092.81,631.005 1094.99,663.726 1097.17,696.878 1099.34,730.329 1101.52,763.942 1103.69,797.58 1105.87,831.109 1108.05,864.396 1110.22,897.31 1112.4,929.719 1114.57,961.495 1116.75,992.51 1118.93,1022.64 1121.1,1051.76 1123.28,1079.74 1125.46,1106.47 1127.63,1131.85 1129.81,1155.77 1131.98,1178.12 1134.16,1198.81 1136.34,1217.73 1138.51,1234.83 1140.69,1250.01 1142.86,1263.21 1145.04,1274.39 1147.22,1283.48 1149.39,1290.45 1151.57,1295.27 1153.74,1297.91 1155.92,1298.35 1158.1,1296.58 1160.27,1292.59 1162.45,1286.4 1164.62,1278.01 1166.8,1267.45 1168.98,1254.76 1171.15,1239.98 1173.33,1223.16 1175.5,1204.37 1177.68,1183.69 1179.86,1161.19 1182.03,1136.97 1184.21,1111.09 1186.38,1083.67 1188.56,1054.81 1190.74,1024.62 1192.91,993.204 1195.09,960.694 1197.27,927.21 1199.44,892.883 1201.62,857.847 1203.79,822.239 1205.97,786.204 1208.15,749.884 1210.32,713.41 1212.5,676.933 1214.67,640.603 1216.85,604.568 1219.03,568.972 1221.2,533.955 1223.38,499.657 1225.55,466.212 1227.73,433.753 1229.91,402.409 1232.08,372.305 1234.26,343.565 1236.43,316.31 1238.61,290.646 1240.79,266.672 1242.96,244.494 1245.14,224.208 1247.31,205.901 1249.49,189.65 1251.67,175.524 1253.84,163.582 1256.02,153.874 1258.2,146.441 1260.37,141.313 1262.55,138.513 1264.72,138.053 1266.9,139.936 1269.08,144.161 1271.25,150.721 1273.43,159.596 1275.6,170.758 1277.78,184.171 1279.96,199.787 1282.13,217.548 1284.31,237.388 1286.48,259.231 1288.66,282.989 1290.84,308.569 1293.01,335.863 1295.19,364.759 1297.36,395.161 1299.54,426.95 1301.72,460 1303.89,494.181 1306.07,529.363 1308.24,565.407 1310.42,602.176 1312.6,639.525 1314.77,677.31 1316.95,715.378 1319.12,753.579 1321.3,791.755 1323.48,829.765 1325.65,867.463 1327.83,904.689 1330.01,941.292 1332.18,977.124 1334.36,1012.04 1336.53,1045.91 1338.71,1078.59 1340.89,1109.95 1343.06,1139.88 1345.24,1168.25 1347.41,1194.95 1349.59,1219.87 1351.77,1242.91 1353.94,1263.99 1356.12,1283.01 1358.29,1299.9 1360.47,1314.57 1362.65,1326.96 1364.82,1337.03 1367,1344.73 1369.17,1350.02 1371.35,1352.9 1373.53,1353.33 1375.7,1351.34 1377.88,1346.91 1380.05,1340.08 1382.23,1330.86 1384.41,1319.29 1386.58,1305.41 1388.76,1289.26 1390.94,1270.91 1393.11,1250.42 1395.29,1227.87 1397.46,1203.35 1399.64,1176.96 1401.82,1148.78 1403.99,1118.95 1406.17,1087.59 1408.34,1054.81 1410.52,1020.75 1412.7,985.535 1414.87,949.302 1417.05,912.196 1419.22,874.364 1421.4,835.955 1423.58,797.117 1425.75,758.001 1427.93,718.76 1430.1,679.548 1432.28,640.522 1434.46,601.839 1436.63,563.658 1438.81,526.12 1440.98,489.371 1443.16,453.566 1445.34,418.849 1447.51,385.363 1449.69,353.239 1451.86,322.607 1454.04,293.584 1456.22,266.286 1458.39,240.82 1460.57,217.285 1462.75,195.776 1464.92,176.379 1467.1,159.164 1469.27,144.201 1471.45,131.561 1473.63,121.298 1475.8,113.458 1477.98,108.077 1480.15,105.178 1482.33,104.773 1484.51,106.865 1486.68,111.445 1488.86,118.492 1491.03,127.976 1493.21,139.854 1495.39,154.079 1497.56,170.603 1499.74,189.362 1501.91,210.286 1504.09,233.295 1506.27,258.3 1508.44,285.206 1510.62,313.911 1512.79,344.302 1514.97,376.26 1517.15,409.657 1519.32,444.359 1521.5,480.222 1523.68,517.101 1525.85,554.866 1528.03,593.364 1530.2,632.439 1532.38,671.934 1534.56,711.695 1536.73,751.565 1538.91,791.39 1541.08,831.014 1543.26,870.282 1545.44,909.039 1547.61,947.132 1549.79,984.407 1551.96,1020.71 1554.14,1055.91 1556.32,1089.86 1558.49,1122.43 1560.67,1153.47 1562.84,1182.88 1565.02,1210.52 1567.2,1236.29 1569.37,1260.1 1571.55,1281.83 1573.72,1301.42 1575.9,1318.79 1578.08,1333.86 1580.25,1346.58 1582.43,1356.91 1584.6,1364.79 1586.78,1370.18 1588.96,1373.07 1591.13,1373.43 1593.31,1371.27 1595.49,1366.58 1597.66,1359.38 1599.84,1349.71 1602.01,1337.6 1604.19,1323.11 1606.37,1306.3 1608.54,1287.24 1610.72,1266 1612.89,1242.66 1615.07,1217.31 1617.25,1190.05 1619.42,1160.99 1621.6,1130.23 1623.77,1097.9 1625.95,1064.13 1628.13,1029.04 1630.3,992.773 1632.48,955.475 1634.65,917.299 1636.83,878.4 1639.01,838.919 1641.18,799.012 1643.36,758.843 1645.53,718.574 1647.71,678.366 1649.89,638.377 1652.06,598.763 1654.24,559.678 1656.41,521.275 1658.59,483.703 1660.77,447.111 1662.94,411.645 1665.12,377.449 1667.3,344.661 1669.47,313.397 1671.65,283.789 1673.82,255.958 1676,230.02 1678.18,206.078 1680.35,184.228 1682.53,164.555 1684.7,147.137 1686.88,132.039 1689.06,119.321 1691.23,109.031 1693.41,101.207 1695.58,95.875 1697.76,93.0578 1699.94,92.7727 1702.11,95.0264 1704.29,99.8143 1706.46,107.121 1708.64,116.921 1710.82,129.177 1712.99,143.841 1715.17,160.854 1717.34,180.146 1719.52,201.637 1721.7,225.236 1723.87,250.839 1726.05,278.354 1728.23,307.68 1730.4,338.699 1732.58,371.289 1734.75,405.323 1736.93,440.667 1739.11,477.185 1741.28,514.732 1743.46,553.163 1745.63,592.325 1747.81,632.059 1749.99,672.204 1752.16,712.607 1754.34,753.118 1756.51,793.566 1758.69,833.788 1760.87,873.62 1763.04,912.906 1765.22,951.492 1767.39,989.226 1769.57,1025.96 1771.75,1061.56 1773.92,1095.87 1776.1,1128.77 1778.27,1160.12 1780.45,1189.8 1782.63,1217.69 1784.8,1243.69 1786.98,1267.68 1789.15,1289.57 1791.33,1309.27 1793.51,1326.7 1795.68,1341.78 1797.86,1354.46 1800.04,1364.7 1802.21,1372.45 1804.39,1377.68 1806.56,1380.38 1808.74,1380.54 1810.92,1378.16 1813.09,1373.24 1815.27,1365.81 1817.44,1355.89 1819.62,1343.5 1821.8,1328.71 1823.97,1311.56 1826.15,1292.12 1828.32,1270.47 1830.5,1246.69 1832.68,1220.88 1834.85,1193.15 1837.03,1163.62 1839.2,1132.41 1841.38,1099.63 1843.56,1065.4 1845.73,1029.87 1847.91,993.168 1850.08,955.449 1852.26,916.855 1854.44,877.538 1856.61,837.65 1858.79,797.35 1860.97,756.797 1863.14,716.154 1865.32,675.588 1867.49,635.248 1869.67,595.29 1871.85,555.881 1874.02,517.182 1876.2,479.348 1878.37,442.53 1880.55,406.871 1882.73,372.51 1884.9,339.582 1887.08,308.214 1889.25,278.528 1891.43,250.641 1893.61,224.666 1895.78,200.703 1897.96,178.839 1900.13,159.168 1902.31,141.772 1904.49,126.726 1906.66,114.09 1908.84,103.918 1911.01,96.2477 1913.19,91.1098 1915.37,88.5224 1917.54,88.4931 1919.72,91.0185 1921.89,96.0842 1924.07,103.666 1926.25,113.738 1928.42,126.263 1930.6,141.193 1932.78,158.473 1934.95,178.037 1937.13,199.811 1939.3,223.71 1941.48,249.642 1943.66,277.504 1945.83,307.184 1948.01,338.563 1950.18,371.508 1952.36,405.882 1954.54,441.553 1956.71,478.392 1958.89,516.247 1961.06,554.968 1963.24,594.4 1965.42,634.388 1967.59,674.778 1969.77,715.412 1971.94,756.13 1974.12,796.773 1976.3,837.18 1978.47,877.187 1980.65,916.631 1982.82,955.365 1985,993.24 1987.18,1030.1 1989.35,1065.79 1991.53,1100.17 1993.71,1133.1 1995.88,1164.46 1998.06,1194.12 2000.23,1221.97 2002.41,1247.89 2004.59,1271.79 2006.76,1293.58 2008.94,1313.16 2011.11,1330.48 2013.29,1345.45 2015.47,1358.01 2017.64,1368.11 2019.82,1375.71 2021.99,1380.76 2024.17,1383.25 2026.35,1383.18 2028.52,1380.53 2030.7,1375.33 2032.87,1367.59 2035.05,1357.36 2037.23,1344.68 2039.4,1329.6 2041.58,1312.18 2043.75,1292.48 2045.93,1270.58 2048.11,1246.56 2050.28,1220.51 2052.46,1192.55 2054.63,1162.77 2056.81,1131.29 2058.99,1098.24 2061.16,1063.75 2063.34,1027.96 2065.52,991.012 2067.69,953.064 2069.87,914.249 2072.04,874.723 2074.22,834.647 2076.4,794.182 2078.57,753.487 2080.75,712.723 2082.92,672.047 2085.1,631.619 2087.28,591.596 2089.45,552.135 2091.63,513.393 2093.8,475.526 2095.98,438.69 2098.16,403.02 2100.33,368.656 2102.51,335.74 2104.68,304.407 2106.86,274.781 2109.04,246.982 2111.21,221.118 2113.39,197.289 2115.56,175.588 2117.74,156.098 2119.92,138.894 2122.09,124.044 2124.27,111.601 2126.45,101.61 2128.62,94.1168 2130.8,89.1577 2132.97,86.7567 2135.15,86.9269 2137.33,89.6699 2139.5,94.9759 2141.68,102.824 2143.85,113.182 2146.03,126.005 2148.21,141.24 2150.38,158.82 2152.56,178.666 2154.73,200.701 2156.91,224.849 2159.09,251.013 2161.26,279.091 2163.44,308.971 2165.61,340.539 2167.79,373.671 2169.97,408.238 2172.14,444.104 2174.32,481.128 2176.49,519.161 2178.67,558.047 2180.85,597.627 2183.02,637.758 2185.2,678.282 2187.37,719.031 2189.55,759.84 2191.73,800.547 2193.9,840.992 2196.08,881.017 2198.26,920.465 2200.43,959.184 2202.61,997.022 2204.78,1033.83 2206.96,1069.46 2209.14,1103.77 2211.31,1136.63 2213.49,1167.91 2215.66,1197.48 2217.84,1225.22 2220.02,1251.03 2222.19,1274.79 2224.37,1296.41 2226.54,1315.8 2228.72,1332.9 2230.9,1347.64 2233.07,1359.95 2235.25,1369.8 2237.42,1377.14 2239.6,1381.96 2241.78,1384.24 2243.95,1383.95 2246.13,1381.1 2248.3,1375.7 2250.48,1367.75 2252.66,1357.3 2254.83,1344.38 2257.01,1329.04 2259.19,1311.34 2261.36,1291.36 2263.54,1269.17 2265.71,1244.89 2267.89,1218.6 2270.07,1190.41 2272.24,1160.42 2274.42,1128.75 2276.59,1095.53 2278.77,1060.89 2280.95,1024.95 2283.12,987.874 2285.3,949.792 2287.47,910.857 2289.65,871.224 2291.83,831.052 2294,790.505 2296.18,749.737 2298.35,708.902 2300.53,668.169 2302.71,627.704 2304.88,587.671 2307.06,548.228 2309.23,509.53 2311.41,471.728 2313.59,434.969 2315.76,399.395 2317.94,365.145 2320.11,332.355 2322.29,301.155 2324.47,271.673 2326.64,244.016 2328.82,218.293 2331,194.613 2333.17,173.073 2335.35,153.761 2337.52,136.756 2339.7,122.124 2341.88,109.921 2344.05,100.196 2346.23,92.9827 2348.4,88.3076 2350.58,86.1857 2352.76,86.6229 "></polyline>
<polyline clip-path="url(#clip942)" style="stroke:#e26f46; stroke-linecap:round; stroke-linejoin:round; stroke-width:4; stroke-opacity:1; fill:none" points="178.867,735.33 181.043,735.33 183.219,735.33 185.395,735.33 187.571,735.33 189.747,735.33 191.923,735.33 194.099,735.33 196.275,735.33 198.451,735.33 200.627,735.33 202.803,735.33 204.979,735.33 207.155,735.33 209.332,735.33 211.508,735.33 213.684,735.33 215.86,735.33 218.036,735.33 220.212,735.33 222.388,735.33 224.564,735.33 226.74,735.33 228.916,735.33 231.092,735.33 233.268,735.33 235.444,735.33 237.62,735.33 239.796,735.33 241.973,735.33 244.149,735.33 246.325,735.33 248.501,735.33 250.677,735.33 252.853,735.33 255.029,735.33 257.205,735.33 259.381,735.33 261.557,735.33 263.733,735.33 265.909,735.33 268.085,735.33 270.261,735.33 272.437,735.33 274.614,735.33 276.79,735.33 278.966,735.33 281.142,735.33 283.318,735.33 285.494,735.33 287.67,735.33 289.846,735.33 292.022,735.33 294.198,735.33 296.374,735.33 298.55,735.33 300.726,735.33 302.902,735.33 305.078,735.33 307.254,735.33 309.431,735.33 311.607,735.33 313.783,735.33 315.959,735.33 318.135,735.33 320.311,735.33 322.487,735.33 324.663,735.33 326.839,735.33 329.015,735.33 331.191,735.33 333.367,735.33 335.543,735.33 337.719,735.33 339.895,735.33 342.072,735.33 344.248,735.33 346.424,735.33 348.6,735.33 350.776,735.33 352.952,735.33 355.128,735.33 357.304,735.33 359.48,735.33 361.656,735.33 363.832,735.33 366.008,735.33 368.184,735.33 370.36,735.33 372.536,735.33 374.713,735.33 376.889,735.33 379.065,735.33 381.241,735.33 383.417,735.33 385.593,735.33 387.769,735.33 389.945,735.33 392.121,735.33 394.297,735.33 396.473,735.33 398.649,735.33 400.825,735.33 403.001,735.33 405.177,735.33 407.353,735.33 409.53,735.33 411.706,735.33 413.882,735.33 416.058,735.33 418.234,735.33 420.41,735.33 422.586,735.33 424.762,735.33 426.938,735.33 429.114,735.33 431.29,735.33 433.466,735.33 435.642,735.33 437.818,735.33 439.994,735.33 442.171,735.33 444.347,735.33 446.523,735.33 448.699,735.33 450.875,735.33 453.051,735.33 455.227,735.33 457.403,735.33 459.579,735.33 461.755,735.33 463.931,735.33 466.107,735.33 468.283,735.33 470.459,735.33 472.635,735.33 474.812,735.33 476.988,735.33 479.164,735.33 481.34,735.33 483.516,735.33 485.692,735.33 487.868,735.33 490.044,735.33 492.22,735.33 494.396,735.33 496.572,735.33 498.748,735.33 500.924,735.33 503.1,735.33 505.276,735.33 507.452,735.33 509.629,735.33 511.805,735.33 513.981,735.33 516.157,735.33 518.333,735.33 520.509,735.33 522.685,735.33 524.861,735.33 527.037,735.33 529.213,735.33 531.389,735.33 533.565,735.33 535.741,735.33 537.917,735.33 540.093,735.33 542.27,735.33 544.446,735.33 546.622,735.33 548.798,735.33 550.974,735.33 553.15,735.33 555.326,735.33 557.502,735.33 559.678,735.33 561.854,735.33 564.03,735.33 566.206,735.33 568.382,735.33 570.558,735.33 572.734,735.33 574.911,735.33 577.087,735.33 579.263,735.33 581.439,735.33 583.615,735.33 585.791,735.33 587.967,735.33 590.143,735.33 592.319,735.33 594.495,735.33 596.671,735.33 598.847,735.33 601.023,735.33 603.199,735.33 605.375,735.33 607.552,735.33 609.728,735.33 611.904,735.33 614.08,735.33 616.256,735.33 618.432,735.33 620.608,735.33 622.784,735.33 624.96,735.33 627.136,735.33 629.312,735.33 631.488,735.33 633.664,735.33 635.84,735.33 638.016,735.33 640.192,735.33 642.369,735.33 644.545,735.33 646.721,735.33 648.897,735.33 651.073,735.33 653.249,735.33 655.425,735.33 657.601,735.33 659.777,735.33 661.953,735.33 664.129,735.33 666.305,735.33 668.481,735.33 670.657,735.33 672.833,735.33 675.01,735.33 677.186,735.33 679.362,735.33 681.538,735.33 683.714,735.33 685.89,735.33 688.066,735.33 690.242,735.33 692.418,735.33 694.594,735.33 696.77,735.33 698.946,735.33 701.122,735.33 703.298,735.33 705.474,735.33 707.651,735.33 709.827,735.33 712.003,735.33 714.179,735.33 716.355,735.33 718.531,735.33 720.707,735.33 722.883,732.119 725.059,719.288 727.235,706.52 729.411,693.867 731.587,681.377 733.763,669.101 735.939,657.087 738.115,645.382 740.291,634.032 742.468,623.084 744.644,612.579 746.82,602.56 748.996,593.065 751.172,584.134 753.348,575.8 755.524,568.097 757.7,561.055 759.876,554.703 762.052,549.064 764.228,544.163 766.404,540.017 768.58,536.644 770.756,534.056 772.932,532.264 775.109,531.276 777.285,531.094 779.461,531.72 781.637,533.151 783.813,535.381 785.989,538.403 788.165,542.203 790.341,546.766 792.517,552.076 794.693,558.11 796.869,564.845 799.045,572.254 801.221,580.307 803.397,588.974 805.573,598.22 807.75,608.008 809.926,618.299 812.102,629.053 814.278,640.228 816.454,651.778 818.63,663.659 820.806,675.823 822.982,688.223 825.158,700.809 827.334,713.531 829.51,726.34 831.686,739.184 833.862,752.013 836.038,764.776 838.214,777.423 840.39,789.903 842.567,802.167 844.743,814.167 846.919,825.855 849.095,837.185 851.271,848.113 853.447,858.594 855.623,868.588 857.799,878.055 859.975,886.958 862.151,895.261 864.327,902.932 866.503,909.939 868.679,916.257 870.855,921.859 873.031,926.723 875.208,930.83 877.384,934.165 879.56,936.713 881.736,938.465 883.912,939.413 886.088,939.554 888.264,938.888 890.44,937.417 892.616,935.147 894.792,932.086 896.968,928.248 899.144,923.646 901.32,918.3 903.496,912.23 905.672,905.461 907.849,898.019 910.025,889.934 912.201,881.237 914.377,871.964 916.553,862.15 918.729,851.834 920.905,841.058 923.081,829.864 925.257,818.296 927.433,806.399 929.609,794.222 931.785,781.812 933.961,769.218 936.137,756.49 938.313,743.679 940.49,730.834 942.666,718.007 944.842,705.249 947.018,692.609 949.194,680.139 951.37,667.887 953.546,655.901 955.722,644.23 957.898,632.919 960.074,622.013 962.25,611.555 964.426,601.586 966.602,592.146 968.778,583.273 970.954,575.001 973.13,567.362 975.307,560.388 977.483,554.106 979.659,548.541 981.835,543.714 984.011,539.645 986.187,536.349 988.363,533.841 990.539,532.129 992.715,531.221 994.891,531.12 997.067,531.827 999.243,533.338 1001.42,535.648 1003.6,538.748 1005.77,542.625 1007.95,547.264 1010.12,552.647 1012.3,558.752 1014.48,565.556 1016.65,573.03 1018.83,581.147 1021,589.873 1023.18,599.175 1025.36,609.015 1027.53,619.354 1029.71,630.153 1031.88,641.367 1034.06,652.952 1036.24,664.864 1038.41,677.054 1040.59,689.474 1042.76,702.076 1044.94,714.809 1047.12,727.624 1049.29,740.469 1051.47,753.293 1053.64,766.047 1055.82,778.679 1058,791.14 1060.17,803.38 1062.35,815.351 1064.53,827.005 1066.7,838.297 1068.88,849.182 1071.05,859.616 1073.23,869.559 1075.41,878.972 1077.58,887.816 1079.76,896.057 1081.93,903.663 1084.11,910.603 1086.29,916.85 1088.46,922.379 1090.64,927.168 1092.81,931.199 1094.99,934.455 1097.17,936.924 1099.34,938.596 1101.52,939.463 1103.69,939.524 1105.87,938.777 1108.05,937.226 1110.22,934.876 1112.4,931.737 1114.57,927.822 1116.75,923.145 1118.93,917.725 1121.1,911.585 1123.28,904.747 1125.46,897.239 1127.63,889.091 1129.81,880.335 1131.98,871.006 1134.16,861.14 1136.34,850.777 1138.51,839.957 1140.69,828.723 1142.86,817.12 1145.04,805.194 1147.22,792.991 1149.39,780.56 1151.57,767.951 1153.74,755.212 1155.92,742.395 1158.1,729.55 1160.27,716.727 1162.45,703.979 1164.62,691.354 1166.8,678.903 1168.98,666.675 1171.15,654.719 1173.33,643.082 1175.5,631.809 1177.68,620.946 1179.86,610.535 1182.03,600.618 1184.21,591.233 1186.38,582.418 1188.56,574.208 1190.74,566.635 1192.91,559.729 1195.09,553.517 1197.27,548.025 1199.44,543.273 1201.62,539.28 1203.79,536.063 1205.97,533.634 1208.15,532.002 1210.32,531.175 1212.5,531.155 1214.67,531.942 1216.85,533.533 1219.03,535.923 1221.2,539.101 1223.38,543.055 1225.55,547.769 1227.73,553.225 1229.91,559.401 1232.08,566.273 1234.26,573.814 1236.43,581.993 1238.61,590.778 1240.79,600.135 1242.96,610.027 1245.14,620.414 1247.31,631.256 1249.49,642.509 1251.67,654.129 1253.84,666.071 1256.02,678.286 1258.2,690.727 1260.37,703.344 1262.55,716.088 1264.72,728.908 1266.9,741.753 1269.08,754.573 1271.25,767.316 1273.43,779.934 1275.6,792.374 1277.78,804.59 1279.96,816.531 1282.13,828.151 1284.31,839.404 1286.48,850.246 1288.66,860.633 1290.84,870.525 1293.01,879.882 1295.19,888.668 1297.36,896.847 1299.54,904.387 1301.72,911.259 1303.89,917.435 1306.07,922.891 1308.24,927.606 1310.42,931.56 1312.6,934.738 1314.77,937.127 1316.95,938.719 1319.12,939.506 1321.3,939.486 1323.48,938.658 1325.65,937.027 1327.83,934.597 1330.01,931.38 1332.18,927.388 1334.36,922.636 1336.53,917.143 1338.71,910.932 1340.89,904.026 1343.06,896.453 1345.24,888.242 1347.41,879.428 1349.59,870.043 1351.77,860.125 1353.94,849.714 1356.12,838.851 1358.29,827.579 1360.47,815.941 1362.65,803.985 1364.82,791.757 1367,779.306 1369.17,766.682 1371.35,753.933 1373.53,741.111 1375.7,728.266 1377.88,715.448 1380.05,702.71 1382.23,690.1 1384.41,677.67 1386.58,665.467 1388.76,653.54 1390.94,641.937 1393.11,630.704 1395.29,619.884 1397.46,609.52 1399.64,599.655 1401.82,590.325 1403.99,581.569 1406.17,573.421 1408.34,565.914 1410.52,559.076 1412.7,552.935 1414.87,547.516 1417.05,542.839 1419.22,538.923 1421.4,535.784 1423.58,533.435 1425.75,531.883 1427.93,531.136 1430.1,531.197 1432.28,532.065 1434.46,533.736 1436.63,536.205 1438.81,539.462 1440.98,543.492 1443.16,548.282 1445.34,553.811 1447.51,560.058 1449.69,566.998 1451.86,574.603 1454.04,582.845 1456.22,591.689 1458.39,601.101 1460.57,611.044 1462.75,621.479 1464.92,632.364 1467.1,643.655 1469.27,655.31 1471.45,667.281 1473.63,679.521 1475.8,691.982 1477.98,704.614 1480.15,717.367 1482.33,730.192 1484.51,743.037 1486.68,755.851 1488.86,768.585 1491.03,781.186 1493.21,793.607 1495.39,805.797 1497.56,817.708 1499.74,829.294 1501.91,840.508 1504.09,851.306 1506.27,861.645 1508.44,871.485 1510.62,880.787 1512.79,889.513 1514.97,897.63 1517.15,905.105 1519.32,911.908 1521.5,918.014 1523.68,923.396 1525.85,928.036 1528.03,931.913 1530.2,935.012 1532.38,937.322 1534.56,938.834 1536.73,939.54 1538.91,939.439 1541.08,938.531 1543.26,936.819 1545.44,934.311 1547.61,931.016 1549.79,926.947 1551.96,922.12 1554.14,916.554 1556.32,910.272 1558.49,903.298 1560.67,895.66 1562.84,887.388 1565.02,878.514 1567.2,869.074 1569.37,859.106 1571.55,848.648 1573.72,837.742 1575.9,826.43 1578.08,814.759 1580.25,802.774 1582.43,790.521 1584.6,778.051 1586.78,765.412 1588.96,752.653 1591.13,739.826 1593.31,726.982 1595.49,714.17 1597.66,701.442 1599.84,688.848 1602.01,676.438 1604.19,664.261 1606.37,652.365 1608.54,640.797 1610.72,629.602 1612.89,618.826 1615.07,608.511 1617.25,598.697 1619.42,589.423 1621.6,580.726 1623.77,572.641 1625.95,565.199 1628.13,558.43 1630.3,552.36 1632.48,547.014 1634.65,542.413 1636.83,538.574 1639.01,535.514 1641.18,533.244 1643.36,531.772 1645.53,531.106 1647.71,531.248 1649.89,532.196 1652.06,533.948 1654.24,536.496 1656.41,539.83 1658.59,543.937 1660.77,548.802 1662.94,554.404 1665.12,560.721 1667.3,567.729 1669.47,575.399 1671.65,583.702 1673.82,592.605 1676,602.072 1678.18,612.066 1680.35,622.548 1682.53,633.475 1684.7,644.805 1686.88,656.494 1689.06,668.494 1691.23,680.758 1693.41,693.238 1695.58,705.884 1697.76,718.647 1699.94,731.476 1702.11,744.32 1704.29,757.129 1706.46,769.851 1708.64,782.437 1710.82,794.837 1712.99,807.001 1715.17,818.882 1717.34,830.433 1719.52,841.607 1721.7,852.361 1723.87,862.653 1726.05,872.44 1728.23,881.686 1730.4,890.353 1732.58,898.407 1734.75,905.816 1736.93,912.551 1739.11,918.585 1741.28,923.894 1743.46,928.458 1745.63,932.258 1747.81,935.279 1749.99,937.51 1752.16,938.941 1754.34,939.566 1756.51,939.385 1758.69,938.396 1760.87,936.604 1763.04,934.017 1765.22,930.643 1767.39,926.498 1769.57,921.596 1771.75,915.958 1773.92,909.605 1776.1,902.564 1778.27,894.861 1780.45,886.527 1782.63,877.595 1784.8,868.101 1786.98,858.081 1789.15,847.577 1791.33,836.628 1793.51,825.279 1795.68,813.574 1797.86,801.56 1800.04,789.283 1802.21,776.794 1804.39,764.14 1806.56,751.373 1808.74,738.542 1810.92,725.698 1813.09,712.893 1815.27,700.176 1817.44,687.598 1819.62,675.209 1821.8,663.058 1823.97,651.192 1826.15,639.66 1828.32,628.505 1830.5,617.773 1832.68,607.506 1834.85,597.745 1837.03,588.527 1839.2,579.89 1841.38,571.868 1843.56,564.492 1845.73,557.791 1847.91,551.793 1850.08,546.52 1852.26,541.994 1854.44,538.233 1856.61,535.251 1858.79,533.06 1860.97,531.669 1863.14,531.084 1865.32,531.306 1867.49,532.335 1869.67,534.167 1871.85,536.794 1874.02,540.206 1876.2,544.39 1878.37,549.329 1880.55,555.004 1882.73,561.391 1884.9,568.467 1887.08,576.202 1889.25,584.566 1891.43,593.527 1893.61,603.049 1895.78,613.093 1897.96,623.621 1900.13,634.591 1902.31,645.959 1904.49,657.68 1906.66,669.709 1908.84,681.997 1911.01,694.496 1913.19,707.156 1915.37,719.928 1917.54,732.761 1919.72,745.604 1921.89,758.406 1924.07,771.117 1926.25,783.687 1928.42,796.065 1930.6,808.203 1932.78,820.053 1934.95,831.568 1937.13,842.702 1939.3,853.412 1941.48,863.655 1943.66,873.39 1945.83,882.579 1948.01,891.187 1950.18,899.177 1952.36,906.52 1954.54,913.186 1956.71,919.149 1958.89,924.384 1961.06,928.872 1963.24,932.595 1965.42,935.538 1967.59,937.689 1969.77,939.039 1971.94,939.585 1974.12,939.322 1976.3,938.253 1978.47,936.381 1980.65,933.714 1982.82,930.263 1985,926.041 1987.18,921.065 1989.35,915.354 1991.53,908.932 1993.71,901.823 1995.88,894.055 1998.06,885.66 2000.23,876.67 2002.41,867.122 2004.59,857.052 2006.76,846.501 2008.94,835.51 2011.11,824.124 2013.29,812.386 2015.47,800.343 2017.64,788.043 2019.82,775.535 2021.99,762.868 2024.17,750.092 2026.35,737.257 2028.52,724.415 2030.7,711.616 2032.87,698.911 2035.05,686.35 2037.23,673.983 2039.4,661.858 2041.58,650.023 2043.75,638.527 2045.93,627.412 2048.11,616.725 2050.28,606.507 2052.46,596.798 2054.63,587.637 2056.81,579.059 2058.99,571.1 2061.16,563.791 2063.34,557.159 2065.52,551.233 2067.69,546.034 2069.87,541.584 2072.04,537.9 2074.22,534.996 2076.4,532.885 2078.57,531.575 2080.75,531.07 2082.92,531.373 2085.1,532.482 2087.28,534.394 2089.45,537.1 2091.63,540.59 2093.8,544.85 2095.98,549.864 2098.16,555.611 2100.33,562.068 2102.51,569.211 2104.68,577.01 2106.86,585.436 2109.04,594.455 2111.21,604.03 2113.39,614.125 2115.56,624.699 2117.74,635.71 2119.92,647.116 2122.09,658.87 2124.27,670.927 2126.45,683.238 2128.62,695.755 2130.8,708.429 2132.97,721.209 2135.15,734.045 2137.33,746.887 2139.5,759.682 2141.68,772.381 2143.85,784.934 2146.03,797.29 2148.21,809.402 2150.38,821.22 2152.56,832.699 2154.73,843.793 2156.91,854.458 2159.09,864.652 2161.26,874.334 2163.44,883.467 2165.61,892.014 2167.79,899.941 2169.97,907.218 2172.14,913.814 2174.32,919.705 2176.49,924.867 2178.67,929.279 2180.85,932.925 2183.02,935.789 2185.2,937.86 2187.37,939.13 2189.55,939.595 2191.73,939.251 2193.9,938.102 2196.08,936.15 2198.26,933.404 2200.43,929.875 2202.61,925.577 2204.78,920.527 2206.96,914.744 2209.14,908.251 2211.31,901.075 2213.49,893.243 2215.66,884.787 2217.84,875.74 2220.02,866.138 2222.19,856.018 2224.37,845.421 2226.54,834.389 2228.72,822.965 2230.9,811.194 2233.07,799.124 2235.25,786.801 2237.42,774.275 2239.6,761.594 2241.78,748.81 2243.95,735.973 2246.13,723.133 2248.3,710.341 2250.48,697.648 2252.66,685.104 2254.83,672.758 2257.01,660.66 2259.19,648.858 2261.36,637.397 2263.54,626.324 2265.71,615.681 2267.89,605.512 2270.07,595.856 2272.24,586.752 2274.42,578.235 2276.59,570.34 2278.77,563.097 2280.95,556.535 2283.12,550.68 2285.3,545.555 2287.47,541.18 2289.65,537.574 2291.83,534.749 2294,532.718 2296.18,531.488 2298.35,531.064 2300.53,531.447 2302.71,532.637 2304.88,534.629 2307.06,537.414 2309.23,540.982 2311.41,545.318 2313.59,550.406 2315.76,556.225 2317.94,562.752 2320.11,569.962 2322.29,577.825 2324.47,586.312 2326.64,595.388 2328.82,605.017 2331,615.161 2333.17,625.781 2335.35,636.834 2337.52,648.276 2339.7,660.063 2341.88,672.147 2344.05,684.481 2346.23,697.017 2348.4,709.703 2350.58,722.491 2352.76,735.33 "></polyline>
<polyline clip-path="url(#clip942)" style="stroke:#3da44d; stroke-linecap:round; stroke-linejoin:round; stroke-width:4; stroke-opacity:1; fill:none" points="178.867,735.33 181.043,735.33 183.219,735.33 185.395,735.33 187.571,735.33 189.747,735.33 191.923,735.33 194.099,735.33 196.275,735.33 198.451,735.33 200.627,735.33 202.803,735.33 204.979,735.33 207.155,735.33 209.332,735.33 211.508,735.33 213.684,735.33 215.86,735.33 218.036,735.33 220.212,735.33 222.388,735.33 224.564,735.33 226.74,735.33 228.916,735.33 231.092,735.33 233.268,735.33 235.444,735.33 237.62,735.33 239.796,735.33 241.973,735.33 244.149,735.33 246.325,735.33 248.501,735.33 250.677,735.33 252.853,735.33 255.029,735.33 257.205,735.33 259.381,735.33 261.557,735.33 263.733,735.33 265.909,735.33 268.085,735.33 270.261,735.33 272.437,735.33 274.614,735.33 276.79,735.33 278.966,735.33 281.142,735.33 283.318,735.33 285.494,735.33 287.67,735.33 289.846,735.33 292.022,735.33 294.198,735.33 296.374,735.33 298.55,735.33 300.726,735.33 302.902,735.33 305.078,735.33 307.254,735.33 309.431,735.33 311.607,735.33 313.783,735.33 315.959,735.33 318.135,735.33 320.311,735.33 322.487,735.33 324.663,735.33 326.839,735.33 329.015,735.33 331.191,735.33 333.367,735.33 335.543,735.33 337.719,735.33 339.895,735.33 342.072,735.33 344.248,735.33 346.424,735.33 348.6,735.33 350.776,735.33 352.952,735.33 355.128,735.33 357.304,735.33 359.48,735.33 361.656,735.33 363.832,735.33 366.008,735.33 368.184,735.33 370.36,735.33 372.536,735.33 374.713,735.33 376.889,735.33 379.065,735.33 381.241,735.33 383.417,735.33 385.593,735.33 387.769,735.33 389.945,735.33 392.121,735.33 394.297,735.33 396.473,735.33 398.649,735.33 400.825,735.33 403.001,735.33 405.177,735.33 407.353,735.33 409.53,735.33 411.706,735.33 413.882,735.33 416.058,735.33 418.234,735.33 420.41,735.33 422.586,735.33 424.762,735.33 426.938,735.33 429.114,735.33 431.29,735.33 433.466,735.33 435.642,735.33 437.818,735.33 439.994,735.33 442.171,735.33 444.347,735.33 446.523,735.33 448.699,735.33 450.875,735.33 453.051,735.33 455.227,735.33 457.403,735.33 459.579,735.33 461.755,735.33 463.931,735.33 466.107,735.33 468.283,735.33 470.459,735.33 472.635,735.33 474.812,735.33 476.988,735.33 479.164,735.33 481.34,735.33 483.516,735.33 485.692,735.33 487.868,735.33 490.044,735.33 492.22,735.33 494.396,735.33 496.572,735.33 498.748,735.33 500.924,735.33 503.1,735.33 505.276,735.33 507.452,735.33 509.629,735.33 511.805,735.33 513.981,735.33 516.157,735.33 518.333,735.33 520.509,735.33 522.685,735.33 524.861,735.33 527.037,735.33 529.213,735.33 531.389,735.33 533.565,735.33 535.741,735.33 537.917,735.33 540.093,735.33 542.27,735.33 544.446,735.33 546.622,735.33 548.798,735.33 550.974,735.33 553.15,735.33 555.326,735.33 557.502,735.33 559.678,735.33 561.854,735.33 564.03,735.33 566.206,735.33 568.382,735.33 570.558,735.33 572.734,735.33 574.911,735.33 577.087,735.33 579.263,735.33 581.439,735.33 583.615,735.33 585.791,735.33 587.967,735.33 590.143,735.33 592.319,735.33 594.495,735.33 596.671,735.33 598.847,735.33 601.023,735.33 603.199,735.33 605.375,735.33 607.552,735.33 609.728,735.33 611.904,735.33 614.08,735.33 616.256,735.33 618.432,735.33 620.608,735.33 622.784,735.33 624.96,735.33 627.136,735.33 629.312,735.33 631.488,735.33 633.664,735.33 635.84,735.33 638.016,735.33 640.192,735.33 642.369,735.33 644.545,735.33 646.721,735.33 648.897,735.33 651.073,735.33 653.249,735.33 655.425,735.33 657.601,735.33 659.777,735.33 661.953,735.33 664.129,735.33 666.305,735.33 668.481,735.33 670.657,735.33 672.833,735.33 675.01,735.33 677.186,735.33 679.362,735.33 681.538,735.33 683.714,735.33 685.89,735.33 688.066,735.33 690.242,735.33 692.418,735.33 694.594,735.33 696.77,735.33 698.946,735.33 701.122,735.33 703.298,735.33 705.474,735.33 707.651,735.33 709.827,735.33 712.003,735.33 714.179,735.33 716.355,735.33 718.531,735.33 720.707,735.33 722.883,735.327 725.059,735.304 727.235,735.259 729.411,735.19 731.587,735.096 733.763,734.978 735.939,734.836 738.115,734.673 740.291,734.489 742.468,734.286 744.644,734.066 746.82,733.829 748.996,733.579 751.172,733.317 753.348,733.045 755.524,732.765 757.7,732.479 759.876,732.19 762.052,731.901 764.228,731.613 766.404,731.329 768.58,731.051 770.756,730.782 772.932,730.524 775.109,730.279 777.285,730.05 779.461,729.839 781.637,729.647 783.813,729.478 785.989,729.333 788.165,729.213 790.341,729.12 792.517,729.056 794.693,729.023 796.869,729.02 799.045,729.05 801.221,729.113 803.397,729.21 805.573,729.342 807.75,729.508 809.926,729.708 812.102,729.943 814.278,730.213 816.454,730.516 818.63,730.852 820.806,731.22 822.982,731.619 825.158,732.048 827.334,732.505 829.51,732.988 831.686,733.497 833.862,734.028 836.038,734.58 838.214,735.15 840.39,735.737 842.567,736.336 844.743,736.947 846.919,737.565 849.095,738.189 851.271,738.816 853.447,739.441 855.623,740.063 857.799,740.679 859.975,741.285 862.151,741.879 864.327,742.457 866.503,743.017 868.679,743.554 870.855,744.068 873.031,744.555 875.208,745.011 877.384,745.436 879.56,745.825 881.736,746.178 883.912,746.491 886.088,746.764 888.264,746.993 890.44,747.177 892.616,747.314 894.792,747.404 896.968,747.446 899.144,747.437 901.32,747.378 903.496,747.269 905.672,747.109 907.849,746.898 910.025,746.636 912.201,746.324 914.377,745.963 916.553,745.553 918.729,745.096 920.905,744.593 923.081,744.045 925.257,743.455 927.433,742.825 929.609,742.156 931.785,741.451 933.961,740.713 936.137,739.944 938.313,739.148 940.49,738.328 942.666,737.486 944.842,736.627 947.018,735.753 949.194,734.868 951.37,733.976 953.546,733.08 955.722,732.184 957.898,731.291 960.074,730.407 962.25,729.534 964.426,728.676 966.602,727.837 968.778,727.02 970.954,726.23 973.13,725.469 975.307,724.742 977.483,724.051 979.659,723.399 981.835,722.79 984.011,722.226 986.187,721.71 988.363,721.245 990.539,720.832 992.715,720.475 994.891,720.174 997.067,719.932 999.243,719.751 1001.42,719.631 1003.6,719.573 1005.77,719.578 1007.95,719.646 1010.12,719.777 1012.3,719.972 1014.48,720.229 1016.65,720.548 1018.83,720.928 1021,721.369 1023.18,721.868 1025.36,722.425 1027.53,723.037 1029.71,723.702 1031.88,724.417 1034.06,725.181 1036.24,725.99 1038.41,726.841 1040.59,727.73 1042.76,728.656 1044.94,729.613 1047.12,730.598 1049.29,731.607 1051.47,732.637 1053.64,733.683 1055.82,734.742 1058,735.808 1060.17,736.878 1062.35,737.948 1064.53,739.013 1066.7,740.068 1068.88,741.11 1071.05,742.133 1073.23,743.135 1075.41,744.11 1077.58,745.055 1079.76,745.966 1081.93,746.838 1084.11,747.668 1086.29,748.452 1088.46,749.188 1090.64,749.873 1092.81,750.502 1094.99,751.074 1097.17,751.586 1099.34,752.035 1101.52,752.42 1103.69,752.739 1105.87,752.989 1108.05,753.17 1110.22,753.281 1112.4,753.32 1114.57,753.288 1116.75,753.184 1118.93,753.009 1121.1,752.763 1123.28,752.447 1125.46,752.062 1127.63,751.61 1129.81,751.091 1131.98,750.508 1134.16,749.863 1136.34,749.157 1138.51,748.395 1140.69,747.578 1142.86,746.709 1145.04,745.792 1147.22,744.831 1149.39,743.829 1151.57,742.79 1153.74,741.718 1155.92,740.618 1158.1,739.493 1160.27,738.349 1162.45,737.189 1164.62,736.019 1166.8,734.843 1168.98,733.665 1171.15,732.49 1173.33,731.323 1175.5,730.169 1177.68,729.032 1179.86,727.917 1182.03,726.828 1184.21,725.77 1186.38,724.747 1188.56,723.764 1190.74,722.824 1192.91,721.931 1195.09,721.089 1197.27,720.302 1199.44,719.573 1201.62,718.904 1203.79,718.299 1205.97,717.759 1208.15,717.288 1210.32,716.887 1212.5,716.558 1214.67,716.302 1216.85,716.121 1219.03,716.017 1221.2,715.988 1223.38,716.037 1225.55,716.163 1227.73,716.364 1229.91,716.642 1232.08,716.994 1234.26,717.42 1236.43,717.917 1238.61,718.483 1240.79,719.117 1242.96,719.817 1245.14,720.58 1247.31,721.402 1249.49,722.281 1251.67,723.214 1253.84,724.196 1256.02,725.224 1258.2,726.295 1260.37,727.403 1262.55,728.545 1264.72,729.715 1266.9,730.909 1269.08,732.123 1271.25,733.352 1273.43,734.591 1275.6,735.835 1277.78,737.078 1279.96,738.316 1282.13,739.545 1284.31,740.759 1286.48,741.953 1288.66,743.124 1290.84,744.265 1293.01,745.373 1295.19,746.442 1297.36,747.469 1299.54,748.45 1301.72,749.381 1303.89,750.257 1306.07,751.075 1308.24,751.831 1310.42,752.524 1312.6,753.149 1314.77,753.704 1316.95,754.187 1319.12,754.597 1321.3,754.931 1323.48,755.188 1325.65,755.368 1327.83,755.468 1330.01,755.489 1332.18,755.429 1334.36,755.29 1336.53,755.072 1338.71,754.775 1340.89,754.401 1343.06,753.95 1345.24,753.425 1347.41,752.828 1349.59,752.162 1351.77,751.428 1353.94,750.63 1356.12,749.77 1358.29,748.853 1360.47,747.881 1362.65,746.858 1364.82,745.789 1367,744.677 1369.17,743.527 1371.35,742.343 1373.53,741.129 1375.7,739.892 1377.88,738.635 1380.05,737.365 1382.23,736.084 1384.41,734.8 1386.58,733.516 1388.76,732.239 1390.94,730.972 1393.11,729.722 1395.29,728.493 1397.46,727.29 1399.64,726.118 1401.82,724.981 1403.99,723.884 1406.17,722.831 1408.34,721.826 1410.52,720.874 1412.7,719.978 1414.87,719.142 1417.05,718.369 1419.22,717.663 1421.4,717.026 1423.58,716.462 1425.75,715.972 1427.93,715.558 1430.1,715.222 1432.28,714.966 1434.46,714.789 1436.63,714.694 1438.81,714.679 1440.98,714.746 1443.16,714.895 1445.34,715.124 1447.51,715.434 1449.69,715.823 1451.86,716.289 1454.04,716.831 1456.22,717.447 1458.39,718.134 1460.57,718.89 1462.75,719.711 1464.92,720.594 1467.1,721.536 1469.27,722.533 1471.45,723.581 1473.63,724.676 1475.8,725.814 1477.98,726.99 1480.15,728.2 1482.33,729.439 1484.51,730.702 1486.68,731.985 1488.86,733.281 1491.03,734.587 1493.21,735.896 1495.39,737.203 1497.56,738.504 1499.74,739.794 1501.91,741.066 1504.09,742.316 1506.27,743.539 1508.44,744.73 1510.62,745.884 1512.79,746.998 1514.97,748.065 1517.15,749.083 1519.32,750.047 1521.5,750.954 1523.68,751.799 1525.85,752.58 1528.03,753.294 1530.2,753.936 1532.38,754.506 1534.56,754.999 1536.73,755.415 1538.91,755.751 1541.08,756.007 1543.26,756.18 1545.44,756.272 1547.61,756.28 1549.79,756.206 1551.96,756.05 1554.14,755.811 1556.32,755.492 1558.49,755.093 1560.67,754.616 1562.84,754.062 1565.02,753.434 1567.2,752.734 1569.37,751.965 1571.55,751.129 1573.72,750.231 1575.9,749.273 1578.08,748.26 1580.25,747.196 1582.43,746.084 1584.6,744.929 1586.78,743.736 1588.96,742.509 1591.13,741.254 1593.31,739.975 1595.49,738.677 1597.66,737.365 1599.84,736.044 1602.01,734.72 1604.19,733.398 1606.37,732.083 1608.54,730.781 1610.72,729.496 1612.89,728.234 1615.07,726.999 1617.25,725.797 1619.42,724.632 1621.6,723.51 1623.77,722.434 1625.95,721.409 1628.13,720.438 1630.3,719.526 1632.48,718.676 1634.65,717.892 1636.83,717.176 1639.01,716.532 1641.18,715.961 1643.36,715.467 1645.53,715.051 1647.71,714.715 1649.89,714.461 1652.06,714.29 1654.24,714.202 1656.41,714.198 1658.59,714.278 1660.77,714.441 1662.94,714.687 1665.12,715.013 1667.3,715.42 1669.47,715.906 1671.65,716.468 1673.82,717.105 1676,717.815 1678.18,718.594 1680.35,719.439 1682.53,720.347 1684.7,721.315 1686.88,722.339 1689.06,723.415 1691.23,724.537 1693.41,725.703 1695.58,726.907 1697.76,728.144 1699.94,729.411 1702.11,730.7 1704.29,732.009 1706.46,733.33 1708.64,734.66 1710.82,735.992 1712.99,737.322 1715.17,738.645 1717.34,739.955 1719.52,741.248 1721.7,742.517 1723.87,743.757 1726.05,744.965 1728.23,746.135 1730.4,747.263 1732.58,748.343 1734.75,749.373 1736.93,750.346 1739.11,751.26 1741.28,752.112 1743.46,752.897 1745.63,753.613 1747.81,754.257 1749.99,754.826 1752.16,755.318 1754.34,755.732 1756.51,756.066 1758.69,756.318 1760.87,756.486 1763.04,756.571 1765.22,756.571 1767.39,756.487 1769.57,756.32 1771.75,756.069 1773.92,755.735 1776.1,755.322 1778.27,754.829 1780.45,754.259 1782.63,753.615 1784.8,752.898 1786.98,752.112 1789.15,751.26 1791.33,750.344 1793.51,749.369 1795.68,748.339 1797.86,747.256 1800.04,746.126 1802.21,744.953 1804.39,743.742 1806.56,742.497 1808.74,741.224 1810.92,739.928 1813.09,738.613 1815.27,737.285 1817.44,735.949 1819.62,734.611 1821.8,733.275 1823.97,731.948 1826.15,730.634 1828.32,729.338 1830.5,728.066 1832.68,726.822 1834.85,725.611 1837.03,724.439 1839.2,723.31 1841.38,722.227 1843.56,721.197 1845.73,720.222 1847.91,719.307 1850.08,718.455 1852.26,717.671 1854.44,716.956 1856.61,716.314 1858.79,715.747 1860.97,715.257 1863.14,714.847 1865.32,714.517 1867.49,714.269 1869.67,714.104 1871.85,714.023 1874.02,714.026 1876.2,714.114 1878.37,714.286 1880.55,714.541 1882.73,714.878 1884.9,715.297 1887.08,715.795 1889.25,716.371 1891.43,717.022 1893.61,717.744 1895.78,718.536 1897.96,719.395 1900.13,720.316 1902.31,721.297 1904.49,722.333 1906.66,723.42 1908.84,724.555 1911.01,725.733 1913.19,726.949 1915.37,728.198 1917.54,729.476 1919.72,730.777 1921.89,732.096 1924.07,733.428 1926.25,734.767 1928.42,736.11 1930.6,737.449 1932.78,738.779 1934.95,740.096 1937.13,741.394 1939.3,742.668 1941.48,743.913 1943.66,745.124 1945.83,746.296 1948.01,747.426 1950.18,748.508 1952.36,749.537 1954.54,750.511 1956.71,751.425 1958.89,752.276 1961.06,753.06 1963.24,753.773 1965.42,754.413 1967.59,754.978 1969.77,755.465 1971.94,755.872 1974.12,756.198 1976.3,756.441 1978.47,756.601 1980.65,756.678 1982.82,756.67 1985,756.578 1987.18,756.402 1989.35,756.142 1991.53,755.801 1993.71,755.378 1995.88,754.876 1998.06,754.296 2000.23,753.641 2002.41,752.913 2004.59,752.116 2006.76,751.253 2008.94,750.327 2011.11,749.341 2013.29,748.3 2015.47,747.208 2017.64,746.069 2019.82,744.888 2021.99,743.668 2024.17,742.416 2026.35,741.136 2028.52,739.832 2030.7,738.51 2032.87,737.175 2035.05,735.833 2037.23,734.49 2039.4,733.149 2041.58,731.817 2043.75,730.499 2045.93,729.199 2048.11,727.924 2050.28,726.679 2052.46,725.468 2054.63,724.296 2056.81,723.167 2058.99,722.087 2061.16,721.059 2063.34,720.087 2065.52,719.175 2067.69,718.327 2069.87,717.546 2072.04,716.834 2074.22,716.196 2076.4,715.634 2078.57,715.15 2080.75,714.745 2082.92,714.423 2085.1,714.183 2087.28,714.027 2089.45,713.956 2091.63,713.969 2093.8,714.066 2095.98,714.247 2098.16,714.511 2100.33,714.857 2102.51,715.284 2104.68,715.79 2106.86,716.374 2109.04,717.033 2111.21,717.764 2113.39,718.565 2115.56,719.433 2117.74,720.363 2119.92,721.353 2122.09,722.397 2124.27,723.493 2126.45,724.636 2128.62,725.821 2130.8,727.043 2132.97,728.298 2135.15,729.581 2137.33,730.887 2139.5,732.21 2141.68,733.546 2143.85,734.889 2146.03,736.234 2148.21,737.576 2150.38,738.908 2152.56,740.227 2154.73,741.526 2156.91,742.801 2159.09,744.046 2161.26,745.257 2163.44,746.429 2165.61,747.556 2167.79,748.635 2169.97,749.661 2172.14,750.631 2174.32,751.54 2176.49,752.385 2178.67,753.163 2180.85,753.87 2183.02,754.505 2185.2,755.064 2187.37,755.545 2189.55,755.947 2191.73,756.266 2193.9,756.503 2196.08,756.655 2198.26,756.723 2200.43,756.706 2202.61,756.604 2204.78,756.418 2206.96,756.149 2209.14,755.798 2211.31,755.366 2213.49,754.855 2215.66,754.268 2217.84,753.605 2220.02,752.87 2222.19,752.065 2224.37,751.195 2226.54,750.261 2228.72,749.268 2230.9,748.22 2233.07,747.121 2235.25,745.975 2237.42,744.788 2239.6,743.562 2241.78,742.305 2243.95,741.019 2246.13,739.711 2248.3,738.386 2250.48,737.05 2252.66,735.706 2254.83,734.361 2257.01,733.019 2259.19,731.687 2261.36,730.369 2263.54,729.07 2265.71,727.796 2267.89,726.552 2270.07,725.342 2272.24,724.172 2274.42,723.046 2276.59,721.968 2278.77,720.944 2280.95,719.976 2283.12,719.07 2285.3,718.228 2287.47,717.453 2289.65,716.749 2291.83,716.118 2294,715.564 2296.18,715.087 2298.35,714.689 2300.53,714.374 2302.71,714.141 2304.88,713.992 2307.06,713.927 2309.23,713.948 2311.41,714.053 2313.59,714.243 2315.76,714.516 2317.94,714.872 2320.11,715.309 2322.29,715.824 2324.47,716.417 2326.64,717.083 2328.82,717.822 2331,718.631 2333.17,719.505 2335.35,720.441 2337.52,721.437 2339.7,722.488 2341.88,723.589 2344.05,724.738 2346.23,725.928 2348.4,727.155 2350.58,728.415 2352.76,729.702 "></polyline>
<path clip-path="url(#clip940)" d="M251.33 300.469 L776.958 300.469 L776.958 93.1086 L251.33 93.1086  Z" fill="#ffffff" fill-rule="evenodd" fill-opacity="1"></path>
<polyline clip-path="url(#clip940)" style="stroke:#000000; stroke-linecap:round; stroke-linejoin:round; stroke-width:4; stroke-opacity:1; fill:none" points="251.33,300.469 776.958,300.469 776.958,93.1086 251.33,93.1086 251.33,300.469 "></polyline>
<polyline clip-path="url(#clip940)" style="stroke:#009af9; stroke-linecap:round; stroke-linejoin:round; stroke-width:4; stroke-opacity:1; fill:none" points="275.484,144.949 420.41,144.949 "></polyline>
<path clip-path="url(#clip940)" d="M465.073 137.298 L465.073 141.28 Q463.268 140.284 461.439 139.798 Q459.634 139.289 457.782 139.289 Q453.638 139.289 451.347 141.928 Q449.055 144.544 449.055 149.289 Q449.055 154.034 451.347 156.673 Q453.638 159.289 457.782 159.289 Q459.634 159.289 461.439 158.803 Q463.268 158.293 465.073 157.298 L465.073 161.233 Q463.291 162.067 461.37 162.483 Q459.472 162.9 457.319 162.9 Q451.462 162.9 448.013 159.219 Q444.564 155.539 444.564 149.289 Q444.564 142.946 448.036 139.312 Q451.532 135.678 457.597 135.678 Q459.564 135.678 461.439 136.095 Q463.314 136.488 465.073 137.298 Z" fill="#000000" fill-rule="nonzero" fill-opacity="1"></path><path clip-path="url(#clip940)" d="M484.263 149.196 Q479.101 149.196 477.11 150.377 Q475.12 151.557 475.12 154.405 Q475.12 156.673 476.601 158.016 Q478.106 159.335 480.675 159.335 Q484.217 159.335 486.346 156.835 Q488.499 154.312 488.499 150.145 L488.499 149.196 L484.263 149.196 M492.758 147.437 L492.758 162.229 L488.499 162.229 L488.499 158.293 Q487.041 160.655 484.865 161.789 Q482.689 162.9 479.541 162.9 Q475.559 162.9 473.198 160.678 Q470.86 158.432 470.86 154.682 Q470.86 150.307 473.777 148.085 Q476.717 145.863 482.527 145.863 L488.499 145.863 L488.499 145.446 Q488.499 142.507 486.555 140.909 Q484.633 139.289 481.138 139.289 Q478.916 139.289 476.809 139.821 Q474.703 140.354 472.759 141.419 L472.759 137.483 Q475.096 136.581 477.296 136.141 Q479.495 135.678 481.578 135.678 Q487.203 135.678 489.981 138.594 Q492.758 141.511 492.758 147.437 Z" fill="#000000" fill-rule="nonzero" fill-opacity="1"></path><path clip-path="url(#clip940)" d="M505.652 158.34 L505.652 172.09 L501.369 172.09 L501.369 136.303 L505.652 136.303 L505.652 140.238 Q506.994 137.923 509.031 136.812 Q511.092 135.678 513.939 135.678 Q518.661 135.678 521.601 139.428 Q524.564 143.178 524.564 149.289 Q524.564 155.4 521.601 159.15 Q518.661 162.9 513.939 162.9 Q511.092 162.9 509.031 161.789 Q506.994 160.655 505.652 158.34 M520.143 149.289 Q520.143 144.59 518.198 141.928 Q516.277 139.243 512.897 139.243 Q509.518 139.243 507.573 141.928 Q505.652 144.59 505.652 149.289 Q505.652 153.988 507.573 156.673 Q509.518 159.335 512.897 159.335 Q516.277 159.335 518.198 156.673 Q520.143 153.988 520.143 149.289 Z" fill="#000000" fill-rule="nonzero" fill-opacity="1"></path><path clip-path="url(#clip940)" d="M543.406 149.196 Q538.244 149.196 536.254 150.377 Q534.263 151.557 534.263 154.405 Q534.263 156.673 535.744 158.016 Q537.249 159.335 539.818 159.335 Q543.36 159.335 545.49 156.835 Q547.642 154.312 547.642 150.145 L547.642 149.196 L543.406 149.196 M551.902 147.437 L551.902 162.229 L547.642 162.229 L547.642 158.293 Q546.184 160.655 544.008 161.789 Q541.832 162.9 538.684 162.9 Q534.703 162.9 532.342 160.678 Q530.004 158.432 530.004 154.682 Q530.004 150.307 532.92 148.085 Q535.86 145.863 541.67 145.863 L547.642 145.863 L547.642 145.446 Q547.642 142.507 545.698 140.909 Q543.777 139.289 540.281 139.289 Q538.059 139.289 535.953 139.821 Q533.846 140.354 531.902 141.419 L531.902 137.483 Q534.24 136.581 536.439 136.141 Q538.638 135.678 540.721 135.678 Q546.346 135.678 549.124 138.594 Q551.902 141.511 551.902 147.437 Z" fill="#000000" fill-rule="nonzero" fill-opacity="1"></path><path clip-path="url(#clip940)" d="M579.332 137.298 L579.332 141.28 Q577.526 140.284 575.698 139.798 Q573.892 139.289 572.04 139.289 Q567.897 139.289 565.605 141.928 Q563.314 144.544 563.314 149.289 Q563.314 154.034 565.605 156.673 Q567.897 159.289 572.04 159.289 Q573.892 159.289 575.698 158.803 Q577.526 158.293 579.332 157.298 L579.332 161.233 Q577.55 162.067 575.628 162.483 Q573.73 162.9 571.577 162.9 Q565.721 162.9 562.272 159.219 Q558.823 155.539 558.823 149.289 Q558.823 142.946 562.295 139.312 Q565.79 135.678 571.855 135.678 Q573.823 135.678 575.698 136.095 Q577.573 136.488 579.332 137.298 Z" fill="#000000" fill-rule="nonzero" fill-opacity="1"></path><path clip-path="url(#clip940)" d="M586.739 136.303 L590.999 136.303 L590.999 162.229 L586.739 162.229 L586.739 136.303 M586.739 126.21 L590.999 126.21 L590.999 131.604 L586.739 131.604 L586.739 126.21 Z" fill="#000000" fill-rule="nonzero" fill-opacity="1"></path><path clip-path="url(#clip940)" d="M604.124 128.942 L604.124 136.303 L612.897 136.303 L612.897 139.613 L604.124 139.613 L604.124 153.687 Q604.124 156.858 604.98 157.761 Q605.86 158.664 608.522 158.664 L612.897 158.664 L612.897 162.229 L608.522 162.229 Q603.591 162.229 601.716 160.4 Q599.841 158.548 599.841 153.687 L599.841 139.613 L596.716 139.613 L596.716 136.303 L599.841 136.303 L599.841 128.942 L604.124 128.942 Z" fill="#000000" fill-rule="nonzero" fill-opacity="1"></path><path clip-path="url(#clip940)" d="M628.545 139.289 Q625.119 139.289 623.128 141.974 Q621.137 144.636 621.137 149.289 Q621.137 153.942 623.105 156.627 Q625.096 159.289 628.545 159.289 Q631.947 159.289 633.938 156.604 Q635.929 153.918 635.929 149.289 Q635.929 144.682 633.938 141.997 Q631.947 139.289 628.545 139.289 M628.545 135.678 Q634.1 135.678 637.272 139.289 Q640.443 142.9 640.443 149.289 Q640.443 155.655 637.272 159.289 Q634.1 162.9 628.545 162.9 Q622.966 162.9 619.795 159.289 Q616.647 155.655 616.647 149.289 Q616.647 142.9 619.795 139.289 Q622.966 135.678 628.545 135.678 Z" fill="#000000" fill-rule="nonzero" fill-opacity="1"></path><path clip-path="url(#clip940)" d="M662.526 140.284 Q661.808 139.868 660.952 139.682 Q660.119 139.474 659.1 139.474 Q655.489 139.474 653.545 141.835 Q651.623 144.173 651.623 148.571 L651.623 162.229 L647.341 162.229 L647.341 136.303 L651.623 136.303 L651.623 140.331 Q652.966 137.969 655.119 136.835 Q657.271 135.678 660.35 135.678 Q660.79 135.678 661.322 135.747 Q661.855 135.794 662.503 135.909 L662.526 140.284 Z" fill="#000000" fill-rule="nonzero" fill-opacity="1"></path><path clip-path="url(#clip940)" d="M663.244 156.349 L668.128 156.349 L668.128 162.229 L663.244 162.229 L663.244 156.349 Z" fill="#000000" fill-rule="nonzero" fill-opacity="1"></path><path clip-path="url(#clip940)" d="M674.656 136.303 L679.169 136.303 L687.271 158.062 L695.373 136.303 L699.887 136.303 L690.165 162.229 L684.378 162.229 L674.656 136.303 Z" fill="#000000" fill-rule="nonzero" fill-opacity="1"></path><path clip-path="url(#clip940)" d="M715.998 126.257 Q712.896 131.581 711.391 136.789 Q709.887 141.997 709.887 147.344 Q709.887 152.692 711.391 157.946 Q712.919 163.178 715.998 168.479 L712.294 168.479 Q708.822 163.039 707.086 157.784 Q705.373 152.53 705.373 147.344 Q705.373 142.182 707.086 136.951 Q708.799 131.72 712.294 126.257 L715.998 126.257 Z" fill="#000000" fill-rule="nonzero" fill-opacity="1"></path><path clip-path="url(#clip940)" d="M728.475 128.942 L728.475 136.303 L737.248 136.303 L737.248 139.613 L728.475 139.613 L728.475 153.687 Q728.475 156.858 729.331 157.761 Q730.211 158.664 732.873 158.664 L737.248 158.664 L737.248 162.229 L732.873 162.229 Q727.942 162.229 726.067 160.4 Q724.192 158.548 724.192 153.687 L724.192 139.613 L721.067 139.613 L721.067 136.303 L724.192 136.303 L724.192 128.942 L728.475 128.942 Z" fill="#000000" fill-rule="nonzero" fill-opacity="1"></path><path clip-path="url(#clip940)" d="M742.178 126.257 L745.882 126.257 Q749.354 131.72 751.067 136.951 Q752.803 142.182 752.803 147.344 Q752.803 152.53 751.067 157.784 Q749.354 163.039 745.882 168.479 L742.178 168.479 Q745.257 163.178 746.762 157.946 Q748.289 152.692 748.289 147.344 Q748.289 141.997 746.762 136.789 Q745.257 131.581 742.178 126.257 Z" fill="#000000" fill-rule="nonzero" fill-opacity="1"></path><polyline clip-path="url(#clip940)" style="stroke:#e26f46; stroke-linecap:round; stroke-linejoin:round; stroke-width:4; stroke-opacity:1; fill:none" points="275.484,196.789 420.41,196.789 "></polyline>
<path clip-path="url(#clip940)" d="M462.99 188.907 L462.99 192.934 Q461.184 192.009 459.24 191.546 Q457.296 191.083 455.212 191.083 Q452.041 191.083 450.444 192.055 Q448.87 193.027 448.87 194.971 Q448.87 196.453 450.004 197.309 Q451.138 198.143 454.564 198.907 L456.022 199.231 Q460.559 200.203 462.458 201.985 Q464.379 203.745 464.379 206.916 Q464.379 210.527 461.509 212.633 Q458.661 214.74 453.661 214.74 Q451.578 214.74 449.31 214.323 Q447.064 213.93 444.564 213.12 L444.564 208.721 Q446.925 209.948 449.217 210.573 Q451.509 211.175 453.754 211.175 Q456.763 211.175 458.384 210.157 Q460.004 209.115 460.004 207.24 Q460.004 205.504 458.823 204.578 Q457.666 203.652 453.708 202.796 L452.226 202.448 Q448.268 201.615 446.509 199.902 Q444.749 198.166 444.749 195.157 Q444.749 191.499 447.342 189.509 Q449.935 187.518 454.703 187.518 Q457.064 187.518 459.147 187.865 Q461.231 188.212 462.99 188.907 Z" fill="#000000" fill-rule="nonzero" fill-opacity="1"></path><path clip-path="url(#clip940)" d="M481.208 191.129 Q477.782 191.129 475.791 193.814 Q473.8 196.476 473.8 201.129 Q473.8 205.782 475.768 208.467 Q477.758 211.129 481.208 211.129 Q484.61 211.129 486.601 208.444 Q488.592 205.758 488.592 201.129 Q488.592 196.522 486.601 193.837 Q484.61 191.129 481.208 191.129 M481.208 187.518 Q486.763 187.518 489.934 191.129 Q493.106 194.74 493.106 201.129 Q493.106 207.495 489.934 211.129 Q486.763 214.74 481.208 214.74 Q475.629 214.74 472.458 211.129 Q469.309 207.495 469.309 201.129 Q469.309 194.74 472.458 191.129 Q475.629 187.518 481.208 187.518 Z" fill="#000000" fill-rule="nonzero" fill-opacity="1"></path><path clip-path="url(#clip940)" d="M499.726 203.837 L499.726 188.143 L503.985 188.143 L503.985 203.675 Q503.985 207.356 505.42 209.208 Q506.856 211.036 509.726 211.036 Q513.175 211.036 515.166 208.837 Q517.18 206.638 517.18 202.842 L517.18 188.143 L521.439 188.143 L521.439 214.069 L517.18 214.069 L517.18 210.087 Q515.629 212.448 513.568 213.606 Q511.531 214.74 508.823 214.74 Q504.356 214.74 502.041 211.962 Q499.726 209.184 499.726 203.837 M510.443 187.518 L510.443 187.518 Z" fill="#000000" fill-rule="nonzero" fill-opacity="1"></path><path clip-path="url(#clip940)" d="M545.235 192.124 Q544.517 191.708 543.661 191.522 Q542.828 191.314 541.809 191.314 Q538.198 191.314 536.254 193.675 Q534.332 196.013 534.332 200.411 L534.332 214.069 L530.05 214.069 L530.05 188.143 L534.332 188.143 L534.332 192.171 Q535.675 189.809 537.828 188.675 Q539.98 187.518 543.059 187.518 Q543.499 187.518 544.031 187.587 Q544.564 187.634 545.212 187.749 L545.235 192.124 Z" fill="#000000" fill-rule="nonzero" fill-opacity="1"></path><path clip-path="url(#clip940)" d="M567.318 189.138 L567.318 193.12 Q565.513 192.124 563.684 191.638 Q561.878 191.129 560.027 191.129 Q555.883 191.129 553.591 193.768 Q551.3 196.384 551.3 201.129 Q551.3 205.874 553.591 208.513 Q555.883 211.129 560.027 211.129 Q561.878 211.129 563.684 210.643 Q565.513 210.133 567.318 209.138 L567.318 213.073 Q565.536 213.907 563.614 214.323 Q561.716 214.74 559.564 214.74 Q553.707 214.74 550.258 211.059 Q546.809 207.379 546.809 201.129 Q546.809 194.786 550.281 191.152 Q553.777 187.518 559.841 187.518 Q561.809 187.518 563.684 187.935 Q565.559 188.328 567.318 189.138 Z" fill="#000000" fill-rule="nonzero" fill-opacity="1"></path><path clip-path="url(#clip940)" d="M596.901 200.041 L596.901 202.124 L577.318 202.124 Q577.596 206.522 579.957 208.837 Q582.341 211.129 586.577 211.129 Q589.031 211.129 591.323 210.527 Q593.637 209.925 595.906 208.721 L595.906 212.749 Q593.614 213.721 591.207 214.231 Q588.8 214.74 586.323 214.74 Q580.119 214.74 576.485 211.129 Q572.874 207.518 572.874 201.36 Q572.874 194.995 576.3 191.268 Q579.749 187.518 585.582 187.518 Q590.813 187.518 593.846 190.897 Q596.901 194.254 596.901 200.041 M592.642 198.791 Q592.596 195.296 590.675 193.212 Q588.776 191.129 585.628 191.129 Q582.063 191.129 579.911 193.143 Q577.781 195.157 577.457 198.814 L592.642 198.791 Z" fill="#000000" fill-rule="nonzero" fill-opacity="1"></path><path clip-path="url(#clip940)" d="M613.151 197.425 L613.151 204.647 L621.276 204.647 L621.276 206.846 L613.151 206.846 L613.151 214.069 L610.721 214.069 L610.721 206.846 L602.596 206.846 L602.596 204.647 L610.721 204.647 L610.721 197.425 L613.151 197.425 Z" fill="#000000" fill-rule="nonzero" fill-opacity="1"></path><path clip-path="url(#clip940)" d="M625.86 188.143 L630.373 188.143 L638.475 209.902 L646.577 188.143 L651.091 188.143 L641.369 214.069 L635.582 214.069 L625.86 188.143 Z" fill="#000000" fill-rule="nonzero" fill-opacity="1"></path><path clip-path="url(#clip940)" d="M667.202 178.097 Q664.1 183.421 662.595 188.629 Q661.091 193.837 661.091 199.184 Q661.091 204.532 662.595 209.786 Q664.123 215.018 667.202 220.319 L663.498 220.319 Q660.026 214.879 658.29 209.624 Q656.577 204.37 656.577 199.184 Q656.577 194.022 658.29 188.791 Q660.003 183.56 663.498 178.097 L667.202 178.097 Z" fill="#000000" fill-rule="nonzero" fill-opacity="1"></path><path clip-path="url(#clip940)" d="M679.679 180.782 L679.679 188.143 L688.452 188.143 L688.452 191.453 L679.679 191.453 L679.679 205.527 Q679.679 208.698 680.535 209.601 Q681.415 210.504 684.077 210.504 L688.452 210.504 L688.452 214.069 L684.077 214.069 Q679.146 214.069 677.271 212.24 Q675.396 210.388 675.396 205.527 L675.396 191.453 L672.271 191.453 L672.271 188.143 L675.396 188.143 L675.396 180.782 L679.679 180.782 Z" fill="#000000" fill-rule="nonzero" fill-opacity="1"></path><path clip-path="url(#clip940)" d="M693.382 178.097 L697.086 178.097 Q700.558 183.56 702.271 188.791 Q704.007 194.022 704.007 199.184 Q704.007 204.37 702.271 209.624 Q700.558 214.879 697.086 220.319 L693.382 220.319 Q696.461 215.018 697.966 209.786 Q699.493 204.532 699.493 199.184 Q699.493 193.837 697.966 188.629 Q696.461 183.421 693.382 178.097 Z" fill="#000000" fill-rule="nonzero" fill-opacity="1"></path><polyline clip-path="url(#clip940)" style="stroke:#3da44d; stroke-linecap:round; stroke-linejoin:round; stroke-width:4; stroke-opacity:1; fill:none" points="275.484,248.629 420.41,248.629 "></polyline>
<path clip-path="url(#clip940)" d="M444.564 239.983 L448.823 239.983 L448.823 265.909 L444.564 265.909 L444.564 239.983 M444.564 229.89 L448.823 229.89 L448.823 235.284 L444.564 235.284 L444.564 229.89 Z" fill="#000000" fill-rule="nonzero" fill-opacity="1"></path><path clip-path="url(#clip940)" d="M479.286 250.261 L479.286 265.909 L475.027 265.909 L475.027 250.399 Q475.027 246.719 473.592 244.89 Q472.157 243.062 469.286 243.062 Q465.837 243.062 463.847 245.261 Q461.856 247.46 461.856 251.256 L461.856 265.909 L457.573 265.909 L457.573 239.983 L461.856 239.983 L461.856 244.011 Q463.384 241.673 465.444 240.515 Q467.527 239.358 470.235 239.358 Q474.703 239.358 476.995 242.136 Q479.286 244.89 479.286 250.261 Z" fill="#000000" fill-rule="nonzero" fill-opacity="1"></path><path clip-path="url(#clip940)" d="M504.842 243.918 L504.842 229.89 L509.101 229.89 L509.101 265.909 L504.842 265.909 L504.842 262.02 Q503.499 264.335 501.439 265.469 Q499.402 266.58 496.532 266.58 Q491.832 266.58 488.87 262.83 Q485.93 259.08 485.93 252.969 Q485.93 246.858 488.87 243.108 Q491.832 239.358 496.532 239.358 Q499.402 239.358 501.439 240.492 Q503.499 241.603 504.842 243.918 M490.328 252.969 Q490.328 257.668 492.249 260.353 Q494.194 263.015 497.573 263.015 Q500.953 263.015 502.897 260.353 Q504.842 257.668 504.842 252.969 Q504.842 248.27 502.897 245.608 Q500.953 242.923 497.573 242.923 Q494.194 242.923 492.249 245.608 Q490.328 248.27 490.328 252.969 Z" fill="#000000" fill-rule="nonzero" fill-opacity="1"></path><path clip-path="url(#clip940)" d="M517.434 255.677 L517.434 239.983 L521.693 239.983 L521.693 255.515 Q521.693 259.196 523.129 261.048 Q524.564 262.876 527.434 262.876 Q530.883 262.876 532.874 260.677 Q534.888 258.478 534.888 254.682 L534.888 239.983 L539.147 239.983 L539.147 265.909 L534.888 265.909 L534.888 261.927 Q533.337 264.288 531.277 265.446 Q529.24 266.58 526.531 266.58 Q522.064 266.58 519.749 263.802 Q517.434 261.024 517.434 255.677 M528.152 239.358 L528.152 239.358 Z" fill="#000000" fill-rule="nonzero" fill-opacity="1"></path><path clip-path="url(#clip940)" d="M566.577 240.978 L566.577 244.96 Q564.772 243.964 562.943 243.478 Q561.138 242.969 559.286 242.969 Q555.142 242.969 552.851 245.608 Q550.559 248.224 550.559 252.969 Q550.559 257.714 552.851 260.353 Q555.142 262.969 559.286 262.969 Q561.138 262.969 562.943 262.483 Q564.772 261.973 566.577 260.978 L566.577 264.913 Q564.795 265.747 562.874 266.163 Q560.976 266.58 558.823 266.58 Q552.966 266.58 549.517 262.899 Q546.068 259.219 546.068 252.969 Q546.068 246.626 549.541 242.992 Q553.036 239.358 559.101 239.358 Q561.068 239.358 562.943 239.775 Q564.818 240.168 566.577 240.978 Z" fill="#000000" fill-rule="nonzero" fill-opacity="1"></path><path clip-path="url(#clip940)" d="M578.198 232.622 L578.198 239.983 L586.971 239.983 L586.971 243.293 L578.198 243.293 L578.198 257.367 Q578.198 260.538 579.054 261.441 Q579.934 262.344 582.596 262.344 L586.971 262.344 L586.971 265.909 L582.596 265.909 Q577.665 265.909 575.79 264.08 Q573.915 262.228 573.915 257.367 L573.915 243.293 L570.79 243.293 L570.79 239.983 L573.915 239.983 L573.915 232.622 L578.198 232.622 Z" fill="#000000" fill-rule="nonzero" fill-opacity="1"></path><path clip-path="url(#clip940)" d="M602.619 242.969 Q599.193 242.969 597.202 245.654 Q595.212 248.316 595.212 252.969 Q595.212 257.622 597.179 260.307 Q599.17 262.969 602.619 262.969 Q606.022 262.969 608.012 260.284 Q610.003 257.598 610.003 252.969 Q610.003 248.362 608.012 245.677 Q606.022 242.969 602.619 242.969 M602.619 239.358 Q608.174 239.358 611.346 242.969 Q614.517 246.58 614.517 252.969 Q614.517 259.335 611.346 262.969 Q608.174 266.58 602.619 266.58 Q597.04 266.58 593.869 262.969 Q590.721 259.335 590.721 252.969 Q590.721 246.58 593.869 242.969 Q597.04 239.358 602.619 239.358 Z" fill="#000000" fill-rule="nonzero" fill-opacity="1"></path><path clip-path="url(#clip940)" d="M636.6 243.964 Q635.883 243.548 635.026 243.362 Q634.193 243.154 633.174 243.154 Q629.563 243.154 627.619 245.515 Q625.698 247.853 625.698 252.251 L625.698 265.909 L621.415 265.909 L621.415 239.983 L625.698 239.983 L625.698 244.011 Q627.04 241.649 629.193 240.515 Q631.346 239.358 634.424 239.358 Q634.864 239.358 635.397 239.427 Q635.929 239.474 636.577 239.589 L636.6 243.964 Z" fill="#000000" fill-rule="nonzero" fill-opacity="1"></path><path clip-path="url(#clip940)" d="M637.318 260.029 L642.202 260.029 L642.202 265.909 L637.318 265.909 L637.318 260.029 Z" fill="#000000" fill-rule="nonzero" fill-opacity="1"></path><path clip-path="url(#clip940)" d="M651.785 239.983 L656.045 239.983 L656.045 265.909 L651.785 265.909 L651.785 239.983 M651.785 229.89 L656.045 229.89 L656.045 235.284 L651.785 235.284 L651.785 229.89 Z" fill="#000000" fill-rule="nonzero" fill-opacity="1"></path><path clip-path="url(#clip940)" d="M675.188 229.937 Q672.086 235.261 670.582 240.469 Q669.077 245.677 669.077 251.024 Q669.077 256.372 670.582 261.626 Q672.109 266.858 675.188 272.159 L671.484 272.159 Q668.012 266.719 666.276 261.464 Q664.563 256.21 664.563 251.024 Q664.563 245.862 666.276 240.631 Q667.989 235.4 671.484 229.937 L675.188 229.937 Z" fill="#000000" fill-rule="nonzero" fill-opacity="1"></path><path clip-path="url(#clip940)" d="M687.665 232.622 L687.665 239.983 L696.438 239.983 L696.438 243.293 L687.665 243.293 L687.665 257.367 Q687.665 260.538 688.521 261.441 Q689.401 262.344 692.063 262.344 L696.438 262.344 L696.438 265.909 L692.063 265.909 Q687.132 265.909 685.257 264.08 Q683.382 262.228 683.382 257.367 L683.382 243.293 L680.257 243.293 L680.257 239.983 L683.382 239.983 L683.382 232.622 L687.665 232.622 Z" fill="#000000" fill-rule="nonzero" fill-opacity="1"></path><path clip-path="url(#clip940)" d="M701.368 229.937 L705.072 229.937 Q708.544 235.4 710.257 240.631 Q711.993 245.862 711.993 251.024 Q711.993 256.21 710.257 261.464 Q708.544 266.719 705.072 272.159 L701.368 272.159 Q704.447 266.858 705.952 261.626 Q707.479 256.372 707.479 251.024 Q707.479 245.677 705.952 240.469 Q704.447 235.261 701.368 229.937 Z" fill="#000000" fill-rule="nonzero" fill-opacity="1"></path></svg>