<svg xmlns="http://www.w3.org/2000/svg" xmlns:xlink="http://www.w3.org/1999/xlink" width="600" height="400" viewBox="0 0 2400 1600">
<defs>
  <clipPath id="clip000">
    <rect x="0" y="0" width="2400" height="1600"></rect>
  </clipPath>
</defs>
<path clip-path="url(#clip000)" d="M0 1600 L2400 1600 L2400 0 L0 0  Z" fill="#ffffff" fill-rule="evenodd" fill-opacity="1"></path>
<defs>
  <clipPath id="clip001">
    <rect x="480" y="0" width="1681" height="1600"></rect>
  </clipPath>
</defs>
<path clip-path="url(#clip000)" d="M140.696 1423.18 L2352.76 1423.18 L2352.76 47.2441 L140.696 47.2441  Z" fill="#ffffff" fill-rule="evenodd" fill-opacity="1"></path>
<defs>
  <clipPath id="clip002">
    <rect x="140" y="47" width="2213" height="1377"></rect>
  </clipPath>
</defs>
<polyline clip-path="url(#clip002)" style="stroke:#000000; stroke-linecap:round; stroke-linejoin:round; stroke-width:2; stroke-opacity:0.1; fill:none" points="140.696,1423.18 140.696,47.2441 "></polyline>
<polyline clip-path="url(#clip002)" style="stroke:#000000; stroke-linecap:round; stroke-linejoin:round; stroke-width:2; stroke-opacity:0.1; fill:none" points="583.108,1423.18 583.108,47.2441 "></polyline>
<polyline clip-path="url(#clip002)" style="stroke:#000000; stroke-linecap:round; stroke-linejoin:round; stroke-width:2; stroke-opacity:0.1; fill:none" points="1025.52,1423.18 1025.52,47.2441 "></polyline>
<polyline clip-path="url(#clip002)" style="stroke:#000000; stroke-linecap:round; stroke-linejoin:round; stroke-width:2; stroke-opacity:0.1; fill:none" points="1467.93,1423.18 1467.93,47.2441 "></polyline>
<polyline clip-path="url(#clip002)" style="stroke:#000000; stroke-linecap:round; stroke-linejoin:round; stroke-width:2; stroke-opacity:0.1; fill:none" points="1910.34,1423.18 1910.34,47.2441 "></polyline>
<polyline clip-path="url(#clip002)" style="stroke:#000000; stroke-linecap:round; stroke-linejoin:round; stroke-width:2; stroke-opacity:0.1; fill:none" points="2352.76,1423.18 2352.76,47.2441 "></polyline>
<polyline clip-path="url(#clip000)" style="stroke:#000000; stroke-linecap:round; stroke-linejoin:round; stroke-width:4; stroke-opacity:1; fill:none" points="140.696,1423.18 2352.76,1423.18 "></polyline>
<polyline clip-path="url(#clip000)" style="stroke:#000000; stroke-linecap:round; stroke-linejoin:round; stroke-width:4; stroke-opacity:1; fill:none" points="140.696,1423.18 140.696,1404.28 "></polyline>
<polyline clip-path="url(#clip000)" style="stroke:#000000; stroke-linecap:round; stroke-linejoin:round; stroke-width:4; stroke-opacity:1; fill:none" points="583.108,1423.18 583.108,1404.28 "></polyline>
<polyline clip-path="url(#clip000)" style="stroke:#000000; stroke-linecap:round; stroke-linejoin:round; stroke-width:4; stroke-opacity:1; fill:none" points="1025.52,1423.18 1025.52,1404.28 "></polyline>
<polyline clip-path="url(#clip000)" style="stroke:#000000; stroke-linecap:round; stroke-linejoin:round; stroke-width:4; stroke-opacity:1; fill:none" points="1467.93,1423.18 1467.93,1404.28 "></polyline>
<polyline clip-path="url(#clip000)" style="stroke:#000000; stroke-linecap:round; stroke-linejoin:round; stroke-width:4; stroke-opacity:1; fill:none" points="1910.34,1423.18 1910.34,1404.28 "></polyline>
<polyline clip-path="url(#clip000)" style="stroke:#000000; stroke-linecap:round; stroke-linejoin:round; stroke-width:4; stroke-opacity:1; fill:none" points="2352.76,1423.18 2352.76,1404.28 "></polyline>
<path clip-path="url(#clip000)" d="M118.08 1454.1 Q114.469 1454.1 112.64 1457.66 Q110.835 1461.2 110.835 1468.33 Q110.835 1475.44 112.64 1479.01 Q114.469 1482.55 118.08 1482.55 Q121.714 1482.55 123.52 1479.01 Q125.348 1475.44 125.348 1468.33 Q125.348 1461.2 123.52 1457.66 Q121.714 1454.1 118.08 1454.1 M118.08 1450.39 Q123.89 1450.39 126.946 1455 Q130.024 1459.58 130.024 1468.33 Q130.024 1477.06 126.946 1481.67 Q123.89 1486.25 118.08 1486.25 Q112.27 1486.25 109.191 1481.67 Q106.136 1477.06 106.136 1468.33 Q106.136 1459.58 109.191 1455 Q112.27 1450.39 118.08 1450.39 Z" fill="#000000" fill-rule="nonzero" fill-opacity="1"></path><path clip-path="url(#clip000)" d="M138.242 1479.7 L143.126 1479.7 L143.126 1485.58 L138.242 1485.58 L138.242 1479.7 Z" fill="#000000" fill-rule="nonzero" fill-opacity="1"></path><path clip-path="url(#clip000)" d="M163.311 1454.1 Q159.7 1454.1 157.871 1457.66 Q156.066 1461.2 156.066 1468.33 Q156.066 1475.44 157.871 1479.01 Q159.7 1482.55 163.311 1482.55 Q166.945 1482.55 168.751 1479.01 Q170.58 1475.44 170.58 1468.33 Q170.58 1461.2 168.751 1457.66 Q166.945 1454.1 163.311 1454.1 M163.311 1450.39 Q169.121 1450.39 172.177 1455 Q175.256 1459.58 175.256 1468.33 Q175.256 1477.06 172.177 1481.67 Q169.121 1486.25 163.311 1486.25 Q157.501 1486.25 154.422 1481.67 Q151.367 1477.06 151.367 1468.33 Q151.367 1459.58 154.422 1455 Q157.501 1450.39 163.311 1450.39 Z" fill="#000000" fill-rule="nonzero" fill-opacity="1"></path><path clip-path="url(#clip000)" d="M561.291 1454.1 Q557.68 1454.1 555.851 1457.66 Q554.045 1461.2 554.045 1468.33 Q554.045 1475.44 555.851 1479.01 Q557.68 1482.55 561.291 1482.55 Q564.925 1482.55 566.73 1479.01 Q568.559 1475.44 568.559 1468.33 Q568.559 1461.2 566.73 1457.66 Q564.925 1454.1 561.291 1454.1 M561.291 1450.39 Q567.101 1450.39 570.156 1455 Q573.235 1459.58 573.235 1468.33 Q573.235 1477.06 570.156 1481.67 Q567.101 1486.25 561.291 1486.25 Q555.48 1486.25 552.402 1481.67 Q549.346 1477.06 549.346 1468.33 Q549.346 1459.58 552.402 1455 Q555.48 1450.39 561.291 1450.39 Z" fill="#000000" fill-rule="nonzero" fill-opacity="1"></path><path clip-path="url(#clip000)" d="M581.453 1479.7 L586.337 1479.7 L586.337 1485.58 L581.453 1485.58 L581.453 1479.7 Z" fill="#000000" fill-rule="nonzero" fill-opacity="1"></path><path clip-path="url(#clip000)" d="M600.55 1481.64 L616.869 1481.64 L616.869 1485.58 L594.925 1485.58 L594.925 1481.64 Q597.587 1478.89 602.17 1474.26 Q606.776 1469.61 607.957 1468.27 Q610.202 1465.74 611.082 1464.01 Q611.985 1462.25 611.985 1460.56 Q611.985 1457.8 610.04 1456.07 Q608.119 1454.33 605.017 1454.33 Q602.818 1454.33 600.364 1455.09 Q597.934 1455.86 595.156 1457.41 L595.156 1452.69 Q597.98 1451.55 600.434 1450.97 Q602.888 1450.39 604.925 1450.39 Q610.295 1450.39 613.489 1453.08 Q616.684 1455.77 616.684 1460.26 Q616.684 1462.39 615.874 1464.31 Q615.087 1466.2 612.98 1468.8 Q612.401 1469.47 609.3 1472.69 Q606.198 1475.88 600.55 1481.64 Z" fill="#000000" fill-rule="nonzero" fill-opacity="1"></path><path clip-path="url(#clip000)" d="M1002.66 1454.1 Q999.05 1454.1 997.221 1457.66 Q995.416 1461.2 995.416 1468.33 Q995.416 1475.44 997.221 1479.01 Q999.05 1482.55 1002.66 1482.55 Q1006.3 1482.55 1008.1 1479.01 Q1009.93 1475.44 1009.93 1468.33 Q1009.93 1461.2 1008.1 1457.66 Q1006.3 1454.1 1002.66 1454.1 M1002.66 1450.39 Q1008.47 1450.39 1011.53 1455 Q1014.61 1459.58 1014.61 1468.33 Q1014.61 1477.06 1011.53 1481.67 Q1008.47 1486.25 1002.66 1486.25 Q996.851 1486.25 993.772 1481.67 Q990.717 1477.06 990.717 1468.33 Q990.717 1459.58 993.772 1455 Q996.851 1450.39 1002.66 1450.39 Z" fill="#000000" fill-rule="nonzero" fill-opacity="1"></path><path clip-path="url(#clip000)" d="M1022.82 1479.7 L1027.71 1479.7 L1027.71 1485.58 L1022.82 1485.58 L1022.82 1479.7 Z" fill="#000000" fill-rule="nonzero" fill-opacity="1"></path><path clip-path="url(#clip000)" d="M1050.74 1455.09 L1038.93 1473.54 L1050.74 1473.54 L1050.74 1455.09 M1049.51 1451.02 L1055.39 1451.02 L1055.39 1473.54 L1060.32 1473.54 L1060.32 1477.43 L1055.39 1477.43 L1055.39 1485.58 L1050.74 1485.58 L1050.74 1477.43 L1035.14 1477.43 L1035.14 1472.92 L1049.51 1451.02 Z" fill="#000000" fill-rule="nonzero" fill-opacity="1"></path><path clip-path="url(#clip000)" d="M1445.24 1454.1 Q1441.62 1454.1 1439.8 1457.66 Q1437.99 1461.2 1437.99 1468.33 Q1437.99 1475.44 1439.8 1479.01 Q1441.62 1482.55 1445.24 1482.55 Q1448.87 1482.55 1450.67 1479.01 Q1452.5 1475.44 1452.5 1468.33 Q1452.5 1461.2 1450.67 1457.66 Q1448.87 1454.1 1445.24 1454.1 M1445.24 1450.39 Q1451.05 1450.39 1454.1 1455 Q1457.18 1459.58 1457.18 1468.33 Q1457.18 1477.06 1454.1 1481.67 Q1451.05 1486.25 1445.24 1486.25 Q1439.42 1486.25 1436.35 1481.67 Q1433.29 1477.06 1433.29 1468.33 Q1433.29 1459.58 1436.35 1455 Q1439.42 1450.39 1445.24 1450.39 Z" fill="#000000" fill-rule="nonzero" fill-opacity="1"></path><path clip-path="url(#clip000)" d="M1465.4 1479.7 L1470.28 1479.7 L1470.28 1485.58 L1465.4 1485.58 L1465.4 1479.7 Z" fill="#000000" fill-rule="nonzero" fill-opacity="1"></path><path clip-path="url(#clip000)" d="M1491.05 1466.44 Q1487.9 1466.44 1486.05 1468.59 Q1484.22 1470.74 1484.22 1474.49 Q1484.22 1478.22 1486.05 1480.39 Q1487.9 1482.55 1491.05 1482.55 Q1494.19 1482.55 1496.02 1480.39 Q1497.87 1478.22 1497.87 1474.49 Q1497.87 1470.74 1496.02 1468.59 Q1494.19 1466.44 1491.05 1466.44 M1500.33 1451.78 L1500.33 1456.04 Q1498.57 1455.21 1496.76 1454.77 Q1494.98 1454.33 1493.22 1454.33 Q1488.59 1454.33 1486.14 1457.45 Q1483.71 1460.58 1483.36 1466.9 Q1484.73 1464.89 1486.79 1463.82 Q1488.85 1462.73 1491.32 1462.73 Q1496.53 1462.73 1499.54 1465.9 Q1502.57 1469.05 1502.57 1474.49 Q1502.57 1479.82 1499.42 1483.03 Q1496.28 1486.25 1491.05 1486.25 Q1485.05 1486.25 1481.88 1481.67 Q1478.71 1477.06 1478.71 1468.33 Q1478.71 1460.14 1482.6 1455.28 Q1486.48 1450.39 1493.04 1450.39 Q1494.8 1450.39 1496.58 1450.74 Q1498.38 1451.09 1500.33 1451.78 Z" fill="#000000" fill-rule="nonzero" fill-opacity="1"></path><path clip-path="url(#clip000)" d="M1887.77 1454.1 Q1884.16 1454.1 1882.33 1457.66 Q1880.53 1461.2 1880.53 1468.33 Q1880.53 1475.44 1882.33 1479.01 Q1884.16 1482.55 1887.77 1482.55 Q1891.41 1482.55 1893.21 1479.01 Q1895.04 1475.44 1895.04 1468.33 Q1895.04 1461.2 1893.21 1457.66 Q1891.41 1454.1 1887.77 1454.1 M1887.77 1450.39 Q1893.58 1450.39 1896.64 1455 Q1899.72 1459.58 1899.72 1468.33 Q1899.72 1477.06 1896.64 1481.67 Q1893.58 1486.25 1887.77 1486.25 Q1881.96 1486.25 1878.89 1481.67 Q1875.83 1477.06 1875.83 1468.33 Q1875.83 1459.58 1878.89 1455 Q1881.96 1450.39 1887.77 1450.39 Z" fill="#000000" fill-rule="nonzero" fill-opacity="1"></path><path clip-path="url(#clip000)" d="M1907.94 1479.7 L1912.82 1479.7 L1912.82 1485.58 L1907.94 1485.58 L1907.94 1479.7 Z" fill="#000000" fill-rule="nonzero" fill-opacity="1"></path><path clip-path="url(#clip000)" d="M1933.01 1469.17 Q1929.67 1469.17 1927.75 1470.95 Q1925.85 1472.73 1925.85 1475.86 Q1925.85 1478.98 1927.75 1480.77 Q1929.67 1482.55 1933.01 1482.55 Q1936.34 1482.55 1938.26 1480.77 Q1940.18 1478.96 1940.18 1475.86 Q1940.18 1472.73 1938.26 1470.95 Q1936.36 1469.17 1933.01 1469.17 M1928.33 1467.18 Q1925.32 1466.44 1923.63 1464.38 Q1921.96 1462.32 1921.96 1459.35 Q1921.96 1455.21 1924.9 1452.8 Q1927.87 1450.39 1933.01 1450.39 Q1938.17 1450.39 1941.11 1452.8 Q1944.05 1455.21 1944.05 1459.35 Q1944.05 1462.32 1942.36 1464.38 Q1940.69 1466.44 1937.7 1467.18 Q1941.08 1467.96 1942.96 1470.26 Q1944.86 1472.55 1944.86 1475.86 Q1944.86 1480.88 1941.78 1483.57 Q1938.72 1486.25 1933.01 1486.25 Q1927.29 1486.25 1924.21 1483.57 Q1921.15 1480.88 1921.15 1475.86 Q1921.15 1472.55 1923.05 1470.26 Q1924.95 1467.96 1928.33 1467.18 M1926.62 1459.79 Q1926.62 1462.48 1928.28 1463.98 Q1929.97 1465.49 1933.01 1465.49 Q1936.01 1465.49 1937.7 1463.98 Q1939.42 1462.48 1939.42 1459.79 Q1939.42 1457.11 1937.7 1455.6 Q1936.01 1454.1 1933.01 1454.1 Q1929.97 1454.1 1928.28 1455.6 Q1926.62 1457.11 1926.62 1459.79 Z" fill="#000000" fill-rule="nonzero" fill-opacity="1"></path><path clip-path="url(#clip000)" d="M2319.91 1481.64 L2327.55 1481.64 L2327.55 1455.28 L2319.24 1456.95 L2319.24 1452.69 L2327.5 1451.02 L2332.18 1451.02 L2332.18 1481.64 L2339.82 1481.64 L2339.82 1485.58 L2319.91 1485.58 L2319.91 1481.64 Z" fill="#000000" fill-rule="nonzero" fill-opacity="1"></path><path clip-path="url(#clip000)" d="M2349.26 1479.7 L2354.14 1479.7 L2354.14 1485.58 L2349.26 1485.58 L2349.26 1479.7 Z" fill="#000000" fill-rule="nonzero" fill-opacity="1"></path><path clip-path="url(#clip000)" d="M2374.33 1454.1 Q2370.72 1454.1 2368.89 1457.66 Q2367.08 1461.2 2367.08 1468.33 Q2367.08 1475.44 2368.89 1479.01 Q2370.72 1482.55 2374.33 1482.55 Q2377.96 1482.55 2379.77 1479.01 Q2381.6 1475.44 2381.6 1468.33 Q2381.6 1461.2 2379.77 1457.66 Q2377.96 1454.1 2374.33 1454.1 M2374.33 1450.39 Q2380.14 1450.39 2383.2 1455 Q2386.27 1459.58 2386.27 1468.33 Q2386.27 1477.06 2383.2 1481.67 Q2380.14 1486.25 2374.33 1486.25 Q2368.52 1486.25 2365.44 1481.67 Q2362.39 1477.06 2362.39 1468.33 Q2362.39 1459.58 2365.44 1455 Q2368.52 1450.39 2374.33 1450.39 Z" fill="#000000" fill-rule="nonzero" fill-opacity="1"></path><path clip-path="url(#clip000)" d="M1245.79 1522.27 L1245.79 1532.4 L1257.85 1532.4 L1257.85 1536.95 L1245.79 1536.95 L1245.79 1556.3 Q1245.79 1560.66 1246.96 1561.9 Q1248.17 1563.14 1251.83 1563.14 L1257.85 1563.14 L1257.85 1568.04 L1251.83 1568.04 Q1245.05 1568.04 1242.48 1565.53 Q1239.9 1562.98 1239.9 1556.3 L1239.9 1536.95 L1235.6 1536.95 L1235.6 1532.4 L1239.9 1532.4 L1239.9 1522.27 L1245.79 1522.27 Z" fill="#000000" fill-rule="nonzero" fill-opacity="1"></path><polyline clip-path="url(#clip002)" style="stroke:#000000; stroke-linecap:round; stroke-linejoin:round; stroke-width:2; stroke-opacity:0.1; fill:none" points="140.696,1380.61 2352.76,1380.61 "></polyline>
<polyline clip-path="url(#clip002)" style="stroke:#000000; stroke-linecap:round; stroke-linejoin:round; stroke-width:2; stroke-opacity:0.1; fill:none" points="140.696,1044.5 2352.76,1044.5 "></polyline>
<polyline clip-path="url(#clip002)" style="stroke:#000000; stroke-linecap:round; stroke-linejoin:round; stroke-width:2; stroke-opacity:0.1; fill:none" points="140.696,708.395 2352.76,708.395 "></polyline>
<polyline clip-path="url(#clip002)" style="stroke:#000000; stroke-linecap:round; stroke-linejoin:round; stroke-width:2; stroke-opacity:0.1; fill:none" points="140.696,372.286 2352.76,372.286 "></polyline>
<polyline clip-path="url(#clip000)" style="stroke:#000000; stroke-linecap:round; stroke-linejoin:round; stroke-width:4; stroke-opacity:1; fill:none" points="140.696,1423.18 140.696,47.2441 "></polyline>
<polyline clip-path="url(#clip000)" style="stroke:#000000; stroke-linecap:round; stroke-linejoin:round; stroke-width:4; stroke-opacity:1; fill:none" points="140.696,1380.61 159.593,1380.61 "></polyline>
<polyline clip-path="url(#clip000)" style="stroke:#000000; stroke-linecap:round; stroke-linejoin:round; stroke-width:4; stroke-opacity:1; fill:none" points="140.696,1044.5 159.593,1044.5 "></polyline>
<polyline clip-path="url(#clip000)" style="stroke:#000000; stroke-linecap:round; stroke-linejoin:round; stroke-width:4; stroke-opacity:1; fill:none" points="140.696,708.395 159.593,708.395 "></polyline>
<polyline clip-path="url(#clip000)" style="stroke:#000000; stroke-linecap:round; stroke-linejoin:round; stroke-width:4; stroke-opacity:1; fill:none" points="140.696,372.286 159.593,372.286 "></polyline>
<path clip-path="url(#clip000)" d="M92.7512 1366.41 Q89.1401 1366.41 87.3114 1369.98 Q85.5058 1373.52 85.5058 1380.65 Q85.5058 1387.75 87.3114 1391.32 Q89.1401 1394.86 92.7512 1394.86 Q96.3854 1394.86 98.1909 1391.32 Q100.02 1387.75 100.02 1380.65 Q100.02 1373.52 98.1909 1369.98 Q96.3854 1366.41 92.7512 1366.41 M92.7512 1362.71 Q98.5613 1362.71 101.617 1367.31 Q104.696 1371.9 104.696 1380.65 Q104.696 1389.37 101.617 1393.98 Q98.5613 1398.56 92.7512 1398.56 Q86.941 1398.56 83.8623 1393.98 Q80.8068 1389.37 80.8068 1380.65 Q80.8068 1371.9 83.8623 1367.31 Q86.941 1362.71 92.7512 1362.71 Z" fill="#000000" fill-rule="nonzero" fill-opacity="1"></path><path clip-path="url(#clip000)" d="M53.3995 1057.85 L61.0384 1057.85 L61.0384 1031.48 L52.7282 1033.15 L52.7282 1028.89 L60.9921 1027.22 L65.668 1027.22 L65.668 1057.85 L73.3068 1057.85 L73.3068 1061.78 L53.3995 1061.78 L53.3995 1057.85 Z" fill="#000000" fill-rule="nonzero" fill-opacity="1"></path><path clip-path="url(#clip000)" d="M92.7512 1030.3 Q89.1401 1030.3 87.3114 1033.87 Q85.5058 1037.41 85.5058 1044.54 Q85.5058 1051.64 87.3114 1055.21 Q89.1401 1058.75 92.7512 1058.75 Q96.3854 1058.75 98.1909 1055.21 Q100.02 1051.64 100.02 1044.54 Q100.02 1037.41 98.1909 1033.87 Q96.3854 1030.3 92.7512 1030.3 M92.7512 1026.6 Q98.5613 1026.6 101.617 1031.2 Q104.696 1035.79 104.696 1044.54 Q104.696 1053.27 101.617 1057.87 Q98.5613 1062.45 92.7512 1062.45 Q86.941 1062.45 83.8623 1057.87 Q80.8068 1053.27 80.8068 1044.54 Q80.8068 1035.79 83.8623 1031.2 Q86.941 1026.6 92.7512 1026.6 Z" fill="#000000" fill-rule="nonzero" fill-opacity="1"></path><path clip-path="url(#clip000)" d="M56.6171 721.739 L72.9365 721.739 L72.9365 725.675 L50.9921 725.675 L50.9921 721.739 Q53.6541 718.985 58.2375 714.355 Q62.8439 709.703 64.0245 708.36 Q66.2698 705.837 67.1494 704.101 Q68.0522 702.341 68.0522 700.652 Q68.0522 697.897 66.1078 696.161 Q64.1865 694.425 61.0847 694.425 Q58.8856 694.425 56.4319 695.189 Q54.0014 695.953 51.2236 697.504 L51.2236 692.781 Q54.0477 691.647 56.5014 691.068 Q58.955 690.49 60.9921 690.49 Q66.3624 690.49 69.5568 693.175 Q72.7513 695.86 72.7513 700.351 Q72.7513 702.48 71.9411 704.402 Q71.1541 706.3 69.0476 708.892 Q68.4689 709.564 65.367 712.781 Q62.2652 715.976 56.6171 721.739 Z" fill="#000000" fill-rule="nonzero" fill-opacity="1"></path><path clip-path="url(#clip000)" d="M92.7512 694.193 Q89.1401 694.193 87.3114 697.758 Q85.5058 701.3 85.5058 708.429 Q85.5058 715.536 87.3114 719.101 Q89.1401 722.642 92.7512 722.642 Q96.3854 722.642 98.1909 719.101 Q100.02 715.536 100.02 708.429 Q100.02 701.3 98.1909 697.758 Q96.3854 694.193 92.7512 694.193 M92.7512 690.49 Q98.5613 690.49 101.617 695.096 Q104.696 699.679 104.696 708.429 Q104.696 717.156 101.617 721.763 Q98.5613 726.346 92.7512 726.346 Q86.941 726.346 83.8623 721.763 Q80.8068 717.156 80.8068 708.429 Q80.8068 699.679 83.8623 695.096 Q86.941 690.49 92.7512 690.49 Z" fill="#000000" fill-rule="nonzero" fill-opacity="1"></path><path clip-path="url(#clip000)" d="M66.7559 370.932 Q70.1124 371.649 71.9874 373.918 Q73.8855 376.186 73.8855 379.52 Q73.8855 384.635 70.367 387.436 Q66.8485 390.237 60.3671 390.237 Q58.1912 390.237 55.8764 389.797 Q53.5847 389.381 51.131 388.524 L51.131 384.01 Q53.0754 385.145 55.3903 385.723 Q57.7051 386.302 60.2282 386.302 Q64.6263 386.302 66.918 384.566 Q69.2328 382.83 69.2328 379.52 Q69.2328 376.464 67.08 374.751 Q64.9504 373.015 61.131 373.015 L57.1032 373.015 L57.1032 369.172 L61.3161 369.172 Q64.7652 369.172 66.5939 367.807 Q68.4226 366.418 68.4226 363.825 Q68.4226 361.163 66.5245 359.751 Q64.6495 358.316 61.131 358.316 Q59.2097 358.316 57.0106 358.733 Q54.8115 359.149 52.1727 360.029 L52.1727 355.862 Q54.8347 355.122 57.1495 354.751 Q59.4875 354.381 61.5476 354.381 Q66.8717 354.381 69.9735 356.811 Q73.0753 359.219 73.0753 363.339 Q73.0753 366.209 71.4318 368.2 Q69.7883 370.168 66.7559 370.932 Z" fill="#000000" fill-rule="nonzero" fill-opacity="1"></path><path clip-path="url(#clip000)" d="M92.7512 358.084 Q89.1401 358.084 87.3114 361.649 Q85.5058 365.191 85.5058 372.321 Q85.5058 379.427 87.3114 382.992 Q89.1401 386.533 92.7512 386.533 Q96.3854 386.533 98.1909 382.992 Q100.02 379.427 100.02 372.321 Q100.02 365.191 98.1909 361.649 Q96.3854 358.084 92.7512 358.084 M92.7512 354.381 Q98.5613 354.381 101.617 358.987 Q104.696 363.571 104.696 372.321 Q104.696 381.047 101.617 385.654 Q98.5613 390.237 92.7512 390.237 Q86.941 390.237 83.8623 385.654 Q80.8068 381.047 80.8068 372.321 Q80.8068 363.571 83.8623 358.987 Q86.941 354.381 92.7512 354.381 Z" fill="#000000" fill-rule="nonzero" fill-opacity="1"></path><polyline clip-path="url(#clip002)" style="stroke:#009af9; stroke-linecap:round; stroke-linejoin:round; stroke-width:4; stroke-opacity:1; fill:none" points="140.696,1380.61 142.91,1380.61 145.124,1380.61 147.338,1380.61 149.553,1380.61 151.767,1380.61 153.981,1380.61 156.195,1380.61 158.41,1380.61 160.624,1380.61 162.838,1380.61 165.053,1380.61 167.267,1380.61 169.481,1380.61 171.695,1380.61 173.91,1380.61 176.124,1380.61 178.338,1380.61 180.552,1380.61 182.767,1380.61 184.981,1380.61 187.195,1380.61 189.41,1380.61 191.624,1380.61 193.838,1380.61 196.052,1380.61 198.267,1380.61 200.481,1380.61 202.695,1380.61 204.91,1380.61 207.124,1380.61 209.338,1380.61 211.552,1380.61 213.767,1380.61 215.981,1380.61 218.195,1380.61 220.409,1380.61 222.624,1380.61 224.838,1380.61 227.052,1380.61 229.267,1380.61 231.481,1380.61 233.695,1380.61 235.909,1380.61 238.124,1380.61 240.338,1380.61 242.552,1380.61 244.766,1380.61 246.981,1380.61 249.195,1380.61 251.409,1380.61 253.624,1380.61 255.838,1380.61 258.052,1380.61 260.266,1380.61 262.481,1380.61 264.695,1380.61 266.909,1380.61 269.123,1380.61 271.338,1380.61 273.552,1380.61 275.766,1380.61 277.981,1380.61 280.195,1380.61 282.409,1380.61 284.623,1380.61 286.838,1380.61 289.052,1380.61 291.266,1380.61 293.48,1380.61 295.695,1380.61 297.909,1380.61 300.123,1380.61 302.338,1380.61 304.552,1380.61 306.766,1380.61 308.98,1380.61 311.195,1380.61 313.409,1380.61 315.623,1380.61 317.838,1380.61 320.052,1380.61 322.266,1380.61 324.48,1380.61 326.695,1380.61 328.909,1380.61 331.123,1380.61 333.337,1380.61 335.552,1380.61 337.766,1380.61 339.98,1380.61 342.195,1380.61 344.409,1380.61 346.623,1380.61 348.837,1380.61 351.052,1380.61 353.266,1380.61 355.48,1380.61 357.694,1380.61 359.909,1380.61 362.123,1380.61 364.337,1380.61 366.552,1380.61 368.766,1380.61 370.98,1380.61 373.194,1380.61 375.409,1380.61 377.623,1380.61 379.837,1380.61 382.051,1380.61 384.266,1380.61 386.48,1380.61 388.694,1380.61 390.909,1380.61 393.123,1380.61 395.337,1380.61 397.551,1380.61 399.766,1380.61 401.98,1380.61 404.194,1380.61 406.408,1380.61 408.623,1380.61 410.837,1380.61 413.051,1380.61 415.266,1380.61 417.48,1380.61 419.694,1380.61 421.908,1380.61 424.123,1380.61 426.337,1380.61 428.551,1380.61 430.766,1380.61 432.98,1380.61 435.194,1380.61 437.408,1380.61 439.623,1380.61 441.837,1380.61 444.051,1380.61 446.265,1380.61 448.48,1380.61 450.694,1380.61 452.908,1380.61 455.123,1380.61 457.337,1380.61 459.551,1380.61 461.765,1380.61 463.98,1380.61 466.194,1380.61 468.408,1380.61 470.622,1380.61 472.837,1380.61 475.051,1380.61 477.265,1380.61 479.48,1380.61 481.694,1380.61 483.908,1380.61 486.122,1380.61 488.337,1380.61 490.551,1380.61 492.765,1380.61 494.979,1380.61 497.194,1380.61 499.408,1380.61 501.622,1380.61 503.837,1380.61 506.051,1380.61 508.265,1380.61 510.479,1380.61 512.694,1380.61 514.908,1380.61 517.122,1380.61 519.337,1380.61 521.551,1380.61 523.765,1380.61 525.979,1380.61 528.194,1380.61 530.408,1380.61 532.622,1380.61 534.836,1380.61 537.051,1380.61 539.265,1380.61 541.479,1380.61 543.694,1380.61 545.908,1380.61 548.122,1380.61 550.336,1380.61 552.551,1380.61 554.765,1380.61 556.979,1380.61 559.193,1380.61 561.408,1380.61 563.622,1380.61 565.836,1380.61 568.051,1380.61 570.265,1380.61 572.479,1380.61 574.693,1380.61 576.908,1380.61 579.122,1380.61 581.336,1380.61 583.55,1380.61 585.765,1380.61 587.979,1380.61 590.193,1380.61 592.408,1380.61 594.622,1380.61 596.836,1380.61 599.05,1380.61 601.265,1380.61 603.479,1380.61 605.693,1380.61 607.907,1380.61 610.122,1380.61 612.336,1380.61 614.55,1380.61 616.765,1380.61 618.979,1380.61 621.193,1380.61 623.407,1380.61 625.622,1380.61 627.836,1380.61 630.05,1380.61 632.265,1380.61 634.479,1380.61 636.693,1380.61 638.907,1380.61 641.122,1380.61 643.336,1380.61 645.55,1380.61 647.764,1380.61 649.979,1380.61 652.193,1380.61 654.407,1380.61 656.622,1380.61 658.836,1380.61 661.05,1380.61 663.264,1380.61 665.479,1380.61 667.693,1380.61 669.907,1380.61 672.121,1380.61 674.336,1380.61 676.55,1380.61 678.764,1380.61 680.979,1380.61 683.193,1380.61 685.407,1380.61 687.621,1380.61 689.836,1380.61 692.05,1380.61 694.264,1380.61 696.478,1380.61 698.693,1380.61 700.907,1380.61 703.121,1380.61 705.336,1380.61 707.55,1380.61 709.764,1380.61 711.978,1380.61 714.193,1380.61 716.407,1380.61 718.621,1380.61 720.835,1380.61 723.05,1380.61 725.264,1380.61 727.478,1380.61 729.693,1380.61 731.907,1380.61 734.121,1380.61 736.335,1380.61 738.55,1380.61 740.764,1380.61 742.978,1380.61 745.193,1380.61 747.407,1380.61 749.621,1380.61 751.835,1380.61 754.05,1380.61 756.264,1380.61 758.478,1380.61 760.692,1380.61 762.907,1380.61 765.121,1380.61 767.335,1380.61 769.55,1380.61 771.764,1380.61 773.978,1380.61 776.192,1380.61 778.407,1380.61 780.621,1380.61 782.835,1380.61 785.049,1380.61 787.264,1380.61 789.478,1380.61 791.692,1380.61 793.907,1380.61 796.121,1380.61 798.335,1380.61 800.549,1380.61 802.764,1380.61 804.978,1380.61 807.192,1380.61 809.406,1380.61 811.621,1380.61 813.835,1380.61 816.049,1380.61 818.264,1380.61 820.478,1380.61 822.692,1380.61 824.906,1380.61 827.121,1380.61 829.335,1380.61 831.549,1380.61 833.764,1380.61 835.978,1380.61 838.192,1380.61 840.406,1380.61 842.621,1380.61 844.835,1380.61 847.049,1380.61 849.263,1380.61 851.478,1380.61 853.692,1380.61 855.906,1380.61 858.121,1380.61 860.335,1380.61 862.549,1380.61 864.763,1380.61 866.978,1380.61 869.192,1380.61 871.406,1380.61 873.62,1380.61 875.835,1380.61 878.049,1380.61 880.263,1380.61 882.478,1380.61 884.692,1380.61 886.906,1380.61 889.12,1380.61 891.335,1380.61 893.549,1380.61 895.763,1380.61 897.977,1380.61 900.192,1380.61 902.406,1380.61 904.62,1380.61 906.835,1380.61 909.049,1380.61 911.263,1380.61 913.477,1380.61 915.692,1380.61 917.906,1380.61 920.12,1380.61 922.334,1380.61 924.549,1380.61 926.763,1380.61 928.977,1380.61 931.192,1380.61 933.406,1380.61 935.62,1380.61 937.834,1380.61 940.049,1380.61 942.263,1380.61 944.477,1380.61 946.692,1380.61 948.906,1380.61 951.12,1380.61 953.334,1380.61 955.549,1380.61 957.763,1380.61 959.977,1380.61 962.191,1380.61 964.406,1380.61 966.62,1380.61 968.834,1380.61 971.049,1380.61 973.263,1380.61 975.477,1380.61 977.691,1380.61 979.906,1380.61 982.12,1380.61 984.334,1380.61 986.548,1380.61 988.763,1380.61 990.977,1380.61 993.191,1380.61 995.406,1380.61 997.62,1380.61 999.834,1380.61 1002.05,1380.61 1004.26,1380.61 1006.48,1380.61 1008.69,1380.61 1010.91,1380.61 1013.12,1380.61 1015.33,1380.61 1017.55,1380.61 1019.76,1380.61 1021.98,1380.61 1024.19,1380.61 1026.41,1380.61 1028.62,1380.61 1030.83,1380.61 1033.05,1380.61 1035.26,1380.61 1037.48,1380.61 1039.69,1380.61 1041.91,1380.61 1044.12,1380.61 1046.33,1380.61 1048.55,1380.61 1050.76,1380.61 1052.98,1380.61 1055.19,1380.61 1057.41,1380.61 1059.62,1380.61 1061.83,1380.61 1064.05,1380.61 1066.26,1380.61 1068.48,1380.61 1070.69,1380.61 1072.91,1380.61 1075.12,1380.61 1077.33,1380.61 1079.55,1380.61 1081.76,1380.61 1083.98,1380.61 1086.19,1380.61 1088.41,1380.61 1090.62,1380.61 1092.83,1380.61 1095.05,1380.61 1097.26,1380.61 1099.48,1380.61 1101.69,1380.61 1103.91,1380.61 1106.12,1380.61 1108.33,1380.61 1110.55,1380.61 1112.76,1380.61 1114.98,1380.61 1117.19,1380.61 1119.4,1380.61 1121.62,1380.61 1123.83,1380.61 1126.05,1380.61 1128.26,1380.61 1130.48,1380.61 1132.69,1380.61 1134.9,1380.61 1137.12,1380.61 1139.33,1380.61 1141.55,1380.61 1143.76,1380.61 1145.98,1380.61 1148.19,1380.61 1150.4,1380.61 1152.62,1380.61 1154.83,1380.61 1157.05,1380.61 1159.26,1380.61 1161.48,1380.61 1163.69,1380.61 1165.9,1380.61 1168.12,1380.61 1170.33,1380.61 1172.55,1380.61 1174.76,1380.61 1176.98,1380.61 1179.19,1380.61 1181.4,1380.61 1183.62,1380.61 1185.83,1380.61 1188.05,1380.61 1190.26,1380.61 1192.48,1380.61 1194.69,1380.61 1196.9,1380.61 1199.12,1380.61 1201.33,1380.61 1203.55,1380.61 1205.76,1380.61 1207.98,1380.61 1210.19,1380.61 1212.4,1380.61 1214.62,1380.61 1216.83,1380.61 1219.05,1380.61 1221.26,1380.61 1223.48,1380.61 1225.69,1380.61 1227.9,1380.61 1230.12,1380.61 1232.33,1380.61 1234.55,1380.61 1236.76,1380.61 1238.98,1380.61 1241.19,1380.61 1243.4,1380.61 1245.62,1380.61 1247.83,1380.51 1250.05,1379.71 1252.26,1378.11 1254.48,1375.72 1256.69,1372.56 1258.9,1368.63 1261.12,1363.95 1263.33,1358.53 1265.55,1352.38 1267.76,1345.52 1269.98,1337.96 1272.19,1329.71 1274.4,1320.78 1276.62,1311.21 1278.83,1300.99 1281.05,1290.15 1283.26,1278.7 1285.48,1266.67 1287.69,1254.06 1289.9,1240.91 1292.12,1227.21 1294.33,1213.01 1296.55,1198.31 1298.76,1183.13 1300.98,1167.49 1303.19,1151.42 1305.4,1134.94 1307.62,1118.06 1309.83,1100.8 1312.05,1083.19 1314.26,1065.25 1316.48,1047 1318.69,1028.46 1320.9,1009.65 1323.12,990.591 1325.33,971.308 1327.55,951.821 1329.76,932.151 1331.98,912.32 1334.19,892.35 1336.4,872.261 1338.62,852.075 1340.83,831.813 1343.05,811.496 1345.26,791.143 1347.48,770.777 1349.69,750.418 1351.9,730.085 1354.12,709.799 1356.33,689.579 1358.55,669.446 1360.76,649.417 1362.98,629.513 1365.19,609.753 1367.4,590.154 1369.62,570.734 1371.83,551.511 1374.05,532.501 1376.26,513.723 1378.48,495.191 1380.69,476.922 1382.9,458.932 1385.12,441.236 1387.33,423.848 1389.55,406.781 1391.76,390.051 1393.97,373.671 1396.19,357.654 1398.4,342.012 1400.62,326.757 1402.83,311.901 1405.05,297.455 1407.26,283.429 1409.47,269.833 1411.69,256.675 1413.9,243.965 1416.12,231.711 1418.33,219.921 1420.55,208.6 1422.76,197.756 1424.97,187.395 1427.19,177.522 1429.4,168.141 1431.62,159.258 1433.83,150.876 1436.05,142.999 1438.26,135.63 1440.47,128.772 1442.69,122.426 1444.9,116.593 1447.12,111.276 1449.33,106.472 1451.55,102.184 1453.76,98.409 1455.97,95.1464 1458.19,92.3943 1460.4,90.1503 1462.62,88.4111 1464.83,87.1735 1467.05,86.4332 1469.26,86.1857 1471.47,86.4257 1473.69,87.1486 1475.9,88.3494 1478.12,90.0222 1480.33,92.1604 1482.55,94.7572 1484.76,97.8056 1486.97,101.298 1489.19,105.227 1491.4,109.584 1493.62,114.361 1495.83,119.548 1498.05,125.138 1500.26,131.12 1502.47,137.484 1504.69,144.221 1506.9,151.32 1509.12,158.77 1511.33,166.56 1513.55,174.678 1515.76,183.114 1517.97,191.853 1520.19,200.886 1522.4,210.201 1524.62,219.787 1526.83,229.63 1529.05,239.718 1531.26,250.038 1533.47,260.578 1535.69,271.325 1537.9,282.267 1540.12,293.39 1542.33,304.681 1544.55,316.129 1546.76,327.72 1548.97,339.441 1551.19,351.279 1553.4,363.222 1555.62,375.257 1557.83,387.37 1560.05,399.549 1562.26,411.78 1564.47,424.051 1566.69,436.349 1568.9,448.661 1571.12,460.977 1573.33,473.282 1575.55,485.566 1577.76,497.815 1579.97,510.018 1582.19,522.162 1584.4,534.237 1586.62,546.231 1588.83,558.133 1591.05,569.931 1593.26,581.616 1595.47,593.177 1597.69,604.603 1599.9,615.885 1602.12,627.013 1604.33,637.977 1606.55,648.769 1608.76,659.378 1610.97,669.797 1613.19,680.018 1615.4,690.033 1617.62,699.834 1619.83,709.414 1622.05,718.764 1624.26,727.878 1626.47,736.747 1628.69,745.366 1630.9,753.727 1633.12,761.825 1635.33,769.654 1637.55,777.209 1639.76,784.485 1641.97,791.478 1644.19,798.182 1646.4,804.595 1648.62,810.713 1650.83,816.533 1653.05,822.051 1655.26,827.267 1657.47,832.177 1659.69,836.781 1661.9,841.076 1664.12,845.062 1666.33,848.739 1668.55,852.106 1670.76,855.163 1672.97,857.912 1675.19,860.352 1677.4,862.483 1679.62,864.305 1681.83,865.819 1684.04,867.028 1686.26,867.933 1688.47,868.535 1690.69,868.838 1692.9,868.844 1695.12,868.556 1697.33,867.976 1699.54,867.109 1701.76,865.958 1703.97,864.526 1706.19,862.819 1708.4,860.841 1710.62,858.596 1712.83,856.089 1715.04,853.326 1717.26,850.313 1719.47,847.055 1721.69,843.557 1723.9,839.825 1726.12,835.865 1728.33,831.684 1730.54,827.288 1732.76,822.684 1734.97,817.877 1737.19,812.876 1739.4,807.687 1741.62,802.316 1743.83,796.772 1746.04,791.061 1748.26,785.189 1750.47,779.166 1752.69,772.997 1754.9,766.691 1757.12,760.255 1759.33,753.696 1761.54,747.023 1763.76,740.243 1765.97,733.364 1768.19,726.394 1770.4,719.342 1772.62,712.214 1774.83,705.021 1777.04,697.769 1779.26,690.468 1781.47,683.123 1783.69,675.742 1785.9,668.332 1788.12,660.901 1790.33,653.458 1792.54,646.009 1794.76,638.564 1796.97,631.128 1799.19,623.71 1801.4,616.317 1803.62,608.955 1805.83,601.633 1808.04,594.356 1810.26,587.132 1812.47,579.967 1814.69,572.867 1816.9,565.839 1819.12,558.89 1821.33,552.024 1823.54,545.249 1825.76,538.569 1827.97,531.991 1830.19,525.52 1832.4,519.162 1834.62,512.921 1836.83,506.804 1839.04,500.814 1841.26,494.955 1843.47,489.231 1845.69,483.648 1847.9,478.209 1850.12,472.918 1852.33,467.781 1854.54,462.801 1856.76,457.981 1858.97,453.325 1861.19,448.836 1863.4,444.518 1865.62,440.372 1867.83,436.402 1870.04,432.61 1872.26,428.998 1874.47,425.567 1876.69,422.319 1878.9,419.256 1881.12,416.379 1883.33,413.689 1885.54,411.186 1887.76,408.871 1889.97,406.744 1892.19,404.806 1894.4,403.055 1896.62,401.493 1898.83,400.117 1901.04,398.928 1903.26,397.923 1905.47,397.102 1907.69,396.464 1909.9,396.008 1912.12,395.734 1914.33,395.639 1916.54,395.722 1918.76,395.982 1920.97,396.416 1923.19,397.023 1925.4,397.799 1927.62,398.744 1929.83,399.853 1932.04,401.126 1934.26,402.559 1936.47,404.149 1938.69,405.892 1940.9,407.787 1943.12,409.83 1945.33,412.017 1947.54,414.345 1949.76,416.809 1951.97,419.407 1954.19,422.134 1956.4,424.985 1958.62,427.958 1960.83,431.047 1963.04,434.248 1965.26,437.555 1967.47,440.966 1969.69,444.473 1971.9,448.073 1974.11,451.76 1976.33,455.533 1978.54,459.387 1980.76,463.317 1982.97,467.318 1985.19,471.385 1987.4,475.514 1989.61,479.7 1991.83,483.937 1994.04,488.222 1996.26,492.549 1998.47,496.914 2000.69,501.313 2002.9,505.739 2005.11,510.19 2007.33,514.66 2009.54,519.145 2011.76,523.639 2013.97,528.14 2016.19,532.641 2018.4,537.14 2020.61,541.63 2022.83,546.109 2025.04,550.57 2027.26,555.011 2029.47,559.427 2031.69,563.813 2033.9,568.165 2036.11,572.479 2038.33,576.751 2040.54,580.978 2042.76,585.158 2044.97,589.285 2047.19,593.356 2049.4,597.368 2051.61,601.317 2053.83,605.2 2056.04,609.012 2058.26,612.751 2060.47,616.414 2062.69,619.998 2064.9,623.499 2067.11,626.916 2069.33,630.245 2071.54,633.484 2073.76,636.632 2075.97,639.684 2078.19,642.641 2080.4,645.499 2082.61,648.256 2084.83,650.912 2087.04,653.464 2089.26,655.912 2091.47,658.253 2093.69,660.487 2095.9,662.613 2098.11,664.629 2100.33,666.535 2102.54,668.33 2104.76,670.014 2106.97,671.587 2109.19,673.047 2111.4,674.396 2113.61,675.631 2115.83,676.754 2118.04,677.764 2120.26,678.66 2122.47,679.444 2124.69,680.115 2126.9,680.673 2129.11,681.119 2131.33,681.453 2133.54,681.677 2135.76,681.79 2137.97,681.795 2140.19,681.69 2142.4,681.479 2144.61,681.161 2146.83,680.739 2149.04,680.214 2151.26,679.586 2153.47,678.859 2155.69,678.033 2157.9,677.111 2160.11,676.095 2162.33,674.986 2164.54,673.787 2166.76,672.501 2168.97,671.129 2171.19,669.674 2173.4,668.139 2175.61,666.527 2177.83,664.841 2180.04,663.082 2182.26,661.253 2184.47,659.354 2186.69,657.39 2188.9,655.361 2191.11,653.272 2193.33,651.125 2195.54,648.922 2197.76,646.667 2199.97,644.362 2202.19,642.01 2204.4,639.614 2206.61,637.176 2208.83,634.699 2211.04,632.186 2213.26,629.641 2215.47,627.065 2217.69,624.461 2219.9,621.832 2222.11,619.182 2224.33,616.512 2226.54,613.827 2228.76,611.128 2230.97,608.418 2233.19,605.701 2235.4,602.979 2237.61,600.255 2239.83,597.531 2242.04,594.812 2244.26,592.099 2246.47,589.396 2248.68,586.706 2250.9,584.029 2253.11,581.367 2255.33,578.724 2257.54,576.102 2259.76,573.503 2261.97,570.93 2264.18,568.386 2266.4,565.872 2268.61,563.392 2270.83,560.947 2273.04,558.54 2275.26,556.173 2277.47,553.847 2279.68,551.565 2281.9,549.328 2284.11,547.139 2286.33,544.998 2288.54,542.909 2290.76,540.871 2292.97,538.887 2295.18,536.959 2297.4,535.087 2299.61,533.272 2301.83,531.516 2304.04,529.821 2306.26,528.186 2308.47,526.614 2310.68,525.104 2312.9,523.658 2315.11,522.277 2317.33,520.96 2319.54,519.71 2321.76,518.525 2323.97,517.407 2326.18,516.357 2328.4,515.373 2330.61,514.459 2332.83,513.612 2335.04,512.834 2337.26,512.125 2339.47,511.485 2341.68,510.913 2343.9,510.409 2346.11,509.975 2348.33,509.608 2350.54,509.309 2352.76,509.077 "></polyline>
<polyline clip-path="url(#clip002)" style="stroke:#e26f46; stroke-linecap:round; stroke-linejoin:round; stroke-width:4; stroke-opacity:1; fill:none" points="140.696,1380.61 142.91,1380.61 145.124,1380.61 147.338,1380.61 149.553,1380.61 151.767,1380.61 153.981,1380.61 156.195,1380.61 158.41,1380.61 160.624,1380.61 162.838,1380.61 165.053,1380.61 167.267,1380.61 169.481,1380.61 171.695,1380.61 173.91,1380.61 176.124,1380.61 178.338,1380.61 180.552,1380.61 182.767,1380.61 184.981,1380.61 187.195,1380.61 189.41,1380.61 191.624,1380.61 193.838,1380.61 196.052,1380.61 198.267,1380.61 200.481,1380.61 202.695,1380.61 204.91,1380.61 207.124,1380.61 209.338,1380.61 211.552,1380.61 213.767,1380.61 215.981,1380.61 218.195,1380.61 220.409,1380.61 222.624,1380.61 224.838,1380.61 227.052,1380.61 229.267,1380.61 231.481,1380.61 233.695,1380.61 235.909,1380.61 238.124,1380.61 240.338,1380.61 242.552,1380.61 244.766,1380.61 246.981,1380.61 249.195,1380.61 251.409,1380.61 253.624,1380.61 255.838,1380.61 258.052,1380.61 260.266,1380.61 262.481,1380.61 264.695,1380.61 266.909,1380.61 269.123,1380.61 271.338,1380.61 273.552,1380.61 275.766,1380.61 277.981,1380.61 280.195,1380.61 282.409,1380.61 284.623,1380.61 286.838,1380.61 289.052,1380.61 291.266,1380.61 293.48,1380.61 295.695,1380.61 297.909,1380.61 300.123,1380.61 302.338,1380.61 304.552,1380.61 306.766,1380.61 308.98,1380.61 311.195,1380.61 313.409,1380.61 315.623,1380.61 317.838,1380.61 320.052,1380.61 322.266,1380.61 324.48,1380.61 326.695,1380.61 328.909,1380.61 331.123,1380.61 333.337,1380.61 335.552,1380.61 337.766,1380.61 339.98,1380.61 342.195,1380.61 344.409,1380.61 346.623,1380.61 348.837,1380.61 351.052,1380.61 353.266,1380.61 355.48,1380.61 357.694,1380.61 359.909,1380.61 362.123,1380.61 364.337,1380.61 366.552,1380.61 368.766,1380.61 370.98,1380.61 373.194,1380.61 375.409,1380.61 377.623,1380.61 379.837,1380.61 382.051,1380.61 384.266,1380.61 386.48,1380.61 388.694,1380.61 390.909,1380.61 393.123,1380.61 395.337,1380.61 397.551,1380.61 399.766,1380.61 401.98,1380.61 404.194,1380.61 406.408,1380.61 408.623,1380.61 410.837,1380.61 413.051,1380.61 415.266,1380.61 417.48,1380.61 419.694,1380.61 421.908,1380.61 424.123,1380.61 426.337,1380.61 428.551,1380.61 430.766,1380.61 432.98,1380.61 435.194,1380.61 437.408,1380.61 439.623,1380.61 441.837,1380.61 444.051,1380.61 446.265,1380.61 448.48,1380.61 450.694,1380.61 452.908,1380.61 455.123,1380.61 457.337,1380.61 459.551,1380.61 461.765,1380.61 463.98,1380.61 466.194,1380.61 468.408,1380.61 470.622,1380.61 472.837,1380.61 475.051,1380.61 477.265,1380.61 479.48,1380.61 481.694,1380.61 483.908,1380.61 486.122,1380.61 488.337,1380.61 490.551,1380.61 492.765,1380.61 494.979,1380.61 497.194,1380.61 499.408,1380.61 501.622,1380.61 503.837,1380.61 506.051,1380.61 508.265,1380.61 510.479,1380.61 512.694,1380.61 514.908,1380.61 517.122,1380.61 519.337,1380.61 521.551,1380.61 523.765,1380.61 525.979,1380.61 528.194,1380.61 530.408,1380.61 532.622,1380.61 534.836,1380.61 537.051,1380.61 539.265,1380.61 541.479,1380.61 543.694,1380.61 545.908,1380.61 548.122,1380.61 550.336,1380.61 552.551,1380.61 554.765,1380.61 556.979,1380.61 559.193,1380.61 561.408,1380.61 563.622,1380.61 565.836,1380.61 568.051,1380.61 570.265,1380.61 572.479,1380.61 574.693,1380.61 576.908,1380.61 579.122,1380.61 581.336,1380.61 583.55,1380.61 585.765,1380.61 587.979,1380.61 590.193,1380.61 592.408,1380.61 594.622,1380.61 596.836,1380.61 599.05,1380.61 601.265,1380.61 603.479,1380.61 605.693,1380.61 607.907,1380.61 610.122,1380.61 612.336,1380.61 614.55,1380.61 616.765,1380.61 618.979,1380.61 621.193,1380.61 623.407,1380.61 625.622,1380.61 627.836,1380.61 630.05,1380.61 632.265,1380.61 634.479,1380.61 636.693,1380.61 638.907,1380.61 641.122,1380.61 643.336,1380.61 645.55,1380.61 647.764,1380.61 649.979,1380.61 652.193,1380.61 654.407,1380.61 656.622,1380.61 658.836,1380.61 661.05,1380.61 663.264,1380.61 665.479,1380.61 667.693,1380.61 669.907,1380.61 672.121,1380.61 674.336,1380.61 676.55,1380.61 678.764,1380.61 680.979,1380.61 683.193,1380.61 685.407,1380.61 687.621,1380.61 689.836,1380.61 692.05,1380.61 694.264,1380.61 696.478,1380.61 698.693,1380.61 700.907,1380.61 703.121,1380.61 705.336,1380.61 707.55,1380.61 709.764,1380.61 711.978,1380.61 714.193,1380.61 716.407,1380.61 718.621,1380.61 720.835,1380.61 723.05,1380.61 725.264,1380.61 727.478,1380.61 729.693,1380.61 731.907,1380.61 734.121,1380.61 736.335,1380.61 738.55,1380.61 740.764,1380.61 742.978,1380.61 745.193,1380.61 747.407,1380.61 749.621,1380.61 751.835,1380.61 754.05,1380.61 756.264,1380.61 758.478,1380.61 760.692,1380.61 762.907,1380.61 765.121,1380.61 767.335,1380.61 769.55,1380.61 771.764,1380.61 773.978,1380.61 776.192,1380.61 778.407,1380.61 780.621,1380.61 782.835,1380.61 785.049,1380.61 787.264,1380.61 789.478,1380.61 791.692,1380.61 793.907,1380.61 796.121,1380.61 798.335,1380.61 800.549,1380.61 802.764,1380.61 804.978,1380.61 807.192,1380.61 809.406,1380.61 811.621,1380.61 813.835,1380.61 816.049,1380.61 818.264,1380.61 820.478,1380.61 822.692,1380.61 824.906,1380.61 827.121,1380.61 829.335,1380.61 831.549,1380.61 833.764,1380.61 835.978,1380.61 838.192,1380.61 840.406,1380.61 842.621,1380.61 844.835,1380.61 847.049,1380.61 849.263,1380.61 851.478,1380.61 853.692,1380.61 855.906,1380.61 858.121,1380.61 860.335,1380.61 862.549,1380.61 864.763,1380.61 866.978,1380.61 869.192,1380.61 871.406,1380.61 873.62,1380.61 875.835,1380.61 878.049,1380.61 880.263,1380.61 882.478,1380.61 884.692,1380.61 886.906,1380.61 889.12,1380.61 891.335,1380.61 893.549,1380.61 895.763,1380.61 897.977,1380.61 900.192,1380.61 902.406,1380.61 904.62,1380.61 906.835,1380.61 909.049,1380.61 911.263,1380.61 913.477,1380.61 915.692,1380.61 917.906,1380.61 920.12,1380.61 922.334,1380.61 924.549,1380.61 926.763,1380.61 928.977,1380.61 931.192,1380.61 933.406,1380.61 935.62,1380.61 937.834,1380.61 940.049,1380.61 942.263,1380.61 944.477,1380.61 946.692,1380.61 948.906,1380.61 951.12,1380.61 953.334,1380.61 955.549,1380.61 957.763,1380.61 959.977,1380.61 962.191,1380.61 964.406,1380.61 966.62,1380.61 968.834,1380.61 971.049,1380.61 973.263,1380.61 975.477,1380.61 977.691,1380.61 979.906,1380.61 982.12,1380.61 984.334,1380.61 986.548,1380.61 988.763,1380.61 990.977,1380.61 993.191,1380.61 995.406,1380.61 997.62,1380.61 999.834,1380.61 1002.05,1380.61 1004.26,1380.61 1006.48,1380.61 1008.69,1380.61 1010.91,1380.61 1013.12,1380.61 1015.33,1380.61 1017.55,1380.61 1019.76,1380.61 1021.98,1380.61 1024.19,1380.61 1026.41,1380.61 1028.62,1380.61 1030.83,1380.61 1033.05,1380.61 1035.26,1380.61 1037.48,1380.61 1039.69,1380.61 1041.91,1380.61 1044.12,1380.61 1046.33,1380.61 1048.55,1380.61 1050.76,1380.61 1052.98,1380.61 1055.19,1380.61 1057.41,1380.61 1059.62,1380.61 1061.83,1380.61 1064.05,1380.61 1066.26,1380.61 1068.48,1380.61 1070.69,1380.61 1072.91,1380.61 1075.12,1380.61 1077.33,1380.61 1079.55,1380.61 1081.76,1380.61 1083.98,1380.61 1086.19,1380.61 1088.41,1380.61 1090.62,1380.61 1092.83,1380.61 1095.05,1380.61 1097.26,1380.61 1099.48,1380.61 1101.69,1380.61 1103.91,1380.61 1106.12,1380.61 1108.33,1380.61 1110.55,1380.61 1112.76,1380.61 1114.98,1380.61 1117.19,1380.61 1119.4,1380.61 1121.62,1380.61 1123.83,1380.61 1126.05,1380.61 1128.26,1380.61 1130.48,1380.61 1132.69,1380.61 1134.9,1380.61 1137.12,1380.61 1139.33,1380.61 1141.55,1380.61 1143.76,1380.61 1145.98,1380.61 1148.19,1380.61 1150.4,1380.61 1152.62,1380.61 1154.83,1380.61 1157.05,1380.61 1159.26,1380.61 1161.48,1380.61 1163.69,1380.61 1165.9,1380.61 1168.12,1380.61 1170.33,1380.61 1172.55,1380.61 1174.76,1380.61 1176.98,1380.61 1179.19,1380.61 1181.4,1380.61 1183.62,1380.61 1185.83,1380.61 1188.05,1380.61 1190.26,1380.61 1192.48,1380.61 1194.69,1380.61 1196.9,1380.61 1199.12,1380.61 1201.33,1380.61 1203.55,1380.61 1205.76,1380.61 1207.98,1380.61 1210.19,1380.61 1212.4,1380.61 1214.62,1380.61 1216.83,1380.61 1219.05,1380.61 1221.26,1380.61 1223.48,1380.61 1225.69,1380.61 1227.9,1380.61 1230.12,1380.61 1232.33,1380.61 1234.55,1380.61 1236.76,1380.61 1238.98,1380.61 1241.19,1380.61 1243.4,1380.61 1245.62,1380.61 1247.83,1380.21 1250.05,1379.4 1252.26,1378.59 1254.48,1377.79 1256.69,1376.99 1258.9,1376.19 1261.12,1375.4 1263.33,1374.61 1265.55,1373.83 1267.76,1373.05 1269.98,1372.28 1272.19,1371.52 1274.4,1370.77 1276.62,1370.03 1278.83,1369.3 1281.05,1368.57 1283.26,1367.86 1285.48,1367.16 1287.69,1366.48 1289.9,1365.8 1292.12,1365.14 1294.33,1364.49 1296.55,1363.86 1298.76,1363.24 1300.98,1362.64 1303.19,1362.06 1305.4,1361.49 1307.62,1360.93 1309.83,1360.4 1312.05,1359.88 1314.26,1359.38 1316.48,1358.89 1318.69,1358.43 1320.9,1357.98 1323.12,1357.56 1325.33,1357.15 1327.55,1356.76 1329.76,1356.39 1331.98,1356.05 1334.19,1355.72 1336.4,1355.41 1338.62,1355.12 1340.83,1354.85 1343.05,1354.6 1345.26,1354.38 1347.48,1354.17 1349.69,1353.98 1351.9,1353.82 1354.12,1353.67 1356.33,1353.54 1358.55,1353.44 1360.76,1353.35 1362.98,1353.29 1365.19,1353.24 1367.4,1353.21 1369.62,1353.21 1371.83,1353.22 1374.05,1353.25 1376.26,1353.3 1378.48,1353.37 1380.69,1353.46 1382.9,1353.57 1385.12,1353.69 1387.33,1353.83 1389.55,1353.99 1391.76,1354.17 1393.97,1354.36 1396.19,1354.57 1398.4,1354.79 1400.62,1355.03 1402.83,1355.29 1405.05,1355.56 1407.26,1355.84 1409.47,1356.14 1411.69,1356.45 1413.9,1356.77 1416.12,1357.11 1418.33,1357.46 1420.55,1357.82 1422.76,1358.19 1424.97,1358.57 1427.19,1358.96 1429.4,1359.37 1431.62,1359.78 1433.83,1360.2 1436.05,1360.62 1438.26,1361.06 1440.47,1361.5 1442.69,1361.95 1444.9,1362.4 1447.12,1362.86 1449.33,1363.33 1451.55,1363.8 1453.76,1364.27 1455.97,1364.75 1458.19,1365.23 1460.4,1365.72 1462.62,1366.2 1464.83,1366.69 1467.05,1367.18 1469.26,1367.66 1471.47,1368.15 1473.69,1368.64 1475.9,1369.13 1478.12,1369.61 1480.33,1370.1 1482.55,1370.58 1484.76,1371.05 1486.97,1371.53 1489.19,1372 1491.4,1372.47 1493.62,1372.93 1495.83,1373.39 1498.05,1373.84 1500.26,1374.29 1502.47,1374.73 1504.69,1375.16 1506.9,1375.59 1509.12,1376.01 1511.33,1376.42 1513.55,1376.82 1515.76,1377.22 1517.97,1377.6 1520.19,1377.98 1522.4,1378.35 1524.62,1378.71 1526.83,1379.06 1529.05,1379.4 1531.26,1379.73 1533.47,1380.05 1535.69,1380.36 1537.9,1380.65 1540.12,1380.94 1542.33,1381.22 1544.55,1381.48 1546.76,1381.73 1548.97,1381.97 1551.19,1382.2 1553.4,1382.42 1555.62,1382.62 1557.83,1382.81 1560.05,1383 1562.26,1383.16 1564.47,1383.32 1566.69,1383.46 1568.9,1383.6 1571.12,1383.71 1573.33,1383.82 1575.55,1383.92 1577.76,1384 1579.97,1384.07 1582.19,1384.13 1584.4,1384.17 1586.62,1384.21 1588.83,1384.23 1591.05,1384.24 1593.26,1384.24 1595.47,1384.22 1597.69,1384.2 1599.9,1384.16 1602.12,1384.11 1604.33,1384.06 1606.55,1383.99 1608.76,1383.91 1610.97,1383.81 1613.19,1383.71 1615.4,1383.6 1617.62,1383.48 1619.83,1383.35 1622.05,1383.21 1624.26,1383.06 1626.47,1382.9 1628.69,1382.74 1630.9,1382.56 1633.12,1382.38 1635.33,1382.18 1637.55,1381.98 1639.76,1381.78 1641.97,1381.56 1644.19,1381.34 1646.4,1381.11 1648.62,1380.88 1650.83,1380.64 1653.05,1380.39 1655.26,1380.14 1657.47,1379.89 1659.69,1379.63 1661.9,1379.36 1664.12,1379.09 1666.33,1378.82 1668.55,1378.54 1670.76,1378.26 1672.97,1377.98 1675.19,1377.69 1677.4,1377.4 1679.62,1377.11 1681.83,1376.82 1684.04,1376.53 1686.26,1376.24 1688.47,1375.94 1690.69,1375.65 1692.9,1375.35 1695.12,1375.06 1697.33,1374.76 1699.54,1374.47 1701.76,1374.18 1703.97,1373.88 1706.19,1373.59 1708.4,1373.31 1710.62,1373.02 1712.83,1372.74 1715.04,1372.45 1717.26,1372.18 1719.47,1371.9 1721.69,1371.63 1723.9,1371.36 1726.12,1371.1 1728.33,1370.84 1730.54,1370.58 1732.76,1370.33 1734.97,1370.08 1737.19,1369.84 1739.4,1369.6 1741.62,1369.37 1743.83,1369.15 1746.04,1368.93 1748.26,1368.71 1750.47,1368.5 1752.69,1368.3 1754.9,1368.11 1757.12,1367.92 1759.33,1367.73 1761.54,1367.56 1763.76,1367.39 1765.97,1367.22 1768.19,1367.07 1770.4,1366.92 1772.62,1366.78 1774.83,1366.64 1777.04,1366.52 1779.26,1366.39 1781.47,1366.28 1783.69,1366.18 1785.9,1366.08 1788.12,1365.99 1790.33,1365.9 1792.54,1365.83 1794.76,1365.76 1796.97,1365.7 1799.19,1365.64 1801.4,1365.6 1803.62,1365.56 1805.83,1365.53 1808.04,1365.5 1810.26,1365.49 1812.47,1365.48 1814.69,1365.48 1816.9,1365.48 1819.12,1365.49 1821.33,1365.51 1823.54,1365.54 1825.76,1365.57 1827.97,1365.61 1830.19,1365.65 1832.4,1365.7 1834.62,1365.76 1836.83,1365.83 1839.04,1365.9 1841.26,1365.97 1843.47,1366.05 1845.69,1366.14 1847.9,1366.24 1850.12,1366.33 1852.33,1366.44 1854.54,1366.55 1856.76,1366.66 1858.97,1366.78 1861.19,1366.9 1863.4,1367.03 1865.62,1367.16 1867.83,1367.3 1870.04,1367.43 1872.26,1367.58 1874.47,1367.72 1876.69,1367.87 1878.9,1368.03 1881.12,1368.18 1883.33,1368.34 1885.54,1368.51 1887.76,1368.67 1889.97,1368.84 1892.19,1369 1894.4,1369.17 1896.62,1369.35 1898.83,1369.52 1901.04,1369.7 1903.26,1369.87 1905.47,1370.05 1907.69,1370.23 1909.9,1370.4 1912.12,1370.58 1914.33,1370.76 1916.54,1370.94 1918.76,1371.12 1920.97,1371.29 1923.19,1371.47 1925.4,1371.65 1927.62,1371.83 1929.83,1372 1932.04,1372.17 1934.26,1372.35 1936.47,1372.52 1938.69,1372.69 1940.9,1372.85 1943.12,1373.02 1945.33,1373.18 1947.54,1373.34 1949.76,1373.5 1951.97,1373.66 1954.19,1373.81 1956.4,1373.96 1958.62,1374.11 1960.83,1374.25 1963.04,1374.39 1965.26,1374.53 1967.47,1374.67 1969.69,1374.8 1971.9,1374.93 1974.11,1375.05 1976.33,1375.17 1978.54,1375.29 1980.76,1375.4 1982.97,1375.51 1985.19,1375.61 1987.4,1375.71 1989.61,1375.81 1991.83,1375.9 1994.04,1375.99 1996.26,1376.08 1998.47,1376.16 2000.69,1376.23 2002.9,1376.3 2005.11,1376.37 2007.33,1376.43 2009.54,1376.49 2011.76,1376.54 2013.97,1376.59 2016.19,1376.63 2018.4,1376.67 2020.61,1376.7 2022.83,1376.73 2025.04,1376.76 2027.26,1376.78 2029.47,1376.8 2031.69,1376.81 2033.9,1376.82 2036.11,1376.82 2038.33,1376.82 2040.54,1376.81 2042.76,1376.8 2044.97,1376.79 2047.19,1376.77 2049.4,1376.75 2051.61,1376.73 2053.83,1376.7 2056.04,1376.67 2058.26,1376.63 2060.47,1376.59 2062.69,1376.54 2064.9,1376.5 2067.11,1376.44 2069.33,1376.39 2071.54,1376.33 2073.76,1376.27 2075.97,1376.21 2078.19,1376.14 2080.4,1376.07 2082.61,1376 2084.83,1375.92 2087.04,1375.84 2089.26,1375.76 2091.47,1375.68 2093.69,1375.59 2095.9,1375.5 2098.11,1375.41 2100.33,1375.32 2102.54,1375.23 2104.76,1375.13 2106.97,1375.04 2109.19,1374.94 2111.4,1374.84 2113.61,1374.74 2115.83,1374.63 2118.04,1374.53 2120.26,1374.43 2122.47,1374.32 2124.69,1374.22 2126.9,1374.11 2129.11,1374 2131.33,1373.89 2133.54,1373.79 2135.76,1373.68 2137.97,1373.57 2140.19,1373.46 2142.4,1373.36 2144.61,1373.25 2146.83,1373.14 2149.04,1373.03 2151.26,1372.93 2153.47,1372.82 2155.69,1372.72 2157.9,1372.61 2160.11,1372.51 2162.33,1372.41 2164.54,1372.31 2166.76,1372.21 2168.97,1372.11 2171.19,1372.02 2173.4,1371.92 2175.61,1371.83 2177.83,1371.74 2180.04,1371.64 2182.26,1371.56 2184.47,1371.47 2186.69,1371.39 2188.9,1371.3 2191.11,1371.22 2193.33,1371.14 2195.54,1371.07 2197.76,1370.99 2199.97,1370.92 2202.19,1370.85 2204.4,1370.79 2206.61,1370.72 2208.83,1370.66 2211.04,1370.6 2213.26,1370.54 2215.47,1370.49 2217.69,1370.44 2219.9,1370.39 2222.11,1370.34 2224.33,1370.3 2226.54,1370.25 2228.76,1370.22 2230.97,1370.18 2233.19,1370.15 2235.4,1370.12 2237.61,1370.09 2239.83,1370.07 2242.04,1370.04 2244.26,1370.02 2246.47,1370.01 2248.68,1369.99 2250.9,1369.98 2253.11,1369.97 2255.33,1369.97 2257.54,1369.96 2259.76,1369.96 2261.97,1369.96 2264.18,1369.97 2266.4,1369.97 2268.61,1369.98 2270.83,1369.99 2273.04,1370.01 2275.26,1370.03 2277.47,1370.04 2279.68,1370.07 2281.9,1370.09 2284.11,1370.11 2286.33,1370.14 2288.54,1370.17 2290.76,1370.2 2292.97,1370.24 2295.18,1370.27 2297.4,1370.31 2299.61,1370.35 2301.83,1370.39 2304.04,1370.44 2306.26,1370.48 2308.47,1370.53 2310.68,1370.58 2312.9,1370.63 2315.11,1370.68 2317.33,1370.73 2319.54,1370.79 2321.76,1370.84 2323.97,1370.9 2326.18,1370.95 2328.4,1371.01 2330.61,1371.07 2332.83,1371.13 2335.04,1371.19 2337.26,1371.25 2339.47,1371.32 2341.68,1371.38 2343.9,1371.44 2346.11,1371.51 2348.33,1371.57 2350.54,1371.63 2352.76,1371.7 "></polyline>
<path clip-path="url(#clip000)" d="M1749.58 248.629 L2279.02 248.629 L2279.02 93.1086 L1749.58 93.1086  Z" fill="#ffffff" fill-rule="evenodd" fill-opacity="1"></path>
<polyline clip-path="url(#clip000)" style="stroke:#000000; stroke-linecap:round; stroke-linejoin:round; stroke-width:4; stroke-opacity:1; fill:none" points="1749.58,248.629 2279.02,248.629 2279.02,93.1086 1749.58,93.1086 1749.58,248.629 "></polyline>
<polyline clip-path="url(#clip000)" style="stroke:#009af9; stroke-linecap:round; stroke-linejoin:round; stroke-width:4; stroke-opacity:1; fill:none" points="1774.15,144.949 1921.62,144.949 "></polyline>
<path clip-path="url(#clip000)" d="M1966.71 137.298 L1966.71 141.28 Q1964.91 140.284 1963.08 139.798 Q1961.27 139.289 1959.42 139.289 Q1955.28 139.289 1952.99 141.928 Q1950.69 144.544 1950.69 149.289 Q1950.69 154.034 1952.99 156.673 Q1955.28 159.289 1959.42 159.289 Q1961.27 159.289 1963.08 158.803 Q1964.91 158.293 1966.71 157.298 L1966.71 161.233 Q1964.93 162.067 1963.01 162.483 Q1961.11 162.9 1958.96 162.9 Q1953.1 162.9 1949.65 159.219 Q1946.2 155.539 1946.2 149.289 Q1946.2 142.946 1949.68 139.312 Q1953.17 135.678 1959.24 135.678 Q1961.2 135.678 1963.08 136.095 Q1964.95 136.488 1966.71 137.298 Z" fill="#000000" fill-rule="nonzero" fill-opacity="1"></path><path clip-path="url(#clip000)" d="M1985.9 149.196 Q1980.74 149.196 1978.75 150.377 Q1976.76 151.557 1976.76 154.405 Q1976.76 156.673 1978.24 158.016 Q1979.74 159.335 1982.31 159.335 Q1985.86 159.335 1987.99 156.835 Q1990.14 154.312 1990.14 150.145 L1990.14 149.196 L1985.9 149.196 M1994.4 147.437 L1994.4 162.229 L1990.14 162.229 L1990.14 158.293 Q1988.68 160.655 1986.5 161.789 Q1984.33 162.9 1981.18 162.9 Q1977.2 162.9 1974.84 160.678 Q1972.5 158.432 1972.5 154.682 Q1972.5 150.307 1975.42 148.085 Q1978.36 145.863 1984.17 145.863 L1990.14 145.863 L1990.14 145.446 Q1990.14 142.507 1988.19 140.909 Q1986.27 139.289 1982.78 139.289 Q1980.55 139.289 1978.45 139.821 Q1976.34 140.354 1974.4 141.419 L1974.4 137.483 Q1976.74 136.581 1978.93 136.141 Q1981.13 135.678 1983.22 135.678 Q1988.84 135.678 1991.62 138.594 Q1994.4 141.511 1994.4 147.437 Z" fill="#000000" fill-rule="nonzero" fill-opacity="1"></path><path clip-path="url(#clip000)" d="M2007.29 158.34 L2007.29 172.09 L2003.01 172.09 L2003.01 136.303 L2007.29 136.303 L2007.29 140.238 Q2008.63 137.923 2010.67 136.812 Q2012.73 135.678 2015.58 135.678 Q2020.3 135.678 2023.24 139.428 Q2026.2 143.178 2026.2 149.289 Q2026.2 155.4 2023.24 159.15 Q2020.3 162.9 2015.58 162.9 Q2012.73 162.9 2010.67 161.789 Q2008.63 160.655 2007.29 158.34 M2021.78 149.289 Q2021.78 144.59 2019.84 141.928 Q2017.92 139.243 2014.54 139.243 Q2011.16 139.243 2009.21 141.928 Q2007.29 144.59 2007.29 149.289 Q2007.29 153.988 2009.21 156.673 Q2011.16 159.335 2014.54 159.335 Q2017.92 159.335 2019.84 156.673 Q2021.78 153.988 2021.78 149.289 Z" fill="#000000" fill-rule="nonzero" fill-opacity="1"></path><path clip-path="url(#clip000)" d="M2045.05 149.196 Q2039.88 149.196 2037.89 150.377 Q2035.9 151.557 2035.9 154.405 Q2035.9 156.673 2037.38 158.016 Q2038.89 159.335 2041.46 159.335 Q2045 159.335 2047.13 156.835 Q2049.28 154.312 2049.28 150.145 L2049.28 149.196 L2045.05 149.196 M2053.54 147.437 L2053.54 162.229 L2049.28 162.229 L2049.28 158.293 Q2047.82 160.655 2045.65 161.789 Q2043.47 162.9 2040.32 162.9 Q2036.34 162.9 2033.98 160.678 Q2031.64 158.432 2031.64 154.682 Q2031.64 150.307 2034.56 148.085 Q2037.5 145.863 2043.31 145.863 L2049.28 145.863 L2049.28 145.446 Q2049.28 142.507 2047.34 140.909 Q2045.42 139.289 2041.92 139.289 Q2039.7 139.289 2037.59 139.821 Q2035.48 140.354 2033.54 141.419 L2033.54 137.483 Q2035.88 136.581 2038.08 136.141 Q2040.28 135.678 2042.36 135.678 Q2047.98 135.678 2050.76 138.594 Q2053.54 141.511 2053.54 147.437 Z" fill="#000000" fill-rule="nonzero" fill-opacity="1"></path><path clip-path="url(#clip000)" d="M2080.97 137.298 L2080.97 141.28 Q2079.17 140.284 2077.34 139.798 Q2075.53 139.289 2073.68 139.289 Q2069.54 139.289 2067.24 141.928 Q2064.95 144.544 2064.95 149.289 Q2064.95 154.034 2067.24 156.673 Q2069.54 159.289 2073.68 159.289 Q2075.53 159.289 2077.34 158.803 Q2079.17 158.293 2080.97 157.298 L2080.97 161.233 Q2079.19 162.067 2077.27 162.483 Q2075.37 162.9 2073.22 162.9 Q2067.36 162.9 2063.91 159.219 Q2060.46 155.539 2060.46 149.289 Q2060.46 142.946 2063.93 139.312 Q2067.43 135.678 2073.49 135.678 Q2075.46 135.678 2077.34 136.095 Q2079.21 136.488 2080.97 137.298 Z" fill="#000000" fill-rule="nonzero" fill-opacity="1"></path><path clip-path="url(#clip000)" d="M2088.38 136.303 L2092.64 136.303 L2092.64 162.229 L2088.38 162.229 L2088.38 136.303 M2088.38 126.21 L2092.64 126.21 L2092.64 131.604 L2088.38 131.604 L2088.38 126.21 Z" fill="#000000" fill-rule="nonzero" fill-opacity="1"></path><path clip-path="url(#clip000)" d="M2105.76 128.942 L2105.76 136.303 L2114.54 136.303 L2114.54 139.613 L2105.76 139.613 L2105.76 153.687 Q2105.76 156.858 2106.62 157.761 Q2107.5 158.664 2110.16 158.664 L2114.54 158.664 L2114.54 162.229 L2110.16 162.229 Q2105.23 162.229 2103.35 160.4 Q2101.48 158.548 2101.48 153.687 L2101.48 139.613 L2098.35 139.613 L2098.35 136.303 L2101.48 136.303 L2101.48 128.942 L2105.76 128.942 Z" fill="#000000" fill-rule="nonzero" fill-opacity="1"></path><path clip-path="url(#clip000)" d="M2130.18 139.289 Q2126.76 139.289 2124.77 141.974 Q2122.78 144.636 2122.78 149.289 Q2122.78 153.942 2124.74 156.627 Q2126.73 159.289 2130.18 159.289 Q2133.59 159.289 2135.58 156.604 Q2137.57 153.918 2137.57 149.289 Q2137.57 144.682 2135.58 141.997 Q2133.59 139.289 2130.18 139.289 M2130.18 135.678 Q2135.74 135.678 2138.91 139.289 Q2142.08 142.9 2142.08 149.289 Q2142.08 155.655 2138.91 159.289 Q2135.74 162.9 2130.18 162.9 Q2124.6 162.9 2121.43 159.289 Q2118.29 155.655 2118.29 149.289 Q2118.29 142.9 2121.43 139.289 Q2124.6 135.678 2130.18 135.678 Z" fill="#000000" fill-rule="nonzero" fill-opacity="1"></path><path clip-path="url(#clip000)" d="M2164.16 140.284 Q2163.45 139.868 2162.59 139.682 Q2161.76 139.474 2160.74 139.474 Q2157.13 139.474 2155.18 141.835 Q2153.26 144.173 2153.26 148.571 L2153.26 162.229 L2148.98 162.229 L2148.98 136.303 L2153.26 136.303 L2153.26 140.331 Q2154.6 137.969 2156.76 136.835 Q2158.91 135.678 2161.99 135.678 Q2162.43 135.678 2162.96 135.747 Q2163.49 135.794 2164.14 135.909 L2164.16 140.284 Z" fill="#000000" fill-rule="nonzero" fill-opacity="1"></path><path clip-path="url(#clip000)" d="M2164.88 156.349 L2169.77 156.349 L2169.77 162.229 L2164.88 162.229 L2164.88 156.349 Z" fill="#000000" fill-rule="nonzero" fill-opacity="1"></path><path clip-path="url(#clip000)" d="M2176.29 136.303 L2180.81 136.303 L2188.91 158.062 L2197.01 136.303 L2201.53 136.303 L2191.8 162.229 L2186.02 162.229 L2176.29 136.303 Z" fill="#000000" fill-rule="nonzero" fill-opacity="1"></path><path clip-path="url(#clip000)" d="M2217.64 126.257 Q2214.53 131.581 2213.03 136.789 Q2211.53 141.997 2211.53 147.344 Q2211.53 152.692 2213.03 157.946 Q2214.56 163.178 2217.64 168.479 L2213.93 168.479 Q2210.46 163.039 2208.72 157.784 Q2207.01 152.53 2207.01 147.344 Q2207.01 142.182 2208.72 136.951 Q2210.44 131.72 2213.93 126.257 L2217.64 126.257 Z" fill="#000000" fill-rule="nonzero" fill-opacity="1"></path><path clip-path="url(#clip000)" d="M2230.11 128.942 L2230.11 136.303 L2238.89 136.303 L2238.89 139.613 L2230.11 139.613 L2230.11 153.687 Q2230.11 156.858 2230.97 157.761 Q2231.85 158.664 2234.51 158.664 L2238.89 158.664 L2238.89 162.229 L2234.51 162.229 Q2229.58 162.229 2227.71 160.4 Q2225.83 158.548 2225.83 153.687 L2225.83 139.613 L2222.71 139.613 L2222.71 136.303 L2225.83 136.303 L2225.83 128.942 L2230.11 128.942 Z" fill="#000000" fill-rule="nonzero" fill-opacity="1"></path><path clip-path="url(#clip000)" d="M2243.82 126.257 L2247.52 126.257 Q2250.99 131.72 2252.71 136.951 Q2254.44 142.182 2254.44 147.344 Q2254.44 152.53 2252.71 157.784 Q2250.99 163.039 2247.52 168.479 L2243.82 168.479 Q2246.9 163.178 2248.4 157.946 Q2249.93 152.692 2249.93 147.344 Q2249.93 141.997 2248.4 136.789 Q2246.9 131.581 2243.82 126.257 Z" fill="#000000" fill-rule="nonzero" fill-opacity="1"></path><polyline clip-path="url(#clip000)" style="stroke:#e26f46; stroke-linecap:round; stroke-linejoin:round; stroke-width:4; stroke-opacity:1; fill:none" points="1774.15,196.789 1921.62,196.789 "></polyline>
<path clip-path="url(#clip000)" d="M1946.2 188.143 L1950.46 188.143 L1950.46 214.069 L1946.2 214.069 L1946.2 188.143 M1946.2 178.05 L1950.46 178.05 L1950.46 183.444 L1946.2 183.444 L1946.2 178.05 Z" fill="#000000" fill-rule="nonzero" fill-opacity="1"></path><path clip-path="url(#clip000)" d="M1980.93 198.421 L1980.93 214.069 L1976.67 214.069 L1976.67 198.559 Q1976.67 194.879 1975.23 193.05 Q1973.8 191.222 1970.93 191.222 Q1967.48 191.222 1965.49 193.421 Q1963.49 195.62 1963.49 199.416 L1963.49 214.069 L1959.21 214.069 L1959.21 188.143 L1963.49 188.143 L1963.49 192.171 Q1965.02 189.833 1967.08 188.675 Q1969.17 187.518 1971.87 187.518 Q1976.34 187.518 1978.63 190.296 Q1980.93 193.05 1980.93 198.421 Z" fill="#000000" fill-rule="nonzero" fill-opacity="1"></path><path clip-path="url(#clip000)" d="M2006.48 192.078 L2006.48 178.05 L2010.74 178.05 L2010.74 214.069 L2006.48 214.069 L2006.48 210.18 Q2005.14 212.495 2003.08 213.629 Q2001.04 214.74 1998.17 214.74 Q1993.47 214.74 1990.51 210.99 Q1987.57 207.24 1987.57 201.129 Q1987.57 195.018 1990.51 191.268 Q1993.47 187.518 1998.17 187.518 Q2001.04 187.518 2003.08 188.652 Q2005.14 189.763 2006.48 192.078 M1991.97 201.129 Q1991.97 205.828 1993.89 208.513 Q1995.83 211.175 1999.21 211.175 Q2002.59 211.175 2004.54 208.513 Q2006.48 205.828 2006.48 201.129 Q2006.48 196.43 2004.54 193.768 Q2002.59 191.083 1999.21 191.083 Q1995.83 191.083 1993.89 193.768 Q1991.97 196.43 1991.97 201.129 Z" fill="#000000" fill-rule="nonzero" fill-opacity="1"></path><path clip-path="url(#clip000)" d="M2019.07 203.837 L2019.07 188.143 L2023.33 188.143 L2023.33 203.675 Q2023.33 207.356 2024.77 209.208 Q2026.2 211.036 2029.07 211.036 Q2032.52 211.036 2034.51 208.837 Q2036.53 206.638 2036.53 202.842 L2036.53 188.143 L2040.79 188.143 L2040.79 214.069 L2036.53 214.069 L2036.53 210.087 Q2034.98 212.448 2032.92 213.606 Q2030.88 214.74 2028.17 214.74 Q2023.7 214.74 2021.39 211.962 Q2019.07 209.184 2019.07 203.837 M2029.79 187.518 L2029.79 187.518 Z" fill="#000000" fill-rule="nonzero" fill-opacity="1"></path><path clip-path="url(#clip000)" d="M2068.22 189.138 L2068.22 193.12 Q2066.41 192.124 2064.58 191.638 Q2062.78 191.129 2060.92 191.129 Q2056.78 191.129 2054.49 193.768 Q2052.2 196.384 2052.2 201.129 Q2052.2 205.874 2054.49 208.513 Q2056.78 211.129 2060.92 211.129 Q2062.78 211.129 2064.58 210.643 Q2066.41 210.133 2068.22 209.138 L2068.22 213.073 Q2066.43 213.907 2064.51 214.323 Q2062.61 214.74 2060.46 214.74 Q2054.61 214.74 2051.16 211.059 Q2047.71 207.379 2047.71 201.129 Q2047.71 194.786 2051.18 191.152 Q2054.67 187.518 2060.74 187.518 Q2062.71 187.518 2064.58 187.935 Q2066.46 188.328 2068.22 189.138 Z" fill="#000000" fill-rule="nonzero" fill-opacity="1"></path><path clip-path="url(#clip000)" d="M2079.84 180.782 L2079.84 188.143 L2088.61 188.143 L2088.61 191.453 L2079.84 191.453 L2079.84 205.527 Q2079.84 208.698 2080.69 209.601 Q2081.57 210.504 2084.23 210.504 L2088.61 210.504 L2088.61 214.069 L2084.23 214.069 Q2079.3 214.069 2077.43 212.24 Q2075.55 210.388 2075.55 205.527 L2075.55 191.453 L2072.43 191.453 L2072.43 188.143 L2075.55 188.143 L2075.55 180.782 L2079.84 180.782 Z" fill="#000000" fill-rule="nonzero" fill-opacity="1"></path><path clip-path="url(#clip000)" d="M2104.26 191.129 Q2100.83 191.129 2098.84 193.814 Q2096.85 196.476 2096.85 201.129 Q2096.85 205.782 2098.82 208.467 Q2100.81 211.129 2104.26 211.129 Q2107.66 211.129 2109.65 208.444 Q2111.64 205.758 2111.64 201.129 Q2111.64 196.522 2109.65 193.837 Q2107.66 191.129 2104.26 191.129 M2104.26 187.518 Q2109.81 187.518 2112.98 191.129 Q2116.16 194.74 2116.16 201.129 Q2116.16 207.495 2112.98 211.129 Q2109.81 214.74 2104.26 214.74 Q2098.68 214.74 2095.51 211.129 Q2092.36 207.495 2092.36 201.129 Q2092.36 194.74 2095.51 191.129 Q2098.68 187.518 2104.26 187.518 Z" fill="#000000" fill-rule="nonzero" fill-opacity="1"></path><path clip-path="url(#clip000)" d="M2138.24 192.124 Q2137.52 191.708 2136.66 191.522 Q2135.83 191.314 2134.81 191.314 Q2131.2 191.314 2129.26 193.675 Q2127.34 196.013 2127.34 200.411 L2127.34 214.069 L2123.05 214.069 L2123.05 188.143 L2127.34 188.143 L2127.34 192.171 Q2128.68 189.809 2130.83 188.675 Q2132.98 187.518 2136.06 187.518 Q2136.5 187.518 2137.04 187.587 Q2137.57 187.634 2138.22 187.749 L2138.24 192.124 Z" fill="#000000" fill-rule="nonzero" fill-opacity="1"></path><path clip-path="url(#clip000)" d="M2138.96 208.189 L2143.84 208.189 L2143.84 214.069 L2138.96 214.069 L2138.96 208.189 Z" fill="#000000" fill-rule="nonzero" fill-opacity="1"></path><path clip-path="url(#clip000)" d="M2153.42 188.143 L2157.68 188.143 L2157.68 214.069 L2153.42 214.069 L2153.42 188.143 M2153.42 178.05 L2157.68 178.05 L2157.68 183.444 L2153.42 183.444 L2153.42 178.05 Z" fill="#000000" fill-rule="nonzero" fill-opacity="1"></path><path clip-path="url(#clip000)" d="M2176.83 178.097 Q2173.72 183.421 2172.22 188.629 Q2170.72 193.837 2170.72 199.184 Q2170.72 204.532 2172.22 209.786 Q2173.75 215.018 2176.83 220.319 L2173.12 220.319 Q2169.65 214.879 2167.91 209.624 Q2166.2 204.37 2166.2 199.184 Q2166.2 194.022 2167.91 188.791 Q2169.63 183.56 2173.12 178.097 L2176.83 178.097 Z" fill="#000000" fill-rule="nonzero" fill-opacity="1"></path><path clip-path="url(#clip000)" d="M2189.3 180.782 L2189.3 188.143 L2198.08 188.143 L2198.08 191.453 L2189.3 191.453 L2189.3 205.527 Q2189.3 208.698 2190.16 209.601 Q2191.04 210.504 2193.7 210.504 L2198.08 210.504 L2198.08 214.069 L2193.7 214.069 Q2188.77 214.069 2186.9 212.24 Q2185.02 210.388 2185.02 205.527 L2185.02 191.453 L2181.9 191.453 L2181.9 188.143 L2185.02 188.143 L2185.02 180.782 L2189.3 180.782 Z" fill="#000000" fill-rule="nonzero" fill-opacity="1"></path><path clip-path="url(#clip000)" d="M2203.01 178.097 L2206.71 178.097 Q2210.18 183.56 2211.9 188.791 Q2213.63 194.022 2213.63 199.184 Q2213.63 204.37 2211.9 209.624 Q2210.18 214.879 2206.71 220.319 L2203.01 220.319 Q2206.09 215.018 2207.59 209.786 Q2209.12 204.532 2209.12 199.184 Q2209.12 193.837 2207.59 188.629 Q2206.09 183.421 2203.01 178.097 Z" fill="#000000" fill-rule="nonzero" fill-opacity="1"></path></svg>