<svg xmlns="http://www.w3.org/2000/svg" xmlns:xlink="http://www.w3.org/1999/xlink" width="600" height="400" viewBox="0 0 2400 1600">
<defs>
  <clipPath id="clip960">
    <rect x="0" y="0" width="2400" height="1600"></rect>
  </clipPath>
</defs>
<path clip-path="url(#clip960)" d="M0 1600 L2400 1600 L2400 8.88178e-14 L0 8.88178e-14  Z" fill="#ffffff" fill-rule="evenodd" fill-opacity="1"></path>
<defs>
  <clipPath id="clip961">
    <rect x="480" y="0" width="1681" height="1600"></rect>
  </clipPath>
</defs>
<path clip-path="url(#clip960)" d="M184.191 1486.45 L2352.76 1486.45 L2352.76 47.2441 L184.191 47.2441  Z" fill="#ffffff" fill-rule="evenodd" fill-opacity="1"></path>
<defs>
  <clipPath id="clip962">
    <rect x="184" y="47" width="2170" height="1440"></rect>
  </clipPath>
</defs>
<polyline clip-path="url(#clip962)" style="stroke:#000000; stroke-linecap:round; stroke-linejoin:round; stroke-width:2; stroke-opacity:0.1; fill:none" points="235.336,1486.45 235.336,47.2441 "></polyline>
<polyline clip-path="url(#clip962)" style="stroke:#000000; stroke-linecap:round; stroke-linejoin:round; stroke-width:2; stroke-opacity:0.1; fill:none" points="746.79,1486.45 746.79,47.2441 "></polyline>
<polyline clip-path="url(#clip962)" style="stroke:#000000; stroke-linecap:round; stroke-linejoin:round; stroke-width:2; stroke-opacity:0.1; fill:none" points="1258.24,1486.45 1258.24,47.2441 "></polyline>
<polyline clip-path="url(#clip962)" style="stroke:#000000; stroke-linecap:round; stroke-linejoin:round; stroke-width:2; stroke-opacity:0.1; fill:none" points="1769.7,1486.45 1769.7,47.2441 "></polyline>
<polyline clip-path="url(#clip962)" style="stroke:#000000; stroke-linecap:round; stroke-linejoin:round; stroke-width:2; stroke-opacity:0.1; fill:none" points="2281.15,1486.45 2281.15,47.2441 "></polyline>
<polyline clip-path="url(#clip962)" style="stroke:#000000; stroke-linecap:round; stroke-linejoin:round; stroke-width:2; stroke-opacity:0.1; fill:none" points="184.191,1445.72 2352.76,1445.72 "></polyline>
<polyline clip-path="url(#clip962)" style="stroke:#000000; stroke-linecap:round; stroke-linejoin:round; stroke-width:2; stroke-opacity:0.1; fill:none" points="184.191,1106.28 2352.76,1106.28 "></polyline>
<polyline clip-path="url(#clip962)" style="stroke:#000000; stroke-linecap:round; stroke-linejoin:round; stroke-width:2; stroke-opacity:0.1; fill:none" points="184.191,766.846 2352.76,766.846 "></polyline>
<polyline clip-path="url(#clip962)" style="stroke:#000000; stroke-linecap:round; stroke-linejoin:round; stroke-width:2; stroke-opacity:0.1; fill:none" points="184.191,427.411 2352.76,427.411 "></polyline>
<polyline clip-path="url(#clip962)" style="stroke:#000000; stroke-linecap:round; stroke-linejoin:round; stroke-width:2; stroke-opacity:0.1; fill:none" points="184.191,87.9763 2352.76,87.9763 "></polyline>
<polyline clip-path="url(#clip960)" style="stroke:#000000; stroke-linecap:round; stroke-linejoin:round; stroke-width:4; stroke-opacity:1; fill:none" points="184.191,1486.45 2352.76,1486.45 "></polyline>
<polyline clip-path="url(#clip960)" style="stroke:#000000; stroke-linecap:round; stroke-linejoin:round; stroke-width:4; stroke-opacity:1; fill:none" points="235.336,1486.45 235.336,1467.55 "></polyline>
<polyline clip-path="url(#clip960)" style="stroke:#000000; stroke-linecap:round; stroke-linejoin:round; stroke-width:4; stroke-opacity:1; fill:none" points="746.79,1486.45 746.79,1467.55 "></polyline>
<polyline clip-path="url(#clip960)" style="stroke:#000000; stroke-linecap:round; stroke-linejoin:round; stroke-width:4; stroke-opacity:1; fill:none" points="1258.24,1486.45 1258.24,1467.55 "></polyline>
<polyline clip-path="url(#clip960)" style="stroke:#000000; stroke-linecap:round; stroke-linejoin:round; stroke-width:4; stroke-opacity:1; fill:none" points="1769.7,1486.45 1769.7,1467.55 "></polyline>
<polyline clip-path="url(#clip960)" style="stroke:#000000; stroke-linecap:round; stroke-linejoin:round; stroke-width:4; stroke-opacity:1; fill:none" points="2281.15,1486.45 2281.15,1467.55 "></polyline>
<path clip-path="url(#clip960)" d="M235.336 1517.37 Q231.725 1517.37 229.896 1520.93 Q228.091 1524.47 228.091 1531.6 Q228.091 1538.71 229.896 1542.27 Q231.725 1545.82 235.336 1545.82 Q238.97 1545.82 240.776 1542.27 Q242.605 1538.71 242.605 1531.6 Q242.605 1524.47 240.776 1520.93 Q238.97 1517.37 235.336 1517.37 M235.336 1513.66 Q241.146 1513.66 244.202 1518.27 Q247.28 1522.85 247.28 1531.6 Q247.28 1540.33 244.202 1544.94 Q241.146 1549.52 235.336 1549.52 Q229.526 1549.52 226.447 1544.94 Q223.392 1540.33 223.392 1531.6 Q223.392 1522.85 226.447 1518.27 Q229.526 1513.66 235.336 1513.66 Z" fill="#000000" fill-rule="nonzero" fill-opacity="1"></path><path clip-path="url(#clip960)" d="M721.489 1514.29 L739.846 1514.29 L739.846 1518.22 L725.772 1518.22 L725.772 1526.7 Q726.79 1526.35 727.809 1526.19 Q728.827 1526 729.846 1526 Q735.633 1526 739.012 1529.17 Q742.392 1532.34 742.392 1537.76 Q742.392 1543.34 738.92 1546.44 Q735.448 1549.52 729.128 1549.52 Q726.952 1549.52 724.684 1549.15 Q722.438 1548.78 720.031 1548.04 L720.031 1543.34 Q722.114 1544.47 724.337 1545.03 Q726.559 1545.58 729.036 1545.58 Q733.04 1545.58 735.378 1543.48 Q737.716 1541.37 737.716 1537.76 Q737.716 1534.15 735.378 1532.04 Q733.04 1529.94 729.036 1529.94 Q727.161 1529.94 725.286 1530.35 Q723.434 1530.77 721.489 1531.65 L721.489 1514.29 Z" fill="#000000" fill-rule="nonzero" fill-opacity="1"></path><path clip-path="url(#clip960)" d="M761.605 1517.37 Q757.994 1517.37 756.165 1520.93 Q754.36 1524.47 754.36 1531.6 Q754.36 1538.71 756.165 1542.27 Q757.994 1545.82 761.605 1545.82 Q765.239 1545.82 767.045 1542.27 Q768.873 1538.71 768.873 1531.6 Q768.873 1524.47 767.045 1520.93 Q765.239 1517.37 761.605 1517.37 M761.605 1513.66 Q767.415 1513.66 770.471 1518.27 Q773.549 1522.85 773.549 1531.6 Q773.549 1540.33 770.471 1544.94 Q767.415 1549.52 761.605 1549.52 Q755.795 1549.52 752.716 1544.94 Q749.661 1540.33 749.661 1531.6 Q749.661 1522.85 752.716 1518.27 Q755.795 1513.66 761.605 1513.66 Z" fill="#000000" fill-rule="nonzero" fill-opacity="1"></path><path clip-path="url(#clip960)" d="M1217.85 1544.91 L1225.49 1544.91 L1225.49 1518.55 L1217.18 1520.21 L1217.18 1515.95 L1225.44 1514.29 L1230.12 1514.29 L1230.12 1544.91 L1237.76 1544.91 L1237.76 1548.85 L1217.85 1548.85 L1217.85 1544.91 Z" fill="#000000" fill-rule="nonzero" fill-opacity="1"></path><path clip-path="url(#clip960)" d="M1257.2 1517.37 Q1253.59 1517.37 1251.76 1520.93 Q1249.96 1524.47 1249.96 1531.6 Q1249.96 1538.71 1251.76 1542.27 Q1253.59 1545.82 1257.2 1545.82 Q1260.84 1545.82 1262.64 1542.27 Q1264.47 1538.71 1264.47 1531.6 Q1264.47 1524.47 1262.64 1520.93 Q1260.84 1517.37 1257.2 1517.37 M1257.2 1513.66 Q1263.01 1513.66 1266.07 1518.27 Q1269.15 1522.85 1269.15 1531.6 Q1269.15 1540.33 1266.07 1544.94 Q1263.01 1549.52 1257.2 1549.52 Q1251.39 1549.52 1248.31 1544.94 Q1245.26 1540.33 1245.26 1531.6 Q1245.26 1522.85 1248.31 1518.27 Q1251.39 1513.66 1257.2 1513.66 Z" fill="#000000" fill-rule="nonzero" fill-opacity="1"></path><path clip-path="url(#clip960)" d="M1287.36 1517.37 Q1283.75 1517.37 1281.92 1520.93 Q1280.12 1524.47 1280.12 1531.6 Q1280.12 1538.71 1281.92 1542.27 Q1283.75 1545.82 1287.36 1545.82 Q1291 1545.82 1292.8 1542.27 Q1294.63 1538.71 1294.63 1531.6 Q1294.63 1524.47 1292.8 1520.93 Q1291 1517.37 1287.36 1517.37 M1287.36 1513.66 Q1293.17 1513.66 1296.23 1518.27 Q1299.31 1522.85 1299.31 1531.6 Q1299.31 1540.33 1296.23 1544.94 Q1293.17 1549.52 1287.36 1549.52 Q1281.55 1549.52 1278.48 1544.94 Q1275.42 1540.33 1275.42 1531.6 Q1275.42 1522.85 1278.48 1518.27 Q1281.55 1513.66 1287.36 1513.66 Z" fill="#000000" fill-rule="nonzero" fill-opacity="1"></path><path clip-path="url(#clip960)" d="M1729.3 1544.91 L1736.94 1544.91 L1736.94 1518.55 L1728.63 1520.21 L1728.63 1515.95 L1736.9 1514.29 L1741.57 1514.29 L1741.57 1544.91 L1749.21 1544.91 L1749.21 1548.85 L1729.3 1548.85 L1729.3 1544.91 Z" fill="#000000" fill-rule="nonzero" fill-opacity="1"></path><path clip-path="url(#clip960)" d="M1758.7 1514.29 L1777.06 1514.29 L1777.06 1518.22 L1762.99 1518.22 L1762.99 1526.7 Q1764 1526.35 1765.02 1526.19 Q1766.04 1526 1767.06 1526 Q1772.85 1526 1776.23 1529.17 Q1779.61 1532.34 1779.61 1537.76 Q1779.61 1543.34 1776.13 1546.44 Q1772.66 1549.52 1766.34 1549.52 Q1764.17 1549.52 1761.9 1549.15 Q1759.65 1548.78 1757.24 1548.04 L1757.24 1543.34 Q1759.33 1544.47 1761.55 1545.03 Q1763.77 1545.58 1766.25 1545.58 Q1770.25 1545.58 1772.59 1543.48 Q1774.93 1541.37 1774.93 1537.76 Q1774.93 1534.15 1772.59 1532.04 Q1770.25 1529.94 1766.25 1529.94 Q1764.37 1529.94 1762.5 1530.35 Q1760.65 1530.77 1758.7 1531.65 L1758.7 1514.29 Z" fill="#000000" fill-rule="nonzero" fill-opacity="1"></path><path clip-path="url(#clip960)" d="M1798.82 1517.37 Q1795.21 1517.37 1793.38 1520.93 Q1791.57 1524.47 1791.57 1531.6 Q1791.57 1538.71 1793.38 1542.27 Q1795.21 1545.82 1798.82 1545.82 Q1802.45 1545.82 1804.26 1542.27 Q1806.09 1538.71 1806.09 1531.6 Q1806.09 1524.47 1804.26 1520.93 Q1802.45 1517.37 1798.82 1517.37 M1798.82 1513.66 Q1804.63 1513.66 1807.68 1518.27 Q1810.76 1522.85 1810.76 1531.6 Q1810.76 1540.33 1807.68 1544.94 Q1804.63 1549.52 1798.82 1549.52 Q1793.01 1549.52 1789.93 1544.94 Q1786.87 1540.33 1786.87 1531.6 Q1786.87 1522.85 1789.93 1518.27 Q1793.01 1513.66 1798.82 1513.66 Z" fill="#000000" fill-rule="nonzero" fill-opacity="1"></path><path clip-path="url(#clip960)" d="M2244.84 1544.91 L2261.16 1544.91 L2261.16 1548.85 L2239.22 1548.85 L2239.22 1544.91 Q2241.88 1542.16 2246.47 1537.53 Q2251.07 1532.88 2252.25 1531.53 Q2254.5 1529.01 2255.38 1527.27 Q2256.28 1525.51 2256.28 1523.82 Q2256.28 1521.07 2254.34 1519.33 Q2252.41 1517.6 2249.31 1517.6 Q2247.11 1517.6 2244.66 1518.36 Q2242.23 1519.13 2239.45 1520.68 L2239.45 1515.95 Q2242.28 1514.82 2244.73 1514.24 Q2247.18 1513.66 2249.22 1513.66 Q2254.59 1513.66 2257.78 1516.35 Q2260.98 1519.03 2260.98 1523.52 Q2260.98 1525.65 2260.17 1527.57 Q2259.38 1529.47 2257.28 1532.07 Q2256.7 1532.74 2253.59 1535.95 Q2250.49 1539.15 2244.84 1544.91 Z" fill="#000000" fill-rule="nonzero" fill-opacity="1"></path><path clip-path="url(#clip960)" d="M2280.98 1517.37 Q2277.37 1517.37 2275.54 1520.93 Q2273.73 1524.47 2273.73 1531.6 Q2273.73 1538.71 2275.54 1542.27 Q2277.37 1545.82 2280.98 1545.82 Q2284.61 1545.82 2286.42 1542.27 Q2288.25 1538.71 2288.25 1531.6 Q2288.25 1524.47 2286.42 1520.93 Q2284.61 1517.37 2280.98 1517.37 M2280.98 1513.66 Q2286.79 1513.66 2289.84 1518.27 Q2292.92 1522.85 2292.92 1531.6 Q2292.92 1540.33 2289.84 1544.94 Q2286.79 1549.52 2280.98 1549.52 Q2275.17 1549.52 2272.09 1544.94 Q2269.03 1540.33 2269.03 1531.6 Q2269.03 1522.85 2272.09 1518.27 Q2275.17 1513.66 2280.98 1513.66 Z" fill="#000000" fill-rule="nonzero" fill-opacity="1"></path><path clip-path="url(#clip960)" d="M2311.14 1517.37 Q2307.53 1517.37 2305.7 1520.93 Q2303.9 1524.47 2303.9 1531.6 Q2303.9 1538.71 2305.7 1542.27 Q2307.53 1545.82 2311.14 1545.82 Q2314.77 1545.82 2316.58 1542.27 Q2318.41 1538.71 2318.41 1531.6 Q2318.41 1524.47 2316.58 1520.93 Q2314.77 1517.37 2311.14 1517.37 M2311.14 1513.66 Q2316.95 1513.66 2320.01 1518.27 Q2323.08 1522.85 2323.08 1531.6 Q2323.08 1540.33 2320.01 1544.94 Q2316.95 1549.52 2311.14 1549.52 Q2305.33 1549.52 2302.25 1544.94 Q2299.2 1540.33 2299.2 1531.6 Q2299.2 1522.85 2302.25 1518.27 Q2305.33 1513.66 2311.14 1513.66 Z" fill="#000000" fill-rule="nonzero" fill-opacity="1"></path><polyline clip-path="url(#clip960)" style="stroke:#000000; stroke-linecap:round; stroke-linejoin:round; stroke-width:4; stroke-opacity:1; fill:none" points="184.191,1486.45 184.191,47.2441 "></polyline>
<polyline clip-path="url(#clip960)" style="stroke:#000000; stroke-linecap:round; stroke-linejoin:round; stroke-width:4; stroke-opacity:1; fill:none" points="184.191,1445.72 203.088,1445.72 "></polyline>
<polyline clip-path="url(#clip960)" style="stroke:#000000; stroke-linecap:round; stroke-linejoin:round; stroke-width:4; stroke-opacity:1; fill:none" points="184.191,1106.28 203.088,1106.28 "></polyline>
<polyline clip-path="url(#clip960)" style="stroke:#000000; stroke-linecap:round; stroke-linejoin:round; stroke-width:4; stroke-opacity:1; fill:none" points="184.191,766.846 203.088,766.846 "></polyline>
<polyline clip-path="url(#clip960)" style="stroke:#000000; stroke-linecap:round; stroke-linejoin:round; stroke-width:4; stroke-opacity:1; fill:none" points="184.191,427.411 203.088,427.411 "></polyline>
<polyline clip-path="url(#clip960)" style="stroke:#000000; stroke-linecap:round; stroke-linejoin:round; stroke-width:4; stroke-opacity:1; fill:none" points="184.191,87.9763 203.088,87.9763 "></polyline>
<path clip-path="url(#clip960)" d="M91.0151 1431.51 Q87.404 1431.51 85.5753 1435.08 Q83.7697 1438.62 83.7697 1445.75 Q83.7697 1452.86 85.5753 1456.42 Q87.404 1459.96 91.0151 1459.96 Q94.6493 1459.96 96.4548 1456.42 Q98.2835 1452.86 98.2835 1445.75 Q98.2835 1438.62 96.4548 1435.08 Q94.6493 1431.51 91.0151 1431.51 M91.0151 1427.81 Q96.8252 1427.81 99.8808 1432.42 Q102.959 1437 102.959 1445.75 Q102.959 1454.48 99.8808 1459.08 Q96.8252 1463.67 91.0151 1463.67 Q85.2049 1463.67 82.1262 1459.08 Q79.0707 1454.48 79.0707 1445.75 Q79.0707 1437 82.1262 1432.42 Q85.2049 1427.81 91.0151 1427.81 Z" fill="#000000" fill-rule="nonzero" fill-opacity="1"></path><path clip-path="url(#clip960)" d="M111.177 1457.12 L116.061 1457.12 L116.061 1463 L111.177 1463 L111.177 1457.12 Z" fill="#000000" fill-rule="nonzero" fill-opacity="1"></path><path clip-path="url(#clip960)" d="M136.246 1431.51 Q132.635 1431.51 130.807 1435.08 Q129.001 1438.62 129.001 1445.75 Q129.001 1452.86 130.807 1456.42 Q132.635 1459.96 136.246 1459.96 Q139.881 1459.96 141.686 1456.42 Q143.515 1452.86 143.515 1445.75 Q143.515 1438.62 141.686 1435.08 Q139.881 1431.51 136.246 1431.51 M136.246 1427.81 Q142.056 1427.81 145.112 1432.42 Q148.191 1437 148.191 1445.75 Q148.191 1454.48 145.112 1459.08 Q142.056 1463.67 136.246 1463.67 Q130.436 1463.67 127.357 1459.08 Q124.302 1454.48 124.302 1445.75 Q124.302 1437 127.357 1432.42 Q130.436 1427.81 136.246 1427.81 Z" fill="#000000" fill-rule="nonzero" fill-opacity="1"></path><path clip-path="url(#clip960)" d="M86.0382 1119.63 L102.358 1119.63 L102.358 1123.56 L80.4133 1123.56 L80.4133 1119.63 Q83.0753 1116.87 87.6586 1112.24 Q92.2651 1107.59 93.4456 1106.25 Q95.691 1103.72 96.5706 1101.99 Q97.4734 1100.23 97.4734 1098.54 Q97.4734 1095.78 95.5289 1094.05 Q93.6076 1092.31 90.5058 1092.31 Q88.3067 1092.31 85.8531 1093.07 Q83.4225 1093.84 80.6447 1095.39 L80.6447 1090.67 Q83.4688 1089.53 85.9225 1088.95 Q88.3762 1088.38 90.4132 1088.38 Q95.7836 1088.38 98.978 1091.06 Q102.172 1093.75 102.172 1098.24 Q102.172 1100.37 101.362 1102.29 Q100.575 1104.19 98.4687 1106.78 Q97.89 1107.45 94.7882 1110.67 Q91.6864 1113.86 86.0382 1119.63 Z" fill="#000000" fill-rule="nonzero" fill-opacity="1"></path><path clip-path="url(#clip960)" d="M112.172 1117.68 L117.057 1117.68 L117.057 1123.56 L112.172 1123.56 L112.172 1117.68 Z" fill="#000000" fill-rule="nonzero" fill-opacity="1"></path><path clip-path="url(#clip960)" d="M127.288 1089 L145.644 1089 L145.644 1092.94 L131.57 1092.94 L131.57 1101.41 Q132.589 1101.06 133.607 1100.9 Q134.626 1100.71 135.644 1100.71 Q141.431 1100.71 144.811 1103.89 Q148.191 1107.06 148.191 1112.47 Q148.191 1118.05 144.718 1121.15 Q141.246 1124.23 134.927 1124.23 Q132.751 1124.23 130.482 1123.86 Q128.237 1123.49 125.83 1122.75 L125.83 1118.05 Q127.913 1119.19 130.135 1119.74 Q132.357 1120.3 134.834 1120.3 Q138.839 1120.3 141.177 1118.19 Q143.515 1116.08 143.515 1112.47 Q143.515 1108.86 141.177 1106.76 Q138.839 1104.65 134.834 1104.65 Q132.959 1104.65 131.084 1105.07 Q129.232 1105.48 127.288 1106.36 L127.288 1089 Z" fill="#000000" fill-rule="nonzero" fill-opacity="1"></path><path clip-path="url(#clip960)" d="M81.0614 749.566 L99.4178 749.566 L99.4178 753.501 L85.3438 753.501 L85.3438 761.973 Q86.3623 761.626 87.3808 761.464 Q88.3993 761.279 89.4178 761.279 Q95.2049 761.279 98.5845 764.45 Q101.964 767.621 101.964 773.038 Q101.964 778.617 98.4919 781.719 Q95.0197 784.797 88.7003 784.797 Q86.5243 784.797 84.2558 784.427 Q82.0105 784.057 79.6031 783.316 L79.6031 778.617 Q81.6864 779.751 83.9086 780.307 Q86.1308 780.862 88.6077 780.862 Q92.6123 780.862 94.9502 778.756 Q97.2882 776.649 97.2882 773.038 Q97.2882 769.427 94.9502 767.321 Q92.6123 765.214 88.6077 765.214 Q86.7327 765.214 84.8577 765.631 Q83.0058 766.047 81.0614 766.927 L81.0614 749.566 Z" fill="#000000" fill-rule="nonzero" fill-opacity="1"></path><path clip-path="url(#clip960)" d="M111.177 778.246 L116.061 778.246 L116.061 784.126 L111.177 784.126 L111.177 778.246 Z" fill="#000000" fill-rule="nonzero" fill-opacity="1"></path><path clip-path="url(#clip960)" d="M136.246 752.645 Q132.635 752.645 130.807 756.209 Q129.001 759.751 129.001 766.881 Q129.001 773.987 130.807 777.552 Q132.635 781.094 136.246 781.094 Q139.881 781.094 141.686 777.552 Q143.515 773.987 143.515 766.881 Q143.515 759.751 141.686 756.209 Q139.881 752.645 136.246 752.645 M136.246 748.941 Q142.056 748.941 145.112 753.547 Q148.191 758.131 148.191 766.881 Q148.191 775.608 145.112 780.214 Q142.056 784.797 136.246 784.797 Q130.436 784.797 127.357 780.214 Q124.302 775.608 124.302 766.881 Q124.302 758.131 127.357 753.547 Q130.436 748.941 136.246 748.941 Z" fill="#000000" fill-rule="nonzero" fill-opacity="1"></path><path clip-path="url(#clip960)" d="M80.8299 410.131 L103.052 410.131 L103.052 412.122 L90.5058 444.691 L85.6216 444.691 L97.4271 414.066 L80.8299 414.066 L80.8299 410.131 Z" fill="#000000" fill-rule="nonzero" fill-opacity="1"></path><path clip-path="url(#clip960)" d="M112.172 438.812 L117.057 438.812 L117.057 444.691 L112.172 444.691 L112.172 438.812 Z" fill="#000000" fill-rule="nonzero" fill-opacity="1"></path><path clip-path="url(#clip960)" d="M127.288 410.131 L145.644 410.131 L145.644 414.066 L131.57 414.066 L131.57 422.538 Q132.589 422.191 133.607 422.029 Q134.626 421.844 135.644 421.844 Q141.431 421.844 144.811 425.015 Q148.191 428.187 148.191 433.603 Q148.191 439.182 144.718 442.284 Q141.246 445.362 134.927 445.362 Q132.751 445.362 130.482 444.992 Q128.237 444.622 125.83 443.881 L125.83 439.182 Q127.913 440.316 130.135 440.872 Q132.357 441.427 134.834 441.427 Q138.839 441.427 141.177 439.321 Q143.515 437.214 143.515 433.603 Q143.515 429.992 141.177 427.886 Q138.839 425.779 134.834 425.779 Q132.959 425.779 131.084 426.196 Q129.232 426.613 127.288 427.492 L127.288 410.131 Z" fill="#000000" fill-rule="nonzero" fill-opacity="1"></path><path clip-path="url(#clip960)" d="M51.6634 101.321 L59.3023 101.321 L59.3023 74.9555 L50.9921 76.6222 L50.9921 72.3629 L59.256 70.6963 L63.9319 70.6963 L63.9319 101.321 L71.5707 101.321 L71.5707 105.256 L51.6634 105.256 L51.6634 101.321 Z" fill="#000000" fill-rule="nonzero" fill-opacity="1"></path><path clip-path="url(#clip960)" d="M91.0151 73.775 Q87.404 73.775 85.5753 77.3398 Q83.7697 80.8814 83.7697 88.011 Q83.7697 95.1174 85.5753 98.6822 Q87.404 102.224 91.0151 102.224 Q94.6493 102.224 96.4548 98.6822 Q98.2835 95.1174 98.2835 88.011 Q98.2835 80.8814 96.4548 77.3398 Q94.6493 73.775 91.0151 73.775 M91.0151 70.0713 Q96.8252 70.0713 99.8808 74.6777 Q102.959 79.261 102.959 88.011 Q102.959 96.7378 99.8808 101.344 Q96.8252 105.928 91.0151 105.928 Q85.2049 105.928 82.1262 101.344 Q79.0707 96.7378 79.0707 88.011 Q79.0707 79.261 82.1262 74.6777 Q85.2049 70.0713 91.0151 70.0713 Z" fill="#000000" fill-rule="nonzero" fill-opacity="1"></path><path clip-path="url(#clip960)" d="M111.177 99.3767 L116.061 99.3767 L116.061 105.256 L111.177 105.256 L111.177 99.3767 Z" fill="#000000" fill-rule="nonzero" fill-opacity="1"></path><path clip-path="url(#clip960)" d="M136.246 73.775 Q132.635 73.775 130.807 77.3398 Q129.001 80.8814 129.001 88.011 Q129.001 95.1174 130.807 98.6822 Q132.635 102.224 136.246 102.224 Q139.881 102.224 141.686 98.6822 Q143.515 95.1174 143.515 88.011 Q143.515 80.8814 141.686 77.3398 Q139.881 73.775 136.246 73.775 M136.246 70.0713 Q142.056 70.0713 145.112 74.6777 Q148.191 79.261 148.191 88.011 Q148.191 96.7378 145.112 101.344 Q142.056 105.928 136.246 105.928 Q130.436 105.928 127.357 101.344 Q124.302 96.7378 124.302 88.011 Q124.302 79.261 127.357 74.6777 Q130.436 70.0713 136.246 70.0713 Z" fill="#000000" fill-rule="nonzero" fill-opacity="1"></path><polyline clip-path="url(#clip962)" style="stroke:#009af9; stroke-linecap:round; stroke-linejoin:round; stroke-width:4; stroke-opacity:1; fill:none" points="245.565,1445.72 255.794,1445.72 266.023,1445.72 276.252,1445.72 286.481,1445.72 296.711,1445.72 306.94,1445.72 317.169,1445.72 327.398,1445.72 337.627,1445.72 347.856,1445.72 358.085,1445.72 368.314,1445.72 378.543,1445.72 388.772,1445.72 399.001,1445.72 409.23,1445.72 419.46,1445.72 429.689,1445.72 439.918,1445.72 450.147,1445.72 460.376,1445.72 470.605,1445.72 480.834,1445.72 491.063,1445.72 501.292,1445.72 511.521,1445.72 521.75,1445.72 531.979,1445.72 542.209,1445.72 552.438,1445.72 562.667,1445.72 572.896,1445.72 583.125,1445.72 593.354,1445.72 603.583,1445.72 613.812,1445.72 624.041,1445.72 634.27,1445.72 644.499,1445.72 654.728,1445.72 664.957,1445.72 675.187,1445.72 685.416,1445.72 695.645,1445.72 705.874,1445.72 716.103,1445.72 726.332,1445.72 736.561,1445.72 746.79,1445.72 757.019,1445.72 767.248,1445.72 777.477,1445.72 787.706,1445.72 797.936,1445.72 808.165,1445.72 818.394,1445.72 828.623,1445.72 838.852,1445.72 849.081,1445.72 859.31,1445.72 869.539,1445.72 879.768,1445.72 889.997,1445.72 900.226,1445.72 910.455,1445.72 920.685,1445.72 930.914,1445.72 941.143,1445.72 951.372,1445.72 961.601,1445.72 971.83,1445.72 982.059,1445.72 992.288,1445.72 1002.52,1445.72 1012.75,1445.72 1022.98,1445.72 1033.2,1445.72 1043.43,1445.72 1053.66,1445.72 1063.89,1445.72 1074.12,1445.72 1084.35,1445.72 1094.58,1445.72 1104.81,1445.72 1115.04,1445.72 1125.27,1445.72 1135.5,1445.72 1145.72,1445.72 1155.95,1445.72 1166.18,1445.72 1176.41,1445.72 1186.64,1445.72 1196.87,1445.72 1207.1,1445.72 1217.33,1445.72 1227.56,1445.72 1237.79,1445.72 1248.02,1445.72 1258.24,1445.72 1268.47,1445.72 1278.7,1432.14 1288.93,1418.56 1299.16,1404.98 1309.39,1391.41 1319.62,1377.83 1329.85,1364.25 1340.08,1350.67 1350.31,1337.1 1360.54,1323.52 1370.76,1309.94 1380.99,1296.36 1391.22,1282.79 1401.45,1269.21 1411.68,1255.63 1421.91,1242.05 1432.14,1228.48 1442.37,1214.9 1452.6,1201.32 1462.83,1187.75 1473.05,1174.17 1483.28,1160.59 1493.51,1147.01 1503.74,1133.44 1513.97,1119.86 1524.2,1106.28 1534.43,1092.7 1544.66,1079.13 1554.89,1065.55 1565.12,1051.97 1575.35,1038.39 1585.57,1024.82 1595.8,1011.24 1606.03,997.662 1616.26,984.084 1626.49,970.507 1636.72,956.93 1646.95,943.352 1657.18,929.775 1667.41,916.197 1677.64,902.62 1687.87,889.043 1698.09,875.465 1708.32,861.888 1718.55,848.31 1728.78,834.733 1739.01,821.156 1749.24,807.578 1759.47,794.001 1769.7,780.423 1779.93,766.846 1790.16,753.269 1800.39,739.691 1810.61,726.114 1820.84,712.536 1831.07,698.959 1841.3,685.382 1851.53,671.804 1861.76,658.227 1871.99,644.649 1882.22,631.072 1892.45,617.495 1902.68,603.917 1912.91,590.34 1923.13,576.762 1933.36,563.185 1943.59,549.608 1953.82,536.03 1964.05,522.453 1974.28,508.875 1984.51,495.298 1994.74,481.721 2004.97,468.143 2015.2,454.566 2025.43,440.989 2035.65,427.411 2045.88,413.834 2056.11,400.256 2066.34,386.679 2076.57,373.102 2086.8,359.524 2097.03,345.947 2107.26,332.369 2117.49,318.792 2127.72,305.215 2137.95,291.637 2148.17,278.06 2158.4,264.482 2168.63,250.905 2178.86,237.328 2189.09,223.75 2199.32,210.173 2209.55,196.595 2219.78,183.018 2230.01,169.441 2240.24,155.863 2250.47,142.286 2260.69,128.708 2270.92,115.131 2281.15,101.554 2291.38,87.9763 "></polyline>
<path clip-path="url(#clip960)" d="M256.476 198.898 L498.564 198.898 L498.564 95.2176 L256.476 95.2176  Z" fill="#ffffff" fill-rule="evenodd" fill-opacity="1"></path>
<polyline clip-path="url(#clip960)" style="stroke:#000000; stroke-linecap:round; stroke-linejoin:round; stroke-width:4; stroke-opacity:1; fill:none" points="256.476,198.898 498.564,198.898 498.564,95.2176 256.476,95.2176 256.476,198.898 "></polyline>
<polyline clip-path="url(#clip960)" style="stroke:#009af9; stroke-linecap:round; stroke-linejoin:round; stroke-width:4; stroke-opacity:1; fill:none" points="280.571,147.058 425.142,147.058 "></polyline>
<path clip-path="url(#clip960)" d="M449.238 138.412 L453.751 138.412 L461.853 160.171 L469.955 138.412 L474.469 138.412 L464.747 164.338 L458.96 164.338 L449.238 138.412 Z" fill="#000000" fill-rule="nonzero" fill-opacity="1"></path></svg>