<svg xmlns="http://www.w3.org/2000/svg" xmlns:xlink="http://www.w3.org/1999/xlink" width="600" height="400" viewBox="0 0 2400 1600">
<defs>
  <clipPath id="clip040">
    <rect x="0" y="0" width="2400" height="1600"></rect>
  </clipPath>
</defs>
<path clip-path="url(#clip040)" d="M0 1600 L2400 1600 L2400 8.88178e-14 L0 8.88178e-14  Z" fill="#ffffff" fill-rule="evenodd" fill-opacity="1"></path>
<defs>
  <clipPath id="clip041">
    <rect x="480" y="0" width="1681" height="1600"></rect>
  </clipPath>
</defs>
<path clip-path="url(#clip040)" d="M184.191 1486.45 L2352.76 1486.45 L2352.76 47.2441 L184.191 47.2441  Z" fill="#ffffff" fill-rule="evenodd" fill-opacity="1"></path>
<defs>
  <clipPath id="clip042">
    <rect x="184" y="47" width="2170" height="1440"></rect>
  </clipPath>
</defs>
<polyline clip-path="url(#clip042)" style="stroke:#000000; stroke-linecap:round; stroke-linejoin:round; stroke-width:2; stroke-opacity:0.1; fill:none" points="245.565,1486.45 245.565,47.2441 "></polyline>
<polyline clip-path="url(#clip042)" style="stroke:#000000; stroke-linecap:round; stroke-linejoin:round; stroke-width:2; stroke-opacity:0.1; fill:none" points="757.019,1486.45 757.019,47.2441 "></polyline>
<polyline clip-path="url(#clip042)" style="stroke:#000000; stroke-linecap:round; stroke-linejoin:round; stroke-width:2; stroke-opacity:0.1; fill:none" points="1268.47,1486.45 1268.47,47.2441 "></polyline>
<polyline clip-path="url(#clip042)" style="stroke:#000000; stroke-linecap:round; stroke-linejoin:round; stroke-width:2; stroke-opacity:0.1; fill:none" points="1779.93,1486.45 1779.93,47.2441 "></polyline>
<polyline clip-path="url(#clip042)" style="stroke:#000000; stroke-linecap:round; stroke-linejoin:round; stroke-width:2; stroke-opacity:0.1; fill:none" points="2291.38,1486.45 2291.38,47.2441 "></polyline>
<polyline clip-path="url(#clip042)" style="stroke:#000000; stroke-linecap:round; stroke-linejoin:round; stroke-width:2; stroke-opacity:0.1; fill:none" points="184.191,1445.72 2352.76,1445.72 "></polyline>
<polyline clip-path="url(#clip042)" style="stroke:#000000; stroke-linecap:round; stroke-linejoin:round; stroke-width:2; stroke-opacity:0.1; fill:none" points="184.191,1106.28 2352.76,1106.28 "></polyline>
<polyline clip-path="url(#clip042)" style="stroke:#000000; stroke-linecap:round; stroke-linejoin:round; stroke-width:2; stroke-opacity:0.1; fill:none" points="184.191,766.846 2352.76,766.846 "></polyline>
<polyline clip-path="url(#clip042)" style="stroke:#000000; stroke-linecap:round; stroke-linejoin:round; stroke-width:2; stroke-opacity:0.1; fill:none" points="184.191,427.411 2352.76,427.411 "></polyline>
<polyline clip-path="url(#clip042)" style="stroke:#000000; stroke-linecap:round; stroke-linejoin:round; stroke-width:2; stroke-opacity:0.1; fill:none" points="184.191,87.9763 2352.76,87.9763 "></polyline>
<polyline clip-path="url(#clip040)" style="stroke:#000000; stroke-linecap:round; stroke-linejoin:round; stroke-width:4; stroke-opacity:1; fill:none" points="184.191,1486.45 2352.76,1486.45 "></polyline>
<polyline clip-path="url(#clip040)" style="stroke:#000000; stroke-linecap:round; stroke-linejoin:round; stroke-width:4; stroke-opacity:1; fill:none" points="245.565,1486.45 245.565,1467.55 "></polyline>
<polyline clip-path="url(#clip040)" style="stroke:#000000; stroke-linecap:round; stroke-linejoin:round; stroke-width:4; stroke-opacity:1; fill:none" points="757.019,1486.45 757.019,1467.55 "></polyline>
<polyline clip-path="url(#clip040)" style="stroke:#000000; stroke-linecap:round; stroke-linejoin:round; stroke-width:4; stroke-opacity:1; fill:none" points="1268.47,1486.45 1268.47,1467.55 "></polyline>
<polyline clip-path="url(#clip040)" style="stroke:#000000; stroke-linecap:round; stroke-linejoin:round; stroke-width:4; stroke-opacity:1; fill:none" points="1779.93,1486.45 1779.93,1467.55 "></polyline>
<polyline clip-path="url(#clip040)" style="stroke:#000000; stroke-linecap:round; stroke-linejoin:round; stroke-width:4; stroke-opacity:1; fill:none" points="2291.38,1486.45 2291.38,1467.55 "></polyline>
<path clip-path="url(#clip040)" d="M199.628 1532.02 L229.304 1532.02 L229.304 1535.95 L199.628 1535.95 L199.628 1532.02 Z" fill="#000000" fill-rule="nonzero" fill-opacity="1"></path><path clip-path="url(#clip040)" d="M240.206 1544.91 L247.845 1544.91 L247.845 1518.55 L239.535 1520.21 L239.535 1515.95 L247.799 1514.29 L252.475 1514.29 L252.475 1544.91 L260.114 1544.91 L260.114 1548.85 L240.206 1548.85 L240.206 1544.91 Z" fill="#000000" fill-rule="nonzero" fill-opacity="1"></path><path clip-path="url(#clip040)" d="M279.558 1517.37 Q275.947 1517.37 274.118 1520.93 Q272.313 1524.47 272.313 1531.6 Q272.313 1538.71 274.118 1542.27 Q275.947 1545.82 279.558 1545.82 Q283.192 1545.82 284.998 1542.27 Q286.827 1538.71 286.827 1531.6 Q286.827 1524.47 284.998 1520.93 Q283.192 1517.37 279.558 1517.37 M279.558 1513.66 Q285.368 1513.66 288.424 1518.27 Q291.502 1522.85 291.502 1531.6 Q291.502 1540.33 288.424 1544.94 Q285.368 1549.52 279.558 1549.52 Q273.748 1549.52 270.669 1544.94 Q267.614 1540.33 267.614 1531.6 Q267.614 1522.85 270.669 1518.27 Q273.748 1513.66 279.558 1513.66 Z" fill="#000000" fill-rule="nonzero" fill-opacity="1"></path><path clip-path="url(#clip040)" d="M726.661 1532.02 L756.336 1532.02 L756.336 1535.95 L726.661 1535.95 L726.661 1532.02 Z" fill="#000000" fill-rule="nonzero" fill-opacity="1"></path><path clip-path="url(#clip040)" d="M766.475 1514.29 L784.832 1514.29 L784.832 1518.22 L770.758 1518.22 L770.758 1526.7 Q771.776 1526.35 772.795 1526.19 Q773.813 1526 774.832 1526 Q780.619 1526 783.998 1529.17 Q787.378 1532.34 787.378 1537.76 Q787.378 1543.34 783.906 1546.44 Q780.433 1549.52 774.114 1549.52 Q771.938 1549.52 769.67 1549.15 Q767.424 1548.78 765.017 1548.04 L765.017 1543.34 Q767.1 1544.47 769.322 1545.03 Q771.545 1545.58 774.021 1545.58 Q778.026 1545.58 780.364 1543.48 Q782.702 1541.37 782.702 1537.76 Q782.702 1534.15 780.364 1532.04 Q778.026 1529.94 774.021 1529.94 Q772.146 1529.94 770.271 1530.35 Q768.42 1530.77 766.475 1531.65 L766.475 1514.29 Z" fill="#000000" fill-rule="nonzero" fill-opacity="1"></path><path clip-path="url(#clip040)" d="M1268.47 1517.37 Q1264.86 1517.37 1263.03 1520.93 Q1261.23 1524.47 1261.23 1531.6 Q1261.23 1538.71 1263.03 1542.27 Q1264.86 1545.82 1268.47 1545.82 Q1272.11 1545.82 1273.91 1542.27 Q1275.74 1538.71 1275.74 1531.6 Q1275.74 1524.47 1273.91 1520.93 Q1272.11 1517.37 1268.47 1517.37 M1268.47 1513.66 Q1274.28 1513.66 1277.34 1518.27 Q1280.42 1522.85 1280.42 1531.6 Q1280.42 1540.33 1277.34 1544.94 Q1274.28 1549.52 1268.47 1549.52 Q1262.66 1549.52 1259.58 1544.94 Q1256.53 1540.33 1256.53 1531.6 Q1256.53 1522.85 1259.58 1518.27 Q1262.66 1513.66 1268.47 1513.66 Z" fill="#000000" fill-rule="nonzero" fill-opacity="1"></path><path clip-path="url(#clip040)" d="M1770.21 1514.29 L1788.56 1514.29 L1788.56 1518.22 L1774.49 1518.22 L1774.49 1526.7 Q1775.51 1526.35 1776.52 1526.19 Q1777.54 1526 1778.56 1526 Q1784.35 1526 1787.73 1529.17 Q1791.11 1532.34 1791.11 1537.76 Q1791.11 1543.34 1787.64 1546.44 Q1784.16 1549.52 1777.84 1549.52 Q1775.67 1549.52 1773.4 1549.15 Q1771.15 1548.78 1768.75 1548.04 L1768.75 1543.34 Q1770.83 1544.47 1773.05 1545.03 Q1775.27 1545.58 1777.75 1545.58 Q1781.76 1545.58 1784.09 1543.48 Q1786.43 1541.37 1786.43 1537.76 Q1786.43 1534.15 1784.09 1532.04 Q1781.76 1529.94 1777.75 1529.94 Q1775.88 1529.94 1774 1530.35 Q1772.15 1530.77 1770.21 1531.65 L1770.21 1514.29 Z" fill="#000000" fill-rule="nonzero" fill-opacity="1"></path><path clip-path="url(#clip040)" d="M2266.07 1544.91 L2273.71 1544.91 L2273.71 1518.55 L2265.4 1520.21 L2265.4 1515.95 L2273.66 1514.29 L2278.34 1514.29 L2278.34 1544.91 L2285.98 1544.91 L2285.98 1548.85 L2266.07 1548.85 L2266.07 1544.91 Z" fill="#000000" fill-rule="nonzero" fill-opacity="1"></path><path clip-path="url(#clip040)" d="M2305.42 1517.37 Q2301.81 1517.37 2299.98 1520.93 Q2298.18 1524.47 2298.18 1531.6 Q2298.18 1538.71 2299.98 1542.27 Q2301.81 1545.82 2305.42 1545.82 Q2309.05 1545.82 2310.86 1542.27 Q2312.69 1538.71 2312.69 1531.6 Q2312.69 1524.47 2310.86 1520.93 Q2309.05 1517.37 2305.42 1517.37 M2305.42 1513.66 Q2311.23 1513.66 2314.29 1518.27 Q2317.37 1522.85 2317.37 1531.6 Q2317.37 1540.33 2314.29 1544.94 Q2311.23 1549.52 2305.42 1549.52 Q2299.61 1549.52 2296.53 1544.94 Q2293.48 1540.33 2293.48 1531.6 Q2293.48 1522.85 2296.53 1518.27 Q2299.61 1513.66 2305.42 1513.66 Z" fill="#000000" fill-rule="nonzero" fill-opacity="1"></path><polyline clip-path="url(#clip040)" style="stroke:#000000; stroke-linecap:round; stroke-linejoin:round; stroke-width:4; stroke-opacity:1; fill:none" points="184.191,1486.45 184.191,47.2441 "></polyline>
<polyline clip-path="url(#clip040)" style="stroke:#000000; stroke-linecap:round; stroke-linejoin:round; stroke-width:4; stroke-opacity:1; fill:none" points="184.191,1445.72 203.088,1445.72 "></polyline>
<polyline clip-path="url(#clip040)" style="stroke:#000000; stroke-linecap:round; stroke-linejoin:round; stroke-width:4; stroke-opacity:1; fill:none" points="184.191,1106.28 203.088,1106.28 "></polyline>
<polyline clip-path="url(#clip040)" style="stroke:#000000; stroke-linecap:round; stroke-linejoin:round; stroke-width:4; stroke-opacity:1; fill:none" points="184.191,766.846 203.088,766.846 "></polyline>
<polyline clip-path="url(#clip040)" style="stroke:#000000; stroke-linecap:round; stroke-linejoin:round; stroke-width:4; stroke-opacity:1; fill:none" points="184.191,427.411 203.088,427.411 "></polyline>
<polyline clip-path="url(#clip040)" style="stroke:#000000; stroke-linecap:round; stroke-linejoin:round; stroke-width:4; stroke-opacity:1; fill:none" points="184.191,87.9763 203.088,87.9763 "></polyline>
<path clip-path="url(#clip040)" d="M91.0151 1431.51 Q87.404 1431.51 85.5753 1435.08 Q83.7697 1438.62 83.7697 1445.75 Q83.7697 1452.86 85.5753 1456.42 Q87.404 1459.96 91.0151 1459.96 Q94.6493 1459.96 96.4548 1456.42 Q98.2835 1452.86 98.2835 1445.75 Q98.2835 1438.62 96.4548 1435.08 Q94.6493 1431.51 91.0151 1431.51 M91.0151 1427.81 Q96.8252 1427.81 99.8808 1432.42 Q102.959 1437 102.959 1445.75 Q102.959 1454.48 99.8808 1459.08 Q96.8252 1463.67 91.0151 1463.67 Q85.2049 1463.67 82.1262 1459.08 Q79.0707 1454.48 79.0707 1445.75 Q79.0707 1437 82.1262 1432.42 Q85.2049 1427.81 91.0151 1427.81 Z" fill="#000000" fill-rule="nonzero" fill-opacity="1"></path><path clip-path="url(#clip040)" d="M111.177 1457.12 L116.061 1457.12 L116.061 1463 L111.177 1463 L111.177 1457.12 Z" fill="#000000" fill-rule="nonzero" fill-opacity="1"></path><path clip-path="url(#clip040)" d="M136.246 1431.51 Q132.635 1431.51 130.807 1435.08 Q129.001 1438.62 129.001 1445.75 Q129.001 1452.86 130.807 1456.42 Q132.635 1459.96 136.246 1459.96 Q139.881 1459.96 141.686 1456.42 Q143.515 1452.86 143.515 1445.75 Q143.515 1438.62 141.686 1435.08 Q139.881 1431.51 136.246 1431.51 M136.246 1427.81 Q142.056 1427.81 145.112 1432.42 Q148.191 1437 148.191 1445.75 Q148.191 1454.48 145.112 1459.08 Q142.056 1463.67 136.246 1463.67 Q130.436 1463.67 127.357 1459.08 Q124.302 1454.48 124.302 1445.75 Q124.302 1437 127.357 1432.42 Q130.436 1427.81 136.246 1427.81 Z" fill="#000000" fill-rule="nonzero" fill-opacity="1"></path><path clip-path="url(#clip040)" d="M86.0382 1119.63 L102.358 1119.63 L102.358 1123.56 L80.4133 1123.56 L80.4133 1119.63 Q83.0753 1116.87 87.6586 1112.24 Q92.2651 1107.59 93.4456 1106.25 Q95.691 1103.72 96.5706 1101.99 Q97.4734 1100.23 97.4734 1098.54 Q97.4734 1095.78 95.5289 1094.05 Q93.6076 1092.31 90.5058 1092.31 Q88.3067 1092.31 85.8531 1093.07 Q83.4225 1093.84 80.6447 1095.39 L80.6447 1090.67 Q83.4688 1089.53 85.9225 1088.95 Q88.3762 1088.38 90.4132 1088.38 Q95.7836 1088.38 98.978 1091.06 Q102.172 1093.75 102.172 1098.24 Q102.172 1100.37 101.362 1102.29 Q100.575 1104.19 98.4687 1106.78 Q97.89 1107.45 94.7882 1110.67 Q91.6864 1113.86 86.0382 1119.63 Z" fill="#000000" fill-rule="nonzero" fill-opacity="1"></path><path clip-path="url(#clip040)" d="M112.172 1117.68 L117.057 1117.68 L117.057 1123.56 L112.172 1123.56 L112.172 1117.68 Z" fill="#000000" fill-rule="nonzero" fill-opacity="1"></path><path clip-path="url(#clip040)" d="M127.288 1089 L145.644 1089 L145.644 1092.94 L131.57 1092.94 L131.57 1101.41 Q132.589 1101.06 133.607 1100.9 Q134.626 1100.71 135.644 1100.71 Q141.431 1100.71 144.811 1103.89 Q148.191 1107.06 148.191 1112.47 Q148.191 1118.05 144.718 1121.15 Q141.246 1124.23 134.927 1124.23 Q132.751 1124.23 130.482 1123.86 Q128.237 1123.49 125.83 1122.75 L125.83 1118.05 Q127.913 1119.19 130.135 1119.74 Q132.357 1120.3 134.834 1120.3 Q138.839 1120.3 141.177 1118.19 Q143.515 1116.08 143.515 1112.47 Q143.515 1108.86 141.177 1106.76 Q138.839 1104.65 134.834 1104.65 Q132.959 1104.65 131.084 1105.07 Q129.232 1105.48 127.288 1106.36 L127.288 1089 Z" fill="#000000" fill-rule="nonzero" fill-opacity="1"></path><path clip-path="url(#clip040)" d="M81.0614 749.566 L99.4178 749.566 L99.4178 753.501 L85.3438 753.501 L85.3438 761.973 Q86.3623 761.626 87.3808 761.464 Q88.3993 761.279 89.4178 761.279 Q95.2049 761.279 98.5845 764.45 Q101.964 767.621 101.964 773.038 Q101.964 778.617 98.4919 781.719 Q95.0197 784.797 88.7003 784.797 Q86.5243 784.797 84.2558 784.427 Q82.0105 784.057 79.6031 783.316 L79.6031 778.617 Q81.6864 779.751 83.9086 780.307 Q86.1308 780.862 88.6077 780.862 Q92.6123 780.862 94.9502 778.756 Q97.2882 776.649 97.2882 773.038 Q97.2882 769.427 94.9502 767.321 Q92.6123 765.214 88.6077 765.214 Q86.7327 765.214 84.8577 765.631 Q83.0058 766.047 81.0614 766.927 L81.0614 749.566 Z" fill="#000000" fill-rule="nonzero" fill-opacity="1"></path><path clip-path="url(#clip040)" d="M111.177 778.246 L116.061 778.246 L116.061 784.126 L111.177 784.126 L111.177 778.246 Z" fill="#000000" fill-rule="nonzero" fill-opacity="1"></path><path clip-path="url(#clip040)" d="M136.246 752.645 Q132.635 752.645 130.807 756.209 Q129.001 759.751 129.001 766.881 Q129.001 773.987 130.807 777.552 Q132.635 781.094 136.246 781.094 Q139.881 781.094 141.686 777.552 Q143.515 773.987 143.515 766.881 Q143.515 759.751 141.686 756.209 Q139.881 752.645 136.246 752.645 M136.246 748.941 Q142.056 748.941 145.112 753.547 Q148.191 758.131 148.191 766.881 Q148.191 775.608 145.112 780.214 Q142.056 784.797 136.246 784.797 Q130.436 784.797 127.357 780.214 Q124.302 775.608 124.302 766.881 Q124.302 758.131 127.357 753.547 Q130.436 748.941 136.246 748.941 Z" fill="#000000" fill-rule="nonzero" fill-opacity="1"></path><path clip-path="url(#clip040)" d="M80.8299 410.131 L103.052 410.131 L103.052 412.122 L90.5058 444.691 L85.6216 444.691 L97.4271 414.066 L80.8299 414.066 L80.8299 410.131 Z" fill="#000000" fill-rule="nonzero" fill-opacity="1"></path><path clip-path="url(#clip040)" d="M112.172 438.812 L117.057 438.812 L117.057 444.691 L112.172 444.691 L112.172 438.812 Z" fill="#000000" fill-rule="nonzero" fill-opacity="1"></path><path clip-path="url(#clip040)" d="M127.288 410.131 L145.644 410.131 L145.644 414.066 L131.57 414.066 L131.57 422.538 Q132.589 422.191 133.607 422.029 Q134.626 421.844 135.644 421.844 Q141.431 421.844 144.811 425.015 Q148.191 428.187 148.191 433.603 Q148.191 439.182 144.718 442.284 Q141.246 445.362 134.927 445.362 Q132.751 445.362 130.482 444.992 Q128.237 444.622 125.83 443.881 L125.83 439.182 Q127.913 440.316 130.135 440.872 Q132.357 441.427 134.834 441.427 Q138.839 441.427 141.177 439.321 Q143.515 437.214 143.515 433.603 Q143.515 429.992 141.177 427.886 Q138.839 425.779 134.834 425.779 Q132.959 425.779 131.084 426.196 Q129.232 426.613 127.288 427.492 L127.288 410.131 Z" fill="#000000" fill-rule="nonzero" fill-opacity="1"></path><path clip-path="url(#clip040)" d="M51.6634 101.321 L59.3023 101.321 L59.3023 74.9555 L50.9921 76.6222 L50.9921 72.3629 L59.256 70.6963 L63.9319 70.6963 L63.9319 101.321 L71.5707 101.321 L71.5707 105.256 L51.6634 105.256 L51.6634 101.321 Z" fill="#000000" fill-rule="nonzero" fill-opacity="1"></path><path clip-path="url(#clip040)" d="M91.0151 73.775 Q87.404 73.775 85.5753 77.3398 Q83.7697 80.8814 83.7697 88.011 Q83.7697 95.1174 85.5753 98.6822 Q87.404 102.224 91.0151 102.224 Q94.6493 102.224 96.4548 98.6822 Q98.2835 95.1174 98.2835 88.011 Q98.2835 80.8814 96.4548 77.3398 Q94.6493 73.775 91.0151 73.775 M91.0151 70.0713 Q96.8252 70.0713 99.8808 74.6777 Q102.959 79.261 102.959 88.011 Q102.959 96.7378 99.8808 101.344 Q96.8252 105.928 91.0151 105.928 Q85.2049 105.928 82.1262 101.344 Q79.0707 96.7378 79.0707 88.011 Q79.0707 79.261 82.1262 74.6777 Q85.2049 70.0713 91.0151 70.0713 Z" fill="#000000" fill-rule="nonzero" fill-opacity="1"></path><path clip-path="url(#clip040)" d="M111.177 99.3767 L116.061 99.3767 L116.061 105.256 L111.177 105.256 L111.177 99.3767 Z" fill="#000000" fill-rule="nonzero" fill-opacity="1"></path><path clip-path="url(#clip040)" d="M136.246 73.775 Q132.635 73.775 130.807 77.3398 Q129.001 80.8814 129.001 88.011 Q129.001 95.1174 130.807 98.6822 Q132.635 102.224 136.246 102.224 Q139.881 102.224 141.686 98.6822 Q143.515 95.1174 143.515 88.011 Q143.515 80.8814 141.686 77.3398 Q139.881 73.775 136.246 73.775 M136.246 70.0713 Q142.056 70.0713 145.112 74.6777 Q148.191 79.261 148.191 88.011 Q148.191 96.7378 145.112 101.344 Q142.056 105.928 136.246 105.928 Q130.436 105.928 127.357 101.344 Q124.302 96.7378 124.302 88.011 Q124.302 79.261 127.357 74.6777 Q130.436 70.0713 136.246 70.0713 Z" fill="#000000" fill-rule="nonzero" fill-opacity="1"></path><polyline clip-path="url(#clip042)" style="stroke:#009af9; stroke-linecap:round; stroke-linejoin:round; stroke-width:4; stroke-opacity:1; fill:none" points="245.565,1445.72 255.794,1445.72 266.023,1445.72 276.252,1445.72 286.481,1445.72 296.711,1445.72 306.94,1445.72 317.169,1445.72 327.398,1445.72 337.627,1445.72 347.856,1445.72 358.085,1445.72 368.314,1445.72 378.543,1445.72 388.772,1445.72 399.001,1445.72 409.23,1445.72 419.46,1445.72 429.689,1445.72 439.918,1445.72 450.147,1445.72 460.376,1445.72 470.605,1445.72 480.834,1445.72 491.063,1445.72 501.292,1445.72 511.521,1445.72 521.75,1445.72 531.979,1445.72 542.209,1445.72 552.438,1445.72 562.667,1445.72 572.896,1445.72 583.125,1445.72 593.354,1445.72 603.583,1445.72 613.812,1445.72 624.041,1445.72 634.27,1445.72 644.499,1445.72 654.728,1445.72 664.957,1445.72 675.187,1445.72 685.416,1445.72 695.645,1445.72 705.874,1445.72 716.103,1445.72 726.332,1445.72 736.561,1445.72 746.79,1445.72 757.019,1445.72 767.248,1445.72 777.477,1445.72 787.706,1445.72 797.936,1445.72 808.165,1445.72 818.394,1445.72 828.623,1445.72 838.852,1445.72 849.081,1445.72 859.31,1445.72 869.539,1445.72 879.768,1445.72 889.997,1445.72 900.226,1445.72 910.455,1445.72 920.685,1445.72 930.914,1445.72 941.143,1445.72 951.372,1445.72 961.601,1445.72 971.83,1445.72 982.059,1445.72 992.288,1445.72 1002.52,1445.72 1012.75,1445.72 1022.98,1445.72 1033.2,1445.72 1043.43,1445.72 1053.66,1445.72 1063.89,1445.72 1074.12,1445.72 1084.35,1445.72 1094.58,1445.72 1104.81,1445.72 1115.04,1445.72 1125.27,1445.72 1135.5,1445.72 1145.72,1445.72 1155.95,1445.72 1166.18,1445.72 1176.41,1445.72 1186.64,1445.72 1196.87,1445.72 1207.1,1445.72 1217.33,1445.72 1227.56,1445.72 1237.79,1445.72 1248.02,1445.72 1258.24,1445.72 1268.47,1445.72 1278.7,1432.14 1288.93,1418.56 1299.16,1404.98 1309.39,1391.41 1319.62,1377.83 1329.85,1364.25 1340.08,1350.67 1350.31,1337.1 1360.54,1323.52 1370.76,1309.94 1380.99,1296.36 1391.22,1282.79 1401.45,1269.21 1411.68,1255.63 1421.91,1242.05 1432.14,1228.48 1442.37,1214.9 1452.6,1201.32 1462.83,1187.75 1473.05,1174.17 1483.28,1160.59 1493.51,1147.01 1503.74,1133.44 1513.97,1119.86 1524.2,1106.28 1534.43,1092.7 1544.66,1079.13 1554.89,1065.55 1565.12,1051.97 1575.35,1038.39 1585.57,1024.82 1595.8,1011.24 1606.03,997.662 1616.26,984.084 1626.49,970.507 1636.72,956.93 1646.95,943.352 1657.18,929.775 1667.41,916.197 1677.64,902.62 1687.87,889.043 1698.09,875.465 1708.32,861.888 1718.55,848.31 1728.78,834.733 1739.01,821.156 1749.24,807.578 1759.47,794.001 1769.7,780.423 1779.93,766.846 1790.16,753.269 1800.39,739.691 1810.61,726.114 1820.84,712.536 1831.07,698.959 1841.3,685.382 1851.53,671.804 1861.76,658.227 1871.99,644.649 1882.22,631.072 1892.45,617.495 1902.68,603.917 1912.91,590.34 1923.13,576.762 1933.36,563.185 1943.59,549.608 1953.82,536.03 1964.05,522.453 1974.28,508.875 1984.51,495.298 1994.74,481.721 2004.97,468.143 2015.2,454.566 2025.43,440.989 2035.65,427.411 2045.88,413.834 2056.11,400.256 2066.34,386.679 2076.57,373.102 2086.8,359.524 2097.03,345.947 2107.26,332.369 2117.49,318.792 2127.72,305.215 2137.95,291.637 2148.17,278.06 2158.4,264.482 2168.63,250.905 2178.86,237.328 2189.09,223.75 2199.32,210.173 2209.55,196.595 2219.78,183.018 2230.01,169.441 2240.24,155.863 2250.47,142.286 2260.69,128.708 2270.92,115.131 2281.15,101.554 2291.38,87.9763 "></polyline>
<polyline clip-path="url(#clip042)" style="stroke:#e26f46; stroke-linecap:round; stroke-linejoin:round; stroke-width:4; stroke-opacity:1; fill:none" points="245.565,87.9763 255.794,101.554 266.023,115.131 276.252,128.708 286.481,142.286 296.711,155.863 306.94,169.441 317.169,183.018 327.398,196.595 337.627,210.173 347.856,223.75 358.085,237.328 368.314,250.905 378.543,264.482 388.772,278.06 399.001,291.637 409.23,305.215 419.46,318.792 429.689,332.369 439.918,345.947 450.147,359.524 460.376,373.102 470.605,386.679 480.834,400.256 491.063,413.834 501.292,427.411 511.521,440.989 521.75,454.566 531.979,468.143 542.209,481.721 552.438,495.298 562.667,508.875 572.896,522.453 583.125,536.03 593.354,549.608 603.583,563.185 613.812,576.762 624.041,590.34 634.27,603.917 644.499,617.495 654.728,631.072 664.957,644.649 675.187,658.227 685.416,671.804 695.645,685.382 705.874,698.959 716.103,712.536 726.332,726.114 736.561,739.691 746.79,753.269 757.019,766.846 767.248,780.423 777.477,794.001 787.706,807.578 797.936,821.156 808.165,834.733 818.394,848.31 828.623,861.888 838.852,875.465 849.081,889.043 859.31,902.62 869.539,916.197 879.768,929.775 889.997,943.352 900.226,956.93 910.455,970.507 920.685,984.084 930.914,997.662 941.143,1011.24 951.372,1024.82 961.601,1038.39 971.83,1051.97 982.059,1065.55 992.288,1079.13 1002.52,1092.7 1012.75,1106.28 1022.98,1119.86 1033.2,1133.44 1043.43,1147.01 1053.66,1160.59 1063.89,1174.17 1074.12,1187.75 1084.35,1201.32 1094.58,1214.9 1104.81,1228.48 1115.04,1242.05 1125.27,1255.63 1135.5,1269.21 1145.72,1282.79 1155.95,1296.36 1166.18,1309.94 1176.41,1323.52 1186.64,1337.1 1196.87,1350.67 1207.1,1364.25 1217.33,1377.83 1227.56,1391.41 1237.79,1404.98 1248.02,1418.56 1258.24,1432.14 1268.47,1445.72 1278.7,1445.72 1288.93,1445.72 1299.16,1445.72 1309.39,1445.72 1319.62,1445.72 1329.85,1445.72 1340.08,1445.72 1350.31,1445.72 1360.54,1445.72 1370.76,1445.72 1380.99,1445.72 1391.22,1445.72 1401.45,1445.72 1411.68,1445.72 1421.91,1445.72 1432.14,1445.72 1442.37,1445.72 1452.6,1445.72 1462.83,1445.72 1473.05,1445.72 1483.28,1445.72 1493.51,1445.72 1503.74,1445.72 1513.97,1445.72 1524.2,1445.72 1534.43,1445.72 1544.66,1445.72 1554.89,1445.72 1565.12,1445.72 1575.35,1445.72 1585.57,1445.72 1595.8,1445.72 1606.03,1445.72 1616.26,1445.72 1626.49,1445.72 1636.72,1445.72 1646.95,1445.72 1657.18,1445.72 1667.41,1445.72 1677.64,1445.72 1687.87,1445.72 1698.09,1445.72 1708.32,1445.72 1718.55,1445.72 1728.78,1445.72 1739.01,1445.72 1749.24,1445.72 1759.47,1445.72 1769.7,1445.72 1779.93,1445.72 1790.16,1445.72 1800.39,1445.72 1810.61,1445.72 1820.84,1445.72 1831.07,1445.72 1841.3,1445.72 1851.53,1445.72 1861.76,1445.72 1871.99,1445.72 1882.22,1445.72 1892.45,1445.72 1902.68,1445.72 1912.91,1445.72 1923.13,1445.72 1933.36,1445.72 1943.59,1445.72 1953.82,1445.72 1964.05,1445.72 1974.28,1445.72 1984.51,1445.72 1994.74,1445.72 2004.97,1445.72 2015.2,1445.72 2025.43,1445.72 2035.65,1445.72 2045.88,1445.72 2056.11,1445.72 2066.34,1445.72 2076.57,1445.72 2086.8,1445.72 2097.03,1445.72 2107.26,1445.72 2117.49,1445.72 2127.72,1445.72 2137.95,1445.72 2148.17,1445.72 2158.4,1445.72 2168.63,1445.72 2178.86,1445.72 2189.09,1445.72 2199.32,1445.72 2209.55,1445.72 2219.78,1445.72 2230.01,1445.72 2240.24,1445.72 2250.47,1445.72 2260.69,1445.72 2270.92,1445.72 2281.15,1445.72 2291.38,1445.72 "></polyline>
<path clip-path="url(#clip040)" d="M2038.38 250.738 L2280.47 250.738 L2280.47 95.2176 L2038.38 95.2176  Z" fill="#ffffff" fill-rule="evenodd" fill-opacity="1"></path>
<polyline clip-path="url(#clip040)" style="stroke:#000000; stroke-linecap:round; stroke-linejoin:round; stroke-width:4; stroke-opacity:1; fill:none" points="2038.38,250.738 2280.47,250.738 2280.47,95.2176 2038.38,95.2176 2038.38,250.738 "></polyline>
<polyline clip-path="url(#clip040)" style="stroke:#009af9; stroke-linecap:round; stroke-linejoin:round; stroke-width:4; stroke-opacity:1; fill:none" points="2062.48,147.058 2207.05,147.058 "></polyline>
<path clip-path="url(#clip040)" d="M2231.14 138.412 L2235.66 138.412 L2243.76 160.171 L2251.86 138.412 L2256.38 138.412 L2246.65 164.338 L2240.87 164.338 L2231.14 138.412 Z" fill="#000000" fill-rule="nonzero" fill-opacity="1"></path><polyline clip-path="url(#clip040)" style="stroke:#e26f46; stroke-linecap:round; stroke-linejoin:round; stroke-width:4; stroke-opacity:1; fill:none" points="2062.48,198.898 2207.05,198.898 "></polyline>
<path clip-path="url(#clip040)" d="M2231.14 190.252 L2235.4 190.252 L2235.4 216.178 L2231.14 216.178 L2231.14 190.252 M2231.14 180.159 L2235.4 180.159 L2235.4 185.553 L2231.14 185.553 L2231.14 180.159 Z" fill="#000000" fill-rule="nonzero" fill-opacity="1"></path></svg>