<?xml version="1.0" encoding="UTF-8" standalone="no"?>
<!-- Generator: Adobe Illustrator 28.2.0, SVG Export Plug-In . SVG Version: 6.00 Build 0)  -->

<svg
   version="1.1"
   id="Layer_1"
   x="0px"
   y="0px"
   viewBox="0 0 90.000001 90"
   xml:space="preserve"
   sodipodi:docname="dyad-logo.notext.light.svg"
   width="90"
   height="90"
   inkscape:version="1.3.2 (091e20ef0f, 2023-11-25, custom)"
   inkscape:export-filename="dyad-logo.notext.light.png"
   inkscape:export-xdpi="300"
   inkscape:export-ydpi="300"
   xmlns:inkscape="http://www.inkscape.org/namespaces/inkscape"
   xmlns:sodipodi="http://sodipodi.sourceforge.net/DTD/sodipodi-0.dtd"
   xmlns="http://www.w3.org/2000/svg"
   xmlns:svg="http://www.w3.org/2000/svg"><defs
   id="defs14" /><sodipodi:namedview
   id="namedview14"
   pagecolor="#ffffff"
   bordercolor="#666666"
   borderopacity="1.0"
   inkscape:showpageshadow="2"
   inkscape:pageopacity="0.0"
   inkscape:pagecheckerboard="0"
   inkscape:deskcolor="#d1d1d1"
   inkscape:zoom="5.297644"
   inkscape:cx="-40.112171"
   inkscape:cy="15.006671"
   inkscape:window-width="2560"
   inkscape:window-height="1362"
   inkscape:window-x="0"
   inkscape:window-y="0"
   inkscape:window-maximized="1"
   inkscape:current-layer="g14" />
<style
   type="text/css"
   id="style1">
	circle{fill:hsl(240 5.9% 10%);}
	path{fill:hsl(240 5.9% 10%);}
	rect{fill:hsl(240 5.9% 10%);}
	.dyad-purple{fill:hsl(240 45.38% 51.18%);}

	.st2{fill:none;}
</style>

<g
   id="g14"
   transform="translate(-371.62982,-41.129822)">

		<rect
   x="408.10001"
   y="65.5"
   transform="matrix(1,-0.00977369,0.00977369,1,-0.6353,4.1556)"
   class="dyad-purple"
   width="33.599998"
   height="3.0999999"
   id="rect11"
   style="fill:#4949bb;fill-opacity:1" />

		<rect
   x="417.70001"
   y="69.300003"
   transform="matrix(0.7093,-0.7049,0.7049,0.7093,59.8634,321.1204)"
   class="st0"
   width="3.0999999"
   height="37.5"
   id="rect12" />
	<circle
   class="dyad-purple"
   cx="398.60001"
   cy="109.8"
   r="10.2"
   id="circle12"
   style="fill:#4949bb;fill-opacity:1" />
	<circle
   class="st0"
   cx="436.39999"
   cy="105.4"
   r="6.8000002"
   id="circle13" />
	<line
   class="st2"
   x1="398.5"
   y1="110"
   x2="441.89999"
   y2="66.900002"
   id="line13" />

		<rect
   x="389.60001"
   y="86.900002"
   transform="matrix(0.7093,-0.7049,0.7049,0.7093,59.8079,321.8898)"
   class="dyad-purple"
   width="61.200001"
   height="3.0999999"
   id="rect13"
   style="fill:#4949bb;fill-opacity:1" />
	<circle
   class="dyad-purple"
   cx="442"
   cy="66.800003"
   r="6.8000002"
   id="circle14"
   style="fill:#4949bb;fill-opacity:1" />
	<path
   class="st0"
   d="m 410.3,57.9 c -4.8,-6.3 -13.9,-7.5 -20.2,-2.7 -6.3,4.8 -7.5,13.9 -2.7,20.2 4.8,6.3 13.9,7.6 20.2,2.7 6.3,-4.8 7.5,-13.9 2.7,-20.2 z m -7.8,13.5 c -2.6,2 -6.4,1.5 -8.5,-1.2 -2,-2.7 -1.5,-6.4 1.1,-8.5 2.6,-2 6.4,-1.5 8.5,1.2 2,2.7 1.5,6.5 -1.1,8.5 z"
   id="path14"
   style="fill:#000000;fill-opacity:1" />
</g>
</svg>
