<?xml version="1.0" encoding="utf-8"?>
<svg xmlns="http://www.w3.org/2000/svg" xmlns:xlink="http://www.w3.org/1999/xlink" width="600" height="400" viewBox="0 0 2400 1600">
<defs>
  <clipPath id="clip080">
    <rect x="0" y="0" width="2400" height="1600"/>
  </clipPath>
</defs>
<path clip-path="url(#clip080)" d="M0 1600 L2400 1600 L2400 8.88178e-14 L0 8.88178e-14  Z" fill="#ffffff" fill-rule="evenodd" fill-opacity="1"/>
<defs>
  <clipPath id="clip081">
    <rect x="480" y="0" width="1681" height="1600"/>
  </clipPath>
</defs>
<path clip-path="url(#clip080)" d="M193.936 1486.45 L2352.76 1486.45 L2352.76 47.2441 L193.936 47.2441  Z" fill="#ffffff" fill-rule="evenodd" fill-opacity="1"/>
<defs>
  <clipPath id="clip082">
    <rect x="193" y="47" width="2160" height="1440"/>
  </clipPath>
</defs>
<polyline clip-path="url(#clip082)" style="stroke:#000000; stroke-linecap:round; stroke-linejoin:round; stroke-width:2; stroke-opacity:0.1; fill:none" points="255.035,1486.45 255.035,47.2441 "/>
<polyline clip-path="url(#clip082)" style="stroke:#000000; stroke-linecap:round; stroke-linejoin:round; stroke-width:2; stroke-opacity:0.1; fill:none" points="764.19,1486.45 764.19,47.2441 "/>
<polyline clip-path="url(#clip082)" style="stroke:#000000; stroke-linecap:round; stroke-linejoin:round; stroke-width:2; stroke-opacity:0.1; fill:none" points="1273.35,1486.45 1273.35,47.2441 "/>
<polyline clip-path="url(#clip082)" style="stroke:#000000; stroke-linecap:round; stroke-linejoin:round; stroke-width:2; stroke-opacity:0.1; fill:none" points="1782.5,1486.45 1782.5,47.2441 "/>
<polyline clip-path="url(#clip082)" style="stroke:#000000; stroke-linecap:round; stroke-linejoin:round; stroke-width:2; stroke-opacity:0.1; fill:none" points="2291.66,1486.45 2291.66,47.2441 "/>
<polyline clip-path="url(#clip082)" style="stroke:#000000; stroke-linecap:round; stroke-linejoin:round; stroke-width:2; stroke-opacity:0.1; fill:none" points="193.936,1445.72 2352.76,1445.72 "/>
<polyline clip-path="url(#clip082)" style="stroke:#000000; stroke-linecap:round; stroke-linejoin:round; stroke-width:2; stroke-opacity:0.1; fill:none" points="193.936,1106.28 2352.76,1106.28 "/>
<polyline clip-path="url(#clip082)" style="stroke:#000000; stroke-linecap:round; stroke-linejoin:round; stroke-width:2; stroke-opacity:0.1; fill:none" points="193.936,766.846 2352.76,766.846 "/>
<polyline clip-path="url(#clip082)" style="stroke:#000000; stroke-linecap:round; stroke-linejoin:round; stroke-width:2; stroke-opacity:0.1; fill:none" points="193.936,427.411 2352.76,427.411 "/>
<polyline clip-path="url(#clip082)" style="stroke:#000000; stroke-linecap:round; stroke-linejoin:round; stroke-width:2; stroke-opacity:0.1; fill:none" points="193.936,87.9763 2352.76,87.9763 "/>
<polyline clip-path="url(#clip080)" style="stroke:#000000; stroke-linecap:round; stroke-linejoin:round; stroke-width:4; stroke-opacity:1; fill:none" points="193.936,1486.45 2352.76,1486.45 "/>
<polyline clip-path="url(#clip080)" style="stroke:#000000; stroke-linecap:round; stroke-linejoin:round; stroke-width:4; stroke-opacity:1; fill:none" points="255.035,1486.45 255.035,1467.55 "/>
<polyline clip-path="url(#clip080)" style="stroke:#000000; stroke-linecap:round; stroke-linejoin:round; stroke-width:4; stroke-opacity:1; fill:none" points="764.19,1486.45 764.19,1467.55 "/>
<polyline clip-path="url(#clip080)" style="stroke:#000000; stroke-linecap:round; stroke-linejoin:round; stroke-width:4; stroke-opacity:1; fill:none" points="1273.35,1486.45 1273.35,1467.55 "/>
<polyline clip-path="url(#clip080)" style="stroke:#000000; stroke-linecap:round; stroke-linejoin:round; stroke-width:4; stroke-opacity:1; fill:none" points="1782.5,1486.45 1782.5,1467.55 "/>
<polyline clip-path="url(#clip080)" style="stroke:#000000; stroke-linecap:round; stroke-linejoin:round; stroke-width:4; stroke-opacity:1; fill:none" points="2291.66,1486.45 2291.66,1467.55 "/>
<path clip-path="url(#clip080)" d="M201.563 1532.02 L231.239 1532.02 L231.239 1535.95 L201.563 1535.95 L201.563 1532.02 Z" fill="#000000" fill-rule="nonzero" fill-opacity="1" /><path clip-path="url(#clip080)" d="M242.141 1544.91 L249.78 1544.91 L249.78 1518.55 L241.47 1520.21 L241.47 1515.95 L249.734 1514.29 L254.41 1514.29 L254.41 1544.91 L262.049 1544.91 L262.049 1548.85 L242.141 1548.85 L242.141 1544.91 Z" fill="#000000" fill-rule="nonzero" fill-opacity="1" /><path clip-path="url(#clip080)" d="M271.493 1542.97 L276.377 1542.97 L276.377 1548.85 L271.493 1548.85 L271.493 1542.97 Z" fill="#000000" fill-rule="nonzero" fill-opacity="1" /><path clip-path="url(#clip080)" d="M296.562 1517.37 Q292.951 1517.37 291.122 1520.93 Q289.317 1524.47 289.317 1531.6 Q289.317 1538.71 291.122 1542.27 Q292.951 1545.82 296.562 1545.82 Q300.196 1545.82 302.002 1542.27 Q303.831 1538.71 303.831 1531.6 Q303.831 1524.47 302.002 1520.93 Q300.196 1517.37 296.562 1517.37 M296.562 1513.66 Q302.372 1513.66 305.428 1518.27 Q308.507 1522.85 308.507 1531.6 Q308.507 1540.33 305.428 1544.94 Q302.372 1549.52 296.562 1549.52 Q290.752 1549.52 287.673 1544.94 Q284.618 1540.33 284.618 1531.6 Q284.618 1522.85 287.673 1518.27 Q290.752 1513.66 296.562 1513.66 Z" fill="#000000" fill-rule="nonzero" fill-opacity="1" /><path clip-path="url(#clip080)" d="M711.216 1532.02 L740.892 1532.02 L740.892 1535.95 L711.216 1535.95 L711.216 1532.02 Z" fill="#000000" fill-rule="nonzero" fill-opacity="1" /><path clip-path="url(#clip080)" d="M760.984 1517.37 Q757.373 1517.37 755.545 1520.93 Q753.739 1524.47 753.739 1531.6 Q753.739 1538.71 755.545 1542.27 Q757.373 1545.82 760.984 1545.82 Q764.619 1545.82 766.424 1542.27 Q768.253 1538.71 768.253 1531.6 Q768.253 1524.47 766.424 1520.93 Q764.619 1517.37 760.984 1517.37 M760.984 1513.66 Q766.794 1513.66 769.85 1518.27 Q772.929 1522.85 772.929 1531.6 Q772.929 1540.33 769.85 1544.94 Q766.794 1549.52 760.984 1549.52 Q755.174 1549.52 752.095 1544.94 Q749.04 1540.33 749.04 1531.6 Q749.04 1522.85 752.095 1518.27 Q755.174 1513.66 760.984 1513.66 Z" fill="#000000" fill-rule="nonzero" fill-opacity="1" /><path clip-path="url(#clip080)" d="M781.146 1542.97 L786.03 1542.97 L786.03 1548.85 L781.146 1548.85 L781.146 1542.97 Z" fill="#000000" fill-rule="nonzero" fill-opacity="1" /><path clip-path="url(#clip080)" d="M796.262 1514.29 L814.618 1514.29 L814.618 1518.22 L800.544 1518.22 L800.544 1526.7 Q801.563 1526.35 802.581 1526.19 Q803.6 1526 804.618 1526 Q810.405 1526 813.785 1529.17 Q817.165 1532.34 817.165 1537.76 Q817.165 1543.34 813.692 1546.44 Q810.22 1549.52 803.901 1549.52 Q801.725 1549.52 799.456 1549.15 Q797.211 1548.78 794.804 1548.04 L794.804 1543.34 Q796.887 1544.47 799.109 1545.03 Q801.331 1545.58 803.808 1545.58 Q807.813 1545.58 810.151 1543.48 Q812.489 1541.37 812.489 1537.76 Q812.489 1534.15 810.151 1532.04 Q807.813 1529.94 803.808 1529.94 Q801.933 1529.94 800.058 1530.35 Q798.206 1530.77 796.262 1531.65 L796.262 1514.29 Z" fill="#000000" fill-rule="nonzero" fill-opacity="1" /><path clip-path="url(#clip080)" d="M1250.73 1517.37 Q1247.12 1517.37 1245.29 1520.93 Q1243.49 1524.47 1243.49 1531.6 Q1243.49 1538.71 1245.29 1542.27 Q1247.12 1545.82 1250.73 1545.82 Q1254.36 1545.82 1256.17 1542.27 Q1258 1538.71 1258 1531.6 Q1258 1524.47 1256.17 1520.93 Q1254.36 1517.37 1250.73 1517.37 M1250.73 1513.66 Q1256.54 1513.66 1259.6 1518.27 Q1262.67 1522.85 1262.67 1531.6 Q1262.67 1540.33 1259.6 1544.94 Q1256.54 1549.52 1250.73 1549.52 Q1244.92 1549.52 1241.84 1544.94 Q1238.79 1540.33 1238.79 1531.6 Q1238.79 1522.85 1241.84 1518.27 Q1244.92 1513.66 1250.73 1513.66 Z" fill="#000000" fill-rule="nonzero" fill-opacity="1" /><path clip-path="url(#clip080)" d="M1270.89 1542.97 L1275.78 1542.97 L1275.78 1548.85 L1270.89 1548.85 L1270.89 1542.97 Z" fill="#000000" fill-rule="nonzero" fill-opacity="1" /><path clip-path="url(#clip080)" d="M1295.96 1517.37 Q1292.35 1517.37 1290.52 1520.93 Q1288.72 1524.47 1288.72 1531.6 Q1288.72 1538.71 1290.52 1542.27 Q1292.35 1545.82 1295.96 1545.82 Q1299.6 1545.82 1301.4 1542.27 Q1303.23 1538.71 1303.23 1531.6 Q1303.23 1524.47 1301.4 1520.93 Q1299.6 1517.37 1295.96 1517.37 M1295.96 1513.66 Q1301.77 1513.66 1304.83 1518.27 Q1307.91 1522.85 1307.91 1531.6 Q1307.91 1540.33 1304.83 1544.94 Q1301.77 1549.52 1295.96 1549.52 Q1290.15 1549.52 1287.07 1544.94 Q1284.02 1540.33 1284.02 1531.6 Q1284.02 1522.85 1287.07 1518.27 Q1290.15 1513.66 1295.96 1513.66 Z" fill="#000000" fill-rule="nonzero" fill-opacity="1" /><path clip-path="url(#clip080)" d="M1760.38 1517.37 Q1756.77 1517.37 1754.94 1520.93 Q1753.14 1524.47 1753.14 1531.6 Q1753.14 1538.71 1754.94 1542.27 Q1756.77 1545.82 1760.38 1545.82 Q1764.02 1545.82 1765.82 1542.27 Q1767.65 1538.71 1767.65 1531.6 Q1767.65 1524.47 1765.82 1520.93 Q1764.02 1517.37 1760.38 1517.37 M1760.38 1513.66 Q1766.19 1513.66 1769.25 1518.27 Q1772.33 1522.85 1772.33 1531.6 Q1772.33 1540.33 1769.25 1544.94 Q1766.19 1549.52 1760.38 1549.52 Q1754.57 1549.52 1751.49 1544.94 Q1748.44 1540.33 1748.44 1531.6 Q1748.44 1522.85 1751.49 1518.27 Q1754.57 1513.66 1760.38 1513.66 Z" fill="#000000" fill-rule="nonzero" fill-opacity="1" /><path clip-path="url(#clip080)" d="M1780.55 1542.97 L1785.43 1542.97 L1785.43 1548.85 L1780.55 1548.85 L1780.55 1542.97 Z" fill="#000000" fill-rule="nonzero" fill-opacity="1" /><path clip-path="url(#clip080)" d="M1795.66 1514.29 L1814.02 1514.29 L1814.02 1518.22 L1799.94 1518.22 L1799.94 1526.7 Q1800.96 1526.35 1801.98 1526.19 Q1803 1526 1804.02 1526 Q1809.8 1526 1813.18 1529.17 Q1816.56 1532.34 1816.56 1537.76 Q1816.56 1543.34 1813.09 1546.44 Q1809.62 1549.52 1803.3 1549.52 Q1801.12 1549.52 1798.86 1549.15 Q1796.61 1548.78 1794.2 1548.04 L1794.2 1543.34 Q1796.29 1544.47 1798.51 1545.03 Q1800.73 1545.58 1803.21 1545.58 Q1807.21 1545.58 1809.55 1543.48 Q1811.89 1541.37 1811.89 1537.76 Q1811.89 1534.15 1809.55 1532.04 Q1807.21 1529.94 1803.21 1529.94 Q1801.33 1529.94 1799.46 1530.35 Q1797.61 1530.77 1795.66 1531.65 L1795.66 1514.29 Z" fill="#000000" fill-rule="nonzero" fill-opacity="1" /><path clip-path="url(#clip080)" d="M2258.81 1544.91 L2266.45 1544.91 L2266.45 1518.55 L2258.14 1520.21 L2258.14 1515.95 L2266.4 1514.29 L2271.08 1514.29 L2271.08 1544.91 L2278.72 1544.91 L2278.72 1548.85 L2258.81 1548.85 L2258.81 1544.91 Z" fill="#000000" fill-rule="nonzero" fill-opacity="1" /><path clip-path="url(#clip080)" d="M2288.16 1542.97 L2293.05 1542.97 L2293.05 1548.85 L2288.16 1548.85 L2288.16 1542.97 Z" fill="#000000" fill-rule="nonzero" fill-opacity="1" /><path clip-path="url(#clip080)" d="M2313.23 1517.37 Q2309.62 1517.37 2307.79 1520.93 Q2305.99 1524.47 2305.99 1531.6 Q2305.99 1538.71 2307.79 1542.27 Q2309.62 1545.82 2313.23 1545.82 Q2316.87 1545.82 2318.67 1542.27 Q2320.5 1538.71 2320.5 1531.6 Q2320.5 1524.47 2318.67 1520.93 Q2316.87 1517.37 2313.23 1517.37 M2313.23 1513.66 Q2319.04 1513.66 2322.1 1518.27 Q2325.18 1522.85 2325.18 1531.6 Q2325.18 1540.33 2322.1 1544.94 Q2319.04 1549.52 2313.23 1549.52 Q2307.42 1549.52 2304.34 1544.94 Q2301.29 1540.33 2301.29 1531.6 Q2301.29 1522.85 2304.34 1518.27 Q2307.42 1513.66 2313.23 1513.66 Z" fill="#000000" fill-rule="nonzero" fill-opacity="1" /><polyline clip-path="url(#clip080)" style="stroke:#000000; stroke-linecap:round; stroke-linejoin:round; stroke-width:4; stroke-opacity:1; fill:none" points="193.936,1486.45 193.936,47.2441 "/>
<polyline clip-path="url(#clip080)" style="stroke:#000000; stroke-linecap:round; stroke-linejoin:round; stroke-width:4; stroke-opacity:1; fill:none" points="193.936,1445.72 212.834,1445.72 "/>
<polyline clip-path="url(#clip080)" style="stroke:#000000; stroke-linecap:round; stroke-linejoin:round; stroke-width:4; stroke-opacity:1; fill:none" points="193.936,1106.28 212.834,1106.28 "/>
<polyline clip-path="url(#clip080)" style="stroke:#000000; stroke-linecap:round; stroke-linejoin:round; stroke-width:4; stroke-opacity:1; fill:none" points="193.936,766.846 212.834,766.846 "/>
<polyline clip-path="url(#clip080)" style="stroke:#000000; stroke-linecap:round; stroke-linejoin:round; stroke-width:4; stroke-opacity:1; fill:none" points="193.936,427.411 212.834,427.411 "/>
<polyline clip-path="url(#clip080)" style="stroke:#000000; stroke-linecap:round; stroke-linejoin:round; stroke-width:4; stroke-opacity:1; fill:none" points="193.936,87.9763 212.834,87.9763 "/>
<path clip-path="url(#clip080)" d="M50.9921 1446.17 L80.6679 1446.17 L80.6679 1450.1 L50.9921 1450.1 L50.9921 1446.17 Z" fill="#000000" fill-rule="nonzero" fill-opacity="1" /><path clip-path="url(#clip080)" d="M91.5706 1459.06 L99.2095 1459.06 L99.2095 1432.69 L90.8993 1434.36 L90.8993 1430.1 L99.1632 1428.44 L103.839 1428.44 L103.839 1459.06 L111.478 1459.06 L111.478 1463 L91.5706 1463 L91.5706 1459.06 Z" fill="#000000" fill-rule="nonzero" fill-opacity="1" /><path clip-path="url(#clip080)" d="M120.922 1457.12 L125.807 1457.12 L125.807 1463 L120.922 1463 L120.922 1457.12 Z" fill="#000000" fill-rule="nonzero" fill-opacity="1" /><path clip-path="url(#clip080)" d="M145.992 1431.51 Q142.381 1431.51 140.552 1435.08 Q138.746 1438.62 138.746 1445.75 Q138.746 1452.86 140.552 1456.42 Q142.381 1459.96 145.992 1459.96 Q149.626 1459.96 151.431 1456.42 Q153.26 1452.86 153.26 1445.75 Q153.26 1438.62 151.431 1435.08 Q149.626 1431.51 145.992 1431.51 M145.992 1427.81 Q151.802 1427.81 154.857 1432.42 Q157.936 1437 157.936 1445.75 Q157.936 1454.48 154.857 1459.08 Q151.802 1463.67 145.992 1463.67 Q140.181 1463.67 137.103 1459.08 Q134.047 1454.48 134.047 1445.75 Q134.047 1437 137.103 1432.42 Q140.181 1427.81 145.992 1427.81 Z" fill="#000000" fill-rule="nonzero" fill-opacity="1" /><path clip-path="url(#clip080)" d="M51.9875 1106.73 L81.6633 1106.73 L81.6633 1110.67 L51.9875 1110.67 L51.9875 1106.73 Z" fill="#000000" fill-rule="nonzero" fill-opacity="1" /><path clip-path="url(#clip080)" d="M101.756 1092.08 Q98.1447 1092.08 96.316 1095.64 Q94.5104 1099.19 94.5104 1106.32 Q94.5104 1113.42 96.316 1116.99 Q98.1447 1120.53 101.756 1120.53 Q105.39 1120.53 107.196 1116.99 Q109.024 1113.42 109.024 1106.32 Q109.024 1099.19 107.196 1095.64 Q105.39 1092.08 101.756 1092.08 M101.756 1088.38 Q107.566 1088.38 110.621 1092.98 Q113.7 1097.57 113.7 1106.32 Q113.7 1115.04 110.621 1119.65 Q107.566 1124.23 101.756 1124.23 Q95.9456 1124.23 92.8669 1119.65 Q89.8114 1115.04 89.8114 1106.32 Q89.8114 1097.57 92.8669 1092.98 Q95.9456 1088.38 101.756 1088.38 Z" fill="#000000" fill-rule="nonzero" fill-opacity="1" /><path clip-path="url(#clip080)" d="M121.918 1117.68 L126.802 1117.68 L126.802 1123.56 L121.918 1123.56 L121.918 1117.68 Z" fill="#000000" fill-rule="nonzero" fill-opacity="1" /><path clip-path="url(#clip080)" d="M137.033 1089 L155.39 1089 L155.39 1092.94 L141.316 1092.94 L141.316 1101.41 Q142.334 1101.06 143.353 1100.9 Q144.371 1100.71 145.39 1100.71 Q151.177 1100.71 154.556 1103.89 Q157.936 1107.06 157.936 1112.47 Q157.936 1118.05 154.464 1121.15 Q150.992 1124.23 144.672 1124.23 Q142.496 1124.23 140.228 1123.86 Q137.982 1123.49 135.575 1122.75 L135.575 1118.05 Q137.658 1119.19 139.881 1119.74 Q142.103 1120.3 144.58 1120.3 Q148.584 1120.3 150.922 1118.19 Q153.26 1116.08 153.26 1112.47 Q153.26 1108.86 150.922 1106.76 Q148.584 1104.65 144.58 1104.65 Q142.705 1104.65 140.83 1105.07 Q138.978 1105.48 137.033 1106.36 L137.033 1089 Z" fill="#000000" fill-rule="nonzero" fill-opacity="1" /><path clip-path="url(#clip080)" d="M100.76 752.645 Q97.1493 752.645 95.3206 756.209 Q93.515 759.751 93.515 766.881 Q93.515 773.987 95.3206 777.552 Q97.1493 781.094 100.76 781.094 Q104.395 781.094 106.2 777.552 Q108.029 773.987 108.029 766.881 Q108.029 759.751 106.2 756.209 Q104.395 752.645 100.76 752.645 M100.76 748.941 Q106.571 748.941 109.626 753.547 Q112.705 758.131 112.705 766.881 Q112.705 775.608 109.626 780.214 Q106.571 784.797 100.76 784.797 Q94.9502 784.797 91.8715 780.214 Q88.816 775.608 88.816 766.881 Q88.816 758.131 91.8715 753.547 Q94.9502 748.941 100.76 748.941 Z" fill="#000000" fill-rule="nonzero" fill-opacity="1" /><path clip-path="url(#clip080)" d="M120.922 778.246 L125.807 778.246 L125.807 784.126 L120.922 784.126 L120.922 778.246 Z" fill="#000000" fill-rule="nonzero" fill-opacity="1" /><path clip-path="url(#clip080)" d="M145.992 752.645 Q142.381 752.645 140.552 756.209 Q138.746 759.751 138.746 766.881 Q138.746 773.987 140.552 777.552 Q142.381 781.094 145.992 781.094 Q149.626 781.094 151.431 777.552 Q153.26 773.987 153.26 766.881 Q153.26 759.751 151.431 756.209 Q149.626 752.645 145.992 752.645 M145.992 748.941 Q151.802 748.941 154.857 753.547 Q157.936 758.131 157.936 766.881 Q157.936 775.608 154.857 780.214 Q151.802 784.797 145.992 784.797 Q140.181 784.797 137.103 780.214 Q134.047 775.608 134.047 766.881 Q134.047 758.131 137.103 753.547 Q140.181 748.941 145.992 748.941 Z" fill="#000000" fill-rule="nonzero" fill-opacity="1" /><path clip-path="url(#clip080)" d="M101.756 413.21 Q98.1447 413.21 96.316 416.775 Q94.5104 420.316 94.5104 427.446 Q94.5104 434.552 96.316 438.117 Q98.1447 441.659 101.756 441.659 Q105.39 441.659 107.196 438.117 Q109.024 434.552 109.024 427.446 Q109.024 420.316 107.196 416.775 Q105.39 413.21 101.756 413.21 M101.756 409.506 Q107.566 409.506 110.621 414.113 Q113.7 418.696 113.7 427.446 Q113.7 436.173 110.621 440.779 Q107.566 445.362 101.756 445.362 Q95.9456 445.362 92.8669 440.779 Q89.8114 436.173 89.8114 427.446 Q89.8114 418.696 92.8669 414.113 Q95.9456 409.506 101.756 409.506 Z" fill="#000000" fill-rule="nonzero" fill-opacity="1" /><path clip-path="url(#clip080)" d="M121.918 438.812 L126.802 438.812 L126.802 444.691 L121.918 444.691 L121.918 438.812 Z" fill="#000000" fill-rule="nonzero" fill-opacity="1" /><path clip-path="url(#clip080)" d="M137.033 410.131 L155.39 410.131 L155.39 414.066 L141.316 414.066 L141.316 422.538 Q142.334 422.191 143.353 422.029 Q144.371 421.844 145.39 421.844 Q151.177 421.844 154.556 425.015 Q157.936 428.187 157.936 433.603 Q157.936 439.182 154.464 442.284 Q150.992 445.362 144.672 445.362 Q142.496 445.362 140.228 444.992 Q137.982 444.622 135.575 443.881 L135.575 439.182 Q137.658 440.316 139.881 440.872 Q142.103 441.427 144.58 441.427 Q148.584 441.427 150.922 439.321 Q153.26 437.214 153.26 433.603 Q153.26 429.992 150.922 427.886 Q148.584 425.779 144.58 425.779 Q142.705 425.779 140.83 426.196 Q138.978 426.613 137.033 427.492 L137.033 410.131 Z" fill="#000000" fill-rule="nonzero" fill-opacity="1" /><path clip-path="url(#clip080)" d="M91.5706 101.321 L99.2095 101.321 L99.2095 74.9555 L90.8993 76.6222 L90.8993 72.3629 L99.1632 70.6963 L103.839 70.6963 L103.839 101.321 L111.478 101.321 L111.478 105.256 L91.5706 105.256 L91.5706 101.321 Z" fill="#000000" fill-rule="nonzero" fill-opacity="1" /><path clip-path="url(#clip080)" d="M120.922 99.3767 L125.807 99.3767 L125.807 105.256 L120.922 105.256 L120.922 99.3767 Z" fill="#000000" fill-rule="nonzero" fill-opacity="1" /><path clip-path="url(#clip080)" d="M145.992 73.775 Q142.381 73.775 140.552 77.3398 Q138.746 80.8814 138.746 88.011 Q138.746 95.1174 140.552 98.6822 Q142.381 102.224 145.992 102.224 Q149.626 102.224 151.431 98.6822 Q153.26 95.1174 153.26 88.011 Q153.26 80.8814 151.431 77.3398 Q149.626 73.775 145.992 73.775 M145.992 70.0713 Q151.802 70.0713 154.857 74.6777 Q157.936 79.261 157.936 88.011 Q157.936 96.7378 154.857 101.344 Q151.802 105.928 145.992 105.928 Q140.181 105.928 137.103 101.344 Q134.047 96.7378 134.047 88.011 Q134.047 79.261 137.103 74.6777 Q140.181 70.0713 145.992 70.0713 Z" fill="#000000" fill-rule="nonzero" fill-opacity="1" /><polyline clip-path="url(#clip082)" style="stroke:#009af9; stroke-linecap:round; stroke-linejoin:round; stroke-width:4; stroke-opacity:1; fill:none" points="255.035,1445.72 356.866,1316.73 458.697,1201.32 560.528,1099.49 662.359,1011.24 764.19,936.563 866.021,897.189 967.853,862.567 1069.68,830.66 1171.51,799.432 1273.35,766.846 1375.18,734.26 1477.01,703.032 1578.84,671.125 1680.67,636.503 1782.5,597.129 1884.33,522.453 1986.16,434.2 2087.99,332.369 2189.83,216.962 2291.66,87.9763 "/>
<polyline clip-path="url(#clip082)" style="stroke:#e26f46; stroke-linecap:round; stroke-linejoin:round; stroke-width:4; stroke-opacity:1; fill:none" points="255.035,1445.72 356.866,1316.73 458.697,1201.32 560.528,1099.49 662.359,1011.24 764.19,936.563 866.021,902.62 967.853,868.676 1069.68,834.733 1171.51,800.789 1273.35,766.846 1375.18,732.902 1477.01,698.959 1578.84,665.016 1680.67,631.072 1782.5,597.129 1884.33,522.453 1986.16,434.2 2087.99,332.369 2189.83,216.962 2291.66,87.9763 "/>
<polyline clip-path="url(#clip082)" style="stroke:#3da44d; stroke-linecap:round; stroke-linejoin:round; stroke-width:4; stroke-opacity:1; fill:none" points="255.035,1445.72 356.866,1316.73 458.697,1201.32 560.528,1099.49 662.359,1011.24 764.19,936.563 866.021,875.465 967.853,827.944 1069.68,794.001 1171.51,773.635 1273.35,766.846 1375.18,760.057 1477.01,739.691 1578.84,705.748 1680.67,658.227 1782.5,597.129 1884.33,522.453 1986.16,434.2 2087.99,332.369 2189.83,216.962 2291.66,87.9763 "/>
<path clip-path="url(#clip080)" d="M265.897 302.578 L859.786 302.578 L859.786 95.2176 L265.897 95.2176  Z" fill="#ffffff" fill-rule="evenodd" fill-opacity="1"/>
<polyline clip-path="url(#clip080)" style="stroke:#000000; stroke-linecap:round; stroke-linejoin:round; stroke-width:4; stroke-opacity:1; fill:none" points="265.897,302.578 859.786,302.578 859.786,95.2176 265.897,95.2176 265.897,302.578 "/>
<polyline clip-path="url(#clip080)" style="stroke:#009af9; stroke-linecap:round; stroke-linejoin:round; stroke-width:4; stroke-opacity:1; fill:none" points="289.884,147.058 433.805,147.058 "/>
<path clip-path="url(#clip080)" d="M485.662 132.44 L485.662 137.37 Q483.301 135.171 480.616 134.083 Q477.954 132.995 474.944 132.995 Q469.019 132.995 465.87 136.629 Q462.722 140.24 462.722 147.092 Q462.722 153.921 465.87 157.555 Q469.019 161.166 474.944 161.166 Q477.954 161.166 480.616 160.078 Q483.301 158.99 485.662 156.791 L485.662 161.676 Q483.208 163.342 480.454 164.176 Q477.722 165.009 474.667 165.009 Q466.819 165.009 462.306 160.217 Q457.792 155.402 457.792 147.092 Q457.792 138.759 462.306 133.967 Q466.819 129.153 474.667 129.153 Q477.769 129.153 480.5 129.986 Q483.255 130.796 485.662 132.44 Z" fill="#000000" fill-rule="nonzero" fill-opacity="1" /><path clip-path="url(#clip080)" d="M492.259 154.106 L492.259 138.412 L496.518 138.412 L496.518 153.944 Q496.518 157.625 497.954 159.476 Q499.389 161.305 502.259 161.305 Q505.708 161.305 507.699 159.106 Q509.713 156.907 509.713 153.111 L509.713 138.412 L513.972 138.412 L513.972 164.338 L509.713 164.338 L509.713 160.356 Q508.162 162.717 506.102 163.875 Q504.065 165.009 501.356 165.009 Q496.889 165.009 494.574 162.231 Q492.259 159.453 492.259 154.106 M502.977 137.787 L502.977 137.787 Z" fill="#000000" fill-rule="nonzero" fill-opacity="1" /><path clip-path="url(#clip080)" d="M541.356 151.398 Q541.356 146.699 539.412 144.037 Q537.49 141.352 534.111 141.352 Q530.731 141.352 528.787 144.037 Q526.865 146.699 526.865 151.398 Q526.865 156.097 528.787 158.782 Q530.731 161.444 534.111 161.444 Q537.49 161.444 539.412 158.782 Q541.356 156.097 541.356 151.398 M526.865 142.347 Q528.208 140.032 530.245 138.921 Q532.305 137.787 535.152 137.787 Q539.875 137.787 542.814 141.537 Q545.777 145.287 545.777 151.398 Q545.777 157.509 542.814 161.259 Q539.875 165.009 535.152 165.009 Q532.305 165.009 530.245 163.898 Q528.208 162.763 526.865 160.449 L526.865 164.338 L522.583 164.338 L522.583 128.319 L526.865 128.319 L526.865 142.347 Z" fill="#000000" fill-rule="nonzero" fill-opacity="1" /><path clip-path="url(#clip080)" d="M552.838 138.412 L557.097 138.412 L557.097 164.338 L552.838 164.338 L552.838 138.412 M552.838 128.319 L557.097 128.319 L557.097 133.713 L552.838 133.713 L552.838 128.319 Z" fill="#000000" fill-rule="nonzero" fill-opacity="1" /><path clip-path="url(#clip080)" d="M584.666 139.407 L584.666 143.389 Q582.861 142.393 581.032 141.907 Q579.226 141.398 577.374 141.398 Q573.231 141.398 570.939 144.037 Q568.648 146.652 568.648 151.398 Q568.648 156.143 570.939 158.782 Q573.231 161.398 577.374 161.398 Q579.226 161.398 581.032 160.912 Q582.861 160.402 584.666 159.407 L584.666 163.342 Q582.884 164.176 580.962 164.592 Q579.064 165.009 576.911 165.009 Q571.055 165.009 567.606 161.328 Q564.157 157.648 564.157 151.398 Q564.157 145.055 567.629 141.421 Q571.124 137.787 577.189 137.787 Q579.157 137.787 581.032 138.203 Q582.907 138.597 584.666 139.407 Z" fill="#000000" fill-rule="nonzero" fill-opacity="1" /><path clip-path="url(#clip080)" d="M593.161 158.458 L598.046 158.458 L598.046 162.439 L594.249 169.847 L591.263 169.847 L593.161 162.439 L593.161 158.458 Z" fill="#000000" fill-rule="nonzero" fill-opacity="1" /><path clip-path="url(#clip080)" d="M639.272 142.347 L639.272 128.319 L643.532 128.319 L643.532 164.338 L639.272 164.338 L639.272 160.449 Q637.93 162.763 635.87 163.898 Q633.832 165.009 630.962 165.009 Q626.263 165.009 623.3 161.259 Q620.36 157.509 620.36 151.398 Q620.36 145.287 623.3 141.537 Q626.263 137.787 630.962 137.787 Q633.832 137.787 635.87 138.921 Q637.93 140.032 639.272 142.347 M624.758 151.398 Q624.758 156.097 626.68 158.782 Q628.624 161.444 632.004 161.444 Q635.383 161.444 637.328 158.782 Q639.272 156.097 639.272 151.398 Q639.272 146.699 637.328 144.037 Q635.383 141.352 632.004 141.352 Q628.624 141.352 626.68 144.037 Q624.758 146.699 624.758 151.398 Z" fill="#000000" fill-rule="nonzero" fill-opacity="1" /><path clip-path="url(#clip080)" d="M665.43 128.319 L665.43 131.861 L661.355 131.861 Q659.064 131.861 658.161 132.787 Q657.281 133.713 657.281 136.12 L657.281 138.412 L664.295 138.412 L664.295 141.722 L657.281 141.722 L657.281 164.338 L652.999 164.338 L652.999 141.722 L648.925 141.722 L648.925 138.412 L652.999 138.412 L652.999 136.606 Q652.999 132.278 655.013 130.31 Q657.027 128.319 661.402 128.319 L665.43 128.319 Z" fill="#000000" fill-rule="nonzero" fill-opacity="1" /><path clip-path="url(#clip080)" d="M679.596 132.856 Q675.985 132.856 674.156 136.421 Q672.351 139.963 672.351 147.092 Q672.351 154.199 674.156 157.764 Q675.985 161.305 679.596 161.305 Q683.23 161.305 685.036 157.764 Q686.865 154.199 686.865 147.092 Q686.865 139.963 685.036 136.421 Q683.23 132.856 679.596 132.856 M679.596 129.153 Q685.406 129.153 688.462 133.759 Q691.541 138.342 691.541 147.092 Q691.541 155.819 688.462 160.426 Q685.406 165.009 679.596 165.009 Q673.786 165.009 670.707 160.426 Q667.652 155.819 667.652 147.092 Q667.652 138.342 670.707 133.759 Q673.786 129.153 679.596 129.153 Z" fill="#000000" fill-rule="nonzero" fill-opacity="1" /><path clip-path="url(#clip080)" d="M714.781 142.81 L744.457 142.81 L744.457 146.699 L714.781 146.699 L714.781 142.81 M714.781 152.254 L744.457 152.254 L744.457 156.189 L714.781 156.189 L714.781 152.254 Z" fill="#000000" fill-rule="nonzero" fill-opacity="1" /><path clip-path="url(#clip080)" d="M779.619 132.856 Q776.008 132.856 774.179 136.421 Q772.373 139.963 772.373 147.092 Q772.373 154.199 774.179 157.764 Q776.008 161.305 779.619 161.305 Q783.253 161.305 785.059 157.764 Q786.887 154.199 786.887 147.092 Q786.887 139.963 785.059 136.421 Q783.253 132.856 779.619 132.856 M779.619 129.153 Q785.429 129.153 788.484 133.759 Q791.563 138.342 791.563 147.092 Q791.563 155.819 788.484 160.426 Q785.429 165.009 779.619 165.009 Q773.809 165.009 770.73 160.426 Q767.674 155.819 767.674 147.092 Q767.674 138.342 770.73 133.759 Q773.809 129.153 779.619 129.153 Z" fill="#000000" fill-rule="nonzero" fill-opacity="1" /><path clip-path="url(#clip080)" d="M799.781 158.458 L804.665 158.458 L804.665 164.338 L799.781 164.338 L799.781 158.458 Z" fill="#000000" fill-rule="nonzero" fill-opacity="1" /><path clip-path="url(#clip080)" d="M814.896 129.778 L833.253 129.778 L833.253 133.713 L819.179 133.713 L819.179 142.185 Q820.197 141.838 821.216 141.676 Q822.234 141.49 823.253 141.49 Q829.04 141.49 832.419 144.662 Q835.799 147.833 835.799 153.25 Q835.799 158.828 832.327 161.93 Q828.855 165.009 822.535 165.009 Q820.359 165.009 818.091 164.638 Q815.845 164.268 813.438 163.527 L813.438 158.828 Q815.521 159.963 817.744 160.518 Q819.966 161.074 822.443 161.074 Q826.447 161.074 828.785 158.967 Q831.123 156.861 831.123 153.25 Q831.123 149.639 828.785 147.532 Q826.447 145.426 822.443 145.426 Q820.568 145.426 818.693 145.842 Q816.841 146.259 814.896 147.139 L814.896 129.778 Z" fill="#000000" fill-rule="nonzero" fill-opacity="1" /><polyline clip-path="url(#clip080)" style="stroke:#e26f46; stroke-linecap:round; stroke-linejoin:round; stroke-width:4; stroke-opacity:1; fill:none" points="289.884,198.898 433.805,198.898 "/>
<path clip-path="url(#clip080)" d="M457.792 181.618 L462.468 181.618 L462.468 212.242 L479.296 212.242 L479.296 216.178 L457.792 216.178 L457.792 181.618 Z" fill="#000000" fill-rule="nonzero" fill-opacity="1" /><path clip-path="url(#clip080)" d="M484.018 190.252 L488.278 190.252 L488.278 216.178 L484.018 216.178 L484.018 190.252 M484.018 180.159 L488.278 180.159 L488.278 185.553 L484.018 185.553 L484.018 180.159 Z" fill="#000000" fill-rule="nonzero" fill-opacity="1" /><path clip-path="url(#clip080)" d="M518.741 200.529 L518.741 216.178 L514.481 216.178 L514.481 200.668 Q514.481 196.988 513.046 195.159 Q511.611 193.33 508.741 193.33 Q505.292 193.33 503.301 195.53 Q501.31 197.729 501.31 201.525 L501.31 216.178 L497.028 216.178 L497.028 190.252 L501.31 190.252 L501.31 194.28 Q502.838 191.942 504.898 190.784 Q506.981 189.627 509.69 189.627 Q514.157 189.627 516.449 192.405 Q518.741 195.159 518.741 200.529 Z" fill="#000000" fill-rule="nonzero" fill-opacity="1" /><path clip-path="url(#clip080)" d="M549.412 202.15 L549.412 204.233 L529.828 204.233 Q530.106 208.631 532.467 210.946 Q534.852 213.238 539.088 213.238 Q541.541 213.238 543.833 212.636 Q546.148 212.034 548.416 210.83 L548.416 214.858 Q546.125 215.83 543.717 216.34 Q541.31 216.849 538.833 216.849 Q532.629 216.849 528.995 213.238 Q525.384 209.627 525.384 203.469 Q525.384 197.104 528.81 193.377 Q532.259 189.627 538.092 189.627 Q543.324 189.627 546.356 193.006 Q549.412 196.363 549.412 202.15 M545.152 200.9 Q545.106 197.405 543.185 195.321 Q541.287 193.238 538.139 193.238 Q534.574 193.238 532.421 195.252 Q530.291 197.266 529.967 200.923 L545.152 200.9 Z" fill="#000000" fill-rule="nonzero" fill-opacity="1" /><path clip-path="url(#clip080)" d="M568.185 203.145 Q563.023 203.145 561.032 204.326 Q559.041 205.506 559.041 208.354 Q559.041 210.622 560.523 211.965 Q562.027 213.284 564.597 213.284 Q568.138 213.284 570.268 210.784 Q572.421 208.261 572.421 204.094 L572.421 203.145 L568.185 203.145 M576.68 201.386 L576.68 216.178 L572.421 216.178 L572.421 212.242 Q570.962 214.603 568.787 215.738 Q566.611 216.849 563.462 216.849 Q559.481 216.849 557.12 214.627 Q554.782 212.381 554.782 208.631 Q554.782 204.256 557.699 202.034 Q560.638 199.812 566.449 199.812 L572.421 199.812 L572.421 199.395 Q572.421 196.455 570.476 194.858 Q568.555 193.238 565.06 193.238 Q562.837 193.238 560.731 193.77 Q558.625 194.303 556.68 195.367 L556.68 191.432 Q559.018 190.53 561.217 190.09 Q563.416 189.627 565.5 189.627 Q571.124 189.627 573.902 192.543 Q576.68 195.46 576.68 201.386 Z" fill="#000000" fill-rule="nonzero" fill-opacity="1" /><path clip-path="url(#clip080)" d="M600.476 194.233 Q599.759 193.817 598.902 193.631 Q598.069 193.423 597.05 193.423 Q593.439 193.423 591.495 195.784 Q589.573 198.122 589.573 202.52 L589.573 216.178 L585.291 216.178 L585.291 190.252 L589.573 190.252 L589.573 194.28 Q590.916 191.918 593.069 190.784 Q595.222 189.627 598.3 189.627 Q598.74 189.627 599.272 189.696 Q599.805 189.743 600.453 189.858 L600.476 194.233 Z" fill="#000000" fill-rule="nonzero" fill-opacity="1" /><polyline clip-path="url(#clip080)" style="stroke:#3da44d; stroke-linecap:round; stroke-linejoin:round; stroke-width:4; stroke-opacity:1; fill:none" points="289.884,250.738 433.805,250.738 "/>
<path clip-path="url(#clip080)" d="M473.81 236.629 Q468.718 236.629 465.708 240.425 Q462.722 244.221 462.722 250.772 Q462.722 257.3 465.708 261.096 Q468.718 264.893 473.81 264.893 Q478.903 264.893 481.866 261.096 Q484.852 257.3 484.852 250.772 Q484.852 244.221 481.866 240.425 Q478.903 236.629 473.81 236.629 M480.361 267.393 L486.518 274.129 L480.87 274.129 L475.755 268.596 Q474.991 268.643 474.574 268.666 Q474.181 268.689 473.81 268.689 Q466.519 268.689 462.144 263.828 Q457.792 258.944 457.792 250.772 Q457.792 242.578 462.144 237.717 Q466.519 232.833 473.81 232.833 Q481.079 232.833 485.431 237.717 Q489.782 242.578 489.782 250.772 Q489.782 256.791 487.352 261.073 Q484.944 265.356 480.361 267.393 Z" fill="#000000" fill-rule="nonzero" fill-opacity="1" /><path clip-path="url(#clip080)" d="M496.472 257.786 L496.472 242.092 L500.731 242.092 L500.731 257.624 Q500.731 261.305 502.167 263.156 Q503.602 264.985 506.472 264.985 Q509.921 264.985 511.912 262.786 Q513.926 260.587 513.926 256.791 L513.926 242.092 L518.185 242.092 L518.185 268.018 L513.926 268.018 L513.926 264.036 Q512.375 266.397 510.315 267.555 Q508.278 268.689 505.569 268.689 Q501.102 268.689 498.787 265.911 Q496.472 263.133 496.472 257.786 M507.19 241.467 L507.19 241.467 Z" fill="#000000" fill-rule="nonzero" fill-opacity="1" /><path clip-path="url(#clip080)" d="M538.74 254.985 Q533.578 254.985 531.588 256.166 Q529.597 257.346 529.597 260.194 Q529.597 262.462 531.078 263.805 Q532.583 265.124 535.152 265.124 Q538.694 265.124 540.824 262.624 Q542.976 260.101 542.976 255.934 L542.976 254.985 L538.74 254.985 M547.236 253.226 L547.236 268.018 L542.976 268.018 L542.976 264.082 Q541.518 266.443 539.342 267.578 Q537.166 268.689 534.018 268.689 Q530.037 268.689 527.676 266.467 Q525.338 264.221 525.338 260.471 Q525.338 256.096 528.254 253.874 Q531.194 251.652 537.004 251.652 L542.976 251.652 L542.976 251.235 Q542.976 248.295 541.032 246.698 Q539.111 245.078 535.615 245.078 Q533.393 245.078 531.287 245.61 Q529.18 246.143 527.236 247.207 L527.236 243.272 Q529.574 242.37 531.773 241.93 Q533.972 241.467 536.055 241.467 Q541.68 241.467 544.458 244.383 Q547.236 247.3 547.236 253.226 Z" fill="#000000" fill-rule="nonzero" fill-opacity="1" /><path clip-path="url(#clip080)" d="M573.069 246.027 L573.069 231.999 L577.328 231.999 L577.328 268.018 L573.069 268.018 L573.069 264.129 Q571.726 266.443 569.666 267.578 Q567.629 268.689 564.759 268.689 Q560.06 268.689 557.097 264.939 Q554.157 261.189 554.157 255.078 Q554.157 248.967 557.097 245.217 Q560.06 241.467 564.759 241.467 Q567.629 241.467 569.666 242.601 Q571.726 243.712 573.069 246.027 M558.555 255.078 Q558.555 259.777 560.476 262.462 Q562.421 265.124 565.8 265.124 Q569.18 265.124 571.124 262.462 Q573.069 259.777 573.069 255.078 Q573.069 250.379 571.124 247.717 Q569.18 245.032 565.8 245.032 Q562.421 245.032 560.476 247.717 Q558.555 250.379 558.555 255.078 Z" fill="#000000" fill-rule="nonzero" fill-opacity="1" /><path clip-path="url(#clip080)" d="M601.124 246.073 Q600.407 245.657 599.55 245.471 Q598.717 245.263 597.698 245.263 Q594.087 245.263 592.143 247.624 Q590.222 249.962 590.222 254.36 L590.222 268.018 L585.939 268.018 L585.939 242.092 L590.222 242.092 L590.222 246.12 Q591.564 243.758 593.717 242.624 Q595.87 241.467 598.948 241.467 Q599.388 241.467 599.921 241.536 Q600.453 241.583 601.101 241.698 L601.124 246.073 Z" fill="#000000" fill-rule="nonzero" fill-opacity="1" /><path clip-path="url(#clip080)" d="M617.374 254.985 Q612.212 254.985 610.222 256.166 Q608.231 257.346 608.231 260.194 Q608.231 262.462 609.712 263.805 Q611.217 265.124 613.786 265.124 Q617.328 265.124 619.458 262.624 Q621.61 260.101 621.61 255.934 L621.61 254.985 L617.374 254.985 M625.87 253.226 L625.87 268.018 L621.61 268.018 L621.61 264.082 Q620.152 266.443 617.976 267.578 Q615.8 268.689 612.652 268.689 Q608.671 268.689 606.309 266.467 Q603.972 264.221 603.972 260.471 Q603.972 256.096 606.888 253.874 Q609.828 251.652 615.638 251.652 L621.61 251.652 L621.61 251.235 Q621.61 248.295 619.666 246.698 Q617.745 245.078 614.249 245.078 Q612.027 245.078 609.921 245.61 Q607.814 246.143 605.87 247.207 L605.87 243.272 Q608.208 242.37 610.407 241.93 Q612.606 241.467 614.689 241.467 Q620.314 241.467 623.092 244.383 Q625.87 247.3 625.87 253.226 Z" fill="#000000" fill-rule="nonzero" fill-opacity="1" /><path clip-path="url(#clip080)" d="M638.856 234.731 L638.856 242.092 L647.629 242.092 L647.629 245.402 L638.856 245.402 L638.856 259.476 Q638.856 262.647 639.712 263.55 Q640.592 264.453 643.254 264.453 L647.629 264.453 L647.629 268.018 L643.254 268.018 Q638.323 268.018 636.448 266.189 Q634.573 264.337 634.573 259.476 L634.573 245.402 L631.448 245.402 L631.448 242.092 L634.573 242.092 L634.573 234.731 L638.856 234.731 Z" fill="#000000" fill-rule="nonzero" fill-opacity="1" /><path clip-path="url(#clip080)" d="M653.231 242.092 L657.49 242.092 L657.49 268.018 L653.231 268.018 L653.231 242.092 M653.231 231.999 L657.49 231.999 L657.49 237.393 L653.231 237.393 L653.231 231.999 Z" fill="#000000" fill-rule="nonzero" fill-opacity="1" /><path clip-path="url(#clip080)" d="M685.059 243.087 L685.059 247.069 Q683.254 246.073 681.425 245.587 Q679.619 245.078 677.767 245.078 Q673.624 245.078 671.332 247.717 Q669.041 250.332 669.041 255.078 Q669.041 259.823 671.332 262.462 Q673.624 265.078 677.767 265.078 Q679.619 265.078 681.425 264.592 Q683.254 264.082 685.059 263.087 L685.059 267.022 Q683.277 267.856 681.355 268.272 Q679.457 268.689 677.304 268.689 Q671.448 268.689 667.999 265.008 Q664.55 261.328 664.55 255.078 Q664.55 248.735 668.022 245.101 Q671.517 241.467 677.582 241.467 Q679.55 241.467 681.425 241.883 Q683.3 242.277 685.059 243.087 Z" fill="#000000" fill-rule="nonzero" fill-opacity="1" /></svg>
