<?xml version="1.0" encoding="utf-8"?>
<svg xmlns="http://www.w3.org/2000/svg" xmlns:xlink="http://www.w3.org/1999/xlink" width="600" height="400" viewBox="0 0 2400 1600">
<defs>
  <clipPath id="clip560">
    <rect x="0" y="0" width="2400" height="1600"/>
  </clipPath>
</defs>
<path clip-path="url(#clip560)" d="M0 1600 L2400 1600 L2400 8.88178e-14 L0 8.88178e-14  Z" fill="#ffffff" fill-rule="evenodd" fill-opacity="1"/>
<defs>
  <clipPath id="clip561">
    <rect x="480" y="0" width="1681" height="1600"/>
  </clipPath>
</defs>
<path clip-path="url(#clip560)" d="M199.769 1423.18 L2352.76 1423.18 L2352.76 47.2441 L199.769 47.2441  Z" fill="#ffffff" fill-rule="evenodd" fill-opacity="1"/>
<defs>
  <clipPath id="clip562">
    <rect x="199" y="47" width="2154" height="1377"/>
  </clipPath>
</defs>
<polyline clip-path="url(#clip562)" style="stroke:#000000; stroke-linecap:round; stroke-linejoin:round; stroke-width:2; stroke-opacity:0.1; fill:none" points="199.769,1423.18 199.769,47.2441 "/>
<polyline clip-path="url(#clip562)" style="stroke:#000000; stroke-linecap:round; stroke-linejoin:round; stroke-width:2; stroke-opacity:0.1; fill:none" points="738.016,1423.18 738.016,47.2441 "/>
<polyline clip-path="url(#clip562)" style="stroke:#000000; stroke-linecap:round; stroke-linejoin:round; stroke-width:2; stroke-opacity:0.1; fill:none" points="1276.26,1423.18 1276.26,47.2441 "/>
<polyline clip-path="url(#clip562)" style="stroke:#000000; stroke-linecap:round; stroke-linejoin:round; stroke-width:2; stroke-opacity:0.1; fill:none" points="1814.51,1423.18 1814.51,47.2441 "/>
<polyline clip-path="url(#clip562)" style="stroke:#000000; stroke-linecap:round; stroke-linejoin:round; stroke-width:2; stroke-opacity:0.1; fill:none" points="199.769,1240.01 2352.76,1240.01 "/>
<polyline clip-path="url(#clip562)" style="stroke:#000000; stroke-linecap:round; stroke-linejoin:round; stroke-width:2; stroke-opacity:0.1; fill:none" points="199.769,951.554 2352.76,951.554 "/>
<polyline clip-path="url(#clip562)" style="stroke:#000000; stroke-linecap:round; stroke-linejoin:round; stroke-width:2; stroke-opacity:0.1; fill:none" points="199.769,663.098 2352.76,663.098 "/>
<polyline clip-path="url(#clip562)" style="stroke:#000000; stroke-linecap:round; stroke-linejoin:round; stroke-width:2; stroke-opacity:0.1; fill:none" points="199.769,374.642 2352.76,374.642 "/>
<polyline clip-path="url(#clip562)" style="stroke:#000000; stroke-linecap:round; stroke-linejoin:round; stroke-width:2; stroke-opacity:0.1; fill:none" points="199.769,86.1857 2352.76,86.1857 "/>
<polyline clip-path="url(#clip560)" style="stroke:#000000; stroke-linecap:round; stroke-linejoin:round; stroke-width:4; stroke-opacity:1; fill:none" points="199.769,1423.18 2352.76,1423.18 "/>
<polyline clip-path="url(#clip560)" style="stroke:#000000; stroke-linecap:round; stroke-linejoin:round; stroke-width:4; stroke-opacity:1; fill:none" points="199.769,1423.18 199.769,1404.28 "/>
<polyline clip-path="url(#clip560)" style="stroke:#000000; stroke-linecap:round; stroke-linejoin:round; stroke-width:4; stroke-opacity:1; fill:none" points="738.016,1423.18 738.016,1404.28 "/>
<polyline clip-path="url(#clip560)" style="stroke:#000000; stroke-linecap:round; stroke-linejoin:round; stroke-width:4; stroke-opacity:1; fill:none" points="1276.26,1423.18 1276.26,1404.28 "/>
<polyline clip-path="url(#clip560)" style="stroke:#000000; stroke-linecap:round; stroke-linejoin:round; stroke-width:4; stroke-opacity:1; fill:none" points="1814.51,1423.18 1814.51,1404.28 "/>
<path clip-path="url(#clip560)" d="M162.073 1454.1 Q158.462 1454.1 156.633 1457.66 Q154.827 1461.2 154.827 1468.33 Q154.827 1475.44 156.633 1479.01 Q158.462 1482.55 162.073 1482.55 Q165.707 1482.55 167.513 1479.01 Q169.341 1475.44 169.341 1468.33 Q169.341 1461.2 167.513 1457.66 Q165.707 1454.1 162.073 1454.1 M162.073 1450.39 Q167.883 1450.39 170.938 1455 Q174.017 1459.58 174.017 1468.33 Q174.017 1477.06 170.938 1481.67 Q167.883 1486.25 162.073 1486.25 Q156.263 1486.25 153.184 1481.67 Q150.128 1477.06 150.128 1468.33 Q150.128 1459.58 153.184 1455 Q156.263 1450.39 162.073 1450.39 Z" fill="#000000" fill-rule="nonzero" fill-opacity="1" /><path clip-path="url(#clip560)" d="M182.235 1479.7 L187.119 1479.7 L187.119 1485.58 L182.235 1485.58 L182.235 1479.7 Z" fill="#000000" fill-rule="nonzero" fill-opacity="1" /><path clip-path="url(#clip560)" d="M207.304 1454.1 Q203.693 1454.1 201.864 1457.66 Q200.059 1461.2 200.059 1468.33 Q200.059 1475.44 201.864 1479.01 Q203.693 1482.55 207.304 1482.55 Q210.938 1482.55 212.744 1479.01 Q214.572 1475.44 214.572 1468.33 Q214.572 1461.2 212.744 1457.66 Q210.938 1454.1 207.304 1454.1 M207.304 1450.39 Q213.114 1450.39 216.17 1455 Q219.248 1459.58 219.248 1468.33 Q219.248 1477.06 216.17 1481.67 Q213.114 1486.25 207.304 1486.25 Q201.494 1486.25 198.415 1481.67 Q195.36 1477.06 195.36 1468.33 Q195.36 1459.58 198.415 1455 Q201.494 1450.39 207.304 1450.39 Z" fill="#000000" fill-rule="nonzero" fill-opacity="1" /><path clip-path="url(#clip560)" d="M237.466 1454.1 Q233.855 1454.1 232.026 1457.66 Q230.221 1461.2 230.221 1468.33 Q230.221 1475.44 232.026 1479.01 Q233.855 1482.55 237.466 1482.55 Q241.1 1482.55 242.906 1479.01 Q244.734 1475.44 244.734 1468.33 Q244.734 1461.2 242.906 1457.66 Q241.1 1454.1 237.466 1454.1 M237.466 1450.39 Q243.276 1450.39 246.332 1455 Q249.41 1459.58 249.41 1468.33 Q249.41 1477.06 246.332 1481.67 Q243.276 1486.25 237.466 1486.25 Q231.656 1486.25 228.577 1481.67 Q225.521 1477.06 225.521 1468.33 Q225.521 1459.58 228.577 1455 Q231.656 1450.39 237.466 1450.39 Z" fill="#000000" fill-rule="nonzero" fill-opacity="1" /><path clip-path="url(#clip560)" d="M700.817 1454.1 Q697.206 1454.1 695.377 1457.66 Q693.572 1461.2 693.572 1468.33 Q693.572 1475.44 695.377 1479.01 Q697.206 1482.55 700.817 1482.55 Q704.451 1482.55 706.257 1479.01 Q708.086 1475.44 708.086 1468.33 Q708.086 1461.2 706.257 1457.66 Q704.451 1454.1 700.817 1454.1 M700.817 1450.39 Q706.627 1450.39 709.683 1455 Q712.761 1459.58 712.761 1468.33 Q712.761 1477.06 709.683 1481.67 Q706.627 1486.25 700.817 1486.25 Q695.007 1486.25 691.928 1481.67 Q688.873 1477.06 688.873 1468.33 Q688.873 1459.58 691.928 1455 Q695.007 1450.39 700.817 1450.39 Z" fill="#000000" fill-rule="nonzero" fill-opacity="1" /><path clip-path="url(#clip560)" d="M720.979 1479.7 L725.863 1479.7 L725.863 1485.58 L720.979 1485.58 L720.979 1479.7 Z" fill="#000000" fill-rule="nonzero" fill-opacity="1" /><path clip-path="url(#clip560)" d="M746.048 1454.1 Q742.437 1454.1 740.609 1457.66 Q738.803 1461.2 738.803 1468.33 Q738.803 1475.44 740.609 1479.01 Q742.437 1482.55 746.048 1482.55 Q749.683 1482.55 751.488 1479.01 Q753.317 1475.44 753.317 1468.33 Q753.317 1461.2 751.488 1457.66 Q749.683 1454.1 746.048 1454.1 M746.048 1450.39 Q751.858 1450.39 754.914 1455 Q757.993 1459.58 757.993 1468.33 Q757.993 1477.06 754.914 1481.67 Q751.858 1486.25 746.048 1486.25 Q740.238 1486.25 737.159 1481.67 Q734.104 1477.06 734.104 1468.33 Q734.104 1459.58 737.159 1455 Q740.238 1450.39 746.048 1450.39 Z" fill="#000000" fill-rule="nonzero" fill-opacity="1" /><path clip-path="url(#clip560)" d="M766.257 1451.02 L784.613 1451.02 L784.613 1454.96 L770.539 1454.96 L770.539 1463.43 Q771.557 1463.08 772.576 1462.92 Q773.594 1462.73 774.613 1462.73 Q780.4 1462.73 783.78 1465.9 Q787.159 1469.08 787.159 1474.49 Q787.159 1480.07 783.687 1483.17 Q780.215 1486.25 773.895 1486.25 Q771.719 1486.25 769.451 1485.88 Q767.206 1485.51 764.798 1484.77 L764.798 1480.07 Q766.882 1481.2 769.104 1481.76 Q771.326 1482.32 773.803 1482.32 Q777.807 1482.32 780.145 1480.21 Q782.483 1478.1 782.483 1474.49 Q782.483 1470.88 780.145 1468.77 Q777.807 1466.67 773.803 1466.67 Q771.928 1466.67 770.053 1467.08 Q768.201 1467.5 766.257 1468.38 L766.257 1451.02 Z" fill="#000000" fill-rule="nonzero" fill-opacity="1" /><path clip-path="url(#clip560)" d="M1238.57 1454.1 Q1234.95 1454.1 1233.13 1457.66 Q1231.32 1461.2 1231.32 1468.33 Q1231.32 1475.44 1233.13 1479.01 Q1234.95 1482.55 1238.57 1482.55 Q1242.2 1482.55 1244.01 1479.01 Q1245.83 1475.44 1245.83 1468.33 Q1245.83 1461.2 1244.01 1457.66 Q1242.2 1454.1 1238.57 1454.1 M1238.57 1450.39 Q1244.38 1450.39 1247.43 1455 Q1250.51 1459.58 1250.51 1468.33 Q1250.51 1477.06 1247.43 1481.67 Q1244.38 1486.25 1238.57 1486.25 Q1232.76 1486.25 1229.68 1481.67 Q1226.62 1477.06 1226.62 1468.33 Q1226.62 1459.58 1229.68 1455 Q1232.76 1450.39 1238.57 1450.39 Z" fill="#000000" fill-rule="nonzero" fill-opacity="1" /><path clip-path="url(#clip560)" d="M1258.73 1479.7 L1263.61 1479.7 L1263.61 1485.58 L1258.73 1485.58 L1258.73 1479.7 Z" fill="#000000" fill-rule="nonzero" fill-opacity="1" /><path clip-path="url(#clip560)" d="M1274.61 1481.64 L1282.25 1481.64 L1282.25 1455.28 L1273.94 1456.95 L1273.94 1452.69 L1282.2 1451.02 L1286.88 1451.02 L1286.88 1481.64 L1294.51 1481.64 L1294.51 1485.58 L1274.61 1485.58 L1274.61 1481.64 Z" fill="#000000" fill-rule="nonzero" fill-opacity="1" /><path clip-path="url(#clip560)" d="M1313.96 1454.1 Q1310.35 1454.1 1308.52 1457.66 Q1306.71 1461.2 1306.71 1468.33 Q1306.71 1475.44 1308.52 1479.01 Q1310.35 1482.55 1313.96 1482.55 Q1317.59 1482.55 1319.4 1479.01 Q1321.23 1475.44 1321.23 1468.33 Q1321.23 1461.2 1319.4 1457.66 Q1317.59 1454.1 1313.96 1454.1 M1313.96 1450.39 Q1319.77 1450.39 1322.82 1455 Q1325.9 1459.58 1325.9 1468.33 Q1325.9 1477.06 1322.82 1481.67 Q1319.77 1486.25 1313.96 1486.25 Q1308.15 1486.25 1305.07 1481.67 Q1302.01 1477.06 1302.01 1468.33 Q1302.01 1459.58 1305.07 1455 Q1308.15 1450.39 1313.96 1450.39 Z" fill="#000000" fill-rule="nonzero" fill-opacity="1" /><path clip-path="url(#clip560)" d="M1777.31 1454.1 Q1773.7 1454.1 1771.87 1457.66 Q1770.07 1461.2 1770.07 1468.33 Q1770.07 1475.44 1771.87 1479.01 Q1773.7 1482.55 1777.31 1482.55 Q1780.94 1482.55 1782.75 1479.01 Q1784.58 1475.44 1784.58 1468.33 Q1784.58 1461.2 1782.75 1457.66 Q1780.94 1454.1 1777.31 1454.1 M1777.31 1450.39 Q1783.12 1450.39 1786.18 1455 Q1789.25 1459.58 1789.25 1468.33 Q1789.25 1477.06 1786.18 1481.67 Q1783.12 1486.25 1777.31 1486.25 Q1771.5 1486.25 1768.42 1481.67 Q1765.37 1477.06 1765.37 1468.33 Q1765.37 1459.58 1768.42 1455 Q1771.5 1450.39 1777.31 1450.39 Z" fill="#000000" fill-rule="nonzero" fill-opacity="1" /><path clip-path="url(#clip560)" d="M1797.47 1479.7 L1802.36 1479.7 L1802.36 1485.58 L1797.47 1485.58 L1797.47 1479.7 Z" fill="#000000" fill-rule="nonzero" fill-opacity="1" /><path clip-path="url(#clip560)" d="M1813.35 1481.64 L1820.99 1481.64 L1820.99 1455.28 L1812.68 1456.95 L1812.68 1452.69 L1820.94 1451.02 L1825.62 1451.02 L1825.62 1481.64 L1833.26 1481.64 L1833.26 1485.58 L1813.35 1485.58 L1813.35 1481.64 Z" fill="#000000" fill-rule="nonzero" fill-opacity="1" /><path clip-path="url(#clip560)" d="M1842.75 1451.02 L1861.11 1451.02 L1861.11 1454.96 L1847.03 1454.96 L1847.03 1463.43 Q1848.05 1463.08 1849.07 1462.92 Q1850.09 1462.73 1851.11 1462.73 Q1856.89 1462.73 1860.27 1465.9 Q1863.65 1469.08 1863.65 1474.49 Q1863.65 1480.07 1860.18 1483.17 Q1856.71 1486.25 1850.39 1486.25 Q1848.21 1486.25 1845.94 1485.88 Q1843.7 1485.51 1841.29 1484.77 L1841.29 1480.07 Q1843.37 1481.2 1845.6 1481.76 Q1847.82 1482.32 1850.3 1482.32 Q1854.3 1482.32 1856.64 1480.21 Q1858.98 1478.1 1858.98 1474.49 Q1858.98 1470.88 1856.64 1468.77 Q1854.3 1466.67 1850.3 1466.67 Q1848.42 1466.67 1846.55 1467.08 Q1844.69 1467.5 1842.75 1468.38 L1842.75 1451.02 Z" fill="#000000" fill-rule="nonzero" fill-opacity="1" /><path clip-path="url(#clip560)" d="M1275.32 1522.27 L1275.32 1532.4 L1287.39 1532.4 L1287.39 1536.95 L1275.32 1536.95 L1275.32 1556.3 Q1275.32 1560.66 1276.5 1561.9 Q1277.71 1563.14 1281.37 1563.14 L1287.39 1563.14 L1287.39 1568.04 L1281.37 1568.04 Q1274.59 1568.04 1272.01 1565.53 Q1269.44 1562.98 1269.44 1556.3 L1269.44 1536.95 L1265.14 1536.95 L1265.14 1532.4 L1269.44 1532.4 L1269.44 1522.27 L1275.32 1522.27 Z" fill="#000000" fill-rule="nonzero" fill-opacity="1" /><polyline clip-path="url(#clip560)" style="stroke:#000000; stroke-linecap:round; stroke-linejoin:round; stroke-width:4; stroke-opacity:1; fill:none" points="199.769,1423.18 199.769,47.2441 "/>
<polyline clip-path="url(#clip560)" style="stroke:#000000; stroke-linecap:round; stroke-linejoin:round; stroke-width:4; stroke-opacity:1; fill:none" points="199.769,1240.01 218.667,1240.01 "/>
<polyline clip-path="url(#clip560)" style="stroke:#000000; stroke-linecap:round; stroke-linejoin:round; stroke-width:4; stroke-opacity:1; fill:none" points="199.769,951.554 218.667,951.554 "/>
<polyline clip-path="url(#clip560)" style="stroke:#000000; stroke-linecap:round; stroke-linejoin:round; stroke-width:4; stroke-opacity:1; fill:none" points="199.769,663.098 218.667,663.098 "/>
<polyline clip-path="url(#clip560)" style="stroke:#000000; stroke-linecap:round; stroke-linejoin:round; stroke-width:4; stroke-opacity:1; fill:none" points="199.769,374.642 218.667,374.642 "/>
<polyline clip-path="url(#clip560)" style="stroke:#000000; stroke-linecap:round; stroke-linejoin:round; stroke-width:4; stroke-opacity:1; fill:none" points="199.769,86.1857 218.667,86.1857 "/>
<path clip-path="url(#clip560)" d="M53.3764 1253.36 L61.0152 1253.36 L61.0152 1226.99 L52.7051 1228.66 L52.7051 1224.4 L60.9689 1222.73 L65.6448 1222.73 L65.6448 1253.36 L73.2837 1253.36 L73.2837 1257.29 L53.3764 1257.29 L53.3764 1253.36 Z" fill="#000000" fill-rule="nonzero" fill-opacity="1" /><path clip-path="url(#clip560)" d="M92.728 1225.81 Q89.1169 1225.81 87.2882 1229.37 Q85.4827 1232.92 85.4827 1240.04 Q85.4827 1247.15 87.2882 1250.72 Q89.1169 1254.26 92.728 1254.26 Q96.3623 1254.26 98.1678 1250.72 Q99.9965 1247.15 99.9965 1240.04 Q99.9965 1232.92 98.1678 1229.37 Q96.3623 1225.81 92.728 1225.81 M92.728 1222.11 Q98.5382 1222.11 101.594 1226.71 Q104.672 1231.29 104.672 1240.04 Q104.672 1248.77 101.594 1253.38 Q98.5382 1257.96 92.728 1257.96 Q86.9179 1257.96 83.8392 1253.38 Q80.7836 1248.77 80.7836 1240.04 Q80.7836 1231.29 83.8392 1226.71 Q86.9179 1222.11 92.728 1222.11 Z" fill="#000000" fill-rule="nonzero" fill-opacity="1" /><path clip-path="url(#clip560)" d="M122.89 1225.81 Q119.279 1225.81 117.45 1229.37 Q115.645 1232.92 115.645 1240.04 Q115.645 1247.15 117.45 1250.72 Q119.279 1254.26 122.89 1254.26 Q126.524 1254.26 128.33 1250.72 Q130.158 1247.15 130.158 1240.04 Q130.158 1232.92 128.33 1229.37 Q126.524 1225.81 122.89 1225.81 M122.89 1222.11 Q128.7 1222.11 131.756 1226.71 Q134.834 1231.29 134.834 1240.04 Q134.834 1248.77 131.756 1253.38 Q128.7 1257.96 122.89 1257.96 Q117.08 1257.96 114.001 1253.38 Q110.946 1248.77 110.946 1240.04 Q110.946 1231.29 114.001 1226.71 Q117.08 1222.11 122.89 1222.11 Z" fill="#000000" fill-rule="nonzero" fill-opacity="1" /><path clip-path="url(#clip560)" d="M143.862 1253.36 L151.501 1253.36 L151.501 1226.99 L143.191 1228.66 L143.191 1224.4 L151.455 1222.73 L156.13 1222.73 L156.13 1253.36 L163.769 1253.36 L163.769 1257.29 L143.862 1257.29 L143.862 1253.36 Z" fill="#000000" fill-rule="nonzero" fill-opacity="1" /><path clip-path="url(#clip560)" d="M53.7467 964.899 L61.3856 964.899 L61.3856 938.533 L53.0754 940.2 L53.0754 935.941 L61.3393 934.274 L66.0152 934.274 L66.0152 964.899 L73.654 964.899 L73.654 968.834 L53.7467 968.834 L53.7467 964.899 Z" fill="#000000" fill-rule="nonzero" fill-opacity="1" /><path clip-path="url(#clip560)" d="M93.0984 937.353 Q89.4873 937.353 87.6586 940.918 Q85.8531 944.459 85.8531 951.589 Q85.8531 958.695 87.6586 962.26 Q89.4873 965.802 93.0984 965.802 Q96.7326 965.802 98.5382 962.26 Q100.367 958.695 100.367 951.589 Q100.367 944.459 98.5382 940.918 Q96.7326 937.353 93.0984 937.353 M93.0984 933.649 Q98.9085 933.649 101.964 938.256 Q105.043 942.839 105.043 951.589 Q105.043 960.316 101.964 964.922 Q98.9085 969.505 93.0984 969.505 Q87.2882 969.505 84.2095 964.922 Q81.154 960.316 81.154 951.589 Q81.154 942.839 84.2095 938.256 Q87.2882 933.649 93.0984 933.649 Z" fill="#000000" fill-rule="nonzero" fill-opacity="1" /><path clip-path="url(#clip560)" d="M123.26 937.353 Q119.649 937.353 117.82 940.918 Q116.015 944.459 116.015 951.589 Q116.015 958.695 117.82 962.26 Q119.649 965.802 123.26 965.802 Q126.894 965.802 128.7 962.26 Q130.529 958.695 130.529 951.589 Q130.529 944.459 128.7 940.918 Q126.894 937.353 123.26 937.353 M123.26 933.649 Q129.07 933.649 132.126 938.256 Q135.205 942.839 135.205 951.589 Q135.205 960.316 132.126 964.922 Q129.07 969.505 123.26 969.505 Q117.45 969.505 114.371 964.922 Q111.316 960.316 111.316 951.589 Q111.316 942.839 114.371 938.256 Q117.45 933.649 123.26 933.649 Z" fill="#000000" fill-rule="nonzero" fill-opacity="1" /><path clip-path="url(#clip560)" d="M147.45 964.899 L163.769 964.899 L163.769 968.834 L141.825 968.834 L141.825 964.899 Q144.487 962.144 149.07 957.515 Q153.677 952.862 154.857 951.519 Q157.103 948.996 157.982 947.26 Q158.885 945.501 158.885 943.811 Q158.885 941.056 156.941 939.32 Q155.019 937.584 151.918 937.584 Q149.718 937.584 147.265 938.348 Q144.834 939.112 142.056 940.663 L142.056 935.941 Q144.881 934.806 147.334 934.228 Q149.788 933.649 151.825 933.649 Q157.195 933.649 160.39 936.334 Q163.584 939.019 163.584 943.51 Q163.584 945.64 162.774 947.561 Q161.987 949.459 159.88 952.052 Q159.302 952.723 156.2 955.941 Q153.098 959.135 147.45 964.899 Z" fill="#000000" fill-rule="nonzero" fill-opacity="1" /><path clip-path="url(#clip560)" d="M52.7977 676.443 L60.4365 676.443 L60.4365 650.077 L52.1264 651.744 L52.1264 647.485 L60.3902 645.818 L65.0661 645.818 L65.0661 676.443 L72.705 676.443 L72.705 680.378 L52.7977 680.378 L52.7977 676.443 Z" fill="#000000" fill-rule="nonzero" fill-opacity="1" /><path clip-path="url(#clip560)" d="M92.1493 648.897 Q88.5382 648.897 86.7095 652.461 Q84.904 656.003 84.904 663.133 Q84.904 670.239 86.7095 673.804 Q88.5382 677.346 92.1493 677.346 Q95.7836 677.346 97.5891 673.804 Q99.4178 670.239 99.4178 663.133 Q99.4178 656.003 97.5891 652.461 Q95.7836 648.897 92.1493 648.897 M92.1493 645.193 Q97.9595 645.193 101.015 649.799 Q104.094 654.383 104.094 663.133 Q104.094 671.859 101.015 676.466 Q97.9595 681.049 92.1493 681.049 Q86.3392 681.049 83.2605 676.466 Q80.2049 671.859 80.2049 663.133 Q80.2049 654.383 83.2605 649.799 Q86.3392 645.193 92.1493 645.193 Z" fill="#000000" fill-rule="nonzero" fill-opacity="1" /><path clip-path="url(#clip560)" d="M122.311 648.897 Q118.7 648.897 116.871 652.461 Q115.066 656.003 115.066 663.133 Q115.066 670.239 116.871 673.804 Q118.7 677.346 122.311 677.346 Q125.945 677.346 127.751 673.804 Q129.58 670.239 129.58 663.133 Q129.58 656.003 127.751 652.461 Q125.945 648.897 122.311 648.897 M122.311 645.193 Q128.121 645.193 131.177 649.799 Q134.256 654.383 134.256 663.133 Q134.256 671.859 131.177 676.466 Q128.121 681.049 122.311 681.049 Q116.501 681.049 113.422 676.466 Q110.367 671.859 110.367 663.133 Q110.367 654.383 113.422 649.799 Q116.501 645.193 122.311 645.193 Z" fill="#000000" fill-rule="nonzero" fill-opacity="1" /><path clip-path="url(#clip560)" d="M156.64 661.744 Q159.996 662.461 161.871 664.73 Q163.769 666.998 163.769 670.332 Q163.769 675.447 160.251 678.248 Q156.732 681.049 150.251 681.049 Q148.075 681.049 145.76 680.609 Q143.468 680.193 141.015 679.336 L141.015 674.822 Q142.959 675.957 145.274 676.535 Q147.589 677.114 150.112 677.114 Q154.51 677.114 156.802 675.378 Q159.117 673.642 159.117 670.332 Q159.117 667.276 156.964 665.563 Q154.834 663.827 151.015 663.827 L146.987 663.827 L146.987 659.985 L151.2 659.985 Q154.649 659.985 156.478 658.619 Q158.306 657.23 158.306 654.637 Q158.306 651.975 156.408 650.563 Q154.533 649.128 151.015 649.128 Q149.093 649.128 146.894 649.545 Q144.695 649.961 142.056 650.841 L142.056 646.674 Q144.718 645.934 147.033 645.563 Q149.371 645.193 151.431 645.193 Q156.755 645.193 159.857 647.623 Q162.959 650.031 162.959 654.151 Q162.959 657.022 161.316 659.012 Q159.672 660.98 156.64 661.744 Z" fill="#000000" fill-rule="nonzero" fill-opacity="1" /><path clip-path="url(#clip560)" d="M51.6634 387.987 L59.3023 387.987 L59.3023 361.621 L50.9921 363.288 L50.9921 359.028 L59.256 357.362 L63.9319 357.362 L63.9319 387.987 L71.5707 387.987 L71.5707 391.922 L51.6634 391.922 L51.6634 387.987 Z" fill="#000000" fill-rule="nonzero" fill-opacity="1" /><path clip-path="url(#clip560)" d="M91.0151 360.44 Q87.404 360.44 85.5753 364.005 Q83.7697 367.547 83.7697 374.677 Q83.7697 381.783 85.5753 385.348 Q87.404 388.889 91.0151 388.889 Q94.6493 388.889 96.4548 385.348 Q98.2835 381.783 98.2835 374.677 Q98.2835 367.547 96.4548 364.005 Q94.6493 360.44 91.0151 360.44 M91.0151 356.737 Q96.8252 356.737 99.8808 361.343 Q102.959 365.927 102.959 374.677 Q102.959 383.403 99.8808 388.01 Q96.8252 392.593 91.0151 392.593 Q85.2049 392.593 82.1262 388.01 Q79.0707 383.403 79.0707 374.677 Q79.0707 365.927 82.1262 361.343 Q85.2049 356.737 91.0151 356.737 Z" fill="#000000" fill-rule="nonzero" fill-opacity="1" /><path clip-path="url(#clip560)" d="M121.177 360.44 Q117.566 360.44 115.737 364.005 Q113.932 367.547 113.932 374.677 Q113.932 381.783 115.737 385.348 Q117.566 388.889 121.177 388.889 Q124.811 388.889 126.617 385.348 Q128.445 381.783 128.445 374.677 Q128.445 367.547 126.617 364.005 Q124.811 360.44 121.177 360.44 M121.177 356.737 Q126.987 356.737 130.043 361.343 Q133.121 365.927 133.121 374.677 Q133.121 383.403 130.043 388.01 Q126.987 392.593 121.177 392.593 Q115.367 392.593 112.288 388.01 Q109.233 383.403 109.233 374.677 Q109.233 365.927 112.288 361.343 Q115.367 356.737 121.177 356.737 Z" fill="#000000" fill-rule="nonzero" fill-opacity="1" /><path clip-path="url(#clip560)" d="M154.186 361.436 L142.381 379.885 L154.186 379.885 L154.186 361.436 M152.959 357.362 L158.839 357.362 L158.839 379.885 L163.769 379.885 L163.769 383.774 L158.839 383.774 L158.839 391.922 L154.186 391.922 L154.186 383.774 L138.584 383.774 L138.584 379.26 L152.959 357.362 Z" fill="#000000" fill-rule="nonzero" fill-opacity="1" /><path clip-path="url(#clip560)" d="M53.1449 99.5305 L60.7837 99.5305 L60.7837 73.1649 L52.4736 74.8316 L52.4736 70.5723 L60.7374 68.9057 L65.4133 68.9057 L65.4133 99.5305 L73.0522 99.5305 L73.0522 103.466 L53.1449 103.466 L53.1449 99.5305 Z" fill="#000000" fill-rule="nonzero" fill-opacity="1" /><path clip-path="url(#clip560)" d="M92.4965 71.9844 Q88.8854 71.9844 87.0567 75.5492 Q85.2512 79.0908 85.2512 86.2204 Q85.2512 93.3268 87.0567 96.8916 Q88.8854 100.433 92.4965 100.433 Q96.1308 100.433 97.9363 96.8916 Q99.765 93.3268 99.765 86.2204 Q99.765 79.0908 97.9363 75.5492 Q96.1308 71.9844 92.4965 71.9844 M92.4965 68.2807 Q98.3067 68.2807 101.362 72.8871 Q104.441 77.4704 104.441 86.2204 Q104.441 94.9472 101.362 99.5537 Q98.3067 104.137 92.4965 104.137 Q86.6864 104.137 83.6077 99.5537 Q80.5522 94.9472 80.5522 86.2204 Q80.5522 77.4704 83.6077 72.8871 Q86.6864 68.2807 92.4965 68.2807 Z" fill="#000000" fill-rule="nonzero" fill-opacity="1" /><path clip-path="url(#clip560)" d="M122.658 71.9844 Q119.047 71.9844 117.219 75.5492 Q115.413 79.0908 115.413 86.2204 Q115.413 93.3268 117.219 96.8916 Q119.047 100.433 122.658 100.433 Q126.293 100.433 128.098 96.8916 Q129.927 93.3268 129.927 86.2204 Q129.927 79.0908 128.098 75.5492 Q126.293 71.9844 122.658 71.9844 M122.658 68.2807 Q128.469 68.2807 131.524 72.8871 Q134.603 77.4704 134.603 86.2204 Q134.603 94.9472 131.524 99.5537 Q128.469 104.137 122.658 104.137 Q116.848 104.137 113.77 99.5537 Q110.714 94.9472 110.714 86.2204 Q110.714 77.4704 113.77 72.8871 Q116.848 68.2807 122.658 68.2807 Z" fill="#000000" fill-rule="nonzero" fill-opacity="1" /><path clip-path="url(#clip560)" d="M142.867 68.9057 L161.223 68.9057 L161.223 72.8408 L147.149 72.8408 L147.149 81.313 Q148.168 80.9658 149.186 80.8038 Q150.205 80.6186 151.223 80.6186 Q157.01 80.6186 160.39 83.7899 Q163.769 86.9611 163.769 92.3778 Q163.769 97.9564 160.297 101.058 Q156.825 104.137 150.505 104.137 Q148.33 104.137 146.061 103.767 Q143.816 103.396 141.408 102.655 L141.408 97.9564 Q143.492 99.0907 145.714 99.6462 Q147.936 100.202 150.413 100.202 Q154.417 100.202 156.755 98.0953 Q159.093 95.9889 159.093 92.3778 Q159.093 88.7667 156.755 86.6602 Q154.417 84.5537 150.413 84.5537 Q148.538 84.5537 146.663 84.9704 Q144.811 85.3871 142.867 86.2667 L142.867 68.9057 Z" fill="#000000" fill-rule="nonzero" fill-opacity="1" /><polyline clip-path="url(#clip562)" style="stroke:#009af9; stroke-linecap:round; stroke-linejoin:round; stroke-width:4; stroke-opacity:1; fill:none" points="199.769,86.1857 201.924,130.13 204.08,173.318 206.235,215.749 208.39,257.423 210.545,298.34 212.7,338.501 214.855,377.906 217.01,416.553 219.166,454.444 221.321,491.577 223.476,527.953 225.631,563.576 227.786,598.443 229.941,632.551 232.096,665.9 234.252,698.491 236.407,730.326 238.562,761.405 240.717,791.73 242.872,821.298 245.027,850.108 247.182,878.161 249.338,905.456 251.493,931.994 253.648,957.782 255.803,982.814 257.958,1007.09 260.113,1030.6 262.268,1053.35 264.424,1075.34 266.579,1096.58 268.734,1117.08 270.889,1136.81 273.044,1155.79 275.199,1174 277.354,1191.45 279.51,1208.15 281.665,1224.09 283.82,1239.29 285.975,1253.73 288.13,1267.4 290.285,1280.31 292.44,1292.47 294.596,1303.9 296.751,1314.36 298.906,1323.48 301.061,1331.39 303.216,1338.26 305.371,1344.25 307.526,1349.45 309.682,1353.98 311.837,1357.91 313.992,1361.34 316.147,1364.32 318.302,1366.91 320.457,1369.17 322.612,1371.13 324.768,1372.83 326.923,1374.32 329.078,1375.61 331.233,1376.73 333.388,1377.71 335.543,1378.56 337.698,1379.3 339.854,1379.94 342.009,1380.5 344.164,1380.99 346.319,1381.41 348.474,1381.78 350.629,1382.1 352.784,1382.38 354.94,1382.62 357.095,1382.83 359.25,1383.01 361.405,1383.17 363.56,1383.31 365.715,1383.43 367.87,1383.54 370.025,1383.63 372.181,1383.71 374.336,1383.78 376.491,1383.84 378.646,1383.89 380.801,1383.93 382.956,1383.97 385.111,1384.01 387.267,1384.04 389.422,1384.06 391.577,1384.09 393.732,1384.11 395.887,1384.12 398.042,1384.14 400.197,1384.15 402.353,1384.16 404.508,1384.17 406.663,1384.18 408.818,1384.19 410.973,1384.2 413.128,1384.2 415.283,1384.21 417.439,1384.21 419.594,1384.21 421.749,1384.22 423.904,1384.22 426.059,1384.22 428.214,1384.22 430.369,1384.23 432.525,1384.23 434.68,1384.23 436.835,1384.23 438.99,1384.23 441.145,1384.23 443.3,1384.23 445.455,1384.23 447.611,1384.23 449.766,1384.23 451.921,1384.24 454.076,1384.24 456.231,1384.24 458.386,1384.24 460.541,1384.24 462.697,1384.24 464.852,1384.24 467.007,1384.24 469.162,1384.24 471.317,1384.24 473.472,1384.24 475.627,1384.24 477.783,1384.24 479.938,1384.24 482.093,1384.24 484.248,1384.24 486.403,1384.24 488.558,1384.24 490.713,1384.24 492.869,1384.24 495.024,1384.24 497.179,1384.24 499.334,1384.24 501.489,1384.24 503.644,1384.24 505.799,1384.24 507.955,1384.24 510.11,1384.24 512.265,1384.24 514.42,1384.24 516.575,1384.24 518.73,1384.24 520.885,1384.24 523.041,1384.24 525.196,1384.24 527.351,1384.24 529.506,1384.24 531.661,1384.24 533.816,1384.24 535.971,1384.24 538.127,1384.24 540.282,1384.24 542.437,1384.24 544.592,1384.24 546.747,1384.24 548.902,1384.24 551.057,1384.24 553.213,1384.24 555.368,1384.24 557.523,1384.24 559.678,1384.24 561.833,1384.24 563.988,1384.24 566.143,1384.24 568.299,1384.24 570.454,1384.24 572.609,1384.24 574.764,1384.24 576.919,1384.24 579.074,1384.24 581.229,1384.24 583.385,1384.24 585.54,1384.24 587.695,1384.24 589.85,1384.24 592.005,1384.24 594.16,1384.24 596.315,1384.24 598.471,1384.24 600.626,1384.24 602.781,1384.24 604.936,1384.24 607.091,1384.24 609.246,1384.24 611.401,1384.24 613.557,1384.24 615.712,1384.24 617.867,1384.24 620.022,1384.24 622.177,1384.24 624.332,1384.24 626.487,1384.24 628.643,1384.24 630.798,1384.24 632.953,1384.24 635.108,1384.24 637.263,1384.24 639.418,1384.24 641.573,1384.24 643.728,1384.24 645.884,1384.24 648.039,1384.24 650.194,1384.24 652.349,1384.24 654.504,1384.24 656.659,1384.24 658.814,1384.24 660.97,1384.24 663.125,1384.24 665.28,1384.24 667.435,1384.24 669.59,1384.24 671.745,1384.24 673.9,1384.24 676.056,1384.24 678.211,1384.24 680.366,1384.24 682.521,1384.24 684.676,1384.24 686.831,1384.24 688.986,1384.24 691.142,1384.24 693.297,1384.24 695.452,1384.24 697.607,1384.24 699.762,1384.24 701.917,1384.24 704.072,1384.24 706.228,1384.24 708.383,1384.24 710.538,1384.24 712.693,1384.24 714.848,1384.24 717.003,1384.24 719.158,1384.24 721.314,1384.24 723.469,1384.24 725.624,1384.24 727.779,1384.24 729.934,1384.24 732.089,1384.24 734.244,1384.24 736.4,1384.24 738.555,1384.24 740.71,1384.24 742.865,1384.24 745.02,1384.24 747.175,1384.24 749.33,1384.24 751.486,1384.24 753.641,1384.24 755.796,1384.24 757.951,1384.24 760.106,1384.24 762.261,1384.24 764.416,1384.24 766.572,1384.24 768.727,1384.24 770.882,1384.24 773.037,1384.24 775.192,1384.24 777.347,1384.24 779.502,1384.24 781.658,1384.24 783.813,1384.24 785.968,1384.24 788.123,1384.24 790.278,1384.24 792.433,1384.24 794.588,1384.24 796.744,1384.24 798.899,1384.24 801.054,1384.24 803.209,1384.24 805.364,1384.24 807.519,1384.24 809.674,1384.24 811.83,1384.24 813.985,1384.24 816.14,1384.24 818.295,1384.24 820.45,1384.24 822.605,1384.24 824.76,1384.24 826.916,1384.24 829.071,1384.24 831.226,1384.24 833.381,1384.24 835.536,1384.24 837.691,1384.24 839.846,1384.24 842.002,1384.24 844.157,1384.24 846.312,1384.24 848.467,1384.24 850.622,1384.24 852.777,1384.24 854.932,1384.24 857.088,1384.24 859.243,1384.24 861.398,1384.24 863.553,1384.24 865.708,1384.24 867.863,1384.24 870.018,1384.24 872.174,1384.24 874.329,1384.24 876.484,1384.24 878.639,1384.24 880.794,1384.24 882.949,1384.24 885.104,1384.24 887.26,1384.24 889.415,1384.24 891.57,1384.24 893.725,1384.24 895.88,1384.24 898.035,1384.24 900.19,1384.24 902.346,1384.24 904.501,1384.24 906.656,1384.24 908.811,1384.24 910.966,1384.24 913.121,1384.24 915.276,1384.24 917.432,1384.24 919.587,1384.24 921.742,1384.24 923.897,1384.24 926.052,1384.24 928.207,1384.24 930.362,1384.24 932.517,1384.24 934.673,1384.24 936.828,1384.24 938.983,1384.24 941.138,1384.24 943.293,1384.24 945.448,1384.24 947.603,1384.24 949.759,1384.24 951.914,1384.24 954.069,1384.24 956.224,1384.24 958.379,1384.24 960.534,1384.24 962.689,1384.24 964.845,1384.24 967,1384.24 969.155,1384.24 971.31,1384.24 973.465,1384.24 975.62,1384.24 977.775,1384.24 979.931,1384.24 982.086,1384.24 984.241,1384.24 986.396,1384.24 988.551,1384.24 990.706,1384.24 992.861,1384.24 995.017,1384.24 997.172,1384.24 999.327,1384.24 1001.48,1384.24 1003.64,1384.24 1005.79,1384.24 1007.95,1384.24 1010.1,1384.24 1012.26,1384.24 1014.41,1384.24 1016.57,1384.24 1018.72,1384.24 1020.88,1384.24 1023.03,1384.24 1025.19,1384.24 1027.34,1384.24 1029.5,1384.24 1031.65,1384.24 1033.81,1384.24 1035.96,1384.24 1038.12,1384.24 1040.27,1384.24 1042.43,1384.24 1044.58,1384.24 1046.74,1384.24 1048.9,1384.24 1051.05,1384.24 1053.21,1384.24 1055.36,1384.24 1057.52,1384.24 1059.67,1384.24 1061.83,1384.24 1063.98,1384.24 1066.14,1384.24 1068.29,1384.24 1070.45,1384.24 1072.6,1384.24 1074.76,1384.24 1076.91,1384.24 1079.07,1384.24 1081.22,1384.24 1083.38,1384.24 1085.53,1384.24 1087.69,1384.24 1089.84,1384.24 1092,1384.24 1094.15,1384.24 1096.31,1384.24 1098.46,1384.24 1100.62,1384.24 1102.77,1384.24 1104.93,1384.24 1107.08,1384.24 1109.24,1384.24 1111.39,1384.24 1113.55,1384.24 1115.7,1384.24 1117.86,1384.24 1120.01,1384.24 1122.17,1384.24 1124.33,1384.24 1126.48,1384.24 1128.64,1384.24 1130.79,1384.24 1132.95,1384.24 1135.1,1384.24 1137.26,1384.24 1139.41,1384.24 1141.57,1384.24 1143.72,1384.24 1145.88,1384.24 1148.03,1384.24 1150.19,1384.24 1152.34,1384.24 1154.5,1384.24 1156.65,1384.24 1158.81,1384.24 1160.96,1384.24 1163.12,1384.24 1165.27,1384.24 1167.43,1384.24 1169.58,1384.24 1171.74,1384.24 1173.89,1384.24 1176.05,1384.24 1178.2,1384.24 1180.36,1384.24 1182.51,1384.24 1184.67,1384.24 1186.82,1384.24 1188.98,1384.24 1191.13,1384.24 1193.29,1384.24 1195.44,1384.24 1197.6,1384.24 1199.76,1384.24 1201.91,1384.24 1204.07,1384.24 1206.22,1384.24 1208.38,1384.24 1210.53,1384.24 1212.69,1384.24 1214.84,1384.24 1217,1384.24 1219.15,1384.24 1221.31,1384.24 1223.46,1384.24 1225.62,1384.24 1227.77,1384.24 1229.93,1384.24 1232.08,1384.24 1234.24,1384.24 1236.39,1384.24 1238.55,1384.24 1240.7,1384.24 1242.86,1384.24 1245.01,1384.24 1247.17,1384.24 1249.32,1384.24 1251.48,1384.24 1253.63,1384.24 1255.79,1384.24 1257.94,1384.24 1260.1,1384.24 1262.25,1384.24 1264.41,1384.24 1266.56,1384.24 1268.72,1384.24 1270.87,1384.24 1273.03,1384.24 1275.19,1384.24 1277.34,1384.24 1279.5,1384.24 1281.65,1384.24 1283.81,1384.24 1285.96,1384.24 1288.12,1384.24 1290.27,1384.24 1292.43,1384.24 1294.58,1384.24 1296.74,1384.24 1298.89,1384.24 1301.05,1384.24 1303.2,1384.24 1305.36,1384.24 1307.51,1384.24 1309.67,1384.24 1311.82,1384.24 1313.98,1384.24 1316.13,1384.24 1318.29,1384.24 1320.44,1384.24 1322.6,1384.24 1324.75,1384.24 1326.91,1384.24 1329.06,1384.24 1331.22,1384.24 1333.37,1384.24 1335.53,1384.24 1337.68,1384.24 1339.84,1384.24 1341.99,1384.24 1344.15,1384.24 1346.3,1384.24 1348.46,1384.24 1350.61,1384.24 1352.77,1384.24 1354.93,1384.24 1357.08,1384.24 1359.24,1384.24 1361.39,1384.24 1363.55,1384.24 1365.7,1384.24 1367.86,1384.24 1370.01,1384.24 1372.17,1384.24 1374.32,1384.24 1376.48,1384.24 1378.63,1384.24 1380.79,1384.24 1382.94,1384.24 1385.1,1384.24 1387.25,1384.24 1389.41,1384.24 1391.56,1384.24 1393.72,1384.24 1395.87,1384.24 1398.03,1384.24 1400.18,1384.24 1402.34,1384.24 1404.49,1384.24 1406.65,1384.24 1408.8,1384.24 1410.96,1384.24 1413.11,1384.24 1415.27,1384.24 1417.42,1384.24 1419.58,1384.24 1421.73,1384.24 1423.89,1384.24 1426.04,1384.24 1428.2,1384.24 1430.36,1384.24 1432.51,1384.24 1434.67,1384.24 1436.82,1384.24 1438.98,1384.24 1441.13,1384.24 1443.29,1384.24 1445.44,1384.24 1447.6,1384.24 1449.75,1384.24 1451.91,1384.24 1454.06,1384.24 1456.22,1384.24 1458.37,1384.24 1460.53,1384.24 1462.68,1384.24 1464.84,1384.24 1466.99,1384.24 1469.15,1384.24 1471.3,1384.24 1473.46,1384.24 1475.61,1384.24 1477.77,1384.24 1479.92,1384.24 1482.08,1384.24 1484.23,1384.24 1486.39,1384.24 1488.54,1384.24 1490.7,1384.24 1492.85,1384.24 1495.01,1384.24 1497.16,1384.24 1499.32,1384.24 1501.47,1384.24 1503.63,1384.24 1505.79,1384.24 1507.94,1384.24 1510.1,1384.24 1512.25,1384.24 1514.41,1384.24 1516.56,1384.24 1518.72,1384.24 1520.87,1384.24 1523.03,1384.24 1525.18,1384.24 1527.34,1384.24 1529.49,1384.24 1531.65,1384.24 1533.8,1384.24 1535.96,1384.24 1538.11,1384.24 1540.27,1384.24 1542.42,1384.24 1544.58,1384.24 1546.73,1384.24 1548.89,1384.24 1551.04,1384.24 1553.2,1384.24 1555.35,1384.24 1557.51,1384.24 1559.66,1384.24 1561.82,1384.24 1563.97,1384.24 1566.13,1384.24 1568.28,1384.24 1570.44,1384.24 1572.59,1384.24 1574.75,1384.24 1576.9,1384.24 1579.06,1384.24 1581.22,1384.24 1583.37,1384.24 1585.53,1384.24 1587.68,1384.24 1589.84,1384.24 1591.99,1384.24 1594.15,1384.24 1596.3,1384.24 1598.46,1384.24 1600.61,1384.24 1602.77,1384.24 1604.92,1384.24 1607.08,1384.24 1609.23,1384.24 1611.39,1384.24 1613.54,1384.24 1615.7,1384.24 1617.85,1384.24 1620.01,1384.24 1622.16,1384.24 1624.32,1384.24 1626.47,1384.24 1628.63,1384.24 1630.78,1384.24 1632.94,1384.24 1635.09,1384.24 1637.25,1384.24 1639.4,1384.24 1641.56,1384.24 1643.71,1384.24 1645.87,1384.24 1648.02,1384.24 1650.18,1384.24 1652.33,1384.24 1654.49,1384.24 1656.65,1384.24 1658.8,1384.24 1660.96,1384.24 1663.11,1384.24 1665.27,1384.24 1667.42,1384.24 1669.58,1384.24 1671.73,1384.24 1673.89,1384.24 1676.04,1384.24 1678.2,1384.24 1680.35,1384.24 1682.51,1384.24 1684.66,1384.24 1686.82,1384.24 1688.97,1384.24 1691.13,1384.24 1693.28,1384.24 1695.44,1384.24 1697.59,1384.24 1699.75,1384.24 1701.9,1384.24 1704.06,1384.24 1706.21,1384.24 1708.37,1384.24 1710.52,1384.24 1712.68,1384.24 1714.83,1384.24 1716.99,1384.24 1719.14,1384.24 1721.3,1384.24 1723.45,1384.24 1725.61,1384.24 1727.76,1384.24 1729.92,1384.24 1732.08,1384.24 1734.23,1384.24 1736.39,1384.24 1738.54,1384.24 1740.7,1384.24 1742.85,1384.24 1745.01,1384.24 1747.16,1384.24 1749.32,1384.24 1751.47,1384.24 1753.63,1384.24 1755.78,1384.24 1757.94,1384.24 1760.09,1384.24 1762.25,1384.24 1764.4,1384.24 1766.56,1384.24 1768.71,1384.24 1770.87,1384.24 1773.02,1384.24 1775.18,1384.24 1777.33,1384.24 1779.49,1384.24 1781.64,1384.24 1783.8,1384.24 1785.95,1384.24 1788.11,1384.24 1790.26,1384.24 1792.42,1384.24 1794.57,1384.24 1796.73,1384.24 1798.88,1384.24 1801.04,1384.24 1803.19,1384.24 1805.35,1384.24 1807.51,1384.24 1809.66,1384.24 1811.82,1384.24 1813.97,1384.24 1816.13,1384.24 1818.28,1384.24 1820.44,1384.24 1822.59,1384.24 1824.75,1384.24 1826.9,1384.24 1829.06,1384.24 1831.21,1384.24 1833.37,1384.24 1835.52,1384.24 1837.68,1384.24 1839.83,1384.24 1841.99,1384.24 1844.14,1384.24 1846.3,1384.24 1848.45,1384.24 1850.61,1384.24 1852.76,1384.24 1854.92,1384.24 1857.07,1384.24 1859.23,1384.24 1861.38,1384.24 1863.54,1384.24 1865.69,1384.24 1867.85,1384.24 1870,1384.24 1872.16,1384.24 1874.31,1384.24 1876.47,1384.24 1878.62,1384.24 1880.78,1384.24 1882.94,1384.24 1885.09,1384.24 1887.25,1384.24 1889.4,1384.24 1891.56,1384.24 1893.71,1384.24 1895.87,1384.24 1898.02,1384.24 1900.18,1384.24 1902.33,1384.24 1904.49,1384.24 1906.64,1384.24 1908.8,1384.24 1910.95,1384.24 1913.11,1384.24 1915.26,1384.24 1917.42,1384.24 1919.57,1384.24 1921.73,1384.24 1923.88,1384.24 1926.04,1384.24 1928.19,1384.24 1930.35,1384.24 1932.5,1384.24 1934.66,1384.24 1936.81,1384.24 1938.97,1384.24 1941.12,1384.24 1943.28,1384.24 1945.43,1384.24 1947.59,1384.24 1949.74,1384.24 1951.9,1384.24 1954.05,1384.24 1956.21,1384.24 1958.36,1384.24 1960.52,1384.24 1962.68,1384.24 1964.83,1384.24 1966.99,1384.24 1969.14,1384.24 1971.3,1384.24 1973.45,1384.24 1975.61,1384.24 1977.76,1384.24 1979.92,1384.24 1982.07,1384.24 1984.23,1384.24 1986.38,1384.24 1988.54,1384.24 1990.69,1384.24 1992.85,1384.24 1995,1384.24 1997.16,1384.24 1999.31,1384.24 2001.47,1384.24 2003.62,1384.24 2005.78,1384.24 2007.93,1384.24 2010.09,1384.24 2012.24,1384.24 2014.4,1384.24 2016.55,1384.24 2018.71,1384.24 2020.86,1384.24 2023.02,1384.24 2025.17,1384.24 2027.33,1384.24 2029.48,1384.24 2031.64,1384.24 2033.79,1384.24 2035.95,1384.24 2038.11,1384.24 2040.26,1384.24 2042.42,1384.24 2044.57,1384.24 2046.73,1384.24 2048.88,1384.24 2051.04,1384.24 2053.19,1384.24 2055.35,1384.24 2057.5,1384.24 2059.66,1384.24 2061.81,1384.24 2063.97,1384.24 2066.12,1384.24 2068.28,1384.24 2070.43,1384.24 2072.59,1384.24 2074.74,1384.24 2076.9,1384.24 2079.05,1384.24 2081.21,1384.24 2083.36,1384.24 2085.52,1384.24 2087.67,1384.24 2089.83,1384.24 2091.98,1384.24 2094.14,1384.24 2096.29,1384.24 2098.45,1384.24 2100.6,1384.24 2102.76,1384.24 2104.91,1384.24 2107.07,1384.24 2109.22,1384.24 2111.38,1384.24 2113.54,1384.24 2115.69,1384.24 2117.85,1384.24 2120,1384.24 2122.16,1384.24 2124.31,1384.24 2126.47,1384.24 2128.62,1384.24 2130.78,1384.24 2132.93,1384.24 2135.09,1384.24 2137.24,1384.24 2139.4,1384.24 2141.55,1384.24 2143.71,1384.24 2145.86,1384.24 2148.02,1384.24 2150.17,1384.24 2152.33,1384.24 2154.48,1384.24 2156.64,1384.24 2158.79,1384.24 2160.95,1384.24 2163.1,1384.24 2165.26,1384.24 2167.41,1384.24 2169.57,1384.24 2171.72,1384.24 2173.88,1384.24 2176.03,1384.24 2178.19,1384.24 2180.34,1384.24 2182.5,1384.24 2184.65,1384.24 2186.81,1384.24 2188.97,1384.24 2191.12,1384.24 2193.28,1384.24 2195.43,1384.24 2197.59,1384.24 2199.74,1384.24 2201.9,1384.24 2204.05,1384.24 2206.21,1384.24 2208.36,1384.24 2210.52,1384.24 2212.67,1384.24 2214.83,1384.24 2216.98,1384.24 2219.14,1384.24 2221.29,1384.24 2223.45,1384.24 2225.6,1384.24 2227.76,1384.24 2229.91,1384.24 2232.07,1384.24 2234.22,1384.24 2236.38,1384.24 2238.53,1384.24 2240.69,1384.24 2242.84,1384.24 2245,1384.24 2247.15,1384.24 2249.31,1384.24 2251.46,1384.24 2253.62,1384.24 2255.77,1384.24 2257.93,1384.24 2260.08,1384.24 2262.24,1384.24 2264.4,1384.24 2266.55,1384.24 2268.71,1384.24 2270.86,1384.24 2273.02,1384.24 2275.17,1384.24 2277.33,1384.24 2279.48,1384.24 2281.64,1384.24 2283.79,1384.24 2285.95,1384.24 2288.1,1384.24 2290.26,1384.24 2292.41,1384.24 2294.57,1384.24 2296.72,1384.24 2298.88,1384.24 2301.03,1384.24 2303.19,1384.24 2305.34,1384.24 2307.5,1384.24 2309.65,1384.24 2311.81,1384.24 2313.96,1384.24 2316.12,1384.24 2318.27,1384.24 2320.43,1384.24 2322.58,1384.24 2324.74,1384.24 2326.89,1384.24 2329.05,1384.24 2331.2,1384.24 2333.36,1384.24 2335.51,1384.24 2337.67,1384.24 2339.83,1384.24 2341.98,1384.24 2344.14,1384.24 2346.29,1384.24 2348.45,1384.24 2350.6,1384.24 2352.76,1384.24 "/>
<polyline clip-path="url(#clip562)" style="stroke:#e26f46; stroke-linecap:round; stroke-linejoin:round; stroke-width:4; stroke-opacity:1; fill:none" points="199.769,86.1857 201.924,130.13 204.08,173.318 206.235,215.749 208.39,257.423 210.545,298.34 212.7,338.501 214.855,377.906 217.01,416.553 219.166,454.444 221.321,491.577 223.476,527.953 225.631,563.576 227.786,598.443 229.941,632.551 232.096,665.9 234.252,698.491 236.407,730.326 238.562,761.405 240.717,791.73 242.872,821.298 245.027,850.108 247.182,878.161 249.338,905.456 251.493,931.994 253.648,957.782 255.803,982.814 257.958,1007.09 260.113,1030.6 262.268,1053.35 264.424,1075.34 266.579,1096.58 268.734,1117.08 270.889,1136.81 273.044,1155.79 275.199,1174 277.354,1191.45 279.51,1208.15 281.665,1224.09 283.82,1239.29 285.975,1253.73 288.13,1267.4 290.285,1280.31 292.44,1292.48 294.596,1303.88 296.751,1314.02 298.906,1322.42 301.061,1329.66 303.216,1335.98 305.371,1341.56 307.526,1346.5 309.682,1350.88 311.837,1354.77 313.992,1358.23 316.147,1361.3 318.302,1364.02 320.457,1366.44 322.612,1368.59 324.768,1370.49 326.923,1372.16 329.078,1373.65 331.233,1374.96 333.388,1376.11 335.543,1377.12 337.698,1378.02 339.854,1378.8 342.009,1379.49 344.164,1380.09 346.319,1380.62 348.474,1381.08 350.629,1381.48 352.784,1381.83 354.94,1382.14 357.095,1382.41 359.25,1382.65 361.405,1382.85 363.56,1383.03 365.715,1383.19 367.87,1383.32 370.025,1383.44 372.181,1383.54 374.336,1383.63 376.491,1383.71 378.646,1383.78 380.801,1383.84 382.956,1383.89 385.111,1383.94 387.267,1383.98 389.422,1384.01 391.577,1384.04 393.732,1384.07 395.887,1384.09 398.042,1384.11 400.197,1384.12 402.353,1384.14 404.508,1384.15 406.663,1384.16 408.818,1384.17 410.973,1384.18 413.128,1384.19 415.283,1384.2 417.439,1384.2 419.594,1384.21 421.749,1384.21 423.904,1384.21 426.059,1384.22 428.214,1384.22 430.369,1384.22 432.525,1384.22 434.68,1384.23 436.835,1384.23 438.99,1384.23 441.145,1384.23 443.3,1384.23 445.455,1384.23 447.611,1384.23 449.766,1384.23 451.921,1384.23 454.076,1384.23 456.231,1384.24 458.386,1384.24 460.541,1384.24 462.697,1384.24 464.852,1384.24 467.007,1384.24 469.162,1384.24 471.317,1384.24 473.472,1384.24 475.627,1384.24 477.783,1384.24 479.938,1384.24 482.093,1384.24 484.248,1384.24 486.403,1384.24 488.558,1384.24 490.713,1384.24 492.869,1384.24 495.024,1384.24 497.179,1384.24 499.334,1384.24 501.489,1384.24 503.644,1384.24 505.799,1384.24 507.955,1384.24 510.11,1384.24 512.265,1384.24 514.42,1384.24 516.575,1384.24 518.73,1384.24 520.885,1384.24 523.041,1384.24 525.196,1384.24 527.351,1384.24 529.506,1384.24 531.661,1384.24 533.816,1384.24 535.971,1384.24 538.127,1384.24 540.282,1384.24 542.437,1384.24 544.592,1384.24 546.747,1384.24 548.902,1384.24 551.057,1384.24 553.213,1384.24 555.368,1384.24 557.523,1384.24 559.678,1384.24 561.833,1384.24 563.988,1384.24 566.143,1384.24 568.299,1384.24 570.454,1384.24 572.609,1384.24 574.764,1384.24 576.919,1384.24 579.074,1384.24 581.229,1384.24 583.385,1384.24 585.54,1384.24 587.695,1384.24 589.85,1384.24 592.005,1384.24 594.16,1384.24 596.315,1384.24 598.471,1384.24 600.626,1384.24 602.781,1384.24 604.936,1384.24 607.091,1384.24 609.246,1384.24 611.401,1384.24 613.557,1384.24 615.712,1384.24 617.867,1384.24 620.022,1384.24 622.177,1384.24 624.332,1384.24 626.487,1384.24 628.643,1384.24 630.798,1384.24 632.953,1384.24 635.108,1384.24 637.263,1384.24 639.418,1384.24 641.573,1384.24 643.728,1384.24 645.884,1384.24 648.039,1384.24 650.194,1384.24 652.349,1384.24 654.504,1384.24 656.659,1384.24 658.814,1384.24 660.97,1384.24 663.125,1384.24 665.28,1384.24 667.435,1384.24 669.59,1384.24 671.745,1384.24 673.9,1384.24 676.056,1384.24 678.211,1384.24 680.366,1384.24 682.521,1384.24 684.676,1384.24 686.831,1384.24 688.986,1384.24 691.142,1384.24 693.297,1384.24 695.452,1384.24 697.607,1384.24 699.762,1384.24 701.917,1384.24 704.072,1384.24 706.228,1384.24 708.383,1384.24 710.538,1384.24 712.693,1384.24 714.848,1384.24 717.003,1384.24 719.158,1384.24 721.314,1384.24 723.469,1384.24 725.624,1384.24 727.779,1384.24 729.934,1384.24 732.089,1384.24 734.244,1384.24 736.4,1384.24 738.555,1384.24 740.71,1384.24 742.865,1384.24 745.02,1384.24 747.175,1384.24 749.33,1384.24 751.486,1384.24 753.641,1384.24 755.796,1384.24 757.951,1384.24 760.106,1384.24 762.261,1384.24 764.416,1384.24 766.572,1384.24 768.727,1384.24 770.882,1384.24 773.037,1384.24 775.192,1384.24 777.347,1384.24 779.502,1384.24 781.658,1384.24 783.813,1384.24 785.968,1384.24 788.123,1384.24 790.278,1384.24 792.433,1384.24 794.588,1384.24 796.744,1384.24 798.899,1384.24 801.054,1384.24 803.209,1384.24 805.364,1384.24 807.519,1384.24 809.674,1384.24 811.83,1384.24 813.985,1384.24 816.14,1384.24 818.295,1384.24 820.45,1384.24 822.605,1384.24 824.76,1384.24 826.916,1384.24 829.071,1384.24 831.226,1384.24 833.381,1384.24 835.536,1384.24 837.691,1384.24 839.846,1384.24 842.002,1384.24 844.157,1384.24 846.312,1384.24 848.467,1384.24 850.622,1384.24 852.777,1384.24 854.932,1384.24 857.088,1384.24 859.243,1384.24 861.398,1384.24 863.553,1384.24 865.708,1384.24 867.863,1384.24 870.018,1384.24 872.174,1384.24 874.329,1384.24 876.484,1384.24 878.639,1384.24 880.794,1384.24 882.949,1384.24 885.104,1384.24 887.26,1384.24 889.415,1384.24 891.57,1384.24 893.725,1384.24 895.88,1384.24 898.035,1384.24 900.19,1384.24 902.346,1384.24 904.501,1384.24 906.656,1384.24 908.811,1384.24 910.966,1384.24 913.121,1384.24 915.276,1384.24 917.432,1384.24 919.587,1384.24 921.742,1384.24 923.897,1384.24 926.052,1384.24 928.207,1384.24 930.362,1384.24 932.517,1384.24 934.673,1384.24 936.828,1384.24 938.983,1384.24 941.138,1384.24 943.293,1384.24 945.448,1384.24 947.603,1384.24 949.759,1384.24 951.914,1384.24 954.069,1384.24 956.224,1384.24 958.379,1384.24 960.534,1384.24 962.689,1384.24 964.845,1384.24 967,1384.24 969.155,1384.24 971.31,1384.24 973.465,1384.24 975.62,1384.24 977.775,1384.24 979.931,1384.24 982.086,1384.24 984.241,1384.24 986.396,1384.24 988.551,1384.24 990.706,1384.24 992.861,1384.24 995.017,1384.24 997.172,1384.24 999.327,1384.24 1001.48,1384.24 1003.64,1384.24 1005.79,1384.24 1007.95,1384.24 1010.1,1384.24 1012.26,1384.24 1014.41,1384.24 1016.57,1384.24 1018.72,1384.24 1020.88,1384.24 1023.03,1384.24 1025.19,1384.24 1027.34,1384.24 1029.5,1384.24 1031.65,1384.24 1033.81,1384.24 1035.96,1384.24 1038.12,1384.24 1040.27,1384.24 1042.43,1384.24 1044.58,1384.24 1046.74,1384.24 1048.9,1384.24 1051.05,1384.24 1053.21,1384.24 1055.36,1384.24 1057.52,1384.24 1059.67,1384.24 1061.83,1384.24 1063.98,1384.24 1066.14,1384.24 1068.29,1384.24 1070.45,1384.24 1072.6,1384.24 1074.76,1384.24 1076.91,1384.24 1079.07,1384.24 1081.22,1384.24 1083.38,1384.24 1085.53,1384.24 1087.69,1384.24 1089.84,1384.24 1092,1384.24 1094.15,1384.24 1096.31,1384.24 1098.46,1384.24 1100.62,1384.24 1102.77,1384.24 1104.93,1384.24 1107.08,1384.24 1109.24,1384.24 1111.39,1384.24 1113.55,1384.24 1115.7,1384.24 1117.86,1384.24 1120.01,1384.24 1122.17,1384.24 1124.33,1384.24 1126.48,1384.24 1128.64,1384.24 1130.79,1384.24 1132.95,1384.24 1135.1,1384.24 1137.26,1384.24 1139.41,1384.24 1141.57,1384.24 1143.72,1384.24 1145.88,1384.24 1148.03,1384.24 1150.19,1384.24 1152.34,1384.24 1154.5,1384.24 1156.65,1384.24 1158.81,1384.24 1160.96,1384.24 1163.12,1384.24 1165.27,1384.24 1167.43,1384.24 1169.58,1384.24 1171.74,1384.24 1173.89,1384.24 1176.05,1384.24 1178.2,1384.24 1180.36,1384.24 1182.51,1384.24 1184.67,1384.24 1186.82,1384.24 1188.98,1384.24 1191.13,1384.24 1193.29,1384.24 1195.44,1384.24 1197.6,1384.24 1199.76,1384.24 1201.91,1384.24 1204.07,1384.24 1206.22,1384.24 1208.38,1384.24 1210.53,1384.24 1212.69,1384.24 1214.84,1384.24 1217,1384.24 1219.15,1384.24 1221.31,1384.24 1223.46,1384.24 1225.62,1384.24 1227.77,1384.24 1229.93,1384.24 1232.08,1384.24 1234.24,1384.24 1236.39,1384.24 1238.55,1384.24 1240.7,1384.24 1242.86,1384.24 1245.01,1384.24 1247.17,1384.24 1249.32,1384.24 1251.48,1384.24 1253.63,1384.24 1255.79,1384.24 1257.94,1384.24 1260.1,1384.24 1262.25,1384.24 1264.41,1384.24 1266.56,1384.24 1268.72,1384.24 1270.87,1384.24 1273.03,1384.24 1275.19,1384.24 1277.34,1384.24 1279.5,1384.24 1281.65,1384.24 1283.81,1384.24 1285.96,1384.24 1288.12,1384.24 1290.27,1384.24 1292.43,1384.24 1294.58,1384.24 1296.74,1384.24 1298.89,1384.24 1301.05,1384.24 1303.2,1384.24 1305.36,1384.24 1307.51,1384.24 1309.67,1384.24 1311.82,1384.24 1313.98,1384.24 1316.13,1384.24 1318.29,1384.24 1320.44,1384.24 1322.6,1384.24 1324.75,1384.24 1326.91,1384.24 1329.06,1384.24 1331.22,1384.24 1333.37,1384.24 1335.53,1384.24 1337.68,1384.24 1339.84,1384.24 1341.99,1384.24 1344.15,1384.24 1346.3,1384.24 1348.46,1384.24 1350.61,1384.24 1352.77,1384.24 1354.93,1384.24 1357.08,1384.24 1359.24,1384.24 1361.39,1384.24 1363.55,1384.24 1365.7,1384.24 1367.86,1384.24 1370.01,1384.24 1372.17,1384.24 1374.32,1384.24 1376.48,1384.24 1378.63,1384.24 1380.79,1384.24 1382.94,1384.24 1385.1,1384.24 1387.25,1384.24 1389.41,1384.24 1391.56,1384.24 1393.72,1384.24 1395.87,1384.24 1398.03,1384.24 1400.18,1384.24 1402.34,1384.24 1404.49,1384.24 1406.65,1384.24 1408.8,1384.24 1410.96,1384.24 1413.11,1384.24 1415.27,1384.24 1417.42,1384.24 1419.58,1384.24 1421.73,1384.24 1423.89,1384.24 1426.04,1384.24 1428.2,1384.24 1430.36,1384.24 1432.51,1384.24 1434.67,1384.24 1436.82,1384.24 1438.98,1384.24 1441.13,1384.24 1443.29,1384.24 1445.44,1384.24 1447.6,1384.24 1449.75,1384.24 1451.91,1384.24 1454.06,1384.24 1456.22,1384.24 1458.37,1384.24 1460.53,1384.24 1462.68,1384.24 1464.84,1384.24 1466.99,1384.24 1469.15,1384.24 1471.3,1384.24 1473.46,1384.24 1475.61,1384.24 1477.77,1384.24 1479.92,1384.24 1482.08,1384.24 1484.23,1384.24 1486.39,1384.24 1488.54,1384.24 1490.7,1384.24 1492.85,1384.24 1495.01,1384.24 1497.16,1384.24 1499.32,1384.24 1501.47,1384.24 1503.63,1384.24 1505.79,1384.24 1507.94,1384.24 1510.1,1384.24 1512.25,1384.24 1514.41,1384.24 1516.56,1384.24 1518.72,1384.24 1520.87,1384.24 1523.03,1384.24 1525.18,1384.24 1527.34,1384.24 1529.49,1384.24 1531.65,1384.24 1533.8,1384.24 1535.96,1384.24 1538.11,1384.24 1540.27,1384.24 1542.42,1384.24 1544.58,1384.24 1546.73,1384.24 1548.89,1384.24 1551.04,1384.24 1553.2,1384.24 1555.35,1384.24 1557.51,1384.24 1559.66,1384.24 1561.82,1384.24 1563.97,1384.24 1566.13,1384.24 1568.28,1384.24 1570.44,1384.24 1572.59,1384.24 1574.75,1384.24 1576.9,1384.24 1579.06,1384.24 1581.22,1384.24 1583.37,1384.24 1585.53,1384.24 1587.68,1384.24 1589.84,1384.24 1591.99,1384.24 1594.15,1384.24 1596.3,1384.24 1598.46,1384.24 1600.61,1384.24 1602.77,1384.24 1604.92,1384.24 1607.08,1384.24 1609.23,1384.24 1611.39,1384.24 1613.54,1384.24 1615.7,1384.24 1617.85,1384.24 1620.01,1384.24 1622.16,1384.24 1624.32,1384.24 1626.47,1384.24 1628.63,1384.24 1630.78,1384.24 1632.94,1384.24 1635.09,1384.24 1637.25,1384.24 1639.4,1384.24 1641.56,1384.24 1643.71,1384.24 1645.87,1384.24 1648.02,1384.24 1650.18,1384.24 1652.33,1384.24 1654.49,1384.24 1656.65,1384.24 1658.8,1384.24 1660.96,1384.24 1663.11,1384.24 1665.27,1384.24 1667.42,1384.24 1669.58,1384.24 1671.73,1384.24 1673.89,1384.24 1676.04,1384.24 1678.2,1384.24 1680.35,1384.24 1682.51,1384.24 1684.66,1384.24 1686.82,1384.24 1688.97,1384.24 1691.13,1384.24 1693.28,1384.24 1695.44,1384.24 1697.59,1384.24 1699.75,1384.24 1701.9,1384.24 1704.06,1384.24 1706.21,1384.24 1708.37,1384.24 1710.52,1384.24 1712.68,1384.24 1714.83,1384.24 1716.99,1384.24 1719.14,1384.24 1721.3,1384.24 1723.45,1384.24 1725.61,1384.24 1727.76,1384.24 1729.92,1384.24 1732.08,1384.24 1734.23,1384.24 1736.39,1384.24 1738.54,1384.24 1740.7,1384.24 1742.85,1384.24 1745.01,1384.24 1747.16,1384.24 1749.32,1384.24 1751.47,1384.24 1753.63,1384.24 1755.78,1384.24 1757.94,1384.24 1760.09,1384.24 1762.25,1384.24 1764.4,1384.24 1766.56,1384.24 1768.71,1384.24 1770.87,1384.24 1773.02,1384.24 1775.18,1384.24 1777.33,1384.24 1779.49,1384.24 1781.64,1384.24 1783.8,1384.24 1785.95,1384.24 1788.11,1384.24 1790.26,1384.24 1792.42,1384.24 1794.57,1384.24 1796.73,1384.24 1798.88,1384.24 1801.04,1384.24 1803.19,1384.24 1805.35,1384.24 1807.51,1384.24 1809.66,1384.24 1811.82,1384.24 1813.97,1384.24 1816.13,1384.24 1818.28,1384.24 1820.44,1384.24 1822.59,1384.24 1824.75,1384.24 1826.9,1384.24 1829.06,1384.24 1831.21,1384.24 1833.37,1384.24 1835.52,1384.24 1837.68,1384.24 1839.83,1384.24 1841.99,1384.24 1844.14,1384.24 1846.3,1384.24 1848.45,1384.24 1850.61,1384.24 1852.76,1384.24 1854.92,1384.24 1857.07,1384.24 1859.23,1384.24 1861.38,1384.24 1863.54,1384.24 1865.69,1384.24 1867.85,1384.24 1870,1384.24 1872.16,1384.24 1874.31,1384.24 1876.47,1384.24 1878.62,1384.24 1880.78,1384.24 1882.94,1384.24 1885.09,1384.24 1887.25,1384.24 1889.4,1384.24 1891.56,1384.24 1893.71,1384.24 1895.87,1384.24 1898.02,1384.24 1900.18,1384.24 1902.33,1384.24 1904.49,1384.24 1906.64,1384.24 1908.8,1384.24 1910.95,1384.24 1913.11,1384.24 1915.26,1384.24 1917.42,1384.24 1919.57,1384.24 1921.73,1384.24 1923.88,1384.24 1926.04,1384.24 1928.19,1384.24 1930.35,1384.24 1932.5,1384.24 1934.66,1384.24 1936.81,1384.24 1938.97,1384.24 1941.12,1384.24 1943.28,1384.24 1945.43,1384.24 1947.59,1384.24 1949.74,1384.24 1951.9,1384.24 1954.05,1384.24 1956.21,1384.24 1958.36,1384.24 1960.52,1384.24 1962.68,1384.24 1964.83,1384.24 1966.99,1384.24 1969.14,1384.24 1971.3,1384.24 1973.45,1384.24 1975.61,1384.24 1977.76,1384.24 1979.92,1384.24 1982.07,1384.24 1984.23,1384.24 1986.38,1384.24 1988.54,1384.24 1990.69,1384.24 1992.85,1384.24 1995,1384.24 1997.16,1384.24 1999.31,1384.24 2001.47,1384.24 2003.62,1384.24 2005.78,1384.24 2007.93,1384.24 2010.09,1384.24 2012.24,1384.24 2014.4,1384.24 2016.55,1384.24 2018.71,1384.24 2020.86,1384.24 2023.02,1384.24 2025.17,1384.24 2027.33,1384.24 2029.48,1384.24 2031.64,1384.24 2033.79,1384.24 2035.95,1384.24 2038.11,1384.24 2040.26,1384.24 2042.42,1384.24 2044.57,1384.24 2046.73,1384.24 2048.88,1384.24 2051.04,1384.24 2053.19,1384.24 2055.35,1384.24 2057.5,1384.24 2059.66,1384.24 2061.81,1384.24 2063.97,1384.24 2066.12,1384.24 2068.28,1384.24 2070.43,1384.24 2072.59,1384.24 2074.74,1384.24 2076.9,1384.24 2079.05,1384.24 2081.21,1384.24 2083.36,1384.24 2085.52,1384.24 2087.67,1384.24 2089.83,1384.24 2091.98,1384.24 2094.14,1384.24 2096.29,1384.24 2098.45,1384.24 2100.6,1384.24 2102.76,1384.24 2104.91,1384.24 2107.07,1384.24 2109.22,1384.24 2111.38,1384.24 2113.54,1384.24 2115.69,1384.24 2117.85,1384.24 2120,1384.24 2122.16,1384.24 2124.31,1384.24 2126.47,1384.24 2128.62,1384.24 2130.78,1384.24 2132.93,1384.24 2135.09,1384.24 2137.24,1384.24 2139.4,1384.24 2141.55,1384.24 2143.71,1384.24 2145.86,1384.24 2148.02,1384.24 2150.17,1384.24 2152.33,1384.24 2154.48,1384.24 2156.64,1384.24 2158.79,1384.24 2160.95,1384.24 2163.1,1384.24 2165.26,1384.24 2167.41,1384.24 2169.57,1384.24 2171.72,1384.24 2173.88,1384.24 2176.03,1384.24 2178.19,1384.24 2180.34,1384.24 2182.5,1384.24 2184.65,1384.24 2186.81,1384.24 2188.97,1384.24 2191.12,1384.24 2193.28,1384.24 2195.43,1384.24 2197.59,1384.24 2199.74,1384.24 2201.9,1384.24 2204.05,1384.24 2206.21,1384.24 2208.36,1384.24 2210.52,1384.24 2212.67,1384.24 2214.83,1384.24 2216.98,1384.24 2219.14,1384.24 2221.29,1384.24 2223.45,1384.24 2225.6,1384.24 2227.76,1384.24 2229.91,1384.24 2232.07,1384.24 2234.22,1384.24 2236.38,1384.24 2238.53,1384.24 2240.69,1384.24 2242.84,1384.24 2245,1384.24 2247.15,1384.24 2249.31,1384.24 2251.46,1384.24 2253.62,1384.24 2255.77,1384.24 2257.93,1384.24 2260.08,1384.24 2262.24,1384.24 2264.4,1384.24 2266.55,1384.24 2268.71,1384.24 2270.86,1384.24 2273.02,1384.24 2275.17,1384.24 2277.33,1384.24 2279.48,1384.24 2281.64,1384.24 2283.79,1384.24 2285.95,1384.24 2288.1,1384.24 2290.26,1384.24 2292.41,1384.24 2294.57,1384.24 2296.72,1384.24 2298.88,1384.24 2301.03,1384.24 2303.19,1384.24 2305.34,1384.24 2307.5,1384.24 2309.65,1384.24 2311.81,1384.24 2313.96,1384.24 2316.12,1384.24 2318.27,1384.24 2320.43,1384.24 2322.58,1384.24 2324.74,1384.24 2326.89,1384.24 2329.05,1384.24 2331.2,1384.24 2333.36,1384.24 2335.51,1384.24 2337.67,1384.24 2339.83,1384.24 2341.98,1384.24 2344.14,1384.24 2346.29,1384.24 2348.45,1384.24 2350.6,1384.24 2352.76,1384.24 "/>
<path clip-path="url(#clip560)" d="M1675.9 248.629 L2280.99 248.629 L2280.99 93.1086 L1675.9 93.1086  Z" fill="#ffffff" fill-rule="evenodd" fill-opacity="1"/>
<polyline clip-path="url(#clip560)" style="stroke:#000000; stroke-linecap:round; stroke-linejoin:round; stroke-width:4; stroke-opacity:1; fill:none" points="1675.9,248.629 2280.99,248.629 2280.99,93.1086 1675.9,93.1086 1675.9,248.629 "/>
<polyline clip-path="url(#clip560)" style="stroke:#009af9; stroke-linecap:round; stroke-linejoin:round; stroke-width:4; stroke-opacity:1; fill:none" points="1699.82,144.949 1843.36,144.949 "/>
<path clip-path="url(#clip560)" d="M1867.28 127.669 L1871.95 127.669 L1871.95 158.293 L1888.78 158.293 L1888.78 162.229 L1867.28 162.229 L1867.28 127.669 Z" fill="#000000" fill-rule="nonzero" fill-opacity="1" /><path clip-path="url(#clip560)" d="M1893.5 136.303 L1897.76 136.303 L1897.76 162.229 L1893.5 162.229 L1893.5 136.303 M1893.5 126.21 L1897.76 126.21 L1897.76 131.604 L1893.5 131.604 L1893.5 126.21 Z" fill="#000000" fill-rule="nonzero" fill-opacity="1" /><path clip-path="url(#clip560)" d="M1928.23 146.581 L1928.23 162.229 L1923.97 162.229 L1923.97 146.719 Q1923.97 143.039 1922.53 141.21 Q1921.1 139.382 1918.23 139.382 Q1914.78 139.382 1912.79 141.581 Q1910.8 143.78 1910.8 147.576 L1910.8 162.229 L1906.51 162.229 L1906.51 136.303 L1910.8 136.303 L1910.8 140.331 Q1912.32 137.993 1914.38 136.835 Q1916.47 135.678 1919.18 135.678 Q1923.64 135.678 1925.94 138.456 Q1928.23 141.21 1928.23 146.581 Z" fill="#000000" fill-rule="nonzero" fill-opacity="1" /><path clip-path="url(#clip560)" d="M1958.9 148.201 L1958.9 150.284 L1939.31 150.284 Q1939.59 154.682 1941.95 156.997 Q1944.34 159.289 1948.57 159.289 Q1951.03 159.289 1953.32 158.687 Q1955.63 158.085 1957.9 156.881 L1957.9 160.909 Q1955.61 161.881 1953.2 162.391 Q1950.8 162.9 1948.32 162.9 Q1942.12 162.9 1938.48 159.289 Q1934.87 155.678 1934.87 149.52 Q1934.87 143.155 1938.3 139.428 Q1941.75 135.678 1947.58 135.678 Q1952.81 135.678 1955.84 139.057 Q1958.9 142.414 1958.9 148.201 M1954.64 146.951 Q1954.59 143.456 1952.67 141.372 Q1950.77 139.289 1947.62 139.289 Q1944.06 139.289 1941.91 141.303 Q1939.78 143.317 1939.45 146.974 L1954.64 146.951 Z" fill="#000000" fill-rule="nonzero" fill-opacity="1" /><path clip-path="url(#clip560)" d="M1977.67 149.196 Q1972.51 149.196 1970.52 150.377 Q1968.53 151.557 1968.53 154.405 Q1968.53 156.673 1970.01 158.016 Q1971.51 159.335 1974.08 159.335 Q1977.62 159.335 1979.75 156.835 Q1981.91 154.312 1981.91 150.145 L1981.91 149.196 L1977.67 149.196 M1986.17 147.437 L1986.17 162.229 L1981.91 162.229 L1981.91 158.293 Q1980.45 160.655 1978.27 161.789 Q1976.1 162.9 1972.95 162.9 Q1968.97 162.9 1966.61 160.678 Q1964.27 158.432 1964.27 154.682 Q1964.27 150.307 1967.18 148.085 Q1970.12 145.863 1975.93 145.863 L1981.91 145.863 L1981.91 145.446 Q1981.91 142.507 1979.96 140.909 Q1978.04 139.289 1974.55 139.289 Q1972.32 139.289 1970.22 139.821 Q1968.11 140.354 1966.17 141.419 L1966.17 137.483 Q1968.5 136.581 1970.7 136.141 Q1972.9 135.678 1974.99 135.678 Q1980.61 135.678 1983.39 138.594 Q1986.17 141.511 1986.17 147.437 Z" fill="#000000" fill-rule="nonzero" fill-opacity="1" /><path clip-path="url(#clip560)" d="M2009.96 140.284 Q2009.24 139.868 2008.39 139.682 Q2007.56 139.474 2006.54 139.474 Q2002.93 139.474 2000.98 141.835 Q1999.06 144.173 1999.06 148.571 L1999.06 162.229 L1994.78 162.229 L1994.78 136.303 L1999.06 136.303 L1999.06 140.331 Q2000.4 137.969 2002.56 136.835 Q2004.71 135.678 2007.79 135.678 Q2008.23 135.678 2008.76 135.747 Q2009.29 135.794 2009.94 135.909 L2009.96 140.284 Z" fill="#000000" fill-rule="nonzero" fill-opacity="1" /><path clip-path="url(#clip560)" d="M2015.52 156.349 L2020.4 156.349 L2020.4 160.33 L2016.61 167.738 L2013.62 167.738 L2015.52 160.33 L2015.52 156.349 Z" fill="#000000" fill-rule="nonzero" fill-opacity="1" /><path clip-path="url(#clip560)" d="M2061.63 140.238 L2061.63 126.21 L2065.89 126.21 L2065.89 162.229 L2061.63 162.229 L2061.63 158.34 Q2060.29 160.655 2058.23 161.789 Q2056.19 162.9 2053.32 162.9 Q2048.62 162.9 2045.66 159.15 Q2042.72 155.4 2042.72 149.289 Q2042.72 143.178 2045.66 139.428 Q2048.62 135.678 2053.32 135.678 Q2056.19 135.678 2058.23 136.812 Q2060.29 137.923 2061.63 140.238 M2047.12 149.289 Q2047.12 153.988 2049.04 156.673 Q2050.98 159.335 2054.36 159.335 Q2057.74 159.335 2059.68 156.673 Q2061.63 153.988 2061.63 149.289 Q2061.63 144.59 2059.68 141.928 Q2057.74 139.243 2054.36 139.243 Q2050.98 139.243 2049.04 141.928 Q2047.12 144.59 2047.12 149.289 Z" fill="#000000" fill-rule="nonzero" fill-opacity="1" /><path clip-path="url(#clip560)" d="M2096.84 148.201 L2096.84 150.284 L2077.25 150.284 Q2077.53 154.682 2079.89 156.997 Q2082.28 159.289 2086.51 159.289 Q2088.97 159.289 2091.26 158.687 Q2093.57 158.085 2095.84 156.881 L2095.84 160.909 Q2093.55 161.881 2091.14 162.391 Q2088.74 162.9 2086.26 162.9 Q2080.05 162.9 2076.42 159.289 Q2072.81 155.678 2072.81 149.52 Q2072.81 143.155 2076.24 139.428 Q2079.68 135.678 2085.52 135.678 Q2090.75 135.678 2093.78 139.057 Q2096.84 142.414 2096.84 148.201 M2092.58 146.951 Q2092.53 143.456 2090.61 141.372 Q2088.71 139.289 2085.56 139.289 Q2082 139.289 2079.85 141.303 Q2077.72 143.317 2077.39 146.974 L2092.58 146.951 Z" fill="#000000" fill-rule="nonzero" fill-opacity="1" /><path clip-path="url(#clip560)" d="M2103.83 126.21 L2108.09 126.21 L2108.09 162.229 L2103.83 162.229 L2103.83 126.21 Z" fill="#000000" fill-rule="nonzero" fill-opacity="1" /><path clip-path="url(#clip560)" d="M2121.21 128.942 L2121.21 136.303 L2129.98 136.303 L2129.98 139.613 L2121.21 139.613 L2121.21 153.687 Q2121.21 156.858 2122.07 157.761 Q2122.95 158.664 2125.61 158.664 L2129.98 158.664 L2129.98 162.229 L2125.61 162.229 Q2120.68 162.229 2118.8 160.4 Q2116.93 158.548 2116.93 153.687 L2116.93 139.613 L2113.8 139.613 L2113.8 136.303 L2116.93 136.303 L2116.93 128.942 L2121.21 128.942 Z" fill="#000000" fill-rule="nonzero" fill-opacity="1" /><path clip-path="url(#clip560)" d="M2147.37 149.196 Q2142.21 149.196 2140.22 150.377 Q2138.23 151.557 2138.23 154.405 Q2138.23 156.673 2139.71 158.016 Q2141.21 159.335 2143.78 159.335 Q2147.32 159.335 2149.45 156.835 Q2151.61 154.312 2151.61 150.145 L2151.61 149.196 L2147.37 149.196 M2155.86 147.437 L2155.86 162.229 L2151.61 162.229 L2151.61 158.293 Q2150.15 160.655 2147.97 161.789 Q2145.8 162.9 2142.65 162.9 Q2138.67 162.9 2136.3 160.678 Q2133.97 158.432 2133.97 154.682 Q2133.97 150.307 2136.88 148.085 Q2139.82 145.863 2145.63 145.863 L2151.61 145.863 L2151.61 145.446 Q2151.61 142.507 2149.66 140.909 Q2147.74 139.289 2144.24 139.289 Q2142.02 139.289 2139.92 139.821 Q2137.81 140.354 2135.86 141.419 L2135.86 137.483 Q2138.2 136.581 2140.4 136.141 Q2142.6 135.678 2144.68 135.678 Q2150.31 135.678 2153.09 138.594 Q2155.86 141.511 2155.86 147.437 Z" fill="#000000" fill-rule="nonzero" fill-opacity="1" /><path clip-path="url(#clip560)" d="M2165.19 140.701 L2194.87 140.701 L2194.87 144.59 L2165.19 144.59 L2165.19 140.701 M2165.19 150.145 L2194.87 150.145 L2194.87 154.081 L2165.19 154.081 L2165.19 150.145 Z" fill="#000000" fill-rule="nonzero" fill-opacity="1" /><path clip-path="url(#clip560)" d="M2208.99 158.293 L2225.31 158.293 L2225.31 162.229 L2203.36 162.229 L2203.36 158.293 Q2206.03 155.539 2210.61 150.909 Q2215.22 146.256 2216.4 144.914 Q2218.64 142.391 2219.52 140.655 Q2220.42 138.895 2220.42 137.206 Q2220.42 134.451 2218.48 132.715 Q2216.56 130.979 2213.46 130.979 Q2211.26 130.979 2208.8 131.743 Q2206.37 132.507 2203.6 134.057 L2203.6 129.335 Q2206.42 128.201 2208.87 127.622 Q2211.33 127.044 2213.36 127.044 Q2218.73 127.044 2221.93 129.729 Q2225.12 132.414 2225.12 136.905 Q2225.12 139.034 2224.31 140.956 Q2223.53 142.854 2221.42 145.446 Q2220.84 146.118 2217.74 149.335 Q2214.64 152.53 2208.99 158.293 Z" fill="#000000" fill-rule="nonzero" fill-opacity="1" /><path clip-path="url(#clip560)" d="M2245.12 130.747 Q2241.51 130.747 2239.68 134.312 Q2237.88 137.854 2237.88 144.983 Q2237.88 152.09 2239.68 155.655 Q2241.51 159.196 2245.12 159.196 Q2248.76 159.196 2250.56 155.655 Q2252.39 152.09 2252.39 144.983 Q2252.39 137.854 2250.56 134.312 Q2248.76 130.747 2245.12 130.747 M2245.12 127.044 Q2250.93 127.044 2253.99 131.65 Q2257.07 136.233 2257.07 144.983 Q2257.07 153.71 2253.99 158.317 Q2250.93 162.9 2245.12 162.9 Q2239.31 162.9 2236.23 158.317 Q2233.18 153.71 2233.18 144.983 Q2233.18 136.233 2236.23 131.65 Q2239.31 127.044 2245.12 127.044 Z" fill="#000000" fill-rule="nonzero" fill-opacity="1" /><polyline clip-path="url(#clip560)" style="stroke:#e26f46; stroke-linecap:round; stroke-linejoin:round; stroke-width:4; stroke-opacity:1; fill:none" points="1699.82,196.789 1843.36,196.789 "/>
<path clip-path="url(#clip560)" d="M1895.15 182.171 L1895.15 187.101 Q1892.79 184.902 1890.1 183.814 Q1887.44 182.726 1884.43 182.726 Q1878.5 182.726 1875.36 186.36 Q1872.21 189.972 1872.21 196.823 Q1872.21 203.652 1875.36 207.286 Q1878.5 210.897 1884.43 210.897 Q1887.44 210.897 1890.1 209.809 Q1892.79 208.721 1895.15 206.522 L1895.15 211.407 Q1892.69 213.073 1889.94 213.907 Q1887.21 214.74 1884.15 214.74 Q1876.31 214.74 1871.79 209.948 Q1867.28 205.133 1867.28 196.823 Q1867.28 188.49 1871.79 183.698 Q1876.31 178.884 1884.15 178.884 Q1887.25 178.884 1889.99 179.717 Q1892.74 180.527 1895.15 182.171 Z" fill="#000000" fill-rule="nonzero" fill-opacity="1" /><path clip-path="url(#clip560)" d="M1901.75 203.837 L1901.75 188.143 L1906 188.143 L1906 203.675 Q1906 207.356 1907.44 209.208 Q1908.88 211.036 1911.75 211.036 Q1915.19 211.036 1917.19 208.837 Q1919.2 206.638 1919.2 202.842 L1919.2 188.143 L1923.46 188.143 L1923.46 214.069 L1919.2 214.069 L1919.2 210.087 Q1917.65 212.448 1915.59 213.606 Q1913.55 214.74 1910.84 214.74 Q1906.38 214.74 1904.06 211.962 Q1901.75 209.184 1901.75 203.837 M1912.46 187.518 L1912.46 187.518 Z" fill="#000000" fill-rule="nonzero" fill-opacity="1" /><path clip-path="url(#clip560)" d="M1950.84 201.129 Q1950.84 196.43 1948.9 193.768 Q1946.98 191.083 1943.6 191.083 Q1940.22 191.083 1938.27 193.768 Q1936.35 196.43 1936.35 201.129 Q1936.35 205.828 1938.27 208.513 Q1940.22 211.175 1943.6 211.175 Q1946.98 211.175 1948.9 208.513 Q1950.84 205.828 1950.84 201.129 M1936.35 192.078 Q1937.69 189.763 1939.73 188.652 Q1941.79 187.518 1944.64 187.518 Q1949.36 187.518 1952.3 191.268 Q1955.26 195.018 1955.26 201.129 Q1955.26 207.24 1952.3 210.99 Q1949.36 214.74 1944.64 214.74 Q1941.79 214.74 1939.73 213.629 Q1937.69 212.495 1936.35 210.18 L1936.35 214.069 L1932.07 214.069 L1932.07 178.05 L1936.35 178.05 L1936.35 192.078 Z" fill="#000000" fill-rule="nonzero" fill-opacity="1" /><path clip-path="url(#clip560)" d="M1962.32 188.143 L1966.58 188.143 L1966.58 214.069 L1962.32 214.069 L1962.32 188.143 M1962.32 178.05 L1966.58 178.05 L1966.58 183.444 L1962.32 183.444 L1962.32 178.05 Z" fill="#000000" fill-rule="nonzero" fill-opacity="1" /><path clip-path="url(#clip560)" d="M1994.15 189.138 L1994.15 193.12 Q1992.35 192.124 1990.52 191.638 Q1988.71 191.129 1986.86 191.129 Q1982.72 191.129 1980.43 193.768 Q1978.13 196.384 1978.13 201.129 Q1978.13 205.874 1980.43 208.513 Q1982.72 211.129 1986.86 211.129 Q1988.71 211.129 1990.52 210.643 Q1992.35 210.133 1994.15 209.138 L1994.15 213.073 Q1992.37 213.907 1990.45 214.323 Q1988.55 214.74 1986.4 214.74 Q1980.54 214.74 1977.09 211.059 Q1973.64 207.379 1973.64 201.129 Q1973.64 194.786 1977.12 191.152 Q1980.61 187.518 1986.68 187.518 Q1988.64 187.518 1990.52 187.935 Q1992.39 188.328 1994.15 189.138 Z" fill="#000000" fill-rule="nonzero" fill-opacity="1" /><path clip-path="url(#clip560)" d="M2002.65 208.189 L2007.53 208.189 L2007.53 212.17 L2003.74 219.578 L2000.75 219.578 L2002.65 212.17 L2002.65 208.189 Z" fill="#000000" fill-rule="nonzero" fill-opacity="1" /><path clip-path="url(#clip560)" d="M2048.76 192.078 L2048.76 178.05 L2053.02 178.05 L2053.02 214.069 L2048.76 214.069 L2048.76 210.18 Q2047.42 212.495 2045.36 213.629 Q2043.32 214.74 2040.45 214.74 Q2035.75 214.74 2032.79 210.99 Q2029.85 207.24 2029.85 201.129 Q2029.85 195.018 2032.79 191.268 Q2035.75 187.518 2040.45 187.518 Q2043.32 187.518 2045.36 188.652 Q2047.42 189.763 2048.76 192.078 M2034.24 201.129 Q2034.24 205.828 2036.17 208.513 Q2038.11 211.175 2041.49 211.175 Q2044.87 211.175 2046.81 208.513 Q2048.76 205.828 2048.76 201.129 Q2048.76 196.43 2046.81 193.768 Q2044.87 191.083 2041.49 191.083 Q2038.11 191.083 2036.17 193.768 Q2034.24 196.43 2034.24 201.129 Z" fill="#000000" fill-rule="nonzero" fill-opacity="1" /><path clip-path="url(#clip560)" d="M2083.97 200.041 L2083.97 202.124 L2064.38 202.124 Q2064.66 206.522 2067.02 208.837 Q2069.41 211.129 2073.64 211.129 Q2076.1 211.129 2078.39 210.527 Q2080.7 209.925 2082.97 208.721 L2082.97 212.749 Q2080.68 213.721 2078.27 214.231 Q2075.86 214.74 2073.39 214.74 Q2067.18 214.74 2063.55 211.129 Q2059.94 207.518 2059.94 201.36 Q2059.94 194.995 2063.36 191.268 Q2066.81 187.518 2072.65 187.518 Q2077.88 187.518 2080.91 190.897 Q2083.97 194.254 2083.97 200.041 M2079.71 198.791 Q2079.66 195.296 2077.74 193.212 Q2075.84 191.129 2072.69 191.129 Q2069.13 191.129 2066.98 193.143 Q2064.85 195.157 2064.52 198.814 L2079.71 198.791 Z" fill="#000000" fill-rule="nonzero" fill-opacity="1" /><path clip-path="url(#clip560)" d="M2090.96 178.05 L2095.22 178.05 L2095.22 214.069 L2090.96 214.069 L2090.96 178.05 Z" fill="#000000" fill-rule="nonzero" fill-opacity="1" /><path clip-path="url(#clip560)" d="M2108.34 180.782 L2108.34 188.143 L2117.11 188.143 L2117.11 191.453 L2108.34 191.453 L2108.34 205.527 Q2108.34 208.698 2109.2 209.601 Q2110.08 210.504 2112.74 210.504 L2117.11 210.504 L2117.11 214.069 L2112.74 214.069 Q2107.81 214.069 2105.93 212.24 Q2104.06 210.388 2104.06 205.527 L2104.06 191.453 L2100.93 191.453 L2100.93 188.143 L2104.06 188.143 L2104.06 180.782 L2108.34 180.782 Z" fill="#000000" fill-rule="nonzero" fill-opacity="1" /><path clip-path="url(#clip560)" d="M2134.5 201.036 Q2129.34 201.036 2127.35 202.217 Q2125.36 203.397 2125.36 206.245 Q2125.36 208.513 2126.84 209.856 Q2128.34 211.175 2130.91 211.175 Q2134.45 211.175 2136.58 208.675 Q2138.73 206.152 2138.73 201.985 L2138.73 201.036 L2134.5 201.036 M2142.99 199.277 L2142.99 214.069 L2138.73 214.069 L2138.73 210.133 Q2137.28 212.495 2135.1 213.629 Q2132.92 214.74 2129.78 214.74 Q2125.8 214.74 2123.43 212.518 Q2121.1 210.272 2121.1 206.522 Q2121.1 202.147 2124.01 199.925 Q2126.95 197.703 2132.76 197.703 L2138.73 197.703 L2138.73 197.286 Q2138.73 194.347 2136.79 192.749 Q2134.87 191.129 2131.37 191.129 Q2129.15 191.129 2127.05 191.661 Q2124.94 192.194 2122.99 193.259 L2122.99 189.323 Q2125.33 188.421 2127.53 187.981 Q2129.73 187.518 2131.81 187.518 Q2137.44 187.518 2140.22 190.434 Q2142.99 193.351 2142.99 199.277 Z" fill="#000000" fill-rule="nonzero" fill-opacity="1" /><path clip-path="url(#clip560)" d="M2152.32 192.541 L2182 192.541 L2182 196.43 L2152.32 196.43 L2152.32 192.541 M2152.32 201.985 L2182 201.985 L2182 205.921 L2152.32 205.921 L2152.32 201.985 Z" fill="#000000" fill-rule="nonzero" fill-opacity="1" /><path clip-path="url(#clip560)" d="M2196.12 210.133 L2212.44 210.133 L2212.44 214.069 L2190.49 214.069 L2190.49 210.133 Q2193.16 207.379 2197.74 202.749 Q2202.35 198.096 2203.53 196.754 Q2205.77 194.231 2206.65 192.495 Q2207.55 190.735 2207.55 189.046 Q2207.55 186.291 2205.61 184.555 Q2203.69 182.819 2200.59 182.819 Q2198.39 182.819 2195.93 183.583 Q2193.5 184.347 2190.73 185.897 L2190.73 181.175 Q2193.55 180.041 2196 179.462 Q2198.46 178.884 2200.49 178.884 Q2205.86 178.884 2209.06 181.569 Q2212.25 184.254 2212.25 188.745 Q2212.25 190.874 2211.44 192.796 Q2210.66 194.694 2208.55 197.286 Q2207.97 197.958 2204.87 201.175 Q2201.77 204.37 2196.12 210.133 Z" fill="#000000" fill-rule="nonzero" fill-opacity="1" /><path clip-path="url(#clip560)" d="M2232.25 182.587 Q2228.64 182.587 2226.81 186.152 Q2225.01 189.694 2225.01 196.823 Q2225.01 203.93 2226.81 207.495 Q2228.64 211.036 2232.25 211.036 Q2235.89 211.036 2237.69 207.495 Q2239.52 203.93 2239.52 196.823 Q2239.52 189.694 2237.69 186.152 Q2235.89 182.587 2232.25 182.587 M2232.25 178.884 Q2238.06 178.884 2241.12 183.49 Q2244.2 188.073 2244.2 196.823 Q2244.2 205.55 2241.12 210.157 Q2238.06 214.74 2232.25 214.74 Q2226.44 214.74 2223.36 210.157 Q2220.31 205.55 2220.31 196.823 Q2220.31 188.073 2223.36 183.49 Q2226.44 178.884 2232.25 178.884 Z" fill="#000000" fill-rule="nonzero" fill-opacity="1" /></svg>
