<?xml version="1.0" encoding="utf-8"?>
<svg xmlns="http://www.w3.org/2000/svg" xmlns:xlink="http://www.w3.org/1999/xlink" width="600" height="400" viewBox="0 0 2400 1600">
<defs>
  <clipPath id="clip440">
    <rect x="0" y="0" width="2400" height="1600"/>
  </clipPath>
</defs>
<path clip-path="url(#clip440)" d="M0 1600 L2400 1600 L2400 8.88178e-14 L0 8.88178e-14  Z" fill="#ffffff" fill-rule="evenodd" fill-opacity="1"/>
<defs>
  <clipPath id="clip441">
    <rect x="480" y="0" width="1681" height="1600"/>
  </clipPath>
</defs>
<path clip-path="url(#clip440)" d="M199.769 1423.18 L2352.76 1423.18 L2352.76 47.2441 L199.769 47.2441  Z" fill="#ffffff" fill-rule="evenodd" fill-opacity="1"/>
<defs>
  <clipPath id="clip442">
    <rect x="199" y="47" width="2154" height="1377"/>
  </clipPath>
</defs>
<polyline clip-path="url(#clip442)" style="stroke:#000000; stroke-linecap:round; stroke-linejoin:round; stroke-width:2; stroke-opacity:0.1; fill:none" points="199.769,1423.18 199.769,47.2441 "/>
<polyline clip-path="url(#clip442)" style="stroke:#000000; stroke-linecap:round; stroke-linejoin:round; stroke-width:2; stroke-opacity:0.1; fill:none" points="738.016,1423.18 738.016,47.2441 "/>
<polyline clip-path="url(#clip442)" style="stroke:#000000; stroke-linecap:round; stroke-linejoin:round; stroke-width:2; stroke-opacity:0.1; fill:none" points="1276.26,1423.18 1276.26,47.2441 "/>
<polyline clip-path="url(#clip442)" style="stroke:#000000; stroke-linecap:round; stroke-linejoin:round; stroke-width:2; stroke-opacity:0.1; fill:none" points="1814.51,1423.18 1814.51,47.2441 "/>
<polyline clip-path="url(#clip442)" style="stroke:#000000; stroke-linecap:round; stroke-linejoin:round; stroke-width:2; stroke-opacity:0.1; fill:none" points="199.769,1240.01 2352.76,1240.01 "/>
<polyline clip-path="url(#clip442)" style="stroke:#000000; stroke-linecap:round; stroke-linejoin:round; stroke-width:2; stroke-opacity:0.1; fill:none" points="199.769,951.554 2352.76,951.554 "/>
<polyline clip-path="url(#clip442)" style="stroke:#000000; stroke-linecap:round; stroke-linejoin:round; stroke-width:2; stroke-opacity:0.1; fill:none" points="199.769,663.098 2352.76,663.098 "/>
<polyline clip-path="url(#clip442)" style="stroke:#000000; stroke-linecap:round; stroke-linejoin:round; stroke-width:2; stroke-opacity:0.1; fill:none" points="199.769,374.642 2352.76,374.642 "/>
<polyline clip-path="url(#clip442)" style="stroke:#000000; stroke-linecap:round; stroke-linejoin:round; stroke-width:2; stroke-opacity:0.1; fill:none" points="199.769,86.1857 2352.76,86.1857 "/>
<polyline clip-path="url(#clip440)" style="stroke:#000000; stroke-linecap:round; stroke-linejoin:round; stroke-width:4; stroke-opacity:1; fill:none" points="199.769,1423.18 2352.76,1423.18 "/>
<polyline clip-path="url(#clip440)" style="stroke:#000000; stroke-linecap:round; stroke-linejoin:round; stroke-width:4; stroke-opacity:1; fill:none" points="199.769,1423.18 199.769,1404.28 "/>
<polyline clip-path="url(#clip440)" style="stroke:#000000; stroke-linecap:round; stroke-linejoin:round; stroke-width:4; stroke-opacity:1; fill:none" points="738.016,1423.18 738.016,1404.28 "/>
<polyline clip-path="url(#clip440)" style="stroke:#000000; stroke-linecap:round; stroke-linejoin:round; stroke-width:4; stroke-opacity:1; fill:none" points="1276.26,1423.18 1276.26,1404.28 "/>
<polyline clip-path="url(#clip440)" style="stroke:#000000; stroke-linecap:round; stroke-linejoin:round; stroke-width:4; stroke-opacity:1; fill:none" points="1814.51,1423.18 1814.51,1404.28 "/>
<path clip-path="url(#clip440)" d="M162.073 1454.1 Q158.462 1454.1 156.633 1457.66 Q154.827 1461.2 154.827 1468.33 Q154.827 1475.44 156.633 1479.01 Q158.462 1482.55 162.073 1482.55 Q165.707 1482.55 167.513 1479.01 Q169.341 1475.44 169.341 1468.33 Q169.341 1461.2 167.513 1457.66 Q165.707 1454.1 162.073 1454.1 M162.073 1450.39 Q167.883 1450.39 170.938 1455 Q174.017 1459.58 174.017 1468.33 Q174.017 1477.06 170.938 1481.67 Q167.883 1486.25 162.073 1486.25 Q156.263 1486.25 153.184 1481.67 Q150.128 1477.06 150.128 1468.33 Q150.128 1459.58 153.184 1455 Q156.263 1450.39 162.073 1450.39 Z" fill="#000000" fill-rule="nonzero" fill-opacity="1" /><path clip-path="url(#clip440)" d="M182.235 1479.7 L187.119 1479.7 L187.119 1485.58 L182.235 1485.58 L182.235 1479.7 Z" fill="#000000" fill-rule="nonzero" fill-opacity="1" /><path clip-path="url(#clip440)" d="M207.304 1454.1 Q203.693 1454.1 201.864 1457.66 Q200.059 1461.2 200.059 1468.33 Q200.059 1475.44 201.864 1479.01 Q203.693 1482.55 207.304 1482.55 Q210.938 1482.55 212.744 1479.01 Q214.572 1475.44 214.572 1468.33 Q214.572 1461.2 212.744 1457.66 Q210.938 1454.1 207.304 1454.1 M207.304 1450.39 Q213.114 1450.39 216.17 1455 Q219.248 1459.58 219.248 1468.33 Q219.248 1477.06 216.17 1481.67 Q213.114 1486.25 207.304 1486.25 Q201.494 1486.25 198.415 1481.67 Q195.36 1477.06 195.36 1468.33 Q195.36 1459.58 198.415 1455 Q201.494 1450.39 207.304 1450.39 Z" fill="#000000" fill-rule="nonzero" fill-opacity="1" /><path clip-path="url(#clip440)" d="M237.466 1454.1 Q233.855 1454.1 232.026 1457.66 Q230.221 1461.2 230.221 1468.33 Q230.221 1475.44 232.026 1479.01 Q233.855 1482.55 237.466 1482.55 Q241.1 1482.55 242.906 1479.01 Q244.734 1475.44 244.734 1468.33 Q244.734 1461.2 242.906 1457.66 Q241.1 1454.1 237.466 1454.1 M237.466 1450.39 Q243.276 1450.39 246.332 1455 Q249.41 1459.58 249.41 1468.33 Q249.41 1477.06 246.332 1481.67 Q243.276 1486.25 237.466 1486.25 Q231.656 1486.25 228.577 1481.67 Q225.521 1477.06 225.521 1468.33 Q225.521 1459.58 228.577 1455 Q231.656 1450.39 237.466 1450.39 Z" fill="#000000" fill-rule="nonzero" fill-opacity="1" /><path clip-path="url(#clip440)" d="M700.817 1454.1 Q697.206 1454.1 695.377 1457.66 Q693.572 1461.2 693.572 1468.33 Q693.572 1475.44 695.377 1479.01 Q697.206 1482.55 700.817 1482.55 Q704.451 1482.55 706.257 1479.01 Q708.086 1475.44 708.086 1468.33 Q708.086 1461.2 706.257 1457.66 Q704.451 1454.1 700.817 1454.1 M700.817 1450.39 Q706.627 1450.39 709.683 1455 Q712.761 1459.58 712.761 1468.33 Q712.761 1477.06 709.683 1481.67 Q706.627 1486.25 700.817 1486.25 Q695.007 1486.25 691.928 1481.67 Q688.873 1477.06 688.873 1468.33 Q688.873 1459.58 691.928 1455 Q695.007 1450.39 700.817 1450.39 Z" fill="#000000" fill-rule="nonzero" fill-opacity="1" /><path clip-path="url(#clip440)" d="M720.979 1479.7 L725.863 1479.7 L725.863 1485.58 L720.979 1485.58 L720.979 1479.7 Z" fill="#000000" fill-rule="nonzero" fill-opacity="1" /><path clip-path="url(#clip440)" d="M746.048 1454.1 Q742.437 1454.1 740.609 1457.66 Q738.803 1461.2 738.803 1468.33 Q738.803 1475.44 740.609 1479.01 Q742.437 1482.55 746.048 1482.55 Q749.683 1482.55 751.488 1479.01 Q753.317 1475.44 753.317 1468.33 Q753.317 1461.2 751.488 1457.66 Q749.683 1454.1 746.048 1454.1 M746.048 1450.39 Q751.858 1450.39 754.914 1455 Q757.993 1459.58 757.993 1468.33 Q757.993 1477.06 754.914 1481.67 Q751.858 1486.25 746.048 1486.25 Q740.238 1486.25 737.159 1481.67 Q734.104 1477.06 734.104 1468.33 Q734.104 1459.58 737.159 1455 Q740.238 1450.39 746.048 1450.39 Z" fill="#000000" fill-rule="nonzero" fill-opacity="1" /><path clip-path="url(#clip440)" d="M766.257 1451.02 L784.613 1451.02 L784.613 1454.96 L770.539 1454.96 L770.539 1463.43 Q771.557 1463.08 772.576 1462.92 Q773.594 1462.73 774.613 1462.73 Q780.4 1462.73 783.78 1465.9 Q787.159 1469.08 787.159 1474.49 Q787.159 1480.07 783.687 1483.17 Q780.215 1486.25 773.895 1486.25 Q771.719 1486.25 769.451 1485.88 Q767.206 1485.51 764.798 1484.77 L764.798 1480.07 Q766.882 1481.2 769.104 1481.76 Q771.326 1482.32 773.803 1482.32 Q777.807 1482.32 780.145 1480.21 Q782.483 1478.1 782.483 1474.49 Q782.483 1470.88 780.145 1468.77 Q777.807 1466.67 773.803 1466.67 Q771.928 1466.67 770.053 1467.08 Q768.201 1467.5 766.257 1468.38 L766.257 1451.02 Z" fill="#000000" fill-rule="nonzero" fill-opacity="1" /><path clip-path="url(#clip440)" d="M1238.57 1454.1 Q1234.95 1454.1 1233.13 1457.66 Q1231.32 1461.2 1231.32 1468.33 Q1231.32 1475.44 1233.13 1479.01 Q1234.95 1482.55 1238.57 1482.55 Q1242.2 1482.55 1244.01 1479.01 Q1245.83 1475.44 1245.83 1468.33 Q1245.83 1461.2 1244.01 1457.66 Q1242.2 1454.1 1238.57 1454.1 M1238.57 1450.39 Q1244.38 1450.39 1247.43 1455 Q1250.51 1459.58 1250.51 1468.33 Q1250.51 1477.06 1247.43 1481.67 Q1244.38 1486.25 1238.57 1486.25 Q1232.76 1486.25 1229.68 1481.67 Q1226.62 1477.06 1226.62 1468.33 Q1226.62 1459.58 1229.68 1455 Q1232.76 1450.39 1238.57 1450.39 Z" fill="#000000" fill-rule="nonzero" fill-opacity="1" /><path clip-path="url(#clip440)" d="M1258.73 1479.7 L1263.61 1479.7 L1263.61 1485.58 L1258.73 1485.58 L1258.73 1479.7 Z" fill="#000000" fill-rule="nonzero" fill-opacity="1" /><path clip-path="url(#clip440)" d="M1274.61 1481.64 L1282.25 1481.64 L1282.25 1455.28 L1273.94 1456.95 L1273.94 1452.69 L1282.2 1451.02 L1286.88 1451.02 L1286.88 1481.64 L1294.51 1481.64 L1294.51 1485.58 L1274.61 1485.58 L1274.61 1481.64 Z" fill="#000000" fill-rule="nonzero" fill-opacity="1" /><path clip-path="url(#clip440)" d="M1313.96 1454.1 Q1310.35 1454.1 1308.52 1457.66 Q1306.71 1461.2 1306.71 1468.33 Q1306.71 1475.44 1308.52 1479.01 Q1310.35 1482.55 1313.96 1482.55 Q1317.59 1482.55 1319.4 1479.01 Q1321.23 1475.44 1321.23 1468.33 Q1321.23 1461.2 1319.4 1457.66 Q1317.59 1454.1 1313.96 1454.1 M1313.96 1450.39 Q1319.77 1450.39 1322.82 1455 Q1325.9 1459.58 1325.9 1468.33 Q1325.9 1477.06 1322.82 1481.67 Q1319.77 1486.25 1313.96 1486.25 Q1308.15 1486.25 1305.07 1481.67 Q1302.01 1477.06 1302.01 1468.33 Q1302.01 1459.58 1305.07 1455 Q1308.15 1450.39 1313.96 1450.39 Z" fill="#000000" fill-rule="nonzero" fill-opacity="1" /><path clip-path="url(#clip440)" d="M1777.31 1454.1 Q1773.7 1454.1 1771.87 1457.66 Q1770.07 1461.2 1770.07 1468.33 Q1770.07 1475.44 1771.87 1479.01 Q1773.7 1482.55 1777.31 1482.55 Q1780.94 1482.55 1782.75 1479.01 Q1784.58 1475.44 1784.58 1468.33 Q1784.58 1461.2 1782.75 1457.66 Q1780.94 1454.1 1777.31 1454.1 M1777.31 1450.39 Q1783.12 1450.39 1786.18 1455 Q1789.25 1459.58 1789.25 1468.33 Q1789.25 1477.06 1786.18 1481.67 Q1783.12 1486.25 1777.31 1486.25 Q1771.5 1486.25 1768.42 1481.67 Q1765.37 1477.06 1765.37 1468.33 Q1765.37 1459.58 1768.42 1455 Q1771.5 1450.39 1777.31 1450.39 Z" fill="#000000" fill-rule="nonzero" fill-opacity="1" /><path clip-path="url(#clip440)" d="M1797.47 1479.7 L1802.36 1479.7 L1802.36 1485.58 L1797.47 1485.58 L1797.47 1479.7 Z" fill="#000000" fill-rule="nonzero" fill-opacity="1" /><path clip-path="url(#clip440)" d="M1813.35 1481.64 L1820.99 1481.64 L1820.99 1455.28 L1812.68 1456.95 L1812.68 1452.69 L1820.94 1451.02 L1825.62 1451.02 L1825.62 1481.64 L1833.26 1481.64 L1833.26 1485.58 L1813.35 1485.58 L1813.35 1481.64 Z" fill="#000000" fill-rule="nonzero" fill-opacity="1" /><path clip-path="url(#clip440)" d="M1842.75 1451.02 L1861.11 1451.02 L1861.11 1454.96 L1847.03 1454.96 L1847.03 1463.43 Q1848.05 1463.08 1849.07 1462.92 Q1850.09 1462.73 1851.11 1462.73 Q1856.89 1462.73 1860.27 1465.9 Q1863.65 1469.08 1863.65 1474.49 Q1863.65 1480.07 1860.18 1483.17 Q1856.71 1486.25 1850.39 1486.25 Q1848.21 1486.25 1845.94 1485.88 Q1843.7 1485.51 1841.29 1484.77 L1841.29 1480.07 Q1843.37 1481.2 1845.6 1481.76 Q1847.82 1482.32 1850.3 1482.32 Q1854.3 1482.32 1856.64 1480.21 Q1858.98 1478.1 1858.98 1474.49 Q1858.98 1470.88 1856.64 1468.77 Q1854.3 1466.67 1850.3 1466.67 Q1848.42 1466.67 1846.55 1467.08 Q1844.69 1467.5 1842.75 1468.38 L1842.75 1451.02 Z" fill="#000000" fill-rule="nonzero" fill-opacity="1" /><path clip-path="url(#clip440)" d="M1275.32 1522.27 L1275.32 1532.4 L1287.39 1532.4 L1287.39 1536.95 L1275.32 1536.95 L1275.32 1556.3 Q1275.32 1560.66 1276.5 1561.9 Q1277.71 1563.14 1281.37 1563.14 L1287.39 1563.14 L1287.39 1568.04 L1281.37 1568.04 Q1274.59 1568.04 1272.01 1565.53 Q1269.44 1562.98 1269.44 1556.3 L1269.44 1536.95 L1265.14 1536.95 L1265.14 1532.4 L1269.44 1532.4 L1269.44 1522.27 L1275.32 1522.27 Z" fill="#000000" fill-rule="nonzero" fill-opacity="1" /><polyline clip-path="url(#clip440)" style="stroke:#000000; stroke-linecap:round; stroke-linejoin:round; stroke-width:4; stroke-opacity:1; fill:none" points="199.769,1423.18 199.769,47.2441 "/>
<polyline clip-path="url(#clip440)" style="stroke:#000000; stroke-linecap:round; stroke-linejoin:round; stroke-width:4; stroke-opacity:1; fill:none" points="199.769,1240.01 218.667,1240.01 "/>
<polyline clip-path="url(#clip440)" style="stroke:#000000; stroke-linecap:round; stroke-linejoin:round; stroke-width:4; stroke-opacity:1; fill:none" points="199.769,951.554 218.667,951.554 "/>
<polyline clip-path="url(#clip440)" style="stroke:#000000; stroke-linecap:round; stroke-linejoin:round; stroke-width:4; stroke-opacity:1; fill:none" points="199.769,663.098 218.667,663.098 "/>
<polyline clip-path="url(#clip440)" style="stroke:#000000; stroke-linecap:round; stroke-linejoin:round; stroke-width:4; stroke-opacity:1; fill:none" points="199.769,374.642 218.667,374.642 "/>
<polyline clip-path="url(#clip440)" style="stroke:#000000; stroke-linecap:round; stroke-linejoin:round; stroke-width:4; stroke-opacity:1; fill:none" points="199.769,86.1857 218.667,86.1857 "/>
<path clip-path="url(#clip440)" d="M53.3764 1253.36 L61.0152 1253.36 L61.0152 1226.99 L52.7051 1228.66 L52.7051 1224.4 L60.9689 1222.73 L65.6448 1222.73 L65.6448 1253.36 L73.2837 1253.36 L73.2837 1257.29 L53.3764 1257.29 L53.3764 1253.36 Z" fill="#000000" fill-rule="nonzero" fill-opacity="1" /><path clip-path="url(#clip440)" d="M92.728 1225.81 Q89.1169 1225.81 87.2882 1229.37 Q85.4827 1232.92 85.4827 1240.04 Q85.4827 1247.15 87.2882 1250.72 Q89.1169 1254.26 92.728 1254.26 Q96.3623 1254.26 98.1678 1250.72 Q99.9965 1247.15 99.9965 1240.04 Q99.9965 1232.92 98.1678 1229.37 Q96.3623 1225.81 92.728 1225.81 M92.728 1222.11 Q98.5382 1222.11 101.594 1226.71 Q104.672 1231.29 104.672 1240.04 Q104.672 1248.77 101.594 1253.38 Q98.5382 1257.96 92.728 1257.96 Q86.9179 1257.96 83.8392 1253.38 Q80.7836 1248.77 80.7836 1240.04 Q80.7836 1231.29 83.8392 1226.71 Q86.9179 1222.11 92.728 1222.11 Z" fill="#000000" fill-rule="nonzero" fill-opacity="1" /><path clip-path="url(#clip440)" d="M122.89 1225.81 Q119.279 1225.81 117.45 1229.37 Q115.645 1232.92 115.645 1240.04 Q115.645 1247.15 117.45 1250.72 Q119.279 1254.26 122.89 1254.26 Q126.524 1254.26 128.33 1250.72 Q130.158 1247.15 130.158 1240.04 Q130.158 1232.92 128.33 1229.37 Q126.524 1225.81 122.89 1225.81 M122.89 1222.11 Q128.7 1222.11 131.756 1226.71 Q134.834 1231.29 134.834 1240.04 Q134.834 1248.77 131.756 1253.38 Q128.7 1257.96 122.89 1257.96 Q117.08 1257.96 114.001 1253.38 Q110.946 1248.77 110.946 1240.04 Q110.946 1231.29 114.001 1226.71 Q117.08 1222.11 122.89 1222.11 Z" fill="#000000" fill-rule="nonzero" fill-opacity="1" /><path clip-path="url(#clip440)" d="M143.862 1253.36 L151.501 1253.36 L151.501 1226.99 L143.191 1228.66 L143.191 1224.4 L151.455 1222.73 L156.13 1222.73 L156.13 1253.36 L163.769 1253.36 L163.769 1257.29 L143.862 1257.29 L143.862 1253.36 Z" fill="#000000" fill-rule="nonzero" fill-opacity="1" /><path clip-path="url(#clip440)" d="M53.7467 964.899 L61.3856 964.899 L61.3856 938.533 L53.0754 940.2 L53.0754 935.941 L61.3393 934.274 L66.0152 934.274 L66.0152 964.899 L73.654 964.899 L73.654 968.834 L53.7467 968.834 L53.7467 964.899 Z" fill="#000000" fill-rule="nonzero" fill-opacity="1" /><path clip-path="url(#clip440)" d="M93.0984 937.353 Q89.4873 937.353 87.6586 940.918 Q85.8531 944.459 85.8531 951.589 Q85.8531 958.695 87.6586 962.26 Q89.4873 965.802 93.0984 965.802 Q96.7326 965.802 98.5382 962.26 Q100.367 958.695 100.367 951.589 Q100.367 944.459 98.5382 940.918 Q96.7326 937.353 93.0984 937.353 M93.0984 933.649 Q98.9085 933.649 101.964 938.256 Q105.043 942.839 105.043 951.589 Q105.043 960.316 101.964 964.922 Q98.9085 969.505 93.0984 969.505 Q87.2882 969.505 84.2095 964.922 Q81.154 960.316 81.154 951.589 Q81.154 942.839 84.2095 938.256 Q87.2882 933.649 93.0984 933.649 Z" fill="#000000" fill-rule="nonzero" fill-opacity="1" /><path clip-path="url(#clip440)" d="M123.26 937.353 Q119.649 937.353 117.82 940.918 Q116.015 944.459 116.015 951.589 Q116.015 958.695 117.82 962.26 Q119.649 965.802 123.26 965.802 Q126.894 965.802 128.7 962.26 Q130.529 958.695 130.529 951.589 Q130.529 944.459 128.7 940.918 Q126.894 937.353 123.26 937.353 M123.26 933.649 Q129.07 933.649 132.126 938.256 Q135.205 942.839 135.205 951.589 Q135.205 960.316 132.126 964.922 Q129.07 969.505 123.26 969.505 Q117.45 969.505 114.371 964.922 Q111.316 960.316 111.316 951.589 Q111.316 942.839 114.371 938.256 Q117.45 933.649 123.26 933.649 Z" fill="#000000" fill-rule="nonzero" fill-opacity="1" /><path clip-path="url(#clip440)" d="M147.45 964.899 L163.769 964.899 L163.769 968.834 L141.825 968.834 L141.825 964.899 Q144.487 962.144 149.07 957.515 Q153.677 952.862 154.857 951.519 Q157.103 948.996 157.982 947.26 Q158.885 945.501 158.885 943.811 Q158.885 941.056 156.941 939.32 Q155.019 937.584 151.918 937.584 Q149.718 937.584 147.265 938.348 Q144.834 939.112 142.056 940.663 L142.056 935.941 Q144.881 934.806 147.334 934.228 Q149.788 933.649 151.825 933.649 Q157.195 933.649 160.39 936.334 Q163.584 939.019 163.584 943.51 Q163.584 945.64 162.774 947.561 Q161.987 949.459 159.88 952.052 Q159.302 952.723 156.2 955.941 Q153.098 959.135 147.45 964.899 Z" fill="#000000" fill-rule="nonzero" fill-opacity="1" /><path clip-path="url(#clip440)" d="M52.7977 676.443 L60.4365 676.443 L60.4365 650.077 L52.1264 651.744 L52.1264 647.485 L60.3902 645.818 L65.0661 645.818 L65.0661 676.443 L72.705 676.443 L72.705 680.378 L52.7977 680.378 L52.7977 676.443 Z" fill="#000000" fill-rule="nonzero" fill-opacity="1" /><path clip-path="url(#clip440)" d="M92.1493 648.897 Q88.5382 648.897 86.7095 652.461 Q84.904 656.003 84.904 663.133 Q84.904 670.239 86.7095 673.804 Q88.5382 677.346 92.1493 677.346 Q95.7836 677.346 97.5891 673.804 Q99.4178 670.239 99.4178 663.133 Q99.4178 656.003 97.5891 652.461 Q95.7836 648.897 92.1493 648.897 M92.1493 645.193 Q97.9595 645.193 101.015 649.799 Q104.094 654.383 104.094 663.133 Q104.094 671.859 101.015 676.466 Q97.9595 681.049 92.1493 681.049 Q86.3392 681.049 83.2605 676.466 Q80.2049 671.859 80.2049 663.133 Q80.2049 654.383 83.2605 649.799 Q86.3392 645.193 92.1493 645.193 Z" fill="#000000" fill-rule="nonzero" fill-opacity="1" /><path clip-path="url(#clip440)" d="M122.311 648.897 Q118.7 648.897 116.871 652.461 Q115.066 656.003 115.066 663.133 Q115.066 670.239 116.871 673.804 Q118.7 677.346 122.311 677.346 Q125.945 677.346 127.751 673.804 Q129.58 670.239 129.58 663.133 Q129.58 656.003 127.751 652.461 Q125.945 648.897 122.311 648.897 M122.311 645.193 Q128.121 645.193 131.177 649.799 Q134.256 654.383 134.256 663.133 Q134.256 671.859 131.177 676.466 Q128.121 681.049 122.311 681.049 Q116.501 681.049 113.422 676.466 Q110.367 671.859 110.367 663.133 Q110.367 654.383 113.422 649.799 Q116.501 645.193 122.311 645.193 Z" fill="#000000" fill-rule="nonzero" fill-opacity="1" /><path clip-path="url(#clip440)" d="M156.64 661.744 Q159.996 662.461 161.871 664.73 Q163.769 666.998 163.769 670.332 Q163.769 675.447 160.251 678.248 Q156.732 681.049 150.251 681.049 Q148.075 681.049 145.76 680.609 Q143.468 680.193 141.015 679.336 L141.015 674.822 Q142.959 675.957 145.274 676.535 Q147.589 677.114 150.112 677.114 Q154.51 677.114 156.802 675.378 Q159.117 673.642 159.117 670.332 Q159.117 667.276 156.964 665.563 Q154.834 663.827 151.015 663.827 L146.987 663.827 L146.987 659.985 L151.2 659.985 Q154.649 659.985 156.478 658.619 Q158.306 657.23 158.306 654.637 Q158.306 651.975 156.408 650.563 Q154.533 649.128 151.015 649.128 Q149.093 649.128 146.894 649.545 Q144.695 649.961 142.056 650.841 L142.056 646.674 Q144.718 645.934 147.033 645.563 Q149.371 645.193 151.431 645.193 Q156.755 645.193 159.857 647.623 Q162.959 650.031 162.959 654.151 Q162.959 657.022 161.316 659.012 Q159.672 660.98 156.64 661.744 Z" fill="#000000" fill-rule="nonzero" fill-opacity="1" /><path clip-path="url(#clip440)" d="M51.6634 387.987 L59.3023 387.987 L59.3023 361.621 L50.9921 363.288 L50.9921 359.028 L59.256 357.362 L63.9319 357.362 L63.9319 387.987 L71.5707 387.987 L71.5707 391.922 L51.6634 391.922 L51.6634 387.987 Z" fill="#000000" fill-rule="nonzero" fill-opacity="1" /><path clip-path="url(#clip440)" d="M91.0151 360.44 Q87.404 360.44 85.5753 364.005 Q83.7697 367.547 83.7697 374.677 Q83.7697 381.783 85.5753 385.348 Q87.404 388.889 91.0151 388.889 Q94.6493 388.889 96.4548 385.348 Q98.2835 381.783 98.2835 374.677 Q98.2835 367.547 96.4548 364.005 Q94.6493 360.44 91.0151 360.44 M91.0151 356.737 Q96.8252 356.737 99.8808 361.343 Q102.959 365.927 102.959 374.677 Q102.959 383.403 99.8808 388.01 Q96.8252 392.593 91.0151 392.593 Q85.2049 392.593 82.1262 388.01 Q79.0707 383.403 79.0707 374.677 Q79.0707 365.927 82.1262 361.343 Q85.2049 356.737 91.0151 356.737 Z" fill="#000000" fill-rule="nonzero" fill-opacity="1" /><path clip-path="url(#clip440)" d="M121.177 360.44 Q117.566 360.44 115.737 364.005 Q113.932 367.547 113.932 374.677 Q113.932 381.783 115.737 385.348 Q117.566 388.889 121.177 388.889 Q124.811 388.889 126.617 385.348 Q128.445 381.783 128.445 374.677 Q128.445 367.547 126.617 364.005 Q124.811 360.44 121.177 360.44 M121.177 356.737 Q126.987 356.737 130.043 361.343 Q133.121 365.927 133.121 374.677 Q133.121 383.403 130.043 388.01 Q126.987 392.593 121.177 392.593 Q115.367 392.593 112.288 388.01 Q109.233 383.403 109.233 374.677 Q109.233 365.927 112.288 361.343 Q115.367 356.737 121.177 356.737 Z" fill="#000000" fill-rule="nonzero" fill-opacity="1" /><path clip-path="url(#clip440)" d="M154.186 361.436 L142.381 379.885 L154.186 379.885 L154.186 361.436 M152.959 357.362 L158.839 357.362 L158.839 379.885 L163.769 379.885 L163.769 383.774 L158.839 383.774 L158.839 391.922 L154.186 391.922 L154.186 383.774 L138.584 383.774 L138.584 379.26 L152.959 357.362 Z" fill="#000000" fill-rule="nonzero" fill-opacity="1" /><path clip-path="url(#clip440)" d="M53.1449 99.5305 L60.7837 99.5305 L60.7837 73.1649 L52.4736 74.8316 L52.4736 70.5723 L60.7374 68.9057 L65.4133 68.9057 L65.4133 99.5305 L73.0522 99.5305 L73.0522 103.466 L53.1449 103.466 L53.1449 99.5305 Z" fill="#000000" fill-rule="nonzero" fill-opacity="1" /><path clip-path="url(#clip440)" d="M92.4965 71.9844 Q88.8854 71.9844 87.0567 75.5492 Q85.2512 79.0908 85.2512 86.2204 Q85.2512 93.3268 87.0567 96.8916 Q88.8854 100.433 92.4965 100.433 Q96.1308 100.433 97.9363 96.8916 Q99.765 93.3268 99.765 86.2204 Q99.765 79.0908 97.9363 75.5492 Q96.1308 71.9844 92.4965 71.9844 M92.4965 68.2807 Q98.3067 68.2807 101.362 72.8871 Q104.441 77.4704 104.441 86.2204 Q104.441 94.9472 101.362 99.5537 Q98.3067 104.137 92.4965 104.137 Q86.6864 104.137 83.6077 99.5537 Q80.5522 94.9472 80.5522 86.2204 Q80.5522 77.4704 83.6077 72.8871 Q86.6864 68.2807 92.4965 68.2807 Z" fill="#000000" fill-rule="nonzero" fill-opacity="1" /><path clip-path="url(#clip440)" d="M122.658 71.9844 Q119.047 71.9844 117.219 75.5492 Q115.413 79.0908 115.413 86.2204 Q115.413 93.3268 117.219 96.8916 Q119.047 100.433 122.658 100.433 Q126.293 100.433 128.098 96.8916 Q129.927 93.3268 129.927 86.2204 Q129.927 79.0908 128.098 75.5492 Q126.293 71.9844 122.658 71.9844 M122.658 68.2807 Q128.469 68.2807 131.524 72.8871 Q134.603 77.4704 134.603 86.2204 Q134.603 94.9472 131.524 99.5537 Q128.469 104.137 122.658 104.137 Q116.848 104.137 113.77 99.5537 Q110.714 94.9472 110.714 86.2204 Q110.714 77.4704 113.77 72.8871 Q116.848 68.2807 122.658 68.2807 Z" fill="#000000" fill-rule="nonzero" fill-opacity="1" /><path clip-path="url(#clip440)" d="M142.867 68.9057 L161.223 68.9057 L161.223 72.8408 L147.149 72.8408 L147.149 81.313 Q148.168 80.9658 149.186 80.8038 Q150.205 80.6186 151.223 80.6186 Q157.01 80.6186 160.39 83.7899 Q163.769 86.9611 163.769 92.3778 Q163.769 97.9564 160.297 101.058 Q156.825 104.137 150.505 104.137 Q148.33 104.137 146.061 103.767 Q143.816 103.396 141.408 102.655 L141.408 97.9564 Q143.492 99.0907 145.714 99.6462 Q147.936 100.202 150.413 100.202 Q154.417 100.202 156.755 98.0953 Q159.093 95.9889 159.093 92.3778 Q159.093 88.7667 156.755 86.6602 Q154.417 84.5537 150.413 84.5537 Q148.538 84.5537 146.663 84.9704 Q144.811 85.3871 142.867 86.2667 L142.867 68.9057 Z" fill="#000000" fill-rule="nonzero" fill-opacity="1" /><polyline clip-path="url(#clip442)" style="stroke:#009af9; stroke-linecap:round; stroke-linejoin:round; stroke-width:4; stroke-opacity:1; fill:none" points="199.769,86.1857 201.924,130.13 204.08,173.318 206.235,215.749 208.39,257.423 210.545,298.34 212.7,338.501 214.855,377.906 217.01,416.553 219.166,454.444 221.321,491.577 223.476,527.953 225.631,563.576 227.786,598.443 229.941,632.551 232.096,665.9 234.252,698.491 236.407,730.326 238.562,761.405 240.717,791.73 242.872,821.298 245.027,850.108 247.182,878.161 249.338,905.456 251.493,931.994 253.648,957.782 255.803,982.814 257.958,1007.09 260.113,1030.6 262.268,1053.35 264.424,1075.34 266.579,1096.58 268.734,1117.08 270.889,1136.81 273.044,1155.79 275.199,1174 277.354,1191.45 279.51,1208.15 281.665,1224.09 283.82,1239.29 285.975,1253.74 288.13,1267.43 290.285,1280.34 292.44,1292.48 294.596,1303.87 296.751,1314.53 298.906,1324.43 301.061,1333.57 303.216,1341.94 305.371,1349.56 307.526,1356.43 309.682,1362.54 311.837,1367.89 313.992,1372.49 316.147,1376.33 318.302,1379.41 320.457,1381.73 322.612,1383.3 324.768,1384.11 326.923,1384.24 329.078,1384.24 331.233,1384.24 333.388,1384.24 335.543,1384.24 337.698,1384.24 339.854,1384.24 342.009,1384.24 344.164,1384.24 346.319,1384.24 348.474,1384.24 350.629,1384.24 352.784,1384.24 354.94,1384.24 357.095,1384.24 359.25,1384.24 361.405,1384.24 363.56,1384.24 365.715,1384.24 367.87,1384.24 370.025,1384.24 372.181,1384.24 374.336,1384.24 376.491,1384.24 378.646,1384.24 380.801,1384.24 382.956,1384.24 385.111,1384.24 387.267,1384.24 389.422,1384.24 391.577,1384.24 393.732,1384.24 395.887,1384.24 398.042,1384.24 400.197,1384.24 402.353,1384.24 404.508,1384.24 406.663,1384.24 408.818,1384.24 410.973,1384.24 413.128,1384.24 415.283,1384.24 417.439,1384.24 419.594,1384.24 421.749,1384.24 423.904,1384.24 426.059,1384.24 428.214,1384.24 430.369,1384.24 432.525,1384.24 434.68,1384.24 436.835,1384.24 438.99,1384.24 441.145,1384.24 443.3,1384.24 445.455,1384.24 447.611,1384.24 449.766,1384.24 451.921,1384.24 454.076,1384.24 456.231,1384.24 458.386,1384.24 460.541,1384.24 462.697,1384.24 464.852,1384.24 467.007,1384.24 469.162,1384.24 471.317,1384.24 473.472,1384.24 475.627,1384.24 477.783,1384.24 479.938,1384.24 482.093,1384.24 484.248,1384.24 486.403,1384.24 488.558,1384.24 490.713,1384.24 492.869,1384.24 495.024,1384.24 497.179,1384.24 499.334,1384.24 501.489,1384.24 503.644,1384.24 505.799,1384.24 507.955,1384.24 510.11,1384.24 512.265,1384.24 514.42,1384.24 516.575,1384.24 518.73,1384.24 520.885,1384.24 523.041,1384.24 525.196,1384.24 527.351,1384.24 529.506,1384.24 531.661,1384.24 533.816,1384.24 535.971,1384.24 538.127,1384.24 540.282,1384.24 542.437,1384.24 544.592,1384.24 546.747,1384.24 548.902,1384.24 551.057,1384.24 553.213,1384.24 555.368,1384.24 557.523,1384.24 559.678,1384.24 561.833,1384.24 563.988,1384.24 566.143,1384.24 568.299,1384.24 570.454,1384.24 572.609,1384.24 574.764,1384.24 576.919,1384.24 579.074,1384.24 581.229,1384.24 583.385,1384.24 585.54,1384.24 587.695,1384.24 589.85,1384.24 592.005,1384.24 594.16,1384.24 596.315,1384.24 598.471,1384.24 600.626,1384.24 602.781,1384.24 604.936,1384.24 607.091,1384.24 609.246,1384.24 611.401,1384.24 613.557,1384.24 615.712,1384.24 617.867,1384.24 620.022,1384.24 622.177,1384.24 624.332,1384.24 626.487,1384.24 628.643,1384.24 630.798,1384.24 632.953,1384.24 635.108,1384.24 637.263,1384.24 639.418,1384.24 641.573,1384.24 643.728,1384.24 645.884,1384.24 648.039,1384.24 650.194,1384.24 652.349,1384.24 654.504,1384.24 656.659,1384.24 658.814,1384.24 660.97,1384.24 663.125,1384.24 665.28,1384.24 667.435,1384.24 669.59,1384.24 671.745,1384.24 673.9,1384.24 676.056,1384.24 678.211,1384.24 680.366,1384.24 682.521,1384.24 684.676,1384.24 686.831,1384.24 688.986,1384.24 691.142,1384.24 693.297,1384.24 695.452,1384.24 697.607,1384.24 699.762,1384.24 701.917,1384.24 704.072,1384.24 706.228,1384.24 708.383,1384.24 710.538,1384.24 712.693,1384.24 714.848,1384.24 717.003,1384.24 719.158,1384.24 721.314,1384.24 723.469,1384.24 725.624,1384.24 727.779,1384.24 729.934,1384.24 732.089,1384.24 734.244,1384.24 736.4,1384.24 738.555,1384.24 740.71,1384.24 742.865,1384.24 745.02,1384.24 747.175,1384.24 749.33,1384.24 751.486,1384.24 753.641,1384.24 755.796,1384.24 757.951,1384.24 760.106,1384.24 762.261,1384.24 764.416,1384.24 766.572,1384.24 768.727,1384.24 770.882,1384.24 773.037,1384.24 775.192,1384.24 777.347,1384.24 779.502,1384.24 781.658,1384.24 783.813,1384.24 785.968,1384.24 788.123,1384.24 790.278,1384.24 792.433,1384.24 794.588,1384.24 796.744,1384.24 798.899,1384.24 801.054,1384.24 803.209,1384.24 805.364,1384.24 807.519,1384.24 809.674,1384.24 811.83,1384.24 813.985,1384.24 816.14,1384.24 818.295,1384.24 820.45,1384.24 822.605,1384.24 824.76,1384.24 826.916,1384.24 829.071,1384.24 831.226,1384.24 833.381,1384.24 835.536,1384.24 837.691,1384.24 839.846,1384.24 842.002,1384.24 844.157,1384.24 846.312,1384.24 848.467,1384.24 850.622,1384.24 852.777,1384.24 854.932,1384.24 857.088,1384.24 859.243,1384.24 861.398,1384.24 863.553,1384.24 865.708,1384.24 867.863,1384.24 870.018,1384.24 872.174,1384.24 874.329,1384.24 876.484,1384.24 878.639,1384.24 880.794,1384.24 882.949,1384.24 885.104,1384.24 887.26,1384.24 889.415,1384.24 891.57,1384.24 893.725,1384.24 895.88,1384.24 898.035,1384.24 900.19,1384.24 902.346,1384.24 904.501,1384.24 906.656,1384.24 908.811,1384.24 910.966,1384.24 913.121,1384.24 915.276,1384.24 917.432,1384.24 919.587,1384.24 921.742,1384.24 923.897,1384.24 926.052,1384.24 928.207,1384.24 930.362,1384.24 932.517,1384.24 934.673,1384.24 936.828,1384.24 938.983,1384.24 941.138,1384.24 943.293,1384.24 945.448,1384.24 947.603,1384.24 949.759,1384.24 951.914,1384.24 954.069,1384.24 956.224,1384.24 958.379,1384.24 960.534,1384.24 962.689,1384.24 964.845,1384.24 967,1384.24 969.155,1384.24 971.31,1384.24 973.465,1384.24 975.62,1384.24 977.775,1384.24 979.931,1384.24 982.086,1384.24 984.241,1384.24 986.396,1384.24 988.551,1384.24 990.706,1384.24 992.861,1384.24 995.017,1384.24 997.172,1384.24 999.327,1384.24 1001.48,1384.24 1003.64,1384.24 1005.79,1384.24 1007.95,1384.24 1010.1,1384.24 1012.26,1384.24 1014.41,1384.24 1016.57,1384.24 1018.72,1384.24 1020.88,1384.24 1023.03,1384.24 1025.19,1384.24 1027.34,1384.24 1029.5,1384.24 1031.65,1384.24 1033.81,1384.24 1035.96,1384.24 1038.12,1384.24 1040.27,1384.24 1042.43,1384.24 1044.58,1384.24 1046.74,1384.24 1048.9,1384.24 1051.05,1384.24 1053.21,1384.24 1055.36,1384.24 1057.52,1384.24 1059.67,1384.24 1061.83,1384.24 1063.98,1384.24 1066.14,1384.24 1068.29,1384.24 1070.45,1384.24 1072.6,1384.24 1074.76,1384.24 1076.91,1384.24 1079.07,1384.24 1081.22,1384.24 1083.38,1384.24 1085.53,1384.24 1087.69,1384.24 1089.84,1384.24 1092,1384.24 1094.15,1384.24 1096.31,1384.24 1098.46,1384.24 1100.62,1384.24 1102.77,1384.24 1104.93,1384.24 1107.08,1384.24 1109.24,1384.24 1111.39,1384.24 1113.55,1384.24 1115.7,1384.24 1117.86,1384.24 1120.01,1384.24 1122.17,1384.24 1124.33,1384.24 1126.48,1384.24 1128.64,1384.24 1130.79,1384.24 1132.95,1384.24 1135.1,1384.24 1137.26,1384.24 1139.41,1384.24 1141.57,1384.24 1143.72,1384.24 1145.88,1384.24 1148.03,1384.24 1150.19,1384.24 1152.34,1384.24 1154.5,1384.24 1156.65,1384.24 1158.81,1384.24 1160.96,1384.24 1163.12,1384.24 1165.27,1384.24 1167.43,1384.24 1169.58,1384.24 1171.74,1384.24 1173.89,1384.24 1176.05,1384.24 1178.2,1384.24 1180.36,1384.24 1182.51,1384.24 1184.67,1384.24 1186.82,1384.24 1188.98,1384.24 1191.13,1384.24 1193.29,1384.24 1195.44,1384.24 1197.6,1384.24 1199.76,1384.24 1201.91,1384.24 1204.07,1384.24 1206.22,1384.24 1208.38,1384.24 1210.53,1384.24 1212.69,1384.24 1214.84,1384.24 1217,1384.24 1219.15,1384.24 1221.31,1384.24 1223.46,1384.24 1225.62,1384.24 1227.77,1384.24 1229.93,1384.24 1232.08,1384.24 1234.24,1384.24 1236.39,1384.24 1238.55,1384.24 1240.7,1384.24 1242.86,1384.24 1245.01,1384.24 1247.17,1384.24 1249.32,1384.24 1251.48,1384.24 1253.63,1384.24 1255.79,1384.24 1257.94,1384.24 1260.1,1384.24 1262.25,1384.24 1264.41,1384.24 1266.56,1384.24 1268.72,1384.24 1270.87,1384.24 1273.03,1384.24 1275.19,1384.24 1277.34,1384.24 1279.5,1384.24 1281.65,1384.24 1283.81,1384.24 1285.96,1384.24 1288.12,1384.24 1290.27,1384.24 1292.43,1384.24 1294.58,1384.24 1296.74,1384.24 1298.89,1384.24 1301.05,1384.24 1303.2,1384.24 1305.36,1384.24 1307.51,1384.24 1309.67,1384.24 1311.82,1384.24 1313.98,1384.24 1316.13,1384.24 1318.29,1384.24 1320.44,1384.24 1322.6,1384.24 1324.75,1384.24 1326.91,1384.24 1329.06,1384.24 1331.22,1384.24 1333.37,1384.24 1335.53,1384.24 1337.68,1384.24 1339.84,1384.24 1341.99,1384.24 1344.15,1384.24 1346.3,1384.24 1348.46,1384.24 1350.61,1384.24 1352.77,1384.24 1354.93,1384.24 1357.08,1384.24 1359.24,1384.24 1361.39,1384.24 1363.55,1384.24 1365.7,1384.24 1367.86,1384.24 1370.01,1384.24 1372.17,1384.24 1374.32,1384.24 1376.48,1384.24 1378.63,1384.24 1380.79,1384.24 1382.94,1384.24 1385.1,1384.24 1387.25,1384.24 1389.41,1384.24 1391.56,1384.24 1393.72,1384.24 1395.87,1384.24 1398.03,1384.24 1400.18,1384.24 1402.34,1384.24 1404.49,1384.24 1406.65,1384.24 1408.8,1384.24 1410.96,1384.24 1413.11,1384.24 1415.27,1384.24 1417.42,1384.24 1419.58,1384.24 1421.73,1384.24 1423.89,1384.24 1426.04,1384.24 1428.2,1384.24 1430.36,1384.24 1432.51,1384.24 1434.67,1384.24 1436.82,1384.24 1438.98,1384.24 1441.13,1384.24 1443.29,1384.24 1445.44,1384.24 1447.6,1384.24 1449.75,1384.24 1451.91,1384.24 1454.06,1384.24 1456.22,1384.24 1458.37,1384.24 1460.53,1384.24 1462.68,1384.24 1464.84,1384.24 1466.99,1384.24 1469.15,1384.24 1471.3,1384.24 1473.46,1384.24 1475.61,1384.24 1477.77,1384.24 1479.92,1384.24 1482.08,1384.24 1484.23,1384.24 1486.39,1384.24 1488.54,1384.24 1490.7,1384.24 1492.85,1384.24 1495.01,1384.24 1497.16,1384.24 1499.32,1384.24 1501.47,1384.24 1503.63,1384.24 1505.79,1384.24 1507.94,1384.24 1510.1,1384.24 1512.25,1384.24 1514.41,1384.24 1516.56,1384.24 1518.72,1384.24 1520.87,1384.24 1523.03,1384.24 1525.18,1384.24 1527.34,1384.24 1529.49,1384.24 1531.65,1384.24 1533.8,1384.24 1535.96,1384.24 1538.11,1384.24 1540.27,1384.24 1542.42,1384.24 1544.58,1384.24 1546.73,1384.24 1548.89,1384.24 1551.04,1384.24 1553.2,1384.24 1555.35,1384.24 1557.51,1384.24 1559.66,1384.24 1561.82,1384.24 1563.97,1384.24 1566.13,1384.24 1568.28,1384.24 1570.44,1384.24 1572.59,1384.24 1574.75,1384.24 1576.9,1384.24 1579.06,1384.24 1581.22,1384.24 1583.37,1384.24 1585.53,1384.24 1587.68,1384.24 1589.84,1384.24 1591.99,1384.24 1594.15,1384.24 1596.3,1384.24 1598.46,1384.24 1600.61,1384.24 1602.77,1384.24 1604.92,1384.24 1607.08,1384.24 1609.23,1384.24 1611.39,1384.24 1613.54,1384.24 1615.7,1384.24 1617.85,1384.24 1620.01,1384.24 1622.16,1384.24 1624.32,1384.24 1626.47,1384.24 1628.63,1384.24 1630.78,1384.24 1632.94,1384.24 1635.09,1384.24 1637.25,1384.24 1639.4,1384.24 1641.56,1384.24 1643.71,1384.24 1645.87,1384.24 1648.02,1384.24 1650.18,1384.24 1652.33,1384.24 1654.49,1384.24 1656.65,1384.24 1658.8,1384.24 1660.96,1384.24 1663.11,1384.24 1665.27,1384.24 1667.42,1384.24 1669.58,1384.24 1671.73,1384.24 1673.89,1384.24 1676.04,1384.24 1678.2,1384.24 1680.35,1384.24 1682.51,1384.24 1684.66,1384.24 1686.82,1384.24 1688.97,1384.24 1691.13,1384.24 1693.28,1384.24 1695.44,1384.24 1697.59,1384.24 1699.75,1384.24 1701.9,1384.24 1704.06,1384.24 1706.21,1384.24 1708.37,1384.24 1710.52,1384.24 1712.68,1384.24 1714.83,1384.24 1716.99,1384.24 1719.14,1384.24 1721.3,1384.24 1723.45,1384.24 1725.61,1384.24 1727.76,1384.24 1729.92,1384.24 1732.08,1384.24 1734.23,1384.24 1736.39,1384.24 1738.54,1384.24 1740.7,1384.24 1742.85,1384.24 1745.01,1384.24 1747.16,1384.24 1749.32,1384.24 1751.47,1384.24 1753.63,1384.24 1755.78,1384.24 1757.94,1384.24 1760.09,1384.24 1762.25,1384.24 1764.4,1384.24 1766.56,1384.24 1768.71,1384.24 1770.87,1384.24 1773.02,1384.24 1775.18,1384.24 1777.33,1384.24 1779.49,1384.24 1781.64,1384.24 1783.8,1384.24 1785.95,1384.24 1788.11,1384.24 1790.26,1384.24 1792.42,1384.24 1794.57,1384.24 1796.73,1384.24 1798.88,1384.24 1801.04,1384.24 1803.19,1384.24 1805.35,1384.24 1807.51,1384.24 1809.66,1384.24 1811.82,1384.24 1813.97,1384.24 1816.13,1384.24 1818.28,1384.24 1820.44,1384.24 1822.59,1384.24 1824.75,1384.24 1826.9,1384.24 1829.06,1384.24 1831.21,1384.24 1833.37,1384.24 1835.52,1384.24 1837.68,1384.24 1839.83,1384.24 1841.99,1384.24 1844.14,1384.24 1846.3,1384.24 1848.45,1384.24 1850.61,1384.24 1852.76,1384.24 1854.92,1384.24 1857.07,1384.24 1859.23,1384.24 1861.38,1384.24 1863.54,1384.24 1865.69,1384.24 1867.85,1384.24 1870,1384.24 1872.16,1384.24 1874.31,1384.24 1876.47,1384.24 1878.62,1384.24 1880.78,1384.24 1882.94,1384.24 1885.09,1384.24 1887.25,1384.24 1889.4,1384.24 1891.56,1384.24 1893.71,1384.24 1895.87,1384.24 1898.02,1384.24 1900.18,1384.24 1902.33,1384.24 1904.49,1384.24 1906.64,1384.24 1908.8,1384.24 1910.95,1384.24 1913.11,1384.24 1915.26,1384.24 1917.42,1384.24 1919.57,1384.24 1921.73,1384.24 1923.88,1384.24 1926.04,1384.24 1928.19,1384.24 1930.35,1384.24 1932.5,1384.24 1934.66,1384.24 1936.81,1384.24 1938.97,1384.24 1941.12,1384.24 1943.28,1384.24 1945.43,1384.24 1947.59,1384.24 1949.74,1384.24 1951.9,1384.24 1954.05,1384.24 1956.21,1384.24 1958.36,1384.24 1960.52,1384.24 1962.68,1384.24 1964.83,1384.24 1966.99,1384.24 1969.14,1384.24 1971.3,1384.24 1973.45,1384.24 1975.61,1384.24 1977.76,1384.24 1979.92,1384.24 1982.07,1384.24 1984.23,1384.24 1986.38,1384.24 1988.54,1384.24 1990.69,1384.24 1992.85,1384.24 1995,1384.24 1997.16,1384.24 1999.31,1384.24 2001.47,1384.24 2003.62,1384.24 2005.78,1384.24 2007.93,1384.24 2010.09,1384.24 2012.24,1384.24 2014.4,1384.24 2016.55,1384.24 2018.71,1384.24 2020.86,1384.24 2023.02,1384.24 2025.17,1384.24 2027.33,1384.24 2029.48,1384.24 2031.64,1384.24 2033.79,1384.24 2035.95,1384.24 2038.11,1384.24 2040.26,1384.24 2042.42,1384.24 2044.57,1384.24 2046.73,1384.24 2048.88,1384.24 2051.04,1384.24 2053.19,1384.24 2055.35,1384.24 2057.5,1384.24 2059.66,1384.24 2061.81,1384.24 2063.97,1384.24 2066.12,1384.24 2068.28,1384.24 2070.43,1384.24 2072.59,1384.24 2074.74,1384.24 2076.9,1384.24 2079.05,1384.24 2081.21,1384.24 2083.36,1384.24 2085.52,1384.24 2087.67,1384.24 2089.83,1384.24 2091.98,1384.24 2094.14,1384.24 2096.29,1384.24 2098.45,1384.24 2100.6,1384.24 2102.76,1384.24 2104.91,1384.24 2107.07,1384.24 2109.22,1384.24 2111.38,1384.24 2113.54,1384.24 2115.69,1384.24 2117.85,1384.24 2120,1384.24 2122.16,1384.24 2124.31,1384.24 2126.47,1384.24 2128.62,1384.24 2130.78,1384.24 2132.93,1384.24 2135.09,1384.24 2137.24,1384.24 2139.4,1384.24 2141.55,1384.24 2143.71,1384.24 2145.86,1384.24 2148.02,1384.24 2150.17,1384.24 2152.33,1384.24 2154.48,1384.24 2156.64,1384.24 2158.79,1384.24 2160.95,1384.24 2163.1,1384.24 2165.26,1384.24 2167.41,1384.24 2169.57,1384.24 2171.72,1384.24 2173.88,1384.24 2176.03,1384.24 2178.19,1384.24 2180.34,1384.24 2182.5,1384.24 2184.65,1384.24 2186.81,1384.24 2188.97,1384.24 2191.12,1384.24 2193.28,1384.24 2195.43,1384.24 2197.59,1384.24 2199.74,1384.24 2201.9,1384.24 2204.05,1384.24 2206.21,1384.24 2208.36,1384.24 2210.52,1384.24 2212.67,1384.24 2214.83,1384.24 2216.98,1384.24 2219.14,1384.24 2221.29,1384.24 2223.45,1384.24 2225.6,1384.24 2227.76,1384.24 2229.91,1384.24 2232.07,1384.24 2234.22,1384.24 2236.38,1384.24 2238.53,1384.24 2240.69,1384.24 2242.84,1384.24 2245,1384.24 2247.15,1384.24 2249.31,1384.24 2251.46,1384.24 2253.62,1384.24 2255.77,1384.24 2257.93,1384.24 2260.08,1384.24 2262.24,1384.24 2264.4,1384.24 2266.55,1384.24 2268.71,1384.24 2270.86,1384.24 2273.02,1384.24 2275.17,1384.24 2277.33,1384.24 2279.48,1384.24 2281.64,1384.24 2283.79,1384.24 2285.95,1384.24 2288.1,1384.24 2290.26,1384.24 2292.41,1384.24 2294.57,1384.24 2296.72,1384.24 2298.88,1384.24 2301.03,1384.24 2303.19,1384.24 2305.34,1384.24 2307.5,1384.24 2309.65,1384.24 2311.81,1384.24 2313.96,1384.24 2316.12,1384.24 2318.27,1384.24 2320.43,1384.24 2322.58,1384.24 2324.74,1384.24 2326.89,1384.24 2329.05,1384.24 2331.2,1384.24 2333.36,1384.24 2335.51,1384.24 2337.67,1384.24 2339.83,1384.24 2341.98,1384.24 2344.14,1384.24 2346.29,1384.24 2348.45,1384.24 2350.6,1384.24 2352.76,1384.24 "/>
<polyline clip-path="url(#clip442)" style="stroke:#e26f46; stroke-linecap:round; stroke-linejoin:round; stroke-width:4; stroke-opacity:1; fill:none" points="199.769,86.1857 201.924,130.13 204.08,173.318 206.235,215.749 208.39,257.423 210.545,298.34 212.7,338.501 214.855,377.906 217.01,416.553 219.166,454.444 221.321,491.577 223.476,527.953 225.631,563.576 227.786,598.443 229.941,632.551 232.096,665.9 234.252,698.491 236.407,730.326 238.562,761.405 240.717,791.73 242.872,821.298 245.027,850.108 247.182,878.161 249.338,905.456 251.493,931.994 253.648,957.782 255.803,982.814 257.958,1007.09 260.113,1030.6 262.268,1053.35 264.424,1075.34 266.579,1096.58 268.734,1117.08 270.889,1136.81 273.044,1155.79 275.199,1174 277.354,1191.45 279.51,1208.15 281.665,1224.09 283.82,1239.29 285.975,1253.73 288.13,1267.4 290.285,1280.31 292.44,1292.47 294.596,1303.9 296.751,1314.36 298.906,1323.48 301.061,1331.39 303.216,1338.26 305.371,1344.25 307.526,1349.45 309.682,1353.98 311.837,1357.91 313.992,1361.34 316.147,1364.32 318.302,1366.91 320.457,1369.17 322.612,1371.13 324.768,1372.83 326.923,1374.32 329.078,1375.61 331.233,1376.73 333.388,1377.71 335.543,1378.56 337.698,1379.3 339.854,1379.94 342.009,1380.5 344.164,1380.99 346.319,1381.41 348.474,1381.78 350.629,1382.1 352.784,1382.38 354.94,1382.62 357.095,1382.83 359.25,1383.01 361.405,1383.17 363.56,1383.31 365.715,1383.43 367.87,1383.54 370.025,1383.63 372.181,1383.71 374.336,1383.78 376.491,1383.84 378.646,1383.89 380.801,1383.93 382.956,1383.97 385.111,1384.01 387.267,1384.04 389.422,1384.06 391.577,1384.09 393.732,1384.11 395.887,1384.12 398.042,1384.14 400.197,1384.15 402.353,1384.16 404.508,1384.17 406.663,1384.18 408.818,1384.19 410.973,1384.2 413.128,1384.2 415.283,1384.21 417.439,1384.21 419.594,1384.21 421.749,1384.22 423.904,1384.22 426.059,1384.22 428.214,1384.22 430.369,1384.23 432.525,1384.23 434.68,1384.23 436.835,1384.23 438.99,1384.23 441.145,1384.23 443.3,1384.23 445.455,1384.23 447.611,1384.23 449.766,1384.23 451.921,1384.24 454.076,1384.24 456.231,1384.24 458.386,1384.24 460.541,1384.24 462.697,1384.24 464.852,1384.24 467.007,1384.24 469.162,1384.24 471.317,1384.24 473.472,1384.24 475.627,1384.24 477.783,1384.24 479.938,1384.24 482.093,1384.24 484.248,1384.24 486.403,1384.24 488.558,1384.24 490.713,1384.24 492.869,1384.24 495.024,1384.24 497.179,1384.24 499.334,1384.24 501.489,1384.24 503.644,1384.24 505.799,1384.24 507.955,1384.24 510.11,1384.24 512.265,1384.24 514.42,1384.24 516.575,1384.24 518.73,1384.24 520.885,1384.24 523.041,1384.24 525.196,1384.24 527.351,1384.24 529.506,1384.24 531.661,1384.24 533.816,1384.24 535.971,1384.24 538.127,1384.24 540.282,1384.24 542.437,1384.24 544.592,1384.24 546.747,1384.24 548.902,1384.24 551.057,1384.24 553.213,1384.24 555.368,1384.24 557.523,1384.24 559.678,1384.24 561.833,1384.24 563.988,1384.24 566.143,1384.24 568.299,1384.24 570.454,1384.24 572.609,1384.24 574.764,1384.24 576.919,1384.24 579.074,1384.24 581.229,1384.24 583.385,1384.24 585.54,1384.24 587.695,1384.24 589.85,1384.24 592.005,1384.24 594.16,1384.24 596.315,1384.24 598.471,1384.24 600.626,1384.24 602.781,1384.24 604.936,1384.24 607.091,1384.24 609.246,1384.24 611.401,1384.24 613.557,1384.24 615.712,1384.24 617.867,1384.24 620.022,1384.24 622.177,1384.24 624.332,1384.24 626.487,1384.24 628.643,1384.24 630.798,1384.24 632.953,1384.24 635.108,1384.24 637.263,1384.24 639.418,1384.24 641.573,1384.24 643.728,1384.24 645.884,1384.24 648.039,1384.24 650.194,1384.24 652.349,1384.24 654.504,1384.24 656.659,1384.24 658.814,1384.24 660.97,1384.24 663.125,1384.24 665.28,1384.24 667.435,1384.24 669.59,1384.24 671.745,1384.24 673.9,1384.24 676.056,1384.24 678.211,1384.24 680.366,1384.24 682.521,1384.24 684.676,1384.24 686.831,1384.24 688.986,1384.24 691.142,1384.24 693.297,1384.24 695.452,1384.24 697.607,1384.24 699.762,1384.24 701.917,1384.24 704.072,1384.24 706.228,1384.24 708.383,1384.24 710.538,1384.24 712.693,1384.24 714.848,1384.24 717.003,1384.24 719.158,1384.24 721.314,1384.24 723.469,1384.24 725.624,1384.24 727.779,1384.24 729.934,1384.24 732.089,1384.24 734.244,1384.24 736.4,1384.24 738.555,1384.24 740.71,1384.24 742.865,1384.24 745.02,1384.24 747.175,1384.24 749.33,1384.24 751.486,1384.24 753.641,1384.24 755.796,1384.24 757.951,1384.24 760.106,1384.24 762.261,1384.24 764.416,1384.24 766.572,1384.24 768.727,1384.24 770.882,1384.24 773.037,1384.24 775.192,1384.24 777.347,1384.24 779.502,1384.24 781.658,1384.24 783.813,1384.24 785.968,1384.24 788.123,1384.24 790.278,1384.24 792.433,1384.24 794.588,1384.24 796.744,1384.24 798.899,1384.24 801.054,1384.24 803.209,1384.24 805.364,1384.24 807.519,1384.24 809.674,1384.24 811.83,1384.24 813.985,1384.24 816.14,1384.24 818.295,1384.24 820.45,1384.24 822.605,1384.24 824.76,1384.24 826.916,1384.24 829.071,1384.24 831.226,1384.24 833.381,1384.24 835.536,1384.24 837.691,1384.24 839.846,1384.24 842.002,1384.24 844.157,1384.24 846.312,1384.24 848.467,1384.24 850.622,1384.24 852.777,1384.24 854.932,1384.24 857.088,1384.24 859.243,1384.24 861.398,1384.24 863.553,1384.24 865.708,1384.24 867.863,1384.24 870.018,1384.24 872.174,1384.24 874.329,1384.24 876.484,1384.24 878.639,1384.24 880.794,1384.24 882.949,1384.24 885.104,1384.24 887.26,1384.24 889.415,1384.24 891.57,1384.24 893.725,1384.24 895.88,1384.24 898.035,1384.24 900.19,1384.24 902.346,1384.24 904.501,1384.24 906.656,1384.24 908.811,1384.24 910.966,1384.24 913.121,1384.24 915.276,1384.24 917.432,1384.24 919.587,1384.24 921.742,1384.24 923.897,1384.24 926.052,1384.24 928.207,1384.24 930.362,1384.24 932.517,1384.24 934.673,1384.24 936.828,1384.24 938.983,1384.24 941.138,1384.24 943.293,1384.24 945.448,1384.24 947.603,1384.24 949.759,1384.24 951.914,1384.24 954.069,1384.24 956.224,1384.24 958.379,1384.24 960.534,1384.24 962.689,1384.24 964.845,1384.24 967,1384.24 969.155,1384.24 971.31,1384.24 973.465,1384.24 975.62,1384.24 977.775,1384.24 979.931,1384.24 982.086,1384.24 984.241,1384.24 986.396,1384.24 988.551,1384.24 990.706,1384.24 992.861,1384.24 995.017,1384.24 997.172,1384.24 999.327,1384.24 1001.48,1384.24 1003.64,1384.24 1005.79,1384.24 1007.95,1384.24 1010.1,1384.24 1012.26,1384.24 1014.41,1384.24 1016.57,1384.24 1018.72,1384.24 1020.88,1384.24 1023.03,1384.24 1025.19,1384.24 1027.34,1384.24 1029.5,1384.24 1031.65,1384.24 1033.81,1384.24 1035.96,1384.24 1038.12,1384.24 1040.27,1384.24 1042.43,1384.24 1044.58,1384.24 1046.74,1384.24 1048.9,1384.24 1051.05,1384.24 1053.21,1384.24 1055.36,1384.24 1057.52,1384.24 1059.67,1384.24 1061.83,1384.24 1063.98,1384.24 1066.14,1384.24 1068.29,1384.24 1070.45,1384.24 1072.6,1384.24 1074.76,1384.24 1076.91,1384.24 1079.07,1384.24 1081.22,1384.24 1083.38,1384.24 1085.53,1384.24 1087.69,1384.24 1089.84,1384.24 1092,1384.24 1094.15,1384.24 1096.31,1384.24 1098.46,1384.24 1100.62,1384.24 1102.77,1384.24 1104.93,1384.24 1107.08,1384.24 1109.24,1384.24 1111.39,1384.24 1113.55,1384.24 1115.7,1384.24 1117.86,1384.24 1120.01,1384.24 1122.17,1384.24 1124.33,1384.24 1126.48,1384.24 1128.64,1384.24 1130.79,1384.24 1132.95,1384.24 1135.1,1384.24 1137.26,1384.24 1139.41,1384.24 1141.57,1384.24 1143.72,1384.24 1145.88,1384.24 1148.03,1384.24 1150.19,1384.24 1152.34,1384.24 1154.5,1384.24 1156.65,1384.24 1158.81,1384.24 1160.96,1384.24 1163.12,1384.24 1165.27,1384.24 1167.43,1384.24 1169.58,1384.24 1171.74,1384.24 1173.89,1384.24 1176.05,1384.24 1178.2,1384.24 1180.36,1384.24 1182.51,1384.24 1184.67,1384.24 1186.82,1384.24 1188.98,1384.24 1191.13,1384.24 1193.29,1384.24 1195.44,1384.24 1197.6,1384.24 1199.76,1384.24 1201.91,1384.24 1204.07,1384.24 1206.22,1384.24 1208.38,1384.24 1210.53,1384.24 1212.69,1384.24 1214.84,1384.24 1217,1384.24 1219.15,1384.24 1221.31,1384.24 1223.46,1384.24 1225.62,1384.24 1227.77,1384.24 1229.93,1384.24 1232.08,1384.24 1234.24,1384.24 1236.39,1384.24 1238.55,1384.24 1240.7,1384.24 1242.86,1384.24 1245.01,1384.24 1247.17,1384.24 1249.32,1384.24 1251.48,1384.24 1253.63,1384.24 1255.79,1384.24 1257.94,1384.24 1260.1,1384.24 1262.25,1384.24 1264.41,1384.24 1266.56,1384.24 1268.72,1384.24 1270.87,1384.24 1273.03,1384.24 1275.19,1384.24 1277.34,1384.24 1279.5,1384.24 1281.65,1384.24 1283.81,1384.24 1285.96,1384.24 1288.12,1384.24 1290.27,1384.24 1292.43,1384.24 1294.58,1384.24 1296.74,1384.24 1298.89,1384.24 1301.05,1384.24 1303.2,1384.24 1305.36,1384.24 1307.51,1384.24 1309.67,1384.24 1311.82,1384.24 1313.98,1384.24 1316.13,1384.24 1318.29,1384.24 1320.44,1384.24 1322.6,1384.24 1324.75,1384.24 1326.91,1384.24 1329.06,1384.24 1331.22,1384.24 1333.37,1384.24 1335.53,1384.24 1337.68,1384.24 1339.84,1384.24 1341.99,1384.24 1344.15,1384.24 1346.3,1384.24 1348.46,1384.24 1350.61,1384.24 1352.77,1384.24 1354.93,1384.24 1357.08,1384.24 1359.24,1384.24 1361.39,1384.24 1363.55,1384.24 1365.7,1384.24 1367.86,1384.24 1370.01,1384.24 1372.17,1384.24 1374.32,1384.24 1376.48,1384.24 1378.63,1384.24 1380.79,1384.24 1382.94,1384.24 1385.1,1384.24 1387.25,1384.24 1389.41,1384.24 1391.56,1384.24 1393.72,1384.24 1395.87,1384.24 1398.03,1384.24 1400.18,1384.24 1402.34,1384.24 1404.49,1384.24 1406.65,1384.24 1408.8,1384.24 1410.96,1384.24 1413.11,1384.24 1415.27,1384.24 1417.42,1384.24 1419.58,1384.24 1421.73,1384.24 1423.89,1384.24 1426.04,1384.24 1428.2,1384.24 1430.36,1384.24 1432.51,1384.24 1434.67,1384.24 1436.82,1384.24 1438.98,1384.24 1441.13,1384.24 1443.29,1384.24 1445.44,1384.24 1447.6,1384.24 1449.75,1384.24 1451.91,1384.24 1454.06,1384.24 1456.22,1384.24 1458.37,1384.24 1460.53,1384.24 1462.68,1384.24 1464.84,1384.24 1466.99,1384.24 1469.15,1384.24 1471.3,1384.24 1473.46,1384.24 1475.61,1384.24 1477.77,1384.24 1479.92,1384.24 1482.08,1384.24 1484.23,1384.24 1486.39,1384.24 1488.54,1384.24 1490.7,1384.24 1492.85,1384.24 1495.01,1384.24 1497.16,1384.24 1499.32,1384.24 1501.47,1384.24 1503.63,1384.24 1505.79,1384.24 1507.94,1384.24 1510.1,1384.24 1512.25,1384.24 1514.41,1384.24 1516.56,1384.24 1518.72,1384.24 1520.87,1384.24 1523.03,1384.24 1525.18,1384.24 1527.34,1384.24 1529.49,1384.24 1531.65,1384.24 1533.8,1384.24 1535.96,1384.24 1538.11,1384.24 1540.27,1384.24 1542.42,1384.24 1544.58,1384.24 1546.73,1384.24 1548.89,1384.24 1551.04,1384.24 1553.2,1384.24 1555.35,1384.24 1557.51,1384.24 1559.66,1384.24 1561.82,1384.24 1563.97,1384.24 1566.13,1384.24 1568.28,1384.24 1570.44,1384.24 1572.59,1384.24 1574.75,1384.24 1576.9,1384.24 1579.06,1384.24 1581.22,1384.24 1583.37,1384.24 1585.53,1384.24 1587.68,1384.24 1589.84,1384.24 1591.99,1384.24 1594.15,1384.24 1596.3,1384.24 1598.46,1384.24 1600.61,1384.24 1602.77,1384.24 1604.92,1384.24 1607.08,1384.24 1609.23,1384.24 1611.39,1384.24 1613.54,1384.24 1615.7,1384.24 1617.85,1384.24 1620.01,1384.24 1622.16,1384.24 1624.32,1384.24 1626.47,1384.24 1628.63,1384.24 1630.78,1384.24 1632.94,1384.24 1635.09,1384.24 1637.25,1384.24 1639.4,1384.24 1641.56,1384.24 1643.71,1384.24 1645.87,1384.24 1648.02,1384.24 1650.18,1384.24 1652.33,1384.24 1654.49,1384.24 1656.65,1384.24 1658.8,1384.24 1660.96,1384.24 1663.11,1384.24 1665.27,1384.24 1667.42,1384.24 1669.58,1384.24 1671.73,1384.24 1673.89,1384.24 1676.04,1384.24 1678.2,1384.24 1680.35,1384.24 1682.51,1384.24 1684.66,1384.24 1686.82,1384.24 1688.97,1384.24 1691.13,1384.24 1693.28,1384.24 1695.44,1384.24 1697.59,1384.24 1699.75,1384.24 1701.9,1384.24 1704.06,1384.24 1706.21,1384.24 1708.37,1384.24 1710.52,1384.24 1712.68,1384.24 1714.83,1384.24 1716.99,1384.24 1719.14,1384.24 1721.3,1384.24 1723.45,1384.24 1725.61,1384.24 1727.76,1384.24 1729.92,1384.24 1732.08,1384.24 1734.23,1384.24 1736.39,1384.24 1738.54,1384.24 1740.7,1384.24 1742.85,1384.24 1745.01,1384.24 1747.16,1384.24 1749.32,1384.24 1751.47,1384.24 1753.63,1384.24 1755.78,1384.24 1757.94,1384.24 1760.09,1384.24 1762.25,1384.24 1764.4,1384.24 1766.56,1384.24 1768.71,1384.24 1770.87,1384.24 1773.02,1384.24 1775.18,1384.24 1777.33,1384.24 1779.49,1384.24 1781.64,1384.24 1783.8,1384.24 1785.95,1384.24 1788.11,1384.24 1790.26,1384.24 1792.42,1384.24 1794.57,1384.24 1796.73,1384.24 1798.88,1384.24 1801.04,1384.24 1803.19,1384.24 1805.35,1384.24 1807.51,1384.24 1809.66,1384.24 1811.82,1384.24 1813.97,1384.24 1816.13,1384.24 1818.28,1384.24 1820.44,1384.24 1822.59,1384.24 1824.75,1384.24 1826.9,1384.24 1829.06,1384.24 1831.21,1384.24 1833.37,1384.24 1835.52,1384.24 1837.68,1384.24 1839.83,1384.24 1841.99,1384.24 1844.14,1384.24 1846.3,1384.24 1848.45,1384.24 1850.61,1384.24 1852.76,1384.24 1854.92,1384.24 1857.07,1384.24 1859.23,1384.24 1861.38,1384.24 1863.54,1384.24 1865.69,1384.24 1867.85,1384.24 1870,1384.24 1872.16,1384.24 1874.31,1384.24 1876.47,1384.24 1878.62,1384.24 1880.78,1384.24 1882.94,1384.24 1885.09,1384.24 1887.25,1384.24 1889.4,1384.24 1891.56,1384.24 1893.71,1384.24 1895.87,1384.24 1898.02,1384.24 1900.18,1384.24 1902.33,1384.24 1904.49,1384.24 1906.64,1384.24 1908.8,1384.24 1910.95,1384.24 1913.11,1384.24 1915.26,1384.24 1917.42,1384.24 1919.57,1384.24 1921.73,1384.24 1923.88,1384.24 1926.04,1384.24 1928.19,1384.24 1930.35,1384.24 1932.5,1384.24 1934.66,1384.24 1936.81,1384.24 1938.97,1384.24 1941.12,1384.24 1943.28,1384.24 1945.43,1384.24 1947.59,1384.24 1949.74,1384.24 1951.9,1384.24 1954.05,1384.24 1956.21,1384.24 1958.36,1384.24 1960.52,1384.24 1962.68,1384.24 1964.83,1384.24 1966.99,1384.24 1969.14,1384.24 1971.3,1384.24 1973.45,1384.24 1975.61,1384.24 1977.76,1384.24 1979.92,1384.24 1982.07,1384.24 1984.23,1384.24 1986.38,1384.24 1988.54,1384.24 1990.69,1384.24 1992.85,1384.24 1995,1384.24 1997.16,1384.24 1999.31,1384.24 2001.47,1384.24 2003.62,1384.24 2005.78,1384.24 2007.93,1384.24 2010.09,1384.24 2012.24,1384.24 2014.4,1384.24 2016.55,1384.24 2018.71,1384.24 2020.86,1384.24 2023.02,1384.24 2025.17,1384.24 2027.33,1384.24 2029.48,1384.24 2031.64,1384.24 2033.79,1384.24 2035.95,1384.24 2038.11,1384.24 2040.26,1384.24 2042.42,1384.24 2044.57,1384.24 2046.73,1384.24 2048.88,1384.24 2051.04,1384.24 2053.19,1384.24 2055.35,1384.24 2057.5,1384.24 2059.66,1384.24 2061.81,1384.24 2063.97,1384.24 2066.12,1384.24 2068.28,1384.24 2070.43,1384.24 2072.59,1384.24 2074.74,1384.24 2076.9,1384.24 2079.05,1384.24 2081.21,1384.24 2083.36,1384.24 2085.52,1384.24 2087.67,1384.24 2089.83,1384.24 2091.98,1384.24 2094.14,1384.24 2096.29,1384.24 2098.45,1384.24 2100.6,1384.24 2102.76,1384.24 2104.91,1384.24 2107.07,1384.24 2109.22,1384.24 2111.38,1384.24 2113.54,1384.24 2115.69,1384.24 2117.85,1384.24 2120,1384.24 2122.16,1384.24 2124.31,1384.24 2126.47,1384.24 2128.62,1384.24 2130.78,1384.24 2132.93,1384.24 2135.09,1384.24 2137.24,1384.24 2139.4,1384.24 2141.55,1384.24 2143.71,1384.24 2145.86,1384.24 2148.02,1384.24 2150.17,1384.24 2152.33,1384.24 2154.48,1384.24 2156.64,1384.24 2158.79,1384.24 2160.95,1384.24 2163.1,1384.24 2165.26,1384.24 2167.41,1384.24 2169.57,1384.24 2171.72,1384.24 2173.88,1384.24 2176.03,1384.24 2178.19,1384.24 2180.34,1384.24 2182.5,1384.24 2184.65,1384.24 2186.81,1384.24 2188.97,1384.24 2191.12,1384.24 2193.28,1384.24 2195.43,1384.24 2197.59,1384.24 2199.74,1384.24 2201.9,1384.24 2204.05,1384.24 2206.21,1384.24 2208.36,1384.24 2210.52,1384.24 2212.67,1384.24 2214.83,1384.24 2216.98,1384.24 2219.14,1384.24 2221.29,1384.24 2223.45,1384.24 2225.6,1384.24 2227.76,1384.24 2229.91,1384.24 2232.07,1384.24 2234.22,1384.24 2236.38,1384.24 2238.53,1384.24 2240.69,1384.24 2242.84,1384.24 2245,1384.24 2247.15,1384.24 2249.31,1384.24 2251.46,1384.24 2253.62,1384.24 2255.77,1384.24 2257.93,1384.24 2260.08,1384.24 2262.24,1384.24 2264.4,1384.24 2266.55,1384.24 2268.71,1384.24 2270.86,1384.24 2273.02,1384.24 2275.17,1384.24 2277.33,1384.24 2279.48,1384.24 2281.64,1384.24 2283.79,1384.24 2285.95,1384.24 2288.1,1384.24 2290.26,1384.24 2292.41,1384.24 2294.57,1384.24 2296.72,1384.24 2298.88,1384.24 2301.03,1384.24 2303.19,1384.24 2305.34,1384.24 2307.5,1384.24 2309.65,1384.24 2311.81,1384.24 2313.96,1384.24 2316.12,1384.24 2318.27,1384.24 2320.43,1384.24 2322.58,1384.24 2324.74,1384.24 2326.89,1384.24 2329.05,1384.24 2331.2,1384.24 2333.36,1384.24 2335.51,1384.24 2337.67,1384.24 2339.83,1384.24 2341.98,1384.24 2344.14,1384.24 2346.29,1384.24 2348.45,1384.24 2350.6,1384.24 2352.76,1384.24 "/>
<polyline clip-path="url(#clip442)" style="stroke:#3da44d; stroke-linecap:round; stroke-linejoin:round; stroke-width:4; stroke-opacity:1; fill:none" points="199.769,86.1857 201.924,130.13 204.08,173.318 206.235,215.749 208.39,257.423 210.545,298.34 212.7,338.501 214.855,377.906 217.01,416.553 219.166,454.444 221.321,491.577 223.476,527.953 225.631,563.576 227.786,598.443 229.941,632.551 232.096,665.9 234.252,698.491 236.407,730.326 238.562,761.405 240.717,791.73 242.872,821.298 245.027,850.108 247.182,878.161 249.338,905.456 251.493,931.995 253.648,957.782 255.803,982.811 257.958,1007.08 260.113,1030.59 262.268,1053.34 264.424,1075.34 266.579,1096.19 268.734,1115.59 270.889,1133.67 273.044,1150.54 275.199,1166.28 277.354,1180.95 279.51,1194.64 281.665,1207.4 283.82,1219.31 285.975,1230.41 288.13,1240.77 290.285,1250.43 292.44,1259.44 294.596,1267.84 296.751,1275.68 298.906,1282.98 301.061,1289.8 303.216,1296.16 305.371,1302.09 307.526,1307.62 309.682,1312.78 311.837,1317.59 313.992,1322.08 316.147,1326.26 318.302,1330.17 320.457,1333.81 322.612,1337.2 324.768,1340.37 326.923,1343.32 329.078,1346.08 331.233,1348.65 333.388,1351.04 335.543,1353.28 337.698,1355.36 339.854,1357.31 342.009,1359.12 344.164,1360.81 346.319,1362.39 348.474,1363.86 350.629,1365.23 352.784,1366.51 354.94,1367.7 357.095,1368.82 359.25,1369.86 361.405,1370.82 363.56,1371.73 365.715,1372.57 367.87,1373.35 370.025,1374.09 372.181,1374.77 374.336,1375.41 376.491,1376 378.646,1376.56 380.801,1377.07 382.956,1377.56 385.111,1378.01 387.267,1378.43 389.422,1378.82 391.577,1379.18 393.732,1379.52 395.887,1379.84 398.042,1380.14 400.197,1380.41 402.353,1380.67 404.508,1380.91 406.663,1381.13 408.818,1381.34 410.973,1381.54 413.128,1381.72 415.283,1381.89 417.439,1382.05 419.594,1382.2 421.749,1382.33 423.904,1382.46 426.059,1382.58 428.214,1382.69 430.369,1382.8 432.525,1382.89 434.68,1382.98 436.835,1383.07 438.99,1383.15 441.145,1383.22 443.3,1383.29 445.455,1383.35 447.611,1383.41 449.766,1383.47 451.921,1383.52 454.076,1383.57 456.231,1383.61 458.386,1383.66 460.541,1383.69 462.697,1383.73 464.852,1383.77 467.007,1383.8 469.162,1383.83 471.317,1383.85 473.472,1383.88 475.627,1383.9 477.783,1383.93 479.938,1383.95 482.093,1383.97 484.248,1383.99 486.403,1384 488.558,1384.02 490.713,1384.03 492.869,1384.05 495.024,1384.06 497.179,1384.07 499.334,1384.08 501.489,1384.09 503.644,1384.1 505.799,1384.11 507.955,1384.12 510.11,1384.13 512.265,1384.14 514.42,1384.14 516.575,1384.15 518.73,1384.16 520.885,1384.16 523.041,1384.17 525.196,1384.17 527.351,1384.18 529.506,1384.18 531.661,1384.18 533.816,1384.19 535.971,1384.19 538.127,1384.19 540.282,1384.2 542.437,1384.2 544.592,1384.2 546.747,1384.2 548.902,1384.21 551.057,1384.21 553.213,1384.21 555.368,1384.21 557.523,1384.21 559.678,1384.22 561.833,1384.22 563.988,1384.22 566.143,1384.22 568.299,1384.22 570.454,1384.22 572.609,1384.22 574.764,1384.22 576.919,1384.23 579.074,1384.23 581.229,1384.23 583.385,1384.23 585.54,1384.23 587.695,1384.23 589.85,1384.23 592.005,1384.23 594.16,1384.23 596.315,1384.23 598.471,1384.23 600.626,1384.23 602.781,1384.23 604.936,1384.23 607.091,1384.23 609.246,1384.23 611.401,1384.23 613.557,1384.23 615.712,1384.23 617.867,1384.23 620.022,1384.24 622.177,1384.24 624.332,1384.24 626.487,1384.24 628.643,1384.24 630.798,1384.24 632.953,1384.24 635.108,1384.24 637.263,1384.24 639.418,1384.24 641.573,1384.24 643.728,1384.24 645.884,1384.24 648.039,1384.24 650.194,1384.24 652.349,1384.24 654.504,1384.24 656.659,1384.24 658.814,1384.24 660.97,1384.24 663.125,1384.24 665.28,1384.24 667.435,1384.24 669.59,1384.24 671.745,1384.24 673.9,1384.24 676.056,1384.24 678.211,1384.24 680.366,1384.24 682.521,1384.24 684.676,1384.24 686.831,1384.24 688.986,1384.24 691.142,1384.24 693.297,1384.24 695.452,1384.24 697.607,1384.24 699.762,1384.24 701.917,1384.24 704.072,1384.24 706.228,1384.24 708.383,1384.24 710.538,1384.24 712.693,1384.24 714.848,1384.24 717.003,1384.24 719.158,1384.24 721.314,1384.24 723.469,1384.24 725.624,1384.24 727.779,1384.24 729.934,1384.24 732.089,1384.24 734.244,1384.24 736.4,1384.24 738.555,1384.24 740.71,1384.24 742.865,1384.24 745.02,1384.24 747.175,1384.24 749.33,1384.24 751.486,1384.24 753.641,1384.24 755.796,1384.24 757.951,1384.24 760.106,1384.24 762.261,1384.24 764.416,1384.24 766.572,1384.24 768.727,1384.24 770.882,1384.24 773.037,1384.24 775.192,1384.24 777.347,1384.24 779.502,1384.24 781.658,1384.24 783.813,1384.24 785.968,1384.24 788.123,1384.24 790.278,1384.24 792.433,1384.24 794.588,1384.24 796.744,1384.24 798.899,1384.24 801.054,1384.24 803.209,1384.24 805.364,1384.24 807.519,1384.24 809.674,1384.24 811.83,1384.24 813.985,1384.24 816.14,1384.24 818.295,1384.24 820.45,1384.24 822.605,1384.24 824.76,1384.24 826.916,1384.24 829.071,1384.24 831.226,1384.24 833.381,1384.24 835.536,1384.24 837.691,1384.24 839.846,1384.24 842.002,1384.24 844.157,1384.24 846.312,1384.24 848.467,1384.24 850.622,1384.24 852.777,1384.24 854.932,1384.24 857.088,1384.24 859.243,1384.24 861.398,1384.24 863.553,1384.24 865.708,1384.24 867.863,1384.24 870.018,1384.24 872.174,1384.24 874.329,1384.24 876.484,1384.24 878.639,1384.24 880.794,1384.24 882.949,1384.24 885.104,1384.24 887.26,1384.24 889.415,1384.24 891.57,1384.24 893.725,1384.24 895.88,1384.24 898.035,1384.24 900.19,1384.24 902.346,1384.24 904.501,1384.24 906.656,1384.24 908.811,1384.24 910.966,1384.24 913.121,1384.24 915.276,1384.24 917.432,1384.24 919.587,1384.24 921.742,1384.24 923.897,1384.24 926.052,1384.24 928.207,1384.24 930.362,1384.24 932.517,1384.24 934.673,1384.24 936.828,1384.24 938.983,1384.24 941.138,1384.24 943.293,1384.24 945.448,1384.24 947.603,1384.24 949.759,1384.24 951.914,1384.24 954.069,1384.24 956.224,1384.24 958.379,1384.24 960.534,1384.24 962.689,1384.24 964.845,1384.24 967,1384.24 969.155,1384.24 971.31,1384.24 973.465,1384.24 975.62,1384.24 977.775,1384.24 979.931,1384.24 982.086,1384.24 984.241,1384.24 986.396,1384.24 988.551,1384.24 990.706,1384.24 992.861,1384.24 995.017,1384.24 997.172,1384.24 999.327,1384.24 1001.48,1384.24 1003.64,1384.24 1005.79,1384.24 1007.95,1384.24 1010.1,1384.24 1012.26,1384.24 1014.41,1384.24 1016.57,1384.24 1018.72,1384.24 1020.88,1384.24 1023.03,1384.24 1025.19,1384.24 1027.34,1384.24 1029.5,1384.24 1031.65,1384.24 1033.81,1384.24 1035.96,1384.24 1038.12,1384.24 1040.27,1384.24 1042.43,1384.24 1044.58,1384.24 1046.74,1384.24 1048.9,1384.24 1051.05,1384.24 1053.21,1384.24 1055.36,1384.24 1057.52,1384.24 1059.67,1384.24 1061.83,1384.24 1063.98,1384.24 1066.14,1384.24 1068.29,1384.24 1070.45,1384.24 1072.6,1384.24 1074.76,1384.24 1076.91,1384.24 1079.07,1384.24 1081.22,1384.24 1083.38,1384.24 1085.53,1384.24 1087.69,1384.24 1089.84,1384.24 1092,1384.24 1094.15,1384.24 1096.31,1384.24 1098.46,1384.24 1100.62,1384.24 1102.77,1384.24 1104.93,1384.24 1107.08,1384.24 1109.24,1384.24 1111.39,1384.24 1113.55,1384.24 1115.7,1384.24 1117.86,1384.24 1120.01,1384.24 1122.17,1384.24 1124.33,1384.24 1126.48,1384.24 1128.64,1384.24 1130.79,1384.24 1132.95,1384.24 1135.1,1384.24 1137.26,1384.24 1139.41,1384.24 1141.57,1384.24 1143.72,1384.24 1145.88,1384.24 1148.03,1384.24 1150.19,1384.24 1152.34,1384.24 1154.5,1384.24 1156.65,1384.24 1158.81,1384.24 1160.96,1384.24 1163.12,1384.24 1165.27,1384.24 1167.43,1384.24 1169.58,1384.24 1171.74,1384.24 1173.89,1384.24 1176.05,1384.24 1178.2,1384.24 1180.36,1384.24 1182.51,1384.24 1184.67,1384.24 1186.82,1384.24 1188.98,1384.24 1191.13,1384.24 1193.29,1384.24 1195.44,1384.24 1197.6,1384.24 1199.76,1384.24 1201.91,1384.24 1204.07,1384.24 1206.22,1384.24 1208.38,1384.24 1210.53,1384.24 1212.69,1384.24 1214.84,1384.24 1217,1384.24 1219.15,1384.24 1221.31,1384.24 1223.46,1384.24 1225.62,1384.24 1227.77,1384.24 1229.93,1384.24 1232.08,1384.24 1234.24,1384.24 1236.39,1384.24 1238.55,1384.24 1240.7,1384.24 1242.86,1384.24 1245.01,1384.24 1247.17,1384.24 1249.32,1384.24 1251.48,1384.24 1253.63,1384.24 1255.79,1384.24 1257.94,1384.24 1260.1,1384.24 1262.25,1384.24 1264.41,1384.24 1266.56,1384.24 1268.72,1384.24 1270.87,1384.24 1273.03,1384.24 1275.19,1384.24 1277.34,1384.24 1279.5,1384.24 1281.65,1384.24 1283.81,1384.24 1285.96,1384.24 1288.12,1384.24 1290.27,1384.24 1292.43,1384.24 1294.58,1384.24 1296.74,1384.24 1298.89,1384.24 1301.05,1384.24 1303.2,1384.24 1305.36,1384.24 1307.51,1384.24 1309.67,1384.24 1311.82,1384.24 1313.98,1384.24 1316.13,1384.24 1318.29,1384.24 1320.44,1384.24 1322.6,1384.24 1324.75,1384.24 1326.91,1384.24 1329.06,1384.24 1331.22,1384.24 1333.37,1384.24 1335.53,1384.24 1337.68,1384.24 1339.84,1384.24 1341.99,1384.24 1344.15,1384.24 1346.3,1384.24 1348.46,1384.24 1350.61,1384.24 1352.77,1384.24 1354.93,1384.24 1357.08,1384.24 1359.24,1384.24 1361.39,1384.24 1363.55,1384.24 1365.7,1384.24 1367.86,1384.24 1370.01,1384.24 1372.17,1384.24 1374.32,1384.24 1376.48,1384.24 1378.63,1384.24 1380.79,1384.24 1382.94,1384.24 1385.1,1384.24 1387.25,1384.24 1389.41,1384.24 1391.56,1384.24 1393.72,1384.24 1395.87,1384.24 1398.03,1384.24 1400.18,1384.24 1402.34,1384.24 1404.49,1384.24 1406.65,1384.24 1408.8,1384.24 1410.96,1384.24 1413.11,1384.24 1415.27,1384.24 1417.42,1384.24 1419.58,1384.24 1421.73,1384.24 1423.89,1384.24 1426.04,1384.24 1428.2,1384.24 1430.36,1384.24 1432.51,1384.24 1434.67,1384.24 1436.82,1384.24 1438.98,1384.24 1441.13,1384.24 1443.29,1384.24 1445.44,1384.24 1447.6,1384.24 1449.75,1384.24 1451.91,1384.24 1454.06,1384.24 1456.22,1384.24 1458.37,1384.24 1460.53,1384.24 1462.68,1384.24 1464.84,1384.24 1466.99,1384.24 1469.15,1384.24 1471.3,1384.24 1473.46,1384.24 1475.61,1384.24 1477.77,1384.24 1479.92,1384.24 1482.08,1384.24 1484.23,1384.24 1486.39,1384.24 1488.54,1384.24 1490.7,1384.24 1492.85,1384.24 1495.01,1384.24 1497.16,1384.24 1499.32,1384.24 1501.47,1384.24 1503.63,1384.24 1505.79,1384.24 1507.94,1384.24 1510.1,1384.24 1512.25,1384.24 1514.41,1384.24 1516.56,1384.24 1518.72,1384.24 1520.87,1384.24 1523.03,1384.24 1525.18,1384.24 1527.34,1384.24 1529.49,1384.24 1531.65,1384.24 1533.8,1384.24 1535.96,1384.24 1538.11,1384.24 1540.27,1384.24 1542.42,1384.24 1544.58,1384.24 1546.73,1384.24 1548.89,1384.24 1551.04,1384.24 1553.2,1384.24 1555.35,1384.24 1557.51,1384.24 1559.66,1384.24 1561.82,1384.24 1563.97,1384.24 1566.13,1384.24 1568.28,1384.24 1570.44,1384.24 1572.59,1384.24 1574.75,1384.24 1576.9,1384.24 1579.06,1384.24 1581.22,1384.24 1583.37,1384.24 1585.53,1384.24 1587.68,1384.24 1589.84,1384.24 1591.99,1384.24 1594.15,1384.24 1596.3,1384.24 1598.46,1384.24 1600.61,1384.24 1602.77,1384.24 1604.92,1384.24 1607.08,1384.24 1609.23,1384.24 1611.39,1384.24 1613.54,1384.24 1615.7,1384.24 1617.85,1384.24 1620.01,1384.24 1622.16,1384.24 1624.32,1384.24 1626.47,1384.24 1628.63,1384.24 1630.78,1384.24 1632.94,1384.24 1635.09,1384.24 1637.25,1384.24 1639.4,1384.24 1641.56,1384.24 1643.71,1384.24 1645.87,1384.24 1648.02,1384.24 1650.18,1384.24 1652.33,1384.24 1654.49,1384.24 1656.65,1384.24 1658.8,1384.24 1660.96,1384.24 1663.11,1384.24 1665.27,1384.24 1667.42,1384.24 1669.58,1384.24 1671.73,1384.24 1673.89,1384.24 1676.04,1384.24 1678.2,1384.24 1680.35,1384.24 1682.51,1384.24 1684.66,1384.24 1686.82,1384.24 1688.97,1384.24 1691.13,1384.24 1693.28,1384.24 1695.44,1384.24 1697.59,1384.24 1699.75,1384.24 1701.9,1384.24 1704.06,1384.24 1706.21,1384.24 1708.37,1384.24 1710.52,1384.24 1712.68,1384.24 1714.83,1384.24 1716.99,1384.24 1719.14,1384.24 1721.3,1384.24 1723.45,1384.24 1725.61,1384.24 1727.76,1384.24 1729.92,1384.24 1732.08,1384.24 1734.23,1384.24 1736.39,1384.24 1738.54,1384.24 1740.7,1384.24 1742.85,1384.24 1745.01,1384.24 1747.16,1384.24 1749.32,1384.24 1751.47,1384.24 1753.63,1384.24 1755.78,1384.24 1757.94,1384.24 1760.09,1384.24 1762.25,1384.24 1764.4,1384.24 1766.56,1384.24 1768.71,1384.24 1770.87,1384.24 1773.02,1384.24 1775.18,1384.24 1777.33,1384.24 1779.49,1384.24 1781.64,1384.24 1783.8,1384.24 1785.95,1384.24 1788.11,1384.24 1790.26,1384.24 1792.42,1384.24 1794.57,1384.24 1796.73,1384.24 1798.88,1384.24 1801.04,1384.24 1803.19,1384.24 1805.35,1384.24 1807.51,1384.24 1809.66,1384.24 1811.82,1384.24 1813.97,1384.24 1816.13,1384.24 1818.28,1384.24 1820.44,1384.24 1822.59,1384.24 1824.75,1384.24 1826.9,1384.24 1829.06,1384.24 1831.21,1384.24 1833.37,1384.24 1835.52,1384.24 1837.68,1384.24 1839.83,1384.24 1841.99,1384.24 1844.14,1384.24 1846.3,1384.24 1848.45,1384.24 1850.61,1384.24 1852.76,1384.24 1854.92,1384.24 1857.07,1384.24 1859.23,1384.24 1861.38,1384.24 1863.54,1384.24 1865.69,1384.24 1867.85,1384.24 1870,1384.24 1872.16,1384.24 1874.31,1384.24 1876.47,1384.24 1878.62,1384.24 1880.78,1384.24 1882.94,1384.24 1885.09,1384.24 1887.25,1384.24 1889.4,1384.24 1891.56,1384.24 1893.71,1384.24 1895.87,1384.24 1898.02,1384.24 1900.18,1384.24 1902.33,1384.24 1904.49,1384.24 1906.64,1384.24 1908.8,1384.24 1910.95,1384.24 1913.11,1384.24 1915.26,1384.24 1917.42,1384.24 1919.57,1384.24 1921.73,1384.24 1923.88,1384.24 1926.04,1384.24 1928.19,1384.24 1930.35,1384.24 1932.5,1384.24 1934.66,1384.24 1936.81,1384.24 1938.97,1384.24 1941.12,1384.24 1943.28,1384.24 1945.43,1384.24 1947.59,1384.24 1949.74,1384.24 1951.9,1384.24 1954.05,1384.24 1956.21,1384.24 1958.36,1384.24 1960.52,1384.24 1962.68,1384.24 1964.83,1384.24 1966.99,1384.24 1969.14,1384.24 1971.3,1384.24 1973.45,1384.24 1975.61,1384.24 1977.76,1384.24 1979.92,1384.24 1982.07,1384.24 1984.23,1384.24 1986.38,1384.24 1988.54,1384.24 1990.69,1384.24 1992.85,1384.24 1995,1384.24 1997.16,1384.24 1999.31,1384.24 2001.47,1384.24 2003.62,1384.24 2005.78,1384.24 2007.93,1384.24 2010.09,1384.24 2012.24,1384.24 2014.4,1384.24 2016.55,1384.24 2018.71,1384.24 2020.86,1384.24 2023.02,1384.24 2025.17,1384.24 2027.33,1384.24 2029.48,1384.24 2031.64,1384.24 2033.79,1384.24 2035.95,1384.24 2038.11,1384.24 2040.26,1384.24 2042.42,1384.24 2044.57,1384.24 2046.73,1384.24 2048.88,1384.24 2051.04,1384.24 2053.19,1384.24 2055.35,1384.24 2057.5,1384.24 2059.66,1384.24 2061.81,1384.24 2063.97,1384.24 2066.12,1384.24 2068.28,1384.24 2070.43,1384.24 2072.59,1384.24 2074.74,1384.24 2076.9,1384.24 2079.05,1384.24 2081.21,1384.24 2083.36,1384.24 2085.52,1384.24 2087.67,1384.24 2089.83,1384.24 2091.98,1384.24 2094.14,1384.24 2096.29,1384.24 2098.45,1384.24 2100.6,1384.24 2102.76,1384.24 2104.91,1384.24 2107.07,1384.24 2109.22,1384.24 2111.38,1384.24 2113.54,1384.24 2115.69,1384.24 2117.85,1384.24 2120,1384.24 2122.16,1384.24 2124.31,1384.24 2126.47,1384.24 2128.62,1384.24 2130.78,1384.24 2132.93,1384.24 2135.09,1384.24 2137.24,1384.24 2139.4,1384.24 2141.55,1384.24 2143.71,1384.24 2145.86,1384.24 2148.02,1384.24 2150.17,1384.24 2152.33,1384.24 2154.48,1384.24 2156.64,1384.24 2158.79,1384.24 2160.95,1384.24 2163.1,1384.24 2165.26,1384.24 2167.41,1384.24 2169.57,1384.24 2171.72,1384.24 2173.88,1384.24 2176.03,1384.24 2178.19,1384.24 2180.34,1384.24 2182.5,1384.24 2184.65,1384.24 2186.81,1384.24 2188.97,1384.24 2191.12,1384.24 2193.28,1384.24 2195.43,1384.24 2197.59,1384.24 2199.74,1384.24 2201.9,1384.24 2204.05,1384.24 2206.21,1384.24 2208.36,1384.24 2210.52,1384.24 2212.67,1384.24 2214.83,1384.24 2216.98,1384.24 2219.14,1384.24 2221.29,1384.24 2223.45,1384.24 2225.6,1384.24 2227.76,1384.24 2229.91,1384.24 2232.07,1384.24 2234.22,1384.24 2236.38,1384.24 2238.53,1384.24 2240.69,1384.24 2242.84,1384.24 2245,1384.24 2247.15,1384.24 2249.31,1384.24 2251.46,1384.24 2253.62,1384.24 2255.77,1384.24 2257.93,1384.24 2260.08,1384.24 2262.24,1384.24 2264.4,1384.24 2266.55,1384.24 2268.71,1384.24 2270.86,1384.24 2273.02,1384.24 2275.17,1384.24 2277.33,1384.24 2279.48,1384.24 2281.64,1384.24 2283.79,1384.24 2285.95,1384.24 2288.1,1384.24 2290.26,1384.24 2292.41,1384.24 2294.57,1384.24 2296.72,1384.24 2298.88,1384.24 2301.03,1384.24 2303.19,1384.24 2305.34,1384.24 2307.5,1384.24 2309.65,1384.24 2311.81,1384.24 2313.96,1384.24 2316.12,1384.24 2318.27,1384.24 2320.43,1384.24 2322.58,1384.24 2324.74,1384.24 2326.89,1384.24 2329.05,1384.24 2331.2,1384.24 2333.36,1384.24 2335.51,1384.24 2337.67,1384.24 2339.83,1384.24 2341.98,1384.24 2344.14,1384.24 2346.29,1384.24 2348.45,1384.24 2350.6,1384.24 2352.76,1384.24 "/>
<path clip-path="url(#clip440)" d="M1821.62 300.469 L2280.99 300.469 L2280.99 93.1086 L1821.62 93.1086  Z" fill="#ffffff" fill-rule="evenodd" fill-opacity="1"/>
<polyline clip-path="url(#clip440)" style="stroke:#000000; stroke-linecap:round; stroke-linejoin:round; stroke-width:4; stroke-opacity:1; fill:none" points="1821.62,300.469 2280.99,300.469 2280.99,93.1086 1821.62,93.1086 1821.62,300.469 "/>
<polyline clip-path="url(#clip440)" style="stroke:#009af9; stroke-linecap:round; stroke-linejoin:round; stroke-width:4; stroke-opacity:1; fill:none" points="1845.54,144.949 1989.07,144.949 "/>
<path clip-path="url(#clip440)" d="M2012.99 127.669 L2017.67 127.669 L2017.67 158.293 L2034.5 158.293 L2034.5 162.229 L2012.99 162.229 L2012.99 127.669 Z" fill="#000000" fill-rule="nonzero" fill-opacity="1" /><path clip-path="url(#clip440)" d="M2039.22 136.303 L2043.48 136.303 L2043.48 162.229 L2039.22 162.229 L2039.22 136.303 M2039.22 126.21 L2043.48 126.21 L2043.48 131.604 L2039.22 131.604 L2039.22 126.21 Z" fill="#000000" fill-rule="nonzero" fill-opacity="1" /><path clip-path="url(#clip440)" d="M2073.94 146.581 L2073.94 162.229 L2069.68 162.229 L2069.68 146.719 Q2069.68 143.039 2068.25 141.21 Q2066.81 139.382 2063.94 139.382 Q2060.49 139.382 2058.5 141.581 Q2056.51 143.78 2056.51 147.576 L2056.51 162.229 L2052.23 162.229 L2052.23 136.303 L2056.51 136.303 L2056.51 140.331 Q2058.04 137.993 2060.1 136.835 Q2062.18 135.678 2064.89 135.678 Q2069.36 135.678 2071.65 138.456 Q2073.94 141.21 2073.94 146.581 Z" fill="#000000" fill-rule="nonzero" fill-opacity="1" /><path clip-path="url(#clip440)" d="M2104.61 148.201 L2104.61 150.284 L2085.03 150.284 Q2085.31 154.682 2087.67 156.997 Q2090.05 159.289 2094.29 159.289 Q2096.74 159.289 2099.04 158.687 Q2101.35 158.085 2103.62 156.881 L2103.62 160.909 Q2101.33 161.881 2098.92 162.391 Q2096.51 162.9 2094.04 162.9 Q2087.83 162.9 2084.2 159.289 Q2080.59 155.678 2080.59 149.52 Q2080.59 143.155 2084.01 139.428 Q2087.46 135.678 2093.3 135.678 Q2098.53 135.678 2101.56 139.057 Q2104.61 142.414 2104.61 148.201 M2100.36 146.951 Q2100.31 143.456 2098.39 141.372 Q2096.49 139.289 2093.34 139.289 Q2089.78 139.289 2087.62 141.303 Q2085.49 143.317 2085.17 146.974 L2100.36 146.951 Z" fill="#000000" fill-rule="nonzero" fill-opacity="1" /><path clip-path="url(#clip440)" d="M2123.39 149.196 Q2118.23 149.196 2116.24 150.377 Q2114.24 151.557 2114.24 154.405 Q2114.24 156.673 2115.73 158.016 Q2117.23 159.335 2119.8 159.335 Q2123.34 159.335 2125.47 156.835 Q2127.62 154.312 2127.62 150.145 L2127.62 149.196 L2123.39 149.196 M2131.88 147.437 L2131.88 162.229 L2127.62 162.229 L2127.62 158.293 Q2126.17 160.655 2123.99 161.789 Q2121.81 162.9 2118.67 162.9 Q2114.68 162.9 2112.32 160.678 Q2109.99 158.432 2109.99 154.682 Q2109.99 150.307 2112.9 148.085 Q2115.84 145.863 2121.65 145.863 L2127.62 145.863 L2127.62 145.446 Q2127.62 142.507 2125.68 140.909 Q2123.76 139.289 2120.26 139.289 Q2118.04 139.289 2115.93 139.821 Q2113.83 140.354 2111.88 141.419 L2111.88 137.483 Q2114.22 136.581 2116.42 136.141 Q2118.62 135.678 2120.7 135.678 Q2126.33 135.678 2129.11 138.594 Q2131.88 141.511 2131.88 147.437 Z" fill="#000000" fill-rule="nonzero" fill-opacity="1" /><path clip-path="url(#clip440)" d="M2155.68 140.284 Q2154.96 139.868 2154.11 139.682 Q2153.27 139.474 2152.25 139.474 Q2148.64 139.474 2146.7 141.835 Q2144.78 144.173 2144.78 148.571 L2144.78 162.229 L2140.49 162.229 L2140.49 136.303 L2144.78 136.303 L2144.78 140.331 Q2146.12 137.969 2148.27 136.835 Q2150.42 135.678 2153.5 135.678 Q2153.94 135.678 2154.48 135.747 Q2155.01 135.794 2155.66 135.909 L2155.68 140.284 Z" fill="#000000" fill-rule="nonzero" fill-opacity="1" /><path clip-path="url(#clip440)" d="M2161.23 156.349 L2166.12 156.349 L2166.12 160.33 L2162.32 167.738 L2159.34 167.738 L2161.23 160.33 L2161.23 156.349 Z" fill="#000000" fill-rule="nonzero" fill-opacity="1" /><path clip-path="url(#clip440)" d="M2200.89 130.747 Q2197.28 130.747 2195.45 134.312 Q2193.64 137.854 2193.64 144.983 Q2193.64 152.09 2195.45 155.655 Q2197.28 159.196 2200.89 159.196 Q2204.52 159.196 2206.33 155.655 Q2208.16 152.09 2208.16 144.983 Q2208.16 137.854 2206.33 134.312 Q2204.52 130.747 2200.89 130.747 M2200.89 127.044 Q2206.7 127.044 2209.75 131.65 Q2212.83 136.233 2212.83 144.983 Q2212.83 153.71 2209.75 158.317 Q2206.7 162.9 2200.89 162.9 Q2195.08 162.9 2192 158.317 Q2188.94 153.71 2188.94 144.983 Q2188.94 136.233 2192 131.65 Q2195.08 127.044 2200.89 127.044 Z" fill="#000000" fill-rule="nonzero" fill-opacity="1" /><path clip-path="url(#clip440)" d="M2221.05 156.349 L2225.93 156.349 L2225.93 162.229 L2221.05 162.229 L2221.05 156.349 Z" fill="#000000" fill-rule="nonzero" fill-opacity="1" /><path clip-path="url(#clip440)" d="M2236.16 127.669 L2254.52 127.669 L2254.52 131.604 L2240.45 131.604 L2240.45 140.076 Q2241.47 139.729 2242.48 139.567 Q2243.5 139.382 2244.52 139.382 Q2250.31 139.382 2253.69 142.553 Q2257.07 145.724 2257.07 151.141 Q2257.07 156.719 2253.6 159.821 Q2250.12 162.9 2243.8 162.9 Q2241.63 162.9 2239.36 162.53 Q2237.11 162.159 2234.71 161.418 L2234.71 156.719 Q2236.79 157.854 2239.01 158.409 Q2241.23 158.965 2243.71 158.965 Q2247.72 158.965 2250.05 156.858 Q2252.39 154.752 2252.39 151.141 Q2252.39 147.53 2250.05 145.423 Q2247.72 143.317 2243.71 143.317 Q2241.84 143.317 2239.96 143.733 Q2238.11 144.15 2236.16 145.03 L2236.16 127.669 Z" fill="#000000" fill-rule="nonzero" fill-opacity="1" /><polyline clip-path="url(#clip440)" style="stroke:#e26f46; stroke-linecap:round; stroke-linejoin:round; stroke-width:4; stroke-opacity:1; fill:none" points="1845.54,196.789 1989.07,196.789 "/>
<path clip-path="url(#clip440)" d="M2012.99 179.509 L2017.67 179.509 L2017.67 210.133 L2034.5 210.133 L2034.5 214.069 L2012.99 214.069 L2012.99 179.509 Z" fill="#000000" fill-rule="nonzero" fill-opacity="1" /><path clip-path="url(#clip440)" d="M2039.22 188.143 L2043.48 188.143 L2043.48 214.069 L2039.22 214.069 L2039.22 188.143 M2039.22 178.05 L2043.48 178.05 L2043.48 183.444 L2039.22 183.444 L2039.22 178.05 Z" fill="#000000" fill-rule="nonzero" fill-opacity="1" /><path clip-path="url(#clip440)" d="M2073.94 198.421 L2073.94 214.069 L2069.68 214.069 L2069.68 198.559 Q2069.68 194.879 2068.25 193.05 Q2066.81 191.222 2063.94 191.222 Q2060.49 191.222 2058.5 193.421 Q2056.51 195.62 2056.51 199.416 L2056.51 214.069 L2052.23 214.069 L2052.23 188.143 L2056.51 188.143 L2056.51 192.171 Q2058.04 189.833 2060.1 188.675 Q2062.18 187.518 2064.89 187.518 Q2069.36 187.518 2071.65 190.296 Q2073.94 193.05 2073.94 198.421 Z" fill="#000000" fill-rule="nonzero" fill-opacity="1" /><path clip-path="url(#clip440)" d="M2104.61 200.041 L2104.61 202.124 L2085.03 202.124 Q2085.31 206.522 2087.67 208.837 Q2090.05 211.129 2094.29 211.129 Q2096.74 211.129 2099.04 210.527 Q2101.35 209.925 2103.62 208.721 L2103.62 212.749 Q2101.33 213.721 2098.92 214.231 Q2096.51 214.74 2094.04 214.74 Q2087.83 214.74 2084.2 211.129 Q2080.59 207.518 2080.59 201.36 Q2080.59 194.995 2084.01 191.268 Q2087.46 187.518 2093.3 187.518 Q2098.53 187.518 2101.56 190.897 Q2104.61 194.254 2104.61 200.041 M2100.36 198.791 Q2100.31 195.296 2098.39 193.212 Q2096.49 191.129 2093.34 191.129 Q2089.78 191.129 2087.62 193.143 Q2085.49 195.157 2085.17 198.814 L2100.36 198.791 Z" fill="#000000" fill-rule="nonzero" fill-opacity="1" /><path clip-path="url(#clip440)" d="M2123.39 201.036 Q2118.23 201.036 2116.24 202.217 Q2114.24 203.397 2114.24 206.245 Q2114.24 208.513 2115.73 209.856 Q2117.23 211.175 2119.8 211.175 Q2123.34 211.175 2125.47 208.675 Q2127.62 206.152 2127.62 201.985 L2127.62 201.036 L2123.39 201.036 M2131.88 199.277 L2131.88 214.069 L2127.62 214.069 L2127.62 210.133 Q2126.17 212.495 2123.99 213.629 Q2121.81 214.74 2118.67 214.74 Q2114.68 214.74 2112.32 212.518 Q2109.99 210.272 2109.99 206.522 Q2109.99 202.147 2112.9 199.925 Q2115.84 197.703 2121.65 197.703 L2127.62 197.703 L2127.62 197.286 Q2127.62 194.347 2125.68 192.749 Q2123.76 191.129 2120.26 191.129 Q2118.04 191.129 2115.93 191.661 Q2113.83 192.194 2111.88 193.259 L2111.88 189.323 Q2114.22 188.421 2116.42 187.981 Q2118.62 187.518 2120.7 187.518 Q2126.33 187.518 2129.11 190.434 Q2131.88 193.351 2131.88 199.277 Z" fill="#000000" fill-rule="nonzero" fill-opacity="1" /><path clip-path="url(#clip440)" d="M2155.68 192.124 Q2154.96 191.708 2154.11 191.522 Q2153.27 191.314 2152.25 191.314 Q2148.64 191.314 2146.7 193.675 Q2144.78 196.013 2144.78 200.411 L2144.78 214.069 L2140.49 214.069 L2140.49 188.143 L2144.78 188.143 L2144.78 192.171 Q2146.12 189.809 2148.27 188.675 Q2150.42 187.518 2153.5 187.518 Q2153.94 187.518 2154.48 187.587 Q2155.01 187.634 2155.66 187.749 L2155.68 192.124 Z" fill="#000000" fill-rule="nonzero" fill-opacity="1" /><path clip-path="url(#clip440)" d="M2161.23 208.189 L2166.12 208.189 L2166.12 212.17 L2162.32 219.578 L2159.34 219.578 L2161.23 212.17 L2161.23 208.189 Z" fill="#000000" fill-rule="nonzero" fill-opacity="1" /><path clip-path="url(#clip440)" d="M2194.92 210.133 L2211.23 210.133 L2211.23 214.069 L2189.29 214.069 L2189.29 210.133 Q2191.95 207.379 2196.54 202.749 Q2201.14 198.096 2202.32 196.754 Q2204.57 194.231 2205.45 192.495 Q2206.35 190.735 2206.35 189.046 Q2206.35 186.291 2204.41 184.555 Q2202.48 182.819 2199.38 182.819 Q2197.18 182.819 2194.73 183.583 Q2192.3 184.347 2189.52 185.897 L2189.52 181.175 Q2192.35 180.041 2194.8 179.462 Q2197.25 178.884 2199.29 178.884 Q2204.66 178.884 2207.85 181.569 Q2211.05 184.254 2211.05 188.745 Q2211.05 190.874 2210.24 192.796 Q2209.45 194.694 2207.35 197.286 Q2206.77 197.958 2203.67 201.175 Q2200.56 204.37 2194.92 210.133 Z" fill="#000000" fill-rule="nonzero" fill-opacity="1" /><path clip-path="url(#clip440)" d="M2231.05 182.587 Q2227.44 182.587 2225.61 186.152 Q2223.8 189.694 2223.8 196.823 Q2223.8 203.93 2225.61 207.495 Q2227.44 211.036 2231.05 211.036 Q2234.68 211.036 2236.49 207.495 Q2238.32 203.93 2238.32 196.823 Q2238.32 189.694 2236.49 186.152 Q2234.68 182.587 2231.05 182.587 M2231.05 178.884 Q2236.86 178.884 2239.91 183.49 Q2242.99 188.073 2242.99 196.823 Q2242.99 205.55 2239.91 210.157 Q2236.86 214.74 2231.05 214.74 Q2225.24 214.74 2222.16 210.157 Q2219.1 205.55 2219.1 196.823 Q2219.1 188.073 2222.16 183.49 Q2225.24 178.884 2231.05 178.884 Z" fill="#000000" fill-rule="nonzero" fill-opacity="1" /><polyline clip-path="url(#clip440)" style="stroke:#3da44d; stroke-linecap:round; stroke-linejoin:round; stroke-width:4; stroke-opacity:1; fill:none" points="1845.54,248.629 1989.07,248.629 "/>
<path clip-path="url(#clip440)" d="M2012.99 231.349 L2017.67 231.349 L2017.67 261.973 L2034.5 261.973 L2034.5 265.909 L2012.99 265.909 L2012.99 231.349 Z" fill="#000000" fill-rule="nonzero" fill-opacity="1" /><path clip-path="url(#clip440)" d="M2039.22 239.983 L2043.48 239.983 L2043.48 265.909 L2039.22 265.909 L2039.22 239.983 M2039.22 229.89 L2043.48 229.89 L2043.48 235.284 L2039.22 235.284 L2039.22 229.89 Z" fill="#000000" fill-rule="nonzero" fill-opacity="1" /><path clip-path="url(#clip440)" d="M2073.94 250.261 L2073.94 265.909 L2069.68 265.909 L2069.68 250.399 Q2069.68 246.719 2068.25 244.89 Q2066.81 243.062 2063.94 243.062 Q2060.49 243.062 2058.5 245.261 Q2056.51 247.46 2056.51 251.256 L2056.51 265.909 L2052.23 265.909 L2052.23 239.983 L2056.51 239.983 L2056.51 244.011 Q2058.04 241.673 2060.1 240.515 Q2062.18 239.358 2064.89 239.358 Q2069.36 239.358 2071.65 242.136 Q2073.94 244.89 2073.94 250.261 Z" fill="#000000" fill-rule="nonzero" fill-opacity="1" /><path clip-path="url(#clip440)" d="M2104.61 251.881 L2104.61 253.964 L2085.03 253.964 Q2085.31 258.362 2087.67 260.677 Q2090.05 262.969 2094.29 262.969 Q2096.74 262.969 2099.04 262.367 Q2101.35 261.765 2103.62 260.561 L2103.62 264.589 Q2101.33 265.561 2098.92 266.071 Q2096.51 266.58 2094.04 266.58 Q2087.83 266.58 2084.2 262.969 Q2080.59 259.358 2080.59 253.2 Q2080.59 246.835 2084.01 243.108 Q2087.46 239.358 2093.3 239.358 Q2098.53 239.358 2101.56 242.737 Q2104.61 246.094 2104.61 251.881 M2100.36 250.631 Q2100.31 247.136 2098.39 245.052 Q2096.49 242.969 2093.34 242.969 Q2089.78 242.969 2087.62 244.983 Q2085.49 246.997 2085.17 250.654 L2100.36 250.631 Z" fill="#000000" fill-rule="nonzero" fill-opacity="1" /><path clip-path="url(#clip440)" d="M2123.39 252.876 Q2118.23 252.876 2116.24 254.057 Q2114.24 255.237 2114.24 258.085 Q2114.24 260.353 2115.73 261.696 Q2117.23 263.015 2119.8 263.015 Q2123.34 263.015 2125.47 260.515 Q2127.62 257.992 2127.62 253.825 L2127.62 252.876 L2123.39 252.876 M2131.88 251.117 L2131.88 265.909 L2127.62 265.909 L2127.62 261.973 Q2126.17 264.335 2123.99 265.469 Q2121.81 266.58 2118.67 266.58 Q2114.68 266.58 2112.32 264.358 Q2109.99 262.112 2109.99 258.362 Q2109.99 253.987 2112.9 251.765 Q2115.84 249.543 2121.65 249.543 L2127.62 249.543 L2127.62 249.126 Q2127.62 246.187 2125.68 244.589 Q2123.76 242.969 2120.26 242.969 Q2118.04 242.969 2115.93 243.501 Q2113.83 244.034 2111.88 245.099 L2111.88 241.163 Q2114.22 240.261 2116.42 239.821 Q2118.62 239.358 2120.7 239.358 Q2126.33 239.358 2129.11 242.274 Q2131.88 245.191 2131.88 251.117 Z" fill="#000000" fill-rule="nonzero" fill-opacity="1" /><path clip-path="url(#clip440)" d="M2155.68 243.964 Q2154.96 243.548 2154.11 243.362 Q2153.27 243.154 2152.25 243.154 Q2148.64 243.154 2146.7 245.515 Q2144.78 247.853 2144.78 252.251 L2144.78 265.909 L2140.49 265.909 L2140.49 239.983 L2144.78 239.983 L2144.78 244.011 Q2146.12 241.649 2148.27 240.515 Q2150.42 239.358 2153.5 239.358 Q2153.94 239.358 2154.48 239.427 Q2155.01 239.474 2155.66 239.589 L2155.68 243.964 Z" fill="#000000" fill-rule="nonzero" fill-opacity="1" /><path clip-path="url(#clip440)" d="M2161.23 260.029 L2166.12 260.029 L2166.12 264.01 L2162.32 271.418 L2159.34 271.418 L2161.23 264.01 L2161.23 260.029 Z" fill="#000000" fill-rule="nonzero" fill-opacity="1" /><path clip-path="url(#clip440)" d="M2203.73 235.423 L2191.93 253.872 L2203.73 253.872 L2203.73 235.423 M2202.51 231.349 L2208.39 231.349 L2208.39 253.872 L2213.32 253.872 L2213.32 257.761 L2208.39 257.761 L2208.39 265.909 L2203.73 265.909 L2203.73 257.761 L2188.13 257.761 L2188.13 253.247 L2202.51 231.349 Z" fill="#000000" fill-rule="nonzero" fill-opacity="1" /><path clip-path="url(#clip440)" d="M2231.05 234.427 Q2227.44 234.427 2225.61 237.992 Q2223.8 241.534 2223.8 248.663 Q2223.8 255.77 2225.61 259.335 Q2227.44 262.876 2231.05 262.876 Q2234.68 262.876 2236.49 259.335 Q2238.32 255.77 2238.32 248.663 Q2238.32 241.534 2236.49 237.992 Q2234.68 234.427 2231.05 234.427 M2231.05 230.724 Q2236.86 230.724 2239.91 235.33 Q2242.99 239.913 2242.99 248.663 Q2242.99 257.39 2239.91 261.997 Q2236.86 266.58 2231.05 266.58 Q2225.24 266.58 2222.16 261.997 Q2219.1 257.39 2219.1 248.663 Q2219.1 239.913 2222.16 235.33 Q2225.24 230.724 2231.05 230.724 Z" fill="#000000" fill-rule="nonzero" fill-opacity="1" /></svg>
