<?xml version="1.0" encoding="utf-8"?>
<svg xmlns="http://www.w3.org/2000/svg" xmlns:xlink="http://www.w3.org/1999/xlink" width="600" height="400" viewBox="0 0 2400 1600">
<defs>
  <clipPath id="clip530">
    <rect x="0" y="0" width="2400" height="1600"/>
  </clipPath>
</defs>
<path clip-path="url(#clip530)" d="M0 1600 L2400 1600 L2400 8.88178e-14 L0 8.88178e-14  Z" fill="#ffffff" fill-rule="evenodd" fill-opacity="1"/>
<defs>
  <clipPath id="clip531">
    <rect x="480" y="0" width="1681" height="1600"/>
  </clipPath>
</defs>
<path clip-path="url(#clip530)" d="M199.769 1423.18 L2352.76 1423.18 L2352.76 47.2441 L199.769 47.2441  Z" fill="#ffffff" fill-rule="evenodd" fill-opacity="1"/>
<defs>
  <clipPath id="clip532">
    <rect x="199" y="47" width="2154" height="1377"/>
  </clipPath>
</defs>
<polyline clip-path="url(#clip532)" style="stroke:#000000; stroke-linecap:round; stroke-linejoin:round; stroke-width:2; stroke-opacity:0.1; fill:none" points="199.769,1423.18 199.769,47.2441 "/>
<polyline clip-path="url(#clip532)" style="stroke:#000000; stroke-linecap:round; stroke-linejoin:round; stroke-width:2; stroke-opacity:0.1; fill:none" points="738.016,1423.18 738.016,47.2441 "/>
<polyline clip-path="url(#clip532)" style="stroke:#000000; stroke-linecap:round; stroke-linejoin:round; stroke-width:2; stroke-opacity:0.1; fill:none" points="1276.26,1423.18 1276.26,47.2441 "/>
<polyline clip-path="url(#clip532)" style="stroke:#000000; stroke-linecap:round; stroke-linejoin:round; stroke-width:2; stroke-opacity:0.1; fill:none" points="1814.51,1423.18 1814.51,47.2441 "/>
<polyline clip-path="url(#clip532)" style="stroke:#000000; stroke-linecap:round; stroke-linejoin:round; stroke-width:2; stroke-opacity:0.1; fill:none" points="2352.76,1423.18 2352.76,47.2441 "/>
<polyline clip-path="url(#clip532)" style="stroke:#000000; stroke-linecap:round; stroke-linejoin:round; stroke-width:2; stroke-opacity:0.1; fill:none" points="199.769,1240.01 2352.76,1240.01 "/>
<polyline clip-path="url(#clip532)" style="stroke:#000000; stroke-linecap:round; stroke-linejoin:round; stroke-width:2; stroke-opacity:0.1; fill:none" points="199.769,951.554 2352.76,951.554 "/>
<polyline clip-path="url(#clip532)" style="stroke:#000000; stroke-linecap:round; stroke-linejoin:round; stroke-width:2; stroke-opacity:0.1; fill:none" points="199.769,663.098 2352.76,663.098 "/>
<polyline clip-path="url(#clip532)" style="stroke:#000000; stroke-linecap:round; stroke-linejoin:round; stroke-width:2; stroke-opacity:0.1; fill:none" points="199.769,374.642 2352.76,374.642 "/>
<polyline clip-path="url(#clip532)" style="stroke:#000000; stroke-linecap:round; stroke-linejoin:round; stroke-width:2; stroke-opacity:0.1; fill:none" points="199.769,86.1857 2352.76,86.1857 "/>
<polyline clip-path="url(#clip530)" style="stroke:#000000; stroke-linecap:round; stroke-linejoin:round; stroke-width:4; stroke-opacity:1; fill:none" points="199.769,1423.18 2352.76,1423.18 "/>
<polyline clip-path="url(#clip530)" style="stroke:#000000; stroke-linecap:round; stroke-linejoin:round; stroke-width:4; stroke-opacity:1; fill:none" points="199.769,1423.18 199.769,1404.28 "/>
<polyline clip-path="url(#clip530)" style="stroke:#000000; stroke-linecap:round; stroke-linejoin:round; stroke-width:4; stroke-opacity:1; fill:none" points="738.016,1423.18 738.016,1404.28 "/>
<polyline clip-path="url(#clip530)" style="stroke:#000000; stroke-linecap:round; stroke-linejoin:round; stroke-width:4; stroke-opacity:1; fill:none" points="1276.26,1423.18 1276.26,1404.28 "/>
<polyline clip-path="url(#clip530)" style="stroke:#000000; stroke-linecap:round; stroke-linejoin:round; stroke-width:4; stroke-opacity:1; fill:none" points="1814.51,1423.18 1814.51,1404.28 "/>
<polyline clip-path="url(#clip530)" style="stroke:#000000; stroke-linecap:round; stroke-linejoin:round; stroke-width:4; stroke-opacity:1; fill:none" points="2352.76,1423.18 2352.76,1404.28 "/>
<path clip-path="url(#clip530)" d="M146.992 1454.1 Q143.381 1454.1 141.552 1457.66 Q139.746 1461.2 139.746 1468.33 Q139.746 1475.44 141.552 1479.01 Q143.381 1482.55 146.992 1482.55 Q150.626 1482.55 152.432 1479.01 Q154.26 1475.44 154.26 1468.33 Q154.26 1461.2 152.432 1457.66 Q150.626 1454.1 146.992 1454.1 M146.992 1450.39 Q152.802 1450.39 155.857 1455 Q158.936 1459.58 158.936 1468.33 Q158.936 1477.06 155.857 1481.67 Q152.802 1486.25 146.992 1486.25 Q141.182 1486.25 138.103 1481.67 Q135.047 1477.06 135.047 1468.33 Q135.047 1459.58 138.103 1455 Q141.182 1450.39 146.992 1450.39 Z" fill="#000000" fill-rule="nonzero" fill-opacity="1" /><path clip-path="url(#clip530)" d="M167.154 1479.7 L172.038 1479.7 L172.038 1485.58 L167.154 1485.58 L167.154 1479.7 Z" fill="#000000" fill-rule="nonzero" fill-opacity="1" /><path clip-path="url(#clip530)" d="M192.223 1454.1 Q188.612 1454.1 186.783 1457.66 Q184.978 1461.2 184.978 1468.33 Q184.978 1475.44 186.783 1479.01 Q188.612 1482.55 192.223 1482.55 Q195.857 1482.55 197.663 1479.01 Q199.492 1475.44 199.492 1468.33 Q199.492 1461.2 197.663 1457.66 Q195.857 1454.1 192.223 1454.1 M192.223 1450.39 Q198.033 1450.39 201.089 1455 Q204.167 1459.58 204.167 1468.33 Q204.167 1477.06 201.089 1481.67 Q198.033 1486.25 192.223 1486.25 Q186.413 1486.25 183.334 1481.67 Q180.279 1477.06 180.279 1468.33 Q180.279 1459.58 183.334 1455 Q186.413 1450.39 192.223 1450.39 Z" fill="#000000" fill-rule="nonzero" fill-opacity="1" /><path clip-path="url(#clip530)" d="M222.385 1454.1 Q218.774 1454.1 216.945 1457.66 Q215.14 1461.2 215.14 1468.33 Q215.14 1475.44 216.945 1479.01 Q218.774 1482.55 222.385 1482.55 Q226.019 1482.55 227.825 1479.01 Q229.653 1475.44 229.653 1468.33 Q229.653 1461.2 227.825 1457.66 Q226.019 1454.1 222.385 1454.1 M222.385 1450.39 Q228.195 1450.39 231.251 1455 Q234.329 1459.58 234.329 1468.33 Q234.329 1477.06 231.251 1481.67 Q228.195 1486.25 222.385 1486.25 Q216.575 1486.25 213.496 1481.67 Q210.441 1477.06 210.441 1468.33 Q210.441 1459.58 213.496 1455 Q216.575 1450.39 222.385 1450.39 Z" fill="#000000" fill-rule="nonzero" fill-opacity="1" /><path clip-path="url(#clip530)" d="M252.547 1454.1 Q248.936 1454.1 247.107 1457.66 Q245.301 1461.2 245.301 1468.33 Q245.301 1475.44 247.107 1479.01 Q248.936 1482.55 252.547 1482.55 Q256.181 1482.55 257.987 1479.01 Q259.815 1475.44 259.815 1468.33 Q259.815 1461.2 257.987 1457.66 Q256.181 1454.1 252.547 1454.1 M252.547 1450.39 Q258.357 1450.39 261.412 1455 Q264.491 1459.58 264.491 1468.33 Q264.491 1477.06 261.412 1481.67 Q258.357 1486.25 252.547 1486.25 Q246.737 1486.25 243.658 1481.67 Q240.602 1477.06 240.602 1468.33 Q240.602 1459.58 243.658 1455 Q246.737 1450.39 252.547 1450.39 Z" fill="#000000" fill-rule="nonzero" fill-opacity="1" /><path clip-path="url(#clip530)" d="M685.736 1454.1 Q682.125 1454.1 680.296 1457.66 Q678.491 1461.2 678.491 1468.33 Q678.491 1475.44 680.296 1479.01 Q682.125 1482.55 685.736 1482.55 Q689.37 1482.55 691.176 1479.01 Q693.005 1475.44 693.005 1468.33 Q693.005 1461.2 691.176 1457.66 Q689.37 1454.1 685.736 1454.1 M685.736 1450.39 Q691.546 1450.39 694.602 1455 Q697.681 1459.58 697.681 1468.33 Q697.681 1477.06 694.602 1481.67 Q691.546 1486.25 685.736 1486.25 Q679.926 1486.25 676.847 1481.67 Q673.792 1477.06 673.792 1468.33 Q673.792 1459.58 676.847 1455 Q679.926 1450.39 685.736 1450.39 Z" fill="#000000" fill-rule="nonzero" fill-opacity="1" /><path clip-path="url(#clip530)" d="M705.898 1479.7 L710.782 1479.7 L710.782 1485.58 L705.898 1485.58 L705.898 1479.7 Z" fill="#000000" fill-rule="nonzero" fill-opacity="1" /><path clip-path="url(#clip530)" d="M730.967 1454.1 Q727.356 1454.1 725.528 1457.66 Q723.722 1461.2 723.722 1468.33 Q723.722 1475.44 725.528 1479.01 Q727.356 1482.55 730.967 1482.55 Q734.602 1482.55 736.407 1479.01 Q738.236 1475.44 738.236 1468.33 Q738.236 1461.2 736.407 1457.66 Q734.602 1454.1 730.967 1454.1 M730.967 1450.39 Q736.778 1450.39 739.833 1455 Q742.912 1459.58 742.912 1468.33 Q742.912 1477.06 739.833 1481.67 Q736.778 1486.25 730.967 1486.25 Q725.157 1486.25 722.079 1481.67 Q719.023 1477.06 719.023 1468.33 Q719.023 1459.58 722.079 1455 Q725.157 1450.39 730.967 1450.39 Z" fill="#000000" fill-rule="nonzero" fill-opacity="1" /><path clip-path="url(#clip530)" d="M761.129 1454.1 Q757.518 1454.1 755.689 1457.66 Q753.884 1461.2 753.884 1468.33 Q753.884 1475.44 755.689 1479.01 Q757.518 1482.55 761.129 1482.55 Q764.763 1482.55 766.569 1479.01 Q768.398 1475.44 768.398 1468.33 Q768.398 1461.2 766.569 1457.66 Q764.763 1454.1 761.129 1454.1 M761.129 1450.39 Q766.939 1450.39 769.995 1455 Q773.074 1459.58 773.074 1468.33 Q773.074 1477.06 769.995 1481.67 Q766.939 1486.25 761.129 1486.25 Q755.319 1486.25 752.24 1481.67 Q749.185 1477.06 749.185 1468.33 Q749.185 1459.58 752.24 1455 Q755.319 1450.39 761.129 1450.39 Z" fill="#000000" fill-rule="nonzero" fill-opacity="1" /><path clip-path="url(#clip530)" d="M781.337 1451.02 L799.694 1451.02 L799.694 1454.96 L785.62 1454.96 L785.62 1463.43 Q786.638 1463.08 787.657 1462.92 Q788.675 1462.73 789.694 1462.73 Q795.481 1462.73 798.861 1465.9 Q802.24 1469.08 802.24 1474.49 Q802.24 1480.07 798.768 1483.17 Q795.296 1486.25 788.976 1486.25 Q786.8 1486.25 784.532 1485.88 Q782.287 1485.51 779.879 1484.77 L779.879 1480.07 Q781.962 1481.2 784.185 1481.76 Q786.407 1482.32 788.884 1482.32 Q792.888 1482.32 795.226 1480.21 Q797.564 1478.1 797.564 1474.49 Q797.564 1470.88 795.226 1468.77 Q792.888 1466.67 788.884 1466.67 Q787.009 1466.67 785.134 1467.08 Q783.282 1467.5 781.337 1468.38 L781.337 1451.02 Z" fill="#000000" fill-rule="nonzero" fill-opacity="1" /><path clip-path="url(#clip530)" d="M1223.49 1454.1 Q1219.87 1454.1 1218.05 1457.66 Q1216.24 1461.2 1216.24 1468.33 Q1216.24 1475.44 1218.05 1479.01 Q1219.87 1482.55 1223.49 1482.55 Q1227.12 1482.55 1228.92 1479.01 Q1230.75 1475.44 1230.75 1468.33 Q1230.75 1461.2 1228.92 1457.66 Q1227.12 1454.1 1223.49 1454.1 M1223.49 1450.39 Q1229.3 1450.39 1232.35 1455 Q1235.43 1459.58 1235.43 1468.33 Q1235.43 1477.06 1232.35 1481.67 Q1229.3 1486.25 1223.49 1486.25 Q1217.67 1486.25 1214.6 1481.67 Q1211.54 1477.06 1211.54 1468.33 Q1211.54 1459.58 1214.6 1455 Q1217.67 1450.39 1223.49 1450.39 Z" fill="#000000" fill-rule="nonzero" fill-opacity="1" /><path clip-path="url(#clip530)" d="M1243.65 1479.7 L1248.53 1479.7 L1248.53 1485.58 L1243.65 1485.58 L1243.65 1479.7 Z" fill="#000000" fill-rule="nonzero" fill-opacity="1" /><path clip-path="url(#clip530)" d="M1268.72 1454.1 Q1265.11 1454.1 1263.28 1457.66 Q1261.47 1461.2 1261.47 1468.33 Q1261.47 1475.44 1263.28 1479.01 Q1265.11 1482.55 1268.72 1482.55 Q1272.35 1482.55 1274.16 1479.01 Q1275.98 1475.44 1275.98 1468.33 Q1275.98 1461.2 1274.16 1457.66 Q1272.35 1454.1 1268.72 1454.1 M1268.72 1450.39 Q1274.53 1450.39 1277.58 1455 Q1280.66 1459.58 1280.66 1468.33 Q1280.66 1477.06 1277.58 1481.67 Q1274.53 1486.25 1268.72 1486.25 Q1262.91 1486.25 1259.83 1481.67 Q1256.77 1477.06 1256.77 1468.33 Q1256.77 1459.58 1259.83 1455 Q1262.91 1450.39 1268.72 1450.39 Z" fill="#000000" fill-rule="nonzero" fill-opacity="1" /><path clip-path="url(#clip530)" d="M1289.69 1481.64 L1297.33 1481.64 L1297.33 1455.28 L1289.02 1456.95 L1289.02 1452.69 L1297.28 1451.02 L1301.96 1451.02 L1301.96 1481.64 L1309.6 1481.64 L1309.6 1485.58 L1289.69 1485.58 L1289.69 1481.64 Z" fill="#000000" fill-rule="nonzero" fill-opacity="1" /><path clip-path="url(#clip530)" d="M1329.04 1454.1 Q1325.43 1454.1 1323.6 1457.66 Q1321.79 1461.2 1321.79 1468.33 Q1321.79 1475.44 1323.6 1479.01 Q1325.43 1482.55 1329.04 1482.55 Q1332.67 1482.55 1334.48 1479.01 Q1336.31 1475.44 1336.31 1468.33 Q1336.31 1461.2 1334.48 1457.66 Q1332.67 1454.1 1329.04 1454.1 M1329.04 1450.39 Q1334.85 1450.39 1337.91 1455 Q1340.98 1459.58 1340.98 1468.33 Q1340.98 1477.06 1337.91 1481.67 Q1334.85 1486.25 1329.04 1486.25 Q1323.23 1486.25 1320.15 1481.67 Q1317.1 1477.06 1317.1 1468.33 Q1317.1 1459.58 1320.15 1455 Q1323.23 1450.39 1329.04 1450.39 Z" fill="#000000" fill-rule="nonzero" fill-opacity="1" /><path clip-path="url(#clip530)" d="M1762.23 1454.1 Q1758.62 1454.1 1756.79 1457.66 Q1754.98 1461.2 1754.98 1468.33 Q1754.98 1475.44 1756.79 1479.01 Q1758.62 1482.55 1762.23 1482.55 Q1765.86 1482.55 1767.67 1479.01 Q1769.5 1475.44 1769.5 1468.33 Q1769.5 1461.2 1767.67 1457.66 Q1765.86 1454.1 1762.23 1454.1 M1762.23 1450.39 Q1768.04 1450.39 1771.1 1455 Q1774.17 1459.58 1774.17 1468.33 Q1774.17 1477.06 1771.1 1481.67 Q1768.04 1486.25 1762.23 1486.25 Q1756.42 1486.25 1753.34 1481.67 Q1750.29 1477.06 1750.29 1468.33 Q1750.29 1459.58 1753.34 1455 Q1756.42 1450.39 1762.23 1450.39 Z" fill="#000000" fill-rule="nonzero" fill-opacity="1" /><path clip-path="url(#clip530)" d="M1782.39 1479.7 L1787.28 1479.7 L1787.28 1485.58 L1782.39 1485.58 L1782.39 1479.7 Z" fill="#000000" fill-rule="nonzero" fill-opacity="1" /><path clip-path="url(#clip530)" d="M1807.46 1454.1 Q1803.85 1454.1 1802.02 1457.66 Q1800.22 1461.2 1800.22 1468.33 Q1800.22 1475.44 1802.02 1479.01 Q1803.85 1482.55 1807.46 1482.55 Q1811.09 1482.55 1812.9 1479.01 Q1814.73 1475.44 1814.73 1468.33 Q1814.73 1461.2 1812.9 1457.66 Q1811.09 1454.1 1807.46 1454.1 M1807.46 1450.39 Q1813.27 1450.39 1816.33 1455 Q1819.41 1459.58 1819.41 1468.33 Q1819.41 1477.06 1816.33 1481.67 Q1813.27 1486.25 1807.46 1486.25 Q1801.65 1486.25 1798.57 1481.67 Q1795.52 1477.06 1795.52 1468.33 Q1795.52 1459.58 1798.57 1455 Q1801.65 1450.39 1807.46 1450.39 Z" fill="#000000" fill-rule="nonzero" fill-opacity="1" /><path clip-path="url(#clip530)" d="M1828.43 1481.64 L1836.07 1481.64 L1836.07 1455.28 L1827.76 1456.95 L1827.76 1452.69 L1836.03 1451.02 L1840.7 1451.02 L1840.7 1481.64 L1848.34 1481.64 L1848.34 1485.58 L1828.43 1485.58 L1828.43 1481.64 Z" fill="#000000" fill-rule="nonzero" fill-opacity="1" /><path clip-path="url(#clip530)" d="M1857.83 1451.02 L1876.19 1451.02 L1876.19 1454.96 L1862.11 1454.96 L1862.11 1463.43 Q1863.13 1463.08 1864.15 1462.92 Q1865.17 1462.73 1866.19 1462.73 Q1871.97 1462.73 1875.35 1465.9 Q1878.73 1469.08 1878.73 1474.49 Q1878.73 1480.07 1875.26 1483.17 Q1871.79 1486.25 1865.47 1486.25 Q1863.29 1486.25 1861.03 1485.88 Q1858.78 1485.51 1856.37 1484.77 L1856.37 1480.07 Q1858.46 1481.2 1860.68 1481.76 Q1862.9 1482.32 1865.38 1482.32 Q1869.38 1482.32 1871.72 1480.21 Q1874.06 1478.1 1874.06 1474.49 Q1874.06 1470.88 1871.72 1468.77 Q1869.38 1466.67 1865.38 1466.67 Q1863.5 1466.67 1861.63 1467.08 Q1859.78 1467.5 1857.83 1468.38 L1857.83 1451.02 Z" fill="#000000" fill-rule="nonzero" fill-opacity="1" /><path clip-path="url(#clip530)" d="M2299.98 1454.1 Q2296.37 1454.1 2294.54 1457.66 Q2292.73 1461.2 2292.73 1468.33 Q2292.73 1475.44 2294.54 1479.01 Q2296.37 1482.55 2299.98 1482.55 Q2303.61 1482.55 2305.42 1479.01 Q2307.25 1475.44 2307.25 1468.33 Q2307.25 1461.2 2305.42 1457.66 Q2303.61 1454.1 2299.98 1454.1 M2299.98 1450.39 Q2305.79 1450.39 2308.84 1455 Q2311.92 1459.58 2311.92 1468.33 Q2311.92 1477.06 2308.84 1481.67 Q2305.79 1486.25 2299.98 1486.25 Q2294.17 1486.25 2291.09 1481.67 Q2288.03 1477.06 2288.03 1468.33 Q2288.03 1459.58 2291.09 1455 Q2294.17 1450.39 2299.98 1450.39 Z" fill="#000000" fill-rule="nonzero" fill-opacity="1" /><path clip-path="url(#clip530)" d="M2320.14 1479.7 L2325.02 1479.7 L2325.02 1485.58 L2320.14 1485.58 L2320.14 1479.7 Z" fill="#000000" fill-rule="nonzero" fill-opacity="1" /><path clip-path="url(#clip530)" d="M2345.21 1454.1 Q2341.6 1454.1 2339.77 1457.66 Q2337.96 1461.2 2337.96 1468.33 Q2337.96 1475.44 2339.77 1479.01 Q2341.6 1482.55 2345.21 1482.55 Q2348.84 1482.55 2350.65 1479.01 Q2352.48 1475.44 2352.48 1468.33 Q2352.48 1461.2 2350.65 1457.66 Q2348.84 1454.1 2345.21 1454.1 M2345.21 1450.39 Q2351.02 1450.39 2354.08 1455 Q2357.15 1459.58 2357.15 1468.33 Q2357.15 1477.06 2354.08 1481.67 Q2351.02 1486.25 2345.21 1486.25 Q2339.4 1486.25 2336.32 1481.67 Q2333.27 1477.06 2333.27 1468.33 Q2333.27 1459.58 2336.32 1455 Q2339.4 1450.39 2345.21 1450.39 Z" fill="#000000" fill-rule="nonzero" fill-opacity="1" /><path clip-path="url(#clip530)" d="M2369.4 1481.64 L2385.72 1481.64 L2385.72 1485.58 L2363.77 1485.58 L2363.77 1481.64 Q2366.44 1478.89 2371.02 1474.26 Q2375.63 1469.61 2376.81 1468.27 Q2379.05 1465.74 2379.93 1464.01 Q2380.83 1462.25 2380.83 1460.56 Q2380.83 1457.8 2378.89 1456.07 Q2376.97 1454.33 2373.87 1454.33 Q2371.67 1454.33 2369.21 1455.09 Q2366.78 1455.86 2364.01 1457.41 L2364.01 1452.69 Q2366.83 1451.55 2369.28 1450.97 Q2371.74 1450.39 2373.77 1450.39 Q2379.14 1450.39 2382.34 1453.08 Q2385.53 1455.77 2385.53 1460.26 Q2385.53 1462.39 2384.72 1464.31 Q2383.94 1466.2 2381.83 1468.8 Q2381.25 1469.47 2378.15 1472.69 Q2375.05 1475.88 2369.4 1481.64 Z" fill="#000000" fill-rule="nonzero" fill-opacity="1" /><path clip-path="url(#clip530)" d="M2405.53 1454.1 Q2401.92 1454.1 2400.09 1457.66 Q2398.29 1461.2 2398.29 1468.33 Q2398.29 1475.44 2400.09 1479.01 Q2401.92 1482.55 2405.53 1482.55 Q2409.17 1482.55 2410.97 1479.01 Q2412.8 1475.44 2412.8 1468.33 Q2412.8 1461.2 2410.97 1457.66 Q2409.17 1454.1 2405.53 1454.1 M2405.53 1450.39 Q2411.34 1450.39 2414.4 1455 Q2417.48 1459.58 2417.48 1468.33 Q2417.48 1477.06 2414.4 1481.67 Q2411.34 1486.25 2405.53 1486.25 Q2399.72 1486.25 2396.64 1481.67 Q2393.59 1477.06 2393.59 1468.33 Q2393.59 1459.58 2396.64 1455 Q2399.72 1450.39 2405.53 1450.39 Z" fill="#000000" fill-rule="nonzero" fill-opacity="1" /><path clip-path="url(#clip530)" d="M1275.32 1522.27 L1275.32 1532.4 L1287.39 1532.4 L1287.39 1536.95 L1275.32 1536.95 L1275.32 1556.3 Q1275.32 1560.66 1276.5 1561.9 Q1277.71 1563.14 1281.37 1563.14 L1287.39 1563.14 L1287.39 1568.04 L1281.37 1568.04 Q1274.59 1568.04 1272.01 1565.53 Q1269.44 1562.98 1269.44 1556.3 L1269.44 1536.95 L1265.14 1536.95 L1265.14 1532.4 L1269.44 1532.4 L1269.44 1522.27 L1275.32 1522.27 Z" fill="#000000" fill-rule="nonzero" fill-opacity="1" /><polyline clip-path="url(#clip530)" style="stroke:#000000; stroke-linecap:round; stroke-linejoin:round; stroke-width:4; stroke-opacity:1; fill:none" points="199.769,1423.18 199.769,47.2441 "/>
<polyline clip-path="url(#clip530)" style="stroke:#000000; stroke-linecap:round; stroke-linejoin:round; stroke-width:4; stroke-opacity:1; fill:none" points="199.769,1240.01 218.667,1240.01 "/>
<polyline clip-path="url(#clip530)" style="stroke:#000000; stroke-linecap:round; stroke-linejoin:round; stroke-width:4; stroke-opacity:1; fill:none" points="199.769,951.554 218.667,951.554 "/>
<polyline clip-path="url(#clip530)" style="stroke:#000000; stroke-linecap:round; stroke-linejoin:round; stroke-width:4; stroke-opacity:1; fill:none" points="199.769,663.098 218.667,663.098 "/>
<polyline clip-path="url(#clip530)" style="stroke:#000000; stroke-linecap:round; stroke-linejoin:round; stroke-width:4; stroke-opacity:1; fill:none" points="199.769,374.642 218.667,374.642 "/>
<polyline clip-path="url(#clip530)" style="stroke:#000000; stroke-linecap:round; stroke-linejoin:round; stroke-width:4; stroke-opacity:1; fill:none" points="199.769,86.1857 218.667,86.1857 "/>
<path clip-path="url(#clip530)" d="M53.3764 1253.36 L61.0152 1253.36 L61.0152 1226.99 L52.7051 1228.66 L52.7051 1224.4 L60.9689 1222.73 L65.6448 1222.73 L65.6448 1253.36 L73.2837 1253.36 L73.2837 1257.29 L53.3764 1257.29 L53.3764 1253.36 Z" fill="#000000" fill-rule="nonzero" fill-opacity="1" /><path clip-path="url(#clip530)" d="M92.728 1225.81 Q89.1169 1225.81 87.2882 1229.37 Q85.4827 1232.92 85.4827 1240.04 Q85.4827 1247.15 87.2882 1250.72 Q89.1169 1254.26 92.728 1254.26 Q96.3623 1254.26 98.1678 1250.72 Q99.9965 1247.15 99.9965 1240.04 Q99.9965 1232.92 98.1678 1229.37 Q96.3623 1225.81 92.728 1225.81 M92.728 1222.11 Q98.5382 1222.11 101.594 1226.71 Q104.672 1231.29 104.672 1240.04 Q104.672 1248.77 101.594 1253.38 Q98.5382 1257.96 92.728 1257.96 Q86.9179 1257.96 83.8392 1253.38 Q80.7836 1248.77 80.7836 1240.04 Q80.7836 1231.29 83.8392 1226.71 Q86.9179 1222.11 92.728 1222.11 Z" fill="#000000" fill-rule="nonzero" fill-opacity="1" /><path clip-path="url(#clip530)" d="M122.89 1225.81 Q119.279 1225.81 117.45 1229.37 Q115.645 1232.92 115.645 1240.04 Q115.645 1247.15 117.45 1250.72 Q119.279 1254.26 122.89 1254.26 Q126.524 1254.26 128.33 1250.72 Q130.158 1247.15 130.158 1240.04 Q130.158 1232.92 128.33 1229.37 Q126.524 1225.81 122.89 1225.81 M122.89 1222.11 Q128.7 1222.11 131.756 1226.71 Q134.834 1231.29 134.834 1240.04 Q134.834 1248.77 131.756 1253.38 Q128.7 1257.96 122.89 1257.96 Q117.08 1257.96 114.001 1253.38 Q110.946 1248.77 110.946 1240.04 Q110.946 1231.29 114.001 1226.71 Q117.08 1222.11 122.89 1222.11 Z" fill="#000000" fill-rule="nonzero" fill-opacity="1" /><path clip-path="url(#clip530)" d="M143.862 1253.36 L151.501 1253.36 L151.501 1226.99 L143.191 1228.66 L143.191 1224.4 L151.455 1222.73 L156.13 1222.73 L156.13 1253.36 L163.769 1253.36 L163.769 1257.29 L143.862 1257.29 L143.862 1253.36 Z" fill="#000000" fill-rule="nonzero" fill-opacity="1" /><path clip-path="url(#clip530)" d="M53.7467 964.899 L61.3856 964.899 L61.3856 938.533 L53.0754 940.2 L53.0754 935.941 L61.3393 934.274 L66.0152 934.274 L66.0152 964.899 L73.654 964.899 L73.654 968.834 L53.7467 968.834 L53.7467 964.899 Z" fill="#000000" fill-rule="nonzero" fill-opacity="1" /><path clip-path="url(#clip530)" d="M93.0984 937.353 Q89.4873 937.353 87.6586 940.918 Q85.8531 944.459 85.8531 951.589 Q85.8531 958.695 87.6586 962.26 Q89.4873 965.802 93.0984 965.802 Q96.7326 965.802 98.5382 962.26 Q100.367 958.695 100.367 951.589 Q100.367 944.459 98.5382 940.918 Q96.7326 937.353 93.0984 937.353 M93.0984 933.649 Q98.9085 933.649 101.964 938.256 Q105.043 942.839 105.043 951.589 Q105.043 960.316 101.964 964.922 Q98.9085 969.505 93.0984 969.505 Q87.2882 969.505 84.2095 964.922 Q81.154 960.316 81.154 951.589 Q81.154 942.839 84.2095 938.256 Q87.2882 933.649 93.0984 933.649 Z" fill="#000000" fill-rule="nonzero" fill-opacity="1" /><path clip-path="url(#clip530)" d="M123.26 937.353 Q119.649 937.353 117.82 940.918 Q116.015 944.459 116.015 951.589 Q116.015 958.695 117.82 962.26 Q119.649 965.802 123.26 965.802 Q126.894 965.802 128.7 962.26 Q130.529 958.695 130.529 951.589 Q130.529 944.459 128.7 940.918 Q126.894 937.353 123.26 937.353 M123.26 933.649 Q129.07 933.649 132.126 938.256 Q135.205 942.839 135.205 951.589 Q135.205 960.316 132.126 964.922 Q129.07 969.505 123.26 969.505 Q117.45 969.505 114.371 964.922 Q111.316 960.316 111.316 951.589 Q111.316 942.839 114.371 938.256 Q117.45 933.649 123.26 933.649 Z" fill="#000000" fill-rule="nonzero" fill-opacity="1" /><path clip-path="url(#clip530)" d="M147.45 964.899 L163.769 964.899 L163.769 968.834 L141.825 968.834 L141.825 964.899 Q144.487 962.144 149.07 957.515 Q153.677 952.862 154.857 951.519 Q157.103 948.996 157.982 947.26 Q158.885 945.501 158.885 943.811 Q158.885 941.056 156.941 939.32 Q155.019 937.584 151.918 937.584 Q149.718 937.584 147.265 938.348 Q144.834 939.112 142.056 940.663 L142.056 935.941 Q144.881 934.806 147.334 934.228 Q149.788 933.649 151.825 933.649 Q157.195 933.649 160.39 936.334 Q163.584 939.019 163.584 943.51 Q163.584 945.64 162.774 947.561 Q161.987 949.459 159.88 952.052 Q159.302 952.723 156.2 955.941 Q153.098 959.135 147.45 964.899 Z" fill="#000000" fill-rule="nonzero" fill-opacity="1" /><path clip-path="url(#clip530)" d="M52.7977 676.443 L60.4365 676.443 L60.4365 650.077 L52.1264 651.744 L52.1264 647.485 L60.3902 645.818 L65.0661 645.818 L65.0661 676.443 L72.705 676.443 L72.705 680.378 L52.7977 680.378 L52.7977 676.443 Z" fill="#000000" fill-rule="nonzero" fill-opacity="1" /><path clip-path="url(#clip530)" d="M92.1493 648.897 Q88.5382 648.897 86.7095 652.461 Q84.904 656.003 84.904 663.133 Q84.904 670.239 86.7095 673.804 Q88.5382 677.346 92.1493 677.346 Q95.7836 677.346 97.5891 673.804 Q99.4178 670.239 99.4178 663.133 Q99.4178 656.003 97.5891 652.461 Q95.7836 648.897 92.1493 648.897 M92.1493 645.193 Q97.9595 645.193 101.015 649.799 Q104.094 654.383 104.094 663.133 Q104.094 671.859 101.015 676.466 Q97.9595 681.049 92.1493 681.049 Q86.3392 681.049 83.2605 676.466 Q80.2049 671.859 80.2049 663.133 Q80.2049 654.383 83.2605 649.799 Q86.3392 645.193 92.1493 645.193 Z" fill="#000000" fill-rule="nonzero" fill-opacity="1" /><path clip-path="url(#clip530)" d="M122.311 648.897 Q118.7 648.897 116.871 652.461 Q115.066 656.003 115.066 663.133 Q115.066 670.239 116.871 673.804 Q118.7 677.346 122.311 677.346 Q125.945 677.346 127.751 673.804 Q129.58 670.239 129.58 663.133 Q129.58 656.003 127.751 652.461 Q125.945 648.897 122.311 648.897 M122.311 645.193 Q128.121 645.193 131.177 649.799 Q134.256 654.383 134.256 663.133 Q134.256 671.859 131.177 676.466 Q128.121 681.049 122.311 681.049 Q116.501 681.049 113.422 676.466 Q110.367 671.859 110.367 663.133 Q110.367 654.383 113.422 649.799 Q116.501 645.193 122.311 645.193 Z" fill="#000000" fill-rule="nonzero" fill-opacity="1" /><path clip-path="url(#clip530)" d="M156.64 661.744 Q159.996 662.461 161.871 664.73 Q163.769 666.998 163.769 670.332 Q163.769 675.447 160.251 678.248 Q156.732 681.049 150.251 681.049 Q148.075 681.049 145.76 680.609 Q143.468 680.193 141.015 679.336 L141.015 674.822 Q142.959 675.957 145.274 676.535 Q147.589 677.114 150.112 677.114 Q154.51 677.114 156.802 675.378 Q159.117 673.642 159.117 670.332 Q159.117 667.276 156.964 665.563 Q154.834 663.827 151.015 663.827 L146.987 663.827 L146.987 659.985 L151.2 659.985 Q154.649 659.985 156.478 658.619 Q158.306 657.23 158.306 654.637 Q158.306 651.975 156.408 650.563 Q154.533 649.128 151.015 649.128 Q149.093 649.128 146.894 649.545 Q144.695 649.961 142.056 650.841 L142.056 646.674 Q144.718 645.934 147.033 645.563 Q149.371 645.193 151.431 645.193 Q156.755 645.193 159.857 647.623 Q162.959 650.031 162.959 654.151 Q162.959 657.022 161.316 659.012 Q159.672 660.98 156.64 661.744 Z" fill="#000000" fill-rule="nonzero" fill-opacity="1" /><path clip-path="url(#clip530)" d="M51.6634 387.987 L59.3023 387.987 L59.3023 361.621 L50.9921 363.288 L50.9921 359.028 L59.256 357.362 L63.9319 357.362 L63.9319 387.987 L71.5707 387.987 L71.5707 391.922 L51.6634 391.922 L51.6634 387.987 Z" fill="#000000" fill-rule="nonzero" fill-opacity="1" /><path clip-path="url(#clip530)" d="M91.0151 360.44 Q87.404 360.44 85.5753 364.005 Q83.7697 367.547 83.7697 374.677 Q83.7697 381.783 85.5753 385.348 Q87.404 388.889 91.0151 388.889 Q94.6493 388.889 96.4548 385.348 Q98.2835 381.783 98.2835 374.677 Q98.2835 367.547 96.4548 364.005 Q94.6493 360.44 91.0151 360.44 M91.0151 356.737 Q96.8252 356.737 99.8808 361.343 Q102.959 365.927 102.959 374.677 Q102.959 383.403 99.8808 388.01 Q96.8252 392.593 91.0151 392.593 Q85.2049 392.593 82.1262 388.01 Q79.0707 383.403 79.0707 374.677 Q79.0707 365.927 82.1262 361.343 Q85.2049 356.737 91.0151 356.737 Z" fill="#000000" fill-rule="nonzero" fill-opacity="1" /><path clip-path="url(#clip530)" d="M121.177 360.44 Q117.566 360.44 115.737 364.005 Q113.932 367.547 113.932 374.677 Q113.932 381.783 115.737 385.348 Q117.566 388.889 121.177 388.889 Q124.811 388.889 126.617 385.348 Q128.445 381.783 128.445 374.677 Q128.445 367.547 126.617 364.005 Q124.811 360.44 121.177 360.44 M121.177 356.737 Q126.987 356.737 130.043 361.343 Q133.121 365.927 133.121 374.677 Q133.121 383.403 130.043 388.01 Q126.987 392.593 121.177 392.593 Q115.367 392.593 112.288 388.01 Q109.233 383.403 109.233 374.677 Q109.233 365.927 112.288 361.343 Q115.367 356.737 121.177 356.737 Z" fill="#000000" fill-rule="nonzero" fill-opacity="1" /><path clip-path="url(#clip530)" d="M154.186 361.436 L142.381 379.885 L154.186 379.885 L154.186 361.436 M152.959 357.362 L158.839 357.362 L158.839 379.885 L163.769 379.885 L163.769 383.774 L158.839 383.774 L158.839 391.922 L154.186 391.922 L154.186 383.774 L138.584 383.774 L138.584 379.26 L152.959 357.362 Z" fill="#000000" fill-rule="nonzero" fill-opacity="1" /><path clip-path="url(#clip530)" d="M53.1449 99.5305 L60.7837 99.5305 L60.7837 73.1649 L52.4736 74.8316 L52.4736 70.5723 L60.7374 68.9057 L65.4133 68.9057 L65.4133 99.5305 L73.0522 99.5305 L73.0522 103.466 L53.1449 103.466 L53.1449 99.5305 Z" fill="#000000" fill-rule="nonzero" fill-opacity="1" /><path clip-path="url(#clip530)" d="M92.4965 71.9844 Q88.8854 71.9844 87.0567 75.5492 Q85.2512 79.0908 85.2512 86.2204 Q85.2512 93.3268 87.0567 96.8916 Q88.8854 100.433 92.4965 100.433 Q96.1308 100.433 97.9363 96.8916 Q99.765 93.3268 99.765 86.2204 Q99.765 79.0908 97.9363 75.5492 Q96.1308 71.9844 92.4965 71.9844 M92.4965 68.2807 Q98.3067 68.2807 101.362 72.8871 Q104.441 77.4704 104.441 86.2204 Q104.441 94.9472 101.362 99.5537 Q98.3067 104.137 92.4965 104.137 Q86.6864 104.137 83.6077 99.5537 Q80.5522 94.9472 80.5522 86.2204 Q80.5522 77.4704 83.6077 72.8871 Q86.6864 68.2807 92.4965 68.2807 Z" fill="#000000" fill-rule="nonzero" fill-opacity="1" /><path clip-path="url(#clip530)" d="M122.658 71.9844 Q119.047 71.9844 117.219 75.5492 Q115.413 79.0908 115.413 86.2204 Q115.413 93.3268 117.219 96.8916 Q119.047 100.433 122.658 100.433 Q126.293 100.433 128.098 96.8916 Q129.927 93.3268 129.927 86.2204 Q129.927 79.0908 128.098 75.5492 Q126.293 71.9844 122.658 71.9844 M122.658 68.2807 Q128.469 68.2807 131.524 72.8871 Q134.603 77.4704 134.603 86.2204 Q134.603 94.9472 131.524 99.5537 Q128.469 104.137 122.658 104.137 Q116.848 104.137 113.77 99.5537 Q110.714 94.9472 110.714 86.2204 Q110.714 77.4704 113.77 72.8871 Q116.848 68.2807 122.658 68.2807 Z" fill="#000000" fill-rule="nonzero" fill-opacity="1" /><path clip-path="url(#clip530)" d="M142.867 68.9057 L161.223 68.9057 L161.223 72.8408 L147.149 72.8408 L147.149 81.313 Q148.168 80.9658 149.186 80.8038 Q150.205 80.6186 151.223 80.6186 Q157.01 80.6186 160.39 83.7899 Q163.769 86.9611 163.769 92.3778 Q163.769 97.9564 160.297 101.058 Q156.825 104.137 150.505 104.137 Q148.33 104.137 146.061 103.767 Q143.816 103.396 141.408 102.655 L141.408 97.9564 Q143.492 99.0907 145.714 99.6462 Q147.936 100.202 150.413 100.202 Q154.417 100.202 156.755 98.0953 Q159.093 95.9889 159.093 92.3778 Q159.093 88.7667 156.755 86.6602 Q154.417 84.5537 150.413 84.5537 Q148.538 84.5537 146.663 84.9704 Q144.811 85.3871 142.867 86.2667 L142.867 68.9057 Z" fill="#000000" fill-rule="nonzero" fill-opacity="1" /><polyline clip-path="url(#clip532)" style="stroke:#009af9; stroke-linecap:round; stroke-linejoin:round; stroke-width:4; stroke-opacity:1; fill:none" points="199.769,86.1857 201.924,90.6142 204.08,95.0351 206.235,99.4484 208.39,103.854 210.545,108.252 212.7,112.643 214.855,117.026 217.01,121.402 219.166,125.77 221.321,130.13 223.476,134.483 225.631,138.828 227.786,143.166 229.941,147.496 232.096,151.818 234.252,156.133 236.407,160.441 238.562,164.741 240.717,169.033 242.872,173.318 245.027,177.595 247.182,181.864 249.338,186.126 251.493,190.381 253.648,194.628 255.803,198.867 257.958,203.099 260.113,207.323 262.268,211.54 264.424,215.749 266.579,219.95 268.734,224.144 270.889,228.33 273.044,232.509 275.199,236.68 277.354,240.844 279.51,245 281.665,249.149 283.82,253.29 285.975,257.423 288.13,261.549 290.285,265.667 292.44,269.778 294.596,273.881 296.751,277.976 298.906,282.064 301.061,286.145 303.216,290.217 305.371,294.283 307.526,298.34 309.682,302.391 311.837,306.433 313.992,310.468 316.147,314.496 318.302,318.515 320.457,322.528 322.612,326.532 324.768,330.53 326.923,334.519 329.078,338.501 331.233,342.476 333.388,346.443 335.543,350.402 337.698,354.354 339.854,358.298 342.009,362.235 344.164,366.164 346.319,370.085 348.474,373.999 350.629,377.906 352.784,381.804 354.94,385.696 357.095,389.579 359.25,393.455 361.405,397.324 363.56,401.185 365.715,405.038 367.87,408.884 370.025,412.722 372.181,416.553 374.336,420.376 376.491,424.192 378.646,428 380.801,431.8 382.956,435.593 385.111,439.378 387.267,443.156 389.422,446.926 391.577,450.689 393.732,454.444 395.887,458.191 398.042,461.931 400.197,465.663 402.353,469.388 404.508,473.105 406.663,476.815 408.818,480.517 410.973,484.211 413.128,487.898 415.283,491.577 417.439,495.249 419.594,498.913 421.749,502.569 423.904,506.218 426.059,509.859 428.214,513.493 430.369,517.119 432.525,520.738 434.68,524.35 436.835,527.953 438.99,531.55 441.145,535.138 443.3,538.72 445.455,542.293 447.611,545.859 449.766,549.418 451.921,552.969 454.076,556.512 456.231,560.048 458.386,563.576 460.541,567.097 462.697,570.61 464.852,574.116 467.007,577.614 469.162,581.104 471.317,584.587 473.472,588.062 475.627,591.53 477.783,594.99 479.938,598.443 482.093,601.888 484.248,605.325 486.403,608.755 488.558,612.177 490.713,615.592 492.869,618.999 495.024,622.398 497.179,625.79 499.334,629.174 501.489,632.551 503.644,635.92 505.799,639.281 507.955,642.635 510.11,645.982 512.265,649.32 514.42,652.652 516.575,655.975 518.73,659.291 520.885,662.599 523.041,665.9 525.196,669.193 527.351,672.479 529.506,675.757 531.661,679.027 533.816,682.29 535.971,685.546 538.127,688.793 540.282,692.033 542.437,695.266 544.592,698.491 546.747,701.708 548.902,704.918 551.057,708.121 553.213,711.315 555.368,714.503 557.523,717.682 559.678,720.855 561.833,724.019 563.988,727.176 566.143,730.326 568.299,733.468 570.454,736.602 572.609,739.729 574.764,742.848 576.919,745.96 579.074,749.064 581.229,752.161 583.385,755.25 585.54,758.331 587.695,761.405 589.85,764.472 592.005,767.531 594.16,770.582 596.315,773.626 598.471,776.662 600.626,779.691 602.781,782.712 604.936,785.726 607.091,788.732 609.246,791.73 611.401,794.721 613.557,797.704 615.712,800.68 617.867,803.648 620.022,806.609 622.177,809.562 624.332,812.507 626.487,815.445 628.643,818.376 630.798,821.298 632.953,824.213 635.108,827.121 637.263,830.021 639.418,832.913 641.573,835.798 643.728,838.675 645.884,841.545 648.039,844.407 650.194,847.262 652.349,850.108 654.504,852.948 656.659,855.779 658.814,858.604 660.97,861.42 663.125,864.229 665.28,867.031 667.435,869.824 669.59,872.611 671.745,875.389 673.9,878.161 676.056,880.924 678.211,883.68 680.366,886.429 682.521,889.169 684.676,891.903 686.831,894.629 688.986,897.347 691.142,900.057 693.297,902.761 695.452,905.456 697.607,908.144 699.762,910.824 701.917,913.496 704.072,916.161 706.228,918.819 708.383,921.469 710.538,924.111 712.693,926.746 714.848,929.374 717.003,931.994 719.158,934.607 721.314,937.212 723.469,939.809 725.624,942.399 727.779,944.982 729.934,947.557 732.089,950.125 734.244,952.685 736.4,955.237 738.555,957.782 740.71,960.319 742.865,962.849 745.02,965.371 747.175,967.886 749.33,970.393 751.486,972.892 753.641,975.384 755.796,977.868 757.951,980.345 760.106,982.814 762.261,985.275 764.416,987.729 766.572,990.175 768.727,992.614 770.882,995.045 773.037,997.468 775.192,999.884 777.347,1002.29 779.502,1004.69 781.658,1007.09 783.813,1009.47 785.968,1011.85 788.123,1014.22 790.278,1016.58 792.433,1018.94 794.588,1021.28 796.744,1023.62 798.899,1025.95 801.054,1028.28 803.209,1030.6 805.364,1032.9 807.519,1035.21 809.674,1037.5 811.83,1039.79 813.985,1042.07 816.14,1044.34 818.295,1046.6 820.45,1048.86 822.605,1051.1 824.76,1053.35 826.916,1055.58 829.071,1057.81 831.226,1060.02 833.381,1062.23 835.536,1064.44 837.691,1066.63 839.846,1068.82 842.002,1071 844.157,1073.18 846.312,1075.34 848.467,1077.5 850.622,1079.65 852.777,1081.79 854.932,1083.93 857.088,1086.06 859.243,1088.18 861.398,1090.29 863.553,1092.39 865.708,1094.49 867.863,1096.58 870.018,1098.66 872.174,1100.74 874.329,1102.81 876.484,1104.87 878.639,1106.92 880.794,1108.97 882.949,1111.01 885.104,1113.04 887.26,1115.06 889.415,1117.08 891.57,1119.08 893.725,1121.08 895.88,1123.08 898.035,1125.06 900.19,1127.04 902.346,1129.01 904.501,1130.97 906.656,1132.93 908.811,1134.87 910.966,1136.81 913.121,1138.75 915.276,1140.67 917.432,1142.59 919.587,1144.5 921.742,1146.4 923.897,1148.29 926.052,1150.18 928.207,1152.06 930.362,1153.93 932.517,1155.79 934.673,1157.65 936.828,1159.49 938.983,1161.33 941.138,1163.17 943.293,1164.99 945.448,1166.81 947.603,1168.62 949.759,1170.42 951.914,1172.22 954.069,1174 956.224,1175.78 958.379,1177.55 960.534,1179.32 962.689,1181.07 964.845,1182.82 967,1184.56 969.155,1186.3 971.31,1188.02 973.465,1189.74 975.62,1191.45 977.775,1193.16 979.931,1194.85 982.086,1196.54 984.241,1198.22 986.396,1199.89 988.551,1201.56 990.706,1203.22 992.861,1204.87 995.017,1206.51 997.172,1208.15 999.327,1209.78 1001.48,1211.4 1003.64,1213.01 1005.79,1214.62 1007.95,1216.21 1010.1,1217.8 1012.26,1219.38 1014.41,1220.96 1016.57,1222.53 1018.72,1224.09 1020.88,1225.64 1023.03,1227.19 1025.19,1228.73 1027.34,1230.26 1029.5,1231.78 1031.65,1233.3 1033.81,1234.81 1035.96,1236.31 1038.12,1237.8 1040.27,1239.29 1042.43,1240.77 1044.58,1242.24 1046.74,1243.71 1048.9,1245.16 1051.05,1246.61 1053.21,1248.05 1055.36,1249.49 1057.52,1250.91 1059.67,1252.33 1061.83,1253.74 1063.98,1255.14 1066.14,1256.54 1068.29,1257.93 1070.45,1259.31 1072.6,1260.68 1074.76,1262.04 1076.91,1263.4 1079.07,1264.75 1081.22,1266.09 1083.38,1267.43 1085.53,1268.75 1087.69,1270.07 1089.84,1271.38 1092,1272.68 1094.15,1273.98 1096.31,1275.26 1098.46,1276.54 1100.62,1277.82 1102.77,1279.08 1104.93,1280.34 1107.08,1281.58 1109.24,1282.83 1111.39,1284.06 1113.55,1285.28 1115.7,1286.5 1117.86,1287.71 1120.01,1288.92 1122.17,1290.11 1124.33,1291.3 1126.48,1292.48 1128.64,1293.65 1130.79,1294.82 1132.95,1295.98 1135.1,1297.13 1137.26,1298.27 1139.41,1299.4 1141.57,1300.53 1143.72,1301.65 1145.88,1302.77 1148.03,1303.87 1150.19,1304.97 1152.34,1306.07 1154.5,1307.15 1156.65,1308.23 1158.81,1309.3 1160.96,1310.36 1163.12,1311.41 1165.27,1312.46 1167.43,1313.49 1169.58,1314.53 1171.74,1315.55 1173.89,1316.57 1176.05,1317.57 1178.2,1318.58 1180.36,1319.57 1182.51,1320.56 1184.67,1321.54 1186.82,1322.51 1188.98,1323.47 1191.13,1324.43 1193.29,1325.38 1195.44,1326.32 1197.6,1327.25 1199.76,1328.18 1201.91,1329.09 1204.07,1330.01 1206.22,1330.91 1208.38,1331.8 1210.53,1332.69 1212.69,1333.57 1214.84,1334.44 1217,1335.31 1219.15,1336.16 1221.31,1337.01 1223.46,1337.85 1225.62,1338.69 1227.77,1339.51 1229.93,1340.33 1232.08,1341.14 1234.24,1341.94 1236.39,1342.74 1238.55,1343.53 1240.7,1344.31 1242.86,1345.08 1245.01,1345.85 1247.17,1346.6 1249.32,1347.35 1251.48,1348.1 1253.63,1348.83 1255.79,1349.56 1257.94,1350.28 1260.1,1351 1262.25,1351.7 1264.41,1352.4 1266.56,1353.09 1268.72,1353.77 1270.87,1354.45 1273.03,1355.12 1275.19,1355.78 1277.34,1356.43 1279.5,1357.08 1281.65,1357.72 1283.81,1358.35 1285.96,1358.97 1288.12,1359.58 1290.27,1360.19 1292.43,1360.79 1294.58,1361.38 1296.74,1361.97 1298.89,1362.54 1301.05,1363.11 1303.2,1363.67 1305.36,1364.23 1307.51,1364.77 1309.67,1365.31 1311.82,1365.84 1313.98,1366.37 1316.13,1366.88 1318.29,1367.39 1320.44,1367.89 1322.6,1368.39 1324.75,1368.87 1326.91,1369.35 1329.06,1369.82 1331.22,1370.29 1333.37,1370.74 1335.53,1371.19 1337.68,1371.63 1339.84,1372.06 1341.99,1372.49 1344.15,1372.91 1346.3,1373.32 1348.46,1373.72 1350.61,1374.12 1352.77,1374.5 1354.93,1374.88 1357.08,1375.26 1359.24,1375.62 1361.39,1375.98 1363.55,1376.33 1365.7,1376.67 1367.86,1377 1370.01,1377.33 1372.17,1377.65 1374.32,1377.96 1376.48,1378.27 1378.63,1378.57 1380.79,1378.85 1382.94,1379.14 1385.1,1379.41 1387.25,1379.68 1389.41,1379.94 1391.56,1380.19 1393.72,1380.43 1395.87,1380.67 1398.03,1380.9 1400.18,1381.12 1402.34,1381.33 1404.49,1381.54 1406.65,1381.73 1408.8,1381.93 1410.96,1382.11 1413.11,1382.28 1415.27,1382.45 1417.42,1382.61 1419.58,1382.77 1421.73,1382.91 1423.89,1383.05 1426.04,1383.18 1428.2,1383.3 1430.36,1383.42 1432.51,1383.53 1434.67,1383.63 1436.82,1383.72 1438.98,1383.8 1441.13,1383.88 1443.29,1383.95 1445.44,1384.01 1447.6,1384.07 1449.75,1384.11 1451.91,1384.15 1454.06,1384.19 1456.22,1384.21 1458.37,1384.23 1460.53,1384.24 1462.68,1384.24 1464.84,1384.24 1466.99,1384.24 1469.15,1384.24 1471.3,1384.24 1473.46,1384.24 1475.61,1384.24 1477.77,1384.24 1479.92,1384.24 1482.08,1384.24 1484.23,1384.24 1486.39,1384.24 1488.54,1384.24 1490.7,1384.24 1492.85,1384.24 1495.01,1384.24 1497.16,1384.24 1499.32,1384.24 1501.47,1384.24 1503.63,1384.24 1505.79,1384.24 1507.94,1384.24 1510.1,1384.24 1512.25,1384.24 1514.41,1384.24 1516.56,1384.24 1518.72,1384.24 1520.87,1384.24 1523.03,1384.24 1525.18,1384.24 1527.34,1384.24 1529.49,1384.24 1531.65,1384.24 1533.8,1384.24 1535.96,1384.24 1538.11,1384.24 1540.27,1384.24 1542.42,1384.24 1544.58,1384.24 1546.73,1384.24 1548.89,1384.24 1551.04,1384.24 1553.2,1384.24 1555.35,1384.24 1557.51,1384.24 1559.66,1384.24 1561.82,1384.24 1563.97,1384.24 1566.13,1384.24 1568.28,1384.24 1570.44,1384.24 1572.59,1384.24 1574.75,1384.24 1576.9,1384.24 1579.06,1384.24 1581.22,1384.24 1583.37,1384.24 1585.53,1384.24 1587.68,1384.24 1589.84,1384.24 1591.99,1384.24 1594.15,1384.24 1596.3,1384.24 1598.46,1384.24 1600.61,1384.24 1602.77,1384.24 1604.92,1384.24 1607.08,1384.24 1609.23,1384.24 1611.39,1384.24 1613.54,1384.24 1615.7,1384.24 1617.85,1384.24 1620.01,1384.24 1622.16,1384.24 1624.32,1384.24 1626.47,1384.24 1628.63,1384.24 1630.78,1384.24 1632.94,1384.24 1635.09,1384.24 1637.25,1384.24 1639.4,1384.24 1641.56,1384.24 1643.71,1384.24 1645.87,1384.24 1648.02,1384.24 1650.18,1384.24 1652.33,1384.24 1654.49,1384.24 1656.65,1384.24 1658.8,1384.24 1660.96,1384.24 1663.11,1384.24 1665.27,1384.24 1667.42,1384.24 1669.58,1384.24 1671.73,1384.24 1673.89,1384.24 1676.04,1384.24 1678.2,1384.24 1680.35,1384.24 1682.51,1384.24 1684.66,1384.24 1686.82,1384.24 1688.97,1384.24 1691.13,1384.24 1693.28,1384.24 1695.44,1384.24 1697.59,1384.24 1699.75,1384.24 1701.9,1384.24 1704.06,1384.24 1706.21,1384.24 1708.37,1384.24 1710.52,1384.24 1712.68,1384.24 1714.83,1384.24 1716.99,1384.24 1719.14,1384.24 1721.3,1384.24 1723.45,1384.24 1725.61,1384.24 1727.76,1384.24 1729.92,1384.24 1732.08,1384.24 1734.23,1384.24 1736.39,1384.24 1738.54,1384.24 1740.7,1384.24 1742.85,1384.24 1745.01,1384.24 1747.16,1384.24 1749.32,1384.24 1751.47,1384.24 1753.63,1384.24 1755.78,1384.24 1757.94,1384.24 1760.09,1384.24 1762.25,1384.24 1764.4,1384.24 1766.56,1384.24 1768.71,1384.24 1770.87,1384.24 1773.02,1384.24 1775.18,1384.24 1777.33,1384.24 1779.49,1384.24 1781.64,1384.24 1783.8,1384.24 1785.95,1384.24 1788.11,1384.24 1790.26,1384.24 1792.42,1384.24 1794.57,1384.24 1796.73,1384.24 1798.88,1384.24 1801.04,1384.24 1803.19,1384.24 1805.35,1384.24 1807.51,1384.24 1809.66,1384.24 1811.82,1384.24 1813.97,1384.24 1816.13,1384.24 1818.28,1384.24 1820.44,1384.24 1822.59,1384.24 1824.75,1384.24 1826.9,1384.24 1829.06,1384.24 1831.21,1384.24 1833.37,1384.24 1835.52,1384.24 1837.68,1384.24 1839.83,1384.24 1841.99,1384.24 1844.14,1384.24 1846.3,1384.24 1848.45,1384.24 1850.61,1384.24 1852.76,1384.24 1854.92,1384.24 1857.07,1384.24 1859.23,1384.24 1861.38,1384.24 1863.54,1384.24 1865.69,1384.24 1867.85,1384.24 1870,1384.24 1872.16,1384.24 1874.31,1384.24 1876.47,1384.24 1878.62,1384.24 1880.78,1384.24 1882.94,1384.24 1885.09,1384.24 1887.25,1384.24 1889.4,1384.24 1891.56,1384.24 1893.71,1384.24 1895.87,1384.24 1898.02,1384.24 1900.18,1384.24 1902.33,1384.24 1904.49,1384.24 1906.64,1384.24 1908.8,1384.24 1910.95,1384.24 1913.11,1384.24 1915.26,1384.24 1917.42,1384.24 1919.57,1384.24 1921.73,1384.24 1923.88,1384.24 1926.04,1384.24 1928.19,1384.24 1930.35,1384.24 1932.5,1384.24 1934.66,1384.24 1936.81,1384.24 1938.97,1384.24 1941.12,1384.24 1943.28,1384.24 1945.43,1384.24 1947.59,1384.24 1949.74,1384.24 1951.9,1384.24 1954.05,1384.24 1956.21,1384.24 1958.36,1384.24 1960.52,1384.24 1962.68,1384.24 1964.83,1384.24 1966.99,1384.24 1969.14,1384.24 1971.3,1384.24 1973.45,1384.24 1975.61,1384.24 1977.76,1384.24 1979.92,1384.24 1982.07,1384.24 1984.23,1384.24 1986.38,1384.24 1988.54,1384.24 1990.69,1384.24 1992.85,1384.24 1995,1384.24 1997.16,1384.24 1999.31,1384.24 2001.47,1384.24 2003.62,1384.24 2005.78,1384.24 2007.93,1384.24 2010.09,1384.24 2012.24,1384.24 2014.4,1384.24 2016.55,1384.24 2018.71,1384.24 2020.86,1384.24 2023.02,1384.24 2025.17,1384.24 2027.33,1384.24 2029.48,1384.24 2031.64,1384.24 2033.79,1384.24 2035.95,1384.24 2038.11,1384.24 2040.26,1384.24 2042.42,1384.24 2044.57,1384.24 2046.73,1384.24 2048.88,1384.24 2051.04,1384.24 2053.19,1384.24 2055.35,1384.24 2057.5,1384.24 2059.66,1384.24 2061.81,1384.24 2063.97,1384.24 2066.12,1384.24 2068.28,1384.24 2070.43,1384.24 2072.59,1384.24 2074.74,1384.24 2076.9,1384.24 2079.05,1384.24 2081.21,1384.24 2083.36,1384.24 2085.52,1384.24 2087.67,1384.24 2089.83,1384.24 2091.98,1384.24 2094.14,1384.24 2096.29,1384.24 2098.45,1384.24 2100.6,1384.24 2102.76,1384.24 2104.91,1384.24 2107.07,1384.24 2109.22,1384.24 2111.38,1384.24 2113.54,1384.24 2115.69,1384.24 2117.85,1384.24 2120,1384.24 2122.16,1384.24 2124.31,1384.24 2126.47,1384.24 2128.62,1384.24 2130.78,1384.24 2132.93,1384.24 2135.09,1384.24 2137.24,1384.24 2139.4,1384.24 2141.55,1384.24 2143.71,1384.24 2145.86,1384.24 2148.02,1384.24 2150.17,1384.24 2152.33,1384.24 2154.48,1384.24 2156.64,1384.24 2158.79,1384.24 2160.95,1384.24 2163.1,1384.24 2165.26,1384.24 2167.41,1384.24 2169.57,1384.24 2171.72,1384.24 2173.88,1384.24 2176.03,1384.24 2178.19,1384.24 2180.34,1384.24 2182.5,1384.24 2184.65,1384.24 2186.81,1384.24 2188.97,1384.24 2191.12,1384.24 2193.28,1384.24 2195.43,1384.24 2197.59,1384.24 2199.74,1384.24 2201.9,1384.24 2204.05,1384.24 2206.21,1384.24 2208.36,1384.24 2210.52,1384.24 2212.67,1384.24 2214.83,1384.24 2216.98,1384.24 2219.14,1384.24 2221.29,1384.24 2223.45,1384.24 2225.6,1384.24 2227.76,1384.24 2229.91,1384.24 2232.07,1384.24 2234.22,1384.24 2236.38,1384.24 2238.53,1384.24 2240.69,1384.24 2242.84,1384.24 2245,1384.24 2247.15,1384.24 2249.31,1384.24 2251.46,1384.24 2253.62,1384.24 2255.77,1384.24 2257.93,1384.24 2260.08,1384.24 2262.24,1384.24 2264.4,1384.24 2266.55,1384.24 2268.71,1384.24 2270.86,1384.24 2273.02,1384.24 2275.17,1384.24 2277.33,1384.24 2279.48,1384.24 2281.64,1384.24 2283.79,1384.24 2285.95,1384.24 2288.1,1384.24 2290.26,1384.24 2292.41,1384.24 2294.57,1384.24 2296.72,1384.24 2298.88,1384.24 2301.03,1384.24 2303.19,1384.24 2305.34,1384.24 2307.5,1384.24 2309.65,1384.24 2311.81,1384.24 2313.96,1384.24 2316.12,1384.24 2318.27,1384.24 2320.43,1384.24 2322.58,1384.24 2324.74,1384.24 2326.89,1384.24 2329.05,1384.24 2331.2,1384.24 2333.36,1384.24 2335.51,1384.24 2337.67,1384.24 2339.83,1384.24 2341.98,1384.24 2344.14,1384.24 2346.29,1384.24 2348.45,1384.24 2350.6,1384.24 2352.76,1384.24 "/>
<path clip-path="url(#clip530)" d="M1942.8 196.789 L2280.99 196.789 L2280.99 93.1086 L1942.8 93.1086  Z" fill="#ffffff" fill-rule="evenodd" fill-opacity="1"/>
<polyline clip-path="url(#clip530)" style="stroke:#000000; stroke-linecap:round; stroke-linejoin:round; stroke-width:4; stroke-opacity:1; fill:none" points="1942.8,196.789 2280.99,196.789 2280.99,93.1086 1942.8,93.1086 1942.8,196.789 "/>
<polyline clip-path="url(#clip530)" style="stroke:#009af9; stroke-linecap:round; stroke-linejoin:round; stroke-width:4; stroke-opacity:1; fill:none" points="1966.72,144.949 2110.25,144.949 "/>
<path clip-path="url(#clip530)" d="M2149.36 140.284 Q2148.64 139.868 2147.79 139.682 Q2146.95 139.474 2145.93 139.474 Q2142.32 139.474 2140.38 141.835 Q2138.46 144.173 2138.46 148.571 L2138.46 162.229 L2134.17 162.229 L2134.17 136.303 L2138.46 136.303 L2138.46 140.331 Q2139.8 137.969 2141.95 136.835 Q2144.11 135.678 2147.18 135.678 Q2147.62 135.678 2148.16 135.747 Q2148.69 135.794 2149.34 135.909 L2149.36 140.284 Z" fill="#000000" fill-rule="nonzero" fill-opacity="1" /><path clip-path="url(#clip530)" d="M2174.54 146.581 L2174.54 162.229 L2170.29 162.229 L2170.29 146.719 Q2170.29 143.039 2168.85 141.21 Q2167.42 139.382 2164.54 139.382 Q2161.1 139.382 2159.11 141.581 Q2157.11 143.78 2157.11 147.576 L2157.11 162.229 L2152.83 162.229 L2152.83 126.21 L2157.11 126.21 L2157.11 140.331 Q2158.64 137.993 2160.7 136.835 Q2162.79 135.678 2165.49 135.678 Q2169.96 135.678 2172.25 138.456 Q2174.54 141.21 2174.54 146.581 Z" fill="#000000" fill-rule="nonzero" fill-opacity="1" /><path clip-path="url(#clip530)" d="M2193.09 139.289 Q2189.66 139.289 2187.67 141.974 Q2185.68 144.636 2185.68 149.289 Q2185.68 153.942 2187.65 156.627 Q2189.64 159.289 2193.09 159.289 Q2196.49 159.289 2198.48 156.604 Q2200.47 153.918 2200.47 149.289 Q2200.47 144.682 2198.48 141.997 Q2196.49 139.289 2193.09 139.289 M2193.09 135.678 Q2198.64 135.678 2201.81 139.289 Q2204.98 142.9 2204.98 149.289 Q2204.98 155.655 2201.81 159.289 Q2198.64 162.9 2193.09 162.9 Q2187.51 162.9 2184.34 159.289 Q2181.19 155.655 2181.19 149.289 Q2181.19 142.9 2184.34 139.289 Q2187.51 135.678 2193.09 135.678 Z" fill="#000000" fill-rule="nonzero" fill-opacity="1" /><path clip-path="url(#clip530)" d="M2231.74 170.099 L2231.74 173.409 L2207.11 173.409 L2207.11 170.099 L2231.74 170.099 Z" fill="#000000" fill-rule="nonzero" fill-opacity="1" /><path clip-path="url(#clip530)" d="M2237.16 158.293 L2244.8 158.293 L2244.8 131.928 L2236.49 133.595 L2236.49 129.335 L2244.75 127.669 L2249.43 127.669 L2249.43 158.293 L2257.07 158.293 L2257.07 162.229 L2237.16 162.229 L2237.16 158.293 Z" fill="#000000" fill-rule="nonzero" fill-opacity="1" /></svg>
