<?xml version="1.0" encoding="utf-8"?>
<svg xmlns="http://www.w3.org/2000/svg" xmlns:xlink="http://www.w3.org/1999/xlink" width="600" height="400" viewBox="0 0 2400 1600">
<defs>
  <clipPath id="clip610">
    <rect x="0" y="0" width="2400" height="1600"/>
  </clipPath>
</defs>
<path clip-path="url(#clip610)" d="M0 1600 L2400 1600 L2400 8.88178e-14 L0 8.88178e-14  Z" fill="#ffffff" fill-rule="evenodd" fill-opacity="1"/>
<defs>
  <clipPath id="clip611">
    <rect x="480" y="0" width="1681" height="1600"/>
  </clipPath>
</defs>
<path clip-path="url(#clip610)" d="M216.922 1486.45 L2352.76 1486.45 L2352.76 47.2441 L216.922 47.2441  Z" fill="#ffffff" fill-rule="evenodd" fill-opacity="1"/>
<defs>
  <clipPath id="clip612">
    <rect x="216" y="47" width="2137" height="1440"/>
  </clipPath>
</defs>
<polyline clip-path="url(#clip612)" style="stroke:#000000; stroke-linecap:round; stroke-linejoin:round; stroke-width:2; stroke-opacity:0.1; fill:none" points="236.249,1486.45 236.249,47.2441 "/>
<polyline clip-path="url(#clip612)" style="stroke:#000000; stroke-linecap:round; stroke-linejoin:round; stroke-width:2; stroke-opacity:0.1; fill:none" points="647.461,1486.45 647.461,47.2441 "/>
<polyline clip-path="url(#clip612)" style="stroke:#000000; stroke-linecap:round; stroke-linejoin:round; stroke-width:2; stroke-opacity:0.1; fill:none" points="1058.67,1486.45 1058.67,47.2441 "/>
<polyline clip-path="url(#clip612)" style="stroke:#000000; stroke-linecap:round; stroke-linejoin:round; stroke-width:2; stroke-opacity:0.1; fill:none" points="1469.88,1486.45 1469.88,47.2441 "/>
<polyline clip-path="url(#clip612)" style="stroke:#000000; stroke-linecap:round; stroke-linejoin:round; stroke-width:2; stroke-opacity:0.1; fill:none" points="1881.1,1486.45 1881.1,47.2441 "/>
<polyline clip-path="url(#clip612)" style="stroke:#000000; stroke-linecap:round; stroke-linejoin:round; stroke-width:2; stroke-opacity:0.1; fill:none" points="2292.31,1486.45 2292.31,47.2441 "/>
<polyline clip-path="url(#clip612)" style="stroke:#000000; stroke-linecap:round; stroke-linejoin:round; stroke-width:2; stroke-opacity:0.1; fill:none" points="216.922,1446.05 2352.76,1446.05 "/>
<polyline clip-path="url(#clip612)" style="stroke:#000000; stroke-linecap:round; stroke-linejoin:round; stroke-width:2; stroke-opacity:0.1; fill:none" points="216.922,1108.81 2352.76,1108.81 "/>
<polyline clip-path="url(#clip612)" style="stroke:#000000; stroke-linecap:round; stroke-linejoin:round; stroke-width:2; stroke-opacity:0.1; fill:none" points="216.922,771.576 2352.76,771.576 "/>
<polyline clip-path="url(#clip612)" style="stroke:#000000; stroke-linecap:round; stroke-linejoin:round; stroke-width:2; stroke-opacity:0.1; fill:none" points="216.922,434.338 2352.76,434.338 "/>
<polyline clip-path="url(#clip612)" style="stroke:#000000; stroke-linecap:round; stroke-linejoin:round; stroke-width:2; stroke-opacity:0.1; fill:none" points="216.922,97.1 2352.76,97.1 "/>
<polyline clip-path="url(#clip610)" style="stroke:#000000; stroke-linecap:round; stroke-linejoin:round; stroke-width:4; stroke-opacity:1; fill:none" points="216.922,1486.45 2352.76,1486.45 "/>
<polyline clip-path="url(#clip610)" style="stroke:#000000; stroke-linecap:round; stroke-linejoin:round; stroke-width:4; stroke-opacity:1; fill:none" points="236.249,1486.45 236.249,1467.55 "/>
<polyline clip-path="url(#clip610)" style="stroke:#000000; stroke-linecap:round; stroke-linejoin:round; stroke-width:4; stroke-opacity:1; fill:none" points="647.461,1486.45 647.461,1467.55 "/>
<polyline clip-path="url(#clip610)" style="stroke:#000000; stroke-linecap:round; stroke-linejoin:round; stroke-width:4; stroke-opacity:1; fill:none" points="1058.67,1486.45 1058.67,1467.55 "/>
<polyline clip-path="url(#clip610)" style="stroke:#000000; stroke-linecap:round; stroke-linejoin:round; stroke-width:4; stroke-opacity:1; fill:none" points="1469.88,1486.45 1469.88,1467.55 "/>
<polyline clip-path="url(#clip610)" style="stroke:#000000; stroke-linecap:round; stroke-linejoin:round; stroke-width:4; stroke-opacity:1; fill:none" points="1881.1,1486.45 1881.1,1467.55 "/>
<polyline clip-path="url(#clip610)" style="stroke:#000000; stroke-linecap:round; stroke-linejoin:round; stroke-width:4; stroke-opacity:1; fill:none" points="2292.31,1486.45 2292.31,1467.55 "/>
<path clip-path="url(#clip610)" d="M236.249 1517.37 Q232.638 1517.37 230.809 1520.93 Q229.004 1524.47 229.004 1531.6 Q229.004 1538.71 230.809 1542.27 Q232.638 1545.82 236.249 1545.82 Q239.883 1545.82 241.689 1542.27 Q243.517 1538.71 243.517 1531.6 Q243.517 1524.47 241.689 1520.93 Q239.883 1517.37 236.249 1517.37 M236.249 1513.66 Q242.059 1513.66 245.115 1518.27 Q248.193 1522.85 248.193 1531.6 Q248.193 1540.33 245.115 1544.94 Q242.059 1549.52 236.249 1549.52 Q230.439 1549.52 227.36 1544.94 Q224.305 1540.33 224.305 1531.6 Q224.305 1522.85 227.36 1518.27 Q230.439 1513.66 236.249 1513.66 Z" fill="#000000" fill-rule="nonzero" fill-opacity="1" /><path clip-path="url(#clip610)" d="M622.148 1544.91 L629.787 1544.91 L629.787 1518.55 L621.477 1520.21 L621.477 1515.95 L629.741 1514.29 L634.417 1514.29 L634.417 1544.91 L642.056 1544.91 L642.056 1548.85 L622.148 1548.85 L622.148 1544.91 Z" fill="#000000" fill-rule="nonzero" fill-opacity="1" /><path clip-path="url(#clip610)" d="M661.5 1517.37 Q657.889 1517.37 656.06 1520.93 Q654.255 1524.47 654.255 1531.6 Q654.255 1538.71 656.06 1542.27 Q657.889 1545.82 661.5 1545.82 Q665.134 1545.82 666.94 1542.27 Q668.768 1538.71 668.768 1531.6 Q668.768 1524.47 666.94 1520.93 Q665.134 1517.37 661.5 1517.37 M661.5 1513.66 Q667.31 1513.66 670.366 1518.27 Q673.444 1522.85 673.444 1531.6 Q673.444 1540.33 670.366 1544.94 Q667.31 1549.52 661.5 1549.52 Q655.69 1549.52 652.611 1544.94 Q649.556 1540.33 649.556 1531.6 Q649.556 1522.85 652.611 1518.27 Q655.69 1513.66 661.5 1513.66 Z" fill="#000000" fill-rule="nonzero" fill-opacity="1" /><path clip-path="url(#clip610)" d="M1037.45 1544.91 L1053.77 1544.91 L1053.77 1548.85 L1031.82 1548.85 L1031.82 1544.91 Q1034.48 1542.16 1039.07 1537.53 Q1043.67 1532.88 1044.85 1531.53 Q1047.1 1529.01 1047.98 1527.27 Q1048.88 1525.51 1048.88 1523.82 Q1048.88 1521.07 1046.94 1519.33 Q1045.02 1517.6 1041.91 1517.6 Q1039.71 1517.6 1037.26 1518.36 Q1034.83 1519.13 1032.05 1520.68 L1032.05 1515.95 Q1034.88 1514.82 1037.33 1514.24 Q1039.78 1513.66 1041.82 1513.66 Q1047.19 1513.66 1050.39 1516.35 Q1053.58 1519.03 1053.58 1523.52 Q1053.58 1525.65 1052.77 1527.57 Q1051.98 1529.47 1049.88 1532.07 Q1049.3 1532.74 1046.2 1535.95 Q1043.09 1539.15 1037.45 1544.91 Z" fill="#000000" fill-rule="nonzero" fill-opacity="1" /><path clip-path="url(#clip610)" d="M1073.58 1517.37 Q1069.97 1517.37 1068.14 1520.93 Q1066.33 1524.47 1066.33 1531.6 Q1066.33 1538.71 1068.14 1542.27 Q1069.97 1545.82 1073.58 1545.82 Q1077.21 1545.82 1079.02 1542.27 Q1080.85 1538.71 1080.85 1531.6 Q1080.85 1524.47 1079.02 1520.93 Q1077.21 1517.37 1073.58 1517.37 M1073.58 1513.66 Q1079.39 1513.66 1082.45 1518.27 Q1085.52 1522.85 1085.52 1531.6 Q1085.52 1540.33 1082.45 1544.94 Q1079.39 1549.52 1073.58 1549.52 Q1067.77 1549.52 1064.69 1544.94 Q1061.64 1540.33 1061.64 1531.6 Q1061.64 1522.85 1064.69 1518.27 Q1067.77 1513.66 1073.58 1513.66 Z" fill="#000000" fill-rule="nonzero" fill-opacity="1" /><path clip-path="url(#clip610)" d="M1458.73 1530.21 Q1462.08 1530.93 1463.96 1533.2 Q1465.86 1535.47 1465.86 1538.8 Q1465.86 1543.92 1462.34 1546.72 Q1458.82 1549.52 1452.34 1549.52 Q1450.16 1549.52 1447.85 1549.08 Q1445.56 1548.66 1443.1 1547.81 L1443.1 1543.29 Q1445.05 1544.43 1447.36 1545.01 Q1449.68 1545.58 1452.2 1545.58 Q1456.6 1545.58 1458.89 1543.85 Q1461.2 1542.11 1461.2 1538.8 Q1461.2 1535.75 1459.05 1534.03 Q1456.92 1532.3 1453.1 1532.3 L1449.07 1532.3 L1449.07 1528.45 L1453.29 1528.45 Q1456.74 1528.45 1458.56 1527.09 Q1460.39 1525.7 1460.39 1523.11 Q1460.39 1520.45 1458.5 1519.03 Q1456.62 1517.6 1453.1 1517.6 Q1451.18 1517.6 1448.98 1518.01 Q1446.78 1518.43 1444.14 1519.31 L1444.14 1515.14 Q1446.81 1514.4 1449.12 1514.03 Q1451.46 1513.66 1453.52 1513.66 Q1458.84 1513.66 1461.94 1516.09 Q1465.05 1518.5 1465.05 1522.62 Q1465.05 1525.49 1463.4 1527.48 Q1461.76 1529.45 1458.73 1530.21 Z" fill="#000000" fill-rule="nonzero" fill-opacity="1" /><path clip-path="url(#clip610)" d="M1484.72 1517.37 Q1481.11 1517.37 1479.28 1520.93 Q1477.48 1524.47 1477.48 1531.6 Q1477.48 1538.71 1479.28 1542.27 Q1481.11 1545.82 1484.72 1545.82 Q1488.36 1545.82 1490.16 1542.27 Q1491.99 1538.71 1491.99 1531.6 Q1491.99 1524.47 1490.16 1520.93 Q1488.36 1517.37 1484.72 1517.37 M1484.72 1513.66 Q1490.53 1513.66 1493.59 1518.27 Q1496.67 1522.85 1496.67 1531.6 Q1496.67 1540.33 1493.59 1544.94 Q1490.53 1549.52 1484.72 1549.52 Q1478.91 1549.52 1475.83 1544.94 Q1472.78 1540.33 1472.78 1531.6 Q1472.78 1522.85 1475.83 1518.27 Q1478.91 1513.66 1484.72 1513.66 Z" fill="#000000" fill-rule="nonzero" fill-opacity="1" /><path clip-path="url(#clip610)" d="M1869.27 1518.36 L1857.46 1536.81 L1869.27 1536.81 L1869.27 1518.36 M1868.04 1514.29 L1873.92 1514.29 L1873.92 1536.81 L1878.85 1536.81 L1878.85 1540.7 L1873.92 1540.7 L1873.92 1548.85 L1869.27 1548.85 L1869.27 1540.7 L1853.67 1540.7 L1853.67 1536.19 L1868.04 1514.29 Z" fill="#000000" fill-rule="nonzero" fill-opacity="1" /><path clip-path="url(#clip610)" d="M1896.58 1517.37 Q1892.97 1517.37 1891.14 1520.93 Q1889.34 1524.47 1889.34 1531.6 Q1889.34 1538.71 1891.14 1542.27 Q1892.97 1545.82 1896.58 1545.82 Q1900.22 1545.82 1902.02 1542.27 Q1903.85 1538.71 1903.85 1531.6 Q1903.85 1524.47 1902.02 1520.93 Q1900.22 1517.37 1896.58 1517.37 M1896.58 1513.66 Q1902.39 1513.66 1905.45 1518.27 Q1908.53 1522.85 1908.53 1531.6 Q1908.53 1540.33 1905.45 1544.94 Q1902.39 1549.52 1896.58 1549.52 Q1890.77 1549.52 1887.69 1544.94 Q1884.64 1540.33 1884.64 1531.6 Q1884.64 1522.85 1887.69 1518.27 Q1890.77 1513.66 1896.58 1513.66 Z" fill="#000000" fill-rule="nonzero" fill-opacity="1" /><path clip-path="url(#clip610)" d="M2267.01 1514.29 L2285.36 1514.29 L2285.36 1518.22 L2271.29 1518.22 L2271.29 1526.7 Q2272.31 1526.35 2273.33 1526.19 Q2274.34 1526 2275.36 1526 Q2281.15 1526 2284.53 1529.17 Q2287.91 1532.34 2287.91 1537.76 Q2287.91 1543.34 2284.44 1546.44 Q2280.97 1549.52 2274.65 1549.52 Q2272.47 1549.52 2270.2 1549.15 Q2267.96 1548.78 2265.55 1548.04 L2265.55 1543.34 Q2267.63 1544.47 2269.85 1545.03 Q2272.08 1545.58 2274.55 1545.58 Q2278.56 1545.58 2280.9 1543.48 Q2283.23 1541.37 2283.23 1537.76 Q2283.23 1534.15 2280.9 1532.04 Q2278.56 1529.94 2274.55 1529.94 Q2272.68 1529.94 2270.8 1530.35 Q2268.95 1530.77 2267.01 1531.65 L2267.01 1514.29 Z" fill="#000000" fill-rule="nonzero" fill-opacity="1" /><path clip-path="url(#clip610)" d="M2307.12 1517.37 Q2303.51 1517.37 2301.68 1520.93 Q2299.88 1524.47 2299.88 1531.6 Q2299.88 1538.71 2301.68 1542.27 Q2303.51 1545.82 2307.12 1545.82 Q2310.76 1545.82 2312.56 1542.27 Q2314.39 1538.71 2314.39 1531.6 Q2314.39 1524.47 2312.56 1520.93 Q2310.76 1517.37 2307.12 1517.37 M2307.12 1513.66 Q2312.93 1513.66 2315.99 1518.27 Q2319.07 1522.85 2319.07 1531.6 Q2319.07 1540.33 2315.99 1544.94 Q2312.93 1549.52 2307.12 1549.52 Q2301.31 1549.52 2298.23 1544.94 Q2295.18 1540.33 2295.18 1531.6 Q2295.18 1522.85 2298.23 1518.27 Q2301.31 1513.66 2307.12 1513.66 Z" fill="#000000" fill-rule="nonzero" fill-opacity="1" /><polyline clip-path="url(#clip610)" style="stroke:#000000; stroke-linecap:round; stroke-linejoin:round; stroke-width:4; stroke-opacity:1; fill:none" points="216.922,1486.45 216.922,47.2441 "/>
<polyline clip-path="url(#clip610)" style="stroke:#000000; stroke-linecap:round; stroke-linejoin:round; stroke-width:4; stroke-opacity:1; fill:none" points="216.922,1446.05 235.82,1446.05 "/>
<polyline clip-path="url(#clip610)" style="stroke:#000000; stroke-linecap:round; stroke-linejoin:round; stroke-width:4; stroke-opacity:1; fill:none" points="216.922,1108.81 235.82,1108.81 "/>
<polyline clip-path="url(#clip610)" style="stroke:#000000; stroke-linecap:round; stroke-linejoin:round; stroke-width:4; stroke-opacity:1; fill:none" points="216.922,771.576 235.82,771.576 "/>
<polyline clip-path="url(#clip610)" style="stroke:#000000; stroke-linecap:round; stroke-linejoin:round; stroke-width:4; stroke-opacity:1; fill:none" points="216.922,434.338 235.82,434.338 "/>
<polyline clip-path="url(#clip610)" style="stroke:#000000; stroke-linecap:round; stroke-linejoin:round; stroke-width:4; stroke-opacity:1; fill:none" points="216.922,97.1 235.82,97.1 "/>
<path clip-path="url(#clip610)" d="M63.4226 1431.85 Q59.8115 1431.85 57.9828 1435.42 Q56.1773 1438.96 56.1773 1446.09 Q56.1773 1453.19 57.9828 1456.76 Q59.8115 1460.3 63.4226 1460.3 Q67.0569 1460.3 68.8624 1456.76 Q70.6911 1453.19 70.6911 1446.09 Q70.6911 1438.96 68.8624 1435.42 Q67.0569 1431.85 63.4226 1431.85 M63.4226 1428.15 Q69.2328 1428.15 72.2883 1432.75 Q75.367 1437.34 75.367 1446.09 Q75.367 1454.81 72.2883 1459.42 Q69.2328 1464 63.4226 1464 Q57.6125 1464 54.5338 1459.42 Q51.4782 1454.81 51.4782 1446.09 Q51.4782 1437.34 54.5338 1432.75 Q57.6125 1428.15 63.4226 1428.15 Z" fill="#000000" fill-rule="nonzero" fill-opacity="1" /><path clip-path="url(#clip610)" d="M83.5845 1457.45 L88.4688 1457.45 L88.4688 1463.33 L83.5845 1463.33 L83.5845 1457.45 Z" fill="#000000" fill-rule="nonzero" fill-opacity="1" /><path clip-path="url(#clip610)" d="M108.654 1431.85 Q105.043 1431.85 103.214 1435.42 Q101.409 1438.96 101.409 1446.09 Q101.409 1453.19 103.214 1456.76 Q105.043 1460.3 108.654 1460.3 Q112.288 1460.3 114.094 1456.76 Q115.922 1453.19 115.922 1446.09 Q115.922 1438.96 114.094 1435.42 Q112.288 1431.85 108.654 1431.85 M108.654 1428.15 Q114.464 1428.15 117.52 1432.75 Q120.598 1437.34 120.598 1446.09 Q120.598 1454.81 117.52 1459.42 Q114.464 1464 108.654 1464 Q102.844 1464 99.765 1459.42 Q96.7095 1454.81 96.7095 1446.09 Q96.7095 1437.34 99.765 1432.75 Q102.844 1428.15 108.654 1428.15 Z" fill="#000000" fill-rule="nonzero" fill-opacity="1" /><path clip-path="url(#clip610)" d="M138.816 1431.85 Q135.205 1431.85 133.376 1435.42 Q131.57 1438.96 131.57 1446.09 Q131.57 1453.19 133.376 1456.76 Q135.205 1460.3 138.816 1460.3 Q142.45 1460.3 144.256 1456.76 Q146.084 1453.19 146.084 1446.09 Q146.084 1438.96 144.256 1435.42 Q142.45 1431.85 138.816 1431.85 M138.816 1428.15 Q144.626 1428.15 147.681 1432.75 Q150.76 1437.34 150.76 1446.09 Q150.76 1454.81 147.681 1459.42 Q144.626 1464 138.816 1464 Q133.006 1464 129.927 1459.42 Q126.871 1454.81 126.871 1446.09 Q126.871 1437.34 129.927 1432.75 Q133.006 1428.15 138.816 1428.15 Z" fill="#000000" fill-rule="nonzero" fill-opacity="1" /><path clip-path="url(#clip610)" d="M168.978 1431.85 Q165.367 1431.85 163.538 1435.42 Q161.732 1438.96 161.732 1446.09 Q161.732 1453.19 163.538 1456.76 Q165.367 1460.3 168.978 1460.3 Q172.612 1460.3 174.417 1456.76 Q176.246 1453.19 176.246 1446.09 Q176.246 1438.96 174.417 1435.42 Q172.612 1431.85 168.978 1431.85 M168.978 1428.15 Q174.788 1428.15 177.843 1432.75 Q180.922 1437.34 180.922 1446.09 Q180.922 1454.81 177.843 1459.42 Q174.788 1464 168.978 1464 Q163.167 1464 160.089 1459.42 Q157.033 1454.81 157.033 1446.09 Q157.033 1437.34 160.089 1432.75 Q163.167 1428.15 168.978 1428.15 Z" fill="#000000" fill-rule="nonzero" fill-opacity="1" /><path clip-path="url(#clip610)" d="M64.6495 1094.61 Q61.0384 1094.61 59.2097 1098.18 Q57.4041 1101.72 57.4041 1108.85 Q57.4041 1115.96 59.2097 1119.52 Q61.0384 1123.06 64.6495 1123.06 Q68.2837 1123.06 70.0892 1119.52 Q71.9179 1115.96 71.9179 1108.85 Q71.9179 1101.72 70.0892 1098.18 Q68.2837 1094.61 64.6495 1094.61 M64.6495 1090.91 Q70.4596 1090.91 73.5152 1095.52 Q76.5938 1100.1 76.5938 1108.85 Q76.5938 1117.58 73.5152 1122.18 Q70.4596 1126.77 64.6495 1126.77 Q58.8393 1126.77 55.7606 1122.18 Q52.7051 1117.58 52.7051 1108.85 Q52.7051 1100.1 55.7606 1095.52 Q58.8393 1090.91 64.6495 1090.91 Z" fill="#000000" fill-rule="nonzero" fill-opacity="1" /><path clip-path="url(#clip610)" d="M84.8114 1120.22 L89.6956 1120.22 L89.6956 1126.09 L84.8114 1126.09 L84.8114 1120.22 Z" fill="#000000" fill-rule="nonzero" fill-opacity="1" /><path clip-path="url(#clip610)" d="M109.881 1094.61 Q106.27 1094.61 104.441 1098.18 Q102.635 1101.72 102.635 1108.85 Q102.635 1115.96 104.441 1119.52 Q106.27 1123.06 109.881 1123.06 Q113.515 1123.06 115.32 1119.52 Q117.149 1115.96 117.149 1108.85 Q117.149 1101.72 115.32 1098.18 Q113.515 1094.61 109.881 1094.61 M109.881 1090.91 Q115.691 1090.91 118.746 1095.52 Q121.825 1100.1 121.825 1108.85 Q121.825 1117.58 118.746 1122.18 Q115.691 1126.77 109.881 1126.77 Q104.071 1126.77 100.992 1122.18 Q97.9363 1117.58 97.9363 1108.85 Q97.9363 1100.1 100.992 1095.52 Q104.071 1090.91 109.881 1090.91 Z" fill="#000000" fill-rule="nonzero" fill-opacity="1" /><path clip-path="url(#clip610)" d="M140.043 1094.61 Q136.431 1094.61 134.603 1098.18 Q132.797 1101.72 132.797 1108.85 Q132.797 1115.96 134.603 1119.52 Q136.431 1123.06 140.043 1123.06 Q143.677 1123.06 145.482 1119.52 Q147.311 1115.96 147.311 1108.85 Q147.311 1101.72 145.482 1098.18 Q143.677 1094.61 140.043 1094.61 M140.043 1090.91 Q145.853 1090.91 148.908 1095.52 Q151.987 1100.1 151.987 1108.85 Q151.987 1117.58 148.908 1122.18 Q145.853 1126.77 140.043 1126.77 Q134.232 1126.77 131.154 1122.18 Q128.098 1117.58 128.098 1108.85 Q128.098 1100.1 131.154 1095.52 Q134.232 1090.91 140.043 1090.91 Z" fill="#000000" fill-rule="nonzero" fill-opacity="1" /><path clip-path="url(#clip610)" d="M161.015 1122.16 L168.654 1122.16 L168.654 1095.79 L160.343 1097.46 L160.343 1093.2 L168.607 1091.53 L173.283 1091.53 L173.283 1122.16 L180.922 1122.16 L180.922 1126.09 L161.015 1126.09 L161.015 1122.16 Z" fill="#000000" fill-rule="nonzero" fill-opacity="1" /><path clip-path="url(#clip610)" d="M65.0198 757.375 Q61.4087 757.375 59.58 760.94 Q57.7745 764.482 57.7745 771.611 Q57.7745 778.718 59.58 782.282 Q61.4087 785.824 65.0198 785.824 Q68.6541 785.824 70.4596 782.282 Q72.2883 778.718 72.2883 771.611 Q72.2883 764.482 70.4596 760.94 Q68.6541 757.375 65.0198 757.375 M65.0198 753.671 Q70.83 753.671 73.8855 758.278 Q76.9642 762.861 76.9642 771.611 Q76.9642 780.338 73.8855 784.944 Q70.83 789.528 65.0198 789.528 Q59.2097 789.528 56.131 784.944 Q53.0754 780.338 53.0754 771.611 Q53.0754 762.861 56.131 758.278 Q59.2097 753.671 65.0198 753.671 Z" fill="#000000" fill-rule="nonzero" fill-opacity="1" /><path clip-path="url(#clip610)" d="M85.1818 782.977 L90.066 782.977 L90.066 788.856 L85.1818 788.856 L85.1818 782.977 Z" fill="#000000" fill-rule="nonzero" fill-opacity="1" /><path clip-path="url(#clip610)" d="M110.251 757.375 Q106.64 757.375 104.811 760.94 Q103.006 764.482 103.006 771.611 Q103.006 778.718 104.811 782.282 Q106.64 785.824 110.251 785.824 Q113.885 785.824 115.691 782.282 Q117.52 778.718 117.52 771.611 Q117.52 764.482 115.691 760.94 Q113.885 757.375 110.251 757.375 M110.251 753.671 Q116.061 753.671 119.117 758.278 Q122.195 762.861 122.195 771.611 Q122.195 780.338 119.117 784.944 Q116.061 789.528 110.251 789.528 Q104.441 789.528 101.362 784.944 Q98.3067 780.338 98.3067 771.611 Q98.3067 762.861 101.362 758.278 Q104.441 753.671 110.251 753.671 Z" fill="#000000" fill-rule="nonzero" fill-opacity="1" /><path clip-path="url(#clip610)" d="M140.413 757.375 Q136.802 757.375 134.973 760.94 Q133.168 764.482 133.168 771.611 Q133.168 778.718 134.973 782.282 Q136.802 785.824 140.413 785.824 Q144.047 785.824 145.853 782.282 Q147.681 778.718 147.681 771.611 Q147.681 764.482 145.853 760.94 Q144.047 757.375 140.413 757.375 M140.413 753.671 Q146.223 753.671 149.279 758.278 Q152.357 762.861 152.357 771.611 Q152.357 780.338 149.279 784.944 Q146.223 789.528 140.413 789.528 Q134.603 789.528 131.524 784.944 Q128.469 780.338 128.469 771.611 Q128.469 762.861 131.524 758.278 Q134.603 753.671 140.413 753.671 Z" fill="#000000" fill-rule="nonzero" fill-opacity="1" /><path clip-path="url(#clip610)" d="M164.603 784.921 L180.922 784.921 L180.922 788.856 L158.978 788.856 L158.978 784.921 Q161.64 782.167 166.223 777.537 Q170.829 772.884 172.01 771.542 Q174.255 769.019 175.135 767.283 Q176.038 765.523 176.038 763.833 Q176.038 761.079 174.093 759.343 Q172.172 757.607 169.07 757.607 Q166.871 757.607 164.417 758.371 Q161.987 759.134 159.209 760.685 L159.209 755.963 Q162.033 754.829 164.487 754.25 Q166.941 753.671 168.978 753.671 Q174.348 753.671 177.542 756.357 Q180.737 759.042 180.737 763.533 Q180.737 765.662 179.927 767.583 Q179.14 769.482 177.033 772.074 Q176.454 772.745 173.353 775.963 Q170.251 779.157 164.603 784.921 Z" fill="#000000" fill-rule="nonzero" fill-opacity="1" /><path clip-path="url(#clip610)" d="M64.0708 420.137 Q60.4597 420.137 58.631 423.702 Q56.8254 427.243 56.8254 434.373 Q56.8254 441.479 58.631 445.044 Q60.4597 448.586 64.0708 448.586 Q67.705 448.586 69.5105 445.044 Q71.3392 441.479 71.3392 434.373 Q71.3392 427.243 69.5105 423.702 Q67.705 420.137 64.0708 420.137 M64.0708 416.433 Q69.8809 416.433 72.9365 421.04 Q76.0151 425.623 76.0151 434.373 Q76.0151 443.1 72.9365 447.706 Q69.8809 452.29 64.0708 452.29 Q58.2606 452.29 55.1819 447.706 Q52.1264 443.1 52.1264 434.373 Q52.1264 425.623 55.1819 421.04 Q58.2606 416.433 64.0708 416.433 Z" fill="#000000" fill-rule="nonzero" fill-opacity="1" /><path clip-path="url(#clip610)" d="M84.2327 445.739 L89.1169 445.739 L89.1169 451.618 L84.2327 451.618 L84.2327 445.739 Z" fill="#000000" fill-rule="nonzero" fill-opacity="1" /><path clip-path="url(#clip610)" d="M109.302 420.137 Q105.691 420.137 103.862 423.702 Q102.057 427.243 102.057 434.373 Q102.057 441.479 103.862 445.044 Q105.691 448.586 109.302 448.586 Q112.936 448.586 114.742 445.044 Q116.57 441.479 116.57 434.373 Q116.57 427.243 114.742 423.702 Q112.936 420.137 109.302 420.137 M109.302 416.433 Q115.112 416.433 118.168 421.04 Q121.246 425.623 121.246 434.373 Q121.246 443.1 118.168 447.706 Q115.112 452.29 109.302 452.29 Q103.492 452.29 100.413 447.706 Q97.3576 443.1 97.3576 434.373 Q97.3576 425.623 100.413 421.04 Q103.492 416.433 109.302 416.433 Z" fill="#000000" fill-rule="nonzero" fill-opacity="1" /><path clip-path="url(#clip610)" d="M139.464 420.137 Q135.853 420.137 134.024 423.702 Q132.219 427.243 132.219 434.373 Q132.219 441.479 134.024 445.044 Q135.853 448.586 139.464 448.586 Q143.098 448.586 144.904 445.044 Q146.732 441.479 146.732 434.373 Q146.732 427.243 144.904 423.702 Q143.098 420.137 139.464 420.137 M139.464 416.433 Q145.274 416.433 148.33 421.04 Q151.408 425.623 151.408 434.373 Q151.408 443.1 148.33 447.706 Q145.274 452.29 139.464 452.29 Q133.654 452.29 130.575 447.706 Q127.519 443.1 127.519 434.373 Q127.519 425.623 130.575 421.04 Q133.654 416.433 139.464 416.433 Z" fill="#000000" fill-rule="nonzero" fill-opacity="1" /><path clip-path="url(#clip610)" d="M173.792 432.984 Q177.149 433.702 179.024 435.97 Q180.922 438.239 180.922 441.572 Q180.922 446.688 177.403 449.489 Q173.885 452.29 167.404 452.29 Q165.228 452.29 162.913 451.85 Q160.621 451.433 158.167 450.577 L158.167 446.063 Q160.112 447.197 162.427 447.776 Q164.742 448.354 167.265 448.354 Q171.663 448.354 173.954 446.618 Q176.269 444.882 176.269 441.572 Q176.269 438.516 174.116 436.804 Q171.987 435.067 168.167 435.067 L164.14 435.067 L164.14 431.225 L168.353 431.225 Q171.802 431.225 173.63 429.859 Q175.459 428.47 175.459 425.878 Q175.459 423.216 173.561 421.804 Q171.686 420.368 168.167 420.368 Q166.246 420.368 164.047 420.785 Q161.848 421.202 159.209 422.081 L159.209 417.915 Q161.871 417.174 164.186 416.804 Q166.524 416.433 168.584 416.433 Q173.908 416.433 177.01 418.864 Q180.112 421.271 180.112 425.392 Q180.112 428.262 178.468 430.253 Q176.825 432.22 173.792 432.984 Z" fill="#000000" fill-rule="nonzero" fill-opacity="1" /><path clip-path="url(#clip610)" d="M62.9365 82.8987 Q59.3254 82.8987 57.4967 86.4635 Q55.6912 90.0052 55.6912 97.1348 Q55.6912 104.241 57.4967 107.806 Q59.3254 111.348 62.9365 111.348 Q66.5707 111.348 68.3763 107.806 Q70.205 104.241 70.205 97.1348 Q70.205 90.0052 68.3763 86.4635 Q66.5707 82.8987 62.9365 82.8987 M62.9365 79.195 Q68.7467 79.195 71.8022 83.8015 Q74.8809 88.3848 74.8809 97.1348 Q74.8809 105.862 71.8022 110.468 Q68.7467 115.051 62.9365 115.051 Q57.1264 115.051 54.0477 110.468 Q50.9921 105.862 50.9921 97.1348 Q50.9921 88.3848 54.0477 83.8015 Q57.1264 79.195 62.9365 79.195 Z" fill="#000000" fill-rule="nonzero" fill-opacity="1" /><path clip-path="url(#clip610)" d="M83.0984 108.5 L87.9827 108.5 L87.9827 114.38 L83.0984 114.38 L83.0984 108.5 Z" fill="#000000" fill-rule="nonzero" fill-opacity="1" /><path clip-path="url(#clip610)" d="M108.168 82.8987 Q104.557 82.8987 102.728 86.4635 Q100.922 90.0052 100.922 97.1348 Q100.922 104.241 102.728 107.806 Q104.557 111.348 108.168 111.348 Q111.802 111.348 113.608 107.806 Q115.436 104.241 115.436 97.1348 Q115.436 90.0052 113.608 86.4635 Q111.802 82.8987 108.168 82.8987 M108.168 79.195 Q113.978 79.195 117.033 83.8015 Q120.112 88.3848 120.112 97.1348 Q120.112 105.862 117.033 110.468 Q113.978 115.051 108.168 115.051 Q102.358 115.051 99.2789 110.468 Q96.2234 105.862 96.2234 97.1348 Q96.2234 88.3848 99.2789 83.8015 Q102.358 79.195 108.168 79.195 Z" fill="#000000" fill-rule="nonzero" fill-opacity="1" /><path clip-path="url(#clip610)" d="M138.33 82.8987 Q134.719 82.8987 132.89 86.4635 Q131.084 90.0052 131.084 97.1348 Q131.084 104.241 132.89 107.806 Q134.719 111.348 138.33 111.348 Q141.964 111.348 143.769 107.806 Q145.598 104.241 145.598 97.1348 Q145.598 90.0052 143.769 86.4635 Q141.964 82.8987 138.33 82.8987 M138.33 79.195 Q144.14 79.195 147.195 83.8015 Q150.274 88.3848 150.274 97.1348 Q150.274 105.862 147.195 110.468 Q144.14 115.051 138.33 115.051 Q132.519 115.051 129.441 110.468 Q126.385 105.862 126.385 97.1348 Q126.385 88.3848 129.441 83.8015 Q132.519 79.195 138.33 79.195 Z" fill="#000000" fill-rule="nonzero" fill-opacity="1" /><path clip-path="url(#clip610)" d="M171.339 83.8941 L159.533 102.343 L171.339 102.343 L171.339 83.8941 M170.112 79.82 L175.991 79.82 L175.991 102.343 L180.922 102.343 L180.922 106.232 L175.991 106.232 L175.991 114.38 L171.339 114.38 L171.339 106.232 L155.737 106.232 L155.737 101.718 L170.112 79.82 Z" fill="#000000" fill-rule="nonzero" fill-opacity="1" /><polyline clip-path="url(#clip612)" style="stroke:#009af9; stroke-linecap:round; stroke-linejoin:round; stroke-width:4; stroke-opacity:1; fill:none" points="277.37,1445.72 318.491,1442.68 359.612,1412.33 400.734,1327.68 441.855,1230.26 482.976,1141.87 524.097,943.019 565.218,1063.82 606.34,966.428 647.461,966.428 688.582,966.428 729.703,1129.97 770.824,1246.22 811.945,1310.65 853.067,1352.69 894.188,1381.46 935.309,1401.34 976.43,1415.1 1017.55,1424.62 1058.67,1431.22 1099.79,1435.78 1140.91,1438.94 1182.04,1441.13 1223.16,1442.64 1264.28,1443.84 1305.4,1444.74 1346.52,1444.22 1387.64,1443.88 1428.76,1443.82 1469.88,1443.65 1511.01,1443.55 1552.13,1443.41 1593.25,1443.27 1634.37,1443.08 1675.49,1442.78 1716.61,1442.26 1757.73,1441.6 1798.85,1440.13 1839.97,1435.38 1881.1,1434.55 1922.22,1433.03 1963.34,1426.29 2004.46,1424.32 2045.58,1418.08 2086.7,1407.56 2127.82,1369.5 2168.94,1287.73 2210.07,1116.54 2251.19,754.281 2292.31,87.9763 "/>
<path clip-path="url(#clip610)" d="M288.116 198.898 L554.13 198.898 L554.13 95.2176 L288.116 95.2176  Z" fill="#ffffff" fill-rule="evenodd" fill-opacity="1"/>
<polyline clip-path="url(#clip610)" style="stroke:#000000; stroke-linecap:round; stroke-linejoin:round; stroke-width:4; stroke-opacity:1; fill:none" points="288.116,198.898 554.13,198.898 554.13,95.2176 288.116,95.2176 288.116,198.898 "/>
<polyline clip-path="url(#clip610)" style="stroke:#009af9; stroke-linecap:round; stroke-linejoin:round; stroke-width:4; stroke-opacity:1; fill:none" points="311.848,147.058 454.237,147.058 "/>
<path clip-path="url(#clip610)" d="M491.811 166.745 Q490.005 171.375 488.292 172.787 Q486.579 174.199 483.709 174.199 L480.306 174.199 L480.306 170.634 L482.806 170.634 Q484.566 170.634 485.538 169.8 Q486.51 168.967 487.691 165.865 L488.454 163.921 L477.968 138.412 L482.482 138.412 L490.584 158.689 L498.686 138.412 L503.2 138.412 L491.811 166.745 Z" fill="#000000" fill-rule="nonzero" fill-opacity="1" /><path clip-path="url(#clip610)" d="M510.491 160.402 L518.13 160.402 L518.13 134.037 L509.82 135.703 L509.82 131.444 L518.084 129.778 L522.76 129.778 L522.76 160.402 L530.399 160.402 L530.399 164.338 L510.491 164.338 L510.491 160.402 Z" fill="#000000" fill-rule="nonzero" fill-opacity="1" /></svg>
