<?xml version="1.0" encoding="utf-8"?>
<svg xmlns="http://www.w3.org/2000/svg" xmlns:xlink="http://www.w3.org/1999/xlink" width="600" height="400" viewBox="0 0 2400 1600">
<defs>
  <clipPath id="clip250">
    <rect x="0" y="0" width="2400" height="1600"/>
  </clipPath>
</defs>
<path clip-path="url(#clip250)" d="M0 1600 L2400 1600 L2400 8.88178e-14 L0 8.88178e-14  Z" fill="#ffffff" fill-rule="evenodd" fill-opacity="1"/>
<defs>
  <clipPath id="clip251">
    <rect x="480" y="0" width="1681" height="1600"/>
  </clipPath>
</defs>
<path clip-path="url(#clip250)" d="M363.048 1410.9 L2352.76 1410.9 L2352.76 47.2441 L363.048 47.2441  Z" fill="#ffffff" fill-rule="evenodd" fill-opacity="1"/>
<defs>
  <clipPath id="clip252">
    <rect x="363" y="47" width="1991" height="1365"/>
  </clipPath>
</defs>
<polyline clip-path="url(#clip252)" style="stroke:#000000; stroke-linecap:round; stroke-linejoin:round; stroke-width:2; stroke-opacity:0.1; fill:none" points="363.048,1081.83 363.048,-281.826 "/>
<polyline clip-path="url(#clip252)" style="stroke:#000000; stroke-linecap:round; stroke-linejoin:round; stroke-width:2; stroke-opacity:0.1; fill:none" points="1026.28,1081.83 1026.28,-281.826 "/>
<polyline clip-path="url(#clip252)" style="stroke:#000000; stroke-linecap:round; stroke-linejoin:round; stroke-width:2; stroke-opacity:0.1; fill:none" points="1689.52,1081.83 1689.52,-281.826 "/>
<polyline clip-path="url(#clip252)" style="stroke:#000000; stroke-linecap:round; stroke-linejoin:round; stroke-width:2; stroke-opacity:0.1; fill:none" points="2352.76,1081.83 2352.76,-281.826 "/>
<polyline clip-path="url(#clip252)" style="stroke:#000000; stroke-linecap:round; stroke-linejoin:round; stroke-width:2; stroke-opacity:0.1; fill:none" points="363.048,1081.83 2352.76,1081.83 "/>
<polyline clip-path="url(#clip252)" style="stroke:#000000; stroke-linecap:round; stroke-linejoin:round; stroke-width:2; stroke-opacity:0.1; fill:none" points="363.048,400 2352.76,400 "/>
<polyline clip-path="url(#clip252)" style="stroke:#000000; stroke-linecap:round; stroke-linejoin:round; stroke-width:2; stroke-opacity:0.1; fill:none" points="363.048,400 2352.76,400 "/>
<polyline clip-path="url(#clip252)" style="stroke:#000000; stroke-linecap:round; stroke-linejoin:round; stroke-width:2; stroke-opacity:0.1; fill:none" points="363.048,-281.826 2352.76,-281.826 "/>
<polyline clip-path="url(#clip250)" style="stroke:#000000; stroke-linecap:round; stroke-linejoin:round; stroke-width:4; stroke-opacity:1; fill:none" points="363.048,1081.83 2352.76,1081.83 "/>
<polyline clip-path="url(#clip250)" style="stroke:#000000; stroke-linecap:round; stroke-linejoin:round; stroke-width:4; stroke-opacity:1; fill:none" points="363.048,1081.83 363.048,1081.83 "/>
<polyline clip-path="url(#clip250)" style="stroke:#000000; stroke-linecap:round; stroke-linejoin:round; stroke-width:4; stroke-opacity:1; fill:none" points="1026.28,1081.83 1026.28,1081.83 "/>
<polyline clip-path="url(#clip250)" style="stroke:#000000; stroke-linecap:round; stroke-linejoin:round; stroke-width:4; stroke-opacity:1; fill:none" points="1689.52,1081.83 1689.52,1081.83 "/>
<polyline clip-path="url(#clip250)" style="stroke:#000000; stroke-linecap:round; stroke-linejoin:round; stroke-width:4; stroke-opacity:1; fill:none" points="2352.76,1081.83 2352.76,1081.83 "/>
<path clip-path="url(#clip250)" d="M363.048 1112.74 Q359.437 1112.74 357.608 1116.31 Q355.803 1119.85 355.803 1126.98 Q355.803 1134.09 357.608 1137.65 Q359.437 1141.19 363.048 1141.19 Q366.682 1141.19 368.488 1137.65 Q370.317 1134.09 370.317 1126.98 Q370.317 1119.85 368.488 1116.31 Q366.682 1112.74 363.048 1112.74 M363.048 1109.04 Q368.858 1109.04 371.914 1113.65 Q374.993 1118.23 374.993 1126.98 Q374.993 1135.71 371.914 1140.31 Q368.858 1144.9 363.048 1144.9 Q357.238 1144.9 354.159 1140.31 Q351.104 1135.71 351.104 1126.98 Q351.104 1118.23 354.159 1113.65 Q357.238 1109.04 363.048 1109.04 Z" fill="#000000" fill-rule="nonzero" fill-opacity="1" /><path clip-path="url(#clip250)" d="M792.431 1155.95 L808.751 1155.95 L808.751 1159.89 L786.806 1159.89 L786.806 1155.95 Q789.468 1153.2 794.052 1148.57 Q798.658 1143.91 799.839 1142.57 Q802.084 1140.05 802.964 1138.31 Q803.866 1136.55 803.866 1134.86 Q803.866 1132.11 801.922 1130.37 Q800.001 1128.64 796.899 1128.64 Q794.7 1128.64 792.246 1129.4 Q789.815 1130.16 787.038 1131.72 L787.038 1126.99 Q789.862 1125.86 792.315 1125.28 Q794.769 1124.7 796.806 1124.7 Q802.177 1124.7 805.371 1127.39 Q808.565 1130.07 808.565 1134.56 Q808.565 1136.69 807.755 1138.61 Q806.968 1140.51 804.862 1143.1 Q804.283 1143.78 801.181 1146.99 Q798.079 1150.19 792.431 1155.95 Z" fill="#000000" fill-rule="nonzero" fill-opacity="1" /><path clip-path="url(#clip250)" d="M818.565 1154.01 L823.45 1154.01 L823.45 1159.89 L818.565 1159.89 L818.565 1154.01 Z" fill="#000000" fill-rule="nonzero" fill-opacity="1" /><path clip-path="url(#clip250)" d="M832.454 1125.33 L854.676 1125.33 L854.676 1127.32 L842.13 1159.89 L837.246 1159.89 L849.051 1129.26 L832.454 1129.26 L832.454 1125.33 Z" fill="#000000" fill-rule="nonzero" fill-opacity="1" /><path clip-path="url(#clip250)" d="M864.607 1155.95 L872.246 1155.95 L872.246 1129.59 L863.935 1131.25 L863.935 1126.99 L872.199 1125.33 L876.875 1125.33 L876.875 1155.95 L884.514 1155.95 L884.514 1159.89 L864.607 1159.89 L864.607 1155.95 Z" fill="#000000" fill-rule="nonzero" fill-opacity="1" /><path clip-path="url(#clip250)" d="M908.125 1141.25 Q911.481 1141.97 913.356 1144.24 Q915.255 1146.51 915.255 1149.84 Q915.255 1154.96 911.736 1157.76 Q908.218 1160.56 901.736 1160.56 Q899.56 1160.56 897.245 1160.12 Q894.954 1159.7 892.5 1158.84 L892.5 1154.33 Q894.445 1155.47 896.759 1156.04 Q899.074 1156.62 901.597 1156.62 Q905.995 1156.62 908.287 1154.89 Q910.602 1153.15 910.602 1149.84 Q910.602 1146.78 908.449 1145.07 Q906.319 1143.34 902.5 1143.34 L898.472 1143.34 L898.472 1139.49 L902.685 1139.49 Q906.134 1139.49 907.963 1138.13 Q909.792 1136.74 909.792 1134.15 Q909.792 1131.48 907.894 1130.07 Q906.019 1128.64 902.5 1128.64 Q900.579 1128.64 898.38 1129.05 Q896.181 1129.47 893.542 1130.35 L893.542 1126.18 Q896.204 1125.44 898.519 1125.07 Q900.857 1124.7 902.917 1124.7 Q908.241 1124.7 911.343 1127.13 Q914.444 1129.54 914.444 1133.66 Q914.444 1136.53 912.801 1138.52 Q911.157 1140.49 908.125 1141.25 Z" fill="#000000" fill-rule="nonzero" fill-opacity="1" /><path clip-path="url(#clip250)" d="M934.12 1143.47 Q930.787 1143.47 928.866 1145.26 Q926.968 1147.04 926.968 1150.16 Q926.968 1153.29 928.866 1155.07 Q930.787 1156.85 934.12 1156.85 Q937.454 1156.85 939.375 1155.07 Q941.296 1153.27 941.296 1150.16 Q941.296 1147.04 939.375 1145.26 Q937.477 1143.47 934.12 1143.47 M929.444 1141.48 Q926.435 1140.74 924.745 1138.68 Q923.079 1136.62 923.079 1133.66 Q923.079 1129.52 926.018 1127.11 Q928.981 1124.7 934.12 1124.7 Q939.282 1124.7 942.222 1127.11 Q945.162 1129.52 945.162 1133.66 Q945.162 1136.62 943.472 1138.68 Q941.805 1140.74 938.819 1141.48 Q942.199 1142.27 944.074 1144.56 Q945.972 1146.85 945.972 1150.16 Q945.972 1155.19 942.893 1157.87 Q939.838 1160.56 934.12 1160.56 Q928.403 1160.56 925.324 1157.87 Q922.268 1155.19 922.268 1150.16 Q922.268 1146.85 924.167 1144.56 Q926.065 1142.27 929.444 1141.48 M927.731 1134.1 Q927.731 1136.78 929.398 1138.29 Q931.088 1139.79 934.12 1139.79 Q937.13 1139.79 938.819 1138.29 Q940.532 1136.78 940.532 1134.1 Q940.532 1131.41 938.819 1129.91 Q937.13 1128.4 934.12 1128.4 Q931.088 1128.4 929.398 1129.91 Q927.731 1131.41 927.731 1134.1 Z" fill="#000000" fill-rule="nonzero" fill-opacity="1" /><path clip-path="url(#clip250)" d="M953.102 1125.33 L975.324 1125.33 L975.324 1127.32 L962.778 1159.89 L957.893 1159.89 L969.699 1129.26 L953.102 1129.26 L953.102 1125.33 Z" fill="#000000" fill-rule="nonzero" fill-opacity="1" /><path clip-path="url(#clip250)" d="M984.49 1125.33 L1002.85 1125.33 L1002.85 1129.26 L988.773 1129.26 L988.773 1137.73 Q989.791 1137.39 990.81 1137.22 Q991.828 1137.04 992.847 1137.04 Q998.634 1137.04 1002.01 1140.21 Q1005.39 1143.38 1005.39 1148.8 Q1005.39 1154.38 1001.92 1157.48 Q998.449 1160.56 992.129 1160.56 Q989.953 1160.56 987.685 1160.19 Q985.439 1159.82 983.032 1159.08 L983.032 1154.38 Q985.115 1155.51 987.338 1156.07 Q989.56 1156.62 992.037 1156.62 Q996.041 1156.62 998.379 1154.52 Q1000.72 1152.41 1000.72 1148.8 Q1000.72 1145.19 998.379 1143.08 Q996.041 1140.97 992.037 1140.97 Q990.162 1140.97 988.287 1141.39 Q986.435 1141.81 984.49 1142.69 L984.49 1125.33 Z" fill="#000000" fill-rule="nonzero" fill-opacity="1" /><path clip-path="url(#clip250)" d="M1018.63 1155.95 L1034.95 1155.95 L1034.95 1159.89 L1013.01 1159.89 L1013.01 1155.95 Q1015.67 1153.2 1020.25 1148.57 Q1024.86 1143.91 1026.04 1142.57 Q1028.29 1140.05 1029.17 1138.31 Q1030.07 1136.55 1030.07 1134.86 Q1030.07 1132.11 1028.12 1130.37 Q1026.2 1128.64 1023.1 1128.64 Q1020.9 1128.64 1018.45 1129.4 Q1016.02 1130.16 1013.24 1131.72 L1013.24 1126.99 Q1016.06 1125.86 1018.52 1125.28 Q1020.97 1124.7 1023.01 1124.7 Q1028.38 1124.7 1031.57 1127.39 Q1034.77 1130.07 1034.77 1134.56 Q1034.77 1136.69 1033.96 1138.61 Q1033.17 1140.51 1031.06 1143.1 Q1030.49 1143.78 1027.38 1146.99 Q1024.28 1150.19 1018.63 1155.95 Z" fill="#000000" fill-rule="nonzero" fill-opacity="1" /><path clip-path="url(#clip250)" d="M1044.81 1125.33 L1063.17 1125.33 L1063.17 1129.26 L1049.1 1129.26 L1049.1 1137.73 Q1050.12 1137.39 1051.13 1137.22 Q1052.15 1137.04 1053.17 1137.04 Q1058.96 1137.04 1062.34 1140.21 Q1065.72 1143.38 1065.72 1148.8 Q1065.72 1154.38 1062.24 1157.48 Q1058.77 1160.56 1052.45 1160.56 Q1050.28 1160.56 1048.01 1160.19 Q1045.76 1159.82 1043.36 1159.08 L1043.36 1154.38 Q1045.44 1155.51 1047.66 1156.07 Q1049.88 1156.62 1052.36 1156.62 Q1056.36 1156.62 1058.7 1154.52 Q1061.04 1152.41 1061.04 1148.8 Q1061.04 1145.19 1058.7 1143.08 Q1056.36 1140.97 1052.36 1140.97 Q1050.49 1140.97 1048.61 1141.39 Q1046.76 1141.81 1044.81 1142.69 L1044.81 1125.33 Z" fill="#000000" fill-rule="nonzero" fill-opacity="1" /><path clip-path="url(#clip250)" d="M1103.1 1134.42 L1092.52 1145.05 L1103.1 1155.63 L1100.35 1158.43 L1089.72 1147.8 L1079.1 1158.43 L1076.36 1155.63 L1086.92 1145.05 L1076.36 1134.42 L1079.1 1131.62 L1089.72 1142.25 L1100.35 1131.62 L1103.1 1134.42 Z" fill="#000000" fill-rule="nonzero" fill-opacity="1" /><path clip-path="url(#clip250)" d="M1115.46 1155.95 L1123.1 1155.95 L1123.1 1129.59 L1114.79 1131.25 L1114.79 1126.99 L1123.05 1125.33 L1127.73 1125.33 L1127.73 1155.95 L1135.37 1155.95 L1135.37 1159.89 L1115.46 1159.89 L1115.46 1155.95 Z" fill="#000000" fill-rule="nonzero" fill-opacity="1" /><path clip-path="url(#clip250)" d="M1154.81 1128.4 Q1151.2 1128.4 1149.37 1131.97 Q1147.57 1135.51 1147.57 1142.64 Q1147.57 1149.75 1149.37 1153.31 Q1151.2 1156.85 1154.81 1156.85 Q1158.45 1156.85 1160.25 1153.31 Q1162.08 1149.75 1162.08 1142.64 Q1162.08 1135.51 1160.25 1131.97 Q1158.45 1128.4 1154.81 1128.4 M1154.81 1124.7 Q1160.62 1124.7 1163.68 1129.31 Q1166.76 1133.89 1166.76 1142.64 Q1166.76 1151.37 1163.68 1155.97 Q1160.62 1160.56 1154.81 1160.56 Q1149 1160.56 1145.92 1155.97 Q1142.87 1151.37 1142.87 1142.64 Q1142.87 1133.89 1145.92 1129.31 Q1149 1124.7 1154.81 1124.7 Z" fill="#000000" fill-rule="nonzero" fill-opacity="1" /><path clip-path="url(#clip250)" d="M1166.76 1118.8 L1190.87 1118.8 L1190.87 1122 L1166.76 1122 L1166.76 1118.8 Z" fill="#000000" fill-rule="nonzero" fill-opacity="1" /><path clip-path="url(#clip250)" d="M1199.73 1129.28 L1205.93 1129.28 L1205.93 1107.86 L1199.18 1109.21 L1199.18 1105.75 L1205.9 1104.4 L1209.7 1104.4 L1209.7 1129.28 L1215.9 1129.28 L1215.9 1132.48 L1199.73 1132.48 L1199.73 1129.28 Z" fill="#000000" fill-rule="nonzero" fill-opacity="1" /><path clip-path="url(#clip250)" d="M1234.01 1107.71 L1224.42 1122.7 L1234.01 1122.7 L1234.01 1107.71 M1233.02 1104.4 L1237.79 1104.4 L1237.79 1122.7 L1241.8 1122.7 L1241.8 1125.86 L1237.79 1125.86 L1237.79 1132.48 L1234.01 1132.48 L1234.01 1125.86 L1221.34 1125.86 L1221.34 1122.19 L1233.02 1104.4 Z" fill="#000000" fill-rule="nonzero" fill-opacity="1" /><path clip-path="url(#clip250)" d="M1248.2 1131.89 L1248.2 1128.43 Q1249.62 1129.11 1251.09 1129.47 Q1252.56 1129.82 1253.97 1129.82 Q1257.73 1129.82 1259.71 1127.3 Q1261.7 1124.76 1261.98 1119.61 Q1260.89 1121.23 1259.22 1122.09 Q1257.54 1122.96 1255.51 1122.96 Q1251.3 1122.96 1248.84 1120.42 Q1246.39 1117.86 1246.39 1113.44 Q1246.39 1109.12 1248.95 1106.5 Q1251.51 1103.89 1255.76 1103.89 Q1260.63 1103.89 1263.19 1107.63 Q1265.76 1111.35 1265.76 1118.46 Q1265.76 1125.1 1262.6 1129.07 Q1259.46 1133.02 1254.14 1133.02 Q1252.71 1133.02 1251.24 1132.74 Q1249.78 1132.46 1248.2 1131.89 M1255.76 1119.99 Q1258.31 1119.99 1259.8 1118.24 Q1261.3 1116.49 1261.3 1113.44 Q1261.3 1110.41 1259.8 1108.67 Q1258.31 1106.9 1255.76 1106.9 Q1253.2 1106.9 1251.69 1108.67 Q1250.21 1110.41 1250.21 1113.44 Q1250.21 1116.49 1251.69 1118.24 Q1253.2 1119.99 1255.76 1119.99 Z" fill="#000000" fill-rule="nonzero" fill-opacity="1" /><path clip-path="url(#clip250)" d="M1451.59 1125.33 L1469.95 1125.33 L1469.95 1129.26 L1455.88 1129.26 L1455.88 1137.73 Q1456.89 1137.39 1457.91 1137.22 Q1458.93 1137.04 1459.95 1137.04 Q1465.74 1137.04 1469.12 1140.21 Q1472.5 1143.38 1472.5 1148.8 Q1472.5 1154.38 1469.02 1157.48 Q1465.55 1160.56 1459.23 1160.56 Q1457.06 1160.56 1454.79 1160.19 Q1452.54 1159.82 1450.13 1159.08 L1450.13 1154.38 Q1452.22 1155.51 1454.44 1156.07 Q1456.66 1156.62 1459.14 1156.62 Q1463.14 1156.62 1465.48 1154.52 Q1467.82 1152.41 1467.82 1148.8 Q1467.82 1145.19 1465.48 1143.08 Q1463.14 1140.97 1459.14 1140.97 Q1457.26 1140.97 1455.39 1141.39 Q1453.54 1141.81 1451.59 1142.69 L1451.59 1125.33 Z" fill="#000000" fill-rule="nonzero" fill-opacity="1" /><path clip-path="url(#clip250)" d="M1481.71 1154.01 L1486.59 1154.01 L1486.59 1159.89 L1481.71 1159.89 L1481.71 1154.01 Z" fill="#000000" fill-rule="nonzero" fill-opacity="1" /><path clip-path="url(#clip250)" d="M1509.63 1129.4 L1497.82 1147.85 L1509.63 1147.85 L1509.63 1129.4 M1508.4 1125.33 L1514.28 1125.33 L1514.28 1147.85 L1519.21 1147.85 L1519.21 1151.74 L1514.28 1151.74 L1514.28 1159.89 L1509.63 1159.89 L1509.63 1151.74 L1494.02 1151.74 L1494.02 1147.22 L1508.4 1125.33 Z" fill="#000000" fill-rule="nonzero" fill-opacity="1" /><path clip-path="url(#clip250)" d="M1530.97 1155.95 L1547.29 1155.95 L1547.29 1159.89 L1525.34 1159.89 L1525.34 1155.95 Q1528 1153.2 1532.59 1148.57 Q1537.19 1143.91 1538.37 1142.57 Q1540.62 1140.05 1541.5 1138.31 Q1542.4 1136.55 1542.4 1134.86 Q1542.4 1132.11 1540.46 1130.37 Q1538.54 1128.64 1535.44 1128.64 Q1533.24 1128.64 1530.78 1129.4 Q1528.35 1130.16 1525.57 1131.72 L1525.57 1126.99 Q1528.4 1125.86 1530.85 1125.28 Q1533.31 1124.7 1535.34 1124.7 Q1540.71 1124.7 1543.91 1127.39 Q1547.1 1130.07 1547.1 1134.56 Q1547.1 1136.69 1546.29 1138.61 Q1545.5 1140.51 1543.4 1143.1 Q1542.82 1143.78 1539.72 1146.99 Q1536.62 1150.19 1530.97 1155.95 Z" fill="#000000" fill-rule="nonzero" fill-opacity="1" /><path clip-path="url(#clip250)" d="M1555.92 1125.33 L1578.14 1125.33 L1578.14 1127.32 L1565.6 1159.89 L1560.71 1159.89 L1572.52 1129.26 L1555.92 1129.26 L1555.92 1125.33 Z" fill="#000000" fill-rule="nonzero" fill-opacity="1" /><path clip-path="url(#clip250)" d="M1586.08 1125.33 L1608.31 1125.33 L1608.31 1127.32 L1595.76 1159.89 L1590.87 1159.89 L1602.68 1129.26 L1586.08 1129.26 L1586.08 1125.33 Z" fill="#000000" fill-rule="nonzero" fill-opacity="1" /><path clip-path="url(#clip250)" d="M1617.47 1125.33 L1635.83 1125.33 L1635.83 1129.26 L1621.75 1129.26 L1621.75 1137.73 Q1622.77 1137.39 1623.79 1137.22 Q1624.81 1137.04 1625.83 1137.04 Q1631.62 1137.04 1634.99 1140.21 Q1638.37 1143.38 1638.37 1148.8 Q1638.37 1154.38 1634.9 1157.48 Q1631.43 1160.56 1625.11 1160.56 Q1622.93 1160.56 1620.67 1160.19 Q1618.42 1159.82 1616.01 1159.08 L1616.01 1154.38 Q1618.1 1155.51 1620.32 1156.07 Q1622.54 1156.62 1625.02 1156.62 Q1629.02 1156.62 1631.36 1154.52 Q1633.7 1152.41 1633.7 1148.8 Q1633.7 1145.19 1631.36 1143.08 Q1629.02 1140.97 1625.02 1140.97 Q1623.14 1140.97 1621.27 1141.39 Q1619.42 1141.81 1617.47 1142.69 L1617.47 1125.33 Z" fill="#000000" fill-rule="nonzero" fill-opacity="1" /><path clip-path="url(#clip250)" d="M1657.59 1128.4 Q1653.98 1128.4 1652.15 1131.97 Q1650.34 1135.51 1650.34 1142.64 Q1650.34 1149.75 1652.15 1153.31 Q1653.98 1156.85 1657.59 1156.85 Q1661.22 1156.85 1663.03 1153.31 Q1664.86 1149.75 1664.86 1142.64 Q1664.86 1135.51 1663.03 1131.97 Q1661.22 1128.4 1657.59 1128.4 M1657.59 1124.7 Q1663.4 1124.7 1666.45 1129.31 Q1669.53 1133.89 1669.53 1142.64 Q1669.53 1151.37 1666.45 1155.97 Q1663.4 1160.56 1657.59 1160.56 Q1651.78 1160.56 1648.7 1155.97 Q1645.64 1151.37 1645.64 1142.64 Q1645.64 1133.89 1648.7 1129.31 Q1651.78 1124.7 1657.59 1124.7 Z" fill="#000000" fill-rule="nonzero" fill-opacity="1" /><path clip-path="url(#clip250)" d="M1677.8 1125.33 L1696.15 1125.33 L1696.15 1129.26 L1682.08 1129.26 L1682.08 1137.73 Q1683.1 1137.39 1684.11 1137.22 Q1685.13 1137.04 1686.15 1137.04 Q1691.94 1137.04 1695.32 1140.21 Q1698.7 1143.38 1698.7 1148.8 Q1698.7 1154.38 1695.23 1157.48 Q1691.75 1160.56 1685.43 1160.56 Q1683.26 1160.56 1680.99 1160.19 Q1678.74 1159.82 1676.34 1159.08 L1676.34 1154.38 Q1678.42 1155.51 1680.64 1156.07 Q1682.86 1156.62 1685.34 1156.62 Q1689.35 1156.62 1691.68 1154.52 Q1694.02 1152.41 1694.02 1148.8 Q1694.02 1145.19 1691.68 1143.08 Q1689.35 1140.97 1685.34 1140.97 Q1683.47 1140.97 1681.59 1141.39 Q1679.74 1141.81 1677.8 1142.69 L1677.8 1125.33 Z" fill="#000000" fill-rule="nonzero" fill-opacity="1" /><path clip-path="url(#clip250)" d="M1717.91 1128.4 Q1714.3 1128.4 1712.47 1131.97 Q1710.67 1135.51 1710.67 1142.64 Q1710.67 1149.75 1712.47 1153.31 Q1714.3 1156.85 1717.91 1156.85 Q1721.55 1156.85 1723.35 1153.31 Q1725.18 1149.75 1725.18 1142.64 Q1725.18 1135.51 1723.35 1131.97 Q1721.55 1128.4 1717.91 1128.4 M1717.91 1124.7 Q1723.72 1124.7 1726.78 1129.31 Q1729.86 1133.89 1729.86 1142.64 Q1729.86 1151.37 1726.78 1155.97 Q1723.72 1160.56 1717.91 1160.56 Q1712.1 1160.56 1709.02 1155.97 Q1705.97 1151.37 1705.97 1142.64 Q1705.97 1133.89 1709.02 1129.31 Q1712.1 1124.7 1717.91 1124.7 Z" fill="#000000" fill-rule="nonzero" fill-opacity="1" /><path clip-path="url(#clip250)" d="M1766.24 1134.42 L1755.67 1145.05 L1766.24 1155.63 L1763.49 1158.43 L1752.86 1147.8 L1742.24 1158.43 L1739.51 1155.63 L1750.06 1145.05 L1739.51 1134.42 L1742.24 1131.62 L1752.86 1142.25 L1763.49 1131.62 L1766.24 1134.42 Z" fill="#000000" fill-rule="nonzero" fill-opacity="1" /><path clip-path="url(#clip250)" d="M1778.61 1155.95 L1786.24 1155.95 L1786.24 1129.59 L1777.93 1131.25 L1777.93 1126.99 L1786.2 1125.33 L1790.87 1125.33 L1790.87 1155.95 L1798.51 1155.95 L1798.51 1159.89 L1778.61 1159.89 L1778.61 1155.95 Z" fill="#000000" fill-rule="nonzero" fill-opacity="1" /><path clip-path="url(#clip250)" d="M1817.96 1128.4 Q1814.35 1128.4 1812.52 1131.97 Q1810.71 1135.51 1810.71 1142.64 Q1810.71 1149.75 1812.52 1153.31 Q1814.35 1156.85 1817.96 1156.85 Q1821.59 1156.85 1823.4 1153.31 Q1825.23 1149.75 1825.23 1142.64 Q1825.23 1135.51 1823.4 1131.97 Q1821.59 1128.4 1817.96 1128.4 M1817.96 1124.7 Q1823.77 1124.7 1826.82 1129.31 Q1829.9 1133.89 1829.9 1142.64 Q1829.9 1151.37 1826.82 1155.97 Q1823.77 1160.56 1817.96 1160.56 Q1812.15 1160.56 1809.07 1155.97 Q1806.01 1151.37 1806.01 1142.64 Q1806.01 1133.89 1809.07 1129.31 Q1812.15 1124.7 1817.96 1124.7 Z" fill="#000000" fill-rule="nonzero" fill-opacity="1" /><path clip-path="url(#clip250)" d="M1829.9 1118.8 L1854.01 1118.8 L1854.01 1122 L1829.9 1122 L1829.9 1118.8 Z" fill="#000000" fill-rule="nonzero" fill-opacity="1" /><path clip-path="url(#clip250)" d="M1862.87 1129.28 L1869.08 1129.28 L1869.08 1107.86 L1862.33 1109.21 L1862.33 1105.75 L1869.04 1104.4 L1872.84 1104.4 L1872.84 1129.28 L1879.05 1129.28 L1879.05 1132.48 L1862.87 1132.48 L1862.87 1129.28 Z" fill="#000000" fill-rule="nonzero" fill-opacity="1" /><path clip-path="url(#clip250)" d="M1897.16 1107.71 L1887.57 1122.7 L1897.16 1122.7 L1897.16 1107.71 M1896.16 1104.4 L1900.94 1104.4 L1900.94 1122.7 L1904.94 1122.7 L1904.94 1125.86 L1900.94 1125.86 L1900.94 1132.48 L1897.16 1132.48 L1897.16 1125.86 L1884.48 1125.86 L1884.48 1122.19 L1896.16 1104.4 Z" fill="#000000" fill-rule="nonzero" fill-opacity="1" /><path clip-path="url(#clip250)" d="M1911.34 1131.89 L1911.34 1128.43 Q1912.77 1129.11 1914.24 1129.47 Q1915.7 1129.82 1917.11 1129.82 Q1920.87 1129.82 1922.85 1127.3 Q1924.84 1124.76 1925.12 1119.61 Q1924.03 1121.23 1922.36 1122.09 Q1920.69 1122.96 1918.66 1122.96 Q1914.44 1122.96 1911.98 1120.42 Q1909.53 1117.86 1909.53 1113.44 Q1909.53 1109.12 1912.09 1106.5 Q1914.65 1103.89 1918.9 1103.89 Q1923.77 1103.89 1926.33 1107.63 Q1928.91 1111.35 1928.91 1118.46 Q1928.91 1125.1 1925.75 1129.07 Q1922.6 1133.02 1917.28 1133.02 Q1915.85 1133.02 1914.39 1132.74 Q1912.92 1132.46 1911.34 1131.89 M1918.9 1119.99 Q1921.46 1119.99 1922.94 1118.24 Q1924.45 1116.49 1924.45 1113.44 Q1924.45 1110.41 1922.94 1108.67 Q1921.46 1106.9 1918.9 1106.9 Q1916.34 1106.9 1914.84 1108.67 Q1913.35 1110.41 1913.35 1113.44 Q1913.35 1116.49 1914.84 1118.24 Q1916.34 1119.99 1918.9 1119.99 Z" fill="#000000" fill-rule="nonzero" fill-opacity="1" /><path clip-path="url(#clip250)" d="M2125 1143.47 Q2121.67 1143.47 2119.75 1145.26 Q2117.85 1147.04 2117.85 1150.16 Q2117.85 1153.29 2119.75 1155.07 Q2121.67 1156.85 2125 1156.85 Q2128.34 1156.85 2130.26 1155.07 Q2132.18 1153.27 2132.18 1150.16 Q2132.18 1147.04 2130.26 1145.26 Q2128.36 1143.47 2125 1143.47 M2120.33 1141.48 Q2117.32 1140.74 2115.63 1138.68 Q2113.96 1136.62 2113.96 1133.66 Q2113.96 1129.52 2116.9 1127.11 Q2119.86 1124.7 2125 1124.7 Q2130.16 1124.7 2133.1 1127.11 Q2136.04 1129.52 2136.04 1133.66 Q2136.04 1136.62 2134.35 1138.68 Q2132.69 1140.74 2129.7 1141.48 Q2133.08 1142.27 2134.96 1144.56 Q2136.85 1146.85 2136.85 1150.16 Q2136.85 1155.19 2133.78 1157.87 Q2130.72 1160.56 2125 1160.56 Q2119.28 1160.56 2116.21 1157.87 Q2113.15 1155.19 2113.15 1150.16 Q2113.15 1146.85 2115.05 1144.56 Q2116.95 1142.27 2120.33 1141.48 M2118.61 1134.1 Q2118.61 1136.78 2120.28 1138.29 Q2121.97 1139.79 2125 1139.79 Q2128.01 1139.79 2129.7 1138.29 Q2131.41 1136.78 2131.41 1134.1 Q2131.41 1131.41 2129.7 1129.91 Q2128.01 1128.4 2125 1128.4 Q2121.97 1128.4 2120.28 1129.91 Q2118.61 1131.41 2118.61 1134.1 Z" fill="#000000" fill-rule="nonzero" fill-opacity="1" /><path clip-path="url(#clip250)" d="M2145.16 1154.01 L2150.05 1154.01 L2150.05 1159.89 L2145.16 1159.89 L2145.16 1154.01 Z" fill="#000000" fill-rule="nonzero" fill-opacity="1" /><path clip-path="url(#clip250)" d="M2161.04 1155.95 L2168.68 1155.95 L2168.68 1129.59 L2160.37 1131.25 L2160.37 1126.99 L2168.64 1125.33 L2173.31 1125.33 L2173.31 1155.95 L2180.95 1155.95 L2180.95 1159.89 L2161.04 1159.89 L2161.04 1155.95 Z" fill="#000000" fill-rule="nonzero" fill-opacity="1" /><path clip-path="url(#clip250)" d="M2203.24 1129.4 L2191.44 1147.85 L2203.24 1147.85 L2203.24 1129.4 M2202.02 1125.33 L2207.9 1125.33 L2207.9 1147.85 L2212.83 1147.85 L2212.83 1151.74 L2207.9 1151.74 L2207.9 1159.89 L2203.24 1159.89 L2203.24 1151.74 L2187.64 1151.74 L2187.64 1147.22 L2202.02 1125.33 Z" fill="#000000" fill-rule="nonzero" fill-opacity="1" /><path clip-path="url(#clip250)" d="M2221.37 1155.95 L2229.01 1155.95 L2229.01 1129.59 L2220.7 1131.25 L2220.7 1126.99 L2228.96 1125.33 L2233.64 1125.33 L2233.64 1155.95 L2241.28 1155.95 L2241.28 1159.89 L2221.37 1159.89 L2221.37 1155.95 Z" fill="#000000" fill-rule="nonzero" fill-opacity="1" /><path clip-path="url(#clip250)" d="M2261.3 1140.74 Q2258.15 1140.74 2256.3 1142.9 Q2254.47 1145.05 2254.47 1148.8 Q2254.47 1152.53 2256.3 1154.7 Q2258.15 1156.85 2261.3 1156.85 Q2264.45 1156.85 2266.27 1154.7 Q2268.13 1152.53 2268.13 1148.8 Q2268.13 1145.05 2266.27 1142.9 Q2264.45 1140.74 2261.3 1140.74 M2270.58 1126.09 L2270.58 1130.35 Q2268.82 1129.52 2267.02 1129.08 Q2265.23 1128.64 2263.47 1128.64 Q2258.84 1128.64 2256.39 1131.76 Q2253.96 1134.89 2253.61 1141.21 Q2254.98 1139.19 2257.04 1138.13 Q2259.1 1137.04 2261.58 1137.04 Q2266.78 1137.04 2269.79 1140.21 Q2272.83 1143.36 2272.83 1148.8 Q2272.83 1154.12 2269.68 1157.34 Q2266.53 1160.56 2261.3 1160.56 Q2255.3 1160.56 2252.13 1155.97 Q2248.96 1151.37 2248.96 1142.64 Q2248.96 1134.45 2252.85 1129.59 Q2256.74 1124.7 2263.29 1124.7 Q2265.05 1124.7 2266.83 1125.05 Q2268.64 1125.4 2270.58 1126.09 Z" fill="#000000" fill-rule="nonzero" fill-opacity="1" /><path clip-path="url(#clip250)" d="M2284.91 1155.95 L2301.23 1155.95 L2301.23 1159.89 L2279.28 1159.89 L2279.28 1155.95 Q2281.95 1153.2 2286.53 1148.57 Q2291.14 1143.91 2292.32 1142.57 Q2294.56 1140.05 2295.44 1138.31 Q2296.34 1136.55 2296.34 1134.86 Q2296.34 1132.11 2294.4 1130.37 Q2292.48 1128.64 2289.38 1128.64 Q2287.18 1128.64 2284.72 1129.4 Q2282.29 1130.16 2279.52 1131.72 L2279.52 1126.99 Q2282.34 1125.86 2284.79 1125.28 Q2287.25 1124.7 2289.28 1124.7 Q2294.65 1124.7 2297.85 1127.39 Q2301.04 1130.07 2301.04 1134.56 Q2301.04 1136.69 2300.23 1138.61 Q2299.45 1140.51 2297.34 1143.1 Q2296.76 1143.78 2293.66 1146.99 Q2290.56 1150.19 2284.91 1155.95 Z" fill="#000000" fill-rule="nonzero" fill-opacity="1" /><path clip-path="url(#clip250)" d="M2311.09 1125.33 L2329.45 1125.33 L2329.45 1129.26 L2315.37 1129.26 L2315.37 1137.73 Q2316.39 1137.39 2317.41 1137.22 Q2318.43 1137.04 2319.45 1137.04 Q2325.23 1137.04 2328.61 1140.21 Q2331.99 1143.38 2331.99 1148.8 Q2331.99 1154.38 2328.52 1157.48 Q2325.05 1160.56 2318.73 1160.56 Q2316.55 1160.56 2314.28 1160.19 Q2312.04 1159.82 2309.63 1159.08 L2309.63 1154.38 Q2311.71 1155.51 2313.94 1156.07 Q2316.16 1156.62 2318.64 1156.62 Q2322.64 1156.62 2324.98 1154.52 Q2327.32 1152.41 2327.32 1148.8 Q2327.32 1145.19 2324.98 1143.08 Q2322.64 1140.97 2318.64 1140.97 Q2316.76 1140.97 2314.89 1141.39 Q2313.03 1141.81 2311.09 1142.69 L2311.09 1125.33 Z" fill="#000000" fill-rule="nonzero" fill-opacity="1" /><path clip-path="url(#clip250)" d="M2340.02 1125.33 L2362.25 1125.33 L2362.25 1127.32 L2349.7 1159.89 L2344.82 1159.89 L2356.62 1129.26 L2340.02 1129.26 L2340.02 1125.33 Z" fill="#000000" fill-rule="nonzero" fill-opacity="1" /><path clip-path="url(#clip250)" d="M2371.41 1125.33 L2389.77 1125.33 L2389.77 1129.26 L2375.7 1129.26 L2375.7 1137.73 Q2376.71 1137.39 2377.73 1137.22 Q2378.75 1137.04 2379.77 1137.04 Q2385.56 1137.04 2388.94 1140.21 Q2392.32 1143.38 2392.32 1148.8 Q2392.32 1154.38 2388.84 1157.48 Q2385.37 1160.56 2379.05 1160.56 Q2376.88 1160.56 2374.61 1160.19 Q2372.36 1159.82 2369.95 1159.08 L2369.95 1154.38 Q2372.04 1155.51 2374.26 1156.07 Q2376.48 1156.62 2378.96 1156.62 Q2382.96 1156.62 2385.3 1154.52 Q2387.64 1152.41 2387.64 1148.8 Q2387.64 1145.19 2385.3 1143.08 Q2382.96 1140.97 2378.96 1140.97 Q2377.08 1140.97 2375.21 1141.39 Q2373.36 1141.81 2371.41 1142.69 L2371.41 1125.33 Z" fill="#000000" fill-rule="nonzero" fill-opacity="1" /><path clip-path="url(#clip250)" d="M2429.7 1134.42 L2419.12 1145.05 L2429.7 1155.63 L2426.95 1158.43 L2416.32 1147.8 L2405.7 1158.43 L2402.96 1155.63 L2413.52 1145.05 L2402.96 1134.42 L2405.7 1131.62 L2416.32 1142.25 L2426.95 1131.62 L2429.7 1134.42 Z" fill="#000000" fill-rule="nonzero" fill-opacity="1" /><path clip-path="url(#clip250)" d="M2442.06 1155.95 L2449.7 1155.95 L2449.7 1129.59 L2441.39 1131.25 L2441.39 1126.99 L2449.65 1125.33 L2454.33 1125.33 L2454.33 1155.95 L2461.97 1155.95 L2461.97 1159.89 L2442.06 1159.89 L2442.06 1155.95 Z" fill="#000000" fill-rule="nonzero" fill-opacity="1" /><path clip-path="url(#clip250)" d="M2481.41 1128.4 Q2477.8 1128.4 2475.97 1131.97 Q2474.17 1135.51 2474.17 1142.64 Q2474.17 1149.75 2475.97 1153.31 Q2477.8 1156.85 2481.41 1156.85 Q2485.05 1156.85 2486.85 1153.31 Q2488.68 1149.75 2488.68 1142.64 Q2488.68 1135.51 2486.85 1131.97 Q2485.05 1128.4 2481.41 1128.4 M2481.41 1124.7 Q2487.22 1124.7 2490.28 1129.31 Q2493.36 1133.89 2493.36 1142.64 Q2493.36 1151.37 2490.28 1155.97 Q2487.22 1160.56 2481.41 1160.56 Q2475.6 1160.56 2472.52 1155.97 Q2469.47 1151.37 2469.47 1142.64 Q2469.47 1133.89 2472.52 1129.31 Q2475.6 1124.7 2481.41 1124.7 Z" fill="#000000" fill-rule="nonzero" fill-opacity="1" /><path clip-path="url(#clip250)" d="M2493.36 1118.8 L2517.47 1118.8 L2517.47 1122 L2493.36 1122 L2493.36 1118.8 Z" fill="#000000" fill-rule="nonzero" fill-opacity="1" /><path clip-path="url(#clip250)" d="M2526.33 1129.28 L2532.53 1129.28 L2532.53 1107.86 L2525.78 1109.21 L2525.78 1105.75 L2532.5 1104.4 L2536.3 1104.4 L2536.3 1129.28 L2542.5 1129.28 L2542.5 1132.48 L2526.33 1132.48 L2526.33 1129.28 Z" fill="#000000" fill-rule="nonzero" fill-opacity="1" /><path clip-path="url(#clip250)" d="M2560.61 1107.71 L2551.02 1122.7 L2560.61 1122.7 L2560.61 1107.71 M2559.62 1104.4 L2564.39 1104.4 L2564.39 1122.7 L2568.4 1122.7 L2568.4 1125.86 L2564.39 1125.86 L2564.39 1132.48 L2560.61 1132.48 L2560.61 1125.86 L2547.94 1125.86 L2547.94 1122.19 L2559.62 1104.4 Z" fill="#000000" fill-rule="nonzero" fill-opacity="1" /><path clip-path="url(#clip250)" d="M2574.79 1131.89 L2574.79 1128.43 Q2576.22 1129.11 2577.69 1129.47 Q2579.16 1129.82 2580.57 1129.82 Q2584.33 1129.82 2586.31 1127.3 Q2588.3 1124.76 2588.58 1119.61 Q2587.49 1121.23 2585.82 1122.09 Q2584.14 1122.96 2582.11 1122.96 Q2577.9 1122.96 2575.43 1120.42 Q2572.99 1117.86 2572.99 1113.44 Q2572.99 1109.12 2575.55 1106.5 Q2578.1 1103.89 2582.36 1103.89 Q2587.23 1103.89 2589.78 1107.63 Q2592.36 1111.35 2592.36 1118.46 Q2592.36 1125.1 2589.2 1129.07 Q2586.06 1133.02 2580.74 1133.02 Q2579.31 1133.02 2577.84 1132.74 Q2576.37 1132.46 2574.79 1131.89 M2582.36 1119.99 Q2584.91 1119.99 2586.4 1118.24 Q2587.9 1116.49 2587.9 1113.44 Q2587.9 1110.41 2586.4 1108.67 Q2584.91 1106.9 2582.36 1106.9 Q2579.8 1106.9 2578.29 1108.67 Q2576.81 1110.41 2576.81 1113.44 Q2576.81 1116.49 2578.29 1118.24 Q2579.8 1119.99 2582.36 1119.99 Z" fill="#000000" fill-rule="nonzero" fill-opacity="1" /><path clip-path="url(#clip250)" d="M1356.96 1528.42 L1356.96 1538.54 L1369.03 1538.54 L1369.03 1543.09 L1356.96 1543.09 L1356.96 1562.44 Q1356.96 1566.8 1358.14 1568.04 Q1359.35 1569.28 1363.01 1569.28 L1369.03 1569.28 L1369.03 1574.19 L1363.01 1574.19 Q1356.23 1574.19 1353.65 1571.67 Q1351.07 1569.12 1351.07 1562.44 L1351.07 1543.09 L1346.78 1543.09 L1346.78 1538.54 L1351.07 1538.54 L1351.07 1528.42 L1356.96 1528.42 Z" fill="#000000" fill-rule="nonzero" fill-opacity="1" /><polyline clip-path="url(#clip250)" style="stroke:#000000; stroke-linecap:round; stroke-linejoin:round; stroke-width:4; stroke-opacity:1; fill:none" points="363.048,1081.83 363.048,-281.826 "/>
<polyline clip-path="url(#clip250)" style="stroke:#000000; stroke-linecap:round; stroke-linejoin:round; stroke-width:4; stroke-opacity:1; fill:none" points="363.048,1081.83 381.946,1081.83 "/>
<polyline clip-path="url(#clip250)" style="stroke:#000000; stroke-linecap:round; stroke-linejoin:round; stroke-width:4; stroke-opacity:1; fill:none" points="363.048,400 381.946,400 "/>
<polyline clip-path="url(#clip250)" style="stroke:#000000; stroke-linecap:round; stroke-linejoin:round; stroke-width:4; stroke-opacity:1; fill:none" points="363.048,400 381.946,400 "/>
<polyline clip-path="url(#clip250)" style="stroke:#000000; stroke-linecap:round; stroke-linejoin:round; stroke-width:4; stroke-opacity:1; fill:none" points="363.048,-281.826 381.946,-281.826 "/>
<path clip-path="url(#clip250)" d="M51.6634 1101.62 L59.3023 1101.62 L59.3023 1075.25 L50.9921 1076.92 L50.9921 1072.66 L59.256 1070.99 L63.9319 1070.99 L63.9319 1101.62 L71.5707 1101.62 L71.5707 1105.55 L51.6634 1105.55 L51.6634 1101.62 Z" fill="#000000" fill-rule="nonzero" fill-opacity="1" /><path clip-path="url(#clip250)" d="M81.0151 1099.67 L85.8993 1099.67 L85.8993 1105.55 L81.0151 1105.55 L81.0151 1099.67 Z" fill="#000000" fill-rule="nonzero" fill-opacity="1" /><path clip-path="url(#clip250)" d="M106.084 1074.07 Q102.473 1074.07 100.645 1077.64 Q98.8391 1081.18 98.8391 1088.31 Q98.8391 1095.42 100.645 1098.98 Q102.473 1102.52 106.084 1102.52 Q109.719 1102.52 111.524 1098.98 Q113.353 1095.42 113.353 1088.31 Q113.353 1081.18 111.524 1077.64 Q109.719 1074.07 106.084 1074.07 M106.084 1070.37 Q111.895 1070.37 114.95 1074.98 Q118.029 1079.56 118.029 1088.31 Q118.029 1097.04 114.95 1101.64 Q111.895 1106.23 106.084 1106.23 Q100.274 1106.23 97.1956 1101.64 Q94.14 1097.04 94.14 1088.31 Q94.14 1079.56 97.1956 1074.98 Q100.274 1070.37 106.084 1070.37 Z" fill="#000000" fill-rule="nonzero" fill-opacity="1" /><path clip-path="url(#clip250)" d="M136.246 1074.07 Q132.635 1074.07 130.807 1077.64 Q129.001 1081.18 129.001 1088.31 Q129.001 1095.42 130.807 1098.98 Q132.635 1102.52 136.246 1102.52 Q139.881 1102.52 141.686 1098.98 Q143.515 1095.42 143.515 1088.31 Q143.515 1081.18 141.686 1077.64 Q139.881 1074.07 136.246 1074.07 M136.246 1070.37 Q142.056 1070.37 145.112 1074.98 Q148.191 1079.56 148.191 1088.31 Q148.191 1097.04 145.112 1101.64 Q142.056 1106.23 136.246 1106.23 Q130.436 1106.23 127.357 1101.64 Q124.302 1097.04 124.302 1088.31 Q124.302 1079.56 127.357 1074.98 Q130.436 1070.37 136.246 1070.37 Z" fill="#000000" fill-rule="nonzero" fill-opacity="1" /><path clip-path="url(#clip250)" d="M156.455 1070.99 L174.811 1070.99 L174.811 1074.93 L160.737 1074.93 L160.737 1083.4 Q161.755 1083.05 162.774 1082.89 Q163.792 1082.71 164.811 1082.71 Q170.598 1082.71 173.978 1085.88 Q177.357 1089.05 177.357 1094.47 Q177.357 1100.04 173.885 1103.15 Q170.413 1106.23 164.093 1106.23 Q161.917 1106.23 159.649 1105.85 Q157.404 1105.48 154.996 1104.74 L154.996 1100.04 Q157.08 1101.18 159.302 1101.73 Q161.524 1102.29 164.001 1102.29 Q168.005 1102.29 170.343 1100.18 Q172.681 1098.08 172.681 1094.47 Q172.681 1090.85 170.343 1088.75 Q168.005 1086.64 164.001 1086.64 Q162.126 1086.64 160.251 1087.06 Q158.399 1087.48 156.455 1088.35 L156.455 1070.99 Z" fill="#000000" fill-rule="nonzero" fill-opacity="1" /><path clip-path="url(#clip250)" d="M196.57 1074.07 Q192.959 1074.07 191.13 1077.64 Q189.325 1081.18 189.325 1088.31 Q189.325 1095.42 191.13 1098.98 Q192.959 1102.52 196.57 1102.52 Q200.204 1102.52 202.01 1098.98 Q203.839 1095.42 203.839 1088.31 Q203.839 1081.18 202.01 1077.64 Q200.204 1074.07 196.57 1074.07 M196.57 1070.37 Q202.38 1070.37 205.436 1074.98 Q208.514 1079.56 208.514 1088.31 Q208.514 1097.04 205.436 1101.64 Q202.38 1106.23 196.57 1106.23 Q190.76 1106.23 187.681 1101.64 Q184.626 1097.04 184.626 1088.31 Q184.626 1079.56 187.681 1074.98 Q190.76 1070.37 196.57 1070.37 Z" fill="#000000" fill-rule="nonzero" fill-opacity="1" /><path clip-path="url(#clip250)" d="M244.903 1080.09 L234.324 1090.72 L244.903 1101.29 L242.149 1104.1 L231.524 1093.47 L220.899 1104.1 L218.167 1101.29 L228.723 1090.72 L218.167 1080.09 L220.899 1077.29 L231.524 1087.92 L242.149 1077.29 L244.903 1080.09 Z" fill="#000000" fill-rule="nonzero" fill-opacity="1" /><path clip-path="url(#clip250)" d="M257.264 1101.62 L264.903 1101.62 L264.903 1075.25 L256.593 1076.92 L256.593 1072.66 L264.857 1070.99 L269.533 1070.99 L269.533 1101.62 L277.171 1101.62 L277.171 1105.55 L257.264 1105.55 L257.264 1101.62 Z" fill="#000000" fill-rule="nonzero" fill-opacity="1" /><path clip-path="url(#clip250)" d="M296.616 1074.07 Q293.005 1074.07 291.176 1077.64 Q289.37 1081.18 289.37 1088.31 Q289.37 1095.42 291.176 1098.98 Q293.005 1102.52 296.616 1102.52 Q300.25 1102.52 302.056 1098.98 Q303.884 1095.42 303.884 1088.31 Q303.884 1081.18 302.056 1077.64 Q300.25 1074.07 296.616 1074.07 M296.616 1070.37 Q302.426 1070.37 305.482 1074.98 Q308.56 1079.56 308.56 1088.31 Q308.56 1097.04 305.482 1101.64 Q302.426 1106.23 296.616 1106.23 Q290.806 1106.23 287.727 1101.64 Q284.671 1097.04 284.671 1088.31 Q284.671 1079.56 287.727 1074.98 Q290.806 1070.37 296.616 1070.37 Z" fill="#000000" fill-rule="nonzero" fill-opacity="1" /><path clip-path="url(#clip250)" d="M321.255 1063 Q323.983 1063.59 325.506 1065.43 Q327.048 1067.27 327.048 1069.98 Q327.048 1074.14 324.189 1076.41 Q321.331 1078.69 316.064 1078.69 Q314.297 1078.69 312.416 1078.33 Q310.554 1077.99 308.56 1077.3 L308.56 1073.63 Q310.14 1074.55 312.021 1075.02 Q313.902 1075.49 315.952 1075.49 Q319.525 1075.49 321.387 1074.08 Q323.268 1072.67 323.268 1069.98 Q323.268 1067.5 321.519 1066.11 Q319.788 1064.7 316.685 1064.7 L313.413 1064.7 L313.413 1061.57 L316.836 1061.57 Q319.638 1061.57 321.124 1060.46 Q322.61 1059.34 322.61 1057.23 Q322.61 1055.07 321.067 1053.92 Q319.544 1052.75 316.685 1052.75 Q315.124 1052.75 313.337 1053.09 Q311.551 1053.43 309.407 1054.14 L309.407 1050.76 Q311.569 1050.16 313.45 1049.86 Q315.35 1049.56 317.024 1049.56 Q321.349 1049.56 323.87 1051.53 Q326.39 1053.49 326.39 1056.83 Q326.39 1059.17 325.055 1060.78 Q323.719 1062.38 321.255 1063 Z" fill="#000000" fill-rule="nonzero" fill-opacity="1" /><path clip-path="url(#clip250)" d="M51.6634 419.792 L59.3023 419.792 L59.3023 393.427 L50.9921 395.093 L50.9921 390.834 L59.256 389.168 L63.9319 389.168 L63.9319 419.792 L71.5707 419.792 L71.5707 423.728 L51.6634 423.728 L51.6634 419.792 Z" fill="#000000" fill-rule="nonzero" fill-opacity="1" /><path clip-path="url(#clip250)" d="M81.0151 417.848 L85.8993 417.848 L85.8993 423.728 L81.0151 423.728 L81.0151 417.848 Z" fill="#000000" fill-rule="nonzero" fill-opacity="1" /><path clip-path="url(#clip250)" d="M106.084 392.246 Q102.473 392.246 100.645 395.811 Q98.8391 399.353 98.8391 406.482 Q98.8391 413.589 100.645 417.154 Q102.473 420.695 106.084 420.695 Q109.719 420.695 111.524 417.154 Q113.353 413.589 113.353 406.482 Q113.353 399.353 111.524 395.811 Q109.719 392.246 106.084 392.246 M106.084 388.543 Q111.895 388.543 114.95 393.149 Q118.029 397.732 118.029 406.482 Q118.029 415.209 114.95 419.816 Q111.895 424.399 106.084 424.399 Q100.274 424.399 97.1956 419.816 Q94.14 415.209 94.14 406.482 Q94.14 397.732 97.1956 393.149 Q100.274 388.543 106.084 388.543 Z" fill="#000000" fill-rule="nonzero" fill-opacity="1" /><path clip-path="url(#clip250)" d="M136.246 392.246 Q132.635 392.246 130.807 395.811 Q129.001 399.353 129.001 406.482 Q129.001 413.589 130.807 417.154 Q132.635 420.695 136.246 420.695 Q139.881 420.695 141.686 417.154 Q143.515 413.589 143.515 406.482 Q143.515 399.353 141.686 395.811 Q139.881 392.246 136.246 392.246 M136.246 388.543 Q142.056 388.543 145.112 393.149 Q148.191 397.732 148.191 406.482 Q148.191 415.209 145.112 419.816 Q142.056 424.399 136.246 424.399 Q130.436 424.399 127.357 419.816 Q124.302 415.209 124.302 406.482 Q124.302 397.732 127.357 393.149 Q130.436 388.543 136.246 388.543 Z" fill="#000000" fill-rule="nonzero" fill-opacity="1" /><path clip-path="url(#clip250)" d="M156.455 389.168 L174.811 389.168 L174.811 393.103 L160.737 393.103 L160.737 401.575 Q161.755 401.228 162.774 401.066 Q163.792 400.881 164.811 400.881 Q170.598 400.881 173.978 404.052 Q177.357 407.223 177.357 412.64 Q177.357 418.218 173.885 421.32 Q170.413 424.399 164.093 424.399 Q161.917 424.399 159.649 424.029 Q157.404 423.658 154.996 422.917 L154.996 418.218 Q157.08 419.353 159.302 419.908 Q161.524 420.464 164.001 420.464 Q168.005 420.464 170.343 418.357 Q172.681 416.251 172.681 412.64 Q172.681 409.029 170.343 406.922 Q168.005 404.816 164.001 404.816 Q162.126 404.816 160.251 405.232 Q158.399 405.649 156.455 406.529 L156.455 389.168 Z" fill="#000000" fill-rule="nonzero" fill-opacity="1" /><path clip-path="url(#clip250)" d="M196.57 392.246 Q192.959 392.246 191.13 395.811 Q189.325 399.353 189.325 406.482 Q189.325 413.589 191.13 417.154 Q192.959 420.695 196.57 420.695 Q200.204 420.695 202.01 417.154 Q203.839 413.589 203.839 406.482 Q203.839 399.353 202.01 395.811 Q200.204 392.246 196.57 392.246 M196.57 388.543 Q202.38 388.543 205.436 393.149 Q208.514 397.732 208.514 406.482 Q208.514 415.209 205.436 419.816 Q202.38 424.399 196.57 424.399 Q190.76 424.399 187.681 419.816 Q184.626 415.209 184.626 406.482 Q184.626 397.732 187.681 393.149 Q190.76 388.543 196.57 388.543 Z" fill="#000000" fill-rule="nonzero" fill-opacity="1" /><path clip-path="url(#clip250)" d="M244.903 398.265 L234.324 408.89 L244.903 419.468 L242.149 422.269 L231.524 411.644 L220.899 422.269 L218.167 419.468 L228.723 408.89 L218.167 398.265 L220.899 395.464 L231.524 406.089 L242.149 395.464 L244.903 398.265 Z" fill="#000000" fill-rule="nonzero" fill-opacity="1" /><path clip-path="url(#clip250)" d="M257.264 419.792 L264.903 419.792 L264.903 393.427 L256.593 395.093 L256.593 390.834 L264.857 389.168 L269.533 389.168 L269.533 419.792 L277.171 419.792 L277.171 423.728 L257.264 423.728 L257.264 419.792 Z" fill="#000000" fill-rule="nonzero" fill-opacity="1" /><path clip-path="url(#clip250)" d="M296.616 392.246 Q293.005 392.246 291.176 395.811 Q289.37 399.353 289.37 406.482 Q289.37 413.589 291.176 417.154 Q293.005 420.695 296.616 420.695 Q300.25 420.695 302.056 417.154 Q303.884 413.589 303.884 406.482 Q303.884 399.353 302.056 395.811 Q300.25 392.246 296.616 392.246 M296.616 388.543 Q302.426 388.543 305.482 393.149 Q308.56 397.732 308.56 406.482 Q308.56 415.209 305.482 419.816 Q302.426 424.399 296.616 424.399 Q290.806 424.399 287.727 419.816 Q284.671 415.209 284.671 406.482 Q284.671 397.732 287.727 393.149 Q290.806 388.543 296.616 388.543 Z" fill="#000000" fill-rule="nonzero" fill-opacity="1" /><path clip-path="url(#clip250)" d="M321.255 381.177 Q323.983 381.76 325.506 383.603 Q327.048 385.446 327.048 388.155 Q327.048 392.311 324.189 394.587 Q321.331 396.863 316.064 396.863 Q314.297 396.863 312.416 396.505 Q310.554 396.167 308.56 395.471 L308.56 391.803 Q310.14 392.725 312.021 393.195 Q313.902 393.665 315.952 393.665 Q319.525 393.665 321.387 392.255 Q323.268 390.844 323.268 388.155 Q323.268 385.672 321.519 384.28 Q319.788 382.87 316.685 382.87 L313.413 382.87 L313.413 379.748 L316.836 379.748 Q319.638 379.748 321.124 378.638 Q322.61 377.509 322.61 375.403 Q322.61 373.24 321.067 372.093 Q319.544 370.927 316.685 370.927 Q315.124 370.927 313.337 371.265 Q311.551 371.604 309.407 372.318 L309.407 368.933 Q311.569 368.331 313.45 368.03 Q315.35 367.729 317.024 367.729 Q321.349 367.729 323.87 369.704 Q326.39 371.66 326.39 375.008 Q326.39 377.34 325.055 378.958 Q323.719 380.556 321.255 381.177 Z" fill="#000000" fill-rule="nonzero" fill-opacity="1" /><path clip-path="url(#clip250)" d="M51.6634 419.792 L59.3023 419.792 L59.3023 393.427 L50.9921 395.093 L50.9921 390.834 L59.256 389.168 L63.9319 389.168 L63.9319 419.792 L71.5707 419.792 L71.5707 423.728 L51.6634 423.728 L51.6634 419.792 Z" fill="#000000" fill-rule="nonzero" fill-opacity="1" /><path clip-path="url(#clip250)" d="M81.0151 417.848 L85.8993 417.848 L85.8993 423.728 L81.0151 423.728 L81.0151 417.848 Z" fill="#000000" fill-rule="nonzero" fill-opacity="1" /><path clip-path="url(#clip250)" d="M106.084 392.246 Q102.473 392.246 100.645 395.811 Q98.8391 399.353 98.8391 406.482 Q98.8391 413.589 100.645 417.154 Q102.473 420.695 106.084 420.695 Q109.719 420.695 111.524 417.154 Q113.353 413.589 113.353 406.482 Q113.353 399.353 111.524 395.811 Q109.719 392.246 106.084 392.246 M106.084 388.543 Q111.895 388.543 114.95 393.149 Q118.029 397.732 118.029 406.482 Q118.029 415.209 114.95 419.816 Q111.895 424.399 106.084 424.399 Q100.274 424.399 97.1956 419.816 Q94.14 415.209 94.14 406.482 Q94.14 397.732 97.1956 393.149 Q100.274 388.543 106.084 388.543 Z" fill="#000000" fill-rule="nonzero" fill-opacity="1" /><path clip-path="url(#clip250)" d="M136.246 392.246 Q132.635 392.246 130.807 395.811 Q129.001 399.353 129.001 406.482 Q129.001 413.589 130.807 417.154 Q132.635 420.695 136.246 420.695 Q139.881 420.695 141.686 417.154 Q143.515 413.589 143.515 406.482 Q143.515 399.353 141.686 395.811 Q139.881 392.246 136.246 392.246 M136.246 388.543 Q142.056 388.543 145.112 393.149 Q148.191 397.732 148.191 406.482 Q148.191 415.209 145.112 419.816 Q142.056 424.399 136.246 424.399 Q130.436 424.399 127.357 419.816 Q124.302 415.209 124.302 406.482 Q124.302 397.732 127.357 393.149 Q130.436 388.543 136.246 388.543 Z" fill="#000000" fill-rule="nonzero" fill-opacity="1" /><path clip-path="url(#clip250)" d="M156.455 389.168 L174.811 389.168 L174.811 393.103 L160.737 393.103 L160.737 401.575 Q161.755 401.228 162.774 401.066 Q163.792 400.881 164.811 400.881 Q170.598 400.881 173.978 404.052 Q177.357 407.223 177.357 412.64 Q177.357 418.218 173.885 421.32 Q170.413 424.399 164.093 424.399 Q161.917 424.399 159.649 424.029 Q157.404 423.658 154.996 422.917 L154.996 418.218 Q157.08 419.353 159.302 419.908 Q161.524 420.464 164.001 420.464 Q168.005 420.464 170.343 418.357 Q172.681 416.251 172.681 412.64 Q172.681 409.029 170.343 406.922 Q168.005 404.816 164.001 404.816 Q162.126 404.816 160.251 405.232 Q158.399 405.649 156.455 406.529 L156.455 389.168 Z" fill="#000000" fill-rule="nonzero" fill-opacity="1" /><path clip-path="url(#clip250)" d="M196.57 392.246 Q192.959 392.246 191.13 395.811 Q189.325 399.353 189.325 406.482 Q189.325 413.589 191.13 417.154 Q192.959 420.695 196.57 420.695 Q200.204 420.695 202.01 417.154 Q203.839 413.589 203.839 406.482 Q203.839 399.353 202.01 395.811 Q200.204 392.246 196.57 392.246 M196.57 388.543 Q202.38 388.543 205.436 393.149 Q208.514 397.732 208.514 406.482 Q208.514 415.209 205.436 419.816 Q202.38 424.399 196.57 424.399 Q190.76 424.399 187.681 419.816 Q184.626 415.209 184.626 406.482 Q184.626 397.732 187.681 393.149 Q190.76 388.543 196.57 388.543 Z" fill="#000000" fill-rule="nonzero" fill-opacity="1" /><path clip-path="url(#clip250)" d="M244.903 398.265 L234.324 408.89 L244.903 419.468 L242.149 422.269 L231.524 411.644 L220.899 422.269 L218.167 419.468 L228.723 408.89 L218.167 398.265 L220.899 395.464 L231.524 406.089 L242.149 395.464 L244.903 398.265 Z" fill="#000000" fill-rule="nonzero" fill-opacity="1" /><path clip-path="url(#clip250)" d="M257.264 419.792 L264.903 419.792 L264.903 393.427 L256.593 395.093 L256.593 390.834 L264.857 389.168 L269.533 389.168 L269.533 419.792 L277.171 419.792 L277.171 423.728 L257.264 423.728 L257.264 419.792 Z" fill="#000000" fill-rule="nonzero" fill-opacity="1" /><path clip-path="url(#clip250)" d="M296.616 392.246 Q293.005 392.246 291.176 395.811 Q289.37 399.353 289.37 406.482 Q289.37 413.589 291.176 417.154 Q293.005 420.695 296.616 420.695 Q300.25 420.695 302.056 417.154 Q303.884 413.589 303.884 406.482 Q303.884 399.353 302.056 395.811 Q300.25 392.246 296.616 392.246 M296.616 388.543 Q302.426 388.543 305.482 393.149 Q308.56 397.732 308.56 406.482 Q308.56 415.209 305.482 419.816 Q302.426 424.399 296.616 424.399 Q290.806 424.399 287.727 419.816 Q284.671 415.209 284.671 406.482 Q284.671 397.732 287.727 393.149 Q290.806 388.543 296.616 388.543 Z" fill="#000000" fill-rule="nonzero" fill-opacity="1" /><path clip-path="url(#clip250)" d="M321.255 381.177 Q323.983 381.76 325.506 383.603 Q327.048 385.446 327.048 388.155 Q327.048 392.311 324.189 394.587 Q321.331 396.863 316.064 396.863 Q314.297 396.863 312.416 396.505 Q310.554 396.167 308.56 395.471 L308.56 391.803 Q310.14 392.725 312.021 393.195 Q313.902 393.665 315.952 393.665 Q319.525 393.665 321.387 392.255 Q323.268 390.844 323.268 388.155 Q323.268 385.672 321.519 384.28 Q319.788 382.87 316.685 382.87 L313.413 382.87 L313.413 379.748 L316.836 379.748 Q319.638 379.748 321.124 378.638 Q322.61 377.509 322.61 375.403 Q322.61 373.24 321.067 372.093 Q319.544 370.927 316.685 370.927 Q315.124 370.927 313.337 371.265 Q311.551 371.604 309.407 372.318 L309.407 368.933 Q311.569 368.331 313.45 368.03 Q315.35 367.729 317.024 367.729 Q321.349 367.729 323.87 369.704 Q326.39 371.66 326.39 375.008 Q326.39 377.34 325.055 378.958 Q323.719 380.556 321.255 381.177 Z" fill="#000000" fill-rule="nonzero" fill-opacity="1" /><path clip-path="url(#clip250)" d="M51.6634 -262.034 L59.3023 -262.034 L59.3023 -288.399 L50.9921 -286.733 L50.9921 -290.992 L59.256 -292.659 L63.9319 -292.659 L63.9319 -262.034 L71.5707 -262.034 L71.5707 -258.099 L51.6634 -258.099 L51.6634 -262.034 Z" fill="#000000" fill-rule="nonzero" fill-opacity="1" /><path clip-path="url(#clip250)" d="M81.0151 -263.978 L85.8993 -263.978 L85.8993 -258.099 L81.0151 -258.099 L81.0151 -263.978 Z" fill="#000000" fill-rule="nonzero" fill-opacity="1" /><path clip-path="url(#clip250)" d="M106.084 -289.58 Q102.473 -289.58 100.645 -286.015 Q98.8391 -282.474 98.8391 -275.344 Q98.8391 -268.238 100.645 -264.673 Q102.473 -261.131 106.084 -261.131 Q109.719 -261.131 111.524 -264.673 Q113.353 -268.238 113.353 -275.344 Q113.353 -282.474 111.524 -286.015 Q109.719 -289.58 106.084 -289.58 M106.084 -293.284 Q111.895 -293.284 114.95 -288.677 Q118.029 -284.094 118.029 -275.344 Q118.029 -266.617 114.95 -262.011 Q111.895 -257.427 106.084 -257.427 Q100.274 -257.427 97.1956 -262.011 Q94.14 -266.617 94.14 -275.344 Q94.14 -284.094 97.1956 -288.677 Q100.274 -293.284 106.084 -293.284 Z" fill="#000000" fill-rule="nonzero" fill-opacity="1" /><path clip-path="url(#clip250)" d="M136.246 -289.58 Q132.635 -289.58 130.807 -286.015 Q129.001 -282.474 129.001 -275.344 Q129.001 -268.238 130.807 -264.673 Q132.635 -261.131 136.246 -261.131 Q139.881 -261.131 141.686 -264.673 Q143.515 -268.238 143.515 -275.344 Q143.515 -282.474 141.686 -286.015 Q139.881 -289.58 136.246 -289.58 M136.246 -293.284 Q142.056 -293.284 145.112 -288.677 Q148.191 -284.094 148.191 -275.344 Q148.191 -266.617 145.112 -262.011 Q142.056 -257.427 136.246 -257.427 Q130.436 -257.427 127.357 -262.011 Q124.302 -266.617 124.302 -275.344 Q124.302 -284.094 127.357 -288.677 Q130.436 -293.284 136.246 -293.284 Z" fill="#000000" fill-rule="nonzero" fill-opacity="1" /><path clip-path="url(#clip250)" d="M156.455 -292.659 L174.811 -292.659 L174.811 -288.724 L160.737 -288.724 L160.737 -280.251 Q161.755 -280.599 162.774 -280.761 Q163.792 -280.946 164.811 -280.946 Q170.598 -280.946 173.978 -277.774 Q177.357 -274.603 177.357 -269.187 Q177.357 -263.608 173.885 -260.506 Q170.413 -257.427 164.093 -257.427 Q161.917 -257.427 159.649 -257.798 Q157.404 -258.168 154.996 -258.909 L154.996 -263.608 Q157.08 -262.474 159.302 -261.918 Q161.524 -261.363 164.001 -261.363 Q168.005 -261.363 170.343 -263.469 Q172.681 -265.575 172.681 -269.187 Q172.681 -272.798 170.343 -274.904 Q168.005 -277.011 164.001 -277.011 Q162.126 -277.011 160.251 -276.594 Q158.399 -276.177 156.455 -275.298 L156.455 -292.659 Z" fill="#000000" fill-rule="nonzero" fill-opacity="1" /><path clip-path="url(#clip250)" d="M196.57 -289.58 Q192.959 -289.58 191.13 -286.015 Q189.325 -282.474 189.325 -275.344 Q189.325 -268.238 191.13 -264.673 Q192.959 -261.131 196.57 -261.131 Q200.204 -261.131 202.01 -264.673 Q203.839 -268.238 203.839 -275.344 Q203.839 -282.474 202.01 -286.015 Q200.204 -289.58 196.57 -289.58 M196.57 -293.284 Q202.38 -293.284 205.436 -288.677 Q208.514 -284.094 208.514 -275.344 Q208.514 -266.617 205.436 -262.011 Q202.38 -257.427 196.57 -257.427 Q190.76 -257.427 187.681 -262.011 Q184.626 -266.617 184.626 -275.344 Q184.626 -284.094 187.681 -288.677 Q190.76 -293.284 196.57 -293.284 Z" fill="#000000" fill-rule="nonzero" fill-opacity="1" /><path clip-path="url(#clip250)" d="M244.903 -283.562 L234.324 -272.937 L244.903 -262.358 L242.149 -259.557 L231.524 -270.182 L220.899 -259.557 L218.167 -262.358 L228.723 -272.937 L218.167 -283.562 L220.899 -286.362 L231.524 -275.737 L242.149 -286.362 L244.903 -283.562 Z" fill="#000000" fill-rule="nonzero" fill-opacity="1" /><path clip-path="url(#clip250)" d="M257.264 -262.034 L264.903 -262.034 L264.903 -288.399 L256.593 -286.733 L256.593 -290.992 L264.857 -292.659 L269.533 -292.659 L269.533 -262.034 L277.171 -262.034 L277.171 -258.099 L257.264 -258.099 L257.264 -262.034 Z" fill="#000000" fill-rule="nonzero" fill-opacity="1" /><path clip-path="url(#clip250)" d="M296.616 -289.58 Q293.005 -289.58 291.176 -286.015 Q289.37 -282.474 289.37 -275.344 Q289.37 -268.238 291.176 -264.673 Q293.005 -261.131 296.616 -261.131 Q300.25 -261.131 302.056 -264.673 Q303.884 -268.238 303.884 -275.344 Q303.884 -282.474 302.056 -286.015 Q300.25 -289.58 296.616 -289.58 M296.616 -293.284 Q302.426 -293.284 305.482 -288.677 Q308.56 -284.094 308.56 -275.344 Q308.56 -266.617 305.482 -262.011 Q302.426 -257.427 296.616 -257.427 Q290.806 -257.427 287.727 -262.011 Q284.671 -266.617 284.671 -275.344 Q284.671 -284.094 287.727 -288.677 Q290.806 -293.284 296.616 -293.284 Z" fill="#000000" fill-rule="nonzero" fill-opacity="1" /><path clip-path="url(#clip250)" d="M321.255 -300.649 Q323.983 -300.066 325.506 -298.223 Q327.048 -296.38 327.048 -293.672 Q327.048 -289.515 324.189 -287.239 Q321.331 -284.964 316.064 -284.964 Q314.297 -284.964 312.416 -285.321 Q310.554 -285.66 308.56 -286.355 L308.56 -290.023 Q310.14 -289.101 312.021 -288.631 Q313.902 -288.161 315.952 -288.161 Q319.525 -288.161 321.387 -289.572 Q323.268 -290.982 323.268 -293.672 Q323.268 -296.154 321.519 -297.546 Q319.788 -298.957 316.685 -298.957 L313.413 -298.957 L313.413 -302.079 L316.836 -302.079 Q319.638 -302.079 321.124 -303.188 Q322.61 -304.317 322.61 -306.423 Q322.61 -308.586 321.067 -309.733 Q319.544 -310.9 316.685 -310.9 Q315.124 -310.9 313.337 -310.561 Q311.551 -310.222 309.407 -309.508 L309.407 -312.893 Q311.569 -313.495 313.45 -313.796 Q315.35 -314.097 317.024 -314.097 Q321.349 -314.097 323.87 -312.122 Q326.39 -310.166 326.39 -306.818 Q326.39 -304.486 325.055 -302.869 Q323.719 -301.27 321.255 -300.649 Z" fill="#000000" fill-rule="nonzero" fill-opacity="1" /><polyline clip-path="url(#clip252)" style="stroke:#009af9; stroke-linecap:round; stroke-linejoin:round; stroke-width:4; stroke-opacity:1; fill:none" points="363.048,400 365.04,400 367.032,400 369.023,-281.826 371.015,400 373.007,400 374.998,1081.83 376.99,400 378.982,400 380.974,400 382.965,400 384.957,400 386.949,400 388.94,400 390.932,400 392.924,400 394.915,400 396.907,400 398.899,1081.83 400.891,-281.826 402.882,400 404.874,400 406.866,400 408.857,400 410.849,400 412.841,400 414.832,400 416.824,400 418.816,400 420.808,-281.826 422.799,-281.826 424.791,400 426.783,-281.826 428.774,400 430.766,400 432.758,1081.83 434.749,400 436.741,1081.83 438.733,1081.83 440.725,1081.83 442.716,400 444.708,400 446.7,400 448.691,400 450.683,400 452.675,400 454.666,400 456.658,400 458.65,1081.83 460.641,1081.83 462.633,400 464.625,400 466.617,400 468.608,400 470.6,400 472.592,400 474.583,1081.83 476.575,400 478.567,400 480.558,400 482.55,400 484.542,400 486.534,400 488.525,-281.826 490.517,-281.826 492.509,400 494.5,400 496.492,400 498.484,400 500.475,400 502.467,400 504.459,400 506.451,-281.826 508.442,400 510.434,-281.826 512.426,-281.826 514.417,400 516.409,400 518.401,400 520.392,400 522.384,400 524.376,400 526.368,400 528.359,400 530.351,400 532.343,-281.826 534.334,-281.826 536.326,400 538.318,400 540.309,400 542.301,400 544.293,400 546.285,400 548.276,400 550.268,400 552.26,400 554.251,400 556.243,400 558.235,400 560.226,400 562.218,400 564.21,400 566.202,400 568.193,400 570.185,400 572.177,400 574.168,400 576.16,400 578.152,400 580.143,400 582.135,400 584.127,400 586.119,400 588.11,400 590.102,400 592.094,400 594.085,400 596.077,400 598.069,400 600.06,400 602.052,400 604.044,400 606.036,400 608.027,400 610.019,400 612.011,400 614.002,400 615.994,400 617.986,400 619.977,400 621.969,400 623.961,400 625.953,400 627.944,400 629.936,400 631.928,400 633.919,400 635.911,400 637.903,400 639.894,400 641.886,400 643.878,400 645.87,400 647.861,400 649.853,400 651.845,400 653.836,400 655.828,400 657.82,400 659.811,400 661.803,400 663.795,400 665.787,400 667.778,400 669.77,400 671.762,400 673.753,400 675.745,-281.826 677.737,400 679.728,400 681.72,400 683.712,1081.83 685.704,400 687.695,400 689.687,400 691.679,400 693.67,400 695.662,400 697.654,400 699.645,400 701.637,400 703.629,-281.826 705.621,400 707.612,-281.826 709.604,400 711.596,400 713.587,-281.826 715.579,400 717.571,400 719.562,400 721.554,400 723.546,400 725.538,1081.83 727.529,400 729.521,400 731.513,1081.83 733.504,400 735.496,400 737.488,400 739.479,400 741.471,400 743.463,400 745.455,400 747.446,400 749.438,400 751.43,-281.826 753.421,400 755.413,-281.826 757.405,400 759.396,400 761.388,400 763.38,1081.83 765.372,400 767.363,400 769.355,400 771.347,400 773.338,400 775.33,400 777.322,400 779.313,400 781.305,400 783.297,-281.826 785.288,400 787.28,-281.826 789.272,400 791.264,400 793.255,-281.826 795.247,400 797.239,400 799.23,-281.826 801.222,400 803.214,400 805.205,1081.83 807.197,400 809.189,400 811.181,1081.83 813.172,400 815.164,400 817.156,400 819.147,400 821.139,400 823.131,400 825.122,400 827.114,400 829.106,400 831.098,-281.826 833.089,400 835.081,-281.826 837.073,400 839.064,400 841.056,400 843.048,1081.83 845.039,400 847.031,400 849.023,400 851.015,400 853.006,1081.83 854.998,400 856.99,400 858.981,1081.83 860.973,400 862.965,-281.826 864.956,400 866.948,-281.826 868.94,400 870.932,400 872.923,-281.826 874.915,400 876.907,400 878.898,-281.826 880.89,1081.83 882.882,-281.826 884.873,1081.83 886.865,400 888.857,400 890.849,400 892.84,400 894.832,400 896.824,400 898.815,400 900.807,400 902.799,400 904.79,400 906.782,400 908.774,400 910.766,-281.826 912.757,400 914.749,400 916.741,1081.83 918.732,400 920.724,400 922.716,1081.83 924.707,400 926.699,400 928.691,400 930.683,400 932.674,1081.83 934.666,400 936.658,400 938.649,1081.83 940.641,400 942.633,-281.826 944.624,1081.83 946.616,-281.826 948.608,1081.83 950.6,400 952.591,400 954.583,400 956.575,400 958.566,-281.826 960.558,1081.83 962.55,-281.826 964.541,1081.83 966.533,400 968.525,400 970.517,400 972.508,400 974.5,400 976.492,400 978.483,400 980.475,400 982.467,400 984.458,-281.826 986.45,400 988.442,400 990.434,-281.826 992.425,400 994.417,400 996.409,1081.83 998.4,400 1000.39,400 1002.38,1081.83 1004.38,400 1006.37,400 1008.36,400 1010.35,400 1012.34,1081.83 1014.33,400 1016.33,400 1018.32,1081.83 1020.31,400 1022.3,-281.826 1024.29,1081.83 1026.28,-281.826 1028.28,1081.83 1030.27,400 1032.26,400 1034.25,400 1036.24,400 1038.23,-281.826 1040.23,1081.83 1042.22,-281.826 1044.21,1081.83 1046.2,400 1048.19,400 1050.18,400 1052.18,400 1054.17,-281.826 1056.16,400 1058.15,400 1060.14,400 1062.13,400 1064.13,-281.826 1066.12,400 1068.11,400 1070.1,-281.826 1072.09,400 1074.08,400 1076.08,1081.83 1078.07,400 1080.06,400 1082.05,1081.83 1084.04,400 1086.04,400 1088.03,400 1090.02,400 1092.01,1081.83 1094,400 1095.99,400 1097.99,400 1099.98,400 1101.97,400 1103.96,1081.83 1105.95,-281.826 1107.94,1081.83 1109.94,400 1111.93,400 1113.92,400 1115.91,400 1117.9,-281.826 1119.89,1081.83 1121.89,-281.826 1123.88,1081.83 1125.87,400 1127.86,400 1129.85,400 1131.84,400 1133.84,400 1135.83,400 1137.82,400 1139.81,400 1141.8,400 1143.79,400 1145.79,400 1147.78,400 1149.77,400 1151.76,400 1153.75,400 1155.74,400 1157.74,400 1159.73,400 1161.72,400 1163.71,400 1165.7,400 1167.69,400 1169.69,400 1171.68,400 1173.67,400 1175.66,400 1177.65,400 1179.64,400 1181.64,400 1183.63,400 1185.62,400 1187.61,400 1189.6,400 1191.6,400 1193.59,400 1195.58,400 1197.57,-281.826 1199.56,1081.83 1201.55,-281.826 1203.55,1081.83 1205.54,400 1207.53,400 1209.52,400 1211.51,-281.826 1213.5,400 1215.5,400 1217.49,400 1219.48,400 1221.47,1081.83 1223.46,-281.826 1225.45,1081.83 1227.45,-281.826 1229.44,400 1231.43,400 1233.42,400 1235.41,400 1237.4,1081.83 1239.4,-281.826 1241.39,1081.83 1243.38,-281.826 1245.37,400 1247.36,400 1249.35,400 1251.35,400 1253.34,1081.83 1255.33,-281.826 1257.32,1081.83 1259.31,-281.826 1261.3,400 1263.3,400 1265.29,400 1267.28,400 1269.27,400 1271.26,400 1273.25,400 1275.25,400 1277.24,400 1279.23,400 1281.22,400 1283.21,400 1285.21,400 1287.2,400 1289.19,400 1291.18,400 1293.17,400 1295.16,400 1297.16,400 1299.15,400 1301.14,400 1303.13,400 1305.12,400 1307.11,400 1309.11,400 1311.1,400 1313.09,400 1315.08,400 1317.07,400 1319.06,400 1321.06,400 1323.05,400 1325.04,400 1327.03,400 1329.02,400 1331.01,400 1333.01,400 1335,400 1336.99,400 1338.98,400 1340.97,-281.826 1342.96,1081.83 1344.96,-281.826 1346.95,1081.83 1348.94,400 1350.93,400 1352.92,400 1354.91,400 1356.91,-281.826 1358.9,400 1360.89,400 1362.88,400 1364.87,1081.83 1366.86,-281.826 1368.86,1081.83 1370.85,-281.826 1372.84,400 1374.83,400 1376.82,400 1378.81,400 1380.81,1081.83 1382.8,-281.826 1384.79,1081.83 1386.78,-281.826 1388.77,400 1390.77,400 1392.76,400 1394.75,400 1396.74,1081.83 1398.73,-281.826 1400.72,1081.83 1402.72,-281.826 1404.71,400 1406.7,400 1408.69,400 1410.68,400 1412.67,400 1414.67,400 1416.66,400 1418.65,400 1420.64,400 1422.63,400 1424.62,400 1426.62,400 1428.61,400 1430.6,400 1432.59,400 1434.58,400 1436.57,400 1438.57,400 1440.56,400 1442.55,400 1444.54,400 1446.53,400 1448.52,400 1450.52,400 1452.51,400 1454.5,400 1456.49,400 1458.48,400 1460.47,400 1462.47,400 1464.46,400 1466.45,400 1468.44,400 1470.43,400 1472.42,400 1474.42,400 1476.41,400 1478.4,400 1480.39,400 1482.38,400 1484.37,-281.826 1486.37,1081.83 1488.36,-281.826 1490.35,1081.83 1492.34,400 1494.33,400 1496.33,400 1498.32,400 1500.31,400 1502.3,1081.83 1504.29,-281.826 1506.28,400 1508.28,400 1510.27,1081.83 1512.26,-281.826 1514.25,400 1516.24,400 1518.23,400 1520.23,400 1522.22,400 1524.21,400 1526.2,400 1528.19,400 1530.18,400 1532.18,400 1534.17,400 1536.16,400 1538.15,400 1540.14,400 1542.13,400 1544.13,400 1546.12,400 1548.11,400 1550.1,400 1552.09,400 1554.08,400 1556.08,400 1558.07,400 1560.06,400 1562.05,400 1564.04,400 1566.03,400 1568.03,400 1570.02,400 1572.01,400 1574,400 1575.99,400 1577.98,400 1579.98,400 1581.97,400 1583.96,400 1585.95,400 1587.94,400 1589.94,400 1591.93,400 1593.92,400 1595.91,400 1597.9,400 1599.89,400 1601.89,400 1603.88,400 1605.87,400 1607.86,400 1609.85,400 1611.84,400 1613.84,400 1615.83,400 1617.82,400 1619.81,400 1621.8,400 1623.79,400 1625.79,400 1627.78,400 1629.77,400 1631.76,400 1633.75,400 1635.74,400 1637.74,400 1639.73,400 1641.72,400 1643.71,400 1645.7,400 1647.69,400 1649.69,400 1651.68,400 1653.67,400 1655.66,400 1657.65,400 1659.64,400 1661.64,400 1663.63,400 1665.62,400 1667.61,400 1669.6,400 1671.59,400 1673.59,400 1675.58,400 1677.57,400 1679.56,400 1681.55,400 1683.54,400 1685.54,400 1687.53,400 1689.52,400 1691.51,400 1693.5,400 1695.5,400 1697.49,400 1699.48,400 1701.47,400 1703.46,400 1705.45,400 1707.45,400 1709.44,400 1711.43,400 1713.42,400 1715.41,400 1717.4,400 1719.4,400 1721.39,400 1723.38,400 1725.37,400 1727.36,400 1729.35,400 1731.35,400 1733.34,400 1735.33,400 1737.32,400 1739.31,400 1741.3,400 1743.3,400 1745.29,400 1747.28,400 1749.27,400 1751.26,400 1753.25,400 1755.25,400 1757.24,400 1759.23,400 1761.22,400 1763.21,400 1765.2,400 1767.2,400 1769.19,400 1771.18,400 1773.17,400 1775.16,400 1777.15,400 1779.15,400 1781.14,400 1783.13,400 1785.12,400 1787.11,400 1789.1,400 1791.1,400 1793.09,400 1795.08,400 1797.07,400 1799.06,400 1801.06,400 1803.05,400 1805.04,400 1807.03,400 1809.02,400 1811.01,400 1813.01,400 1815,400 1816.99,400 1818.98,400 1820.97,400 1822.96,400 1824.96,400 1826.95,400 1828.94,400 1830.93,400 1832.92,400 1834.91,400 1836.91,400 1838.9,400 1840.89,400 1842.88,400 1844.87,400 1846.86,400 1848.86,400 1850.85,400 1852.84,400 1854.83,400 1856.82,400 1858.81,400 1860.81,400 1862.8,400 1864.79,400 1866.78,400 1868.77,400 1870.76,400 1872.76,400 1874.75,400 1876.74,400 1878.73,400 1880.72,400 1882.71,400 1884.71,400 1886.7,400 1888.69,400 1890.68,400 1892.67,400 1894.67,400 1896.66,400 1898.65,400 1900.64,400 1902.63,400 1904.62,400 1906.62,400 1908.61,400 1910.6,400 1912.59,400 1914.58,400 1916.57,400 1918.57,400 1920.56,400 1922.55,400 1924.54,400 1926.53,400 1928.52,400 1930.52,400 1932.51,400 1934.5,400 1936.49,400 1938.48,400 1940.47,400 1942.47,400 1944.46,400 1946.45,400 1948.44,400 1950.43,400 1952.42,400 1954.42,400 1956.41,400 1958.4,400 1960.39,400 1962.38,400 1964.37,400 1966.37,400 1968.36,400 1970.35,400 1972.34,400 1974.33,400 1976.32,400 1978.32,400 1980.31,400 1982.3,400 1984.29,400 1986.28,400 1988.27,400 1990.27,400 1992.26,400 1994.25,400 1996.24,400 1998.23,400 2000.23,400 2002.22,400 2004.21,400 2006.2,400 2008.19,400 2010.18,400 2012.18,400 2014.17,400 2016.16,400 2018.15,400 2020.14,400 2022.13,400 2024.13,400 2026.12,400 2028.11,400 2030.1,400 2032.09,400 2034.08,400 2036.08,400 2038.07,400 2040.06,400 2042.05,400 2044.04,400 2046.03,400 2048.03,400 2050.02,400 2052.01,400 2054,400 2055.99,400 2057.98,400 2059.98,400 2061.97,400 2063.96,400 2065.95,400 2067.94,400 2069.93,400 2071.93,400 2073.92,400 2075.91,400 2077.9,400 2079.89,400 2081.88,400 2083.88,400 2085.87,400 2087.86,400 2089.85,400 2091.84,400 2093.83,400 2095.83,400 2097.82,400 2099.81,400 2101.8,400 2103.79,400 2105.79,400 2107.78,400 2109.77,400 2111.76,400 2113.75,400 2115.74,400 2117.74,400 2119.73,400 2121.72,400 2123.71,400 2125.7,400 2127.69,400 2129.69,400 2131.68,400 2133.67,400 2135.66,400 2137.65,400 2139.64,400 2141.64,400 2143.63,400 2145.62,400 2147.61,400 2149.6,400 2151.59,400 2153.59,400 2155.58,400 2157.57,400 2159.56,400 2161.55,400 2163.54,400 2165.54,400 2167.53,400 2169.52,400 2171.51,400 2173.5,400 2175.49,400 2177.49,400 2179.48,400 2181.47,400 2183.46,400 2185.45,400 2187.44,400 2189.44,400 2191.43,400 2193.42,400 2195.41,400 2197.4,400 2199.4,400 2201.39,400 2203.38,400 2205.37,400 2207.36,400 2209.35,400 2211.35,400 2213.34,400 2215.33,400 2217.32,400 2219.31,400 2221.3,400 2223.3,400 2225.29,400 2227.28,400 2229.27,400 2231.26,400 2233.25,400 2235.25,400 2237.24,400 2239.23,400 2241.22,400 2243.21,400 2245.2,400 2247.2,400 2249.19,400 2251.18,400 2253.17,400 2255.16,400 2257.15,400 2259.15,400 2261.14,400 2263.13,400 2265.12,400 2267.11,400 2269.1,400 2271.1,400 2273.09,400 2275.08,400 2277.07,400 2279.06,400 2281.05,400 2283.05,400 2285.04,400 2287.03,400 2289.02,400 2291.01,400 2293,400 2295,400 2296.99,400 2298.98,400 2300.97,400 2302.96,400 2304.96,400 2306.95,400 2308.94,400 2310.93,400 2312.92,400 2314.91,400 2316.91,400 2318.9,400 2320.89,400 2322.88,400 2324.87,400 2326.86,400 2328.86,400 2330.85,400 2332.84,400 2334.83,400 2336.82,400 2338.81,400 2340.81,400 2342.8,400 2344.79,400 2346.78,400 2348.77,400 2350.76,400 2352.76,400 "/>
<path clip-path="url(#clip250)" d="M1964.57 196.379 L2286.43 196.379 L2286.43 92.6992 L1964.57 92.6992  Z" fill="#ffffff" fill-rule="evenodd" fill-opacity="1"/>
<polyline clip-path="url(#clip250)" style="stroke:#000000; stroke-linecap:round; stroke-linejoin:round; stroke-width:4; stroke-opacity:1; fill:none" points="1964.57,196.379 2286.43,196.379 2286.43,92.6992 1964.57,92.6992 1964.57,196.379 "/>
<polyline clip-path="url(#clip250)" style="stroke:#009af9; stroke-linecap:round; stroke-linejoin:round; stroke-width:4; stroke-opacity:1; fill:none" points="1986.68,144.539 2119.32,144.539 "/>
<path clip-path="url(#clip250)" d="M2156.62 139.875 Q2155.9 139.458 2155.04 139.273 Q2154.21 139.065 2153.19 139.065 Q2149.58 139.065 2147.64 141.426 Q2145.71 143.764 2145.71 148.162 L2145.71 161.819 L2141.43 161.819 L2141.43 135.893 L2145.71 135.893 L2145.71 139.921 Q2147.06 137.56 2149.21 136.426 Q2151.36 135.268 2154.44 135.268 Q2154.88 135.268 2155.41 135.338 Q2155.95 135.384 2156.59 135.5 L2156.62 139.875 Z" fill="#000000" fill-rule="nonzero" fill-opacity="1" /><path clip-path="url(#clip250)" d="M2181.8 146.171 L2181.8 161.819 L2177.54 161.819 L2177.54 146.31 Q2177.54 142.629 2176.11 140.801 Q2174.67 138.972 2171.8 138.972 Q2168.35 138.972 2166.36 141.171 Q2164.37 143.37 2164.37 147.166 L2164.37 161.819 L2160.09 161.819 L2160.09 125.801 L2164.37 125.801 L2164.37 139.921 Q2165.9 137.583 2167.96 136.426 Q2170.04 135.268 2172.75 135.268 Q2177.22 135.268 2179.51 138.046 Q2181.8 140.801 2181.8 146.171 Z" fill="#000000" fill-rule="nonzero" fill-opacity="1" /><path clip-path="url(#clip250)" d="M2200.34 138.879 Q2196.92 138.879 2194.93 141.565 Q2192.94 144.227 2192.94 148.879 Q2192.94 153.532 2194.9 156.217 Q2196.89 158.879 2200.34 158.879 Q2203.75 158.879 2205.74 156.194 Q2207.73 153.509 2207.73 148.879 Q2207.73 144.273 2205.74 141.588 Q2203.75 138.879 2200.34 138.879 M2200.34 135.268 Q2205.9 135.268 2209.07 138.879 Q2212.24 142.491 2212.24 148.879 Q2212.24 155.245 2209.07 158.879 Q2205.9 162.49 2200.34 162.49 Q2194.76 162.49 2191.59 158.879 Q2188.45 155.245 2188.45 148.879 Q2188.45 142.491 2191.59 138.879 Q2194.76 135.268 2200.34 135.268 Z" fill="#000000" fill-rule="nonzero" fill-opacity="1" /><path clip-path="url(#clip250)" d="M2239 169.69 L2239 173 L2214.37 173 L2214.37 169.69 L2239 169.69 Z" fill="#000000" fill-rule="nonzero" fill-opacity="1" /><path clip-path="url(#clip250)" d="M2244.42 157.884 L2252.06 157.884 L2252.06 131.518 L2243.75 133.185 L2243.75 128.926 L2252.01 127.259 L2256.69 127.259 L2256.69 157.884 L2264.32 157.884 L2264.32 161.819 L2244.42 161.819 L2244.42 157.884 Z" fill="#000000" fill-rule="nonzero" fill-opacity="1" /></svg>
